{
	"patcher" : 	{
		"fileversion" : 1,
		"appversion" : 		{
			"major" : 6,
			"minor" : 1,
			"revision" : 5,
			"architecture" : "x86"
		}
,
		"rect" : [ 0.0, 44.0, 1440.0, 755.0 ],
		"bglocked" : 0,
		"openinpresentation" : 0,
		"default_fontsize" : 12.0,
		"default_fontface" : 0,
		"default_fontname" : "Arial",
		"gridonopen" : 0,
		"gridsize" : [ 15.0, 15.0 ],
		"gridsnaponopen" : 0,
		"statusbarvisible" : 1,
		"toolbarvisible" : 1,
		"boxanimatetime" : 200,
		"imprint" : 0,
		"enablehscroll" : 1,
		"enablevscroll" : 1,
		"devicewidth" : 0.0,
		"description" : "",
		"digest" : "",
		"tags" : "",
		"boxes" : [ 			{
				"box" : 				{
					"embed" : 1,
					"id" : "obj-15",
					"maxclass" : "bpatcher",
					"numinlets" : 8,
					"numoutlets" : 1,
					"outlettype" : [ "signal" ],
					"patcher" : 					{
						"fileversion" : 1,
						"appversion" : 						{
							"major" : 6,
							"minor" : 1,
							"revision" : 5,
							"architecture" : "x86"
						}
,
						"rect" : [ -3.0, 42.0, 313.0, 153.0 ],
						"bgcolor" : [ 1.0, 1.0, 1.0, 0.0 ],
						"bglocked" : 0,
						"openinpresentation" : 1,
						"default_fontsize" : 12.0,
						"default_fontface" : 0,
						"default_fontname" : "Arial",
						"gridonopen" : 0,
						"gridsize" : [ 15.0, 15.0 ],
						"gridsnaponopen" : 0,
						"statusbarvisible" : 1,
						"toolbarvisible" : 1,
						"boxanimatetime" : 200,
						"imprint" : 0,
						"enablehscroll" : 1,
						"enablevscroll" : 1,
						"devicewidth" : 0.0,
						"description" : "",
						"digest" : "",
						"tags" : "",
						"boxes" : [ 							{
								"box" : 								{
									"fontname" : "Arial",
									"fontsize" : 12.0,
									"id" : "obj-17",
									"maxclass" : "newobj",
									"numinlets" : 2,
									"numoutlets" : 1,
									"outlettype" : [ "float" ],
									"patching_rect" : [ 949.325928, 253.0, 83.0, 20.0 ],
									"presentation_rect" : [ 1232.0, 523.0, 0.0, 0.0 ],
									"text" : "snapshot~ 10"
								}

							}
, 							{
								"box" : 								{
									"fontname" : "Arial",
									"fontsize" : 12.0,
									"id" : "obj-19",
									"maxclass" : "newobj",
									"numinlets" : 2,
									"numoutlets" : 1,
									"outlettype" : [ "float" ],
									"patching_rect" : [ 866.325928, 253.0, 83.0, 20.0 ],
									"presentation_rect" : [ 1149.0, 523.0, 0.0, 0.0 ],
									"text" : "snapshot~ 10"
								}

							}
, 							{
								"box" : 								{
									"fontname" : "Arial",
									"fontsize" : 12.0,
									"id" : "obj-16",
									"maxclass" : "newobj",
									"numinlets" : 2,
									"numoutlets" : 1,
									"outlettype" : [ "float" ],
									"patching_rect" : [ 784.912964, 253.0, 83.0, 20.0 ],
									"presentation_rect" : [ 1067.0, 520.0, 0.0, 0.0 ],
									"text" : "snapshot~ 10"
								}

							}
, 							{
								"box" : 								{
									"fontname" : "Arial",
									"fontsize" : 12.0,
									"id" : "obj-13",
									"maxclass" : "newobj",
									"numinlets" : 2,
									"numoutlets" : 1,
									"outlettype" : [ "float" ],
									"patching_rect" : [ 701.912964, 253.0, 83.0, 20.0 ],
									"text" : "snapshot~ 10"
								}

							}
, 							{
								"box" : 								{
									"fontname" : "Arial",
									"fontsize" : 13.0,
									"id" : "obj-43",
									"maxclass" : "message",
									"numinlets" : 2,
									"numoutlets" : 1,
									"outlettype" : [ "" ],
									"patching_rect" : [ 988.0, 323.0, 47.0, 19.0 ],
									"text" : "3 0 $1"
								}

							}
, 							{
								"box" : 								{
									"fontname" : "Arial",
									"fontsize" : 13.0,
									"id" : "obj-44",
									"maxclass" : "message",
									"numinlets" : 2,
									"numoutlets" : 1,
									"outlettype" : [ "" ],
									"patching_rect" : [ 879.5, 323.0, 47.0, 19.0 ],
									"text" : "2 0 $1"
								}

							}
, 							{
								"box" : 								{
									"fontname" : "Arial",
									"fontsize" : 13.0,
									"id" : "obj-45",
									"maxclass" : "message",
									"numinlets" : 2,
									"numoutlets" : 1,
									"outlettype" : [ "" ],
									"patching_rect" : [ 771.0, 323.0, 47.0, 19.0 ],
									"text" : "1 0 $1"
								}

							}
, 							{
								"box" : 								{
									"fontname" : "Arial",
									"fontsize" : 13.0,
									"id" : "obj-46",
									"maxclass" : "message",
									"numinlets" : 2,
									"numoutlets" : 1,
									"outlettype" : [ "" ],
									"patching_rect" : [ 662.5, 323.0, 47.0, 19.0 ],
									"text" : "0 0 $1"
								}

							}
, 							{
								"box" : 								{
									"fontname" : "Arial",
									"fontsize" : 12.0,
									"id" : "obj-42",
									"maxclass" : "newobj",
									"numinlets" : 2,
									"numoutlets" : 1,
									"outlettype" : [ "signal" ],
									"patching_rect" : [ 839.0, 220.0, 36.0, 20.0 ],
									"text" : "*~ 1."
								}

							}
, 							{
								"box" : 								{
									"fontname" : "Arial",
									"fontsize" : 12.0,
									"id" : "obj-40",
									"maxclass" : "newobj",
									"numinlets" : 2,
									"numoutlets" : 1,
									"outlettype" : [ "signal" ],
									"patching_rect" : [ 806.0, 220.0, 36.0, 20.0 ],
									"text" : "*~ 1."
								}

							}
, 							{
								"box" : 								{
									"fontname" : "Arial",
									"fontsize" : 12.0,
									"id" : "obj-36",
									"maxclass" : "newobj",
									"numinlets" : 2,
									"numoutlets" : 1,
									"outlettype" : [ "signal" ],
									"patching_rect" : [ 775.912964, 220.0, 36.0, 20.0 ],
									"text" : "*~ 1."
								}

							}
, 							{
								"box" : 								{
									"fontname" : "Arial",
									"fontsize" : 12.0,
									"id" : "obj-34",
									"maxclass" : "newobj",
									"numinlets" : 2,
									"numoutlets" : 1,
									"outlettype" : [ "signal" ],
									"patching_rect" : [ 742.912964, 220.0, 36.0, 20.0 ],
									"text" : "*~ 1."
								}

							}
, 							{
								"box" : 								{
									"fontname" : "Arial",
									"fontsize" : 12.0,
									"id" : "obj-27",
									"maxclass" : "message",
									"numinlets" : 2,
									"numoutlets" : 1,
									"outlettype" : [ "" ],
									"patching_rect" : [ 855.412964, 103.383911, 41.0, 18.0 ],
									"text" : "$1 20"
								}

							}
, 							{
								"box" : 								{
									"fontname" : "Arial",
									"fontsize" : 12.0,
									"id" : "obj-28",
									"maxclass" : "newobj",
									"numinlets" : 2,
									"numoutlets" : 2,
									"outlettype" : [ "signal", "bang" ],
									"patching_rect" : [ 855.412964, 139.5, 50.0, 20.0 ],
									"text" : "line~ 0."
								}

							}
, 							{
								"box" : 								{
									"fontname" : "Arial",
									"fontsize" : 12.0,
									"id" : "obj-30",
									"maxclass" : "message",
									"numinlets" : 2,
									"numoutlets" : 1,
									"outlettype" : [ "" ],
									"patching_rect" : [ 812.412964, 103.383911, 41.0, 18.0 ],
									"text" : "$1 20"
								}

							}
, 							{
								"box" : 								{
									"fontname" : "Arial",
									"fontsize" : 12.0,
									"id" : "obj-31",
									"maxclass" : "newobj",
									"numinlets" : 2,
									"numoutlets" : 2,
									"outlettype" : [ "signal", "bang" ],
									"patching_rect" : [ 812.412964, 139.5, 50.0, 20.0 ],
									"text" : "line~ 0."
								}

							}
, 							{
								"box" : 								{
									"fontname" : "Arial",
									"fontsize" : 12.0,
									"id" : "obj-24",
									"maxclass" : "message",
									"numinlets" : 2,
									"numoutlets" : 1,
									"outlettype" : [ "" ],
									"patching_rect" : [ 768.412964, 103.383911, 41.0, 18.0 ],
									"text" : "$1 20"
								}

							}
, 							{
								"box" : 								{
									"fontname" : "Arial",
									"fontsize" : 12.0,
									"id" : "obj-26",
									"maxclass" : "newobj",
									"numinlets" : 2,
									"numoutlets" : 2,
									"outlettype" : [ "signal", "bang" ],
									"patching_rect" : [ 768.412964, 139.5, 50.0, 20.0 ],
									"text" : "line~ 0."
								}

							}
, 							{
								"box" : 								{
									"fontname" : "Arial",
									"fontsize" : 12.0,
									"id" : "obj-23",
									"maxclass" : "message",
									"numinlets" : 2,
									"numoutlets" : 1,
									"outlettype" : [ "" ],
									"patching_rect" : [ 725.412964, 103.383911, 41.0, 18.0 ],
									"text" : "$1 20"
								}

							}
, 							{
								"box" : 								{
									"fontname" : "Arial",
									"fontsize" : 12.0,
									"id" : "obj-20",
									"maxclass" : "newobj",
									"numinlets" : 2,
									"numoutlets" : 2,
									"outlettype" : [ "signal", "bang" ],
									"patching_rect" : [ 725.412964, 139.5, 50.0, 20.0 ],
									"text" : "line~ 0."
								}

							}
, 							{
								"box" : 								{
									"activedialcolor" : [ 0.278431, 0.839216, 1.0, 1.0 ],
									"activeneedlecolor" : [ 1.0, 1.0, 1.0, 0.7 ],
									"appearance" : 1,
									"id" : "obj-67",
									"maxclass" : "live.dial",
									"numinlets" : 1,
									"numoutlets" : 2,
									"outlettype" : [ "", "float" ],
									"parameter_enable" : 1,
									"patching_rect" : [ 1196.412964, 54.0, 25.0, 36.0 ],
									"presentation" : 1,
									"presentation_rect" : [ 195.75, 44.0, 25.0, 36.0 ],
									"saved_attribute_attributes" : 									{
										"valueof" : 										{
											"parameter_longname" : "4[1]",
											"parameter_shortname" : "CV4",
											"parameter_type" : 0,
											"parameter_mmax" : 1.0,
											"parameter_initial_enable" : 1,
											"parameter_initial" : [ 0 ],
											"parameter_unitstyle" : 1
										}

									}
,
									"textcolor" : [ 1.0, 1.0, 1.0, 0.7 ],
									"varname" : "in4[1]"
								}

							}
, 							{
								"box" : 								{
									"activedialcolor" : [ 0.278431, 0.839216, 1.0, 1.0 ],
									"activeneedlecolor" : [ 1.0, 1.0, 1.0, 0.7 ],
									"appearance" : 1,
									"id" : "obj-68",
									"maxclass" : "live.dial",
									"numinlets" : 1,
									"numoutlets" : 2,
									"outlettype" : [ "", "float" ],
									"parameter_enable" : 1,
									"patching_rect" : [ 1152.412964, 54.0, 25.0, 36.0 ],
									"presentation" : 1,
									"presentation_rect" : [ 143.977173, 44.0, 25.0, 36.0 ],
									"saved_attribute_attributes" : 									{
										"valueof" : 										{
											"parameter_longname" : "3[1]",
											"parameter_shortname" : "CV3",
											"parameter_type" : 0,
											"parameter_mmax" : 1.0,
											"parameter_unitstyle" : 1
										}

									}
,
									"textcolor" : [ 1.0, 1.0, 1.0, 0.7 ],
									"varname" : "in3[1]"
								}

							}
, 							{
								"box" : 								{
									"activedialcolor" : [ 0.278431, 0.839216, 1.0, 1.0 ],
									"activeneedlecolor" : [ 1.0, 1.0, 1.0, 0.7 ],
									"appearance" : 1,
									"id" : "obj-69",
									"maxclass" : "live.dial",
									"numinlets" : 1,
									"numoutlets" : 2,
									"outlettype" : [ "", "float" ],
									"parameter_enable" : 1,
									"patching_rect" : [ 1105.412964, 54.0, 25.0, 36.0 ],
									"presentation" : 1,
									"presentation_rect" : [ 93.988586, 44.0, 25.0, 36.0 ],
									"saved_attribute_attributes" : 									{
										"valueof" : 										{
											"parameter_longname" : "2[1]",
											"parameter_shortname" : "CV2",
											"parameter_type" : 0,
											"parameter_mmax" : 1.0,
											"parameter_unitstyle" : 1
										}

									}
,
									"textcolor" : [ 1.0, 1.0, 1.0, 0.7 ],
									"varname" : "live.dial[1]"
								}

							}
, 							{
								"box" : 								{
									"activedialcolor" : [ 0.278431, 0.839216, 1.0, 1.0 ],
									"activeneedlecolor" : [ 1.0, 1.0, 1.0, 0.7 ],
									"appearance" : 1,
									"id" : "obj-70",
									"maxclass" : "live.dial",
									"numinlets" : 1,
									"numoutlets" : 2,
									"outlettype" : [ "", "float" ],
									"parameter_enable" : 1,
									"patching_rect" : [ 1061.412964, 54.0, 25.0, 36.0 ],
									"presentation" : 1,
									"presentation_rect" : [ 44.0, 44.0, 25.0, 36.0 ],
									"saved_attribute_attributes" : 									{
										"valueof" : 										{
											"parameter_longname" : "1[3]",
											"parameter_shortname" : "CV1",
											"parameter_type" : 0,
											"parameter_mmax" : 1.0,
											"parameter_unitstyle" : 1
										}

									}
,
									"textcolor" : [ 1.0, 1.0, 1.0, 0.7 ],
									"varname" : "live.dial[2]"
								}

							}
, 							{
								"box" : 								{
									"activedialcolor" : [ 0.278431, 0.839216, 1.0, 1.0 ],
									"activeneedlecolor" : [ 1.0, 1.0, 1.0, 0.7 ],
									"id" : "obj-33",
									"maxclass" : "live.dial",
									"numinlets" : 1,
									"numoutlets" : 2,
									"outlettype" : [ "", "float" ],
									"parameter_enable" : 1,
									"patching_rect" : [ 812.412964, 25.5, 44.0, 47.0 ],
									"presentation" : 1,
									"presentation_rect" : [ 162.5, 69.080681, 44.0, 47.0 ],
									"saved_attribute_attributes" : 									{
										"valueof" : 										{
											"parameter_longname" : "4",
											"parameter_shortname" : "4",
											"parameter_type" : 0,
											"parameter_mmax" : 1.0,
											"parameter_initial_enable" : 1,
											"parameter_initial" : [ 0 ],
											"parameter_unitstyle" : 1
										}

									}
,
									"textcolor" : [ 1.0, 1.0, 1.0, 0.7 ],
									"varname" : "in4"
								}

							}
, 							{
								"box" : 								{
									"activedialcolor" : [ 0.278431, 0.839216, 1.0, 1.0 ],
									"activeneedlecolor" : [ 1.0, 1.0, 1.0, 0.7 ],
									"id" : "obj-29",
									"maxclass" : "live.dial",
									"numinlets" : 1,
									"numoutlets" : 2,
									"outlettype" : [ "", "float" ],
									"parameter_enable" : 1,
									"patching_rect" : [ 768.412964, 25.5, 44.0, 47.0 ],
									"presentation" : 1,
									"presentation_rect" : [ 112.897614, 69.080681, 44.0, 47.0 ],
									"saved_attribute_attributes" : 									{
										"valueof" : 										{
											"parameter_longname" : "3",
											"parameter_shortname" : "3",
											"parameter_type" : 0,
											"parameter_mmax" : 1.0,
											"parameter_unitstyle" : 1
										}

									}
,
									"textcolor" : [ 1.0, 1.0, 1.0, 0.7 ],
									"varname" : "in3"
								}

							}
, 							{
								"box" : 								{
									"activedialcolor" : [ 0.278431, 0.839216, 1.0, 1.0 ],
									"activeneedlecolor" : [ 1.0, 1.0, 1.0, 0.7 ],
									"id" : "obj-32",
									"maxclass" : "live.dial",
									"numinlets" : 1,
									"numoutlets" : 2,
									"outlettype" : [ "", "float" ],
									"parameter_enable" : 1,
									"patching_rect" : [ 721.412964, 25.5, 44.0, 47.0 ],
									"presentation" : 1,
									"presentation_rect" : [ 61.5, 69.080681, 44.0, 47.0 ],
									"saved_attribute_attributes" : 									{
										"valueof" : 										{
											"parameter_longname" : "2",
											"parameter_shortname" : "2",
											"parameter_type" : 0,
											"parameter_mmax" : 1.0,
											"parameter_unitstyle" : 1
										}

									}
,
									"textcolor" : [ 1.0, 1.0, 1.0, 0.7 ],
									"varname" : "live.dial"
								}

							}
, 							{
								"box" : 								{
									"activedialcolor" : [ 0.278431, 0.839216, 1.0, 1.0 ],
									"activeneedlecolor" : [ 1.0, 1.0, 1.0, 0.7 ],
									"id" : "obj-39",
									"maxclass" : "live.dial",
									"numinlets" : 1,
									"numoutlets" : 2,
									"outlettype" : [ "", "float" ],
									"parameter_enable" : 1,
									"patching_rect" : [ 677.412964, 25.5, 44.0, 47.0 ],
									"presentation" : 1,
									"presentation_rect" : [ 3.5, 69.080681, 44.0, 47.0 ],
									"saved_attribute_attributes" : 									{
										"valueof" : 										{
											"parameter_longname" : "1",
											"parameter_shortname" : "1",
											"parameter_type" : 0,
											"parameter_mmax" : 1.0,
											"parameter_unitstyle" : 1
										}

									}
,
									"textcolor" : [ 1.0, 1.0, 1.0, 0.7 ],
									"varname" : "live.dial[9]"
								}

							}
, 							{
								"box" : 								{
									"fontname" : "Arial",
									"fontsize" : 12.0,
									"id" : "obj-55",
									"maxclass" : "newobj",
									"numinlets" : 2,
									"numoutlets" : 1,
									"outlettype" : [ "signal" ],
									"patching_rect" : [ 1030.912964, 173.0, 36.0, 20.0 ],
									"text" : "*~ 0."
								}

							}
, 							{
								"box" : 								{
									"fontname" : "Arial",
									"fontsize" : 12.0,
									"id" : "obj-56",
									"maxclass" : "newobj",
									"numinlets" : 2,
									"numoutlets" : 1,
									"outlettype" : [ "signal" ],
									"patching_rect" : [ 993.912964, 173.0, 36.0, 20.0 ],
									"text" : "*~ 0."
								}

							}
, 							{
								"box" : 								{
									"fontname" : "Arial",
									"fontsize" : 12.0,
									"id" : "obj-57",
									"maxclass" : "newobj",
									"numinlets" : 2,
									"numoutlets" : 1,
									"outlettype" : [ "signal" ],
									"patching_rect" : [ 957.912964, 173.0, 36.0, 20.0 ],
									"text" : "*~ 0."
								}

							}
, 							{
								"box" : 								{
									"fontname" : "Arial",
									"fontsize" : 12.0,
									"id" : "obj-58",
									"maxclass" : "newobj",
									"numinlets" : 2,
									"numoutlets" : 1,
									"outlettype" : [ "signal" ],
									"patching_rect" : [ 920.912964, 173.0, 36.0, 20.0 ],
									"text" : "*~ 0."
								}

							}
, 							{
								"box" : 								{
									"comment" : "",
									"id" : "obj-63",
									"maxclass" : "inlet",
									"numinlets" : 0,
									"numoutlets" : 1,
									"outlettype" : [ "" ],
									"patching_rect" : [ 1022.537964, -8.0, 25.0, 25.0 ]
								}

							}
, 							{
								"box" : 								{
									"comment" : "",
									"id" : "obj-64",
									"maxclass" : "inlet",
									"numinlets" : 0,
									"numoutlets" : 1,
									"outlettype" : [ "" ],
									"patching_rect" : [ 1002.787964, -8.0, 25.0, 25.0 ]
								}

							}
, 							{
								"box" : 								{
									"comment" : "",
									"id" : "obj-65",
									"maxclass" : "inlet",
									"numinlets" : 0,
									"numoutlets" : 1,
									"outlettype" : [ "" ],
									"patching_rect" : [ 977.662964, -8.0, 25.0, 25.0 ]
								}

							}
, 							{
								"box" : 								{
									"comment" : "",
									"id" : "obj-66",
									"maxclass" : "inlet",
									"numinlets" : 0,
									"numoutlets" : 1,
									"outlettype" : [ "" ],
									"patching_rect" : [ 957.912964, -8.0, 25.0, 25.0 ]
								}

							}
, 							{
								"box" : 								{
									"comment" : "",
									"id" : "obj-11",
									"maxclass" : "inlet",
									"numinlets" : 0,
									"numoutlets" : 1,
									"outlettype" : [ "" ],
									"patching_rect" : [ 671.625, -8.0, 25.0, 25.0 ]
								}

							}
, 							{
								"box" : 								{
									"comment" : "",
									"id" : "obj-12",
									"maxclass" : "inlet",
									"numinlets" : 0,
									"numoutlets" : 1,
									"outlettype" : [ "" ],
									"patching_rect" : [ 651.875, -8.0, 25.0, 25.0 ]
								}

							}
, 							{
								"box" : 								{
									"comment" : "",
									"id" : "obj-8",
									"maxclass" : "inlet",
									"numinlets" : 0,
									"numoutlets" : 1,
									"outlettype" : [ "" ],
									"patching_rect" : [ 626.75, -8.0, 25.0, 25.0 ]
								}

							}
, 							{
								"box" : 								{
									"comment" : "",
									"id" : "obj-1",
									"maxclass" : "inlet",
									"numinlets" : 0,
									"numoutlets" : 1,
									"outlettype" : [ "" ],
									"patching_rect" : [ 607.0, -8.0, 25.0, 25.0 ]
								}

							}
, 							{
								"box" : 								{
									"fontname" : "Arial Bold",
									"fontsize" : 9.0,
									"frgb" : 0.0,
									"id" : "obj-59",
									"maxclass" : "comment",
									"numinlets" : 1,
									"numoutlets" : 0,
									"patching_rect" : [ 356.0, 34.5, 38.0, 17.0 ],
									"presentation" : 1,
									"presentation_rect" : [ 286.5, 0.0, 32.0, 17.0 ],
									"text" : "CV 4",
									"textcolor" : [ 1.0, 1.0, 1.0, 1.0 ]
								}

							}
, 							{
								"box" : 								{
									"fontname" : "Arial Bold",
									"fontsize" : 9.0,
									"frgb" : 0.0,
									"id" : "obj-60",
									"maxclass" : "comment",
									"numinlets" : 1,
									"numoutlets" : 0,
									"patching_rect" : [ 310.5, 34.5, 38.0, 17.0 ],
									"presentation" : 1,
									"presentation_rect" : [ 247.5, 0.0, 33.0, 17.0 ],
									"text" : "CV 3",
									"textcolor" : [ 1.0, 1.0, 1.0, 1.0 ]
								}

							}
, 							{
								"box" : 								{
									"fontname" : "Arial Bold",
									"fontsize" : 9.0,
									"frgb" : 0.0,
									"id" : "obj-61",
									"maxclass" : "comment",
									"numinlets" : 1,
									"numoutlets" : 0,
									"patching_rect" : [ 265.0, 34.5, 38.0, 17.0 ],
									"presentation" : 1,
									"presentation_rect" : [ 206.0, 0.0, 33.0, 17.0 ],
									"text" : "CV 2",
									"textcolor" : [ 1.0, 1.0, 1.0, 1.0 ]
								}

							}
, 							{
								"box" : 								{
									"fontname" : "Arial Bold",
									"fontsize" : 9.0,
									"frgb" : 0.0,
									"id" : "obj-62",
									"maxclass" : "comment",
									"numinlets" : 1,
									"numoutlets" : 0,
									"patching_rect" : [ 216.5, 34.5, 38.0, 17.0 ],
									"presentation" : 1,
									"presentation_rect" : [ 162.5, 0.0, 33.0, 17.0 ],
									"text" : "CV 1",
									"textcolor" : [ 1.0, 1.0, 1.0, 1.0 ]
								}

							}
, 							{
								"box" : 								{
									"fontname" : "Arial",
									"fontsize" : 12.0,
									"id" : "obj-35",
									"maxclass" : "newobj",
									"numinlets" : 2,
									"numoutlets" : 1,
									"outlettype" : [ "signal" ],
									"patching_rect" : [ 662.5, 584.5, 42.0, 20.0 ],
									"text" : "*~ 0.2"
								}

							}
, 							{
								"box" : 								{
									"bgcolor" : [ 0.0, 0.0, 0.0, 1.0 ],
									"coldcolor" : [ 0.278431, 0.839216, 1.0, 1.0 ],
									"hotcolor" : [ 0.278431, 0.839216, 1.0, 1.0 ],
									"id" : "obj-9",
									"maxclass" : "meter~",
									"nhotleds" : 0,
									"ntepidleds" : 0,
									"numinlets" : 1,
									"numleds" : 20,
									"numoutlets" : 1,
									"nwarmleds" : 0,
									"outlettype" : [ "float" ],
									"patching_rect" : [ 666.0, 614.5, 12.0, 91.0 ],
									"presentation" : 1,
									"presentation_rect" : [ 44.0, 134.731964, 124.977173, 12.0 ],
									"tepidcolor" : [ 0.278431, 0.839216, 1.0, 1.0 ],
									"warmcolor" : [ 0.278431, 0.839216, 1.0, 1.0 ]
								}

							}
, 							{
								"box" : 								{
									"fontname" : "Arial Bold",
									"fontsize" : 9.0,
									"frgb" : 0.0,
									"id" : "obj-3",
									"maxclass" : "comment",
									"numinlets" : 1,
									"numoutlets" : 0,
									"patching_rect" : [ 823.319214, 486.383911, 38.0, 17.0 ],
									"presentation" : 1,
									"presentation_rect" : [ 121.897614, 0.0, 26.0, 17.0 ],
									"text" : "In 4",
									"textcolor" : [ 1.0, 1.0, 1.0, 1.0 ]
								}

							}
, 							{
								"box" : 								{
									"fontname" : "Arial Bold",
									"fontsize" : 9.0,
									"frgb" : 0.0,
									"id" : "obj-2",
									"maxclass" : "comment",
									"numinlets" : 1,
									"numoutlets" : 0,
									"patching_rect" : [ 808.912964, 515.0, 38.0, 17.0 ],
									"presentation" : 1,
									"presentation_rect" : [ 79.5, 0.0, 26.0, 17.0 ],
									"text" : "In 3",
									"textcolor" : [ 1.0, 1.0, 1.0, 1.0 ]
								}

							}
, 							{
								"box" : 								{
									"fontname" : "Arial Bold",
									"fontsize" : 9.0,
									"frgb" : 0.0,
									"id" : "obj-4",
									"maxclass" : "comment",
									"numinlets" : 1,
									"numoutlets" : 0,
									"patching_rect" : [ 808.912964, 543.0, 38.0, 17.0 ],
									"presentation" : 1,
									"presentation_rect" : [ 44.0, 0.0, 26.0, 17.0 ],
									"text" : "In 2",
									"textcolor" : [ 1.0, 1.0, 1.0, 1.0 ]
								}

							}
, 							{
								"box" : 								{
									"fontname" : "Arial Bold",
									"fontsize" : 9.0,
									"frgb" : 0.0,
									"id" : "obj-5",
									"maxclass" : "comment",
									"numinlets" : 1,
									"numoutlets" : 0,
									"patching_rect" : [ 761.912964, 543.838623, 38.0, 17.0 ],
									"presentation" : 1,
									"presentation_rect" : [ 3.5, 0.5, 26.0, 17.0 ],
									"text" : "In 1",
									"textcolor" : [ 1.0, 1.0, 1.0, 1.0 ]
								}

							}
, 							{
								"box" : 								{
									"fontname" : "Arial",
									"fontsize" : 12.0,
									"id" : "obj-6",
									"maxclass" : "newobj",
									"numinlets" : 2,
									"numoutlets" : 1,
									"outlettype" : [ "int" ],
									"patching_rect" : [ 602.75, 451.5, 32.5, 20.0 ],
									"text" : "!= 1"
								}

							}
, 							{
								"box" : 								{
									"fontname" : "Arial",
									"fontsize" : 12.0,
									"id" : "obj-50",
									"maxclass" : "newobj",
									"numinlets" : 2,
									"numoutlets" : 1,
									"outlettype" : [ "signal" ],
									"patching_rect" : [ 602.75, 522.5, 75.25, 20.0 ],
									"text" : "gate~ 1 1"
								}

							}
, 							{
								"box" : 								{
									"comment" : "signal output",
									"id" : "obj-7",
									"maxclass" : "outlet",
									"numinlets" : 1,
									"numoutlets" : 0,
									"patching_rect" : [ 602.75, 576.5, 25.0, 25.0 ]
								}

							}
, 							{
								"box" : 								{
									"fontname" : "Arial Bold",
									"fontsize" : 9.0,
									"frgb" : 0.0,
									"id" : "obj-10",
									"maxclass" : "comment",
									"numinlets" : 1,
									"numoutlets" : 0,
									"patching_rect" : [ 761.912964, 498.0, 38.0, 17.0 ],
									"presentation" : 1,
									"presentation_rect" : [ 1.5, 131.731964, 38.0, 17.0 ],
									"text" : "Output",
									"textcolor" : [ 1.0, 1.0, 1.0, 1.0 ]
								}

							}
, 							{
								"box" : 								{
									"activebgcolor" : [ 0.572549, 0.615686, 0.658824, 0.0 ],
									"activebgoncolor" : [ 0.278431, 0.839216, 1.0, 1.0 ],
									"activetextcolor" : [ 1.0, 1.0, 1.0, 0.57 ],
									"activetextoncolor" : [ 0.0, 0.019608, 0.078431, 1.0 ],
									"bgcolor" : [ 0.101961, 0.101961, 0.101961, 0.78 ],
									"bordercolor" : [ 0.0, 0.019608, 0.078431, 0.37 ],
									"id" : "obj-37",
									"maxclass" : "live.text",
									"numinlets" : 1,
									"numoutlets" : 2,
									"outlettype" : [ "", "" ],
									"parameter_enable" : 1,
									"patching_rect" : [ 602.75, 406.4375, 40.0, 20.0 ],
									"presentation" : 1,
									"presentation_rect" : [ 254.5, 19.657436, 52.0, 14.764645 ],
									"saved_attribute_attributes" : 									{
										"valueof" : 										{
											"parameter_longname" : "power[1]",
											"parameter_shortname" : "power",
											"parameter_type" : 2,
											"parameter_mmax" : 1.0,
											"parameter_enum" : [ "val1", "val2" ],
											"parameter_initial_enable" : 1,
											"parameter_initial" : [ 0.0 ],
											"parameter_defer" : 1
										}

									}
,
									"text" : "mute",
									"textcolor" : [ 1.0, 1.0, 1.0, 1.0 ],
									"texton" : "mute",
									"varname" : "power[1]"
								}

							}
, 							{
								"box" : 								{
									"fontname" : "Arial Bold",
									"fontsize" : 9.0,
									"frgb" : 0.0,
									"id" : "obj-38",
									"linecount" : 2,
									"maxclass" : "comment",
									"numinlets" : 1,
									"numoutlets" : 0,
									"patching_rect" : [ 751.912964, 469.383911, 71.0, 27.0 ],
									"presentation" : 1,
									"presentation_rect" : [ 1.5, 19.657436, 75.0, 17.0 ],
									"text" : "SIGNAL MIXER",
									"textcolor" : [ 1.0, 1.0, 1.0, 1.0 ]
								}

							}
, 							{
								"box" : 								{
									"fontname" : "Arial",
									"fontsize" : 12.0,
									"id" : "obj-25",
									"maxclass" : "newobj",
									"numinlets" : 1,
									"numoutlets" : 4,
									"outlettype" : [ "", "", "", "" ],
									"patching_rect" : [ 1203.0, 271.0, 59.5, 20.0 ],
									"restore" : 									{
										"in3" : [ 0.0 ],
										"in3[1]" : [ 0.0 ],
										"in4" : [ 0.0 ],
										"in4[1]" : [ 0.0 ],
										"live.dial" : [ 0.0 ],
										"live.dial[1]" : [ 0.0 ],
										"live.dial[2]" : [ 0.700787 ],
										"live.dial[9]" : [ 1.0 ],
										"power[1]" : [ 0.0 ]
									}
,
									"text" : "autopattr",
									"varname" : "u385000966"
								}

							}
, 							{
								"box" : 								{
									"fontname" : "Arial",
									"fontsize" : 12.0,
									"id" : "obj-41",
									"maxclass" : "newobj",
									"numinlets" : 4,
									"numoutlets" : 2,
									"outlettype" : [ "signal", "list" ],
									"patching_rect" : [ 659.0, 374.0, 344.5, 20.0 ],
									"text" : "matrix~ 4 1 1."
								}

							}
, 							{
								"box" : 								{
									"bgcolor" : [ 0.0, 0.0, 0.0, 1.0 ],
									"id" : "obj-14",
									"maxclass" : "panel",
									"numinlets" : 1,
									"numoutlets" : 0,
									"patching_rect" : [ 51.736206, 179.470001, 128.0, 128.0 ],
									"presentation" : 1,
									"presentation_rect" : [ 0.0, 0.0, 416.5, 17.0 ],
									"rounded" : 0
								}

							}
, 							{
								"box" : 								{
									"bgcolor" : [ 0.0, 0.0, 0.0, 1.0 ],
									"id" : "obj-15",
									"maxclass" : "panel",
									"numinlets" : 1,
									"numoutlets" : 0,
									"patching_rect" : [ 205.236206, 45.0, 128.0, 128.0 ],
									"presentation" : 1,
									"presentation_rect" : [ 0.0, 131.731964, 416.5, 36.094391 ],
									"rounded" : 0
								}

							}
, 							{
								"box" : 								{
									"bgcolor" : [ 0.137255, 0.145098, 0.160784, 0.65 ],
									"id" : "obj-18",
									"maxclass" : "panel",
									"numinlets" : 1,
									"numoutlets" : 0,
									"patching_rect" : [ 51.736206, 45.0, 128.0, 128.0 ],
									"presentation" : 1,
									"presentation_rect" : [ 0.0, 37.0, 416.5, 97.161362 ],
									"rounded" : 0
								}

							}
, 							{
								"box" : 								{
									"bgcolor" : [ 0.367404, 0.389405, 0.430238, 1.0 ],
									"id" : "obj-21",
									"maxclass" : "panel",
									"numinlets" : 1,
									"numoutlets" : 0,
									"patching_rect" : [ 205.236206, 179.470001, 128.0, 128.0 ],
									"presentation" : 1,
									"presentation_rect" : [ 0.0, 10.808868, 416.5, 137.691132 ],
									"rounded" : 0
								}

							}
 ],
						"lines" : [ 							{
								"patchline" : 								{
									"destination" : [ "obj-41", 0 ],
									"disabled" : 0,
									"hidden" : 0,
									"source" : [ "obj-1", 0 ]
								}

							}
, 							{
								"patchline" : 								{
									"destination" : [ "obj-41", 3 ],
									"disabled" : 0,
									"hidden" : 0,
									"source" : [ "obj-11", 0 ]
								}

							}
, 							{
								"patchline" : 								{
									"destination" : [ "obj-41", 2 ],
									"disabled" : 0,
									"hidden" : 0,
									"source" : [ "obj-12", 0 ]
								}

							}
, 							{
								"patchline" : 								{
									"destination" : [ "obj-46", 0 ],
									"disabled" : 0,
									"hidden" : 0,
									"source" : [ "obj-13", 0 ]
								}

							}
, 							{
								"patchline" : 								{
									"destination" : [ "obj-45", 0 ],
									"disabled" : 0,
									"hidden" : 0,
									"source" : [ "obj-16", 0 ]
								}

							}
, 							{
								"patchline" : 								{
									"destination" : [ "obj-43", 0 ],
									"disabled" : 0,
									"hidden" : 0,
									"source" : [ "obj-17", 0 ]
								}

							}
, 							{
								"patchline" : 								{
									"destination" : [ "obj-44", 0 ],
									"disabled" : 0,
									"hidden" : 0,
									"source" : [ "obj-19", 0 ]
								}

							}
, 							{
								"patchline" : 								{
									"destination" : [ "obj-34", 0 ],
									"disabled" : 0,
									"hidden" : 0,
									"source" : [ "obj-20", 0 ]
								}

							}
, 							{
								"patchline" : 								{
									"destination" : [ "obj-20", 0 ],
									"disabled" : 0,
									"hidden" : 0,
									"source" : [ "obj-23", 0 ]
								}

							}
, 							{
								"patchline" : 								{
									"destination" : [ "obj-26", 0 ],
									"disabled" : 0,
									"hidden" : 0,
									"source" : [ "obj-24", 0 ]
								}

							}
, 							{
								"patchline" : 								{
									"destination" : [ "obj-36", 0 ],
									"disabled" : 0,
									"hidden" : 0,
									"source" : [ "obj-26", 0 ]
								}

							}
, 							{
								"patchline" : 								{
									"destination" : [ "obj-28", 0 ],
									"disabled" : 0,
									"hidden" : 0,
									"source" : [ "obj-27", 0 ]
								}

							}
, 							{
								"patchline" : 								{
									"destination" : [ "obj-42", 0 ],
									"disabled" : 0,
									"hidden" : 0,
									"source" : [ "obj-28", 0 ]
								}

							}
, 							{
								"patchline" : 								{
									"destination" : [ "obj-30", 0 ],
									"disabled" : 0,
									"hidden" : 0,
									"source" : [ "obj-29", 0 ]
								}

							}
, 							{
								"patchline" : 								{
									"destination" : [ "obj-31", 0 ],
									"disabled" : 0,
									"hidden" : 0,
									"source" : [ "obj-30", 0 ]
								}

							}
, 							{
								"patchline" : 								{
									"destination" : [ "obj-40", 0 ],
									"disabled" : 0,
									"hidden" : 0,
									"source" : [ "obj-31", 0 ]
								}

							}
, 							{
								"patchline" : 								{
									"destination" : [ "obj-24", 0 ],
									"disabled" : 0,
									"hidden" : 0,
									"source" : [ "obj-32", 0 ]
								}

							}
, 							{
								"patchline" : 								{
									"destination" : [ "obj-27", 0 ],
									"disabled" : 0,
									"hidden" : 0,
									"source" : [ "obj-33", 0 ]
								}

							}
, 							{
								"patchline" : 								{
									"destination" : [ "obj-13", 0 ],
									"disabled" : 0,
									"hidden" : 0,
									"source" : [ "obj-34", 0 ]
								}

							}
, 							{
								"patchline" : 								{
									"destination" : [ "obj-9", 0 ],
									"disabled" : 0,
									"hidden" : 0,
									"source" : [ "obj-35", 0 ]
								}

							}
, 							{
								"patchline" : 								{
									"destination" : [ "obj-16", 0 ],
									"disabled" : 0,
									"hidden" : 0,
									"source" : [ "obj-36", 0 ]
								}

							}
, 							{
								"patchline" : 								{
									"destination" : [ "obj-6", 0 ],
									"disabled" : 0,
									"hidden" : 0,
									"source" : [ "obj-37", 0 ]
								}

							}
, 							{
								"patchline" : 								{
									"destination" : [ "obj-23", 0 ],
									"disabled" : 0,
									"hidden" : 0,
									"source" : [ "obj-39", 0 ]
								}

							}
, 							{
								"patchline" : 								{
									"destination" : [ "obj-19", 0 ],
									"disabled" : 0,
									"hidden" : 0,
									"source" : [ "obj-40", 0 ]
								}

							}
, 							{
								"patchline" : 								{
									"destination" : [ "obj-50", 1 ],
									"disabled" : 0,
									"hidden" : 0,
									"source" : [ "obj-41", 0 ]
								}

							}
, 							{
								"patchline" : 								{
									"destination" : [ "obj-17", 0 ],
									"disabled" : 0,
									"hidden" : 0,
									"source" : [ "obj-42", 0 ]
								}

							}
, 							{
								"patchline" : 								{
									"destination" : [ "obj-41", 3 ],
									"disabled" : 0,
									"hidden" : 0,
									"source" : [ "obj-43", 0 ]
								}

							}
, 							{
								"patchline" : 								{
									"destination" : [ "obj-41", 2 ],
									"disabled" : 0,
									"hidden" : 0,
									"source" : [ "obj-44", 0 ]
								}

							}
, 							{
								"patchline" : 								{
									"destination" : [ "obj-41", 1 ],
									"disabled" : 0,
									"hidden" : 0,
									"source" : [ "obj-45", 0 ]
								}

							}
, 							{
								"patchline" : 								{
									"destination" : [ "obj-41", 0 ],
									"disabled" : 0,
									"hidden" : 0,
									"source" : [ "obj-46", 0 ]
								}

							}
, 							{
								"patchline" : 								{
									"destination" : [ "obj-35", 0 ],
									"disabled" : 0,
									"hidden" : 0,
									"source" : [ "obj-50", 0 ]
								}

							}
, 							{
								"patchline" : 								{
									"destination" : [ "obj-7", 0 ],
									"disabled" : 0,
									"hidden" : 0,
									"source" : [ "obj-50", 0 ]
								}

							}
, 							{
								"patchline" : 								{
									"destination" : [ "obj-42", 1 ],
									"disabled" : 0,
									"hidden" : 0,
									"source" : [ "obj-55", 0 ]
								}

							}
, 							{
								"patchline" : 								{
									"destination" : [ "obj-40", 1 ],
									"disabled" : 0,
									"hidden" : 0,
									"source" : [ "obj-56", 0 ]
								}

							}
, 							{
								"patchline" : 								{
									"destination" : [ "obj-36", 1 ],
									"disabled" : 0,
									"hidden" : 0,
									"source" : [ "obj-57", 0 ]
								}

							}
, 							{
								"patchline" : 								{
									"destination" : [ "obj-34", 1 ],
									"disabled" : 0,
									"hidden" : 0,
									"source" : [ "obj-58", 0 ]
								}

							}
, 							{
								"patchline" : 								{
									"destination" : [ "obj-50", 0 ],
									"disabled" : 0,
									"hidden" : 0,
									"source" : [ "obj-6", 0 ]
								}

							}
, 							{
								"patchline" : 								{
									"destination" : [ "obj-55", 0 ],
									"disabled" : 0,
									"hidden" : 0,
									"source" : [ "obj-63", 0 ]
								}

							}
, 							{
								"patchline" : 								{
									"destination" : [ "obj-56", 0 ],
									"disabled" : 0,
									"hidden" : 0,
									"source" : [ "obj-64", 0 ]
								}

							}
, 							{
								"patchline" : 								{
									"destination" : [ "obj-57", 0 ],
									"disabled" : 0,
									"hidden" : 0,
									"source" : [ "obj-65", 0 ]
								}

							}
, 							{
								"patchline" : 								{
									"destination" : [ "obj-58", 0 ],
									"disabled" : 0,
									"hidden" : 0,
									"source" : [ "obj-66", 0 ]
								}

							}
, 							{
								"patchline" : 								{
									"destination" : [ "obj-55", 1 ],
									"disabled" : 0,
									"hidden" : 0,
									"source" : [ "obj-67", 0 ]
								}

							}
, 							{
								"patchline" : 								{
									"destination" : [ "obj-56", 1 ],
									"disabled" : 0,
									"hidden" : 0,
									"source" : [ "obj-68", 0 ]
								}

							}
, 							{
								"patchline" : 								{
									"destination" : [ "obj-57", 1 ],
									"disabled" : 0,
									"hidden" : 0,
									"source" : [ "obj-69", 0 ]
								}

							}
, 							{
								"patchline" : 								{
									"destination" : [ "obj-58", 1 ],
									"disabled" : 0,
									"hidden" : 0,
									"source" : [ "obj-70", 0 ]
								}

							}
, 							{
								"patchline" : 								{
									"destination" : [ "obj-41", 1 ],
									"disabled" : 0,
									"hidden" : 0,
									"source" : [ "obj-8", 0 ]
								}

							}
 ]
					}
,
					"patching_rect" : [ -3.0, -2.0, 313.0, 153.0 ],
					"varname" : "Mixer"
				}

			}
 ],
		"lines" : [  ],
		"parameters" : 		{
			"obj-15::obj-33" : [ "4", "4", 0 ],
			"obj-15::obj-39" : [ "1", "1", 0 ],
			"obj-15::obj-32" : [ "2", "2", 0 ],
			"obj-15::obj-29" : [ "3", "3", 0 ],
			"obj-15::obj-67" : [ "4[1]", "CV4", 0 ],
			"obj-15::obj-68" : [ "3[1]", "CV3", 0 ],
			"obj-15::obj-69" : [ "2[1]", "CV2", 0 ],
			"obj-15::obj-70" : [ "1[3]", "CV1", 0 ],
			"obj-15::obj-37" : [ "power[1]", "power", 0 ]
		}
,
		"dependency_cache" : [  ]
	}

}
