{
	"patcher" : 	{
		"fileversion" : 1,
		"appversion" : 		{
			"major" : 6,
			"minor" : 1,
			"revision" : 0,
			"architecture" : "x86"
		}
,
		"rect" : [ 0.0, 44.0, 1440.0, 755.0 ],
		"bglocked" : 0,
		"openinpresentation" : 0,
		"default_fontsize" : 12.0,
		"default_fontface" : 0,
		"default_fontname" : "Arial",
		"gridonopen" : 0,
		"gridsize" : [ 15.0, 15.0 ],
		"gridsnaponopen" : 0,
		"statusbarvisible" : 1,
		"toolbarvisible" : 1,
		"boxanimatetime" : 200,
		"imprint" : 0,
		"enablehscroll" : 1,
		"enablevscroll" : 1,
		"devicewidth" : 0.0,
		"description" : "",
		"digest" : "",
		"tags" : "",
		"boxes" : [ 			{
				"box" : 				{
					"embed" : 1,
					"id" : "obj-1",
					"maxclass" : "bpatcher",
					"numinlets" : 2,
					"numoutlets" : 1,
					"outlettype" : [ "signal" ],
					"patcher" : 					{
						"fileversion" : 1,
						"appversion" : 						{
							"major" : 6,
							"minor" : 1,
							"revision" : 0,
							"architecture" : "x86"
						}
,
						"rect" : [ 0.0, 44.0, 90.0, 116.0 ],
						"bgcolor" : [ 1.0, 1.0, 1.0, 0.0 ],
						"bglocked" : 0,
						"openinpresentation" : 1,
						"default_fontsize" : 12.0,
						"default_fontface" : 0,
						"default_fontname" : "Arial",
						"gridonopen" : 0,
						"gridsize" : [ 15.0, 15.0 ],
						"gridsnaponopen" : 0,
						"statusbarvisible" : 1,
						"toolbarvisible" : 1,
						"boxanimatetime" : 200,
						"imprint" : 0,
						"enablehscroll" : 1,
						"enablevscroll" : 1,
						"devicewidth" : 0.0,
						"description" : "",
						"digest" : "",
						"tags" : "",
						"boxes" : [ 							{
								"box" : 								{
									"fontname" : "Arial",
									"fontsize" : 12.0,
									"id" : "obj-22",
									"maxclass" : "message",
									"numinlets" : 2,
									"numoutlets" : 1,
									"outlettype" : [ "" ],
									"patching_rect" : [ 619.0, 206.470001, 32.5, 18.0 ],
									"text" : "1"
								}

							}
, 							{
								"box" : 								{
									"fontname" : "Arial",
									"fontsize" : 12.0,
									"id" : "obj-16",
									"maxclass" : "message",
									"numinlets" : 2,
									"numoutlets" : 1,
									"outlettype" : [ "" ],
									"patching_rect" : [ 584.5, 206.470001, 32.5, 18.0 ],
									"text" : "2"
								}

							}
, 							{
								"box" : 								{
									"fontname" : "Arial",
									"fontsize" : 12.0,
									"id" : "obj-5",
									"maxclass" : "newobj",
									"numinlets" : 2,
									"numoutlets" : 1,
									"outlettype" : [ "signal" ],
									"patching_rect" : [ 584.5, 122.940002, 45.0, 20.0 ],
									"text" : ">~ 2.5"
								}

							}
, 							{
								"box" : 								{
									"fontname" : "Arial",
									"fontsize" : 12.0,
									"id" : "obj-4",
									"maxclass" : "newobj",
									"numinlets" : 1,
									"numoutlets" : 2,
									"outlettype" : [ "bang", "bang" ],
									"patching_rect" : [ 584.5, 163.470001, 53.5, 20.0 ],
									"text" : "edge~"
								}

							}
, 							{
								"box" : 								{
									"fontname" : "Arial",
									"fontsize" : 12.0,
									"id" : "obj-3",
									"maxclass" : "newobj",
									"numinlets" : 3,
									"numoutlets" : 1,
									"outlettype" : [ "signal" ],
									"patching_rect" : [ 619.0, 251.470001, 80.0, 20.0 ],
									"text" : "selector~ 2 1"
								}

							}
, 							{
								"box" : 								{
									"fontname" : "Arial",
									"fontsize" : 12.0,
									"id" : "obj-2",
									"maxclass" : "newobj",
									"numinlets" : 2,
									"numoutlets" : 1,
									"outlettype" : [ "signal" ],
									"patching_rect" : [ 680.0, 190.0, 57.0, 20.0 ],
									"text" : "sah~ 2.5"
								}

							}
, 							{
								"box" : 								{
									"fontname" : "Arial",
									"fontsize" : 12.0,
									"id" : "obj-1",
									"maxclass" : "newobj",
									"numinlets" : 1,
									"numoutlets" : 4,
									"outlettype" : [ "", "", "", "" ],
									"patching_rect" : [ 267.5, 467.969971, 59.5, 20.0 ],
									"restore" : 									{
										"Bypass" : [ 0.0 ]
									}
,
									"text" : "autopattr",
									"varname" : "u427000900"
								}

							}
, 							{
								"box" : 								{
									"fontname" : "Arial",
									"fontsize" : 12.0,
									"id" : "obj-10",
									"maxclass" : "newobj",
									"numinlets" : 2,
									"numoutlets" : 1,
									"outlettype" : [ "int" ],
									"patching_rect" : [ 509.0, 257.470001, 32.5, 20.0 ],
									"text" : "+ 1"
								}

							}
, 							{
								"box" : 								{
									"fontname" : "Arial",
									"fontsize" : 12.0,
									"id" : "obj-9",
									"maxclass" : "newobj",
									"numinlets" : 3,
									"numoutlets" : 1,
									"outlettype" : [ "signal" ],
									"patching_rect" : [ 509.0, 302.470001, 239.0, 20.0 ],
									"text" : "selector~ 2 1"
								}

							}
, 							{
								"box" : 								{
									"comment" : "",
									"id" : "obj-11",
									"maxclass" : "outlet",
									"numinlets" : 1,
									"numoutlets" : 0,
									"patching_rect" : [ 509.0, 350.470001, 25.0, 25.0 ]
								}

							}
, 							{
								"box" : 								{
									"fontname" : "Arial Bold",
									"fontsize" : 9.0,
									"frgb" : 0.0,
									"id" : "obj-7",
									"maxclass" : "comment",
									"numinlets" : 1,
									"numoutlets" : 0,
									"patching_rect" : [ 352.099976, 350.470001, 37.0, 17.0 ],
									"presentation" : 1,
									"presentation_rect" : [ 57.640533, 0.0, 31.0, 17.0 ],
									"text" : "Gate",
									"textcolor" : [ 1.0, 1.0, 1.0, 1.0 ]
								}

							}
, 							{
								"box" : 								{
									"activebgcolor" : [ 0.572549, 0.615686, 0.658824, 0.0 ],
									"activebgoncolor" : [ 0.278431, 0.839216, 1.0, 1.0 ],
									"activetextcolor" : [ 1.0, 1.0, 1.0, 0.57 ],
									"activetextoncolor" : [ 0.0, 0.019608, 0.078431, 1.0 ],
									"bgcolor" : [ 0.101961, 0.101961, 0.101961, 0.78 ],
									"bordercolor" : [ 0.0, 0.019608, 0.078431, 0.37 ],
									"id" : "obj-55",
									"maxclass" : "live.text",
									"numinlets" : 1,
									"numoutlets" : 2,
									"outlettype" : [ "", "" ],
									"parameter_enable" : 1,
									"patching_rect" : [ 509.0, 214.470001, 43.0, 19.0 ],
									"presentation" : 1,
									"presentation_rect" : [ 33.140533, 18.0, 52.0, 17.0 ],
									"saved_attribute_attributes" : 									{
										"valueof" : 										{
											"parameter_defer" : 1,
											"parameter_enum" : [ "val1", "val2" ],
											"parameter_mmax" : 1.0,
											"parameter_initial" : [ 0 ],
											"parameter_type" : 2,
											"parameter_initial_enable" : 1,
											"parameter_shortname" : "Bypass",
											"parameter_longname" : "Bypass[1]"
										}

									}
,
									"text" : "bypass",
									"textcolor" : [ 1.0, 1.0, 1.0, 1.0 ],
									"texton" : "bypass",
									"varname" : "Bypass"
								}

							}
, 							{
								"box" : 								{
									"comment" : "CV",
									"id" : "obj-6",
									"maxclass" : "inlet",
									"numinlets" : 0,
									"numoutlets" : 1,
									"outlettype" : [ "" ],
									"patching_rect" : [ 718.0, 20.5, 25.0, 25.0 ]
								}

							}
, 							{
								"box" : 								{
									"comment" : "signal input",
									"id" : "obj-17",
									"maxclass" : "inlet",
									"numinlets" : 0,
									"numoutlets" : 1,
									"outlettype" : [ "" ],
									"patching_rect" : [ 649.5, 20.5, 25.0, 25.0 ]
								}

							}
, 							{
								"box" : 								{
									"fontname" : "Arial Bold",
									"fontsize" : 9.0,
									"frgb" : 0.0,
									"id" : "obj-8",
									"linecount" : 2,
									"maxclass" : "comment",
									"numinlets" : 1,
									"numoutlets" : 0,
									"patching_rect" : [ 352.099976, 220.0, 37.0, 27.0 ],
									"presentation" : 1,
									"presentation_rect" : [ 2.0, 97.0, 38.0, 17.0 ],
									"text" : "Output",
									"textcolor" : [ 1.0, 1.0, 1.0, 1.0 ]
								}

							}
, 							{
								"box" : 								{
									"fontname" : "Arial Bold",
									"fontsize" : 9.0,
									"frgb" : 0.0,
									"id" : "obj-19",
									"maxclass" : "comment",
									"numinlets" : 1,
									"numoutlets" : 0,
									"patching_rect" : [ 352.099976, 279.883911, 37.0, 17.0 ],
									"presentation" : 1,
									"presentation_rect" : [ 2.0, 0.0, 38.0, 17.0 ],
									"text" : "Signal",
									"textcolor" : [ 1.0, 1.0, 1.0, 1.0 ]
								}

							}
, 							{
								"box" : 								{
									"fontname" : "Arial Bold",
									"fontsize" : 9.0,
									"frgb" : 0.0,
									"id" : "obj-13",
									"maxclass" : "comment",
									"numinlets" : 1,
									"numoutlets" : 0,
									"patching_rect" : [ 352.099976, 307.907501, 48.0, 17.0 ],
									"presentation" : 1,
									"presentation_rect" : [ 2.0, 19.0, 30.0, 17.0 ],
									"text" : "T&H",
									"textcolor" : [ 1.0, 1.0, 1.0, 1.0 ]
								}

							}
, 							{
								"box" : 								{
									"bgcolor" : [ 0.0, 0.0, 0.0, 1.0 ],
									"id" : "obj-14",
									"maxclass" : "panel",
									"numinlets" : 1,
									"numoutlets" : 0,
									"patching_rect" : [ 15.0, 149.470001, 128.0, 128.0 ],
									"presentation" : 1,
									"presentation_rect" : [ 0.0, 0.0, 283.268768, 17.0 ],
									"rounded" : 0
								}

							}
, 							{
								"box" : 								{
									"bgcolor" : [ 0.0, 0.0, 0.0, 1.0 ],
									"id" : "obj-15",
									"maxclass" : "panel",
									"numinlets" : 1,
									"numoutlets" : 0,
									"patching_rect" : [ 152.562378, 15.0, 128.0, 128.0 ],
									"presentation" : 1,
									"presentation_rect" : [ 0.0, 97.0, 283.268768, 35.433025 ],
									"rounded" : 0
								}

							}
, 							{
								"box" : 								{
									"bgcolor" : [ 0.137255, 0.145098, 0.160784, 0.65 ],
									"id" : "obj-18",
									"maxclass" : "panel",
									"numinlets" : 1,
									"numoutlets" : 0,
									"patching_rect" : [ 15.0, 15.0, 128.0, 128.0 ],
									"presentation" : 1,
									"presentation_rect" : [ 0.0, 37.0, 283.268768, 71.584457 ],
									"rounded" : 0
								}

							}
, 							{
								"box" : 								{
									"bgcolor" : [ 0.367404, 0.389405, 0.430238, 1.0 ],
									"id" : "obj-21",
									"maxclass" : "panel",
									"numinlets" : 1,
									"numoutlets" : 0,
									"patching_rect" : [ 152.562378, 149.470001, 128.0, 128.0 ],
									"presentation" : 1,
									"presentation_rect" : [ 0.0, 17.0, 283.268768, 116.114227 ],
									"rounded" : 0
								}

							}
 ],
						"lines" : [ 							{
								"patchline" : 								{
									"destination" : [ "obj-9", 0 ],
									"disabled" : 0,
									"hidden" : 0,
									"source" : [ "obj-10", 0 ]
								}

							}
, 							{
								"patchline" : 								{
									"destination" : [ "obj-3", 0 ],
									"disabled" : 0,
									"hidden" : 0,
									"source" : [ "obj-16", 0 ]
								}

							}
, 							{
								"patchline" : 								{
									"destination" : [ "obj-2", 0 ],
									"disabled" : 0,
									"hidden" : 0,
									"source" : [ "obj-17", 0 ]
								}

							}
, 							{
								"patchline" : 								{
									"destination" : [ "obj-3", 1 ],
									"disabled" : 0,
									"hidden" : 0,
									"source" : [ "obj-17", 0 ]
								}

							}
, 							{
								"patchline" : 								{
									"destination" : [ "obj-9", 2 ],
									"disabled" : 0,
									"hidden" : 0,
									"source" : [ "obj-17", 0 ]
								}

							}
, 							{
								"patchline" : 								{
									"destination" : [ "obj-3", 2 ],
									"disabled" : 0,
									"hidden" : 0,
									"source" : [ "obj-2", 0 ]
								}

							}
, 							{
								"patchline" : 								{
									"destination" : [ "obj-3", 0 ],
									"disabled" : 0,
									"hidden" : 0,
									"source" : [ "obj-22", 0 ]
								}

							}
, 							{
								"patchline" : 								{
									"destination" : [ "obj-9", 1 ],
									"disabled" : 0,
									"hidden" : 0,
									"source" : [ "obj-3", 0 ]
								}

							}
, 							{
								"patchline" : 								{
									"destination" : [ "obj-16", 0 ],
									"disabled" : 0,
									"hidden" : 0,
									"source" : [ "obj-4", 0 ]
								}

							}
, 							{
								"patchline" : 								{
									"destination" : [ "obj-22", 0 ],
									"disabled" : 0,
									"hidden" : 0,
									"source" : [ "obj-4", 1 ]
								}

							}
, 							{
								"patchline" : 								{
									"destination" : [ "obj-4", 0 ],
									"disabled" : 0,
									"hidden" : 0,
									"source" : [ "obj-5", 0 ]
								}

							}
, 							{
								"patchline" : 								{
									"destination" : [ "obj-10", 0 ],
									"disabled" : 0,
									"hidden" : 0,
									"source" : [ "obj-55", 0 ]
								}

							}
, 							{
								"patchline" : 								{
									"destination" : [ "obj-2", 1 ],
									"disabled" : 0,
									"hidden" : 0,
									"source" : [ "obj-6", 0 ]
								}

							}
, 							{
								"patchline" : 								{
									"destination" : [ "obj-5", 0 ],
									"disabled" : 0,
									"hidden" : 0,
									"source" : [ "obj-6", 0 ]
								}

							}
, 							{
								"patchline" : 								{
									"destination" : [ "obj-11", 0 ],
									"disabled" : 0,
									"hidden" : 0,
									"source" : [ "obj-9", 0 ]
								}

							}
 ]
					}
,
					"patching_rect" : [ 0.0, 0.0, 90.0, 116.0 ],
					"presentation_rect" : [ 472.0, 409.0, 0.0, 0.0 ],
					"varname" : "SampleAndHold[1]"
				}

			}
 ],
		"lines" : [  ],
		"parameters" : 		{
			"obj-1::obj-55" : [ "Bypass[1]", "Bypass", 0 ]
		}
,
		"dependency_cache" : [  ]
	}

}
