{
	"patcher" : 	{
		"fileversion" : 1,
		"appversion" : 		{
			"major" : 6,
			"minor" : 1,
			"revision" : 3,
			"architecture" : "x86"
		}
,
		"rect" : [ 0.0, 44.0, 1440.0, 759.0 ],
		"bglocked" : 0,
		"openinpresentation" : 0,
		"default_fontsize" : 12.0,
		"default_fontface" : 0,
		"default_fontname" : "Arial",
		"gridonopen" : 0,
		"gridsize" : [ 15.0, 15.0 ],
		"gridsnaponopen" : 0,
		"statusbarvisible" : 2,
		"toolbarvisible" : 1,
		"boxanimatetime" : 200,
		"imprint" : 0,
		"enablehscroll" : 1,
		"enablevscroll" : 1,
		"devicewidth" : 0.0,
		"description" : "",
		"digest" : "",
		"tags" : "",
		"boxes" : [ 			{
				"box" : 				{
					"embed" : 1,
					"id" : "obj-38",
					"maxclass" : "bpatcher",
					"numinlets" : 0,
					"numoutlets" : 1,
					"outlettype" : [ "" ],
					"patcher" : 					{
						"fileversion" : 1,
						"appversion" : 						{
							"major" : 6,
							"minor" : 1,
							"revision" : 3,
							"architecture" : "x86"
						}
,
						"rect" : [ 0.0, 44.0, 553.0, 214.0 ],
						"bgcolor" : [ 1.0, 1.0, 1.0, 0.0 ],
						"bglocked" : 1,
						"openinpresentation" : 1,
						"default_fontsize" : 12.0,
						"default_fontface" : 0,
						"default_fontname" : "Arial",
						"gridonopen" : 0,
						"gridsize" : [ 15.0, 15.0 ],
						"gridsnaponopen" : 0,
						"statusbarvisible" : 1,
						"toolbarvisible" : 1,
						"boxanimatetime" : 200,
						"imprint" : 0,
						"enablehscroll" : 1,
						"enablevscroll" : 1,
						"devicewidth" : 0.0,
						"description" : "",
						"digest" : "",
						"tags" : "",
						"boxes" : [ 							{
								"box" : 								{
									"fontname" : "Arial",
									"fontsize" : 12.0,
									"id" : "obj-38",
									"maxclass" : "newobj",
									"numinlets" : 2,
									"numoutlets" : 2,
									"outlettype" : [ "bang", "" ],
									"patching_rect" : [ 750.0, 139.0, 36.0, 20.0 ],
									"text" : "sel 0"
								}

							}
, 							{
								"box" : 								{
									"id" : "obj-37",
									"maxclass" : "live.text",
									"numinlets" : 1,
									"numoutlets" : 2,
									"outlettype" : [ "", "" ],
									"parameter_enable" : 1,
									"patching_rect" : [ 750.0, 101.0, 40.0, 20.0 ],
									"saved_attribute_attributes" : 									{
										"valueof" : 										{
											"parameter_longname" : "stealth_init",
											"parameter_shortname" : "stealth_init",
											"parameter_type" : 2,
											"parameter_mmax" : 1.0,
											"parameter_enum" : [ "val1", "val2" ],
											"parameter_initial_enable" : 1,
											"parameter_initial" : [ 0 ]
										}

									}
,
									"varname" : "stealth_init"
								}

							}
, 							{
								"box" : 								{
									"fontname" : "Arial",
									"fontsize" : 12.0,
									"id" : "obj-36",
									"maxclass" : "message",
									"numinlets" : 2,
									"numoutlets" : 1,
									"outlettype" : [ "" ],
									"patching_rect" : [ 750.0, 172.348068, 175.0, 18.0 ],
									"text" : "nseq 16, target_seq 0, active 0"
								}

							}
, 							{
								"box" : 								{
									"fontname" : "Arial",
									"fontsize" : 12.0,
									"id" : "obj-31",
									"maxclass" : "newobj",
									"numinlets" : 2,
									"numoutlets" : 1,
									"outlettype" : [ "int" ],
									"patching_rect" : [ 164.5, 551.0, 32.5, 20.0 ],
									"text" : "!= 1"
								}

							}
, 							{
								"box" : 								{
									"fontname" : "Arial",
									"fontsize" : 12.0,
									"id" : "obj-29",
									"maxclass" : "newobj",
									"numinlets" : 2,
									"numoutlets" : 1,
									"outlettype" : [ "" ],
									"patching_rect" : [ 164.5, 600.0, 83.5, 20.0 ],
									"text" : "gate 1 1"
								}

							}
, 							{
								"box" : 								{
									"activebgcolor" : [ 0.572549, 0.615686, 0.658824, 0.0 ],
									"activebgoncolor" : [ 0.0, 0.870588, 0.101961, 1.0 ],
									"activetextcolor" : [ 1.0, 1.0, 1.0, 0.57 ],
									"activetextoncolor" : [ 0.0, 0.019608, 0.078431, 1.0 ],
									"bgcolor" : [ 0.101961, 0.101961, 0.101961, 0.78 ],
									"bordercolor" : [ 0.0, 0.019608, 0.078431, 0.37 ],
									"id" : "obj-22",
									"maxclass" : "live.text",
									"numinlets" : 1,
									"numoutlets" : 2,
									"outlettype" : [ "", "" ],
									"parameter_enable" : 1,
									"patching_rect" : [ 164.5, 513.0, 40.0, 20.0 ],
									"presentation" : 1,
									"presentation_rect" : [ 477.638611, 19.0, 64.361389, 14.764645 ],
									"saved_attribute_attributes" : 									{
										"valueof" : 										{
											"parameter_longname" : "Mute[1]",
											"parameter_shortname" : "Mute",
											"parameter_type" : 2,
											"parameter_mmax" : 1.0,
											"parameter_enum" : [ "val1", "val2" ],
											"parameter_initial_enable" : 1,
											"parameter_initial" : [ 0.0 ],
											"parameter_defer" : 1
										}

									}
,
									"text" : "mute",
									"textcolor" : [ 1.0, 1.0, 1.0, 1.0 ],
									"texton" : "mute",
									"varname" : "Mute"
								}

							}
, 							{
								"box" : 								{
									"activedialcolor" : [ 0.0, 0.870117, 0.103208, 1.0 ],
									"activeneedlecolor" : [ 1.0, 1.0, 1.0, 0.7 ],
									"id" : "obj-28",
									"maxclass" : "live.dial",
									"numinlets" : 1,
									"numoutlets" : 2,
									"outlettype" : [ "", "float" ],
									"parameter_enable" : 1,
									"patching_rect" : [ 604.0, 9.77002, 44.0, 47.0 ],
									"presentation" : 1,
									"presentation_rect" : [ 486.638611, 92.716515, 44.0, 47.0 ],
									"saved_attribute_attributes" : 									{
										"valueof" : 										{
											"parameter_longname" : "Steps",
											"parameter_shortname" : "Steps",
											"parameter_type" : 1,
											"parameter_mmin" : 1.0,
											"parameter_mmax" : 64.0,
											"parameter_initial_enable" : 1,
											"parameter_initial" : [ 16 ],
											"parameter_unitstyle" : 0
										}

									}
,
									"textcolor" : [ 1.0, 1.0, 1.0, 0.7 ],
									"varname" : "Steps"
								}

							}
, 							{
								"box" : 								{
									"fontname" : "Arial",
									"fontsize" : 13.0,
									"id" : "obj-27",
									"maxclass" : "message",
									"numinlets" : 2,
									"numoutlets" : 1,
									"outlettype" : [ "" ],
									"patching_rect" : [ 156.0, 101.0, 59.0, 19.0 ],
									"text" : "mode $1"
								}

							}
, 							{
								"box" : 								{
									"bgcolor" : [ 0.0, 0.0, 0.0, 1.0 ],
									"bgcolor2" : [ 0.0, 0.0, 0.0, 1.0 ],
									"fontname" : "Arial Bold",
									"fontsize" : 10.0,
									"framecolor" : [ 0.0, 0.0, 0.0, 0.0 ],
									"hltcolor" : [ 0.362819, 0.362819, 0.362819, 1.0 ],
									"id" : "obj-34",
									"items" : [ "All", ",", "Pitch", ",", "Velocity", ",", "Duration" ],
									"maxclass" : "umenu",
									"numinlets" : 1,
									"numoutlets" : 3,
									"outlettype" : [ "int", "", "" ],
									"parameter_enable" : 1,
									"patching_rect" : [ 156.0, 67.470001, 71.0, 18.0 ],
									"pattrmode" : 1,
									"presentation" : 1,
									"presentation_rect" : [ 477.638611, 148.65155, 64.361389, 18.0 ],
									"rounded" : 0,
									"saved_attribute_attributes" : 									{
										"valueof" : 										{
											"parameter_longname" : "EditMode",
											"parameter_shortname" : "EditMode",
											"parameter_type" : 3,
											"parameter_initial_enable" : 1,
											"parameter_initial" : [ "Pitch" ],
											"parameter_invisible" : 1
										}

									}
,
									"textcolor" : [ 0.0, 0.870117, 0.103208, 1.0 ],
									"textcolor2" : [ 0.0, 0.870117, 0.103208, 1.0 ],
									"varname" : "EditMode"
								}

							}
, 							{
								"box" : 								{
									"activedialcolor" : [ 0.0, 0.870117, 0.103208, 1.0 ],
									"activeneedlecolor" : [ 1.0, 1.0, 1.0, 0.7 ],
									"id" : "obj-23",
									"maxclass" : "live.dial",
									"numinlets" : 1,
									"numoutlets" : 2,
									"outlettype" : [ "", "float" ],
									"parameter_enable" : 1,
									"patching_rect" : [ 303.5, 9.77002, 44.0, 47.0 ],
									"presentation" : 1,
									"presentation_rect" : [ 482.638611, 44.0, 52.0, 47.0 ],
									"saved_attribute_attributes" : 									{
										"valueof" : 										{
											"parameter_longname" : "Sequence",
											"parameter_shortname" : "Sequence",
											"parameter_type" : 1,
											"parameter_mmin" : 1.0,
											"parameter_mmax" : 16.0,
											"parameter_initial_enable" : 1,
											"parameter_initial" : [ 1 ],
											"parameter_unitstyle" : 0
										}

									}
,
									"textcolor" : [ 1.0, 1.0, 1.0, 0.7 ],
									"varname" : "Sequence"
								}

							}
, 							{
								"box" : 								{
									"comment" : "",
									"id" : "obj-17",
									"maxclass" : "outlet",
									"numinlets" : 1,
									"numoutlets" : 0,
									"patching_rect" : [ 164.5, 644.0, 25.0, 25.0 ]
								}

							}
, 							{
								"box" : 								{
									"attr" : "bgrulercolor",
									"fontname" : "Arial",
									"fontsize" : 13.0,
									"id" : "obj-19",
									"maxclass" : "attrui",
									"numinlets" : 1,
									"numoutlets" : 1,
									"outlettype" : [ "" ],
									"patching_rect" : [ 36.5, 156.651932, 153.0, 21.0 ]
								}

							}
, 							{
								"box" : 								{
									"fontname" : "Arial",
									"fontsize" : 13.0,
									"id" : "obj-12",
									"maxclass" : "message",
									"numinlets" : 2,
									"numoutlets" : 1,
									"outlettype" : [ "" ],
									"patching_rect" : [ 509.0, 67.77002, 54.0, 19.0 ],
									"text" : "fold $1"
								}

							}
, 							{
								"box" : 								{
									"activebgcolor" : [ 0.325927, 0.350022, 0.375717, 1.0 ],
									"activebgoncolor" : [ 0.0, 0.870588, 0.101961, 1.0 ],
									"automation" : "off",
									"automationon" : "on",
									"id" : "obj-16",
									"maxclass" : "live.text",
									"numinlets" : 1,
									"numoutlets" : 2,
									"outlettype" : [ "", "" ],
									"parameter_enable" : 1,
									"patching_rect" : [ 509.0, 41.77002, 40.0, 15.0 ],
									"presentation" : 1,
									"presentation_rect" : [ 477.638611, 171.65155, 64.361389, 15.0 ],
									"saved_attribute_attributes" : 									{
										"valueof" : 										{
											"parameter_longname" : "live.text",
											"parameter_shortname" : "live.text",
											"parameter_type" : 2,
											"parameter_mmax" : 1.0,
											"parameter_enum" : [ "off", "on" ],
											"parameter_initial_enable" : 1,
											"parameter_initial" : [ 1 ],
											"parameter_speedlim" : 0.0
										}

									}
,
									"text" : "Fold",
									"texton" : "Fold",
									"varname" : "live.text"
								}

							}
, 							{
								"box" : 								{
									"fontname" : "Arial",
									"fontsize" : 13.0,
									"id" : "obj-11",
									"maxclass" : "message",
									"numinlets" : 2,
									"numoutlets" : 1,
									"outlettype" : [ "" ],
									"patching_rect" : [ 254.0, 94.0, 368.0, 19.0 ],
									"text" : "target_seq 0, active 0, display_seq $1, target_seq $1, active 1"
								}

							}
, 							{
								"box" : 								{
									"fontname" : "Arial",
									"fontsize" : 13.0,
									"id" : "obj-42",
									"maxclass" : "message",
									"numinlets" : 2,
									"numoutlets" : 1,
									"outlettype" : [ "" ],
									"patching_rect" : [ 604.0, 77.0, 59.0, 19.0 ],
									"text" : "nstep $1"
								}

							}
, 							{
								"box" : 								{
									"fontname" : "Arial",
									"fontsize" : 12.0,
									"id" : "obj-1",
									"maxclass" : "newobj",
									"numinlets" : 2,
									"numoutlets" : 1,
									"outlettype" : [ "" ],
									"patching_rect" : [ 229.0, 521.0, 103.0, 20.0 ],
									"text" : "pack i i"
								}

							}
, 							{
								"box" : 								{
									"fontname" : "Arial",
									"fontsize" : 12.0,
									"id" : "obj-2",
									"maxclass" : "newobj",
									"numinlets" : 7,
									"numoutlets" : 1,
									"outlettype" : [ "int" ],
									"patching_rect" : [ 229.0, 560.0, 100.0, 20.0 ],
									"text" : "midiformat"
								}

							}
, 							{
								"box" : 								{
									"fontname" : "Arial",
									"fontsize" : 12.0,
									"id" : "obj-4",
									"maxclass" : "newobj",
									"numinlets" : 3,
									"numoutlets" : 2,
									"outlettype" : [ "float", "float" ],
									"patching_rect" : [ 229.0, 486.0, 103.0, 20.0 ],
									"text" : "makenote 64 120"
								}

							}
, 							{
								"box" : 								{
									"fontname" : "Arial",
									"fontsize" : 12.0,
									"id" : "obj-3",
									"maxclass" : "newobj",
									"numinlets" : 1,
									"numoutlets" : 4,
									"outlettype" : [ "int", "int", "int", "int" ],
									"patching_rect" : [ 229.0, 434.0, 73.0, 20.0 ],
									"text" : "unpack i i i i"
								}

							}
, 							{
								"box" : 								{
									"fontname" : "Arial",
									"fontsize" : 13.0,
									"id" : "obj-174",
									"maxclass" : "newobj",
									"numinlets" : 2,
									"numoutlets" : 1,
									"outlettype" : [ "" ],
									"patcher" : 									{
										"fileversion" : 1,
										"appversion" : 										{
											"major" : 6,
											"minor" : 1,
											"revision" : 3,
											"architecture" : "x86"
										}
,
										"rect" : [ 490.0, 426.0, 632.0, 331.0 ],
										"bgcolor" : [ 0.67, 0.7, 0.72, 1.0 ],
										"bglocked" : 0,
										"openinpresentation" : 0,
										"default_fontsize" : 13.0,
										"default_fontface" : 0,
										"default_fontname" : "Arial",
										"gridonopen" : 0,
										"gridsize" : [ 15.0, 15.0 ],
										"gridsnaponopen" : 0,
										"statusbarvisible" : 2,
										"toolbarvisible" : 1,
										"boxanimatetime" : 200,
										"imprint" : 0,
										"enablehscroll" : 1,
										"enablevscroll" : 1,
										"devicewidth" : 0.0,
										"description" : "",
										"digest" : "",
										"tags" : "",
										"boxes" : [ 											{
												"box" : 												{
													"fontname" : "Arial",
													"fontsize" : 13.0,
													"frgb" : 0.0,
													"id" : "obj-2",
													"maxclass" : "comment",
													"numinlets" : 1,
													"numoutlets" : 0,
													"patching_rect" : [ 258.0, 241.0, 218.0, 21.0 ],
													"text" : "bars beats units PPQ time signature"
												}

											}
, 											{
												"box" : 												{
													"fontname" : "Arial",
													"fontsize" : 13.0,
													"id" : "obj-32",
													"maxclass" : "message",
													"numinlets" : 2,
													"numoutlets" : 1,
													"outlettype" : [ "" ],
													"patching_rect" : [ 305.0, 133.0, 63.0, 19.0 ],
													"text" : "tempo $1"
												}

											}
, 											{
												"box" : 												{
													"fontname" : "Arial",
													"fontsize" : 13.0,
													"id" : "obj-29",
													"maxclass" : "message",
													"numinlets" : 2,
													"numoutlets" : 1,
													"outlettype" : [ "" ],
													"patching_rect" : [ 63.0, 143.0, 32.5, 19.0 ],
													"text" : "0."
												}

											}
, 											{
												"box" : 												{
													"fontname" : "Arial",
													"fontsize" : 13.0,
													"id" : "obj-24",
													"maxclass" : "newobj",
													"numinlets" : 2,
													"numoutlets" : 1,
													"outlettype" : [ "bang" ],
													"patching_rect" : [ 165.0, 93.0, 510.0, 21.0 ],
													"text" : "metro @interval 10 ticks @quantize 10 ticks @autostart 1 @autostarttime 0. @active 1"
												}

											}
, 											{
												"box" : 												{
													"fontname" : "Arial",
													"fontsize" : 13.0,
													"id" : "obj-18",
													"maxclass" : "newobj",
													"numinlets" : 1,
													"numoutlets" : 1,
													"outlettype" : [ "" ],
													"patching_rect" : [ 165.0, 235.0, 85.0, 21.0 ],
													"text" : "prepend time"
												}

											}
, 											{
												"box" : 												{
													"fontname" : "Arial",
													"fontsize" : 13.0,
													"id" : "obj-15",
													"maxclass" : "newobj",
													"numinlets" : 6,
													"numoutlets" : 1,
													"outlettype" : [ "" ],
													"patching_rect" : [ 165.0, 197.0, 109.0, 21.0 ],
													"text" : "pack 0 0 0. 0. 0 0"
												}

											}
, 											{
												"box" : 												{
													"fontname" : "Arial",
													"fontsize" : 13.0,
													"id" : "obj-13",
													"maxclass" : "message",
													"numinlets" : 2,
													"numoutlets" : 1,
													"outlettype" : [ "" ],
													"patching_rect" : [ 101.0, 144.0, 37.0, 19.0 ],
													"text" : "reset"
												}

											}
, 											{
												"box" : 												{
													"comment" : "",
													"id" : "obj-9",
													"maxclass" : "outlet",
													"numinlets" : 1,
													"numoutlets" : 0,
													"patching_rect" : [ 101.0, 273.0, 25.0, 25.0 ]
												}

											}
, 											{
												"box" : 												{
													"fontname" : "Arial",
													"fontsize" : 13.0,
													"id" : "obj-5",
													"maxclass" : "newobj",
													"numinlets" : 2,
													"numoutlets" : 2,
													"outlettype" : [ "bang", "" ],
													"patching_rect" : [ 101.0, 107.0, 36.0, 21.0 ],
													"text" : "sel 0"
												}

											}
, 											{
												"box" : 												{
													"fontname" : "Arial",
													"fontsize" : 13.0,
													"id" : "obj-51",
													"maxclass" : "newobj",
													"numinlets" : 2,
													"numoutlets" : 9,
													"outlettype" : [ "int", "int", "float", "float", "float", "", "int", "float", "" ],
													"patching_rect" : [ 165.0, 162.0, 153.5, 21.0 ],
													"text" : "transport"
												}

											}
, 											{
												"box" : 												{
													"comment" : "",
													"id" : "obj-75",
													"maxclass" : "inlet",
													"numinlets" : 0,
													"numoutlets" : 1,
													"outlettype" : [ "" ],
													"patching_rect" : [ 101.0, 55.0, 25.0, 25.0 ]
												}

											}
, 											{
												"box" : 												{
													"comment" : "",
													"id" : "obj-76",
													"maxclass" : "inlet",
													"numinlets" : 0,
													"numoutlets" : 1,
													"outlettype" : [ "" ],
													"patching_rect" : [ 305.0, 40.0, 25.0, 25.0 ]
												}

											}
 ],
										"lines" : [ 											{
												"patchline" : 												{
													"color" : [ 0.501961, 0.501961, 0.501961, 0.901961 ],
													"destination" : [ "obj-9", 0 ],
													"disabled" : 0,
													"hidden" : 0,
													"source" : [ "obj-13", 0 ]
												}

											}
, 											{
												"patchline" : 												{
													"color" : [ 0.501961, 0.501961, 0.501961, 0.901961 ],
													"destination" : [ "obj-18", 0 ],
													"disabled" : 0,
													"hidden" : 0,
													"source" : [ "obj-15", 0 ]
												}

											}
, 											{
												"patchline" : 												{
													"color" : [ 0.501961, 0.501961, 0.501961, 0.901961 ],
													"destination" : [ "obj-9", 0 ],
													"disabled" : 0,
													"hidden" : 0,
													"midpoints" : [ 174.5, 261.0, 110.5, 261.0 ],
													"source" : [ "obj-18", 0 ]
												}

											}
, 											{
												"patchline" : 												{
													"color" : [ 0.501961, 0.501961, 0.501961, 0.901961 ],
													"destination" : [ "obj-51", 0 ],
													"disabled" : 0,
													"hidden" : 0,
													"source" : [ "obj-24", 0 ]
												}

											}
, 											{
												"patchline" : 												{
													"color" : [ 0.501961, 0.501961, 0.501961, 0.901961 ],
													"destination" : [ "obj-51", 1 ],
													"disabled" : 0,
													"hidden" : 0,
													"midpoints" : [ 72.5, 226.0, 150.0, 226.0, 150.0, 155.0, 309.0, 155.0 ],
													"source" : [ "obj-29", 0 ]
												}

											}
, 											{
												"patchline" : 												{
													"color" : [ 0.501961, 0.501961, 0.501961, 0.901961 ],
													"destination" : [ "obj-51", 0 ],
													"disabled" : 0,
													"hidden" : 0,
													"source" : [ "obj-32", 0 ]
												}

											}
, 											{
												"patchline" : 												{
													"color" : [ 0.501961, 0.501961, 0.501961, 0.901961 ],
													"destination" : [ "obj-13", 0 ],
													"disabled" : 0,
													"hidden" : 0,
													"source" : [ "obj-5", 0 ]
												}

											}
, 											{
												"patchline" : 												{
													"color" : [ 0.501961, 0.501961, 0.501961, 0.901961 ],
													"destination" : [ "obj-29", 0 ],
													"disabled" : 0,
													"hidden" : 0,
													"midpoints" : [ 110.5, 138.0, 72.5, 138.0 ],
													"source" : [ "obj-5", 0 ]
												}

											}
, 											{
												"patchline" : 												{
													"color" : [ 0.501961, 0.501961, 0.501961, 0.901961 ],
													"destination" : [ "obj-15", 4 ],
													"disabled" : 0,
													"hidden" : 0,
													"midpoints" : [ 258.5625, 189.0, 246.5, 189.0 ],
													"source" : [ "obj-51", 5 ]
												}

											}
, 											{
												"patchline" : 												{
													"color" : [ 0.501961, 0.501961, 0.501961, 0.901961 ],
													"destination" : [ "obj-15", 3 ],
													"disabled" : 0,
													"hidden" : 0,
													"source" : [ "obj-51", 3 ]
												}

											}
, 											{
												"patchline" : 												{
													"color" : [ 0.501961, 0.501961, 0.501961, 0.901961 ],
													"destination" : [ "obj-15", 2 ],
													"disabled" : 0,
													"hidden" : 0,
													"source" : [ "obj-51", 2 ]
												}

											}
, 											{
												"patchline" : 												{
													"color" : [ 0.501961, 0.501961, 0.501961, 0.901961 ],
													"destination" : [ "obj-15", 1 ],
													"disabled" : 0,
													"hidden" : 0,
													"source" : [ "obj-51", 1 ]
												}

											}
, 											{
												"patchline" : 												{
													"color" : [ 0.501961, 0.501961, 0.501961, 0.901961 ],
													"destination" : [ "obj-15", 0 ],
													"disabled" : 0,
													"hidden" : 0,
													"midpoints" : [ 174.5, 184.0, 174.5, 193.0 ],
													"source" : [ "obj-51", 0 ]
												}

											}
, 											{
												"patchline" : 												{
													"color" : [ 0.501961, 0.501961, 0.501961, 0.901961 ],
													"destination" : [ "obj-5", 0 ],
													"disabled" : 0,
													"hidden" : 0,
													"source" : [ "obj-75", 0 ]
												}

											}
, 											{
												"patchline" : 												{
													"color" : [ 0.501961, 0.501961, 0.501961, 0.901961 ],
													"destination" : [ "obj-51", 0 ],
													"disabled" : 0,
													"hidden" : 0,
													"source" : [ "obj-75", 0 ]
												}

											}
, 											{
												"patchline" : 												{
													"color" : [ 0.501961, 0.501961, 0.501961, 0.901961 ],
													"destination" : [ "obj-32", 0 ],
													"disabled" : 0,
													"hidden" : 0,
													"source" : [ "obj-76", 0 ]
												}

											}
 ]
									}
,
									"patching_rect" : [ 229.0, 190.0, 104.0, 21.0 ],
									"saved_object_attributes" : 									{
										"default_fontface" : 0,
										"default_fontname" : "Arial",
										"default_fontsize" : 13.0,
										"description" : "",
										"digest" : "",
										"fontface" : 0,
										"fontname" : "Arial",
										"fontsize" : 13.0,
										"globalpatchername" : "",
										"tags" : ""
									}
,
									"text" : "p Transportation"
								}

							}
, 							{
								"box" : 								{
									"bgcolor" : [ 0.0, 0.0, 0.0, 0.57 ],
									"bgcolor2" : [ 0.0, 0.0, 0.0, 1.0 ],
									"bgrulercolor" : [ 0.0, 0.0, 0.0, 1.0 ],
									"bgunitcolor" : [ 0.0, 0.0, 0.0, 0.0 ],
									"extra1_active" : 0,
									"extra2_active" : 0,
									"extra_thickness" : 0.99,
									"fontname" : "Arial",
									"hbgcolor" : [ 0.0, 0.870588, 0.101961, 0.35 ],
									"id" : "obj-7",
									"maxclass" : "live.step",
									"mode" : 1,
									"nseq" : 16,
									"numinlets" : 1,
									"numoutlets" : 5,
									"outlettype" : [ "", "", "", "", "" ],
									"parameter_enable" : 1,
									"patching_rect" : [ 229.0, 237.0, 450.0, 171.0 ],
									"presentation" : 1,
									"presentation_rect" : [ 2.0, 37.0, 471.0, 158.433029 ],
									"saved_attribute_attributes" : 									{
										"valueof" : 										{
											"parameter_longname" : "live.step",
											"parameter_shortname" : "live.step",
											"parameter_type" : 3,
											"parameter_invisible" : 1
										}

									}
,
									"stepcolor" : [ 0.0, 0.870588, 0.101961, 1.0 ],
									"stepcolor2" : [ 0.0, 0.870588, 0.101961, 1.0 ],
									"textcolor" : [ 1.0, 1.0, 1.0, 1.0 ],
									"varname" : "live.step"
								}

							}
, 							{
								"box" : 								{
									"fontname" : "Arial",
									"fontsize" : 12.0,
									"id" : "obj-40",
									"maxclass" : "newobj",
									"numinlets" : 1,
									"numoutlets" : 0,
									"patching_rect" : [ 1962.0, 1190.995972, 47.0, 20.0 ],
									"text" : "s reset"
								}

							}
, 							{
								"box" : 								{
									"bubble" : 1,
									"bubbleside" : 2,
									"fontname" : "Arial",
									"fontsize" : 12.0,
									"frgb" : 0.0,
									"id" : "obj-30",
									"maxclass" : "comment",
									"numinlets" : 1,
									"numoutlets" : 0,
									"patching_rect" : [ 1929.0, 1062.621338, 115.0, 39.0 ],
									"text" : "reset before saving"
								}

							}
, 							{
								"box" : 								{
									"id" : "obj-15",
									"maxclass" : "button",
									"numinlets" : 1,
									"numoutlets" : 1,
									"outlettype" : [ "bang" ],
									"patching_rect" : [ 1962.0, 1119.995972, 49.0, 49.0 ]
								}

							}
, 							{
								"box" : 								{
									"fontname" : "Arial",
									"fontsize" : 9.0,
									"frgb" : 0.0,
									"id" : "obj-118",
									"maxclass" : "comment",
									"numinlets" : 1,
									"numoutlets" : 0,
									"patching_rect" : [ 2118.0, 1198.917603, 344.0, 17.0 ],
									"text" : "http://cycling74.com/toolbox/live-spectral-processing-patches-for-expo-74-nyc-2011/"
								}

							}
, 							{
								"box" : 								{
									"fontname" : "Arial",
									"fontsize" : 9.0,
									"frgb" : 0.0,
									"id" : "obj-117",
									"maxclass" : "comment",
									"numinlets" : 1,
									"numoutlets" : 0,
									"patching_rect" : [ 2118.0, 1181.917603, 310.0, 17.0 ],
									"text" : "/Max 6.1/examples/jitter-examples/audio/jitter_pvoc/jitter_pvoc_2D.maxpat"
								}

							}
, 							{
								"box" : 								{
									"fontname" : "Arial",
									"fontsize" : 9.0,
									"frgb" : 0.0,
									"id" : "obj-116",
									"maxclass" : "comment",
									"numinlets" : 1,
									"numoutlets" : 0,
									"patching_rect" : [ 2118.0, 1164.917603, 366.0, 17.0 ],
									"text" : "/Max 6.1/examples/fft-fun/phase-vocoder-sampler-folder/phase-vocoder-sampler.maxpat"
								}

							}
, 							{
								"box" : 								{
									"fontface" : 1,
									"fontname" : "Arial",
									"fontsize" : 9.0,
									"frgb" : 0.0,
									"id" : "obj-110",
									"maxclass" : "comment",
									"numinlets" : 1,
									"numoutlets" : 0,
									"patching_rect" : [ 2118.0, 1147.917603, 120.0, 17.0 ],
									"text" : "References"
								}

							}
, 							{
								"box" : 								{
									"fontname" : "Arial",
									"fontsize" : 9.0,
									"frgb" : 0.0,
									"id" : "obj-109",
									"maxclass" : "comment",
									"numinlets" : 1,
									"numoutlets" : 0,
									"patching_rect" : [ 2118.0, 1101.917603, 138.0, 17.0 ],
									"text" : "August 2013 Matthew Davidson"
								}

							}
, 							{
								"box" : 								{
									"fontface" : 1,
									"fontname" : "Arial",
									"fontsize" : 9.0,
									"frgb" : 0.0,
									"id" : "obj-108",
									"maxclass" : "comment",
									"numinlets" : 1,
									"numoutlets" : 0,
									"patching_rect" : [ 2118.0, 1084.917603, 121.0, 17.0 ],
									"text" : "Beap Phase Vocoder"
								}

							}
, 							{
								"box" : 								{
									"id" : "obj-43",
									"maxclass" : "live.line",
									"numinlets" : 1,
									"numoutlets" : 0,
									"patching_rect" : [ 2104.5, 1062.621338, 8.0, 153.296265 ],
									"presentation" : 1,
									"presentation_rect" : [ 202.23877, 163.65155, 17.279984, 11.0 ]
								}

							}
, 							{
								"box" : 								{
									"fontname" : "Arial Bold",
									"fontsize" : 9.0,
									"frgb" : 0.0,
									"id" : "obj-24",
									"maxclass" : "comment",
									"numinlets" : 1,
									"numoutlets" : 0,
									"patching_rect" : [ 2506.262695, 1145.917603, 41.0, 17.0 ],
									"presentation" : 1,
									"presentation_rect" : [ 0.0, 197.211548, 38.0, 17.0 ],
									"text" : "MIDI",
									"textcolor" : [ 1.0, 1.0, 1.0, 1.0 ]
								}

							}
, 							{
								"box" : 								{
									"fontname" : "Arial",
									"fontsize" : 12.0,
									"id" : "obj-6",
									"maxclass" : "newobj",
									"numinlets" : 1,
									"numoutlets" : 4,
									"outlettype" : [ "", "", "", "" ],
									"patching_rect" : [ 2433.262695, 1062.621338, 59.5, 20.0 ],
									"restore" : 									{
										"EditMode" : [ "Pitch" ],
										"Mute" : [ 0.0 ],
										"Sequence" : [ 1.0 ],
										"Steps" : [ 16.0 ],
										"live.step" : [ 16, 16, 9, 16, 7, 16, 0, 16, 0, 16, 0, 16, 0, 16, 0, 16, 0, 16, 0, 16, 0, 16, 0, 16, 0, 16, 0, 16, 0, 16, 0, 16, 0, 1, 12, 0, 16, 63.755898, 82.755898, 0, 1, 60, 101, 4, 127, 127, 67, 83, 4, 127, 127, 70, 57, 4, 127, 127, 60, 78, 4, 127, 127, 68, 35, 4, 127, 127, 62, 75, 4, 127, 127, 70, 127, 4, 127, 127, 60, 75, 4, 127, 127, 67, 127, 4, 127, 127, 74, 80, 4, 127, 127, 79, 100, 4, 127, 127, 63, 127, 4, 127, 127, 65, 114, 4, 127, 127, 68, 98, 4, 127, 127, 62, 97, 4, 127, 127, 60, 103, 4, 127, 127, 60, 62, 63, 65, 67, 68, 70, 74, 79, 0, 12, 0, 16, 46.736313, 69.736313, 0, 1, 48, 48, 4, 52, 90, 58, 107, 4, 65, 62, 55, 93, 4, 34, 33, 58, 77, 4, 109, 46, 51, 34, 4, 50, 66, 56, 79, 4, 63, 4, 55, 56, 4, 24, 55, 56, 71, 4, 38, 7, 58, 26, 4, 27, 82, 58, 57, 4, 119, 87, 48, 90, 4, 12, 118, 48, 79, 4, 77, 16, 51, 24, 4, 54, 106, 62, 109, 4, 112, 65, 55, 123, 4, 26, 43, 55, 123, 4, 38, 25, 48, 51, 55, 56, 58, 62, 65, 0, 12, 0, 16, 48.0, 71.0, 0, 0, 64, 31, 4, 46, 58, 60, 78, 4, 110, 110, 68, 34, 4, 44, 64, 67, 34, 4, 83, 35, 65, 57, 4, 90, 110, 64, 28, 4, 1, 26, 68, 74, 4, 0, 98, 50, 98, 4, 82, 67, 56, 17, 4, 127, 60, 51, 110, 4, 40, 127, 56, 50, 4, 92, 67, 67, 70, 4, 119, 95, 52, 114, 4, 84, 46, 57, 88, 4, 72, 108, 63, 125, 4, 60, 2, 51, 82, 4, 123, 11, 0, 12, 0, 16, 48.0, 71.0, 0, 0, 48, 109, 4, 126, 17, 62, 36, 4, 29, 48, 62, 43, 4, 10, 55, 49, 91, 4, 64, 97, 49, 19, 4, 29, 32, 52, 39, 4, 54, 11, 69, 19, 4, 0, 125, 68, 111, 4, 74, 119, 60, 79, 4, 114, 52, 53, 11, 4, 75, 58, 64, 27, 4, 42, 125, 63, 54, 4, 6, 67, 57, 39, 4, 76, 52, 66, 70, 4, 44, 82, 49, 35, 4, 18, 13, 50, 125, 4, 100, 120, 0, 12, 0, 16, 48.0, 71.0, 0, 0, 53, 51, 4, 120, 72, 49, 109, 4, 48, 41, 48, 110, 4, 80, 2, 50, 19, 4, 51, 0, 51, 10, 4, 117, 13, 63, 68, 4, 92, 115, 58, 78, 4, 23, 35, 48, 0, 4, 107, 53, 52, 48, 4, 89, 44, 53, 13, 4, 76, 45, 67, 54, 4, 47, 3, 56, 50, 4, 13, 1, 57, 3, 4, 104, 50, 69, 73, 4, 50, 80, 61, 60, 4, 0, 125, 65, 125, 4, 43, 72, 0, 12, 0, 16, 48.0, 71.0, 0, 0, 54, 107, 4, 110, 66, 56, 91, 4, 15, 86, 51, 2, 4, 124, 115, 49, 45, 4, 115, 97, 57, 99, 4, 52, 111, 48, 48, 4, 107, 15, 63, 70, 4, 5, 12, 48, 57, 4, 10, 23, 66, 107, 4, 26, 121, 60, 2, 4, 91, 17, 59, 101, 4, 81, 12, 59, 99, 4, 125, 62, 61, 55, 4, 57, 108, 64, 51, 4, 31, 22, 53, 88, 4, 5, 126, 49, 52, 4, 89, 49, 0, 12, 0, 16, 48.0, 71.0, 0, 0, 60, 42, 4, 123, 115, 48, 5, 4, 50, 110, 51, 37, 4, 45, 41, 65, 70, 4, 6, 1, 70, 124, 4, 18, 62, 69, 43, 4, 4, 101, 52, 3, 4, 101, 23, 51, 111, 4, 39, 119, 66, 81, 4, 9, 33, 53, 113, 4, 127, 51, 49, 66, 4, 126, 38, 51, 102, 4, 15, 11, 58, 68, 4, 73, 88, 56, 27, 4, 41, 3, 61, 87, 4, 7, 60, 57, 67, 4, 33, 98, 0, 12, 0, 16, 48.0, 71.0, 0, 0, 55, 114, 4, 86, 26, 68, 123, 4, 124, 47, 52, 43, 4, 17, 8, 52, 101, 4, 14, 57, 57, 72, 4, 87, 33, 67, 84, 4, 44, 103, 62, 35, 4, 30, 119, 65, 27, 4, 42, 76, 48, 123, 4, 100, 105, 64, 105, 4, 90, 63, 53, 53, 4, 94, 32, 57, 87, 4, 9, 3, 55, 101, 4, 58, 97, 49, 41, 4, 124, 53, 67, 111, 4, 45, 63, 54, 56, 4, 107, 95, 0, 12, 0, 16, 48.0, 71.0, 0, 0, 50, 16, 4, 17, 10, 56, 117, 4, 24, 31, 66, 41, 4, 26, 104, 56, 109, 4, 96, 59, 50, 53, 4, 21, 118, 56, 8, 4, 10, 74, 68, 49, 4, 100, 42, 49, 71, 4, 116, 49, 48, 78, 4, 60, 59, 67, 8, 4, 59, 52, 66, 33, 4, 102, 35, 54, 73, 4, 60, 89, 50, 67, 4, 65, 91, 53, 108, 4, 16, 125, 51, 68, 4, 38, 47, 70, 64, 4, 8, 35, 0, 12, 0, 16, 48.0, 71.0, 0, 0, 61, 88, 4, 46, 125, 55, 99, 4, 51, 103, 66, 38, 4, 120, 68, 68, 69, 4, 87, 99, 57, 44, 4, 117, 12, 51, 93, 4, 127, 76, 49, 117, 4, 72, 22, 56, 62, 4, 90, 63, 64, 45, 4, 60, 25, 62, 7, 4, 127, 94, 65, 54, 4, 112, 51, 66, 76, 4, 86, 81, 56, 85, 4, 94, 18, 70, 52, 4, 119, 17, 69, 112, 4, 91, 108, 57, 102, 4, 113, 110, 0, 12, 0, 16, 48.0, 71.0, 0, 0, 53, 127, 4, 25, 80, 55, 127, 4, 30, 6, 67, 24, 4, 97, 60, 52, 126, 4, 7, 6, 51, 28, 4, 26, 20, 65, 103, 4, 64, 31, 53, 11, 4, 114, 61, 69, 74, 4, 3, 30, 57, 20, 4, 111, 48, 63, 96, 4, 57, 37, 65, 114, 4, 124, 47, 48, 2, 4, 76, 119, 49, 110, 4, 66, 38, 66, 104, 4, 31, 34, 54, 41, 4, 29, 52, 55, 61, 4, 78, 37, 0, 12, 0, 16, 48.0, 71.0, 0, 0, 70, 25, 4, 54, 6, 66, 104, 4, 95, 118, 52, 15, 4, 93, 46, 70, 27, 4, 126, 51, 61, 67, 4, 58, 43, 62, 14, 4, 111, 91, 49, 16, 4, 26, 48, 61, 37, 4, 27, 106, 48, 15, 4, 83, 50, 50, 45, 4, 14, 74, 52, 121, 4, 27, 54, 54, 2, 4, 68, 85, 68, 6, 4, 69, 68, 59, 30, 4, 59, 44, 55, 115, 4, 51, 75, 66, 13, 4, 113, 114, 0, 12, 0, 16, 48.0, 71.0, 0, 0, 49, 115, 4, 47, 113, 59, 35, 4, 39, 105, 50, 42, 4, 55, 17, 65, 32, 4, 8, 120, 57, 112, 4, 119, 45, 69, 103, 4, 44, 39, 56, 56, 4, 39, 83, 48, 110, 4, 113, 122, 70, 72, 4, 8, 114, 53, 2, 4, 71, 31, 55, 1, 4, 110, 114, 55, 80, 4, 83, 32, 61, 83, 4, 3, 75, 65, 79, 4, 78, 41, 48, 13, 4, 93, 3, 48, 42, 4, 29, 87, 0, 12, 0, 16, 48.0, 71.0, 0, 0, 50, 101, 4, 119, 64, 51, 24, 4, 52, 127, 54, 78, 4, 71, 23, 70, 68, 4, 88, 108, 64, 57, 4, 70, 69, 59, 64, 4, 63, 91, 55, 5, 4, 77, 28, 68, 65, 4, 79, 58, 68, 103, 4, 118, 45, 69, 122, 4, 115, 28, 66, 108, 4, 10, 39, 48, 17, 4, 106, 73, 61, 27, 4, 108, 33, 64, 109, 4, 107, 111, 65, 26, 4, 107, 54, 52, 45, 4, 98, 112, 0, 12, 0, 16, 48.0, 71.0, 0, 0, 48, 62, 4, 21, 42, 69, 79, 4, 82, 95, 67, 123, 4, 76, 71, 64, 101, 4, 94, 71, 54, 15, 4, 18, 2, 64, 94, 4, 13, 100, 59, 26, 4, 67, 77, 53, 1, 4, 7, 77, 56, 101, 4, 70, 83, 65, 29, 4, 5, 83, 55, 86, 4, 24, 42, 62, 115, 4, 110, 11, 61, 114, 4, 37, 68, 65, 95, 4, 65, 43, 57, 58, 4, 46, 27, 66, 16, 4, 54, 68, 0, 12, 0, 16, 48.0, 71.0, 0, 0, 53, 11, 4, 57, 2, 63, 42, 4, 71, 16, 49, 10, 4, 103, 69, 70, 88, 4, 93, 20, 62, 103, 4, 123, 122, 68, 86, 4, 95, 11, 55, 27, 4, 85, 103, 57, 84, 4, 126, 11, 70, 2, 4, 92, 35, 54, 59, 4, 49, 126, 50, 117, 4, 0, 3, 62, 26, 4, 86, 56, 56, 31, 4, 12, 74, 56, 24, 4, 5, 115, 63, 15, 4, 12, 35, 53, 71, 4, 76, 56 ],
										"live.text" : [ 1.0 ],
										"stealth_init" : [ 0.0 ]
									}
,
									"text" : "autopattr",
									"varname" : "u514001078"
								}

							}
, 							{
								"box" : 								{
									"fontname" : "Arial Bold",
									"fontsize" : 9.0,
									"frgb" : 0.0,
									"id" : "obj-13",
									"linecount" : 4,
									"maxclass" : "comment",
									"numinlets" : 1,
									"numoutlets" : 0,
									"patching_rect" : [ 2506.262695, 1062.621338, 48.0, 47.0 ],
									"presentation" : 1,
									"presentation_rect" : [ 2.0, 19.0, 125.0, 17.0 ],
									"text" : "PIANO ROLL SEQUENCER",
									"textcolor" : [ 1.0, 1.0, 1.0, 1.0 ]
								}

							}
, 							{
								"box" : 								{
									"bgcolor" : [ 0.137255, 0.145098, 0.160784, 0.65 ],
									"id" : "obj-18",
									"maxclass" : "panel",
									"numinlets" : 1,
									"numoutlets" : 0,
									"patching_rect" : [ 2166.0, 1062.621338, 44.0, 9.0 ],
									"presentation" : 1,
									"presentation_rect" : [ 0.0, 37.0, 676.5, 158.433029 ],
									"rounded" : 0
								}

							}
, 							{
								"box" : 								{
									"bgcolor" : [ 0.367404, 0.389405, 0.430238, 1.0 ],
									"id" : "obj-21",
									"maxclass" : "panel",
									"numinlets" : 1,
									"numoutlets" : 0,
									"patching_rect" : [ 2214.0, 1062.621338, 44.0, 9.0 ],
									"presentation" : 1,
									"presentation_rect" : [ 0.0, 17.0, 676.5, 178.433029 ],
									"rounded" : 0
								}

							}
, 							{
								"box" : 								{
									"bgcolor" : [ 0.0, 0.0, 0.0, 1.0 ],
									"id" : "obj-14",
									"maxclass" : "panel",
									"numinlets" : 1,
									"numoutlets" : 0,
									"patching_rect" : [ 2118.0, 1062.621338, 44.0, 9.0 ],
									"presentation" : 1,
									"presentation_rect" : [ 0.0, 0.0, 676.5, 232.433029 ],
									"rounded" : 0
								}

							}
 ],
						"lines" : [ 							{
								"patchline" : 								{
									"destination" : [ "obj-2", 0 ],
									"disabled" : 0,
									"hidden" : 0,
									"source" : [ "obj-1", 0 ]
								}

							}
, 							{
								"patchline" : 								{
									"destination" : [ "obj-7", 0 ],
									"disabled" : 0,
									"hidden" : 0,
									"source" : [ "obj-11", 0 ]
								}

							}
, 							{
								"patchline" : 								{
									"destination" : [ "obj-7", 0 ],
									"disabled" : 0,
									"hidden" : 0,
									"source" : [ "obj-12", 0 ]
								}

							}
, 							{
								"patchline" : 								{
									"destination" : [ "obj-40", 0 ],
									"disabled" : 0,
									"hidden" : 0,
									"source" : [ "obj-15", 0 ]
								}

							}
, 							{
								"patchline" : 								{
									"color" : [ 0.501961, 0.501961, 0.501961, 0.901961 ],
									"destination" : [ "obj-12", 0 ],
									"disabled" : 0,
									"hidden" : 0,
									"source" : [ "obj-16", 0 ]
								}

							}
, 							{
								"patchline" : 								{
									"destination" : [ "obj-7", 0 ],
									"disabled" : 0,
									"hidden" : 0,
									"source" : [ "obj-174", 0 ]
								}

							}
, 							{
								"patchline" : 								{
									"destination" : [ "obj-7", 0 ],
									"disabled" : 0,
									"hidden" : 0,
									"source" : [ "obj-19", 0 ]
								}

							}
, 							{
								"patchline" : 								{
									"destination" : [ "obj-29", 1 ],
									"disabled" : 0,
									"hidden" : 0,
									"source" : [ "obj-2", 0 ]
								}

							}
, 							{
								"patchline" : 								{
									"destination" : [ "obj-31", 0 ],
									"disabled" : 0,
									"hidden" : 0,
									"source" : [ "obj-22", 0 ]
								}

							}
, 							{
								"patchline" : 								{
									"destination" : [ "obj-11", 0 ],
									"disabled" : 0,
									"hidden" : 0,
									"source" : [ "obj-23", 0 ]
								}

							}
, 							{
								"patchline" : 								{
									"destination" : [ "obj-7", 0 ],
									"disabled" : 0,
									"hidden" : 0,
									"source" : [ "obj-27", 0 ]
								}

							}
, 							{
								"patchline" : 								{
									"destination" : [ "obj-42", 0 ],
									"disabled" : 0,
									"hidden" : 0,
									"source" : [ "obj-28", 0 ]
								}

							}
, 							{
								"patchline" : 								{
									"destination" : [ "obj-17", 0 ],
									"disabled" : 0,
									"hidden" : 0,
									"source" : [ "obj-29", 0 ]
								}

							}
, 							{
								"patchline" : 								{
									"destination" : [ "obj-4", 2 ],
									"disabled" : 0,
									"hidden" : 0,
									"source" : [ "obj-3", 3 ]
								}

							}
, 							{
								"patchline" : 								{
									"destination" : [ "obj-4", 1 ],
									"disabled" : 0,
									"hidden" : 0,
									"source" : [ "obj-3", 2 ]
								}

							}
, 							{
								"patchline" : 								{
									"destination" : [ "obj-4", 0 ],
									"disabled" : 0,
									"hidden" : 0,
									"source" : [ "obj-3", 1 ]
								}

							}
, 							{
								"patchline" : 								{
									"destination" : [ "obj-29", 0 ],
									"disabled" : 0,
									"hidden" : 0,
									"source" : [ "obj-31", 0 ]
								}

							}
, 							{
								"patchline" : 								{
									"destination" : [ "obj-27", 0 ],
									"disabled" : 0,
									"hidden" : 0,
									"source" : [ "obj-34", 0 ]
								}

							}
, 							{
								"patchline" : 								{
									"destination" : [ "obj-7", 0 ],
									"disabled" : 0,
									"hidden" : 0,
									"source" : [ "obj-36", 0 ]
								}

							}
, 							{
								"patchline" : 								{
									"destination" : [ "obj-38", 0 ],
									"disabled" : 0,
									"hidden" : 0,
									"source" : [ "obj-37", 0 ]
								}

							}
, 							{
								"patchline" : 								{
									"destination" : [ "obj-36", 0 ],
									"disabled" : 0,
									"hidden" : 0,
									"source" : [ "obj-38", 0 ]
								}

							}
, 							{
								"patchline" : 								{
									"destination" : [ "obj-1", 1 ],
									"disabled" : 0,
									"hidden" : 0,
									"source" : [ "obj-4", 1 ]
								}

							}
, 							{
								"patchline" : 								{
									"destination" : [ "obj-1", 0 ],
									"disabled" : 0,
									"hidden" : 0,
									"source" : [ "obj-4", 0 ]
								}

							}
, 							{
								"patchline" : 								{
									"destination" : [ "obj-7", 0 ],
									"disabled" : 0,
									"hidden" : 0,
									"source" : [ "obj-42", 0 ]
								}

							}
, 							{
								"patchline" : 								{
									"destination" : [ "obj-3", 0 ],
									"disabled" : 0,
									"hidden" : 0,
									"source" : [ "obj-7", 0 ]
								}

							}
 ]
					}
,
					"patching_rect" : [ 0.0, 0.0, 553.0, 214.0 ],
					"varname" : "PianoRollSequencer"
				}

			}
 ],
		"lines" : [  ],
		"parameters" : 		{
			"obj-38::obj-22" : [ "Mute[1]", "Mute", 0 ],
			"obj-38::obj-23" : [ "Sequence", "Sequence", 0 ],
			"obj-38::obj-16" : [ "live.text", "live.text", 0 ],
			"obj-38::obj-37" : [ "stealth_init", "stealth_init", 0 ],
			"obj-38::obj-7" : [ "live.step", "live.step", 0 ],
			"obj-38::obj-28" : [ "Steps", "Steps", 0 ],
			"obj-38::obj-34" : [ "EditMode", "EditMode", 0 ]
		}
,
		"dependency_cache" : [  ]
	}

}
