{
	"patcher" : 	{
		"fileversion" : 1,
		"appversion" : 		{
			"major" : 6,
			"minor" : 1,
			"revision" : 0,
			"architecture" : "x64"
		}
,
		"rect" : [ 0.0, 44.0, 1440.0, 758.0 ],
		"bglocked" : 0,
		"openinpresentation" : 0,
		"default_fontsize" : 12.0,
		"default_fontface" : 0,
		"default_fontname" : "Arial",
		"gridonopen" : 0,
		"gridsize" : [ 15.0, 15.0 ],
		"gridsnaponopen" : 0,
		"statusbarvisible" : 1,
		"toolbarvisible" : 1,
		"boxanimatetime" : 200,
		"imprint" : 0,
		"enablehscroll" : 1,
		"enablevscroll" : 1,
		"devicewidth" : 0.0,
		"description" : "",
		"digest" : "",
		"tags" : "",
		"boxes" : [ 			{
				"box" : 				{
					"embed" : 1,
					"id" : "obj-12",
					"maxclass" : "bpatcher",
					"numinlets" : 1,
					"numoutlets" : 2,
					"outlettype" : [ "int", "int" ],
					"patcher" : 					{
						"fileversion" : 1,
						"appversion" : 						{
							"major" : 6,
							"minor" : 1,
							"revision" : 0,
							"architecture" : "x64"
						}
,
						"rect" : [ 0.0, 44.0, 95.0, 116.0 ],
						"bgcolor" : [ 1.0, 1.0, 1.0, 0.0 ],
						"bglocked" : 0,
						"openinpresentation" : 1,
						"default_fontsize" : 12.0,
						"default_fontface" : 0,
						"default_fontname" : "Arial",
						"gridonopen" : 0,
						"gridsize" : [ 15.0, 15.0 ],
						"gridsnaponopen" : 0,
						"statusbarvisible" : 1,
						"toolbarvisible" : 1,
						"boxanimatetime" : 200,
						"imprint" : 0,
						"enablehscroll" : 1,
						"enablevscroll" : 1,
						"devicewidth" : 0.0,
						"description" : "",
						"digest" : "",
						"tags" : "",
						"boxes" : [ 							{
								"box" : 								{
									"activebgcolor" : [ 0.0, 0.019608, 0.078431, 0.4 ],
									"activebgoncolor" : [ 0.0, 0.870117, 0.103208, 1.0 ],
									"id" : "obj-23",
									"ignoreclick" : 1,
									"maxclass" : "live.button",
									"numinlets" : 1,
									"numoutlets" : 1,
									"outlettype" : [ "" ],
									"parameter_enable" : 1,
									"patching_rect" : [ 757.5, 709.0, 15.0, 15.0 ],
									"presentation" : 1,
									"presentation_rect" : [ 79.134384, 100.0, 9.277222, 9.795346 ],
									"saved_attribute_attributes" : 									{
										"valueof" : 										{
											"parameter_enum" : [ "off", "on" ],
											"parameter_longname" : "PitchActivityLED[2]",
											"parameter_mmax" : 1.0,
											"parameter_type" : 2,
											"parameter_invisible" : 2,
											"parameter_shortname" : "PitchActivityLED"
										}

									}
,
									"varname" : "PitchActivityLED[3]"
								}

							}
, 							{
								"box" : 								{
									"activebgcolor" : [ 0.0, 0.019608, 0.078431, 0.4 ],
									"activebgoncolor" : [ 0.0, 0.870117, 0.103208, 1.0 ],
									"id" : "obj-22",
									"ignoreclick" : 1,
									"maxclass" : "live.button",
									"numinlets" : 1,
									"numoutlets" : 1,
									"outlettype" : [ "" ],
									"parameter_enable" : 1,
									"patching_rect" : [ 640.5, 713.0, 15.0, 15.0 ],
									"presentation" : 1,
									"presentation_rect" : [ 31.634384, 100.0, 9.277222, 9.795346 ],
									"saved_attribute_attributes" : 									{
										"valueof" : 										{
											"parameter_enum" : [ "off", "on" ],
											"parameter_longname" : "PitchActivityLED[1]",
											"parameter_mmax" : 1.0,
											"parameter_type" : 2,
											"parameter_invisible" : 2,
											"parameter_shortname" : "PitchActivityLED"
										}

									}
,
									"varname" : "PitchActivityLED[2]"
								}

							}
, 							{
								"box" : 								{
									"fontname" : "Arial Bold",
									"fontsize" : 9.0,
									"frgb" : 0.0,
									"id" : "obj-20",
									"maxclass" : "comment",
									"numinlets" : 1,
									"numoutlets" : 0,
									"patching_rect" : [ 697.5, 709.0, 41.0, 17.0 ],
									"presentation" : 1,
									"presentation_rect" : [ 48.5, 97.0, 33.0, 17.0 ],
									"text" : "HIGH",
									"textcolor" : [ 1.0, 1.0, 1.0, 1.0 ]
								}

							}
, 							{
								"box" : 								{
									"comment" : "",
									"id" : "obj-11",
									"maxclass" : "outlet",
									"numinlets" : 1,
									"numoutlets" : 0,
									"patching_rect" : [ 672.5, 709.0, 25.0, 25.0 ],
									"presentation_rect" : [ 697.5, 710.0, 0.0, 0.0 ]
								}

							}
, 							{
								"box" : 								{
									"comment" : "",
									"id" : "obj-10",
									"maxclass" : "outlet",
									"numinlets" : 1,
									"numoutlets" : 0,
									"patching_rect" : [ 564.5, 709.0, 25.0, 25.0 ]
								}

							}
, 							{
								"box" : 								{
									"fontname" : "Arial",
									"fontsize" : 12.0,
									"id" : "obj-9",
									"maxclass" : "newobj",
									"numinlets" : 7,
									"numoutlets" : 1,
									"outlettype" : [ "int" ],
									"patching_rect" : [ 672.5, 674.0, 100.0, 20.0 ],
									"presentation_rect" : [ 696.5, 672.0, 0.0, 0.0 ],
									"text" : "midiformat"
								}

							}
, 							{
								"box" : 								{
									"fontname" : "Arial",
									"fontsize" : 12.0,
									"id" : "obj-8",
									"maxclass" : "newobj",
									"numinlets" : 2,
									"numoutlets" : 1,
									"outlettype" : [ "" ],
									"patching_rect" : [ 672.5, 600.0, 48.0, 20.0 ],
									"presentation_rect" : [ 619.5, 600.0, 0.0, 0.0 ],
									"text" : "pack i i"
								}

							}
, 							{
								"box" : 								{
									"fontname" : "Arial",
									"fontsize" : 12.0,
									"id" : "obj-7",
									"maxclass" : "newobj",
									"numinlets" : 2,
									"numoutlets" : 1,
									"outlettype" : [ "" ],
									"patching_rect" : [ 564.5, 600.0, 48.0, 20.0 ],
									"text" : "pack i i"
								}

							}
, 							{
								"box" : 								{
									"fontname" : "Arial",
									"fontsize" : 12.0,
									"id" : "obj-6",
									"maxclass" : "newobj",
									"numinlets" : 7,
									"numoutlets" : 1,
									"outlettype" : [ "int" ],
									"patching_rect" : [ 564.5, 674.0, 100.0, 20.0 ],
									"text" : "midiformat"
								}

							}
, 							{
								"box" : 								{
									"activedialcolor" : [ 0.0, 0.870117, 0.103208, 1.0 ],
									"activeneedlecolor" : [ 1.0, 1.0, 1.0, 0.7 ],
									"id" : "obj-4",
									"maxclass" : "live.dial",
									"numinlets" : 1,
									"numoutlets" : 2,
									"outlettype" : [ "", "float" ],
									"parameter_enable" : 1,
									"patching_rect" : [ 611.5, 435.769989, 44.0, 47.0 ],
									"presentation" : 1,
									"presentation_rect" : [ 3.638611, 42.481842, 44.0, 47.0 ],
									"saved_attribute_attributes" : 									{
										"valueof" : 										{
											"parameter_longname" : "Split",
											"parameter_unitstyle" : 8,
											"parameter_initial" : [ 60 ],
											"parameter_type" : 1,
											"parameter_initial_enable" : 1,
											"parameter_shortname" : "Split"
										}

									}
,
									"textcolor" : [ 1.0, 1.0, 1.0, 0.7 ],
									"varname" : "Split"
								}

							}
, 							{
								"box" : 								{
									"fontname" : "Arial",
									"fontsize" : 12.0,
									"id" : "obj-1",
									"maxclass" : "newobj",
									"numinlets" : 3,
									"numoutlets" : 2,
									"outlettype" : [ "int", "int" ],
									"patching_rect" : [ 564.5, 552.0, 127.0, 20.0 ],
									"text" : "split 60"
								}

							}
, 							{
								"box" : 								{
									"activebgcolor" : [ 0.0, 0.019608, 0.078431, 0.4 ],
									"activebgoncolor" : [ 0.0, 0.870117, 0.103208, 1.0 ],
									"id" : "obj-3",
									"ignoreclick" : 1,
									"maxclass" : "live.button",
									"numinlets" : 1,
									"numoutlets" : 1,
									"outlettype" : [ "" ],
									"parameter_enable" : 1,
									"patching_rect" : [ 679.0, 347.0, 15.0, 15.0 ],
									"presentation" : 1,
									"presentation_rect" : [ 25.0, 3.0, 9.277222, 9.795346 ],
									"saved_attribute_attributes" : 									{
										"valueof" : 										{
											"parameter_enum" : [ "off", "on" ],
											"parameter_longname" : "PitchActivityLED[6]",
											"parameter_mmax" : 1.0,
											"parameter_type" : 2,
											"parameter_invisible" : 2,
											"parameter_shortname" : "PitchActivityLED"
										}

									}
,
									"varname" : "PitchActivityLED[1]"
								}

							}
, 							{
								"box" : 								{
									"fontname" : "Arial",
									"fontsize" : 12.0,
									"id" : "obj-2",
									"maxclass" : "newobj",
									"numinlets" : 1,
									"numoutlets" : 7,
									"outlettype" : [ "", "", "", "int", "int", "int", "int" ],
									"patching_rect" : [ 564.5, 349.0, 100.0, 20.0 ],
									"text" : "midiparse"
								}

							}
, 							{
								"box" : 								{
									"fontname" : "Arial Bold",
									"fontsize" : 9.0,
									"frgb" : 0.0,
									"id" : "obj-19",
									"maxclass" : "comment",
									"numinlets" : 1,
									"numoutlets" : 0,
									"patching_rect" : [ 2.0, -2.5, 41.0, 17.0 ],
									"presentation" : 1,
									"presentation_rect" : [ 0.0, 0.0, 29.0, 17.0 ],
									"text" : "MIDI",
									"textcolor" : [ 1.0, 1.0, 1.0, 1.0 ]
								}

							}
, 							{
								"box" : 								{
									"comment" : "",
									"id" : "obj-13",
									"maxclass" : "inlet",
									"numinlets" : 0,
									"numoutlets" : 1,
									"outlettype" : [ "" ],
									"patching_rect" : [ 564.5, 232.5, 25.0, 25.0 ]
								}

							}
, 							{
								"box" : 								{
									"fontname" : "Arial",
									"fontsize" : 12.0,
									"id" : "obj-12",
									"maxclass" : "newobj",
									"numinlets" : 1,
									"numoutlets" : 2,
									"outlettype" : [ "int", "int" ],
									"patching_rect" : [ 564.5, 387.0, 156.0, 20.0 ],
									"text" : "unpack i i"
								}

							}
, 							{
								"box" : 								{
									"fontname" : "Arial Bold",
									"fontsize" : 9.0,
									"frgb" : 0.0,
									"id" : "obj-5",
									"maxclass" : "comment",
									"numinlets" : 1,
									"numoutlets" : 0,
									"patching_rect" : [ 594.5, 713.0, 41.0, 17.0 ],
									"presentation" : 1,
									"presentation_rect" : [ 2.0, 96.5, 31.0, 17.0 ],
									"text" : "LOW",
									"textcolor" : [ 1.0, 1.0, 1.0, 1.0 ]
								}

							}
, 							{
								"box" : 								{
									"fontname" : "Arial Bold",
									"fontsize" : 9.0,
									"frgb" : 0.0,
									"id" : "obj-16",
									"maxclass" : "comment",
									"numinlets" : 1,
									"numoutlets" : 0,
									"patching_rect" : [ 892.5, 552.883911, 51.0, 17.0 ],
									"presentation" : 1,
									"presentation_rect" : [ 2.5, 18.818798, 48.0, 17.0 ],
									"text" : "SPLITTR",
									"textcolor" : [ 1.0, 1.0, 1.0, 1.0 ]
								}

							}
, 							{
								"box" : 								{
									"fontname" : "Arial",
									"fontsize" : 12.0,
									"id" : "obj-17",
									"maxclass" : "newobj",
									"numinlets" : 1,
									"numoutlets" : 4,
									"outlettype" : [ "", "", "", "" ],
									"patching_rect" : [ 910.75, 510.0, 59.5, 20.0 ],
									"restore" : 									{
										"PitchActivityLED[1]" : [ 0.0 ],
										"PitchActivityLED[2]" : [ 0.0 ],
										"PitchActivityLED[3]" : [ 0.0 ],
										"Split" : [ 0.0 ]
									}
,
									"text" : "autopattr",
									"varname" : "u447001694"
								}

							}
, 							{
								"box" : 								{
									"bgcolor" : [ 0.0, 0.0, 0.0, 1.0 ],
									"id" : "obj-14",
									"maxclass" : "panel",
									"numinlets" : 1,
									"numoutlets" : 0,
									"patching_rect" : [ 15.0, 149.470001, 128.0, 128.0 ],
									"presentation" : 1,
									"presentation_rect" : [ 0.0, 0.0, 283.268768, 17.0 ],
									"rounded" : 0
								}

							}
, 							{
								"box" : 								{
									"bgcolor" : [ 0.0, 0.0, 0.0, 1.0 ],
									"id" : "obj-15",
									"maxclass" : "panel",
									"numinlets" : 1,
									"numoutlets" : 0,
									"patching_rect" : [ 175.236206, 15.0, 128.0, 128.0 ],
									"presentation" : 1,
									"presentation_rect" : [ 0.0, 97.0, 283.268768, 35.433025 ],
									"rounded" : 0
								}

							}
, 							{
								"box" : 								{
									"bgcolor" : [ 0.137255, 0.145098, 0.160784, 0.65 ],
									"id" : "obj-18",
									"maxclass" : "panel",
									"numinlets" : 1,
									"numoutlets" : 0,
									"patching_rect" : [ 21.736206, 15.0, 128.0, 128.0 ],
									"presentation" : 1,
									"presentation_rect" : [ 0.0, 37.0, 283.268768, 71.584457 ],
									"rounded" : 0
								}

							}
, 							{
								"box" : 								{
									"bgcolor" : [ 0.367404, 0.389405, 0.430238, 1.0 ],
									"id" : "obj-21",
									"maxclass" : "panel",
									"numinlets" : 1,
									"numoutlets" : 0,
									"patching_rect" : [ 161.562378, 149.470001, 128.0, 128.0 ],
									"presentation" : 1,
									"presentation_rect" : [ 0.0, 17.0, 283.268768, 116.114227 ],
									"rounded" : 0
								}

							}
 ],
						"lines" : [ 							{
								"patchline" : 								{
									"destination" : [ "obj-7", 0 ],
									"disabled" : 0,
									"hidden" : 0,
									"source" : [ "obj-1", 0 ]
								}

							}
, 							{
								"patchline" : 								{
									"destination" : [ "obj-8", 0 ],
									"disabled" : 0,
									"hidden" : 0,
									"source" : [ "obj-1", 1 ]
								}

							}
, 							{
								"patchline" : 								{
									"destination" : [ "obj-1", 0 ],
									"disabled" : 0,
									"hidden" : 0,
									"source" : [ "obj-12", 0 ]
								}

							}
, 							{
								"patchline" : 								{
									"destination" : [ "obj-7", 1 ],
									"disabled" : 0,
									"hidden" : 0,
									"source" : [ "obj-12", 1 ]
								}

							}
, 							{
								"patchline" : 								{
									"destination" : [ "obj-8", 1 ],
									"disabled" : 0,
									"hidden" : 0,
									"source" : [ "obj-12", 1 ]
								}

							}
, 							{
								"patchline" : 								{
									"destination" : [ "obj-2", 0 ],
									"disabled" : 0,
									"hidden" : 0,
									"source" : [ "obj-13", 0 ]
								}

							}
, 							{
								"patchline" : 								{
									"destination" : [ "obj-3", 0 ],
									"disabled" : 0,
									"hidden" : 0,
									"source" : [ "obj-13", 0 ]
								}

							}
, 							{
								"patchline" : 								{
									"destination" : [ "obj-12", 0 ],
									"disabled" : 0,
									"hidden" : 0,
									"source" : [ "obj-2", 0 ]
								}

							}
, 							{
								"patchline" : 								{
									"destination" : [ "obj-1", 2 ],
									"disabled" : 0,
									"hidden" : 0,
									"source" : [ "obj-4", 0 ]
								}

							}
, 							{
								"patchline" : 								{
									"destination" : [ "obj-10", 0 ],
									"disabled" : 0,
									"hidden" : 0,
									"source" : [ "obj-6", 0 ]
								}

							}
, 							{
								"patchline" : 								{
									"destination" : [ "obj-22", 0 ],
									"disabled" : 0,
									"hidden" : 0,
									"source" : [ "obj-7", 0 ]
								}

							}
, 							{
								"patchline" : 								{
									"destination" : [ "obj-6", 0 ],
									"disabled" : 0,
									"hidden" : 0,
									"source" : [ "obj-7", 0 ]
								}

							}
, 							{
								"patchline" : 								{
									"destination" : [ "obj-23", 0 ],
									"disabled" : 0,
									"hidden" : 0,
									"source" : [ "obj-8", 0 ]
								}

							}
, 							{
								"patchline" : 								{
									"destination" : [ "obj-9", 0 ],
									"disabled" : 0,
									"hidden" : 0,
									"source" : [ "obj-8", 0 ]
								}

							}
, 							{
								"patchline" : 								{
									"destination" : [ "obj-11", 0 ],
									"disabled" : 0,
									"hidden" : 0,
									"source" : [ "obj-9", 0 ]
								}

							}
 ]
					}
,
					"patching_rect" : [ 0.0, 0.0, 95.0, 116.0 ],
					"varname" : "MIDI_to_signal"
				}

			}
 ],
		"lines" : [  ],
		"parameters" : 		{
			"obj-12::obj-22" : [ "PitchActivityLED[1]", "PitchActivityLED", 0 ],
			"obj-12::obj-4" : [ "Split", "Split", 0 ],
			"obj-12::obj-3" : [ "PitchActivityLED[6]", "PitchActivityLED", 0 ],
			"obj-12::obj-23" : [ "PitchActivityLED[2]", "PitchActivityLED", 0 ]
		}
,
		"dependency_cache" : [  ]
	}

}
