{
	"patcher" : 	{
		"fileversion" : 1,
		"appversion" : 		{
			"major" : 7,
			"minor" : 0,
			"revision" : 2,
			"architecture" : "x64",
			"modernui" : 1
		}
,
		"rect" : [ 57.0, 79.0, 937.0, 658.0 ],
		"bglocked" : 0,
		"openinpresentation" : 0,
		"default_fontsize" : 12.0,
		"default_fontface" : 0,
		"default_fontname" : "Arial",
		"gridonopen" : 1,
		"gridsize" : [ 15.0, 15.0 ],
		"gridsnaponopen" : 1,
		"objectsnaponopen" : 1,
		"statusbarvisible" : 2,
		"toolbarvisible" : 1,
		"lefttoolbarpinned" : 0,
		"toptoolbarpinned" : 0,
		"righttoolbarpinned" : 0,
		"bottomtoolbarpinned" : 0,
		"toolbars_unpinned_last_save" : 0,
		"tallnewobj" : 0,
		"boxanimatetime" : 200,
		"enablehscroll" : 1,
		"enablevscroll" : 1,
		"devicewidth" : 0.0,
		"description" : "",
		"digest" : "",
		"tags" : "",
		"style" : "",
		"subpatcher_template" : "",
		"showrootpatcherontab" : 0,
		"showontab" : 0,
		"boxes" : [ 			{
				"box" : 				{
					"fontname" : "Arial",
					"fontsize" : 12.0,
					"id" : "obj-21",
					"maxclass" : "message",
					"numinlets" : 2,
					"numoutlets" : 1,
					"outlettype" : [ "" ],
					"patching_rect" : [ 740.0, 291.0, 244.0, 22.0 ],
					"style" : "",
					"text" : "window size 20 60 1023 768, window exec"
				}

			}
, 			{
				"box" : 				{
					"fontname" : "Arial",
					"fontsize" : 12.0,
					"id" : "obj-20",
					"maxclass" : "message",
					"numinlets" : 2,
					"numoutlets" : 1,
					"outlettype" : [ "" ],
					"patching_rect" : [ 740.0, 424.0, 182.0, 22.0 ],
					"style" : "",
					"text" : "window size 20 60 922 728"
				}

			}
, 			{
				"box" : 				{
					"fontname" : "Arial",
					"fontsize" : 12.0,
					"id" : "obj-17",
					"maxclass" : "message",
					"numinlets" : 2,
					"numoutlets" : 1,
					"outlettype" : [ "" ],
					"patching_rect" : [ 765.0, 327.0, 94.0, 22.0 ],
					"style" : "",
					"text" : "window getsize"
				}

			}
, 			{
				"box" : 				{
					"fontname" : "Arial",
					"fontsize" : 12.0,
					"id" : "obj-13",
					"maxclass" : "newobj",
					"numinlets" : 1,
					"numoutlets" : 2,
					"outlettype" : [ "", "" ],
					"patching_rect" : [ 740.0, 369.0, 71.0, 22.0 ],
					"save" : [ "#N", "thispatcher", ";", "#Q", "end", ";" ],
					"style" : "",
					"text" : "thispatcher"
				}

			}
, 			{
				"box" : 				{
					"fontname" : "Arial",
					"fontsize" : 12.0,
					"id" : "obj-2",
					"maxclass" : "newobj",
					"numinlets" : 0,
					"numoutlets" : 0,
					"patcher" : 					{
						"fileversion" : 1,
						"appversion" : 						{
							"major" : 7,
							"minor" : 0,
							"revision" : 2,
							"architecture" : "x64",
							"modernui" : 1
						}
,
						"rect" : [ 57.0, 105.0, 937.0, 632.0 ],
						"bgcolor" : [ 0.88, 0.88, 0.88, 1.0 ],
						"bglocked" : 0,
						"openinpresentation" : 0,
						"default_fontsize" : 13.0,
						"default_fontface" : 0,
						"default_fontname" : "Arial",
						"gridonopen" : 1,
						"gridsize" : [ 5.0, 5.0 ],
						"gridsnaponopen" : 1,
						"objectsnaponopen" : 1,
						"statusbarvisible" : 2,
						"toolbarvisible" : 1,
						"lefttoolbarpinned" : 0,
						"toptoolbarpinned" : 0,
						"righttoolbarpinned" : 0,
						"bottomtoolbarpinned" : 0,
						"toolbars_unpinned_last_save" : 0,
						"tallnewobj" : 0,
						"boxanimatetime" : 200,
						"enablehscroll" : 1,
						"enablevscroll" : 1,
						"devicewidth" : 0.0,
						"description" : "",
						"digest" : "",
						"tags" : "",
						"style" : "",
						"subpatcher_template" : "",
						"showontab" : 1,
						"boxes" : [ 							{
								"box" : 								{
									"bgmode" : 0,
									"border" : 0,
									"clickthrough" : 0,
									"enablehscroll" : 0,
									"enablevscroll" : 0,
									"extract" : 1,
									"id" : "obj-22",
									"lockeddragscroll" : 0,
									"maxclass" : "bpatcher",
									"name" : "bp.LFO.maxpat",
									"numinlets" : 0,
									"numoutlets" : 5,
									"offset" : [ 0.0, 0.0 ],
									"outlettype" : [ "signal", "signal", "signal", "signal", "signal" ],
									"patching_rect" : [ 14.0, 122.0, 137.0, 116.0 ],
									"varname" : "bp.LFO",
									"viewvisibility" : 1
								}

							}
, 							{
								"box" : 								{
									"bgmode" : 0,
									"border" : 0,
									"clickthrough" : 0,
									"embed" : 1,
									"enablehscroll" : 0,
									"enablevscroll" : 0,
									"id" : "obj-80",
									"lockeddragscroll" : 0,
									"maxclass" : "bpatcher",
									"numinlets" : 1,
									"numoutlets" : 1,
									"offset" : [ 0.0, 0.0 ],
									"outlettype" : [ "" ],
									"patcher" : 									{
										"fileversion" : 1,
										"appversion" : 										{
											"major" : 7,
											"minor" : 0,
											"revision" : 2,
											"architecture" : "x64",
											"modernui" : 1
										}
,
										"rect" : [ 71.0, 360.0, 197.0, 116.0 ],
										"bgcolor" : [ 1.0, 1.0, 1.0, 0.0 ],
										"bglocked" : 0,
										"openinpresentation" : 1,
										"default_fontsize" : 12.0,
										"default_fontface" : 0,
										"default_fontname" : "Arial",
										"gridonopen" : 1,
										"gridsize" : [ 15.0, 15.0 ],
										"gridsnaponopen" : 1,
										"objectsnaponopen" : 1,
										"statusbarvisible" : 1,
										"toolbarvisible" : 1,
										"lefttoolbarpinned" : 0,
										"toptoolbarpinned" : 0,
										"righttoolbarpinned" : 0,
										"bottomtoolbarpinned" : 0,
										"toolbars_unpinned_last_save" : 0,
										"tallnewobj" : 0,
										"boxanimatetime" : 200,
										"enablehscroll" : 1,
										"enablevscroll" : 1,
										"devicewidth" : 0.0,
										"description" : "",
										"digest" : "",
										"tags" : "",
										"style" : "",
										"subpatcher_template" : "",
										"boxes" : [ 											{
												"box" : 												{
													"bgcolor" : [ 0.913022, 0.913022, 0.913022, 0.0 ],
													"blinkcolor" : [ 1.0, 0.548455, 0.000076, 1.0 ],
													"id" : "obj-30",
													"maxclass" : "button",
													"numinlets" : 1,
													"numoutlets" : 1,
													"outlettype" : [ "bang" ],
													"outlinecolor" : [ 0.0, 0.0, 0.0, 1.0 ],
													"patching_rect" : [ 588.25, 881.14801, 20.0, 20.0 ],
													"presentation" : 1,
													"presentation_rect" : [ 34.0, 4.0, 10.0, 10.0 ],
													"style" : ""
												}

											}
, 											{
												"box" : 												{
													"id" : "obj-9",
													"maxclass" : "comment",
													"numinlets" : 1,
													"numoutlets" : 0,
													"patching_rect" : [ 25.25, 80.64679, 297.0, 20.0 ],
													"style" : "",
													"text" : "## Display the value of a signal on an Arc LED ring ##"
												}

											}
, 											{
												"box" : 												{
													"fontname" : "Arial",
													"fontsize" : 12.0,
													"id" : "obj-2",
													"maxclass" : "newobj",
													"numinlets" : 1,
													"numoutlets" : 4,
													"outlettype" : [ "", "", "", "" ],
													"patching_rect" : [ 25.25, 115.64679, 59.5, 22.0 ],
													"restore" : 													{
														"Mute" : [ 0.0 ],
														"Mute[1]" : [ 0.0 ],
														"Range" : [ 1.0 ],
														"SampleRate" : [ 10.0 ],
														"live.tab[1]" : [ 0.0 ]
													}
,
													"style" : "",
													"text" : "autopattr",
													"varname" : "u639002531"
												}

											}
, 											{
												"box" : 												{
													"fontname" : "Arial",
													"fontsize" : 12.0,
													"id" : "obj-91",
													"maxclass" : "newobj",
													"numinlets" : 1,
													"numoutlets" : 3,
													"outlettype" : [ "", "int", "int" ],
													"patching_rect" : [ 632.0, 409.776001, 50.0, 22.0 ],
													"style" : "",
													"text" : "change"
												}

											}
, 											{
												"box" : 												{
													"fontname" : "Arial Bold",
													"fontsize" : 9.0,
													"id" : "obj-90",
													"maxclass" : "comment",
													"numinlets" : 1,
													"numoutlets" : 0,
													"patching_rect" : [ 575.101807, 36.534805, 48.0, 17.0 ],
													"presentation" : 1,
													"presentation_rect" : [ 0.0, 0.0, 37.0, 17.0 ],
													"style" : "",
													"text" : "Signal",
													"textcolor" : [ 1.0, 1.0, 1.0, 1.0 ]
												}

											}
, 											{
												"box" : 												{
													"fontname" : "Arial Bold",
													"fontsize" : 9.0,
													"id" : "obj-89",
													"maxclass" : "comment",
													"numinlets" : 1,
													"numoutlets" : 0,
													"patching_rect" : [ 696.0, 8.534805, 48.0, 17.0 ],
													"presentation" : 1,
													"presentation_rect" : [ 108.634384, 73.0, 38.0, 17.0 ],
													"style" : "",
													"text" : "Rate",
													"textcolor" : [ 1.0, 1.0, 1.0, 1.0 ]
												}

											}
, 											{
												"box" : 												{
													"fontname" : "Arial Bold",
													"fontsize" : 9.0,
													"id" : "obj-88",
													"maxclass" : "comment",
													"numinlets" : 1,
													"numoutlets" : 0,
													"patching_rect" : [ 707.5, 343.776001, 38.0, 17.0 ],
													"presentation" : 1,
													"presentation_rect" : [ 108.634384, 46.087891, 38.0, 17.0 ],
													"style" : "",
													"text" : "Range",
													"textcolor" : [ 1.0, 1.0, 1.0, 1.0 ]
												}

											}
, 											{
												"box" : 												{
													"activebgcolor" : [ 0.0, 0.0, 0.0, 1.0 ],
													"id" : "obj-87",
													"maxclass" : "live.numbox",
													"numinlets" : 1,
													"numoutlets" : 2,
													"outlettype" : [ "", "float" ],
													"parameter_enable" : 1,
													"patching_rect" : [ 707.5, 372.552002, 41.0, 15.0 ],
													"presentation" : 1,
													"presentation_rect" : [ 145.432007, 46.087891, 43.0401, 15.0 ],
													"saved_attribute_attributes" : 													{
														"valueof" : 														{
															"parameter_longname" : "Range[3]",
															"parameter_shortname" : "Range",
															"parameter_type" : 0,
															"parameter_mmin" : 1.0,
															"parameter_mmax" : 64.0,
															"parameter_initial_enable" : 1,
															"parameter_initial" : [ 1 ],
															"parameter_unitstyle" : 0
														}

													}
,
													"textcolor" : [ 1.0, 0.548455, 0.000076, 1.0 ],
													"varname" : "Range"
												}

											}
, 											{
												"box" : 												{
													"fontname" : "Arial",
													"fontsize" : 12.0,
													"id" : "obj-86",
													"maxclass" : "newobj",
													"numinlets" : 2,
													"numoutlets" : 1,
													"outlettype" : [ "int" ],
													"patching_rect" : [ 632.0, 320.0, 32.5, 22.0 ],
													"style" : "",
													"text" : "i"
												}

											}
, 											{
												"box" : 												{
													"fontname" : "Arial",
													"fontsize" : 12.0,
													"id" : "obj-85",
													"maxclass" : "newobj",
													"numinlets" : 2,
													"numoutlets" : 1,
													"outlettype" : [ "float" ],
													"patching_rect" : [ 632.0, 275.112, 42.0, 22.0 ],
													"style" : "",
													"text" : "* 12.6"
												}

											}
, 											{
												"box" : 												{
													"fontname" : "Arial",
													"fontsize" : 12.0,
													"id" : "obj-82",
													"maxclass" : "newobj",
													"numinlets" : 2,
													"numoutlets" : 1,
													"outlettype" : [ "int" ],
													"patching_rect" : [ 529.003235, 320.0, 32.5, 22.0 ],
													"style" : "",
													"text" : "i"
												}

											}
, 											{
												"box" : 												{
													"fontname" : "Arial",
													"fontsize" : 12.0,
													"id" : "obj-83",
													"maxclass" : "newobj",
													"numinlets" : 2,
													"numoutlets" : 1,
													"outlettype" : [ "float" ],
													"patching_rect" : [ 529.003235, 275.112, 35.0, 22.0 ],
													"style" : "",
													"text" : "* 6.3"
												}

											}
, 											{
												"box" : 												{
													"fontname" : "Arial",
													"fontsize" : 12.0,
													"id" : "obj-84",
													"maxclass" : "newobj",
													"numinlets" : 2,
													"numoutlets" : 1,
													"outlettype" : [ "float" ],
													"patching_rect" : [ 529.003235, 238.53479, 32.5, 22.0 ],
													"style" : "",
													"text" : "+ 5."
												}

											}
, 											{
												"box" : 												{
													"fontname" : "Arial",
													"fontsize" : 12.0,
													"id" : "obj-81",
													"maxclass" : "newobj",
													"numinlets" : 2,
													"numoutlets" : 2,
													"outlettype" : [ "", "" ],
													"patching_rect" : [ 529.003235, 192.0, 121.996765, 22.0 ],
													"style" : "",
													"text" : "gate 2 1"
												}

											}
, 											{
												"box" : 												{
													"fontname" : "Arial",
													"fontsize" : 12.0,
													"id" : "obj-80",
													"maxclass" : "newobj",
													"numinlets" : 2,
													"numoutlets" : 1,
													"outlettype" : [ "int" ],
													"patching_rect" : [ 696.0, 71.2948, 32.5, 22.0 ],
													"style" : "",
													"text" : "i"
												}

											}
, 											{
												"box" : 												{
													"comment" : "",
													"id" : "obj-77",
													"maxclass" : "inlet",
													"numinlets" : 0,
													"numoutlets" : 1,
													"outlettype" : [ "signal" ],
													"patching_rect" : [ 632.0, 36.534805, 25.0, 25.0 ],
													"style" : ""
												}

											}
, 											{
												"box" : 												{
													"activebgcolor" : [ 0.0, 0.0, 0.0, 1.0 ],
													"id" : "obj-75",
													"maxclass" : "live.numbox",
													"numinlets" : 1,
													"numoutlets" : 2,
													"outlettype" : [ "", "float" ],
													"parameter_enable" : 1,
													"patching_rect" : [ 696.0, 27.534805, 41.0, 15.0 ],
													"presentation" : 1,
													"presentation_rect" : [ 145.432007, 73.0, 43.0401, 15.0 ],
													"saved_attribute_attributes" : 													{
														"valueof" : 														{
															"parameter_longname" : "SampleRate[3]",
															"parameter_shortname" : "SampleRate",
															"parameter_type" : 0,
															"parameter_mmin" : 1.0,
															"parameter_mmax" : 1000.0,
															"parameter_initial_enable" : 1,
															"parameter_initial" : [ 10 ],
															"parameter_unitstyle" : 0
														}

													}
,
													"textcolor" : [ 1.0, 0.548455, 0.000076, 1.0 ],
													"varname" : "SampleRate"
												}

											}
, 											{
												"box" : 												{
													"fontname" : "Arial",
													"fontsize" : 12.0,
													"id" : "obj-74",
													"maxclass" : "newobj",
													"numinlets" : 2,
													"numoutlets" : 1,
													"outlettype" : [ "float" ],
													"patching_rect" : [ 632.0, 115.64679, 83.0, 22.0 ],
													"style" : "",
													"text" : "snapshot~ 10"
												}

											}
, 											{
												"box" : 												{
													"fontname" : "Arial",
													"fontsize" : 12.0,
													"id" : "obj-71",
													"maxclass" : "newobj",
													"numinlets" : 2,
													"numoutlets" : 1,
													"outlettype" : [ "int" ],
													"patching_rect" : [ 529.003235, 141.64679, 32.5, 22.0 ],
													"style" : "",
													"text" : "+ 1"
												}

											}
, 											{
												"box" : 												{
													"activebgcolor" : [ 0.572549, 0.615686, 0.658824, 0.0 ],
													"activebgoncolor" : [ 1.0, 0.548455, 0.000076, 1.0 ],
													"activetextcolor" : [ 1.0, 1.0, 1.0, 0.57 ],
													"activetextoncolor" : [ 0.0, 0.019608, 0.078431, 1.0 ],
													"bgcolor" : [ 0.101961, 0.101961, 0.101961, 0.78 ],
													"bordercolor" : [ 0.0, 0.019608, 0.078431, 0.37 ],
													"id" : "obj-70",
													"maxclass" : "live.text",
													"numinlets" : 1,
													"numoutlets" : 2,
													"outlettype" : [ "", "" ],
													"parameter_enable" : 1,
													"patching_rect" : [ 529.003235, 88.2948, 66.0, 20.0 ],
													"presentation" : 1,
													"presentation_rect" : [ 7.911957, 73.0, 94.0401, 14.764645 ],
													"saved_attribute_attributes" : 													{
														"valueof" : 														{
															"parameter_longname" : "Mute[10]",
															"parameter_shortname" : "Mute",
															"parameter_type" : 2,
															"parameter_mmax" : 1.0,
															"parameter_enum" : [ "val1", "val2" ],
															"parameter_initial" : [ 0.0 ],
															"parameter_defer" : 1
														}

													}
,
													"text" : "bipolar",
													"textcolor" : [ 1.0, 1.0, 1.0, 1.0 ],
													"texton" : "unipolar",
													"varname" : "Mute[1]"
												}

											}
, 											{
												"box" : 												{
													"fontname" : "Arial",
													"fontsize" : 12.0,
													"id" : "obj-37",
													"maxclass" : "newobj",
													"numinlets" : 1,
													"numoutlets" : 1,
													"outlettype" : [ "" ],
													"patching_rect" : [ 504.0, 541.0, 74.0, 22.0 ],
													"style" : "",
													"text" : "prepend set"
												}

											}
, 											{
												"box" : 												{
													"activebgoncolor" : [ 1.0, 0.548455, 0.000076, 1.0 ],
													"id" : "obj-36",
													"maxclass" : "live.tab",
													"num_lines_patching" : 1,
													"num_lines_presentation" : 1,
													"numinlets" : 1,
													"numoutlets" : 3,
													"outlettype" : [ "", "", "float" ],
													"parameter_enable" : 1,
													"patching_rect" : [ 504.0, 496.35321, 87.642456, 20.0 ],
													"presentation" : 1,
													"presentation_rect" : [ 7.911957, 46.087891, 94.0401, 20.0 ],
													"saved_attribute_attributes" : 													{
														"valueof" : 														{
															"parameter_longname" : "live.tab[7]",
															"parameter_shortname" : "live.tab",
															"parameter_type" : 2,
															"parameter_enum" : [ "1", "2", "3", "4" ],
															"parameter_unitstyle" : 0
														}

													}
,
													"varname" : "live.tab[1]"
												}

											}
, 											{
												"box" : 												{
													"fontname" : "Arial",
													"fontsize" : 13.0,
													"id" : "obj-29",
													"maxclass" : "newobj",
													"numinlets" : 1,
													"numoutlets" : 1,
													"outlettype" : [ "" ],
													"patching_rect" : [ 632.0, 666.888062, 70.0, 23.0 ],
													"style" : "",
													"text" : "prepend 0"
												}

											}
, 											{
												"box" : 												{
													"fontname" : "Arial",
													"fontsize" : 12.0,
													"id" : "obj-28",
													"maxclass" : "newobj",
													"numinlets" : 1,
													"numoutlets" : 3,
													"outlettype" : [ "bang", "int", "int" ],
													"patching_rect" : [ 707.5, 409.776001, 131.0, 22.0 ],
													"style" : "",
													"text" : "t b i i"
												}

											}
, 											{
												"box" : 												{
													"fontname" : "Arial",
													"fontsize" : 12.0,
													"id" : "obj-26",
													"maxclass" : "newobj",
													"numinlets" : 2,
													"numoutlets" : 1,
													"outlettype" : [ "int" ],
													"patching_rect" : [ 632.0, 482.64801, 32.5, 22.0 ],
													"style" : "",
													"text" : "i"
												}

											}
, 											{
												"box" : 												{
													"fontname" : "Arial",
													"fontsize" : 12.0,
													"id" : "obj-22",
													"maxclass" : "newobj",
													"numinlets" : 2,
													"numoutlets" : 1,
													"outlettype" : [ "int" ],
													"patching_rect" : [ 703.5, 482.64801, 32.5, 22.0 ],
													"style" : "",
													"text" : "- 1"
												}

											}
, 											{
												"box" : 												{
													"fontname" : "Arial",
													"fontsize" : 13.0,
													"id" : "obj-60",
													"maxclass" : "newobj",
													"numinlets" : 2,
													"numoutlets" : 1,
													"outlettype" : [ "int" ],
													"patching_rect" : [ 748.0, 581.888062, 27.0, 23.0 ],
													"style" : "",
													"text" : "- 1"
												}

											}
, 											{
												"box" : 												{
													"fontname" : "Arial",
													"fontsize" : 13.0,
													"id" : "obj-58",
													"maxclass" : "newobj",
													"numinlets" : 2,
													"numoutlets" : 1,
													"outlettype" : [ "int" ],
													"patching_rect" : [ 806.0, 581.888062, 31.0, 23.0 ],
													"style" : "",
													"text" : "+ 9"
												}

											}
, 											{
												"box" : 												{
													"fontname" : "Arial",
													"fontsize" : 13.0,
													"id" : "obj-1",
													"linecount" : 2,
													"maxclass" : "message",
													"numinlets" : 2,
													"numoutlets" : 1,
													"outlettype" : [ "" ],
													"patching_rect" : [ 632.0, 753.64801, 205.0, 38.0 ],
													"style" : "",
													"text" : "/monome/ring/range $1 $2 $3 4, /monome/ring/range $1 $5 $4 0"
												}

											}
, 											{
												"box" : 												{
													"fontname" : "Arial",
													"fontsize" : 13.0,
													"id" : "obj-27",
													"maxclass" : "newobj",
													"numinlets" : 2,
													"numoutlets" : 1,
													"outlettype" : [ "int" ],
													"patching_rect" : [ 690.0, 581.888062, 31.0, 23.0 ],
													"style" : "",
													"text" : "+ 8"
												}

											}
, 											{
												"box" : 												{
													"fontname" : "Arial",
													"fontsize" : 13.0,
													"id" : "obj-3",
													"maxclass" : "newobj",
													"numinlets" : 4,
													"numoutlets" : 1,
													"outlettype" : [ "" ],
													"patching_rect" : [ 632.0, 622.888062, 193.0, 23.0 ],
													"style" : "",
													"text" : "pack 0 0 0 0"
												}

											}
, 											{
												"box" : 												{
													"fontname" : "Arial",
													"fontsize" : 12.0,
													"id" : "obj-6",
													"maxclass" : "newobj",
													"numinlets" : 2,
													"numoutlets" : 1,
													"outlettype" : [ "int" ],
													"patching_rect" : [ 545.5, 753.64801, 32.5, 22.0 ],
													"style" : "",
													"text" : "!= 1"
												}

											}
, 											{
												"box" : 												{
													"fontname" : "Arial",
													"fontsize" : 12.0,
													"id" : "obj-4",
													"maxclass" : "newobj",
													"numinlets" : 2,
													"numoutlets" : 1,
													"outlettype" : [ "" ],
													"patching_rect" : [ 545.5, 824.64801, 105.5, 22.0 ],
													"style" : "",
													"text" : "gate 1 1"
												}

											}
, 											{
												"box" : 												{
													"comment" : "signal output",
													"id" : "obj-5",
													"maxclass" : "outlet",
													"numinlets" : 1,
													"numoutlets" : 0,
													"patching_rect" : [ 545.5, 878.64801, 25.0, 25.0 ],
													"style" : ""
												}

											}
, 											{
												"box" : 												{
													"fontname" : "Arial Bold",
													"fontsize" : 9.0,
													"id" : "obj-8",
													"maxclass" : "comment",
													"numinlets" : 1,
													"numoutlets" : 0,
													"patching_rect" : [ 484.642456, 878.64801, 51.0, 17.0 ],
													"presentation" : 1,
													"presentation_rect" : [ 2.0, 97.0, 51.0, 17.0 ],
													"style" : "",
													"text" : "Serialosc",
													"textcolor" : [ 1.0, 1.0, 1.0, 1.0 ]
												}

											}
, 											{
												"box" : 												{
													"activebgcolor" : [ 0.572549, 0.615686, 0.658824, 0.0 ],
													"activebgoncolor" : [ 1.0, 0.548455, 0.000076, 1.0 ],
													"activetextcolor" : [ 1.0, 1.0, 1.0, 0.57 ],
													"activetextoncolor" : [ 0.0, 0.019608, 0.078431, 1.0 ],
													"bgcolor" : [ 0.101961, 0.101961, 0.101961, 0.78 ],
													"bordercolor" : [ 0.0, 0.019608, 0.078431, 0.37 ],
													"id" : "obj-12",
													"maxclass" : "live.text",
													"numinlets" : 1,
													"numoutlets" : 2,
													"outlettype" : [ "", "" ],
													"parameter_enable" : 1,
													"patching_rect" : [ 545.5, 701.64801, 40.0, 20.0 ],
													"presentation" : 1,
													"presentation_rect" : [ 141.952057, 20.0, 45.47995, 14.764645 ],
													"saved_attribute_attributes" : 													{
														"valueof" : 														{
															"parameter_longname" : "Mute[11]",
															"parameter_shortname" : "Mute",
															"parameter_type" : 2,
															"parameter_mmax" : 1.0,
															"parameter_enum" : [ "val1", "val2" ],
															"parameter_initial" : [ 0.0 ],
															"parameter_defer" : 1
														}

													}
,
													"text" : "mute",
													"textcolor" : [ 1.0, 1.0, 1.0, 1.0 ],
													"texton" : "mute",
													"varname" : "Mute"
												}

											}
, 											{
												"box" : 												{
													"fontname" : "Arial Bold",
													"fontsize" : 9.0,
													"id" : "obj-13",
													"maxclass" : "comment",
													"numinlets" : 1,
													"numoutlets" : 0,
													"patching_rect" : [ 25.25, 56.2948, 55.0, 17.0 ],
													"presentation" : 1,
													"presentation_rect" : [ 2.0, 19.0, 55.0, 17.0 ],
													"style" : "",
													"text" : "ARC RING",
													"textcolor" : [ 1.0, 1.0, 1.0, 1.0 ]
												}

											}
, 											{
												"box" : 												{
													"background" : 1,
													"bgmode" : 0,
													"border" : 0,
													"clickthrough" : 0,
													"enablehscroll" : 0,
													"enablevscroll" : 0,
													"id" : "obj-7",
													"lockeddragscroll" : 0,
													"maxclass" : "bpatcher",
													"name" : "background_sm.maxpat",
													"numinlets" : 0,
													"numoutlets" : 0,
													"offset" : [ 0.0, 0.0 ],
													"patching_rect" : [ 25.25, 34.038956, 239.0, 10.0 ],
													"presentation" : 1,
													"presentation_rect" : [ 0.0, 0.0, 261.0, 132.0 ],
													"viewvisibility" : 1
												}

											}
 ],
										"lines" : [ 											{
												"patchline" : 												{
													"destination" : [ "obj-4", 1 ],
													"disabled" : 0,
													"hidden" : 0,
													"source" : [ "obj-1", 0 ]
												}

											}
, 											{
												"patchline" : 												{
													"destination" : [ "obj-6", 0 ],
													"disabled" : 0,
													"hidden" : 0,
													"source" : [ "obj-12", 0 ]
												}

											}
, 											{
												"patchline" : 												{
													"destination" : [ "obj-27", 1 ],
													"disabled" : 0,
													"hidden" : 0,
													"source" : [ "obj-22", 0 ]
												}

											}
, 											{
												"patchline" : 												{
													"destination" : [ "obj-27", 0 ],
													"disabled" : 0,
													"hidden" : 0,
													"midpoints" : [ 641.5, 567.888062, 699.5, 567.888062 ],
													"source" : [ "obj-26", 0 ]
												}

											}
, 											{
												"patchline" : 												{
													"destination" : [ "obj-3", 0 ],
													"disabled" : 0,
													"hidden" : 0,
													"midpoints" : [ 641.5, 591.888062, 641.5, 591.888062 ],
													"source" : [ "obj-26", 0 ]
												}

											}
, 											{
												"patchline" : 												{
													"destination" : [ "obj-58", 0 ],
													"disabled" : 0,
													"hidden" : 0,
													"midpoints" : [ 641.5, 567.888062, 815.5, 567.888062 ],
													"source" : [ "obj-26", 0 ]
												}

											}
, 											{
												"patchline" : 												{
													"destination" : [ "obj-60", 0 ],
													"disabled" : 0,
													"hidden" : 0,
													"midpoints" : [ 641.5, 567.888062, 757.5, 567.888062 ],
													"source" : [ "obj-26", 0 ]
												}

											}
, 											{
												"patchline" : 												{
													"destination" : [ "obj-3", 1 ],
													"disabled" : 0,
													"hidden" : 0,
													"source" : [ "obj-27", 0 ]
												}

											}
, 											{
												"patchline" : 												{
													"destination" : [ "obj-22", 0 ],
													"disabled" : 0,
													"hidden" : 0,
													"source" : [ "obj-28", 1 ]
												}

											}
, 											{
												"patchline" : 												{
													"destination" : [ "obj-26", 0 ],
													"disabled" : 0,
													"hidden" : 0,
													"source" : [ "obj-28", 0 ]
												}

											}
, 											{
												"patchline" : 												{
													"destination" : [ "obj-58", 1 ],
													"disabled" : 0,
													"hidden" : 0,
													"source" : [ "obj-28", 2 ]
												}

											}
, 											{
												"patchline" : 												{
													"destination" : [ "obj-1", 0 ],
													"disabled" : 0,
													"hidden" : 0,
													"source" : [ "obj-29", 0 ]
												}

											}
, 											{
												"patchline" : 												{
													"destination" : [ "obj-29", 0 ],
													"disabled" : 0,
													"hidden" : 0,
													"source" : [ "obj-3", 0 ]
												}

											}
, 											{
												"patchline" : 												{
													"destination" : [ "obj-37", 0 ],
													"disabled" : 0,
													"hidden" : 0,
													"source" : [ "obj-36", 0 ]
												}

											}
, 											{
												"patchline" : 												{
													"destination" : [ "obj-29", 0 ],
													"disabled" : 0,
													"hidden" : 0,
													"source" : [ "obj-37", 0 ]
												}

											}
, 											{
												"patchline" : 												{
													"destination" : [ "obj-30", 0 ],
													"disabled" : 0,
													"hidden" : 0,
													"source" : [ "obj-4", 0 ]
												}

											}
, 											{
												"patchline" : 												{
													"destination" : [ "obj-5", 0 ],
													"disabled" : 0,
													"hidden" : 0,
													"source" : [ "obj-4", 0 ]
												}

											}
, 											{
												"patchline" : 												{
													"destination" : [ "obj-3", 3 ],
													"disabled" : 0,
													"hidden" : 0,
													"source" : [ "obj-58", 0 ]
												}

											}
, 											{
												"patchline" : 												{
													"destination" : [ "obj-4", 0 ],
													"disabled" : 0,
													"hidden" : 0,
													"source" : [ "obj-6", 0 ]
												}

											}
, 											{
												"patchline" : 												{
													"destination" : [ "obj-3", 2 ],
													"disabled" : 0,
													"hidden" : 0,
													"source" : [ "obj-60", 0 ]
												}

											}
, 											{
												"patchline" : 												{
													"destination" : [ "obj-71", 0 ],
													"disabled" : 0,
													"hidden" : 0,
													"source" : [ "obj-70", 0 ]
												}

											}
, 											{
												"patchline" : 												{
													"destination" : [ "obj-81", 0 ],
													"disabled" : 0,
													"hidden" : 0,
													"source" : [ "obj-71", 0 ]
												}

											}
, 											{
												"patchline" : 												{
													"destination" : [ "obj-81", 1 ],
													"disabled" : 0,
													"hidden" : 0,
													"source" : [ "obj-74", 0 ]
												}

											}
, 											{
												"patchline" : 												{
													"destination" : [ "obj-80", 0 ],
													"disabled" : 0,
													"hidden" : 0,
													"source" : [ "obj-75", 0 ]
												}

											}
, 											{
												"patchline" : 												{
													"destination" : [ "obj-74", 0 ],
													"disabled" : 0,
													"hidden" : 0,
													"source" : [ "obj-77", 0 ]
												}

											}
, 											{
												"patchline" : 												{
													"destination" : [ "obj-74", 1 ],
													"disabled" : 0,
													"hidden" : 0,
													"source" : [ "obj-80", 0 ]
												}

											}
, 											{
												"patchline" : 												{
													"destination" : [ "obj-84", 0 ],
													"disabled" : 0,
													"hidden" : 0,
													"source" : [ "obj-81", 0 ]
												}

											}
, 											{
												"patchline" : 												{
													"destination" : [ "obj-85", 0 ],
													"disabled" : 0,
													"hidden" : 0,
													"source" : [ "obj-81", 1 ]
												}

											}
, 											{
												"patchline" : 												{
													"destination" : [ "obj-91", 0 ],
													"disabled" : 0,
													"hidden" : 0,
													"source" : [ "obj-82", 0 ]
												}

											}
, 											{
												"patchline" : 												{
													"destination" : [ "obj-82", 0 ],
													"disabled" : 0,
													"hidden" : 0,
													"source" : [ "obj-83", 0 ]
												}

											}
, 											{
												"patchline" : 												{
													"destination" : [ "obj-83", 0 ],
													"disabled" : 0,
													"hidden" : 0,
													"source" : [ "obj-84", 0 ]
												}

											}
, 											{
												"patchline" : 												{
													"destination" : [ "obj-86", 0 ],
													"disabled" : 0,
													"hidden" : 0,
													"source" : [ "obj-85", 0 ]
												}

											}
, 											{
												"patchline" : 												{
													"destination" : [ "obj-91", 0 ],
													"disabled" : 0,
													"hidden" : 0,
													"source" : [ "obj-86", 0 ]
												}

											}
, 											{
												"patchline" : 												{
													"destination" : [ "obj-28", 0 ],
													"disabled" : 0,
													"hidden" : 0,
													"source" : [ "obj-87", 0 ]
												}

											}
, 											{
												"patchline" : 												{
													"destination" : [ "obj-26", 0 ],
													"disabled" : 0,
													"hidden" : 0,
													"source" : [ "obj-91", 0 ]
												}

											}
 ]
									}
,
									"patching_rect" : [ 14.0, 255.0, 197.0, 116.0 ],
									"varname" : "ArcRing",
									"viewvisibility" : 1
								}

							}
, 							{
								"box" : 								{
									"bubble" : 1,
									"id" : "obj-21",
									"maxclass" : "comment",
									"numinlets" : 1,
									"numoutlets" : 0,
									"patching_rect" : [ 223.0, 315.0, 132.0, 25.0 ],
									"presentation_rect" : [ 229.0, 315.0, 0.0, 0.0 ],
									"style" : "",
									"text" : "select an arc ring"
								}

							}
, 							{
								"box" : 								{
									"bubble" : 1,
									"id" : "obj-20",
									"linecount" : 2,
									"maxclass" : "comment",
									"numinlets" : 1,
									"numoutlets" : 0,
									"patching_rect" : [ 223.0, 400.0, 150.0, 40.0 ],
									"presentation_rect" : [ 233.0, 397.5, 0.0, 0.0 ],
									"style" : "",
									"text" : "select a serialosc device"
								}

							}
, 							{
								"box" : 								{
									"args" : [ "/monome" ],
									"bgmode" : 0,
									"border" : 0,
									"clickthrough" : 0,
									"enablehscroll" : 0,
									"enablevscroll" : 0,
									"id" : "obj-9",
									"lockeddragscroll" : 0,
									"maxclass" : "bpatcher",
									"name" : "serialosc.maxpat",
									"numinlets" : 2,
									"numoutlets" : 4,
									"offset" : [ 0.0, 0.0 ],
									"outlettype" : [ "", "int", "", "" ],
									"patching_rect" : [ 14.0, 408.0, 201.0, 24.0 ],
									"presentation_rect" : [ 469.0, 306.0, 0.0, 0.0 ],
									"varname" : "serialosc[2]",
									"viewvisibility" : 1
								}

							}
, 							{
								"box" : 								{
									"fontname" : "Arial",
									"fontsize" : 13.0,
									"id" : "obj-5",
									"linecount" : 2,
									"maxclass" : "comment",
									"numinlets" : 1,
									"numoutlets" : 0,
									"patching_rect" : [ 7.0, 69.0, 352.0, 36.0 ],
									"style" : "",
									"text" : "Arc Ring takes a signal input and displays the value on the arc LED ring ",
									"textcolor" : [ 0.2, 0.2, 0.2, 1.0 ],
									"varname" : "autohelp_top_digest"
								}

							}
, 							{
								"box" : 								{
									"fontname" : "Arial",
									"fontsize" : 48.0,
									"id" : "obj-11",
									"maxclass" : "comment",
									"numinlets" : 1,
									"numoutlets" : 0,
									"patching_rect" : [ 10.0, 10.6875, 275.0, 60.0 ],
									"style" : "",
									"text" : "Arc Ring",
									"textcolor" : [ 0.2, 0.2, 0.2, 1.0 ],
									"varname" : "autohelp_top_digest[2]"
								}

							}
 ],
						"lines" : [ 							{
								"patchline" : 								{
									"destination" : [ "obj-80", 0 ],
									"disabled" : 0,
									"hidden" : 0,
									"source" : [ "obj-22", 0 ]
								}

							}
, 							{
								"patchline" : 								{
									"destination" : [ "obj-9", 0 ],
									"disabled" : 0,
									"hidden" : 0,
									"source" : [ "obj-80", 0 ]
								}

							}
 ],
						"bgfillcolor_type" : "gradient",
						"bgfillcolor_color1" : [ 0.454902, 0.462745, 0.482353, 1.0 ],
						"bgfillcolor_color2" : [ 0.290196, 0.309804, 0.301961, 1.0 ],
						"bgfillcolor_color" : [ 0.290196, 0.309804, 0.301961, 1.0 ],
						"bgfillcolor_angle" : 270.0,
						"bgfillcolor_proportion" : 0.39
					}
,
					"patching_rect" : [ 36.0, 27.0, 50.0, 22.0 ],
					"saved_object_attributes" : 					{
						"description" : "",
						"digest" : "",
						"fontsize" : 13.0,
						"globalpatchername" : "",
						"style" : "",
						"tags" : ""
					}
,
					"style" : "",
					"text" : "p basic",
					"varname" : "basic_tab"
				}

			}
 ],
		"lines" : [ 			{
				"patchline" : 				{
					"destination" : [ "obj-20", 1 ],
					"disabled" : 0,
					"hidden" : 0,
					"source" : [ "obj-13", 0 ]
				}

			}
, 			{
				"patchline" : 				{
					"destination" : [ "obj-13", 0 ],
					"disabled" : 0,
					"hidden" : 0,
					"source" : [ "obj-17", 0 ]
				}

			}
, 			{
				"patchline" : 				{
					"destination" : [ "obj-13", 0 ],
					"disabled" : 0,
					"hidden" : 0,
					"source" : [ "obj-21", 0 ]
				}

			}
 ],
		"parameters" : 		{
			"obj-2::obj-80::obj-87" : [ "Range[3]", "Range", 0 ],
			"obj-2::obj-80::obj-75" : [ "SampleRate[3]", "SampleRate", 0 ],
			"obj-2::obj-80::obj-36" : [ "live.tab[7]", "live.tab", 0 ],
			"obj-2::obj-22::obj-12" : [ "Mute", "Mute", 0 ],
			"obj-2::obj-80::obj-12" : [ "Mute[11]", "Mute", 0 ],
			"obj-2::obj-80::obj-70" : [ "Mute[10]", "Mute", 0 ],
			"obj-2::obj-22::obj-20" : [ "Frequency", "Freq", 0 ]
		}
,
		"dependency_cache" : [ 			{
				"name" : "serialosc.maxpat",
				"bootpath" : "C74:/packages/Beap/patchers",
				"type" : "JSON",
				"implicit" : 1
			}
, 			{
				"name" : "serialosc.js",
				"bootpath" : "C74:/packages/Beap/patchers",
				"type" : "TEXT",
				"implicit" : 1
			}
, 			{
				"name" : "background_sm.maxpat",
				"bootpath" : "C74:/packages/Beap/misc",
				"type" : "JSON",
				"implicit" : 1
			}
, 			{
				"name" : "bp.LFO.maxpat",
				"bootpath" : "C74:/packages/Beap/clippings/BEAP/LFO",
				"type" : "JSON",
				"implicit" : 1
			}
 ],
		"embedsnapshot" : 1,
		"snapshot" : 		{
			"filetype" : "C74Snapshot",
			"version" : 1,
			"name" : "bp.Arc Ring.maxhelp",
			"origin" : "bp.Arc Ring.maxhelp",
			"type" : "patcher",
			"subtype" : "Undefined",
			"snapshot" : 			{
				"name" : "bp.Arc Ring.maxhelp",
				"valuedictionary" : 				{
					"parameter_values" : 					{
						"Frequency" : 31.622776,
						"Mute" : 0.0,
						"Mute[10]" : 0.0,
						"Mute[11]" : 0.0,
						"Range[3]" : 1.0,
						"SampleRate[3]" : 10.0,
						"live.tab[7]" : 0.0
					}

				}

			}

		}

	}

}
