{
	"patcher" : 	{
		"fileversion" : 1,
		"appversion" : 		{
			"major" : 7,
			"minor" : 0,
			"revision" : 3,
			"architecture" : "x86",
			"modernui" : 1
		}
,
		"rect" : [ 84.0, 95.0, 914.0, 715.0 ],
		"bglocked" : 0,
		"openinpresentation" : 0,
		"default_fontsize" : 12.0,
		"default_fontface" : 0,
		"default_fontname" : "Arial",
		"gridonopen" : 1,
		"gridsize" : [ 15.0, 15.0 ],
		"gridsnaponopen" : 1,
		"objectsnaponopen" : 1,
		"statusbarvisible" : 2,
		"toolbarvisible" : 1,
		"lefttoolbarpinned" : 0,
		"toptoolbarpinned" : 0,
		"righttoolbarpinned" : 0,
		"bottomtoolbarpinned" : 0,
		"toolbars_unpinned_last_save" : 0,
		"tallnewobj" : 0,
		"boxanimatetime" : 200,
		"enablehscroll" : 1,
		"enablevscroll" : 1,
		"devicewidth" : 0.0,
		"description" : "",
		"digest" : "",
		"tags" : "",
		"style" : "",
		"subpatcher_template" : "",
		"showrootpatcherontab" : 0,
		"showontab" : 0,
		"boxes" : [ 			{
				"box" : 				{
					"fontname" : "Arial",
					"fontsize" : 12.0,
					"id" : "obj-21",
					"maxclass" : "message",
					"numinlets" : 2,
					"numoutlets" : 1,
					"outlettype" : [ "" ],
					"patching_rect" : [ 740.0, 291.0, 244.0, 22.0 ],
					"style" : "",
					"text" : "window size 20 60 1023 768, window exec"
				}

			}
, 			{
				"box" : 				{
					"fontname" : "Arial",
					"fontsize" : 12.0,
					"id" : "obj-20",
					"maxclass" : "message",
					"numinlets" : 2,
					"numoutlets" : 1,
					"outlettype" : [ "" ],
					"patching_rect" : [ 740.0, 424.0, 182.0, 22.0 ],
					"style" : "",
					"text" : "window size 20 60 922 728"
				}

			}
, 			{
				"box" : 				{
					"fontname" : "Arial",
					"fontsize" : 12.0,
					"id" : "obj-17",
					"maxclass" : "message",
					"numinlets" : 2,
					"numoutlets" : 1,
					"outlettype" : [ "" ],
					"patching_rect" : [ 765.0, 327.0, 94.0, 22.0 ],
					"style" : "",
					"text" : "window getsize"
				}

			}
, 			{
				"box" : 				{
					"fontname" : "Arial",
					"fontsize" : 12.0,
					"id" : "obj-13",
					"maxclass" : "newobj",
					"numinlets" : 1,
					"numoutlets" : 2,
					"outlettype" : [ "", "" ],
					"patching_rect" : [ 740.0, 369.0, 71.0, 22.0 ],
					"save" : [ "#N", "thispatcher", ";", "#Q", "end", ";" ],
					"style" : "",
					"text" : "thispatcher"
				}

			}
, 			{
				"box" : 				{
					"fontname" : "Arial",
					"fontsize" : 12.0,
					"id" : "obj-2",
					"maxclass" : "newobj",
					"numinlets" : 0,
					"numoutlets" : 0,
					"patcher" : 					{
						"fileversion" : 1,
						"appversion" : 						{
							"major" : 7,
							"minor" : 0,
							"revision" : 3,
							"architecture" : "x86",
							"modernui" : 1
						}
,
						"rect" : [ 84.0, 121.0, 914.0, 689.0 ],
						"bgcolor" : [ 0.88, 0.88, 0.88, 1.0 ],
						"bglocked" : 0,
						"openinpresentation" : 0,
						"default_fontsize" : 13.0,
						"default_fontface" : 0,
						"default_fontname" : "Arial",
						"gridonopen" : 1,
						"gridsize" : [ 5.0, 5.0 ],
						"gridsnaponopen" : 1,
						"objectsnaponopen" : 1,
						"statusbarvisible" : 2,
						"toolbarvisible" : 1,
						"lefttoolbarpinned" : 0,
						"toptoolbarpinned" : 0,
						"righttoolbarpinned" : 0,
						"bottomtoolbarpinned" : 0,
						"toolbars_unpinned_last_save" : 0,
						"tallnewobj" : 0,
						"boxanimatetime" : 200,
						"enablehscroll" : 1,
						"enablevscroll" : 1,
						"devicewidth" : 0.0,
						"description" : "",
						"digest" : "",
						"tags" : "",
						"style" : "",
						"subpatcher_template" : "",
						"showontab" : 1,
						"boxes" : [ 							{
								"box" : 								{
									"bubble" : 1,
									"id" : "obj-8",
									"linecount" : 2,
									"maxclass" : "comment",
									"numinlets" : 1,
									"numoutlets" : 0,
									"patching_rect" : [ 583.0, 178.5, 186.0, 40.0 ],
									"style" : "",
									"text" : "Add another LFO to modulate Resonance"
								}

							}
, 							{
								"box" : 								{
									"bgmode" : 0,
									"border" : 0,
									"clickthrough" : 0,
									"enablehscroll" : 0,
									"enablevscroll" : 0,
									"extract" : 1,
									"id" : "obj-6",
									"lockeddragscroll" : 0,
									"maxclass" : "bpatcher",
									"name" : "bp.LFO.maxpat",
									"numinlets" : 0,
									"numoutlets" : 5,
									"offset" : [ 0.0, 0.0 ],
									"outlettype" : [ "signal", "signal", "signal", "signal", "signal" ],
									"patching_rect" : [ 440.0, 113.0, 137.0, 116.0 ],
									"varname" : "bp.LFO",
									"viewvisibility" : 1
								}

							}
, 							{
								"box" : 								{
									"bgmode" : 0,
									"border" : 0,
									"clickthrough" : 0,
									"embed" : 1,
									"enablehscroll" : 0,
									"enablevscroll" : 0,
									"id" : "obj-38",
									"lockeddragscroll" : 0,
									"maxclass" : "bpatcher",
									"numinlets" : 4,
									"numoutlets" : 1,
									"offset" : [ 0.0, 0.0 ],
									"outlettype" : [ "signal" ],
									"patcher" : 									{
										"fileversion" : 1,
										"appversion" : 										{
											"major" : 7,
											"minor" : 0,
											"revision" : 3,
											"architecture" : "x86",
											"modernui" : 1
										}
,
										"rect" : [ 103.0, 375.0, 558.0, 223.0 ],
										"bgcolor" : [ 1.0, 1.0, 1.0, 0.0 ],
										"bglocked" : 0,
										"openinpresentation" : 1,
										"default_fontsize" : 12.0,
										"default_fontface" : 0,
										"default_fontname" : "Arial",
										"gridonopen" : 1,
										"gridsize" : [ 15.0, 15.0 ],
										"gridsnaponopen" : 1,
										"objectsnaponopen" : 1,
										"statusbarvisible" : 1,
										"toolbarvisible" : 1,
										"lefttoolbarpinned" : 0,
										"toptoolbarpinned" : 0,
										"righttoolbarpinned" : 0,
										"bottomtoolbarpinned" : 0,
										"toolbars_unpinned_last_save" : 0,
										"tallnewobj" : 0,
										"boxanimatetime" : 200,
										"enablehscroll" : 1,
										"enablevscroll" : 1,
										"devicewidth" : 0.0,
										"description" : "",
										"digest" : "",
										"tags" : "",
										"style" : "",
										"subpatcher_template" : "",
										"boxes" : [ 											{
												"box" : 												{
													"id" : "obj-43",
													"maxclass" : "newobj",
													"numinlets" : 3,
													"numoutlets" : 5,
													"outlettype" : [ "signal", "signal", "signal", "signal", "signal" ],
													"patching_rect" : [ 367.773254, 1293.67041, 66.0, 22.0 ],
													"style" : "",
													"text" : "filtercoeff~"
												}

											}
, 											{
												"box" : 												{
													"id" : "obj-38",
													"maxclass" : "newobj",
													"numinlets" : 1,
													"numoutlets" : 1,
													"outlettype" : [ "" ],
													"patching_rect" : [ 239.439941, 289.845551, 34.0, 22.0 ],
													"style" : "",
													"text" : "ftom"
												}

											}
, 											{
												"box" : 												{
													"autoout" : 1,
													"bgcolor" : [ 0.0, 0.0, 0.0, 0.0 ],
													"curvecolor" : [ 0.949154, 0.938325, 1.0, 0.62 ],
													"domain" : [ 0.0, 22050.0 ],
													"fontface" : 1,
													"fontname" : "Arial",
													"hcurvecolor" : [ 0.278431, 0.839216, 1.0, 0.0 ],
													"id" : "obj-37",
													"ignoreclick" : 1,
													"linmarkers" : [ 0.0, 11025.0, 16537.5 ],
													"logmarkers" : [ 0.0, 100.0, 1000.0, 10000.0 ],
													"markercolor" : [ 0.509804, 0.509804, 0.509804, 0.0 ],
													"maxclass" : "filtergraph~",
													"nfilters" : 1,
													"numinlets" : 8,
													"numoutlets" : 7,
													"outlettype" : [ "list", "float", "float", "float", "float", "list", "int" ],
													"parameter_enable" : 0,
													"patching_rect" : [ 32.939941, 874.17041, 360.0, 155.0 ],
													"presentation" : 1,
													"presentation_rect" : [ 100.5, 42.838638, 360.0, 155.0 ],
													"setfilter" : [ 0, 2, 0, 0, 0, 15.443031, 1.0, 0.75, 0.0001, 22050.0, 0.0001, 16.0, 0.5, 25.0 ],
													"style" : "",
													"textcolor" : [ 1.0, 1.0, 1.0, 0.0 ]
												}

											}
, 											{
												"box" : 												{
													"id" : "obj-35",
													"maxclass" : "newobj",
													"numinlets" : 2,
													"numoutlets" : 1,
													"outlettype" : [ "float" ],
													"patching_rect" : [ 239.439941, 724.67041, 83.0, 22.0 ],
													"style" : "",
													"text" : "snapshot~ 15"
												}

											}
, 											{
												"box" : 												{
													"id" : "obj-28",
													"linecount" : 2,
													"maxclass" : "comment",
													"numinlets" : 1,
													"numoutlets" : 0,
													"patching_rect" : [ 21.439941, 60.4487, 321.0, 33.0 ],
													"style" : "",
													"text" : "## Two-pole multimode filter with large graphical interface and spectral display ## "
												}

											}
, 											{
												"box" : 												{
													"activebgcolor" : [ 0.572549, 0.615686, 0.658824, 0.0 ],
													"activebgoncolor" : [ 0.278431, 0.839216, 1.0, 1.0 ],
													"activetextcolor" : [ 1.0, 1.0, 1.0, 0.57 ],
													"activetextoncolor" : [ 0.0, 0.019608, 0.078431, 1.0 ],
													"bgcolor" : [ 0.101961, 0.101961, 0.101961, 0.78 ],
													"bordercolor" : [ 0.0, 0.019608, 0.078431, 0.37 ],
													"id" : "obj-26",
													"maxclass" : "live.text",
													"numinlets" : 1,
													"numoutlets" : 2,
													"outlettype" : [ "", "" ],
													"parameter_enable" : 1,
													"patching_rect" : [ 36.606628, 1441.247314, 43.0, 19.0 ],
													"presentation" : 1,
													"presentation_rect" : [ 469.90564, 180.838638, 81.25, 17.0 ],
													"saved_attribute_attributes" : 													{
														"valueof" : 														{
															"parameter_longname" : "spectral",
															"parameter_shortname" : "spectral",
															"parameter_type" : 2,
															"parameter_mmax" : 1.0,
															"parameter_enum" : [ "val1", "val2" ],
															"parameter_initial" : [ 0.0 ],
															"parameter_defer" : 1
														}

													}
,
													"text" : "spectral",
													"textcolor" : [ 1.0, 1.0, 1.0, 1.0 ],
													"texton" : "spectral",
													"varname" : "spectral"
												}

											}
, 											{
												"box" : 												{
													"fontname" : "Arial",
													"fontsize" : 12.0,
													"id" : "obj-25",
													"maxclass" : "newobj",
													"numinlets" : 2,
													"numoutlets" : 1,
													"outlettype" : [ "signal" ],
													"patching_rect" : [ 36.606628, 1518.67041, 61.0, 22.0 ],
													"style" : "",
													"text" : "gate~ 1 0"
												}

											}
, 											{
												"box" : 												{
													"bgcolor" : [ 0.941176, 0.941176, 0.941176, 0.0 ],
													"fgcolor" : [ 1.0, 1.0, 1.0, 0.32 ],
													"id" : "obj-12",
													"ignoreclick" : 1,
													"logfreq" : 1,
													"markercolor" : [ 0.627451, 0.627451, 0.627451, 0.0 ],
													"maxclass" : "spectroscope~",
													"numinlets" : 2,
													"numoutlets" : 1,
													"outlettype" : [ "" ],
													"patching_rect" : [ 36.606628, 1563.247314, 300.0, 100.0 ],
													"presentation" : 1,
													"presentation_rect" : [ 100.5, 42.838638, 360.0, 155.0 ],
													"style" : ""
												}

											}
, 											{
												"box" : 												{
													"activedialcolor" : [ 0.278431, 0.839216, 1.0, 1.0 ],
													"activeneedlecolor" : [ 1.0, 1.0, 1.0, 0.6 ],
													"id" : "obj-98",
													"maxclass" : "live.dial",
													"numinlets" : 1,
													"numoutlets" : 2,
													"outlettype" : [ "", "float" ],
													"parameter_enable" : 1,
													"patching_rect" : [ 749.939941, 795.908081, 44.0, 47.0 ],
													"presentation" : 1,
													"presentation_rect" : [ 4.0, 152.5, 44.0, 47.0 ],
													"saved_attribute_attributes" : 													{
														"valueof" : 														{
															"parameter_longname" : "Gain",
															"parameter_shortname" : "Gain",
															"parameter_type" : 0,
															"parameter_mmax" : 16.0,
															"parameter_initial_enable" : 1,
															"parameter_initial" : [ 1 ],
															"parameter_unitstyle" : 1,
															"parameter_exponent" : 2.0
														}

													}
,
													"textcolor" : [ 1.0, 1.0, 1.0, 0.6 ],
													"varname" : "Gain"
												}

											}
, 											{
												"box" : 												{
													"fontname" : "Arial",
													"fontsize" : 13.0,
													"hidden" : 1,
													"id" : "obj-97",
													"maxclass" : "message",
													"numinlets" : 2,
													"numoutlets" : 1,
													"outlettype" : [ "" ],
													"patching_rect" : [ 617.439941, 1052.17041, 48.0, 23.0 ],
													"style" : "",
													"text" : "set $1"
												}

											}
, 											{
												"box" : 												{
													"activedialcolor" : [ 0.278431, 0.839216, 1.0, 1.0 ],
													"activeneedlecolor" : [ 1.0, 1.0, 1.0, 0.6 ],
													"id" : "obj-95",
													"maxclass" : "live.dial",
													"numinlets" : 1,
													"numoutlets" : 2,
													"outlettype" : [ "", "float" ],
													"parameter_enable" : 1,
													"patching_rect" : [ 690.511353, 795.908081, 44.0, 47.0 ],
													"presentation" : 1,
													"presentation_rect" : [ 4.0, 42.838638, 44.0, 47.0 ],
													"saved_attribute_attributes" : 													{
														"valueof" : 														{
															"parameter_longname" : "Freq[1]",
															"parameter_shortname" : "Freq",
															"parameter_type" : 0,
															"parameter_mmin" : 20.0,
															"parameter_mmax" : 20000.0,
															"parameter_initial_enable" : 1,
															"parameter_initial" : [ 500 ],
															"parameter_unitstyle" : 3,
															"parameter_exponent" : 4.0
														}

													}
,
													"textcolor" : [ 1.0, 1.0, 1.0, 0.6 ],
													"varname" : "Freq"
												}

											}
, 											{
												"box" : 												{
													"activebgoncolor" : [ 0.278431, 0.839216, 1.0, 1.0 ],
													"id" : "obj-59",
													"maxclass" : "live.tab",
													"num_lines_patching" : 7,
													"num_lines_presentation" : 7,
													"numinlets" : 1,
													"numoutlets" : 3,
													"outlettype" : [ "", "", "float" ],
													"parameter_enable" : 1,
													"patching_rect" : [ 419.814941, 665.908081, 73.25, 177.0 ],
													"presentation" : 1,
													"presentation_rect" : [ 469.90564, 42.838638, 81.25, 131.0 ],
													"saved_attribute_attributes" : 													{
														"valueof" : 														{
															"parameter_longname" : "filter_mode",
															"parameter_shortname" : "filter_mode",
															"parameter_type" : 2,
															"parameter_enum" : [ "lowpass", "highpass", "bandpass", "bandstop", "peaknotch", "lowshelf", "highshelf" ],
															"parameter_initial_enable" : 1,
															"parameter_initial" : [ 0.0 ],
															"parameter_unitstyle" : 0
														}

													}
,
													"varname" : "filter_mode"
												}

											}
, 											{
												"box" : 												{
													"fontname" : "Arial",
													"fontsize" : 13.0,
													"hidden" : 1,
													"id" : "obj-27",
													"maxclass" : "message",
													"numinlets" : 2,
													"numoutlets" : 1,
													"outlettype" : [ "" ],
													"patching_rect" : [ 560.606628, 1052.17041, 48.0, 23.0 ],
													"style" : "",
													"text" : "set $1"
												}

											}
, 											{
												"box" : 												{
													"fontname" : "Arial",
													"fontsize" : 13.0,
													"hidden" : 1,
													"id" : "obj-29",
													"maxclass" : "message",
													"numinlets" : 2,
													"numoutlets" : 1,
													"outlettype" : [ "" ],
													"patching_rect" : [ 503.773254, 1052.17041, 48.0, 23.0 ],
													"style" : "",
													"text" : "set $1"
												}

											}
, 											{
												"box" : 												{
													"autoout" : 1,
													"bgcolor" : [ 0.0, 0.0, 0.0, 1.0 ],
													"curvecolor" : [ 0.278431, 0.839216, 1.0, 1.0 ],
													"domain" : [ 0.0, 22050.0 ],
													"fontface" : 1,
													"fontname" : "Arial",
													"hcurvecolor" : [ 0.278431, 0.839216, 1.0, 1.0 ],
													"id" : "obj-36",
													"linmarkers" : [ 0.0, 11025.0, 16537.5 ],
													"logmarkers" : [ 0.0, 100.0, 1000.0, 10000.0 ],
													"markercolor" : [ 0.509804, 0.509804, 0.509804, 1.0 ],
													"maxclass" : "filtergraph~",
													"nfilters" : 1,
													"numinlets" : 8,
													"numoutlets" : 7,
													"outlettype" : [ "list", "float", "float", "float", "float", "list", "int" ],
													"parameter_enable" : 0,
													"patching_rect" : [ 446.939941, 874.17041, 360.0, 155.0 ],
													"presentation" : 1,
													"presentation_rect" : [ 100.5, 42.838638, 360.0, 155.0 ],
													"setfilter" : [ 0, 2, 0, 0, 0, 500.000061, 1.0, 0.75, 0.0001, 22050.0, 0.0001, 16.0, 0.5, 25.0 ],
													"style" : "",
													"textcolor" : [ 1.0, 1.0, 1.0, 0.47 ]
												}

											}
, 											{
												"box" : 												{
													"fontname" : "Arial",
													"fontsize" : 13.0,
													"id" : "obj-49",
													"maxclass" : "newobj",
													"numinlets" : 6,
													"numoutlets" : 1,
													"outlettype" : [ "signal" ],
													"patching_rect" : [ 304.033691, 1329.67041, 120.5, 23.0 ],
													"style" : "",
													"text" : "biquad~"
												}

											}
, 											{
												"box" : 												{
													"bubble" : 1,
													"bubblepoint" : 0.1,
													"bubbleside" : 3,
													"fontname" : "Arial",
													"fontsize" : 12.0,
													"id" : "obj-24",
													"linecount" : 4,
													"maxclass" : "comment",
													"numinlets" : 1,
													"numoutlets" : 0,
													"patching_rect" : [ 525.439941, 118.619141, 109.0, 64.0 ],
													"style" : "",
													"text" : "this scales the dB value to linear amplitude"
												}

											}
, 											{
												"box" : 												{
													"bubble" : 1,
													"bubbleside" : 3,
													"fontname" : "Arial",
													"fontsize" : 12.0,
													"id" : "obj-23",
													"linecount" : 2,
													"maxclass" : "comment",
													"numinlets" : 1,
													"numoutlets" : 0,
													"patching_rect" : [ 525.439941, 78.119141, 109.0, 37.0 ],
													"style" : "",
													"text" : "this converts 0-100 to dB"
												}

											}
, 											{
												"box" : 												{
													"bubble" : 1,
													"fontname" : "Arial",
													"fontsize" : 12.0,
													"id" : "obj-20",
													"linecount" : 2,
													"maxclass" : "comment",
													"numinlets" : 1,
													"numoutlets" : 0,
													"patching_rect" : [ 717.439941, 399.315552, 109.0, 37.0 ],
													"style" : "",
													"text" : "12 semitones in an oct"
												}

											}
, 											{
												"box" : 												{
													"bubble" : 1,
													"fontname" : "Arial",
													"fontsize" : 12.0,
													"id" : "obj-22",
													"linecount" : 2,
													"maxclass" : "comment",
													"numinlets" : 1,
													"numoutlets" : 0,
													"patching_rect" : [ 717.439941, 353.315552, 109.0, 37.0 ],
													"style" : "",
													"text" : "add 5v to bring to 0-10v range"
												}

											}
, 											{
												"box" : 												{
													"fontname" : "Arial",
													"fontsize" : 12.0,
													"id" : "obj-7",
													"maxclass" : "newobj",
													"numinlets" : 1,
													"numoutlets" : 1,
													"outlettype" : [ "" ],
													"patching_rect" : [ 637.627441, 118.619141, 41.0, 22.0 ],
													"style" : "",
													"text" : "dbtoa"
												}

											}
, 											{
												"box" : 												{
													"fontname" : "Arial",
													"fontsize" : 12.0,
													"id" : "obj-16",
													"maxclass" : "newobj",
													"numinlets" : 1,
													"numoutlets" : 1,
													"outlettype" : [ "" ],
													"patching_rect" : [ 637.627441, 86.619141, 120.0, 22.0 ],
													"style" : "",
													"text" : "expr ($i1 - 100) * 0.6"
												}

											}
, 											{
												"box" : 												{
													"fontname" : "Arial",
													"fontsize" : 12.0,
													"id" : "obj-4",
													"maxclass" : "newobj",
													"numinlets" : 1,
													"numoutlets" : 1,
													"outlettype" : [ "" ],
													"patching_rect" : [ 814.189941, 201.408051, 41.0, 22.0 ],
													"style" : "",
													"text" : "dbtoa"
												}

											}
, 											{
												"box" : 												{
													"fontname" : "Arial",
													"fontsize" : 12.0,
													"id" : "obj-5",
													"maxclass" : "newobj",
													"numinlets" : 1,
													"numoutlets" : 1,
													"outlettype" : [ "" ],
													"patching_rect" : [ 814.189941, 169.408051, 120.0, 22.0 ],
													"style" : "",
													"text" : "expr ($i1 - 100) * 0.6"
												}

											}
, 											{
												"box" : 												{
													"fontname" : "Arial",
													"fontsize" : 12.0,
													"id" : "obj-1",
													"maxclass" : "newobj",
													"numinlets" : 1,
													"numoutlets" : 1,
													"outlettype" : [ "" ],
													"patching_rect" : [ 1171.189941, 346.654846, 41.0, 22.0 ],
													"style" : "",
													"text" : "dbtoa"
												}

											}
, 											{
												"box" : 												{
													"fontname" : "Arial",
													"fontsize" : 12.0,
													"id" : "obj-3",
													"maxclass" : "newobj",
													"numinlets" : 1,
													"numoutlets" : 1,
													"outlettype" : [ "" ],
													"patching_rect" : [ 1171.189941, 314.654846, 120.0, 22.0 ],
													"style" : "",
													"text" : "expr ($i1 - 100) * 0.6"
												}

											}
, 											{
												"box" : 												{
													"fontname" : "Arial Bold",
													"fontsize" : 9.0,
													"id" : "obj-74",
													"maxclass" : "comment",
													"numinlets" : 1,
													"numoutlets" : 0,
													"patching_rect" : [ 717.439941, 281.815552, 63.0, 17.0 ],
													"presentation" : 1,
													"presentation_rect" : [ 313.634399, 0.0, 63.0, 17.0 ],
													"style" : "",
													"text" : "CV2 (1v/oct)",
													"textcolor" : [ 1.0, 1.0, 1.0, 1.0 ]
												}

											}
, 											{
												"box" : 												{
													"fontname" : "Arial",
													"fontsize" : 12.0,
													"id" : "obj-2",
													"maxclass" : "newobj",
													"numinlets" : 2,
													"numoutlets" : 1,
													"outlettype" : [ "signal" ],
													"patching_rect" : [ 672.439941, 437.154846, 38.0, 22.0 ],
													"style" : "",
													"text" : "-~ 60"
												}

											}
, 											{
												"box" : 												{
													"fontname" : "Arial",
													"fontsize" : 12.0,
													"id" : "obj-46",
													"maxclass" : "newobj",
													"numinlets" : 2,
													"numoutlets" : 1,
													"outlettype" : [ "signal" ],
													"patching_rect" : [ 460.033691, 384.654846, 38.0, 22.0 ],
													"style" : "",
													"text" : "-~ 60"
												}

											}
, 											{
												"box" : 												{
													"fontname" : "Arial",
													"fontsize" : 12.0,
													"id" : "obj-92",
													"maxclass" : "newobj",
													"numinlets" : 2,
													"numoutlets" : 1,
													"outlettype" : [ "signal" ],
													"patching_rect" : [ 239.439941, 537.58667, 775.0, 22.0 ],
													"style" : "",
													"text" : "+~"
												}

											}
, 											{
												"box" : 												{
													"fontname" : "Arial",
													"fontsize" : 12.0,
													"id" : "obj-91",
													"maxclass" : "newobj",
													"numinlets" : 2,
													"numoutlets" : 1,
													"outlettype" : [ "signal" ],
													"patching_rect" : [ 239.439941, 485.747375, 452.0, 22.0 ],
													"style" : "",
													"text" : "+~"
												}

											}
, 											{
												"box" : 												{
													"fontname" : "Arial",
													"fontsize" : 12.0,
													"id" : "obj-90",
													"maxclass" : "newobj",
													"numinlets" : 2,
													"numoutlets" : 1,
													"outlettype" : [ "signal" ],
													"patching_rect" : [ 239.439941, 434.747345, 239.59375, 22.0 ],
													"style" : "",
													"text" : "+~"
												}

											}
, 											{
												"box" : 												{
													"bubble" : 1,
													"fontname" : "Arial",
													"fontsize" : 12.0,
													"id" : "obj-89",
													"linecount" : 2,
													"maxclass" : "comment",
													"numinlets" : 1,
													"numoutlets" : 0,
													"patching_rect" : [ 510.439941, 346.154846, 109.0, 37.0 ],
													"style" : "",
													"text" : "12 semitones in an oct"
												}

											}
, 											{
												"box" : 												{
													"bubble" : 1,
													"fontname" : "Arial",
													"fontsize" : 12.0,
													"id" : "obj-88",
													"linecount" : 2,
													"maxclass" : "comment",
													"numinlets" : 1,
													"numoutlets" : 0,
													"patching_rect" : [ 510.439941, 300.154846, 109.0, 37.0 ],
													"style" : "",
													"text" : "add 5v to bring to 0-10v range"
												}

											}
, 											{
												"box" : 												{
													"bubble" : 1,
													"fontname" : "Arial",
													"fontsize" : 12.0,
													"id" : "obj-87",
													"linecount" : 4,
													"maxclass" : "comment",
													"numinlets" : 1,
													"numoutlets" : 0,
													"patching_rect" : [ 1040.939941, 376.654846, 102.0, 64.0 ],
													"style" : "",
													"text" : "convert 0-5v to 0-120 range of semitones"
												}

											}
, 											{
												"box" : 												{
													"fontname" : "Arial",
													"fontsize" : 12.0,
													"id" : "obj-84",
													"maxclass" : "newobj",
													"numinlets" : 2,
													"numoutlets" : 1,
													"outlettype" : [ "signal" ],
													"patching_rect" : [ 995.439941, 391.654846, 39.0, 22.0 ],
													"style" : "",
													"text" : "*~ 24"
												}

											}
, 											{
												"box" : 												{
													"fontname" : "Arial",
													"fontsize" : 12.0,
													"id" : "obj-83",
													"maxclass" : "newobj",
													"numinlets" : 3,
													"numoutlets" : 1,
													"outlettype" : [ "signal" ],
													"patching_rect" : [ 995.439941, 333.345551, 56.0, 22.0 ],
													"style" : "",
													"text" : "clip~ 0 5"
												}

											}
, 											{
												"box" : 												{
													"fontname" : "Arial",
													"fontsize" : 12.0,
													"id" : "obj-81",
													"maxclass" : "newobj",
													"numinlets" : 2,
													"numoutlets" : 1,
													"outlettype" : [ "signal" ],
													"patching_rect" : [ 672.439941, 407.815552, 39.0, 22.0 ],
													"style" : "",
													"text" : "*~ 12"
												}

											}
, 											{
												"box" : 												{
													"fontname" : "Arial",
													"fontsize" : 12.0,
													"id" : "obj-82",
													"maxclass" : "newobj",
													"numinlets" : 2,
													"numoutlets" : 1,
													"outlettype" : [ "signal" ],
													"patching_rect" : [ 672.439941, 369.815552, 35.0, 22.0 ],
													"style" : "",
													"text" : "+~ 5"
												}

											}
, 											{
												"box" : 												{
													"fontname" : "Arial",
													"fontsize" : 12.0,
													"id" : "obj-78",
													"maxclass" : "newobj",
													"numinlets" : 2,
													"numoutlets" : 1,
													"outlettype" : [ "signal" ],
													"patching_rect" : [ 460.033691, 346.654846, 39.0, 22.0 ],
													"style" : "",
													"text" : "*~ 12"
												}

											}
, 											{
												"box" : 												{
													"fontname" : "Arial",
													"fontsize" : 12.0,
													"id" : "obj-76",
													"maxclass" : "newobj",
													"numinlets" : 2,
													"numoutlets" : 1,
													"outlettype" : [ "signal" ],
													"patching_rect" : [ 460.033691, 308.654846, 35.0, 22.0 ],
													"style" : "",
													"text" : "+~ 5"
												}

											}
, 											{
												"box" : 												{
													"annotation" : "1v/oct",
													"comment" : "",
													"id" : "obj-60",
													"maxclass" : "inlet",
													"numinlets" : 0,
													"numoutlets" : 1,
													"outlettype" : [ "" ],
													"patching_rect" : [ 995.439941, 289.845551, 25.0, 25.0 ],
													"style" : ""
												}

											}
, 											{
												"box" : 												{
													"fontname" : "Arial",
													"fontsize" : 12.0,
													"id" : "obj-62",
													"maxclass" : "newobj",
													"numinlets" : 2,
													"numoutlets" : 1,
													"outlettype" : [ "signal" ],
													"patching_rect" : [ 995.439941, 471.747345, 194.75, 22.0 ],
													"style" : "",
													"text" : "*~"
												}

											}
, 											{
												"box" : 												{
													"activedialcolor" : [ 0.278431, 0.839216, 1.0, 1.0 ],
													"activeneedlecolor" : [ 1.0, 1.0, 1.0, 0.6 ],
													"id" : "obj-63",
													"maxclass" : "live.dial",
													"numinlets" : 1,
													"numoutlets" : 2,
													"outlettype" : [ "", "float" ],
													"parameter_enable" : 1,
													"patching_rect" : [ 1171.189941, 255.247345, 44.0, 47.0 ],
													"presentation" : 1,
													"presentation_rect" : [ 48.0, 152.5, 44.0, 47.0 ],
													"saved_attribute_attributes" : 													{
														"valueof" : 														{
															"parameter_longname" : "CV3[1]",
															"parameter_shortname" : "CV3",
															"parameter_type" : 0,
															"parameter_mmax" : 100.0,
															"parameter_initial_enable" : 1,
															"parameter_initial" : [ 0.0 ],
															"parameter_unitstyle" : 5
														}

													}
,
													"textcolor" : [ 1.0, 1.0, 1.0, 0.6 ],
													"varname" : "CV3"
												}

											}
, 											{
												"box" : 												{
													"fontname" : "Arial",
													"fontsize" : 13.0,
													"id" : "obj-64",
													"maxclass" : "message",
													"numinlets" : 2,
													"numoutlets" : 1,
													"outlettype" : [ "" ],
													"patching_rect" : [ 1171.189941, 376.654846, 43.0, 23.0 ],
													"style" : "",
													"text" : "$1 20"
												}

											}
, 											{
												"box" : 												{
													"fontname" : "Arial",
													"fontsize" : 13.0,
													"id" : "obj-65",
													"maxclass" : "newobj",
													"numinlets" : 2,
													"numoutlets" : 2,
													"outlettype" : [ "signal", "bang" ],
													"patching_rect" : [ 1171.189941, 417.154846, 53.0, 23.0 ],
													"style" : "",
													"text" : "line~ 0."
												}

											}
, 											{
												"box" : 												{
													"fontname" : "Arial",
													"fontsize" : 12.0,
													"id" : "obj-58",
													"maxclass" : "newobj",
													"numinlets" : 3,
													"numoutlets" : 1,
													"outlettype" : [ "signal" ],
													"patching_rect" : [ 239.439941, 646.747314, 82.0, 22.0 ],
													"style" : "",
													"text" : "clip~ 0 22000"
												}

											}
, 											{
												"box" : 												{
													"fontname" : "Arial",
													"fontsize" : 12.0,
													"id" : "obj-53",
													"maxclass" : "newobj",
													"numinlets" : 2,
													"numoutlets" : 1,
													"outlettype" : [ "signal" ],
													"patching_rect" : [ 460.033691, 237.315552, 196.59375, 22.0 ],
													"style" : "",
													"text" : "*~"
												}

											}
, 											{
												"box" : 												{
													"activedialcolor" : [ 0.278431, 0.839216, 1.0, 1.0 ],
													"activeneedlecolor" : [ 1.0, 1.0, 1.0, 0.6 ],
													"id" : "obj-54",
													"maxclass" : "live.dial",
													"numinlets" : 1,
													"numoutlets" : 2,
													"outlettype" : [ "", "float" ],
													"parameter_enable" : 1,
													"patching_rect" : [ 637.627441, 18.711639, 44.0, 47.0 ],
													"presentation" : 1,
													"presentation_rect" : [ 48.0, 42.838638, 44.0, 47.0 ],
													"saved_attribute_attributes" : 													{
														"valueof" : 														{
															"parameter_longname" : "CV1",
															"parameter_shortname" : "CV1",
															"parameter_type" : 0,
															"parameter_mmax" : 100.0,
															"parameter_initial_enable" : 1,
															"parameter_initial" : [ 0.0 ],
															"parameter_unitstyle" : 5
														}

													}
,
													"textcolor" : [ 1.0, 1.0, 1.0, 0.6 ],
													"varname" : "CV1"
												}

											}
, 											{
												"box" : 												{
													"fontname" : "Arial",
													"fontsize" : 13.0,
													"id" : "obj-56",
													"maxclass" : "message",
													"numinlets" : 2,
													"numoutlets" : 1,
													"outlettype" : [ "" ],
													"patching_rect" : [ 637.627441, 153.119141, 43.0, 23.0 ],
													"style" : "",
													"text" : "$1 20"
												}

											}
, 											{
												"box" : 												{
													"fontname" : "Arial",
													"fontsize" : 13.0,
													"id" : "obj-57",
													"maxclass" : "newobj",
													"numinlets" : 2,
													"numoutlets" : 2,
													"outlettype" : [ "signal", "bang" ],
													"patching_rect" : [ 637.627441, 193.619141, 53.0, 23.0 ],
													"style" : "",
													"text" : "line~ 0."
												}

											}
, 											{
												"box" : 												{
													"comment" : "",
													"id" : "obj-47",
													"maxclass" : "inlet",
													"numinlets" : 0,
													"numoutlets" : 1,
													"outlettype" : [ "signal" ],
													"patching_rect" : [ 460.033691, 183.089142, 25.0, 25.0 ],
													"style" : ""
												}

											}
, 											{
												"box" : 												{
													"annotation" : "1v/oct",
													"comment" : "",
													"id" : "obj-48",
													"maxclass" : "inlet",
													"numinlets" : 0,
													"numoutlets" : 1,
													"outlettype" : [ "" ],
													"patching_rect" : [ 672.439941, 277.815552, 25.0, 25.0 ],
													"style" : ""
												}

											}
, 											{
												"box" : 												{
													"fontname" : "Arial",
													"fontsize" : 12.0,
													"id" : "obj-50",
													"maxclass" : "newobj",
													"numinlets" : 2,
													"numoutlets" : 1,
													"outlettype" : [ "signal" ],
													"patching_rect" : [ 672.439941, 322.315552, 160.75, 22.0 ],
													"style" : "",
													"text" : "*~"
												}

											}
, 											{
												"box" : 												{
													"activedialcolor" : [ 0.278431, 0.839216, 1.0, 1.0 ],
													"activeneedlecolor" : [ 1.0, 1.0, 1.0, 0.6 ],
													"id" : "obj-51",
													"maxclass" : "live.dial",
													"numinlets" : 1,
													"numoutlets" : 2,
													"outlettype" : [ "", "float" ],
													"parameter_enable" : 1,
													"patching_rect" : [ 814.189941, 99.408051, 44.0, 47.0 ],
													"presentation" : 1,
													"presentation_rect" : [ 48.0, 97.669319, 44.0, 47.0 ],
													"saved_attribute_attributes" : 													{
														"valueof" : 														{
															"parameter_longname" : "CV2[1]",
															"parameter_shortname" : "CV2",
															"parameter_type" : 0,
															"parameter_mmax" : 100.0,
															"parameter_initial_enable" : 1,
															"parameter_initial" : [ 0.0 ],
															"parameter_unitstyle" : 5
														}

													}
,
													"textcolor" : [ 1.0, 1.0, 1.0, 0.6 ],
													"varname" : "CV2"
												}

											}
, 											{
												"box" : 												{
													"fontname" : "Arial",
													"fontsize" : 13.0,
													"id" : "obj-67",
													"maxclass" : "message",
													"numinlets" : 2,
													"numoutlets" : 1,
													"outlettype" : [ "" ],
													"patching_rect" : [ 814.189941, 237.315552, 43.0, 23.0 ],
													"style" : "",
													"text" : "$1 20"
												}

											}
, 											{
												"box" : 												{
													"fontname" : "Arial",
													"fontsize" : 13.0,
													"id" : "obj-68",
													"maxclass" : "newobj",
													"numinlets" : 2,
													"numoutlets" : 2,
													"outlettype" : [ "signal", "bang" ],
													"patching_rect" : [ 814.189941, 277.815552, 53.0, 23.0 ],
													"style" : "",
													"text" : "line~ 0."
												}

											}
, 											{
												"box" : 												{
													"fontname" : "Arial",
													"fontsize" : 13.0,
													"id" : "obj-69",
													"maxclass" : "message",
													"numinlets" : 2,
													"numoutlets" : 1,
													"outlettype" : [ "" ],
													"patching_rect" : [ 239.439941, 340.654846, 43.0, 23.0 ],
													"style" : "",
													"text" : "$1 20"
												}

											}
, 											{
												"box" : 												{
													"fontname" : "Arial",
													"fontsize" : 13.0,
													"id" : "obj-70",
													"maxclass" : "newobj",
													"numinlets" : 2,
													"numoutlets" : 2,
													"outlettype" : [ "signal", "bang" ],
													"patching_rect" : [ 239.439941, 376.654846, 53.0, 23.0 ],
													"style" : "",
													"text" : "line~ 0."
												}

											}
, 											{
												"box" : 												{
													"fontname" : "Arial",
													"fontsize" : 12.0,
													"id" : "obj-71",
													"maxclass" : "newobj",
													"numinlets" : 1,
													"numoutlets" : 1,
													"outlettype" : [ "signal" ],
													"patching_rect" : [ 239.439941, 600.58667, 41.0, 22.0 ],
													"style" : "",
													"text" : "mtof~"
												}

											}
, 											{
												"box" : 												{
													"fontname" : "Arial Bold",
													"fontsize" : 9.0,
													"id" : "obj-42",
													"maxclass" : "comment",
													"numinlets" : 1,
													"numoutlets" : 0,
													"patching_rect" : [ 1033.033691, 289.845551, 55.0, 17.0 ],
													"presentation" : 1,
													"presentation_rect" : [ 499.634399, 0.0, 55.0, 17.0 ],
													"style" : "",
													"text" : "CV3 (0-5v)",
													"textcolor" : [ 1.0, 1.0, 1.0, 1.0 ]
												}

											}
, 											{
												"box" : 												{
													"fontname" : "Arial Bold",
													"fontsize" : 9.0,
													"id" : "obj-41",
													"maxclass" : "comment",
													"numinlets" : 1,
													"numoutlets" : 0,
													"patching_rect" : [ 382.939941, 183.089142, 63.0, 17.0 ],
													"presentation" : 1,
													"presentation_rect" : [ 149.0, 0.0, 63.0, 17.0 ],
													"style" : "",
													"text" : "CV1 (1v/oct)",
													"textcolor" : [ 1.0, 1.0, 1.0, 1.0 ]
												}

											}
, 											{
												"box" : 												{
													"fontname" : "Arial",
													"fontsize" : 12.0,
													"id" : "obj-10",
													"maxclass" : "newobj",
													"numinlets" : 2,
													"numoutlets" : 1,
													"outlettype" : [ "int" ],
													"patching_rect" : [ 215.783691, 1375.747314, 32.5, 22.0 ],
													"style" : "",
													"text" : "+ 1"
												}

											}
, 											{
												"box" : 												{
													"fontname" : "Arial",
													"fontsize" : 12.0,
													"id" : "obj-9",
													"maxclass" : "newobj",
													"numinlets" : 3,
													"numoutlets" : 1,
													"outlettype" : [ "signal" ],
													"patching_rect" : [ 215.783691, 1420.747314, 195.5, 22.0 ],
													"style" : "",
													"text" : "selector~ 2 1"
												}

											}
, 											{
												"box" : 												{
													"comment" : "",
													"id" : "obj-6",
													"maxclass" : "outlet",
													"numinlets" : 1,
													"numoutlets" : 0,
													"patching_rect" : [ 215.783691, 1468.747314, 25.0, 25.0 ],
													"style" : ""
												}

											}
, 											{
												"box" : 												{
													"activedialcolor" : [ 0.278431, 0.839216, 1.0, 1.0 ],
													"activeneedlecolor" : [ 1.0, 1.0, 1.0, 0.6 ],
													"id" : "obj-11",
													"maxclass" : "live.dial",
													"numinlets" : 1,
													"numoutlets" : 2,
													"outlettype" : [ "", "float" ],
													"parameter_enable" : 1,
													"patching_rect" : [ 813.689941, 795.908081, 44.0, 47.0 ],
													"presentation" : 1,
													"presentation_rect" : [ 4.0, 97.669319, 44.0, 47.0 ],
													"saved_attribute_attributes" : 													{
														"valueof" : 														{
															"parameter_longname" : "Resonance",
															"parameter_shortname" : "Res",
															"parameter_type" : 0,
															"parameter_mmax" : 25.0,
															"parameter_initial_enable" : 1,
															"parameter_initial" : [ 0.75 ],
															"parameter_unitstyle" : 1,
															"parameter_exponent" : 1.5
														}

													}
,
													"textcolor" : [ 1.0, 1.0, 1.0, 0.6 ],
													"varname" : "Resonance"
												}

											}
, 											{
												"box" : 												{
													"fontname" : "Arial",
													"fontsize" : 12.0,
													"id" : "obj-17",
													"maxclass" : "newobj",
													"numinlets" : 2,
													"numoutlets" : 1,
													"outlettype" : [ "signal" ],
													"patching_rect" : [ 304.033691, 1375.747314, 36.0, 22.0 ],
													"style" : "",
													"text" : "*~ 5."
												}

											}
, 											{
												"box" : 												{
													"fontname" : "Arial",
													"fontsize" : 12.0,
													"id" : "obj-32",
													"maxclass" : "newobj",
													"numinlets" : 2,
													"numoutlets" : 1,
													"outlettype" : [ "signal" ],
													"patching_rect" : [ 304.033691, 1256.270996, 42.0, 22.0 ],
													"style" : "",
													"text" : "*~ 0.2"
												}

											}
, 											{
												"box" : 												{
													"activebgcolor" : [ 0.572549, 0.615686, 0.658824, 0.0 ],
													"activebgoncolor" : [ 0.278431, 0.839216, 1.0, 1.0 ],
													"activetextcolor" : [ 1.0, 1.0, 1.0, 0.57 ],
													"activetextoncolor" : [ 0.0, 0.019608, 0.078431, 1.0 ],
													"bgcolor" : [ 0.101961, 0.101961, 0.101961, 0.78 ],
													"bordercolor" : [ 0.0, 0.019608, 0.078431, 0.37 ],
													"id" : "obj-55",
													"maxclass" : "live.text",
													"numinlets" : 1,
													"numoutlets" : 2,
													"outlettype" : [ "", "" ],
													"parameter_enable" : 1,
													"patching_rect" : [ 215.783691, 1334.247314, 43.0, 19.0 ],
													"presentation" : 1,
													"presentation_rect" : [ 496.564941, 19.0, 52.0, 17.0 ],
													"saved_attribute_attributes" : 													{
														"valueof" : 														{
															"parameter_longname" : "power",
															"parameter_shortname" : "power",
															"parameter_type" : 2,
															"parameter_mmax" : 1.0,
															"parameter_enum" : [ "val1", "val2" ],
															"parameter_initial" : [ 0.0 ],
															"parameter_defer" : 1
														}

													}
,
													"text" : "bypass",
													"textcolor" : [ 1.0, 1.0, 1.0, 1.0 ],
													"texton" : "bypass",
													"varname" : "power[1]"
												}

											}
, 											{
												"box" : 												{
													"comment" : "",
													"id" : "obj-39",
													"maxclass" : "inlet",
													"numinlets" : 0,
													"numoutlets" : 1,
													"outlettype" : [ "signal" ],
													"patching_rect" : [ 303.533691, 1191.247314, 25.0, 25.0 ],
													"style" : ""
												}

											}
, 											{
												"box" : 												{
													"fontname" : "Arial",
													"fontsize" : 12.0,
													"id" : "obj-40",
													"maxclass" : "newobj",
													"numinlets" : 1,
													"numoutlets" : 4,
													"outlettype" : [ "", "", "", "" ],
													"patching_rect" : [ 21.439941, 107.18631, 59.5, 22.0 ],
													"restore" : 													{
														"CV1" : [ 100.0 ],
														"CV2" : [ 0.0 ],
														"CV3" : [ 0.0 ],
														"Freq" : [ 500.000061 ],
														"Gain" : [ 1.0 ],
														"Resonance" : [ 0.75 ],
														"filter_mode" : [ 1.0 ],
														"power[1]" : [ 0.0 ],
														"spectral" : [ 0.0 ]
													}
,
													"style" : "",
													"text" : "autopattr",
													"varname" : "u930006935"
												}

											}
, 											{
												"box" : 												{
													"fontname" : "Arial Bold",
													"fontsize" : 9.0,
													"id" : "obj-8",
													"maxclass" : "comment",
													"numinlets" : 1,
													"numoutlets" : 0,
													"patching_rect" : [ 257.033691, 1482.315552, 40.0, 17.0 ],
													"presentation" : 1,
													"presentation_rect" : [ 4.0, 206.151428, 40.0, 17.0 ],
													"style" : "",
													"text" : "Output",
													"textcolor" : [ 1.0, 1.0, 1.0, 1.0 ]
												}

											}
, 											{
												"box" : 												{
													"fontname" : "Arial Bold",
													"fontsize" : 9.0,
													"id" : "obj-19",
													"maxclass" : "comment",
													"numinlets" : 1,
													"numoutlets" : 0,
													"patching_rect" : [ 249.535583, 1191.247314, 38.0, 17.0 ],
													"presentation" : 1,
													"presentation_rect" : [ 2.0, 0.0, 38.0, 17.0 ],
													"style" : "",
													"text" : "Signal",
													"textcolor" : [ 1.0, 1.0, 1.0, 1.0 ]
												}

											}
, 											{
												"box" : 												{
													"fontname" : "Arial Bold",
													"fontsize" : 9.0,
													"id" : "obj-13",
													"maxclass" : "comment",
													"numinlets" : 1,
													"numoutlets" : 0,
													"patching_rect" : [ 21.439941, 34.4487, 102.0, 17.0 ],
													"presentation" : 1,
													"presentation_rect" : [ 2.0, 20.0, 102.0, 17.0 ],
													"style" : "",
													"text" : "CLASSROOM FILTER",
													"textcolor" : [ 1.0, 1.0, 1.0, 1.0 ]
												}

											}
, 											{
												"box" : 												{
													"angle" : 0.0,
													"background" : 1,
													"bgcolor" : [ 0.137255, 0.145098, 0.160784, 0.65 ],
													"id" : "obj-130",
													"maxclass" : "panel",
													"mode" : 0,
													"numinlets" : 1,
													"numoutlets" : 0,
													"patching_rect" : [ 21.439941, 18.711639, 37.0, 5.0 ],
													"presentation" : 1,
													"presentation_rect" : [ 0.0, 37.0, 561.0, 193.151428 ],
													"proportion" : 0.39,
													"rounded" : 0,
													"style" : ""
												}

											}
, 											{
												"box" : 												{
													"angle" : 0.0,
													"background" : 1,
													"bgcolor" : [ 0.367404, 0.389405, 0.430238, 1.0 ],
													"id" : "obj-131",
													"maxclass" : "panel",
													"mode" : 0,
													"numinlets" : 1,
													"numoutlets" : 0,
													"patching_rect" : [ 65.77713, 18.711639, 37.0, 5.0 ],
													"presentation" : 1,
													"presentation_rect" : [ 0.0, 18.0, 561.0, 186.838638 ],
													"proportion" : 0.39,
													"rounded" : 0,
													"style" : ""
												}

											}
, 											{
												"box" : 												{
													"angle" : 0.0,
													"background" : 1,
													"bgcolor" : [ 0.0, 0.0, 0.0, 1.0 ],
													"id" : "obj-135",
													"maxclass" : "panel",
													"mode" : 0,
													"numinlets" : 1,
													"numoutlets" : 0,
													"patching_rect" : [ 108.519226, 18.711639, 37.0, 5.0 ],
													"presentation" : 1,
													"presentation_rect" : [ 0.0, 0.0, 561.0, 230.151428 ],
													"proportion" : 0.39,
													"rounded" : 0,
													"style" : ""
												}

											}
 ],
										"lines" : [ 											{
												"patchline" : 												{
													"destination" : [ "obj-64", 0 ],
													"disabled" : 0,
													"hidden" : 0,
													"source" : [ "obj-1", 0 ]
												}

											}
, 											{
												"patchline" : 												{
													"destination" : [ "obj-9", 0 ],
													"disabled" : 0,
													"hidden" : 0,
													"source" : [ "obj-10", 0 ]
												}

											}
, 											{
												"patchline" : 												{
													"destination" : [ "obj-36", 7 ],
													"disabled" : 0,
													"hidden" : 0,
													"source" : [ "obj-11", 0 ]
												}

											}
, 											{
												"patchline" : 												{
													"destination" : [ "obj-37", 7 ],
													"disabled" : 0,
													"hidden" : 0,
													"source" : [ "obj-11", 0 ]
												}

											}
, 											{
												"patchline" : 												{
													"destination" : [ "obj-43", 2 ],
													"disabled" : 0,
													"hidden" : 0,
													"source" : [ "obj-11", 0 ]
												}

											}
, 											{
												"patchline" : 												{
													"destination" : [ "obj-7", 0 ],
													"disabled" : 0,
													"hidden" : 0,
													"source" : [ "obj-16", 0 ]
												}

											}
, 											{
												"patchline" : 												{
													"destination" : [ "obj-9", 1 ],
													"disabled" : 0,
													"hidden" : 0,
													"source" : [ "obj-17", 0 ]
												}

											}
, 											{
												"patchline" : 												{
													"destination" : [ "obj-91", 1 ],
													"disabled" : 0,
													"hidden" : 0,
													"source" : [ "obj-2", 0 ]
												}

											}
, 											{
												"patchline" : 												{
													"destination" : [ "obj-12", 0 ],
													"disabled" : 0,
													"hidden" : 0,
													"source" : [ "obj-25", 0 ]
												}

											}
, 											{
												"patchline" : 												{
													"destination" : [ "obj-25", 0 ],
													"disabled" : 0,
													"hidden" : 0,
													"source" : [ "obj-26", 0 ]
												}

											}
, 											{
												"patchline" : 												{
													"destination" : [ "obj-98", 0 ],
													"disabled" : 0,
													"hidden" : 1,
													"midpoints" : [ 570.106628, 1126.17041, 952.416138, 1126.17041, 952.416138, 759.67041, 759.439941, 759.67041 ],
													"source" : [ "obj-27", 0 ]
												}

											}
, 											{
												"patchline" : 												{
													"destination" : [ "obj-95", 0 ],
													"disabled" : 0,
													"hidden" : 1,
													"midpoints" : [ 513.273254, 1148.17041, 968.642334, 1148.17041, 968.642334, 748.17041, 700.011353, 748.17041 ],
													"source" : [ "obj-29", 0 ]
												}

											}
, 											{
												"patchline" : 												{
													"destination" : [ "obj-1", 0 ],
													"disabled" : 0,
													"hidden" : 0,
													"source" : [ "obj-3", 0 ]
												}

											}
, 											{
												"patchline" : 												{
													"destination" : [ "obj-49", 0 ],
													"disabled" : 0,
													"hidden" : 0,
													"source" : [ "obj-32", 0 ]
												}

											}
, 											{
												"patchline" : 												{
													"destination" : [ "obj-37", 5 ],
													"disabled" : 0,
													"hidden" : 0,
													"source" : [ "obj-35", 0 ]
												}

											}
, 											{
												"patchline" : 												{
													"destination" : [ "obj-27", 0 ],
													"disabled" : 0,
													"hidden" : 1,
													"source" : [ "obj-36", 2 ]
												}

											}
, 											{
												"patchline" : 												{
													"destination" : [ "obj-29", 0 ],
													"disabled" : 0,
													"hidden" : 1,
													"source" : [ "obj-36", 1 ]
												}

											}
, 											{
												"patchline" : 												{
													"destination" : [ "obj-38", 0 ],
													"disabled" : 0,
													"hidden" : 0,
													"source" : [ "obj-36", 1 ]
												}

											}
, 											{
												"patchline" : 												{
													"destination" : [ "obj-97", 0 ],
													"disabled" : 0,
													"hidden" : 0,
													"source" : [ "obj-36", 3 ]
												}

											}
, 											{
												"patchline" : 												{
													"destination" : [ "obj-69", 0 ],
													"disabled" : 0,
													"hidden" : 0,
													"source" : [ "obj-38", 0 ]
												}

											}
, 											{
												"patchline" : 												{
													"destination" : [ "obj-32", 0 ],
													"disabled" : 0,
													"hidden" : 0,
													"source" : [ "obj-39", 0 ]
												}

											}
, 											{
												"patchline" : 												{
													"destination" : [ "obj-9", 2 ],
													"disabled" : 0,
													"hidden" : 0,
													"source" : [ "obj-39", 0 ]
												}

											}
, 											{
												"patchline" : 												{
													"destination" : [ "obj-67", 0 ],
													"disabled" : 0,
													"hidden" : 0,
													"source" : [ "obj-4", 0 ]
												}

											}
, 											{
												"patchline" : 												{
													"destination" : [ "obj-49", 5 ],
													"disabled" : 0,
													"hidden" : 0,
													"source" : [ "obj-43", 4 ]
												}

											}
, 											{
												"patchline" : 												{
													"destination" : [ "obj-49", 4 ],
													"disabled" : 0,
													"hidden" : 0,
													"source" : [ "obj-43", 3 ]
												}

											}
, 											{
												"patchline" : 												{
													"destination" : [ "obj-49", 3 ],
													"disabled" : 0,
													"hidden" : 0,
													"source" : [ "obj-43", 2 ]
												}

											}
, 											{
												"patchline" : 												{
													"destination" : [ "obj-49", 2 ],
													"disabled" : 0,
													"hidden" : 0,
													"source" : [ "obj-43", 1 ]
												}

											}
, 											{
												"patchline" : 												{
													"destination" : [ "obj-49", 1 ],
													"disabled" : 0,
													"hidden" : 0,
													"source" : [ "obj-43", 0 ]
												}

											}
, 											{
												"patchline" : 												{
													"destination" : [ "obj-90", 1 ],
													"disabled" : 0,
													"hidden" : 0,
													"source" : [ "obj-46", 0 ]
												}

											}
, 											{
												"patchline" : 												{
													"destination" : [ "obj-53", 0 ],
													"disabled" : 0,
													"hidden" : 0,
													"source" : [ "obj-47", 0 ]
												}

											}
, 											{
												"patchline" : 												{
													"destination" : [ "obj-50", 0 ],
													"disabled" : 0,
													"hidden" : 0,
													"source" : [ "obj-48", 0 ]
												}

											}
, 											{
												"patchline" : 												{
													"destination" : [ "obj-17", 0 ],
													"disabled" : 0,
													"hidden" : 0,
													"source" : [ "obj-49", 0 ]
												}

											}
, 											{
												"patchline" : 												{
													"destination" : [ "obj-25", 1 ],
													"disabled" : 0,
													"hidden" : 0,
													"source" : [ "obj-49", 0 ]
												}

											}
, 											{
												"patchline" : 												{
													"destination" : [ "obj-4", 0 ],
													"disabled" : 0,
													"hidden" : 0,
													"source" : [ "obj-5", 0 ]
												}

											}
, 											{
												"patchline" : 												{
													"destination" : [ "obj-82", 0 ],
													"disabled" : 0,
													"hidden" : 0,
													"source" : [ "obj-50", 0 ]
												}

											}
, 											{
												"patchline" : 												{
													"destination" : [ "obj-5", 0 ],
													"disabled" : 0,
													"hidden" : 0,
													"source" : [ "obj-51", 0 ]
												}

											}
, 											{
												"patchline" : 												{
													"destination" : [ "obj-76", 0 ],
													"disabled" : 0,
													"hidden" : 0,
													"source" : [ "obj-53", 0 ]
												}

											}
, 											{
												"patchline" : 												{
													"destination" : [ "obj-16", 0 ],
													"disabled" : 0,
													"hidden" : 0,
													"source" : [ "obj-54", 0 ]
												}

											}
, 											{
												"patchline" : 												{
													"destination" : [ "obj-10", 0 ],
													"disabled" : 0,
													"hidden" : 0,
													"source" : [ "obj-55", 0 ]
												}

											}
, 											{
												"patchline" : 												{
													"destination" : [ "obj-57", 0 ],
													"disabled" : 0,
													"hidden" : 0,
													"source" : [ "obj-56", 0 ]
												}

											}
, 											{
												"patchline" : 												{
													"destination" : [ "obj-53", 1 ],
													"disabled" : 0,
													"hidden" : 0,
													"source" : [ "obj-57", 0 ]
												}

											}
, 											{
												"patchline" : 												{
													"destination" : [ "obj-35", 0 ],
													"disabled" : 0,
													"hidden" : 0,
													"source" : [ "obj-58", 0 ]
												}

											}
, 											{
												"patchline" : 												{
													"destination" : [ "obj-43", 0 ],
													"disabled" : 0,
													"hidden" : 0,
													"source" : [ "obj-58", 0 ]
												}

											}
, 											{
												"patchline" : 												{
													"destination" : [ "obj-36", 0 ],
													"disabled" : 0,
													"hidden" : 0,
													"source" : [ "obj-59", 1 ]
												}

											}
, 											{
												"patchline" : 												{
													"destination" : [ "obj-37", 0 ],
													"disabled" : 0,
													"hidden" : 0,
													"source" : [ "obj-59", 1 ]
												}

											}
, 											{
												"patchline" : 												{
													"destination" : [ "obj-43", 0 ],
													"disabled" : 0,
													"hidden" : 0,
													"source" : [ "obj-59", 1 ]
												}

											}
, 											{
												"patchline" : 												{
													"destination" : [ "obj-83", 0 ],
													"disabled" : 0,
													"hidden" : 0,
													"source" : [ "obj-60", 0 ]
												}

											}
, 											{
												"patchline" : 												{
													"destination" : [ "obj-92", 1 ],
													"disabled" : 0,
													"hidden" : 0,
													"source" : [ "obj-62", 0 ]
												}

											}
, 											{
												"patchline" : 												{
													"destination" : [ "obj-3", 0 ],
													"disabled" : 0,
													"hidden" : 0,
													"source" : [ "obj-63", 0 ]
												}

											}
, 											{
												"patchline" : 												{
													"destination" : [ "obj-65", 0 ],
													"disabled" : 0,
													"hidden" : 0,
													"source" : [ "obj-64", 0 ]
												}

											}
, 											{
												"patchline" : 												{
													"destination" : [ "obj-62", 1 ],
													"disabled" : 0,
													"hidden" : 0,
													"source" : [ "obj-65", 0 ]
												}

											}
, 											{
												"patchline" : 												{
													"destination" : [ "obj-68", 0 ],
													"disabled" : 0,
													"hidden" : 0,
													"source" : [ "obj-67", 0 ]
												}

											}
, 											{
												"patchline" : 												{
													"destination" : [ "obj-50", 1 ],
													"disabled" : 0,
													"hidden" : 0,
													"source" : [ "obj-68", 0 ]
												}

											}
, 											{
												"patchline" : 												{
													"destination" : [ "obj-70", 0 ],
													"disabled" : 0,
													"hidden" : 0,
													"source" : [ "obj-69", 0 ]
												}

											}
, 											{
												"patchline" : 												{
													"destination" : [ "obj-56", 0 ],
													"disabled" : 0,
													"hidden" : 0,
													"source" : [ "obj-7", 0 ]
												}

											}
, 											{
												"patchline" : 												{
													"destination" : [ "obj-90", 0 ],
													"disabled" : 0,
													"hidden" : 0,
													"source" : [ "obj-70", 0 ]
												}

											}
, 											{
												"patchline" : 												{
													"destination" : [ "obj-58", 0 ],
													"disabled" : 0,
													"hidden" : 0,
													"source" : [ "obj-71", 0 ]
												}

											}
, 											{
												"patchline" : 												{
													"destination" : [ "obj-78", 0 ],
													"disabled" : 0,
													"hidden" : 0,
													"source" : [ "obj-76", 0 ]
												}

											}
, 											{
												"patchline" : 												{
													"destination" : [ "obj-46", 0 ],
													"disabled" : 0,
													"hidden" : 0,
													"source" : [ "obj-78", 0 ]
												}

											}
, 											{
												"patchline" : 												{
													"destination" : [ "obj-2", 0 ],
													"disabled" : 0,
													"hidden" : 0,
													"source" : [ "obj-81", 0 ]
												}

											}
, 											{
												"patchline" : 												{
													"destination" : [ "obj-81", 0 ],
													"disabled" : 0,
													"hidden" : 0,
													"source" : [ "obj-82", 0 ]
												}

											}
, 											{
												"patchline" : 												{
													"destination" : [ "obj-84", 0 ],
													"disabled" : 0,
													"hidden" : 0,
													"source" : [ "obj-83", 0 ]
												}

											}
, 											{
												"patchline" : 												{
													"destination" : [ "obj-62", 0 ],
													"disabled" : 0,
													"hidden" : 0,
													"source" : [ "obj-84", 0 ]
												}

											}
, 											{
												"patchline" : 												{
													"destination" : [ "obj-6", 0 ],
													"disabled" : 0,
													"hidden" : 0,
													"source" : [ "obj-9", 0 ]
												}

											}
, 											{
												"patchline" : 												{
													"destination" : [ "obj-91", 0 ],
													"disabled" : 0,
													"hidden" : 0,
													"source" : [ "obj-90", 0 ]
												}

											}
, 											{
												"patchline" : 												{
													"destination" : [ "obj-92", 0 ],
													"disabled" : 0,
													"hidden" : 0,
													"source" : [ "obj-91", 0 ]
												}

											}
, 											{
												"patchline" : 												{
													"destination" : [ "obj-71", 0 ],
													"disabled" : 0,
													"hidden" : 0,
													"source" : [ "obj-92", 0 ]
												}

											}
, 											{
												"patchline" : 												{
													"destination" : [ "obj-36", 5 ],
													"disabled" : 0,
													"hidden" : 0,
													"source" : [ "obj-95", 0 ]
												}

											}
, 											{
												"patchline" : 												{
													"destination" : [ "obj-38", 0 ],
													"disabled" : 0,
													"hidden" : 0,
													"source" : [ "obj-95", 0 ]
												}

											}
, 											{
												"patchline" : 												{
													"destination" : [ "obj-11", 0 ],
													"disabled" : 0,
													"hidden" : 0,
													"midpoints" : [ 626.939941, 1085.17041, 907.064941, 1085.17041, 907.064941, 784.908081, 823.189941, 784.908081 ],
													"source" : [ "obj-97", 0 ]
												}

											}
, 											{
												"patchline" : 												{
													"destination" : [ "obj-36", 6 ],
													"disabled" : 0,
													"hidden" : 0,
													"source" : [ "obj-98", 0 ]
												}

											}
, 											{
												"patchline" : 												{
													"destination" : [ "obj-37", 6 ],
													"disabled" : 0,
													"hidden" : 0,
													"source" : [ "obj-98", 0 ]
												}

											}
, 											{
												"patchline" : 												{
													"destination" : [ "obj-43", 1 ],
													"disabled" : 0,
													"hidden" : 0,
													"source" : [ "obj-98", 0 ]
												}

											}
 ]
									}
,
									"patching_rect" : [ 19.0, 254.0, 558.0, 223.0 ],
									"varname" : "ClassroomFilter",
									"viewvisibility" : 1
								}

							}
, 							{
								"box" : 								{
									"bgmode" : 0,
									"border" : 0,
									"clickthrough" : 0,
									"enablehscroll" : 0,
									"enablevscroll" : 0,
									"extract" : 1,
									"id" : "obj-4",
									"lockeddragscroll" : 0,
									"maxclass" : "bpatcher",
									"name" : "bp.Cloud.maxpat",
									"numinlets" : 4,
									"numoutlets" : 1,
									"offset" : [ 0.0, 0.0 ],
									"outlettype" : [ "signal" ],
									"patching_rect" : [ 19.0, 109.5, 280.0, 116.0 ],
									"varname" : "bp.Cloud",
									"viewvisibility" : 1
								}

							}
, 							{
								"box" : 								{
									"bubble" : 1,
									"id" : "obj-1",
									"linecount" : 3,
									"maxclass" : "comment",
									"numinlets" : 1,
									"numoutlets" : 0,
									"patching_rect" : [ 583.0, 345.5, 163.0, 54.0 ],
									"style" : "",
									"text" : "Try selecting different\nbands to hear how the \nfilter effects the sound"
								}

							}
, 							{
								"box" : 								{
									"bubble" : 1,
									"id" : "obj-7",
									"linecount" : 2,
									"maxclass" : "comment",
									"numinlets" : 1,
									"numoutlets" : 0,
									"patching_rect" : [ 583.0, 127.5, 186.0, 40.0 ],
									"style" : "",
									"text" : "The LFO in modulation the filter cutoff"
								}

							}
, 							{
								"box" : 								{
									"bgmode" : 0,
									"border" : 0,
									"clickthrough" : 0,
									"enablehscroll" : 0,
									"enablevscroll" : 0,
									"extract" : 1,
									"id" : "obj-10",
									"lockeddragscroll" : 0,
									"maxclass" : "bpatcher",
									"name" : "bp.Stereo.maxpat",
									"numinlets" : 2,
									"numoutlets" : 0,
									"offset" : [ 0.0, 0.0 ],
									"patching_rect" : [ 19.0, 527.0, 148.0, 116.0 ],
									"varname" : "bp.Stereo",
									"viewvisibility" : 1
								}

							}
, 							{
								"box" : 								{
									"fontname" : "Arial",
									"fontsize" : 13.0,
									"id" : "obj-5",
									"maxclass" : "comment",
									"numinlets" : 1,
									"numoutlets" : 0,
									"patching_rect" : [ 7.0, 69.0, 626.0, 21.0 ],
									"style" : "",
									"text" : "A multband audio filter. A versatile and useful module for manipulating audio signals.",
									"textcolor" : [ 0.2, 0.2, 0.2, 1.0 ],
									"varname" : "autohelp_top_digest"
								}

							}
, 							{
								"box" : 								{
									"fontname" : "Arial",
									"fontsize" : 48.0,
									"id" : "obj-11",
									"maxclass" : "comment",
									"numinlets" : 1,
									"numoutlets" : 0,
									"patching_rect" : [ 7.0, 7.0, 387.0, 60.0 ],
									"style" : "",
									"text" : "Classroom Filter",
									"textcolor" : [ 0.2, 0.2, 0.2, 1.0 ],
									"varname" : "autohelp_top_digest[2]"
								}

							}
 ],
						"lines" : [ 							{
								"patchline" : 								{
									"destination" : [ "obj-10", 1 ],
									"disabled" : 0,
									"hidden" : 0,
									"source" : [ "obj-38", 0 ]
								}

							}
, 							{
								"patchline" : 								{
									"destination" : [ "obj-10", 0 ],
									"disabled" : 0,
									"hidden" : 0,
									"source" : [ "obj-38", 0 ]
								}

							}
, 							{
								"patchline" : 								{
									"destination" : [ "obj-38", 0 ],
									"disabled" : 0,
									"hidden" : 0,
									"source" : [ "obj-4", 0 ]
								}

							}
, 							{
								"patchline" : 								{
									"destination" : [ "obj-38", 1 ],
									"disabled" : 0,
									"hidden" : 0,
									"source" : [ "obj-6", 0 ]
								}

							}
 ],
						"bgfillcolor_type" : "gradient",
						"bgfillcolor_color1" : [ 0.454902, 0.462745, 0.482353, 1.0 ],
						"bgfillcolor_color2" : [ 0.290196, 0.309804, 0.301961, 1.0 ],
						"bgfillcolor_color" : [ 0.290196, 0.309804, 0.301961, 1.0 ],
						"bgfillcolor_angle" : 270.0,
						"bgfillcolor_proportion" : 0.39
					}
,
					"patching_rect" : [ 36.0, 27.0, 50.0, 22.0 ],
					"saved_object_attributes" : 					{
						"description" : "",
						"digest" : "",
						"fontsize" : 13.0,
						"globalpatchername" : "",
						"style" : "",
						"tags" : ""
					}
,
					"style" : "",
					"text" : "p basic",
					"varname" : "basic_tab"
				}

			}
 ],
		"lines" : [ 			{
				"patchline" : 				{
					"destination" : [ "obj-20", 1 ],
					"disabled" : 0,
					"hidden" : 0,
					"source" : [ "obj-13", 0 ]
				}

			}
, 			{
				"patchline" : 				{
					"destination" : [ "obj-13", 0 ],
					"disabled" : 0,
					"hidden" : 0,
					"source" : [ "obj-17", 0 ]
				}

			}
, 			{
				"patchline" : 				{
					"destination" : [ "obj-13", 0 ],
					"disabled" : 0,
					"hidden" : 0,
					"source" : [ "obj-21", 0 ]
				}

			}
 ],
		"parameters" : 		{
			"obj-2::obj-38::obj-51" : [ "CV2[1]", "CV2", 0 ],
			"obj-2::obj-6::obj-12" : [ "Mute[2]", "Mute", 0 ],
			"obj-2::obj-38::obj-26" : [ "spectral", "spectral", 0 ],
			"obj-2::obj-6::obj-20" : [ "Frequency", "Freq", 0 ],
			"obj-2::obj-4::obj-106" : [ "CV3", "CV3", 0 ],
			"obj-2::obj-38::obj-95" : [ "Freq[1]", "Freq", 0 ],
			"obj-2::obj-4::obj-46" : [ "Offset", "Offset", 0 ],
			"obj-2::obj-10::obj-52" : [ "Level", "Level", 0 ],
			"obj-2::obj-38::obj-63" : [ "CV3[1]", "CV3", 0 ],
			"obj-2::obj-4::obj-107" : [ "Linear", "Linear", 0 ],
			"obj-2::obj-38::obj-55" : [ "power", "power", 0 ],
			"obj-2::obj-38::obj-98" : [ "Gain", "Gain", 0 ],
			"obj-2::obj-38::obj-54" : [ "CV1", "CV1", 0 ],
			"obj-2::obj-10::obj-55" : [ "DSP", "DSP", 0 ],
			"obj-2::obj-10::obj-22" : [ "Mute", "Mute", 0 ],
			"obj-2::obj-10::obj-56" : [ "OutputChannel", "OutputChannel", 0 ],
			"obj-2::obj-4::obj-51" : [ "Fatness", "Fatness", 0 ],
			"obj-2::obj-38::obj-11" : [ "Resonance", "Res", 0 ],
			"obj-2::obj-4::obj-129" : [ "CV2", "CV2", 0 ],
			"obj-2::obj-4::obj-24" : [ "Freq", "Freq", 0 ],
			"obj-2::obj-4::obj-20" : [ "Mute[1]", "Mute", 0 ],
			"obj-2::obj-4::obj-45" : [ "TimeMode", "TimeMode", 1 ],
			"obj-2::obj-4::obj-331" : [ "WaveformCloud", "Waveform", 0 ],
			"obj-2::obj-38::obj-59" : [ "filter_mode", "filter_mode", 0 ]
		}
,
		"dependency_cache" : [ 			{
				"name" : "bp.Stereo.maxpat",
				"bootpath" : "C74:/packages/Beap/clippings/BEAP/Output",
				"type" : "JSON",
				"implicit" : 1
			}
, 			{
				"name" : "bp.Cloud.maxpat",
				"bootpath" : "C74:/packages/Beap/clippings/BEAP/Oscillator",
				"type" : "JSON",
				"implicit" : 1
			}
, 			{
				"name" : "bp.LFO.maxpat",
				"bootpath" : "C74:/packages/Beap/clippings/BEAP/LFO",
				"type" : "JSON",
				"implicit" : 1
			}
 ],
		"embedsnapshot" : 1,
		"snapshot" : 		{
			"filetype" : "C74Snapshot",
			"version" : 1,
			"name" : "bp.Classroom Filter.maxhelp",
			"origin" : "bp.Classroom Filter.maxhelp",
			"type" : "patcher",
			"subtype" : "Undefined",
			"snapshot" : 			{
				"name" : "bp.Classroom Filter.maxhelp",
				"valuedictionary" : 				{
					"parameter_values" : 					{
						"CV1" : 100.0,
						"CV2" : 0.0,
						"CV2[1]" : 0.0,
						"CV3" : 0.0,
						"CV3[1]" : 0.0,
						"DSP" : 1.0,
						"Fatness" : 2.366432,
						"Freq" : 6763.828125,
						"Freq[1]" : 7886.054199,
						"Frequency" : 30.835375,
						"Gain" : 4.0,
						"Level" : -3.475141,
						"Linear" : 0.0,
						"Mute" : 0.0,
						"Mute[1]" : 0.0,
						"Mute[2]" : 0.0,
						"Offset" : 0.0,
						"OutputChannel" : 0.0,
						"Resonance" : 2.413723,
						"WaveformCloud" : 0.0,
						"filter_mode" : 1.0,
						"power" : 0.0,
						"spectral" : 0.0,
						"TimeMode" : 1.0
					}

				}

			}

		}

	}

}
