{
	"patcher" : 	{
		"fileversion" : 1,
		"appversion" : 		{
			"major" : 7,
			"minor" : 0,
			"revision" : 3,
			"architecture" : "x86",
			"modernui" : 1
		}
,
		"rect" : [ 70.0, 96.0, 780.0, 750.0 ],
		"bglocked" : 0,
		"openinpresentation" : 0,
		"default_fontsize" : 12.0,
		"default_fontface" : 0,
		"default_fontname" : "Arial",
		"gridonopen" : 1,
		"gridsize" : [ 15.0, 15.0 ],
		"gridsnaponopen" : 1,
		"objectsnaponopen" : 1,
		"statusbarvisible" : 2,
		"toolbarvisible" : 1,
		"lefttoolbarpinned" : 0,
		"toptoolbarpinned" : 0,
		"righttoolbarpinned" : 0,
		"bottomtoolbarpinned" : 0,
		"toolbars_unpinned_last_save" : 0,
		"tallnewobj" : 0,
		"boxanimatetime" : 200,
		"enablehscroll" : 1,
		"enablevscroll" : 1,
		"devicewidth" : 0.0,
		"description" : "",
		"digest" : "",
		"tags" : "",
		"style" : "",
		"subpatcher_template" : "",
		"showrootpatcherontab" : 0,
		"showontab" : 0,
		"boxes" : [ 			{
				"box" : 				{
					"fontname" : "Arial",
					"fontsize" : 12.0,
					"id" : "obj-21",
					"maxclass" : "message",
					"numinlets" : 2,
					"numoutlets" : 1,
					"outlettype" : [ "" ],
					"patching_rect" : [ 740.0, 291.0, 244.0, 22.0 ],
					"style" : "",
					"text" : "window size 20 60 1023 768, window exec"
				}

			}
, 			{
				"box" : 				{
					"fontname" : "Arial",
					"fontsize" : 12.0,
					"id" : "obj-20",
					"maxclass" : "message",
					"numinlets" : 2,
					"numoutlets" : 1,
					"outlettype" : [ "" ],
					"patching_rect" : [ 740.0, 424.0, 182.0, 22.0 ],
					"style" : "",
					"text" : "window size 20 60 922 728"
				}

			}
, 			{
				"box" : 				{
					"fontname" : "Arial",
					"fontsize" : 12.0,
					"id" : "obj-17",
					"maxclass" : "message",
					"numinlets" : 2,
					"numoutlets" : 1,
					"outlettype" : [ "" ],
					"patching_rect" : [ 765.0, 327.0, 94.0, 22.0 ],
					"style" : "",
					"text" : "window getsize"
				}

			}
, 			{
				"box" : 				{
					"fontname" : "Arial",
					"fontsize" : 12.0,
					"id" : "obj-13",
					"maxclass" : "newobj",
					"numinlets" : 1,
					"numoutlets" : 2,
					"outlettype" : [ "", "" ],
					"patching_rect" : [ 740.0, 369.0, 71.0, 22.0 ],
					"save" : [ "#N", "thispatcher", ";", "#Q", "end", ";" ],
					"style" : "",
					"text" : "thispatcher"
				}

			}
, 			{
				"box" : 				{
					"fontname" : "Arial",
					"fontsize" : 12.0,
					"id" : "obj-2",
					"maxclass" : "newobj",
					"numinlets" : 0,
					"numoutlets" : 0,
					"patcher" : 					{
						"fileversion" : 1,
						"appversion" : 						{
							"major" : 7,
							"minor" : 0,
							"revision" : 3,
							"architecture" : "x86",
							"modernui" : 1
						}
,
						"rect" : [ 70.0, 122.0, 780.0, 724.0 ],
						"bgcolor" : [ 0.88, 0.88, 0.88, 1.0 ],
						"bglocked" : 0,
						"openinpresentation" : 0,
						"default_fontsize" : 13.0,
						"default_fontface" : 0,
						"default_fontname" : "Arial",
						"gridonopen" : 1,
						"gridsize" : [ 5.0, 5.0 ],
						"gridsnaponopen" : 1,
						"objectsnaponopen" : 1,
						"statusbarvisible" : 2,
						"toolbarvisible" : 1,
						"lefttoolbarpinned" : 0,
						"toptoolbarpinned" : 0,
						"righttoolbarpinned" : 0,
						"bottomtoolbarpinned" : 0,
						"toolbars_unpinned_last_save" : 0,
						"tallnewobj" : 0,
						"boxanimatetime" : 200,
						"enablehscroll" : 1,
						"enablevscroll" : 1,
						"devicewidth" : 0.0,
						"description" : "",
						"digest" : "",
						"tags" : "",
						"style" : "",
						"subpatcher_template" : "",
						"showontab" : 1,
						"boxes" : [ 							{
								"box" : 								{
									"bubble" : 1,
									"bubbleside" : 0,
									"id" : "obj-12",
									"maxclass" : "comment",
									"numinlets" : 1,
									"numoutlets" : 0,
									"patching_rect" : [ 278.0, 659.0, 337.0, 40.0 ],
									"style" : "",
									"text" : "Try changing the ADSR setting for different modulation"
								}

							}
, 							{
								"box" : 								{
									"bubble" : 1,
									"bubbleside" : 3,
									"id" : "obj-9",
									"linecount" : 2,
									"maxclass" : "comment",
									"numinlets" : 1,
									"numoutlets" : 0,
									"patching_rect" : [ 459.0, 459.5, 150.0, 40.0 ],
									"style" : "",
									"text" : "Try increasing the Metro"
								}

							}
, 							{
								"box" : 								{
									"bgmode" : 0,
									"border" : 0,
									"clickthrough" : 0,
									"embed" : 1,
									"enablehscroll" : 0,
									"enablevscroll" : 0,
									"id" : "obj-10",
									"lockeddragscroll" : 0,
									"maxclass" : "bpatcher",
									"numinlets" : 1,
									"numoutlets" : 1,
									"offset" : [ 0.0, 0.0 ],
									"outlettype" : [ "signal" ],
									"patcher" : 									{
										"fileversion" : 1,
										"appversion" : 										{
											"major" : 7,
											"minor" : 0,
											"revision" : 3,
											"architecture" : "x86",
											"modernui" : 1
										}
,
										"rect" : [ 687.0, 667.0, 110.0, 116.0 ],
										"bgcolor" : [ 1.0, 1.0, 1.0, 0.0 ],
										"bglocked" : 0,
										"openinpresentation" : 1,
										"default_fontsize" : 12.0,
										"default_fontface" : 0,
										"default_fontname" : "Arial",
										"gridonopen" : 1,
										"gridsize" : [ 15.0, 15.0 ],
										"gridsnaponopen" : 1,
										"objectsnaponopen" : 1,
										"statusbarvisible" : 1,
										"toolbarvisible" : 1,
										"lefttoolbarpinned" : 0,
										"toptoolbarpinned" : 0,
										"righttoolbarpinned" : 0,
										"bottomtoolbarpinned" : 0,
										"toolbars_unpinned_last_save" : 0,
										"tallnewobj" : 0,
										"boxanimatetime" : 200,
										"enablehscroll" : 1,
										"enablevscroll" : 1,
										"devicewidth" : 0.0,
										"description" : "",
										"digest" : "",
										"tags" : "",
										"style" : "",
										"subpatcher_template" : "",
										"boxes" : [ 											{
												"box" : 												{
													"id" : "obj-5",
													"linecount" : 2,
													"maxclass" : "comment",
													"numinlets" : 1,
													"numoutlets" : 0,
													"patching_rect" : [ 25.0, 100.0, 225.0, 33.0 ],
													"style" : "",
													"text" : "## Produce a gate signal of a specified duration from a trigger input ##"
												}

											}
, 											{
												"box" : 												{
													"fontname" : "Arial",
													"fontsize" : 12.0,
													"id" : "obj-44",
													"maxclass" : "newobj",
													"numinlets" : 1,
													"numoutlets" : 2,
													"outlettype" : [ "int", "int" ],
													"patching_rect" : [ 400.008545, 192.207657, 34.0, 22.0 ],
													"style" : "",
													"text" : "t 0 1"
												}

											}
, 											{
												"box" : 												{
													"fontname" : "Arial",
													"fontsize" : 12.0,
													"id" : "obj-43",
													"maxclass" : "newobj",
													"numinlets" : 1,
													"numoutlets" : 2,
													"outlettype" : [ "int", "int" ],
													"patching_rect" : [ 360.008545, 192.207657, 34.0, 22.0 ],
													"style" : "",
													"text" : "t 1 0"
												}

											}
, 											{
												"box" : 												{
													"fontname" : "Arial",
													"fontsize" : 12.0,
													"id" : "obj-42",
													"maxclass" : "newobj",
													"numinlets" : 1,
													"numoutlets" : 2,
													"outlettype" : [ "int", "int" ],
													"patching_rect" : [ 315.008545, 192.207657, 34.0, 22.0 ],
													"style" : "",
													"text" : "t 0 0"
												}

											}
, 											{
												"box" : 												{
													"fontname" : "Arial",
													"fontsize" : 12.0,
													"id" : "obj-41",
													"maxclass" : "newobj",
													"numinlets" : 4,
													"numoutlets" : 4,
													"outlettype" : [ "bang", "bang", "bang", "" ],
													"patching_rect" : [ 315.008545, 144.615158, 146.5, 22.0 ],
													"style" : "",
													"text" : "sel 0 1 2"
												}

											}
, 											{
												"box" : 												{
													"activebgcolor" : [ 0.917647, 0.94902, 0.054902, 0.0 ],
													"activebgoncolor" : [ 0.278431, 0.839216, 1.0, 1.0 ],
													"bgcolor" : [ 0.917647, 0.94902, 0.054902, 0.0 ],
													"bgoncolor" : [ 0.917647, 0.94902, 0.054902, 0.0 ],
													"bordercolor" : [ 1.0, 1.0, 1.0, 0.6 ],
													"focusbordercolor" : [ 1.0, 1.0, 1.0, 0.6 ],
													"id" : "obj-40",
													"maxclass" : "live.tab",
													"num_lines_patching" : 3,
													"num_lines_presentation" : 3,
													"numinlets" : 1,
													"numoutlets" : 3,
													"outlettype" : [ "", "", "float" ],
													"parameter_enable" : 1,
													"patching_rect" : [ 315.008545, 63.907501, 127.0, 55.707657 ],
													"presentation" : 1,
													"presentation_rect" : [ 54.0, 40.898033, 52.0, 51.788391 ],
													"saved_attribute_attributes" : 													{
														"valueof" : 														{
															"parameter_longname" : "live.tab",
															"parameter_shortname" : "live.tab",
															"parameter_type" : 2,
															"parameter_enum" : [ "Next", "Hold", "Trunc" ],
															"parameter_initial_enable" : 1,
															"parameter_initial" : [ 1 ],
															"parameter_unitstyle" : 0
														}

													}
,
													"textcolor" : [ 1.0, 1.0, 1.0, 0.6 ],
													"varname" : "live.tab"
												}

											}
, 											{
												"box" : 												{
													"fontname" : "Arial",
													"fontsize" : 12.0,
													"id" : "obj-38",
													"maxclass" : "message",
													"numinlets" : 2,
													"numoutlets" : 1,
													"outlettype" : [ "" ],
													"patching_rect" : [ 315.008545, 254.207657, 50.0, 22.0 ],
													"style" : "",
													"text" : "hold $1"
												}

											}
, 											{
												"box" : 												{
													"fontname" : "Arial",
													"fontsize" : 12.0,
													"id" : "obj-35",
													"maxclass" : "message",
													"numinlets" : 2,
													"numoutlets" : 1,
													"outlettype" : [ "" ],
													"patching_rect" : [ 375.008545, 254.207657, 67.0, 22.0 ],
													"style" : "",
													"text" : "overlap $1"
												}

											}
, 											{
												"box" : 												{
													"fontname" : "Arial",
													"fontsize" : 12.0,
													"id" : "obj-32",
													"linecount" : 3,
													"maxclass" : "comment",
													"numinlets" : 1,
													"numoutlets" : 0,
													"patching_rect" : [ 465.0, 131.115158, 192.0, 47.0 ],
													"style" : "",
													"text" : "If new gate overlaps existing one, no gate is produced until next trigger"
												}

											}
, 											{
												"box" : 												{
													"fontname" : "Arial",
													"fontsize" : 12.0,
													"id" : "obj-9",
													"maxclass" : "message",
													"numinlets" : 2,
													"numoutlets" : 1,
													"outlettype" : [ "" ],
													"patching_rect" : [ 465.0, 254.207657, 50.0, 22.0 ],
													"style" : "",
													"text" : "time $1"
												}

											}
, 											{
												"box" : 												{
													"fontname" : "Arial",
													"fontsize" : 12.0,
													"id" : "obj-3",
													"maxclass" : "newobj",
													"numinlets" : 1,
													"numoutlets" : 1,
													"outlettype" : [ "signal" ],
													"patcher" : 													{
														"fileversion" : 1,
														"appversion" : 														{
															"major" : 7,
															"minor" : 0,
															"revision" : 3,
															"architecture" : "x86",
															"modernui" : 1
														}
,
														"rect" : [ 50.0, 94.0, 712.0, 618.0 ],
														"bgcolor" : [ 0.9, 0.9, 0.9, 1.0 ],
														"editing_bgcolor" : [ 0.9, 0.9, 0.9, 1.0 ],
														"bglocked" : 0,
														"openinpresentation" : 0,
														"default_fontsize" : 10.0,
														"default_fontface" : 0,
														"default_fontname" : "Arial Bold",
														"gridonopen" : 1,
														"gridsize" : [ 15.0, 15.0 ],
														"gridsnaponopen" : 1,
														"objectsnaponopen" : 1,
														"statusbarvisible" : 2,
														"toolbarvisible" : 1,
														"lefttoolbarpinned" : 0,
														"toptoolbarpinned" : 0,
														"righttoolbarpinned" : 0,
														"bottomtoolbarpinned" : 0,
														"toolbars_unpinned_last_save" : 0,
														"tallnewobj" : 0,
														"boxanimatetime" : 200,
														"enablehscroll" : 1,
														"enablevscroll" : 1,
														"devicewidth" : 0.0,
														"description" : "",
														"digest" : "",
														"tags" : "",
														"style" : "",
														"subpatcher_template" : "",
														"boxes" : [ 															{
																"box" : 																{
																	"fontname" : "Arial Bold",
																	"fontsize" : 10.0,
																	"id" : "obj-43",
																	"linecount" : 4,
																	"maxclass" : "comment",
																	"numinlets" : 1,
																	"numoutlets" : 0,
																	"patching_rect" : [ 2.0, -1.5, 227.0, 51.0 ],
																	"style" : "",
																	"text" : "In hold mode, gates can overlap continuously.  With hold off, if a new gate is triggered while the gate is open, no new gate occurs until the next trigger."
																}

															}
, 															{
																"box" : 																{
																	"fontname" : "Arial Bold",
																	"fontsize" : 10.0,
																	"id" : "obj-42",
																	"maxclass" : "newobj",
																	"numinlets" : 0,
																	"numoutlets" : 1,
																	"outlettype" : [ "" ],
																	"patching_rect" : [ 191.0, 44.0, 73.0, 18.0 ],
																	"style" : "",
																	"text" : "param hold 0"
																}

															}
, 															{
																"box" : 																{
																	"fontname" : "Arial Bold",
																	"fontsize" : 10.0,
																	"id" : "obj-41",
																	"maxclass" : "comment",
																	"numinlets" : 1,
																	"numoutlets" : 0,
																	"patching_rect" : [ 333.0, 517.0, 48.0, 18.0 ],
																	"style" : "",
																	"text" : "Overlap"
																}

															}
, 															{
																"box" : 																{
																	"fontname" : "Arial Bold",
																	"fontsize" : 10.0,
																	"id" : "obj-39",
																	"maxclass" : "newobj",
																	"numinlets" : 1,
																	"numoutlets" : 1,
																	"outlettype" : [ "" ],
																	"patching_rect" : [ 305.0, 410.0, 19.0, 18.0 ],
																	"style" : "",
																	"text" : "!"
																}

															}
, 															{
																"box" : 																{
																	"fontname" : "Arial Bold",
																	"fontsize" : 10.0,
																	"id" : "obj-38",
																	"maxclass" : "newobj",
																	"numinlets" : 3,
																	"numoutlets" : 1,
																	"outlettype" : [ "" ],
																	"patching_rect" : [ 278.0, 517.0, 46.0, 18.0 ],
																	"style" : "",
																	"text" : "switch"
																}

															}
, 															{
																"box" : 																{
																	"fontname" : "Arial Bold",
																	"fontsize" : 10.0,
																	"id" : "obj-37",
																	"maxclass" : "newobj",
																	"numinlets" : 2,
																	"numoutlets" : 1,
																	"outlettype" : [ "" ],
																	"patching_rect" : [ 305.0, 442.0, 53.5, 18.0 ],
																	"style" : "",
																	"text" : "gate"
																}

															}
, 															{
																"box" : 																{
																	"fontname" : "Arial Bold",
																	"fontsize" : 10.0,
																	"id" : "obj-36",
																	"maxclass" : "comment",
																	"numinlets" : 1,
																	"numoutlets" : 0,
																	"patching_rect" : [ 307.0, 341.0, 95.0, 18.0 ],
																	"style" : "",
																	"text" : "Under the count..."
																}

															}
, 															{
																"box" : 																{
																	"fontname" : "Arial Bold",
																	"fontsize" : 10.0,
																	"id" : "obj-34",
																	"linecount" : 2,
																	"maxclass" : "comment",
																	"numinlets" : 1,
																	"numoutlets" : 0,
																	"patching_rect" : [ 319.0, 467.0, 150.0, 29.0 ],
																	"style" : "",
																	"text" : "For anything but the rising edge, allow it to pass"
																}

															}
, 															{
																"box" : 																{
																	"fontname" : "Arial Bold",
																	"fontsize" : 10.0,
																	"id" : "obj-24",
																	"maxclass" : "newobj",
																	"numinlets" : 0,
																	"numoutlets" : 1,
																	"outlettype" : [ "" ],
																	"patching_rect" : [ 218.0, 82.0, 19.0, 18.0 ],
																	"style" : "",
																	"text" : "1"
																}

															}
, 															{
																"box" : 																{
																	"fontname" : "Arial Bold",
																	"fontsize" : 10.0,
																	"id" : "obj-23",
																	"maxclass" : "newobj",
																	"numinlets" : 3,
																	"numoutlets" : 1,
																	"outlettype" : [ "" ],
																	"patching_rect" : [ 191.0, 108.0, 46.0, 18.0 ],
																	"style" : "",
																	"text" : "switch"
																}

															}
, 															{
																"box" : 																{
																	"fontname" : "Arial Bold",
																	"fontsize" : 10.0,
																	"id" : "obj-22",
																	"maxclass" : "newobj",
																	"numinlets" : 0,
																	"numoutlets" : 1,
																	"outlettype" : [ "" ],
																	"patching_rect" : [ 203.0, 478.0, 87.0, 18.0 ],
																	"style" : "",
																	"text" : "param overlap 0"
																}

															}
, 															{
																"box" : 																{
																	"fontname" : "Arial Bold",
																	"fontsize" : 10.0,
																	"id" : "obj-21",
																	"maxclass" : "newobj",
																	"numinlets" : 1,
																	"numoutlets" : 1,
																	"outlettype" : [ "" ],
																	"patching_rect" : [ 278.0, 550.0, 23.0, 18.0 ],
																	"style" : "",
																	"text" : "* 5"
																}

															}
, 															{
																"box" : 																{
																	"fontname" : "Arial Bold",
																	"fontsize" : 10.0,
																	"id" : "obj-20",
																	"maxclass" : "newobj",
																	"numinlets" : 2,
																	"numoutlets" : 1,
																	"outlettype" : [ "" ],
																	"patching_rect" : [ 291.0, 159.0, 32.5, 18.0 ],
																	"style" : "",
																	"text" : "&&"
																}

															}
, 															{
																"box" : 																{
																	"fontname" : "Arial Bold",
																	"fontsize" : 10.0,
																	"id" : "obj-19",
																	"maxclass" : "newobj",
																	"numinlets" : 1,
																	"numoutlets" : 1,
																	"outlettype" : [ "" ],
																	"patching_rect" : [ 237.0, 430.0, 19.0, 18.0 ],
																	"style" : "",
																	"text" : "!"
																}

															}
, 															{
																"box" : 																{
																	"fontname" : "Arial Bold",
																	"fontsize" : 10.0,
																	"id" : "obj-18",
																	"maxclass" : "newobj",
																	"numinlets" : 1,
																	"numoutlets" : 1,
																	"outlettype" : [ "" ],
																	"patching_rect" : [ 237.0, 398.0, 44.0, 18.0 ],
																	"style" : "",
																	"text" : "history"
																}

															}
, 															{
																"box" : 																{
																	"fontname" : "Arial Bold",
																	"fontsize" : 10.0,
																	"id" : "obj-17",
																	"maxclass" : "newobj",
																	"numinlets" : 2,
																	"numoutlets" : 1,
																	"outlettype" : [ "" ],
																	"patching_rect" : [ 333.0, 257.0, 44.0, 18.0 ],
																	"style" : "",
																	"text" : "sah 0.5"
																}

															}
, 															{
																"box" : 																{
																	"fontname" : "Arial Bold",
																	"fontsize" : 10.0,
																	"id" : "obj-16",
																	"maxclass" : "newobj",
																	"numinlets" : 2,
																	"numoutlets" : 1,
																	"outlettype" : [ "" ],
																	"patching_rect" : [ 291.0, 360.0, 223.0, 18.0 ],
																	"style" : "",
																	"text" : "<"
																}

															}
, 															{
																"box" : 																{
																	"fontname" : "Arial Bold",
																	"fontsize" : 10.0,
																	"id" : "obj-15",
																	"maxclass" : "newobj",
																	"numinlets" : 1,
																	"numoutlets" : 1,
																	"outlettype" : [ "" ],
																	"patching_rect" : [ 423.0, 194.0, 66.0, 18.0 ],
																	"style" : "",
																	"text" : "mstosamps"
																}

															}
, 															{
																"box" : 																{
																	"fontname" : "Arial Bold",
																	"fontsize" : 10.0,
																	"id" : "obj-14",
																	"maxclass" : "newobj",
																	"numinlets" : 0,
																	"numoutlets" : 1,
																	"outlettype" : [ "" ],
																	"patching_rect" : [ 423.0, 164.0, 78.0, 18.0 ],
																	"style" : "",
																	"text" : "param time 10"
																}

															}
, 															{
																"box" : 																{
																	"fontname" : "Arial Bold",
																	"fontsize" : 10.0,
																	"id" : "obj-13",
																	"maxclass" : "newobj",
																	"numinlets" : 1,
																	"numoutlets" : 1,
																	"outlettype" : [ "" ],
																	"patching_rect" : [ 333.0, 183.0, 44.0, 18.0 ],
																	"style" : "",
																	"text" : "history"
																}

															}
, 															{
																"box" : 																{
																	"fontname" : "Arial Bold",
																	"fontsize" : 10.0,
																	"id" : "obj-12",
																	"maxclass" : "newobj",
																	"numinlets" : 0,
																	"numoutlets" : 1,
																	"outlettype" : [ "" ],
																	"patching_rect" : [ 312.0, 183.0, 19.0, 18.0 ],
																	"style" : "",
																	"text" : "0"
																}

															}
, 															{
																"box" : 																{
																	"fontname" : "Arial Bold",
																	"fontsize" : 10.0,
																	"id" : "obj-11",
																	"maxclass" : "newobj",
																	"numinlets" : 2,
																	"numoutlets" : 1,
																	"outlettype" : [ "" ],
																	"patching_rect" : [ 319.0, 298.0, 32.5, 18.0 ],
																	"style" : "",
																	"text" : "min"
																}

															}
, 															{
																"box" : 																{
																	"fontname" : "Arial Bold",
																	"fontsize" : 10.0,
																	"id" : "obj-10",
																	"maxclass" : "newobj",
																	"numinlets" : 3,
																	"numoutlets" : 1,
																	"outlettype" : [ "" ],
																	"patching_rect" : [ 291.0, 214.0, 61.0, 18.0 ],
																	"style" : "",
																	"text" : "switch"
																}

															}
, 															{
																"box" : 																{
																	"fontname" : "Arial Bold",
																	"fontsize" : 10.0,
																	"id" : "obj-7",
																	"maxclass" : "newobj",
																	"numinlets" : 1,
																	"numoutlets" : 1,
																	"outlettype" : [ "" ],
																	"patching_rect" : [ 291.0, 257.0, 25.0, 18.0 ],
																	"style" : "",
																	"text" : "+ 1"
																}

															}
, 															{
																"box" : 																{
																	"fontname" : "Arial Bold",
																	"fontsize" : 10.0,
																	"id" : "obj-6",
																	"maxclass" : "newobj",
																	"numinlets" : 1,
																	"numoutlets" : 1,
																	"outlettype" : [ "" ],
																	"patching_rect" : [ 305.0, 98.0, 25.0, 18.0 ],
																	"style" : "",
																	"text" : "> 0"
																}

															}
, 															{
																"box" : 																{
																	"fontname" : "Arial Bold",
																	"fontsize" : 10.0,
																	"id" : "obj-1",
																	"maxclass" : "newobj",
																	"numinlets" : 0,
																	"numoutlets" : 1,
																	"outlettype" : [ "" ],
																	"patching_rect" : [ 305.0, 15.0, 28.0, 18.0 ],
																	"style" : "",
																	"text" : "in 1"
																}

															}
, 															{
																"box" : 																{
																	"fontname" : "Arial Bold",
																	"fontsize" : 10.0,
																	"id" : "obj-3",
																	"maxclass" : "newobj",
																	"numinlets" : 1,
																	"numoutlets" : 1,
																	"outlettype" : [ "" ],
																	"patching_rect" : [ 305.0, 71.0, 34.0, 18.0 ],
																	"style" : "",
																	"text" : "delta"
																}

															}
, 															{
																"box" : 																{
																	"fontname" : "Arial Bold",
																	"fontsize" : 10.0,
																	"id" : "obj-4",
																	"maxclass" : "newobj",
																	"numinlets" : 1,
																	"numoutlets" : 0,
																	"patching_rect" : [ 278.0, 578.0, 34.0, 18.0 ],
																	"style" : "",
																	"text" : "out 1"
																}

															}
 ],
														"lines" : [ 															{
																"patchline" : 																{
																	"destination" : [ "obj-3", 0 ],
																	"disabled" : 0,
																	"hidden" : 0,
																	"source" : [ "obj-1", 0 ]
																}

															}
, 															{
																"patchline" : 																{
																	"destination" : [ "obj-7", 0 ],
																	"disabled" : 0,
																	"hidden" : 0,
																	"source" : [ "obj-10", 0 ]
																}

															}
, 															{
																"patchline" : 																{
																	"color" : [ 0.985948, 0.0, 0.028783, 0.9 ],
																	"destination" : [ "obj-13", 0 ],
																	"disabled" : 0,
																	"hidden" : 0,
																	"midpoints" : [ 328.5, 325.0, 391.5, 325.0, 391.5, 169.0, 342.5, 169.0 ],
																	"source" : [ "obj-11", 0 ]
																}

															}
, 															{
																"patchline" : 																{
																	"destination" : [ "obj-10", 1 ],
																	"disabled" : 0,
																	"hidden" : 0,
																	"source" : [ "obj-12", 0 ]
																}

															}
, 															{
																"patchline" : 																{
																	"destination" : [ "obj-10", 2 ],
																	"disabled" : 0,
																	"hidden" : 0,
																	"source" : [ "obj-13", 0 ]
																}

															}
, 															{
																"patchline" : 																{
																	"destination" : [ "obj-15", 0 ],
																	"disabled" : 0,
																	"hidden" : 0,
																	"source" : [ "obj-14", 0 ]
																}

															}
, 															{
																"patchline" : 																{
																	"destination" : [ "obj-17", 0 ],
																	"disabled" : 0,
																	"hidden" : 0,
																	"source" : [ "obj-15", 0 ]
																}

															}
, 															{
																"patchline" : 																{
																	"destination" : [ "obj-18", 0 ],
																	"disabled" : 0,
																	"hidden" : 0,
																	"source" : [ "obj-16", 0 ]
																}

															}
, 															{
																"patchline" : 																{
																	"destination" : [ "obj-37", 1 ],
																	"disabled" : 0,
																	"hidden" : 0,
																	"source" : [ "obj-16", 0 ]
																}

															}
, 															{
																"patchline" : 																{
																	"destination" : [ "obj-38", 1 ],
																	"disabled" : 0,
																	"hidden" : 0,
																	"source" : [ "obj-16", 0 ]
																}

															}
, 															{
																"patchline" : 																{
																	"destination" : [ "obj-11", 1 ],
																	"disabled" : 0,
																	"hidden" : 0,
																	"source" : [ "obj-17", 0 ]
																}

															}
, 															{
																"patchline" : 																{
																	"destination" : [ "obj-16", 1 ],
																	"disabled" : 0,
																	"hidden" : 0,
																	"source" : [ "obj-17", 0 ]
																}

															}
, 															{
																"patchline" : 																{
																	"destination" : [ "obj-19", 0 ],
																	"disabled" : 0,
																	"hidden" : 0,
																	"source" : [ "obj-18", 0 ]
																}

															}
, 															{
																"patchline" : 																{
																	"color" : [ 0.74497, 0.0, 0.021748, 0.9 ],
																	"destination" : [ "obj-23", 1 ],
																	"disabled" : 0,
																	"hidden" : 0,
																	"midpoints" : [ 246.5, 457.0, 173.25, 457.0, 173.25, 95.0, 214.0, 95.0 ],
																	"source" : [ "obj-19", 0 ]
																}

															}
, 															{
																"patchline" : 																{
																	"destination" : [ "obj-10", 0 ],
																	"disabled" : 0,
																	"hidden" : 0,
																	"source" : [ "obj-20", 0 ]
																}

															}
, 															{
																"patchline" : 																{
																	"destination" : [ "obj-4", 0 ],
																	"disabled" : 0,
																	"hidden" : 0,
																	"source" : [ "obj-21", 0 ]
																}

															}
, 															{
																"patchline" : 																{
																	"destination" : [ "obj-38", 0 ],
																	"disabled" : 0,
																	"hidden" : 0,
																	"source" : [ "obj-22", 0 ]
																}

															}
, 															{
																"patchline" : 																{
																	"destination" : [ "obj-20", 0 ],
																	"disabled" : 0,
																	"hidden" : 0,
																	"source" : [ "obj-23", 0 ]
																}

															}
, 															{
																"patchline" : 																{
																	"destination" : [ "obj-23", 2 ],
																	"disabled" : 0,
																	"hidden" : 0,
																	"source" : [ "obj-24", 0 ]
																}

															}
, 															{
																"patchline" : 																{
																	"destination" : [ "obj-6", 0 ],
																	"disabled" : 0,
																	"hidden" : 0,
																	"source" : [ "obj-3", 0 ]
																}

															}
, 															{
																"patchline" : 																{
																	"destination" : [ "obj-38", 2 ],
																	"disabled" : 0,
																	"hidden" : 0,
																	"source" : [ "obj-37", 0 ]
																}

															}
, 															{
																"patchline" : 																{
																	"destination" : [ "obj-21", 0 ],
																	"disabled" : 0,
																	"hidden" : 0,
																	"source" : [ "obj-38", 0 ]
																}

															}
, 															{
																"patchline" : 																{
																	"destination" : [ "obj-37", 0 ],
																	"disabled" : 0,
																	"hidden" : 0,
																	"source" : [ "obj-39", 0 ]
																}

															}
, 															{
																"patchline" : 																{
																	"destination" : [ "obj-23", 0 ],
																	"disabled" : 0,
																	"hidden" : 0,
																	"source" : [ "obj-42", 0 ]
																}

															}
, 															{
																"patchline" : 																{
																	"destination" : [ "obj-17", 1 ],
																	"disabled" : 0,
																	"hidden" : 0,
																	"midpoints" : [ 314.5, 138.0, 367.5, 138.0 ],
																	"source" : [ "obj-6", 0 ]
																}

															}
, 															{
																"patchline" : 																{
																	"destination" : [ "obj-20", 1 ],
																	"disabled" : 0,
																	"hidden" : 0,
																	"source" : [ "obj-6", 0 ]
																}

															}
, 															{
																"patchline" : 																{
																	"destination" : [ "obj-39", 0 ],
																	"disabled" : 0,
																	"hidden" : 0,
																	"source" : [ "obj-6", 0 ]
																}

															}
, 															{
																"patchline" : 																{
																	"destination" : [ "obj-11", 0 ],
																	"disabled" : 0,
																	"hidden" : 0,
																	"source" : [ "obj-7", 0 ]
																}

															}
, 															{
																"patchline" : 																{
																	"destination" : [ "obj-16", 0 ],
																	"disabled" : 0,
																	"hidden" : 0,
																	"source" : [ "obj-7", 0 ]
																}

															}
 ]
													}
,
													"patching_rect" : [ 532.0, 352.207642, 38.0, 22.0 ],
													"style" : "",
													"text" : "gen~"
												}

											}
, 											{
												"box" : 												{
													"fontname" : "Arial",
													"fontsize" : 12.0,
													"id" : "obj-34",
													"maxclass" : "newobj",
													"numinlets" : 3,
													"numoutlets" : 1,
													"outlettype" : [ "" ],
													"patching_rect" : [ 683.431091, 518.207642, 64.0, 22.0 ],
													"style" : "",
													"text" : "switch 2 1"
												}

											}
, 											{
												"box" : 												{
													"bgcolor" : [ 0.0, 146.0, 255.0, 0.0 ],
													"id" : "obj-22",
													"ignoreclick" : 1,
													"maxclass" : "textbutton",
													"numinlets" : 1,
													"numoutlets" : 3,
													"outlettype" : [ "", "", "int" ],
													"parameter_enable" : 0,
													"patching_rect" : [ 683.431091, 601.949707, 17.0, 13.902634 ],
													"presentation" : 1,
													"presentation_rect" : [ 43.0, 100.125908, 10.049012, 10.748189 ],
													"style" : "",
													"text" : ""
												}

											}
, 											{
												"box" : 												{
													"fontname" : "Arial",
													"fontsize" : 12.0,
													"id" : "obj-23",
													"maxclass" : "message",
													"numinlets" : 2,
													"numoutlets" : 1,
													"outlettype" : [ "" ],
													"patching_rect" : [ 683.431091, 557.207642, 123.0, 22.0 ],
													"style" : "",
													"text" : "bgcolor 0 146 255 $1"
												}

											}
, 											{
												"box" : 												{
													"fontname" : "Arial",
													"fontsize" : 12.0,
													"id" : "obj-24",
													"maxclass" : "message",
													"numinlets" : 2,
													"numoutlets" : 1,
													"outlettype" : [ "" ],
													"patching_rect" : [ 747.0, 450.207642, 32.5, 22.0 ],
													"style" : "",
													"text" : "0"
												}

											}
, 											{
												"box" : 												{
													"fontname" : "Arial",
													"fontsize" : 12.0,
													"id" : "obj-25",
													"maxclass" : "message",
													"numinlets" : 2,
													"numoutlets" : 1,
													"outlettype" : [ "" ],
													"patching_rect" : [ 706.0, 450.207642, 32.5, 22.0 ],
													"style" : "",
													"text" : "5"
												}

											}
, 											{
												"box" : 												{
													"fontname" : "Arial",
													"fontsize" : 12.0,
													"id" : "obj-26",
													"maxclass" : "newobj",
													"numinlets" : 1,
													"numoutlets" : 2,
													"outlettype" : [ "bang", "bang" ],
													"patching_rect" : [ 706.0, 414.207642, 60.0, 22.0 ],
													"style" : "",
													"text" : "edge~"
												}

											}
, 											{
												"box" : 												{
													"fontname" : "Arial",
													"fontsize" : 12.0,
													"id" : "obj-17",
													"maxclass" : "newobj",
													"numinlets" : 2,
													"numoutlets" : 1,
													"outlettype" : [ "int" ],
													"patching_rect" : [ 439.5, 419.961914, 32.5, 22.0 ],
													"style" : "",
													"text" : "+ 1"
												}

											}
, 											{
												"box" : 												{
													"fontname" : "Arial",
													"fontsize" : 12.0,
													"id" : "obj-16",
													"maxclass" : "newobj",
													"numinlets" : 3,
													"numoutlets" : 1,
													"outlettype" : [ "signal" ],
													"patching_rect" : [ 439.5, 474.961914, 204.0, 22.0 ],
													"style" : "",
													"text" : "selector~ 2 1"
												}

											}
, 											{
												"box" : 												{
													"activebgcolor" : [ 0.572549, 0.615686, 0.658824, 0.0 ],
													"activebgoncolor" : [ 0.278431, 0.839216, 1.0, 1.0 ],
													"activetextcolor" : [ 1.0, 1.0, 1.0, 0.57 ],
													"activetextoncolor" : [ 0.0, 0.019608, 0.078431, 1.0 ],
													"bgcolor" : [ 0.101961, 0.101961, 0.101961, 0.78 ],
													"bordercolor" : [ 0.0, 0.019608, 0.078431, 0.37 ],
													"id" : "obj-11",
													"maxclass" : "live.text",
													"numinlets" : 1,
													"numoutlets" : 2,
													"outlettype" : [ "", "" ],
													"parameter_enable" : 1,
													"patching_rect" : [ 439.5, 374.899414, 40.0, 20.0 ],
													"presentation" : 1,
													"presentation_rect" : [ 54.0, 19.0, 52.0, 14.764645 ],
													"saved_attribute_attributes" : 													{
														"valueof" : 														{
															"parameter_longname" : "bypass",
															"parameter_shortname" : "bypass",
															"parameter_type" : 2,
															"parameter_mmax" : 1.0,
															"parameter_enum" : [ "val1", "val2" ],
															"parameter_initial_enable" : 1,
															"parameter_initial" : [ 0.0 ],
															"parameter_defer" : 1
														}

													}
,
													"text" : "bypass",
													"textcolor" : [ 1.0, 1.0, 1.0, 1.0 ],
													"texton" : "bypass",
													"varname" : "bypass"
												}

											}
, 											{
												"box" : 												{
													"comment" : "signal output",
													"id" : "obj-20",
													"maxclass" : "outlet",
													"numinlets" : 1,
													"numoutlets" : 0,
													"patching_rect" : [ 439.5, 520.961914, 25.0, 25.0 ],
													"style" : ""
												}

											}
, 											{
												"box" : 												{
													"fontname" : "Arial",
													"fontsize" : 12.0,
													"id" : "obj-2",
													"maxclass" : "newobj",
													"numinlets" : 2,
													"numoutlets" : 1,
													"outlettype" : [ "signal" ],
													"patching_rect" : [ 532.0, 295.207642, 45.0, 22.0 ],
													"style" : "",
													"text" : ">~ 2.5"
												}

											}
, 											{
												"box" : 												{
													"comment" : "",
													"id" : "obj-1",
													"maxclass" : "inlet",
													"numinlets" : 0,
													"numoutlets" : 1,
													"outlettype" : [ "signal" ],
													"patching_rect" : [ 532.0, 254.207657, 25.0, 25.0 ],
													"style" : ""
												}

											}
, 											{
												"box" : 												{
													"fontname" : "Arial",
													"fontsize" : 12.0,
													"id" : "obj-6",
													"maxclass" : "newobj",
													"numinlets" : 1,
													"numoutlets" : 4,
													"outlettype" : [ "", "", "", "" ],
													"patching_rect" : [ 25.0, 146.5, 59.5, 22.0 ],
													"restore" : 													{
														"Duration" : [ 10.0 ],
														"bypass" : [ 0.0 ],
														"live.tab" : [ 0.0 ]
													}
,
													"style" : "",
													"text" : "autopattr",
													"varname" : "u203010963"
												}

											}
, 											{
												"box" : 												{
													"fontname" : "Arial Bold",
													"fontsize" : 9.0,
													"id" : "obj-8",
													"maxclass" : "comment",
													"numinlets" : 1,
													"numoutlets" : 0,
													"patching_rect" : [ 565.099976, 254.207657, 31.0, 17.0 ],
													"presentation" : 1,
													"presentation_rect" : [ 2.0, 97.0, 31.0, 17.0 ],
													"style" : "",
													"text" : "Gate",
													"textcolor" : [ 1.0, 1.0, 1.0, 1.0 ]
												}

											}
, 											{
												"box" : 												{
													"activedialcolor" : [ 0.278431, 0.839216, 1.0, 1.0 ],
													"activeneedlecolor" : [ 1.0, 1.0, 1.0, 0.7 ],
													"focusbordercolor" : [ 1.0, 1.0, 1.0, 1.0 ],
													"id" : "obj-28",
													"maxclass" : "live.dial",
													"numinlets" : 1,
													"numoutlets" : 2,
													"outlettype" : [ "", "float" ],
													"parameter_enable" : 1,
													"patching_rect" : [ 465.0, 192.207657, 44.0, 47.0 ],
													"presentation" : 1,
													"presentation_rect" : [ 3.0, 43.0, 44.0, 47.0 ],
													"saved_attribute_attributes" : 													{
														"valueof" : 														{
															"parameter_longname" : "Duration",
															"parameter_shortname" : "Duration",
															"parameter_type" : 0,
															"parameter_mmin" : 0.001,
															"parameter_mmax" : 10000.0,
															"parameter_initial_enable" : 1,
															"parameter_initial" : [ 10 ],
															"parameter_unitstyle" : 2,
															"parameter_exponent" : 4.0
														}

													}
,
													"textcolor" : [ 1.0, 1.0, 1.0, 0.7 ],
													"varname" : "Duration"
												}

											}
, 											{
												"box" : 												{
													"fontname" : "Arial Bold",
													"fontsize" : 9.0,
													"id" : "obj-19",
													"maxclass" : "comment",
													"numinlets" : 1,
													"numoutlets" : 0,
													"patching_rect" : [ 393.008545, 535.091553, 41.0, 17.0 ],
													"presentation" : 1,
													"presentation_rect" : [ 2.0, 0.0, 41.0, 17.0 ],
													"style" : "",
													"text" : "Trigger",
													"textcolor" : [ 1.0, 1.0, 1.0, 1.0 ]
												}

											}
, 											{
												"box" : 												{
													"fontname" : "Arial Bold",
													"fontsize" : 9.0,
													"id" : "obj-13",
													"maxclass" : "comment",
													"numinlets" : 1,
													"numoutlets" : 0,
													"patching_rect" : [ 25.0, 63.907501, 52.0, 17.0 ],
													"presentation" : 1,
													"presentation_rect" : [ 2.0, 19.0, 52.0, 17.0 ],
													"style" : "",
													"text" : "TRIGGER",
													"textcolor" : [ 1.0, 1.0, 1.0, 1.0 ]
												}

											}
, 											{
												"box" : 												{
													"background" : 1,
													"bgmode" : 0,
													"border" : 0,
													"clickthrough" : 0,
													"enablehscroll" : 0,
													"enablevscroll" : 0,
													"id" : "obj-4",
													"lockeddragscroll" : 0,
													"maxclass" : "bpatcher",
													"name" : "background_sm.maxpat",
													"numinlets" : 0,
													"numoutlets" : 0,
													"offset" : [ 0.0, 0.0 ],
													"patching_rect" : [ 25.25, 34.038956, 239.0, 10.0 ],
													"presentation" : 1,
													"presentation_rect" : [ 0.0, 0.0, 131.0, 132.0 ],
													"viewvisibility" : 1
												}

											}
 ],
										"lines" : [ 											{
												"patchline" : 												{
													"destination" : [ "obj-16", 2 ],
													"disabled" : 0,
													"hidden" : 0,
													"midpoints" : [ 541.5, 288.584778, 634.0, 288.584778 ],
													"source" : [ "obj-1", 0 ]
												}

											}
, 											{
												"patchline" : 												{
													"destination" : [ "obj-2", 0 ],
													"disabled" : 0,
													"hidden" : 0,
													"source" : [ "obj-1", 0 ]
												}

											}
, 											{
												"patchline" : 												{
													"destination" : [ "obj-17", 0 ],
													"disabled" : 0,
													"hidden" : 0,
													"source" : [ "obj-11", 0 ]
												}

											}
, 											{
												"patchline" : 												{
													"destination" : [ "obj-20", 0 ],
													"disabled" : 0,
													"hidden" : 0,
													"source" : [ "obj-16", 0 ]
												}

											}
, 											{
												"patchline" : 												{
													"destination" : [ "obj-16", 0 ],
													"disabled" : 0,
													"hidden" : 0,
													"source" : [ "obj-17", 0 ]
												}

											}
, 											{
												"patchline" : 												{
													"destination" : [ "obj-34", 0 ],
													"disabled" : 0,
													"hidden" : 0,
													"source" : [ "obj-17", 0 ]
												}

											}
, 											{
												"patchline" : 												{
													"destination" : [ "obj-3", 0 ],
													"disabled" : 0,
													"hidden" : 0,
													"source" : [ "obj-2", 0 ]
												}

											}
, 											{
												"patchline" : 												{
													"destination" : [ "obj-22", 0 ],
													"disabled" : 0,
													"hidden" : 0,
													"source" : [ "obj-23", 0 ]
												}

											}
, 											{
												"patchline" : 												{
													"destination" : [ "obj-34", 1 ],
													"disabled" : 0,
													"hidden" : 0,
													"source" : [ "obj-24", 0 ]
												}

											}
, 											{
												"patchline" : 												{
													"destination" : [ "obj-34", 1 ],
													"disabled" : 0,
													"hidden" : 0,
													"source" : [ "obj-25", 0 ]
												}

											}
, 											{
												"patchline" : 												{
													"destination" : [ "obj-24", 0 ],
													"disabled" : 0,
													"hidden" : 0,
													"source" : [ "obj-26", 1 ]
												}

											}
, 											{
												"patchline" : 												{
													"destination" : [ "obj-25", 0 ],
													"disabled" : 0,
													"hidden" : 0,
													"source" : [ "obj-26", 0 ]
												}

											}
, 											{
												"patchline" : 												{
													"destination" : [ "obj-9", 0 ],
													"disabled" : 0,
													"hidden" : 0,
													"source" : [ "obj-28", 0 ]
												}

											}
, 											{
												"patchline" : 												{
													"destination" : [ "obj-16", 1 ],
													"disabled" : 0,
													"hidden" : 0,
													"source" : [ "obj-3", 0 ]
												}

											}
, 											{
												"patchline" : 												{
													"destination" : [ "obj-26", 0 ],
													"disabled" : 0,
													"hidden" : 0,
													"source" : [ "obj-3", 0 ]
												}

											}
, 											{
												"patchline" : 												{
													"destination" : [ "obj-23", 0 ],
													"disabled" : 0,
													"hidden" : 0,
													"source" : [ "obj-34", 0 ]
												}

											}
, 											{
												"patchline" : 												{
													"destination" : [ "obj-3", 0 ],
													"disabled" : 0,
													"hidden" : 0,
													"source" : [ "obj-35", 0 ]
												}

											}
, 											{
												"patchline" : 												{
													"destination" : [ "obj-3", 0 ],
													"disabled" : 0,
													"hidden" : 0,
													"source" : [ "obj-38", 0 ]
												}

											}
, 											{
												"patchline" : 												{
													"destination" : [ "obj-41", 0 ],
													"disabled" : 0,
													"hidden" : 0,
													"source" : [ "obj-40", 0 ]
												}

											}
, 											{
												"patchline" : 												{
													"destination" : [ "obj-42", 0 ],
													"disabled" : 0,
													"hidden" : 0,
													"source" : [ "obj-41", 0 ]
												}

											}
, 											{
												"patchline" : 												{
													"destination" : [ "obj-43", 0 ],
													"disabled" : 0,
													"hidden" : 0,
													"source" : [ "obj-41", 1 ]
												}

											}
, 											{
												"patchline" : 												{
													"destination" : [ "obj-44", 0 ],
													"disabled" : 0,
													"hidden" : 0,
													"source" : [ "obj-41", 2 ]
												}

											}
, 											{
												"patchline" : 												{
													"destination" : [ "obj-35", 0 ],
													"disabled" : 0,
													"hidden" : 0,
													"source" : [ "obj-42", 1 ]
												}

											}
, 											{
												"patchline" : 												{
													"destination" : [ "obj-38", 0 ],
													"disabled" : 0,
													"hidden" : 0,
													"source" : [ "obj-42", 0 ]
												}

											}
, 											{
												"patchline" : 												{
													"destination" : [ "obj-35", 0 ],
													"disabled" : 0,
													"hidden" : 0,
													"source" : [ "obj-43", 1 ]
												}

											}
, 											{
												"patchline" : 												{
													"destination" : [ "obj-38", 0 ],
													"disabled" : 0,
													"hidden" : 0,
													"source" : [ "obj-43", 0 ]
												}

											}
, 											{
												"patchline" : 												{
													"destination" : [ "obj-35", 0 ],
													"disabled" : 0,
													"hidden" : 0,
													"source" : [ "obj-44", 1 ]
												}

											}
, 											{
												"patchline" : 												{
													"destination" : [ "obj-38", 0 ],
													"disabled" : 0,
													"hidden" : 0,
													"source" : [ "obj-44", 0 ]
												}

											}
, 											{
												"patchline" : 												{
													"destination" : [ "obj-3", 0 ],
													"disabled" : 0,
													"hidden" : 0,
													"source" : [ "obj-9", 0 ]
												}

											}
 ]
									}
,
									"patching_rect" : [ 617.0, 545.0, 110.0, 116.0 ],
									"varname" : "TriggerToGate",
									"viewvisibility" : 1
								}

							}
, 							{
								"box" : 								{
									"bgmode" : 0,
									"border" : 0,
									"clickthrough" : 0,
									"embed" : 1,
									"enablehscroll" : 0,
									"enablevscroll" : 0,
									"id" : "obj-18",
									"lockeddragscroll" : 0,
									"maxclass" : "bpatcher",
									"numinlets" : 0,
									"numoutlets" : 1,
									"offset" : [ 0.0, 0.0 ],
									"outlettype" : [ "signal" ],
									"patcher" : 									{
										"fileversion" : 1,
										"appversion" : 										{
											"major" : 7,
											"minor" : 0,
											"revision" : 3,
											"architecture" : "x86",
											"modernui" : 1
										}
,
										"rect" : [ 687.0, 534.0, 107.0, 116.0 ],
										"bgcolor" : [ 1.0, 1.0, 1.0, 0.0 ],
										"bglocked" : 0,
										"openinpresentation" : 1,
										"default_fontsize" : 12.0,
										"default_fontface" : 0,
										"default_fontname" : "Arial",
										"gridonopen" : 1,
										"gridsize" : [ 15.0, 15.0 ],
										"gridsnaponopen" : 1,
										"objectsnaponopen" : 1,
										"statusbarvisible" : 1,
										"toolbarvisible" : 1,
										"lefttoolbarpinned" : 0,
										"toptoolbarpinned" : 0,
										"righttoolbarpinned" : 0,
										"bottomtoolbarpinned" : 0,
										"toolbars_unpinned_last_save" : 0,
										"tallnewobj" : 0,
										"boxanimatetime" : 200,
										"enablehscroll" : 1,
										"enablevscroll" : 1,
										"devicewidth" : 0.0,
										"description" : "",
										"digest" : "",
										"tags" : "",
										"style" : "",
										"subpatcher_template" : "",
										"boxes" : [ 											{
												"box" : 												{
													"id" : "obj-7",
													"linecount" : 2,
													"maxclass" : "comment",
													"numinlets" : 1,
													"numoutlets" : 0,
													"patching_rect" : [ 37.0, 85.0, 222.0, 33.0 ],
													"style" : "",
													"text" : "## Produces a regular pulse signal synced to gloabl transport ##"
												}

											}
, 											{
												"box" : 												{
													"fontname" : "Arial",
													"fontsize" : 12.0,
													"id" : "obj-3",
													"maxclass" : "message",
													"numinlets" : 2,
													"numoutlets" : 1,
													"outlettype" : [ "" ],
													"patching_rect" : [ 362.0, 126.0, 135.0, 22.0 ],
													"style" : "",
													"text" : "interval $1, quantize $1"
												}

											}
, 											{
												"box" : 												{
													"fontname" : "Arial",
													"fontsize" : 12.0,
													"id" : "obj-6",
													"maxclass" : "newobj",
													"numinlets" : 2,
													"numoutlets" : 1,
													"outlettype" : [ "int" ],
													"patching_rect" : [ 183.568909, 375.0, 32.5, 22.0 ],
													"style" : "",
													"text" : "!= 1"
												}

											}
, 											{
												"box" : 												{
													"fontname" : "Arial",
													"fontsize" : 12.0,
													"id" : "obj-28",
													"maxclass" : "newobj",
													"numinlets" : 2,
													"numoutlets" : 1,
													"outlettype" : [ "signal" ],
													"patching_rect" : [ 183.568909, 446.0, 117.431091, 22.0 ],
													"style" : "",
													"text" : "gate~ 1 1"
												}

											}
, 											{
												"box" : 												{
													"activebgcolor" : [ 0.572549, 0.615686, 0.658824, 0.0 ],
													"activebgoncolor" : [ 0.278431, 0.839216, 1.0, 1.0 ],
													"activetextcolor" : [ 1.0, 1.0, 1.0, 0.57 ],
													"activetextoncolor" : [ 0.0, 0.019608, 0.078431, 1.0 ],
													"bgcolor" : [ 0.101961, 0.101961, 0.101961, 0.78 ],
													"bordercolor" : [ 0.0, 0.019608, 0.078431, 0.37 ],
													"id" : "obj-29",
													"maxclass" : "live.text",
													"numinlets" : 1,
													"numoutlets" : 2,
													"outlettype" : [ "", "" ],
													"parameter_enable" : 1,
													"patching_rect" : [ 183.568909, 302.464355, 40.0, 20.0 ],
													"presentation" : 1,
													"presentation_rect" : [ 50.0, 19.0, 52.0, 14.764645 ],
													"saved_attribute_attributes" : 													{
														"valueof" : 														{
															"parameter_longname" : "mute[1]",
															"parameter_shortname" : "mute",
															"parameter_type" : 2,
															"parameter_mmax" : 1.0,
															"parameter_enum" : [ "val1", "val2" ],
															"parameter_initial_enable" : 1,
															"parameter_initial" : [ 0.0 ],
															"parameter_defer" : 1
														}

													}
,
													"text" : "mute",
													"textcolor" : [ 1.0, 1.0, 1.0, 1.0 ],
													"texton" : "mute",
													"varname" : "mute"
												}

											}
, 											{
												"box" : 												{
													"comment" : "signal output",
													"id" : "obj-5",
													"maxclass" : "outlet",
													"numinlets" : 1,
													"numoutlets" : 0,
													"patching_rect" : [ 183.568909, 500.0, 25.0, 25.0 ],
													"style" : ""
												}

											}
, 											{
												"box" : 												{
													"activebgcolor" : [ 0.572549, 0.615686, 0.658824, 0.0 ],
													"activebgoncolor" : [ 0.278431, 0.839216, 1.0, 1.0 ],
													"id" : "obj-27",
													"ignoreclick" : 1,
													"maxclass" : "live.button",
													"numinlets" : 1,
													"numoutlets" : 1,
													"outlettype" : [ "" ],
													"parameter_enable" : 1,
													"patching_rect" : [ 234.784454, 263.0, 15.0, 15.0 ],
													"presentation" : 1,
													"presentation_rect" : [ 4.0, 72.292229, 15.0, 15.0 ],
													"saved_attribute_attributes" : 													{
														"valueof" : 														{
															"parameter_longname" : "led",
															"parameter_shortname" : "led",
															"parameter_type" : 2,
															"parameter_mmax" : 1.0,
															"parameter_enum" : [ "off", "on" ],
															"parameter_invisible" : 2
														}

													}
,
													"varname" : "led"
												}

											}
, 											{
												"box" : 												{
													"fontname" : "Arial",
													"fontsize" : 12.0,
													"id" : "obj-26",
													"maxclass" : "message",
													"numinlets" : 2,
													"numoutlets" : 1,
													"outlettype" : [ "" ],
													"patching_rect" : [ 343.0, 307.0, 32.5, 22.0 ],
													"style" : "",
													"text" : "0"
												}

											}
, 											{
												"box" : 												{
													"fontname" : "Arial",
													"fontsize" : 12.0,
													"id" : "obj-24",
													"maxclass" : "message",
													"numinlets" : 2,
													"numoutlets" : 1,
													"outlettype" : [ "" ],
													"patching_rect" : [ 282.0, 307.0, 32.5, 22.0 ],
													"style" : "",
													"text" : "5"
												}

											}
, 											{
												"box" : 												{
													"activebgcolor" : [ 0.0, 0.0, 0.0, 1.0 ],
													"id" : "obj-129",
													"maxclass" : "live.numbox",
													"numinlets" : 1,
													"numoutlets" : 2,
													"outlettype" : [ "", "float" ],
													"parameter_enable" : 1,
													"patching_rect" : [ 380.0, 239.735229, 70.0, 15.0 ],
													"presentation" : 1,
													"presentation_rect" : [ 25.134384, 72.292229, 78.0, 15.0 ],
													"saved_attribute_attributes" : 													{
														"valueof" : 														{
															"parameter_longname" : "GateTime[1]",
															"parameter_shortname" : "GateTime",
															"parameter_type" : 0,
															"parameter_mmax" : 500.0,
															"parameter_initial_enable" : 1,
															"parameter_initial" : [ 10 ],
															"parameter_unitstyle" : 2
														}

													}
,
													"textcolor" : [ 0.278431, 0.839216, 1.0, 1.0 ],
													"varname" : "GateTime"
												}

											}
, 											{
												"box" : 												{
													"fontname" : "Arial",
													"fontsize" : 12.0,
													"id" : "obj-22",
													"maxclass" : "newobj",
													"numinlets" : 2,
													"numoutlets" : 1,
													"outlettype" : [ "bang" ],
													"patching_rect" : [ 343.0, 271.0, 56.0, 22.0 ],
													"style" : "",
													"text" : "delay 10"
												}

											}
, 											{
												"box" : 												{
													"activebgcolor" : [ 0.572549, 0.615686, 0.658824, 0.0 ],
													"activebgoncolor" : [ 0.278431, 0.839216, 1.0, 1.0 ],
													"id" : "obj-20",
													"maxclass" : "live.toggle",
													"numinlets" : 1,
													"numoutlets" : 1,
													"outlettype" : [ "" ],
													"parameter_enable" : 1,
													"patching_rect" : [ 282.0, 146.907501, 19.0, 18.0 ],
													"presentation" : 1,
													"presentation_rect" : [ 3.0, 46.792229, 17.0, 18.0 ],
													"saved_attribute_attributes" : 													{
														"valueof" : 														{
															"parameter_longname" : "enable",
															"parameter_shortname" : "enable",
															"parameter_type" : 2,
															"parameter_mmax" : 1.0,
															"parameter_enum" : [ "off", "on" ],
															"parameter_initial_enable" : 1,
															"parameter_initial" : [ 1 ]
														}

													}
,
													"varname" : "live.toggle"
												}

											}
, 											{
												"box" : 												{
													"fontname" : "Arial",
													"fontsize" : 12.0,
													"id" : "obj-17",
													"maxclass" : "newobj",
													"numinlets" : 2,
													"numoutlets" : 1,
													"outlettype" : [ "bang" ],
													"patching_rect" : [ 282.0, 195.0, 199.0, 22.0 ],
													"style" : "",
													"text" : "metro 4n @active 1 @quantize 16n"
												}

											}
, 											{
												"box" : 												{
													"bgcolor" : [ 0.0, 0.0, 0.0, 1.0 ],
													"bgfillcolor_angle" : 270.0,
													"bgfillcolor_color" : [ 0.0, 0.0, 0.0, 1.0 ],
													"bgfillcolor_color1" : [ 0.435294, 0.462745, 0.498039, 1.0 ],
													"bgfillcolor_color2" : [ 0.290196, 0.309804, 0.301961, 1.0 ],
													"bgfillcolor_proportion" : 0.39,
													"bgfillcolor_type" : "color",
													"fontsize" : 10.0,
													"id" : "obj-34",
													"items" : [ "32.0.0", ",", "16.0.0", ",", "8.0.0", ",", "4.0.0", ",", "2.0.0", ",", "1.0.0", ",", "1nd", ",", "1n", ",", "1nt", ",", "2nd", ",", "2n", ",", "4nd", ",", "4n", ",", "4nt", ",", "8nd", ",", "8n", ",", "8nt", ",", "16nd", ",", "16n", ",", "16nt", ",", "32nd", ",", "32n", ",", "32nt", ",", "64nd", ",", "64n", ",", "128n" ],
													"maxclass" : "umenu",
													"numinlets" : 1,
													"numoutlets" : 3,
													"outlettype" : [ "int", "", "" ],
													"parameter_enable" : 1,
													"patching_rect" : [ 336.0, 88.907501, 71.0, 20.0 ],
													"pattrmode" : 1,
													"presentation" : 1,
													"presentation_rect" : [ 25.134384, 46.792229, 78.0, 20.0 ],
													"saved_attribute_attributes" : 													{
														"valueof" : 														{
															"parameter_longname" : "Pulse[1]",
															"parameter_shortname" : "Pulse",
															"parameter_type" : 3,
															"parameter_initial_enable" : 1,
															"parameter_initial" : [ "8n" ],
															"parameter_invisible" : 1
														}

													}
,
													"style" : "",
													"textcolor" : [ 0.278431, 0.839216, 1.0, 1.0 ],
													"varname" : "Pulse"
												}

											}
, 											{
												"box" : 												{
													"fontname" : "Arial",
													"fontsize" : 12.0,
													"id" : "obj-1",
													"maxclass" : "newobj",
													"numinlets" : 1,
													"numoutlets" : 1,
													"outlettype" : [ "signal" ],
													"patching_rect" : [ 282.0, 396.0, 33.0, 22.0 ],
													"style" : "",
													"text" : "sig~"
												}

											}
, 											{
												"box" : 												{
													"fontname" : "Arial",
													"fontsize" : 12.0,
													"id" : "obj-4",
													"maxclass" : "newobj",
													"numinlets" : 1,
													"numoutlets" : 4,
													"outlettype" : [ "", "", "", "" ],
													"patching_rect" : [ 37.0, 126.0, 59.5, 22.0 ],
													"restore" : 													{
														"GateTime" : [ 10.0 ],
														"Pulse" : [ "1n" ],
														"led" : [ 0.0 ],
														"live.toggle" : [ 1.0 ],
														"mute" : [ 0.0 ]
													}
,
													"style" : "",
													"text" : "autopattr",
													"varname" : "u200010964"
												}

											}
, 											{
												"box" : 												{
													"fontname" : "Arial Bold",
													"fontsize" : 9.0,
													"id" : "obj-8",
													"maxclass" : "comment",
													"numinlets" : 1,
													"numoutlets" : 0,
													"patching_rect" : [ 227.668884, 504.0, 41.0, 17.0 ],
													"presentation" : 1,
													"presentation_rect" : [ 2.0, 97.0, 41.0, 17.0 ],
													"style" : "",
													"text" : "Trigger",
													"textcolor" : [ 1.0, 1.0, 1.0, 1.0 ]
												}

											}
, 											{
												"box" : 												{
													"fontname" : "Arial Bold",
													"fontsize" : 9.0,
													"id" : "obj-13",
													"maxclass" : "comment",
													"numinlets" : 1,
													"numoutlets" : 0,
													"patching_rect" : [ 37.0, 62.907501, 43.0, 17.0 ],
													"presentation" : 1,
													"presentation_rect" : [ 2.0, 19.0, 43.0, 17.0 ],
													"style" : "",
													"text" : "METRO",
													"textcolor" : [ 1.0, 1.0, 1.0, 1.0 ]
												}

											}
, 											{
												"box" : 												{
													"angle" : 0.0,
													"background" : 1,
													"bgcolor" : [ 0.137255, 0.145098, 0.160784, 0.65 ],
													"id" : "obj-130",
													"maxclass" : "panel",
													"mode" : 0,
													"numinlets" : 1,
													"numoutlets" : 0,
													"patching_rect" : [ 37.0, 43.711639, 37.0, 5.0 ],
													"presentation" : 1,
													"presentation_rect" : [ 0.0, 37.0, 425.0, 60.338158 ],
													"proportion" : 0.39,
													"rounded" : 0,
													"style" : ""
												}

											}
, 											{
												"box" : 												{
													"angle" : 0.0,
													"background" : 1,
													"bgcolor" : [ 0.367404, 0.389405, 0.430238, 1.0 ],
													"id" : "obj-131",
													"maxclass" : "panel",
													"mode" : 0,
													"numinlets" : 1,
													"numoutlets" : 0,
													"patching_rect" : [ 81.337189, 43.711639, 37.0, 5.0 ],
													"presentation" : 1,
													"presentation_rect" : [ 0.0, 17.0, 425.0, 80.338158 ],
													"proportion" : 0.39,
													"rounded" : 0,
													"style" : ""
												}

											}
, 											{
												"box" : 												{
													"angle" : 0.0,
													"background" : 1,
													"bgcolor" : [ 0.0, 0.0, 0.0, 1.0 ],
													"id" : "obj-135",
													"maxclass" : "panel",
													"mode" : 0,
													"numinlets" : 1,
													"numoutlets" : 0,
													"patching_rect" : [ 124.079285, 43.711639, 37.0, 5.0 ],
													"presentation" : 1,
													"presentation_rect" : [ 0.0, 0.0, 425.0, 133.0 ],
													"proportion" : 0.39,
													"rounded" : 0,
													"style" : ""
												}

											}
 ],
										"lines" : [ 											{
												"patchline" : 												{
													"destination" : [ "obj-28", 1 ],
													"disabled" : 0,
													"hidden" : 0,
													"source" : [ "obj-1", 0 ]
												}

											}
, 											{
												"patchline" : 												{
													"destination" : [ "obj-22", 1 ],
													"disabled" : 0,
													"hidden" : 0,
													"source" : [ "obj-129", 0 ]
												}

											}
, 											{
												"patchline" : 												{
													"destination" : [ "obj-22", 0 ],
													"disabled" : 0,
													"hidden" : 0,
													"source" : [ "obj-17", 0 ]
												}

											}
, 											{
												"patchline" : 												{
													"destination" : [ "obj-24", 0 ],
													"disabled" : 0,
													"hidden" : 0,
													"source" : [ "obj-17", 0 ]
												}

											}
, 											{
												"patchline" : 												{
													"destination" : [ "obj-27", 0 ],
													"disabled" : 0,
													"hidden" : 0,
													"source" : [ "obj-17", 0 ]
												}

											}
, 											{
												"patchline" : 												{
													"destination" : [ "obj-17", 0 ],
													"disabled" : 0,
													"hidden" : 0,
													"source" : [ "obj-20", 0 ]
												}

											}
, 											{
												"patchline" : 												{
													"destination" : [ "obj-26", 0 ],
													"disabled" : 0,
													"hidden" : 0,
													"source" : [ "obj-22", 0 ]
												}

											}
, 											{
												"patchline" : 												{
													"destination" : [ "obj-1", 0 ],
													"disabled" : 0,
													"hidden" : 0,
													"source" : [ "obj-24", 0 ]
												}

											}
, 											{
												"patchline" : 												{
													"destination" : [ "obj-1", 0 ],
													"disabled" : 0,
													"hidden" : 0,
													"source" : [ "obj-26", 0 ]
												}

											}
, 											{
												"patchline" : 												{
													"destination" : [ "obj-5", 0 ],
													"disabled" : 0,
													"hidden" : 0,
													"source" : [ "obj-28", 0 ]
												}

											}
, 											{
												"patchline" : 												{
													"destination" : [ "obj-6", 0 ],
													"disabled" : 0,
													"hidden" : 0,
													"source" : [ "obj-29", 0 ]
												}

											}
, 											{
												"patchline" : 												{
													"destination" : [ "obj-17", 0 ],
													"disabled" : 0,
													"hidden" : 0,
													"source" : [ "obj-3", 0 ]
												}

											}
, 											{
												"patchline" : 												{
													"destination" : [ "obj-3", 0 ],
													"disabled" : 0,
													"hidden" : 0,
													"source" : [ "obj-34", 1 ]
												}

											}
, 											{
												"patchline" : 												{
													"destination" : [ "obj-28", 0 ],
													"disabled" : 0,
													"hidden" : 0,
													"source" : [ "obj-6", 0 ]
												}

											}
 ]
									}
,
									"patching_rect" : [ 617.0, 412.0, 107.0, 116.0 ],
									"varname" : "MetronomicPulse",
									"viewvisibility" : 1
								}

							}
, 							{
								"box" : 								{
									"bgmode" : 0,
									"border" : 0,
									"clickthrough" : 0,
									"enablehscroll" : 0,
									"enablevscroll" : 0,
									"extract" : 1,
									"id" : "obj-7",
									"lockeddragscroll" : 0,
									"maxclass" : "bpatcher",
									"name" : "bp.DADSR.maxpat",
									"numinlets" : 1,
									"numoutlets" : 1,
									"offset" : [ 0.0, 0.0 ],
									"outlettype" : [ "signal" ],
									"patching_rect" : [ 325.0, 545.0, 278.0, 116.0 ],
									"varname" : "bp.DADSR",
									"viewvisibility" : 1
								}

							}
, 							{
								"box" : 								{
									"bgmode" : 0,
									"border" : 0,
									"clickthrough" : 0,
									"enablehscroll" : 0,
									"enablevscroll" : 0,
									"extract" : 1,
									"id" : "obj-4",
									"lockeddragscroll" : 0,
									"maxclass" : "bpatcher",
									"name" : "bp.Stereo.maxpat",
									"numinlets" : 2,
									"numoutlets" : 0,
									"offset" : [ 0.0, 0.0 ],
									"patching_rect" : [ 30.75, 583.0, 148.0, 116.0 ],
									"varname" : "bp.Stereo",
									"viewvisibility" : 1
								}

							}
, 							{
								"box" : 								{
									"bgmode" : 0,
									"border" : 0,
									"clickthrough" : 0,
									"enablehscroll" : 0,
									"enablevscroll" : 0,
									"extract" : 1,
									"id" : "obj-2",
									"lockeddragscroll" : 0,
									"maxclass" : "bpatcher",
									"name" : "bp.Sequencer.maxpat",
									"numinlets" : 1,
									"numoutlets" : 2,
									"offset" : [ 0.0, 0.0 ],
									"outlettype" : [ "signal", "signal" ],
									"patching_rect" : [ 7.0, 113.0, 726.0, 232.0 ],
									"varname" : "bp.Sequencer",
									"viewvisibility" : 1
								}

							}
, 							{
								"box" : 								{
									"bgmode" : 0,
									"border" : 0,
									"clickthrough" : 0,
									"enablehscroll" : 0,
									"enablevscroll" : 0,
									"extract" : 1,
									"id" : "obj-3",
									"lockeddragscroll" : 0,
									"maxclass" : "bpatcher",
									"name" : "bp.Cloud.maxpat",
									"numinlets" : 4,
									"numoutlets" : 1,
									"offset" : [ 0.0, 0.0 ],
									"outlettype" : [ "signal" ],
									"patching_rect" : [ 30.75, 387.5, 280.0, 116.0 ],
									"varname" : "bp.Cloud",
									"viewvisibility" : 1
								}

							}
, 							{
								"box" : 								{
									"fontname" : "Arial",
									"fontsize" : 13.0,
									"id" : "obj-5",
									"maxclass" : "comment",
									"numinlets" : 1,
									"numoutlets" : 0,
									"patching_rect" : [ 7.0, 69.0, 459.0, 21.0 ],
									"style" : "",
									"text" : "A delayed Envelope is really great for controlled modulation of parameters.",
									"textcolor" : [ 0.2, 0.2, 0.2, 1.0 ],
									"varname" : "autohelp_top_digest"
								}

							}
, 							{
								"box" : 								{
									"fontname" : "Arial",
									"fontsize" : 48.0,
									"id" : "obj-11",
									"maxclass" : "comment",
									"numinlets" : 1,
									"numoutlets" : 0,
									"patching_rect" : [ 10.0, 10.6875, 451.0, 60.0 ],
									"style" : "",
									"text" : "DADSR",
									"textcolor" : [ 0.2, 0.2, 0.2, 1.0 ],
									"varname" : "autohelp_top_digest[2]"
								}

							}
 ],
						"lines" : [ 							{
								"patchline" : 								{
									"destination" : [ "obj-7", 0 ],
									"disabled" : 0,
									"hidden" : 0,
									"midpoints" : [ 626.5, 671.0, 608.5, 671.0, 608.5, 534.0, 334.5, 534.0 ],
									"source" : [ "obj-10", 0 ]
								}

							}
, 							{
								"patchline" : 								{
									"destination" : [ "obj-10", 0 ],
									"disabled" : 0,
									"hidden" : 0,
									"source" : [ "obj-18", 0 ]
								}

							}
, 							{
								"patchline" : 								{
									"destination" : [ "obj-3", 0 ],
									"disabled" : 0,
									"hidden" : 0,
									"midpoints" : [ 16.5, 373.0, 40.25, 373.0 ],
									"source" : [ "obj-2", 0 ]
								}

							}
, 							{
								"patchline" : 								{
									"destination" : [ "obj-4", 1 ],
									"disabled" : 0,
									"hidden" : 0,
									"midpoints" : [ 40.25, 542.75, 169.25, 542.75 ],
									"source" : [ "obj-3", 0 ]
								}

							}
, 							{
								"patchline" : 								{
									"destination" : [ "obj-4", 0 ],
									"disabled" : 0,
									"hidden" : 0,
									"midpoints" : [ 40.25, 542.75, 40.25, 542.75 ],
									"source" : [ "obj-3", 0 ]
								}

							}
, 							{
								"patchline" : 								{
									"destination" : [ "obj-3", 1 ],
									"disabled" : 0,
									"hidden" : 0,
									"midpoints" : [ 334.5, 671.0, 319.875, 671.0, 319.875, 376.5, 127.25, 376.5 ],
									"source" : [ "obj-7", 0 ]
								}

							}
 ],
						"bgfillcolor_type" : "gradient",
						"bgfillcolor_color1" : [ 0.454902, 0.462745, 0.482353, 1.0 ],
						"bgfillcolor_color2" : [ 0.290196, 0.309804, 0.301961, 1.0 ],
						"bgfillcolor_color" : [ 0.290196, 0.309804, 0.301961, 1.0 ],
						"bgfillcolor_angle" : 270.0,
						"bgfillcolor_proportion" : 0.39
					}
,
					"patching_rect" : [ 36.0, 27.0, 50.0, 22.0 ],
					"saved_object_attributes" : 					{
						"description" : "",
						"digest" : "",
						"fontsize" : 13.0,
						"globalpatchername" : "",
						"style" : "",
						"tags" : ""
					}
,
					"style" : "",
					"text" : "p basic",
					"varname" : "basic_tab"
				}

			}
 ],
		"lines" : [ 			{
				"patchline" : 				{
					"destination" : [ "obj-20", 1 ],
					"disabled" : 0,
					"hidden" : 0,
					"source" : [ "obj-13", 0 ]
				}

			}
, 			{
				"patchline" : 				{
					"destination" : [ "obj-13", 0 ],
					"disabled" : 0,
					"hidden" : 0,
					"source" : [ "obj-17", 0 ]
				}

			}
, 			{
				"patchline" : 				{
					"destination" : [ "obj-13", 0 ],
					"disabled" : 0,
					"hidden" : 0,
					"source" : [ "obj-21", 0 ]
				}

			}
 ],
		"parameters" : 		{
			"obj-2::obj-2::obj-25" : [ "GateTime", "GateTime", 0 ],
			"obj-2::obj-2::obj-2" : [ "trans_trig", "trans_trig", 0 ],
			"obj-2::obj-18::obj-29" : [ "mute[1]", "mute", 0 ],
			"obj-2::obj-18::obj-34" : [ "Pulse[1]", "Pulse", 0 ],
			"obj-2::obj-7::obj-20" : [ "Mute[2]", "Mute", 0 ],
			"obj-2::obj-7::obj-31" : [ "Release", "Release", 0 ],
			"obj-2::obj-2::obj-125" : [ "NoteGrid", "NoteGrid", 0 ],
			"obj-2::obj-2::obj-22" : [ "Pattern", "Pattern", 0 ],
			"obj-2::obj-18::obj-20" : [ "enable", "enable", 0 ],
			"obj-2::obj-3::obj-106" : [ "CV3", "CV3", 0 ],
			"obj-2::obj-3::obj-46" : [ "Offset", "Offset", 0 ],
			"obj-2::obj-7::obj-32" : [ "Sustain", "Sustain", 0 ],
			"obj-2::obj-4::obj-52" : [ "Level", "Level", 0 ],
			"obj-2::obj-7::obj-29" : [ "Decay", "Decay", 0 ],
			"obj-2::obj-2::obj-185" : [ "Sequence", "Sequence", 0 ],
			"obj-2::obj-3::obj-107" : [ "Linear", "Linear", 0 ],
			"obj-2::obj-10::obj-28" : [ "Duration", "Duration", 0 ],
			"obj-2::obj-2::obj-28" : [ "Sync", "Sync", 0 ],
			"obj-2::obj-2::obj-120" : [ "Max pulse[1]", "Max pulse", 0 ],
			"obj-2::obj-2::obj-89" : [ "Reset", "Reset", 0 ],
			"obj-2::obj-4::obj-55" : [ "DSP", "DSP", 0 ],
			"obj-2::obj-18::obj-129" : [ "GateTime[1]", "GateTime", 0 ],
			"obj-2::obj-7::obj-30" : [ "Legato", "Legato", 0 ],
			"obj-2::obj-3::obj-20" : [ "Mute", "Mute", 0 ],
			"obj-2::obj-10::obj-11" : [ "bypass", "bypass", 0 ],
			"obj-2::obj-4::obj-56" : [ "OutputChannel", "OutputChannel", 0 ],
			"obj-2::obj-18::obj-27" : [ "led", "led", 0 ],
			"obj-2::obj-2::obj-155" : [ "Swing amount", "Swing amount", 0 ],
			"obj-2::obj-2::obj-95" : [ "Steps", "Steps", 0 ],
			"obj-2::obj-2::obj-130" : [ "mute", "mute", 0 ],
			"obj-2::obj-7::obj-10" : [ "Delay", "Delay", 0 ],
			"obj-2::obj-3::obj-51" : [ "Fatness", "Fatness", 0 ],
			"obj-2::obj-10::obj-40" : [ "live.tab", "live.tab", 0 ],
			"obj-2::obj-3::obj-129" : [ "CV2", "CV2", 0 ],
			"obj-2::obj-3::obj-24" : [ "Freq", "Freq", 0 ],
			"obj-2::obj-4::obj-22" : [ "Mute[1]", "Mute", 0 ],
			"obj-2::obj-2::obj-96" : [ "Pulse", "Pulse", 0 ],
			"obj-2::obj-7::obj-1" : [ "Attack", "Attack", 0 ],
			"obj-2::obj-3::obj-45" : [ "TimeMode", "TimeMode", 1 ],
			"obj-2::obj-3::obj-331" : [ "WaveformCloud", "Waveform", 0 ],
			"obj-2::obj-2::obj-4" : [ "live.text", "live.text", 0 ],
			"obj-2::obj-2::obj-157" : [ "Swing enable", "Swing enable", 0 ]
		}
,
		"dependency_cache" : [ 			{
				"name" : "bp.Cloud.maxpat",
				"bootpath" : "C74:/packages/Beap/clippings/BEAP/Oscillator",
				"type" : "JSON",
				"implicit" : 1
			}
, 			{
				"name" : "bp.Sequencer.maxpat",
				"bootpath" : "C74:/packages/Beap/clippings/BEAP/Sequencer",
				"type" : "JSON",
				"implicit" : 1
			}
, 			{
				"name" : "swingCalc.js",
				"bootpath" : "C74:/packages/Beap/misc",
				"type" : "TEXT",
				"implicit" : 1
			}
, 			{
				"name" : "bp.Stereo.maxpat",
				"bootpath" : "C74:/packages/Beap/clippings/BEAP/Output",
				"type" : "JSON",
				"implicit" : 1
			}
, 			{
				"name" : "bp.DADSR.maxpat",
				"bootpath" : "C74:/packages/Beap/clippings/BEAP/Envelope",
				"type" : "JSON",
				"implicit" : 1
			}
, 			{
				"name" : "background_sm.maxpat",
				"bootpath" : "C74:/packages/Beap/misc",
				"type" : "JSON",
				"implicit" : 1
			}
 ],
		"embedsnapshot" : 1,
		"snapshot" : 		{
			"filetype" : "C74Snapshot",
			"version" : 1,
			"name" : "bp.DADSR.maxhelp",
			"origin" : "bp.DADSR.maxhelp",
			"type" : "patcher",
			"subtype" : "Undefined",
			"snapshot" : 			{
				"name" : "bp.DADSR.maxhelp",
				"valuedictionary" : 				{
					"parameter_values" : 					{
						"Attack" : 632.455505,
						"CV2" : 64.370079,
						"CV3" : 5.0,
						"DSP" : 1.0,
						"Decay" : 2249.365234,
						"Delay" : 0.0,
						"Duration" : 1778.23584,
						"Fatness" : 3.212598,
						"Freq" : 6763.828125,
						"GateTime" : 80.0,
						"GateTime[1]" : 10.0,
						"Legato" : 0.0,
						"Level" : -7.128981,
						"Linear" : 2.0,
						"Mute" : 0.0,
						"Mute[1]" : 0.0,
						"Mute[2]" : 0.0,
						"Offset" : 0.0,
						"OutputChannel" : 0.0,
						"Pattern" : 1.0,
						"Release" : 2000.0,
						"Steps" : 16.0,
						"Sustain" : 100.0,
						"Swing amount" : 0.0,
						"Swing enable" : 0.0,
						"Sync" : 0.0,
						"WaveformCloud" : 0.0,
						"bypass" : 0.0,
						"enable" : 1.0,
						"live.tab" : 0.0,
						"live.text" : 0.0,
						"mute" : 0.0,
						"mute[1]" : 0.0,
						"trans_trig" : 0.0,
						"TimeMode" : 1.0,
						"blob" : 						{
							"NoteGrid" : [ 3, 16, 1, 0, 10, 0, 1000, 2000, 4000, 6000, 8000, 9000, 11000, 14000, 15000, 2, 2, 2, 2, 2, 2, 2, 2, 2, 2, 2, 2, 2, 2, 2, 2 ],
							"Pulse" : [ 4.0 ],
							"Pulse[1]" : [ "8n" ],
							"Reset" : [ 0.0 ],
							"Sequence" : [ 16, 16, 0, 16, 0, 16, 0, 16, 0, 16, 0, 16, 0, 16, 0, 16, 0, 16, 0, 16, 0, 16, 0, 16, 0, 16, 0, 16, 0, 16, 0, 16, 0, 1, 12, 0, 16, 59.0, 80.0, 0, 0, 60, 101, 4, 37, 127, 63, 83, 4, 23, 127, 67, 57, 4, 17, 127, 74, 78, 4, 18, 127, 70, 35, 4, 31, 127, 67, 75, 4, 53, 127, 60, 114, 4, 48, 127, 70, 75, 4, 47, 127, 67, 59, 4, 41, 127, 79, 80, 4, 38, 127, 60, 100, 4, 35, 127, 70, 84, 4, 30, 127, 60, 114, 4, 26, 127, 63, 98, 4, 18, 127, 70, 97, 4, 30, 127, 62, 103, 4, 41, 127, 1, 12, 0, 16, 48.0, 71.0, 0, 0, 64, 72, 4, 54, 18, 66, 45, 4, 38, 95, 54, 8, 4, 12, 3, 69, 70, 4, 2, 2, 63, 111, 4, 20, 99, 66, 25, 4, 119, 51, 50, 43, 4, 65, 105, 53, 83, 4, 91, 85, 48, 54, 4, 4, 29, 59, 93, 4, 0, 88, 49, 21, 4, 89, 79, 61, 73, 4, 73, 36, 49, 73, 4, 18, 44, 54, 66, 4, 70, 96, 53, 19, 4, 21, 46, 52, 16, 4, 56, 124, 1, 12, 0, 16, 48.0, 71.0, 0, 0, 54, 26, 4, 59, 19, 65, 67, 4, 8, 119, 70, 12, 4, 57, 75, 60, 19, 4, 48, 16, 48, 88, 4, 15, 7, 65, 98, 4, 44, 104, 61, 105, 4, 96, 104, 52, 9, 4, 10, 67, 59, 97, 4, 44, 41, 70, 51, 4, 64, 56, 60, 24, 4, 112, 91, 51, 40, 4, 44, 60, 69, 33, 4, 32, 27, 67, 32, 4, 61, 33, 68, 4, 4, 81, 16, 54, 81, 4, 67, 100, 1, 12, 0, 16, 48.0, 71.0, 0, 0, 70, 97, 4, 12, 108, 54, 25, 4, 46, 47, 58, 8, 4, 14, 103, 69, 78, 4, 25, 36, 60, 106, 4, 106, 71, 52, 54, 4, 127, 34, 67, 60, 4, 79, 44, 48, 69, 4, 34, 54, 61, 97, 4, 87, 17, 49, 10, 4, 28, 21, 58, 7, 4, 72, 57, 52, 86, 4, 112, 63, 68, 10, 4, 40, 24, 55, 60, 4, 124, 124, 68, 109, 4, 96, 118, 53, 125, 4, 17, 126, 1, 12, 0, 16, 48.0, 71.0, 0, 0, 60, 112, 4, 115, 82, 63, 1, 4, 63, 98, 66, 112, 4, 13, 25, 68, 125, 4, 110, 25, 54, 57, 4, 124, 122, 51, 117, 4, 82, 53, 51, 93, 4, 24, 79, 50, 114, 4, 123, 90, 51, 79, 4, 94, 90, 70, 92, 4, 11, 102, 65, 2, 4, 120, 115, 48, 30, 4, 98, 38, 53, 15, 4, 69, 42, 58, 10, 4, 98, 108, 65, 51, 4, 92, 33, 57, 55, 4, 125, 13, 1, 12, 0, 16, 48.0, 71.0, 0, 0, 67, 126, 4, 64, 92, 67, 0, 4, 57, 54, 67, 45, 4, 10, 25, 57, 7, 4, 70, 61, 50, 107, 4, 111, 112, 61, 30, 4, 92, 56, 66, 76, 4, 27, 88, 67, 41, 4, 73, 23, 59, 73, 4, 119, 110, 53, 59, 4, 56, 111, 59, 16, 4, 121, 70, 58, 99, 4, 111, 0, 62, 32, 4, 1, 53, 57, 81, 4, 125, 120, 63, 86, 4, 99, 98, 68, 112, 4, 40, 53, 1, 12, 0, 16, 48.0, 71.0, 0, 0, 58, 108, 4, 114, 7, 69, 90, 4, 6, 83, 56, 7, 4, 104, 33, 48, 54, 4, 44, 67, 48, 38, 4, 75, 120, 55, 94, 4, 115, 41, 49, 114, 4, 46, 76, 66, 52, 4, 43, 13, 59, 59, 4, 9, 71, 62, 104, 4, 17, 75, 61, 6, 4, 79, 68, 57, 40, 4, 12, 19, 50, 1, 4, 52, 62, 59, 93, 4, 121, 80, 63, 99, 4, 103, 80, 58, 62, 4, 90, 19, 1, 12, 0, 16, 48.0, 71.0, 0, 0, 54, 43, 4, 45, 80, 68, 73, 4, 64, 41, 67, 99, 4, 106, 11, 52, 61, 4, 66, 41, 68, 22, 4, 76, 77, 57, 89, 4, 31, 68, 64, 39, 4, 87, 9, 61, 83, 4, 30, 30, 64, 125, 4, 47, 92, 63, 66, 4, 3, 100, 70, 105, 4, 58, 57, 52, 119, 4, 54, 30, 61, 111, 4, 64, 65, 60, 13, 4, 94, 93, 66, 109, 4, 86, 9, 48, 86, 4, 56, 62, 1, 12, 0, 16, 48.0, 71.0, 0, 0, 55, 29, 4, 115, 24, 59, 38, 4, 30, 120, 66, 86, 4, 119, 117, 53, 24, 4, 65, 42, 48, 97, 4, 125, 98, 53, 105, 4, 122, 52, 67, 78, 4, 21, 115, 62, 60, 4, 114, 30, 60, 101, 4, 67, 79, 64, 97, 4, 72, 97, 52, 87, 4, 70, 24, 69, 16, 4, 64, 19, 59, 108, 4, 1, 83, 62, 25, 4, 124, 80, 52, 3, 4, 122, 11, 67, 19, 4, 35, 35, 1, 12, 0, 16, 48.0, 71.0, 0, 0, 70, 14, 4, 105, 91, 56, 95, 4, 98, 119, 65, 69, 4, 73, 75, 58, 110, 4, 35, 106, 64, 16, 4, 23, 77, 66, 72, 4, 8, 15, 67, 15, 4, 7, 34, 63, 65, 4, 69, 119, 54, 49, 4, 71, 16, 57, 66, 4, 8, 93, 64, 107, 4, 79, 91, 52, 7, 4, 94, 59, 61, 13, 4, 118, 101, 60, 49, 4, 114, 44, 53, 10, 4, 64, 90, 51, 20, 4, 84, 126, 1, 12, 0, 16, 48.0, 71.0, 0, 0, 64, 112, 4, 52, 44, 62, 44, 4, 13, 22, 60, 69, 4, 33, 101, 56, 116, 4, 71, 87, 59, 75, 4, 55, 91, 53, 32, 4, 80, 123, 64, 65, 4, 24, 120, 52, 116, 4, 57, 55, 50, 58, 4, 66, 50, 70, 78, 4, 27, 84, 50, 73, 4, 118, 121, 61, 89, 4, 87, 101, 50, 26, 4, 55, 15, 48, 61, 4, 82, 27, 70, 101, 4, 112, 87, 49, 56, 4, 54, 17, 1, 12, 0, 16, 48.0, 71.0, 0, 0, 52, 63, 4, 94, 79, 66, 79, 4, 107, 124, 64, 5, 4, 118, 70, 60, 45, 4, 49, 127, 48, 64, 4, 41, 60, 65, 121, 4, 101, 27, 62, 24, 4, 120, 93, 55, 106, 4, 44, 71, 61, 2, 4, 48, 121, 54, 24, 4, 17, 13, 54, 75, 4, 88, 57, 69, 59, 4, 23, 25, 67, 98, 4, 19, 113, 64, 33, 4, 2, 55, 63, 124, 4, 4, 38, 66, 71, 4, 60, 76, 1, 12, 0, 16, 48.0, 71.0, 0, 0, 62, 105, 4, 112, 80, 51, 105, 4, 15, 51, 61, 114, 4, 19, 15, 58, 126, 4, 26, 86, 63, 10, 4, 32, 21, 58, 99, 4, 61, 52, 50, 112, 4, 20, 32, 63, 60, 4, 65, 18, 68, 13, 4, 7, 3, 68, 49, 4, 73, 111, 61, 52, 4, 47, 71, 56, 90, 4, 64, 36, 59, 78, 4, 115, 9, 56, 92, 4, 60, 94, 57, 12, 4, 64, 25, 62, 23, 4, 99, 118, 1, 12, 0, 16, 48.0, 71.0, 0, 0, 64, 39, 4, 69, 57, 66, 86, 4, 120, 16, 66, 47, 4, 50, 91, 63, 50, 4, 91, 100, 55, 118, 4, 37, 92, 63, 125, 4, 5, 79, 58, 46, 4, 114, 87, 58, 110, 4, 55, 66, 53, 24, 4, 66, 100, 70, 55, 4, 122, 14, 64, 83, 4, 110, 107, 60, 36, 4, 114, 77, 54, 26, 4, 67, 35, 52, 91, 4, 103, 51, 49, 102, 4, 122, 127, 59, 81, 4, 87, 77, 1, 12, 0, 16, 48.0, 71.0, 0, 0, 52, 8, 4, 61, 96, 52, 110, 4, 53, 75, 60, 54, 4, 36, 41, 58, 72, 4, 54, 54, 61, 93, 4, 77, 30, 49, 50, 4, 99, 109, 68, 2, 4, 103, 8, 63, 87, 4, 50, 20, 70, 60, 4, 92, 45, 63, 19, 4, 6, 7, 66, 42, 4, 24, 40, 50, 63, 4, 95, 125, 53, 98, 4, 59, 28, 63, 120, 4, 32, 118, 66, 111, 4, 36, 74, 60, 91, 4, 43, 79, 1, 12, 0, 16, 48.0, 71.0, 0, 0, 56, 43, 4, 98, 24, 51, 13, 4, 117, 28, 55, 52, 4, 115, 74, 52, 45, 4, 2, 0, 49, 120, 4, 88, 20, 69, 10, 4, 127, 117, 59, 60, 4, 21, 60, 52, 121, 4, 21, 55, 58, 69, 4, 56, 103, 56, 120, 4, 95, 28, 59, 73, 4, 114, 52, 64, 99, 4, 47, 70, 70, 110, 4, 58, 27, 68, 121, 4, 58, 58, 51, 56, 4, 3, 14, 59, 76, 4, 99, 38 ]
						}

					}

				}

			}

		}

	}

}
