{
	"patcher" : 	{
		"fileversion" : 1,
		"appversion" : 		{
			"major" : 7,
			"minor" : 0,
			"revision" : 3,
			"architecture" : "x86",
			"modernui" : 1
		}
,
		"rect" : [ 70.0, 96.0, 750.0, 697.0 ],
		"bglocked" : 0,
		"openinpresentation" : 0,
		"default_fontsize" : 12.0,
		"default_fontface" : 0,
		"default_fontname" : "Arial",
		"gridonopen" : 1,
		"gridsize" : [ 15.0, 15.0 ],
		"gridsnaponopen" : 1,
		"objectsnaponopen" : 1,
		"statusbarvisible" : 2,
		"toolbarvisible" : 1,
		"lefttoolbarpinned" : 0,
		"toptoolbarpinned" : 0,
		"righttoolbarpinned" : 0,
		"bottomtoolbarpinned" : 0,
		"toolbars_unpinned_last_save" : 0,
		"tallnewobj" : 0,
		"boxanimatetime" : 200,
		"enablehscroll" : 1,
		"enablevscroll" : 1,
		"devicewidth" : 0.0,
		"description" : "",
		"digest" : "",
		"tags" : "",
		"style" : "",
		"subpatcher_template" : "",
		"showrootpatcherontab" : 0,
		"showontab" : 0,
		"boxes" : [ 			{
				"box" : 				{
					"fontname" : "Arial",
					"fontsize" : 12.0,
					"id" : "obj-21",
					"maxclass" : "message",
					"numinlets" : 2,
					"numoutlets" : 1,
					"outlettype" : [ "" ],
					"patching_rect" : [ 740.0, 291.0, 244.0, 22.0 ],
					"style" : "",
					"text" : "window size 20 60 1023 768, window exec"
				}

			}
, 			{
				"box" : 				{
					"fontname" : "Arial",
					"fontsize" : 12.0,
					"id" : "obj-20",
					"maxclass" : "message",
					"numinlets" : 2,
					"numoutlets" : 1,
					"outlettype" : [ "" ],
					"patching_rect" : [ 740.0, 424.0, 182.0, 22.0 ],
					"style" : "",
					"text" : "window size 20 60 922 728"
				}

			}
, 			{
				"box" : 				{
					"fontname" : "Arial",
					"fontsize" : 12.0,
					"id" : "obj-17",
					"maxclass" : "message",
					"numinlets" : 2,
					"numoutlets" : 1,
					"outlettype" : [ "" ],
					"patching_rect" : [ 765.0, 327.0, 94.0, 22.0 ],
					"style" : "",
					"text" : "window getsize"
				}

			}
, 			{
				"box" : 				{
					"fontname" : "Arial",
					"fontsize" : 12.0,
					"id" : "obj-13",
					"maxclass" : "newobj",
					"numinlets" : 1,
					"numoutlets" : 2,
					"outlettype" : [ "", "" ],
					"patching_rect" : [ 740.0, 369.0, 71.0, 22.0 ],
					"save" : [ "#N", "thispatcher", ";", "#Q", "end", ";" ],
					"style" : "",
					"text" : "thispatcher"
				}

			}
, 			{
				"box" : 				{
					"fontname" : "Arial",
					"fontsize" : 12.0,
					"id" : "obj-2",
					"maxclass" : "newobj",
					"numinlets" : 0,
					"numoutlets" : 0,
					"patcher" : 					{
						"fileversion" : 1,
						"appversion" : 						{
							"major" : 7,
							"minor" : 0,
							"revision" : 3,
							"architecture" : "x86",
							"modernui" : 1
						}
,
						"rect" : [ 70.0, 122.0, 750.0, 671.0 ],
						"bgcolor" : [ 0.88, 0.88, 0.88, 1.0 ],
						"bglocked" : 0,
						"openinpresentation" : 0,
						"default_fontsize" : 13.0,
						"default_fontface" : 0,
						"default_fontname" : "Arial",
						"gridonopen" : 1,
						"gridsize" : [ 5.0, 5.0 ],
						"gridsnaponopen" : 1,
						"objectsnaponopen" : 1,
						"statusbarvisible" : 2,
						"toolbarvisible" : 1,
						"lefttoolbarpinned" : 0,
						"toptoolbarpinned" : 0,
						"righttoolbarpinned" : 0,
						"bottomtoolbarpinned" : 0,
						"toolbars_unpinned_last_save" : 0,
						"tallnewobj" : 0,
						"boxanimatetime" : 200,
						"enablehscroll" : 1,
						"enablevscroll" : 1,
						"devicewidth" : 0.0,
						"description" : "",
						"digest" : "",
						"tags" : "",
						"style" : "",
						"subpatcher_template" : "",
						"showontab" : 1,
						"boxes" : [ 							{
								"box" : 								{
									"bubble" : 1,
									"bubbleside" : 0,
									"id" : "obj-13",
									"linecount" : 2,
									"maxclass" : "comment",
									"numinlets" : 1,
									"numoutlets" : 0,
									"patching_rect" : [ 356.960205, 254.5, 150.0, 55.0 ],
									"style" : "",
									"text" : "Change the Low and Hight Folding Settings"
								}

							}
, 							{
								"box" : 								{
									"bgmode" : 0,
									"border" : 0,
									"clickthrough" : 0,
									"embed" : 1,
									"enablehscroll" : 0,
									"enablevscroll" : 0,
									"id" : "obj-18",
									"lockeddragscroll" : 0,
									"maxclass" : "bpatcher",
									"numinlets" : 2,
									"numoutlets" : 1,
									"offset" : [ 0.0, 0.0 ],
									"outlettype" : [ "signal" ],
									"patcher" : 									{
										"fileversion" : 1,
										"appversion" : 										{
											"major" : 7,
											"minor" : 0,
											"revision" : 3,
											"architecture" : "x86",
											"modernui" : 1
										}
,
										"rect" : [ 395.0, 477.0, 372.0, 214.0 ],
										"bgcolor" : [ 1.0, 1.0, 1.0, 0.0 ],
										"bglocked" : 0,
										"openinpresentation" : 1,
										"default_fontsize" : 12.0,
										"default_fontface" : 0,
										"default_fontname" : "Arial",
										"gridonopen" : 1,
										"gridsize" : [ 15.0, 15.0 ],
										"gridsnaponopen" : 1,
										"objectsnaponopen" : 1,
										"statusbarvisible" : 1,
										"toolbarvisible" : 1,
										"lefttoolbarpinned" : 0,
										"toptoolbarpinned" : 0,
										"righttoolbarpinned" : 0,
										"bottomtoolbarpinned" : 0,
										"toolbars_unpinned_last_save" : 0,
										"tallnewobj" : 0,
										"boxanimatetime" : 200,
										"enablehscroll" : 1,
										"enablevscroll" : 1,
										"devicewidth" : 0.0,
										"description" : "",
										"digest" : "",
										"tags" : "",
										"style" : "",
										"subpatcher_template" : "",
										"boxes" : [ 											{
												"box" : 												{
													"id" : "obj-7",
													"linecount" : 3,
													"maxclass" : "comment",
													"numinlets" : 1,
													"numoutlets" : 0,
													"patching_rect" : [ 57.986206, 113.0, 154.0, 47.0 ],
													"style" : "",
													"text" : "## Large format signal scope with 1v/oct input for domain lock ##"
												}

											}
, 											{
												"box" : 												{
													"fontname" : "Arial",
													"fontsize" : 12.0,
													"id" : "obj-2",
													"maxclass" : "newobj",
													"numinlets" : 1,
													"numoutlets" : 4,
													"outlettype" : [ "", "", "", "" ],
													"patching_rect" : [ 57.986206, 178.0, 59.5, 22.0 ],
													"restore" : 													{
														"Lock" : [ 2.0 ],
														"Points" : [ 1685.615112 ],
														"divide" : [ 0.0 ],
														"multiply" : [ 0.0 ]
													}
,
													"style" : "",
													"text" : "autopattr",
													"varname" : "u668009060"
												}

											}
, 											{
												"box" : 												{
													"activebgoncolor" : [ 0.278431, 0.839216, 1.0, 1.0 ],
													"id" : "obj-1",
													"maxclass" : "live.text",
													"mode" : 0,
													"numinlets" : 1,
													"numoutlets" : 2,
													"outlettype" : [ "", "" ],
													"parameter_enable" : 1,
													"patching_rect" : [ 598.0, 522.0, 40.0, 20.0 ],
													"presentation" : 1,
													"presentation_rect" : [ 302.0, 171.0, 26.623941, 16.734447 ],
													"saved_attribute_attributes" : 													{
														"valueof" : 														{
															"parameter_longname" : "divide",
															"parameter_shortname" : "divide",
															"parameter_type" : 0,
															"parameter_mmax" : 1.0,
															"parameter_enum" : [ "val1", "val2" ],
															"parameter_initial" : [ 0 ],
															"parameter_annotation_name" : "divide"
														}

													}
,
													"text" : "/2",
													"varname" : "divide"
												}

											}
, 											{
												"box" : 												{
													"fontname" : "Arial",
													"fontsize" : 12.0,
													"id" : "obj-53",
													"linecount" : 2,
													"maxclass" : "message",
													"numinlets" : 2,
													"numoutlets" : 1,
													"outlettype" : [ "" ],
													"patching_rect" : [ 696.5, 622.0, 74.0, 22.0 ],
													"style" : "",
													"text" : "3371.230225"
												}

											}
, 											{
												"box" : 												{
													"fontname" : "Arial",
													"fontsize" : 12.0,
													"id" : "obj-56",
													"maxclass" : "newobj",
													"numinlets" : 2,
													"numoutlets" : 1,
													"outlettype" : [ "float" ],
													"patching_rect" : [ 751.5, 570.0, 32.5, 22.0 ],
													"style" : "",
													"text" : "* 2."
												}

											}
, 											{
												"box" : 												{
													"activebgoncolor" : [ 0.278431, 0.839216, 1.0, 1.0 ],
													"id" : "obj-52",
													"maxclass" : "live.text",
													"mode" : 0,
													"numinlets" : 1,
													"numoutlets" : 2,
													"outlettype" : [ "", "" ],
													"parameter_enable" : 1,
													"patching_rect" : [ 696.5, 522.0, 40.0, 20.0 ],
													"presentation" : 1,
													"presentation_rect" : [ 337.0, 171.0, 26.623941, 16.734447 ],
													"saved_attribute_attributes" : 													{
														"valueof" : 														{
															"parameter_longname" : "multiply",
															"parameter_shortname" : "multiply",
															"parameter_type" : 2,
															"parameter_mmax" : 1.0,
															"parameter_enum" : [ "val1", "val2" ]
														}

													}
,
													"text" : "*2",
													"varname" : "multiply"
												}

											}
, 											{
												"box" : 												{
													"fontname" : "Arial",
													"fontsize" : 12.0,
													"id" : "obj-50",
													"maxclass" : "message",
													"numinlets" : 2,
													"numoutlets" : 1,
													"outlettype" : [ "" ],
													"patching_rect" : [ 598.0, 622.0, 74.0, 22.0 ],
													"style" : "",
													"text" : "842.807556"
												}

											}
, 											{
												"box" : 												{
													"fontname" : "Arial",
													"fontsize" : 12.0,
													"id" : "obj-48",
													"maxclass" : "newobj",
													"numinlets" : 2,
													"numoutlets" : 1,
													"outlettype" : [ "float" ],
													"patching_rect" : [ 653.0, 570.0, 32.5, 22.0 ],
													"style" : "",
													"text" : "/ 2."
												}

											}
, 											{
												"box" : 												{
													"fontname" : "Arial",
													"fontsize" : 12.0,
													"id" : "obj-20",
													"maxclass" : "newobj",
													"numinlets" : 2,
													"numoutlets" : 1,
													"outlettype" : [ "" ],
													"patching_rect" : [ 734.25, 271.470001, 89.0, 22.0 ],
													"style" : "",
													"text" : "speedlim 1000"
												}

											}
, 											{
												"box" : 												{
													"activebgcolor" : [ 0.0, 0.0, 0.0, 1.0 ],
													"id" : "obj-129",
													"maxclass" : "live.numbox",
													"numinlets" : 1,
													"numoutlets" : 2,
													"outlettype" : [ "", "float" ],
													"parameter_enable" : 1,
													"patching_rect" : [ 451.0, 538.0, 84.0, 15.0 ],
													"presentation" : 1,
													"presentation_rect" : [ 302.0, 147.516205, 63.688538, 15.0 ],
													"saved_attribute_attributes" : 													{
														"valueof" : 														{
															"parameter_longname" : "Points",
															"parameter_shortname" : "Points",
															"parameter_type" : 0,
															"parameter_mmax" : 40000.0,
															"parameter_initial_enable" : 1,
															"parameter_initial" : [ 100 ],
															"parameter_unitstyle" : 1
														}

													}
,
													"textcolor" : [ 0.278431, 0.839216, 1.0, 1.0 ],
													"varname" : "Points"
												}

											}
, 											{
												"box" : 												{
													"fontname" : "Arial",
													"fontsize" : 12.0,
													"id" : "obj-11",
													"maxclass" : "message",
													"numinlets" : 2,
													"numoutlets" : 1,
													"outlettype" : [ "" ],
													"patching_rect" : [ 493.5, 419.0, 32.5, 22.0 ],
													"style" : "",
													"text" : "0"
												}

											}
, 											{
												"box" : 												{
													"fontname" : "Arial",
													"fontsize" : 12.0,
													"id" : "obj-9",
													"maxclass" : "message",
													"numinlets" : 2,
													"numoutlets" : 1,
													"outlettype" : [ "" ],
													"patching_rect" : [ 451.0, 419.0, 32.5, 22.0 ],
													"style" : "",
													"text" : "1"
												}

											}
, 											{
												"box" : 												{
													"fontname" : "Arial",
													"fontsize" : 12.0,
													"id" : "obj-6",
													"maxclass" : "newobj",
													"numinlets" : 2,
													"numoutlets" : 2,
													"outlettype" : [ "bang", "" ],
													"patching_rect" : [ 451.0, 361.470001, 61.5, 22.0 ],
													"style" : "",
													"text" : "sel 0"
												}

											}
, 											{
												"box" : 												{
													"fontname" : "Arial",
													"fontsize" : 12.0,
													"id" : "obj-4",
													"maxclass" : "message",
													"numinlets" : 2,
													"numoutlets" : 1,
													"outlettype" : [ "" ],
													"patching_rect" : [ 451.0, 469.0, 59.0, 22.0 ],
													"style" : "",
													"text" : "active $1"
												}

											}
, 											{
												"box" : 												{
													"fontname" : "Arial",
													"fontsize" : 13.0,
													"id" : "obj-34",
													"maxclass" : "message",
													"numinlets" : 2,
													"numoutlets" : 1,
													"outlettype" : [ "" ],
													"patching_rect" : [ 451.0, 578.629272, 91.0, 23.0 ],
													"style" : "",
													"text" : "numpoints $1"
												}

											}
, 											{
												"box" : 												{
													"bubble" : 1,
													"fontname" : "Arial",
													"fontsize" : 12.0,
													"id" : "obj-55",
													"linecount" : 2,
													"maxclass" : "comment",
													"numinlets" : 1,
													"numoutlets" : 0,
													"patching_rect" : [ 691.0, 369.002625, 150.0, 37.0 ],
													"style" : "",
													"text" : "how many cycles in 100ms (1/10 second)"
												}

											}
, 											{
												"box" : 												{
													"fontname" : "Arial",
													"fontsize" : 13.0,
													"id" : "obj-37",
													"maxclass" : "newobj",
													"numinlets" : 2,
													"numoutlets" : 1,
													"outlettype" : [ "float" ],
													"patching_rect" : [ 623.75, 377.002625, 61.0, 23.0 ],
													"style" : "",
													"text" : "!/ 10000."
												}

											}
, 											{
												"box" : 												{
													"fontname" : "Arial",
													"fontsize" : 13.0,
													"id" : "obj-38",
													"maxclass" : "newobj",
													"numinlets" : 1,
													"numoutlets" : 2,
													"outlettype" : [ "signal", "float" ],
													"patching_rect" : [ 623.75, 417.5, 85.0, 23.0 ],
													"style" : "",
													"text" : "mstosamps~"
												}

											}
, 											{
												"box" : 												{
													"fontname" : "Arial Bold",
													"fontsize" : 9.0,
													"id" : "obj-36",
													"maxclass" : "comment",
													"numinlets" : 1,
													"numoutlets" : 0,
													"patching_rect" : [ 451.0, 229.0, 32.0, 17.0 ],
													"presentation" : 1,
													"presentation_rect" : [ 303.0, 49.292229, 32.0, 17.0 ],
													"style" : "",
													"text" : "Lock",
													"textcolor" : [ 1.0, 1.0, 1.0, 1.0 ]
												}

											}
, 											{
												"box" : 												{
													"activebgoncolor" : [ 0.278431, 0.839216, 1.0, 1.0 ],
													"id" : "obj-69",
													"maxclass" : "live.tab",
													"mode" : 1,
													"num_lines_patching" : 1,
													"num_lines_presentation" : 3,
													"numinlets" : 1,
													"numoutlets" : 3,
													"outlettype" : [ "", "", "float" ],
													"parameter_enable" : 1,
													"patching_rect" : [ 451.0, 254.719116, 156.0, 18.280884 ],
													"presentation" : 1,
													"presentation_rect" : [ 302.0, 65.292229, 63.688538, 76.0 ],
													"saved_attribute_attributes" : 													{
														"valueof" : 														{
															"parameter_longname" : "Lock",
															"parameter_shortname" : "Lock",
															"parameter_type" : 2,
															"parameter_enum" : [ "Off", "Smart", "1v/oct" ],
															"parameter_unitstyle" : 0
														}

													}
,
													"varname" : "Lock"
												}

											}
, 											{
												"box" : 												{
													"fontname" : "Arial",
													"fontsize" : 12.0,
													"id" : "obj-35",
													"maxclass" : "newobj",
													"numinlets" : 3,
													"numoutlets" : 1,
													"outlettype" : [ "" ],
													"patching_rect" : [ 623.75, 318.497406, 240.0, 22.0 ],
													"style" : "",
													"text" : "switch 2 0"
												}

											}
, 											{
												"box" : 												{
													"fontname" : "Arial",
													"fontsize" : 12.0,
													"id" : "obj-31",
													"maxclass" : "newobj",
													"numinlets" : 2,
													"numoutlets" : 1,
													"outlettype" : [ "float" ],
													"patching_rect" : [ 844.75, 278.470001, 96.0, 22.0 ],
													"style" : "",
													"text" : "snapshot~ 1000"
												}

											}
, 											{
												"box" : 												{
													"fontname" : "Arial",
													"fontsize" : 12.0,
													"id" : "obj-30",
													"maxclass" : "newobj",
													"numinlets" : 2,
													"numoutlets" : 1,
													"outlettype" : [ "signal" ],
													"patching_rect" : [ 372.0, 128.0, 42.0, 22.0 ],
													"style" : "",
													"text" : "*~ 0.2"
												}

											}
, 											{
												"box" : 												{
													"bgcolor" : [ 0.0, 0.0, 0.0, 1.0 ],
													"id" : "obj-27",
													"margins" : [ 1.0, 0.0, 1.0, 0.0 ],
													"maxclass" : "plot~",
													"numinlets" : 1,
													"numoutlets" : 1,
													"numpoints" : 1685,
													"outlettype" : [ "" ],
													"patching_rect" : [ 451.0, 669.0, 250.0, 164.0 ],
													"presentation" : 1,
													"presentation_rect" : [ 8.0, 49.292229, 289.0, 140.0 ],
													"subplots" : [ 														{
															"color" : [ 0.375, 0.853516, 1.0, 1.0 ],
															"thickness" : 1.2,
															"point_style" : "none",
															"line_style" : "lines",
															"number_style" : "none",
															"filter" : "none",
															"domain_start" : 0.0,
															"domain_end" : 1.0,
															"domain_style" : "linear",
															"domain_markers" : [ 1.0, 0.875, 0.75, 0.625, 0.5, 0.375, 0.25, 0.125, 0.0 ],
															"domain_labels" : [  ],
															"range_start" : -1.0,
															"range_end" : 1.0,
															"range_style" : "linear",
															"range_markers" : [ 0.5, 0.0, -0.5 ],
															"range_labels" : [  ],
															"origin_x" : 0.0,
															"origin_y" : 0.0
														}
 ]
												}

											}
, 											{
												"box" : 												{
													"fontname" : "Arial",
													"fontsize" : 12.0,
													"id" : "obj-40",
													"maxclass" : "newobj",
													"numinlets" : 1,
													"numoutlets" : 3,
													"outlettype" : [ "float", "float", "bang" ],
													"patching_rect" : [ 734.25, 238.470001, 46.0, 22.0 ],
													"style" : "",
													"text" : "fzero~"
												}

											}
, 											{
												"box" : 												{
													"fontname" : "Arial Bold",
													"fontsize" : 9.0,
													"id" : "obj-16",
													"maxclass" : "comment",
													"numinlets" : 1,
													"numoutlets" : 0,
													"patching_rect" : [ 874.25, 155.940002, 37.0, 17.0 ],
													"presentation" : 1,
													"presentation_rect" : [ 333.0, 0.0, 37.0, 17.0 ],
													"style" : "",
													"text" : "1v/oct",
													"textcolor" : [ 1.0, 1.0, 1.0, 1.0 ]
												}

											}
, 											{
												"box" : 												{
													"comment" : "CV",
													"id" : "obj-10",
													"maxclass" : "inlet",
													"numinlets" : 0,
													"numoutlets" : 1,
													"outlettype" : [ "" ],
													"patching_rect" : [ 844.75, 155.940002, 25.0, 25.0 ],
													"style" : ""
												}

											}
, 											{
												"box" : 												{
													"fontname" : "Arial",
													"fontsize" : 12.0,
													"id" : "obj-5",
													"maxclass" : "newobj",
													"numinlets" : 1,
													"numoutlets" : 1,
													"outlettype" : [ "signal" ],
													"patching_rect" : [ 844.75, 240.470001, 41.0, 22.0 ],
													"style" : "",
													"text" : "mtof~"
												}

											}
, 											{
												"box" : 												{
													"fontname" : "Arial",
													"fontsize" : 12.0,
													"id" : "obj-54",
													"maxclass" : "newobj",
													"numinlets" : 6,
													"numoutlets" : 1,
													"outlettype" : [ "signal" ],
													"patching_rect" : [ 844.75, 205.470001, 116.0, 22.0 ],
													"style" : "",
													"text" : "scale~ -5. 5. 0. 120."
												}

											}
, 											{
												"box" : 												{
													"annotation" : "output",
													"comment" : "output",
													"id" : "obj-29",
													"maxclass" : "outlet",
													"numinlets" : 1,
													"numoutlets" : 0,
													"patching_rect" : [ 314.0, 123.0, 25.0, 25.0 ],
													"style" : ""
												}

											}
, 											{
												"box" : 												{
													"comment" : "CV",
													"id" : "obj-17",
													"maxclass" : "inlet",
													"numinlets" : 0,
													"numoutlets" : 1,
													"outlettype" : [ "signal" ],
													"patching_rect" : [ 372.0, 42.5, 25.0, 25.0 ],
													"style" : ""
												}

											}
, 											{
												"box" : 												{
													"fontname" : "Arial Bold",
													"fontsize" : 9.0,
													"id" : "obj-8",
													"maxclass" : "comment",
													"numinlets" : 1,
													"numoutlets" : 0,
													"patching_rect" : [ 270.0, 128.0, 30.0, 17.0 ],
													"presentation" : 1,
													"presentation_rect" : [ 2.0, 196.0, 30.0, 17.0 ],
													"style" : "",
													"text" : "Thru",
													"textcolor" : [ 1.0, 1.0, 1.0, 1.0 ]
												}

											}
, 											{
												"box" : 												{
													"fontname" : "Arial Bold",
													"fontsize" : 9.0,
													"id" : "obj-19",
													"maxclass" : "comment",
													"numinlets" : 1,
													"numoutlets" : 0,
													"patching_rect" : [ 403.0, 46.5, 38.0, 17.0 ],
													"presentation" : 1,
													"presentation_rect" : [ 2.0, 0.0, 38.0, 17.0 ],
													"style" : "",
													"text" : "Signal",
													"textcolor" : [ 1.0, 1.0, 1.0, 1.0 ]
												}

											}
, 											{
												"box" : 												{
													"fontname" : "Arial Bold",
													"fontsize" : 9.0,
													"id" : "obj-13",
													"maxclass" : "comment",
													"numinlets" : 1,
													"numoutlets" : 0,
													"patching_rect" : [ 57.986206, 65.907501, 61.0, 17.0 ],
													"presentation" : 1,
													"presentation_rect" : [ 2.0, 19.0, 61.0, 17.0 ],
													"style" : "",
													"text" : "BIG SCOPE",
													"textcolor" : [ 1.0, 1.0, 1.0, 1.0 ]
												}

											}
, 											{
												"box" : 												{
													"angle" : 0.0,
													"background" : 1,
													"bgcolor" : [ 0.137255, 0.145098, 0.160784, 0.65 ],
													"id" : "obj-18",
													"maxclass" : "panel",
													"mode" : 0,
													"numinlets" : 1,
													"numoutlets" : 0,
													"patching_rect" : [ 105.986206, 42.326721, 44.0, 9.0 ],
													"presentation" : 1,
													"presentation_rect" : [ 0.0, 36.610306, 469.268768, 158.433029 ],
													"proportion" : 0.39,
													"rounded" : 0,
													"style" : ""
												}

											}
, 											{
												"box" : 												{
													"angle" : 0.0,
													"background" : 1,
													"bgcolor" : [ 0.367404, 0.389405, 0.430238, 1.0 ],
													"id" : "obj-21",
													"maxclass" : "panel",
													"mode" : 0,
													"numinlets" : 1,
													"numoutlets" : 0,
													"patching_rect" : [ 153.986206, 42.326721, 44.0, 9.0 ],
													"presentation" : 1,
													"presentation_rect" : [ 0.0, 16.610306, 469.268768, 178.433029 ],
													"proportion" : 0.39,
													"rounded" : 0,
													"style" : ""
												}

											}
, 											{
												"box" : 												{
													"angle" : 0.0,
													"background" : 1,
													"bgcolor" : [ 0.0, 0.0, 0.0, 1.0 ],
													"id" : "obj-14",
													"maxclass" : "panel",
													"mode" : 0,
													"numinlets" : 1,
													"numoutlets" : 0,
													"patching_rect" : [ 57.986206, 42.326721, 44.0, 9.0 ],
													"presentation" : 1,
													"presentation_rect" : [ 0.0, -0.389694, 469.268768, 232.433029 ],
													"proportion" : 0.39,
													"rounded" : 0,
													"style" : ""
												}

											}
 ],
										"lines" : [ 											{
												"patchline" : 												{
													"destination" : [ "obj-50", 0 ],
													"disabled" : 0,
													"hidden" : 0,
													"source" : [ "obj-1", 0 ]
												}

											}
, 											{
												"patchline" : 												{
													"destination" : [ "obj-54", 0 ],
													"disabled" : 0,
													"hidden" : 0,
													"source" : [ "obj-10", 0 ]
												}

											}
, 											{
												"patchline" : 												{
													"destination" : [ "obj-4", 0 ],
													"disabled" : 0,
													"hidden" : 0,
													"source" : [ "obj-11", 0 ]
												}

											}
, 											{
												"patchline" : 												{
													"destination" : [ "obj-34", 0 ],
													"disabled" : 0,
													"hidden" : 0,
													"source" : [ "obj-129", 0 ]
												}

											}
, 											{
												"patchline" : 												{
													"destination" : [ "obj-48", 0 ],
													"disabled" : 0,
													"hidden" : 0,
													"midpoints" : [ 460.5, 561.0, 662.5, 561.0 ],
													"source" : [ "obj-129", 0 ]
												}

											}
, 											{
												"patchline" : 												{
													"destination" : [ "obj-56", 0 ],
													"disabled" : 0,
													"hidden" : 0,
													"midpoints" : [ 460.5, 561.0, 761.0, 561.0 ],
													"source" : [ "obj-129", 0 ]
												}

											}
, 											{
												"patchline" : 												{
													"destination" : [ "obj-29", 0 ],
													"disabled" : 0,
													"hidden" : 0,
													"source" : [ "obj-17", 0 ]
												}

											}
, 											{
												"patchline" : 												{
													"destination" : [ "obj-30", 0 ],
													"disabled" : 0,
													"hidden" : 0,
													"source" : [ "obj-17", 0 ]
												}

											}
, 											{
												"patchline" : 												{
													"destination" : [ "obj-35", 1 ],
													"disabled" : 0,
													"hidden" : 0,
													"source" : [ "obj-20", 0 ]
												}

											}
, 											{
												"patchline" : 												{
													"destination" : [ "obj-27", 0 ],
													"disabled" : 0,
													"hidden" : 0,
													"midpoints" : [ 381.5, 636.0, 460.5, 636.0 ],
													"source" : [ "obj-30", 0 ]
												}

											}
, 											{
												"patchline" : 												{
													"destination" : [ "obj-40", 0 ],
													"disabled" : 0,
													"hidden" : 0,
													"midpoints" : [ 381.5, 192.735001, 743.75, 192.735001 ],
													"source" : [ "obj-30", 0 ]
												}

											}
, 											{
												"patchline" : 												{
													"destination" : [ "obj-35", 2 ],
													"disabled" : 0,
													"hidden" : 0,
													"source" : [ "obj-31", 0 ]
												}

											}
, 											{
												"patchline" : 												{
													"destination" : [ "obj-27", 0 ],
													"disabled" : 0,
													"hidden" : 0,
													"source" : [ "obj-34", 0 ]
												}

											}
, 											{
												"patchline" : 												{
													"destination" : [ "obj-37", 0 ],
													"disabled" : 0,
													"hidden" : 0,
													"source" : [ "obj-35", 0 ]
												}

											}
, 											{
												"patchline" : 												{
													"destination" : [ "obj-38", 0 ],
													"disabled" : 0,
													"hidden" : 0,
													"source" : [ "obj-37", 0 ]
												}

											}
, 											{
												"patchline" : 												{
													"destination" : [ "obj-129", 0 ],
													"disabled" : 0,
													"hidden" : 0,
													"source" : [ "obj-38", 1 ]
												}

											}
, 											{
												"patchline" : 												{
													"destination" : [ "obj-129", 0 ],
													"disabled" : 0,
													"hidden" : 0,
													"source" : [ "obj-4", 0 ]
												}

											}
, 											{
												"patchline" : 												{
													"destination" : [ "obj-20", 0 ],
													"disabled" : 0,
													"hidden" : 0,
													"source" : [ "obj-40", 0 ]
												}

											}
, 											{
												"patchline" : 												{
													"destination" : [ "obj-50", 1 ],
													"disabled" : 0,
													"hidden" : 0,
													"source" : [ "obj-48", 0 ]
												}

											}
, 											{
												"patchline" : 												{
													"destination" : [ "obj-31", 0 ],
													"disabled" : 0,
													"hidden" : 0,
													"source" : [ "obj-5", 0 ]
												}

											}
, 											{
												"patchline" : 												{
													"destination" : [ "obj-129", 0 ],
													"disabled" : 0,
													"hidden" : 0,
													"midpoints" : [ 607.5, 649.0, 534.0, 649.0, 534.0, 528.0, 460.5, 528.0 ],
													"source" : [ "obj-50", 0 ]
												}

											}
, 											{
												"patchline" : 												{
													"destination" : [ "obj-53", 0 ],
													"disabled" : 0,
													"hidden" : 0,
													"source" : [ "obj-52", 0 ]
												}

											}
, 											{
												"patchline" : 												{
													"destination" : [ "obj-129", 0 ],
													"disabled" : 0,
													"hidden" : 0,
													"midpoints" : [ 706.0, 649.0, 583.25, 649.0, 583.25, 528.0, 460.5, 528.0 ],
													"source" : [ "obj-53", 0 ]
												}

											}
, 											{
												"patchline" : 												{
													"destination" : [ "obj-5", 0 ],
													"disabled" : 0,
													"hidden" : 0,
													"source" : [ "obj-54", 0 ]
												}

											}
, 											{
												"patchline" : 												{
													"destination" : [ "obj-53", 1 ],
													"disabled" : 0,
													"hidden" : 0,
													"source" : [ "obj-56", 0 ]
												}

											}
, 											{
												"patchline" : 												{
													"destination" : [ "obj-11", 0 ],
													"disabled" : 0,
													"hidden" : 0,
													"source" : [ "obj-6", 1 ]
												}

											}
, 											{
												"patchline" : 												{
													"destination" : [ "obj-9", 0 ],
													"disabled" : 0,
													"hidden" : 0,
													"source" : [ "obj-6", 0 ]
												}

											}
, 											{
												"patchline" : 												{
													"destination" : [ "obj-35", 0 ],
													"disabled" : 0,
													"hidden" : 0,
													"source" : [ "obj-69", 0 ]
												}

											}
, 											{
												"patchline" : 												{
													"destination" : [ "obj-6", 0 ],
													"disabled" : 0,
													"hidden" : 0,
													"source" : [ "obj-69", 0 ]
												}

											}
, 											{
												"patchline" : 												{
													"destination" : [ "obj-4", 0 ],
													"disabled" : 0,
													"hidden" : 0,
													"source" : [ "obj-9", 0 ]
												}

											}
 ]
									}
,
									"patching_rect" : [ 324.75, 355.0, 372.0, 214.0 ],
									"varname" : "BigScope",
									"viewvisibility" : 1
								}

							}
, 							{
								"box" : 								{
									"bgmode" : 0,
									"border" : 0,
									"clickthrough" : 0,
									"enablehscroll" : 0,
									"enablevscroll" : 0,
									"extract" : 1,
									"id" : "obj-7",
									"lockeddragscroll" : 0,
									"maxclass" : "bpatcher",
									"name" : "bp.Folder.maxpat",
									"numinlets" : 3,
									"numoutlets" : 1,
									"offset" : [ 0.0, 0.0 ],
									"outlettype" : [ "signal" ],
									"patching_rect" : [ 324.75, 136.5, 254.420395, 116.0 ],
									"varname" : "bp.Folder",
									"viewvisibility" : 1
								}

							}
, 							{
								"box" : 								{
									"bgmode" : 0,
									"border" : 0,
									"clickthrough" : 0,
									"enablehscroll" : 0,
									"enablevscroll" : 0,
									"extract" : 1,
									"id" : "obj-1",
									"lockeddragscroll" : 0,
									"maxclass" : "bpatcher",
									"name" : "bp.LFO.maxpat",
									"numinlets" : 0,
									"numoutlets" : 5,
									"offset" : [ 0.0, 0.0 ],
									"outlettype" : [ "signal", "signal", "signal", "signal", "signal" ],
									"patching_rect" : [ 587.431091, 136.5, 137.0, 116.0 ],
									"varname" : "bp.LFO",
									"viewvisibility" : 1
								}

							}
, 							{
								"box" : 								{
									"bgmode" : 0,
									"border" : 0,
									"clickthrough" : 0,
									"enablehscroll" : 0,
									"enablevscroll" : 0,
									"extract" : 1,
									"id" : "obj-4",
									"lockeddragscroll" : 0,
									"maxclass" : "bpatcher",
									"name" : "bp.Stereo.maxpat",
									"numinlets" : 2,
									"numoutlets" : 0,
									"offset" : [ 0.0, 0.0 ],
									"patching_rect" : [ 14.75, 384.0, 148.0, 116.0 ],
									"varname" : "bp.Stereo",
									"viewvisibility" : 1
								}

							}
, 							{
								"box" : 								{
									"bgmode" : 0,
									"border" : 0,
									"clickthrough" : 0,
									"enablehscroll" : 0,
									"enablevscroll" : 0,
									"extract" : 1,
									"id" : "obj-3",
									"lockeddragscroll" : 0,
									"maxclass" : "bpatcher",
									"name" : "bp.Cloud.maxpat",
									"numinlets" : 4,
									"numoutlets" : 1,
									"offset" : [ 0.0, 0.0 ],
									"outlettype" : [ "signal" ],
									"patching_rect" : [ 14.75, 134.5, 280.0, 116.0 ],
									"varname" : "bp.Cloud",
									"viewvisibility" : 1
								}

							}
, 							{
								"box" : 								{
									"fontname" : "Arial",
									"fontsize" : 13.0,
									"id" : "obj-5",
									"linecount" : 2,
									"maxclass" : "comment",
									"numinlets" : 1,
									"numoutlets" : 0,
									"patching_rect" : [ 7.0, 69.0, 535.0, 36.0 ],
									"style" : "",
									"text" : "Similar is effect to 'clamping'. An understand of how this works can be seen in the Scope.\nThis is a great tool for ",
									"textcolor" : [ 0.2, 0.2, 0.2, 1.0 ],
									"varname" : "autohelp_top_digest"
								}

							}
, 							{
								"box" : 								{
									"fontname" : "Arial",
									"fontsize" : 48.0,
									"id" : "obj-11",
									"maxclass" : "comment",
									"numinlets" : 1,
									"numoutlets" : 0,
									"patching_rect" : [ 10.0, 10.6875, 451.0, 60.0 ],
									"style" : "",
									"text" : "Folder",
									"textcolor" : [ 0.2, 0.2, 0.2, 1.0 ],
									"varname" : "autohelp_top_digest[2]"
								}

							}
 ],
						"lines" : [ 							{
								"patchline" : 								{
									"destination" : [ "obj-7", 0 ],
									"disabled" : 0,
									"hidden" : 0,
									"midpoints" : [ 685.431091, 264.0, 735.0, 264.0, 735.0, 123.0, 334.25, 123.0 ],
									"source" : [ "obj-1", 3 ]
								}

							}
, 							{
								"patchline" : 								{
									"destination" : [ "obj-3", 1 ],
									"disabled" : 0,
									"hidden" : 0,
									"midpoints" : [ 334.25, 570.0, 306.0, 570.0, 306.0, 120.0, 111.25, 120.0 ],
									"source" : [ "obj-18", 0 ]
								}

							}
, 							{
								"patchline" : 								{
									"destination" : [ "obj-4", 1 ],
									"disabled" : 0,
									"hidden" : 0,
									"midpoints" : [ 24.25, 369.0, 153.25, 369.0 ],
									"source" : [ "obj-3", 0 ]
								}

							}
, 							{
								"patchline" : 								{
									"destination" : [ "obj-4", 0 ],
									"disabled" : 0,
									"hidden" : 0,
									"midpoints" : [ 24.25, 252.0, 24.25, 252.0 ],
									"source" : [ "obj-3", 0 ]
								}

							}
, 							{
								"patchline" : 								{
									"destination" : [ "obj-18", 0 ],
									"disabled" : 0,
									"hidden" : 0,
									"midpoints" : [ 334.25, 255.0, 334.25, 255.0 ],
									"source" : [ "obj-7", 0 ]
								}

							}
 ],
						"styles" : [ 							{
								"name" : "AudioStatus_Menu",
								"default" : 								{
									"bgfillcolor" : 									{
										"type" : "color",
										"color" : [ 0.294118, 0.313726, 0.337255, 1 ],
										"color1" : [ 0.454902, 0.462745, 0.482353, 0.0 ],
										"color2" : [ 0.290196, 0.309804, 0.301961, 1.0 ],
										"angle" : 270.0,
										"proportion" : 0.39,
										"autogradient" : 0
									}

								}
,
								"parentstyle" : "",
								"multi" : 0
							}
 ],
						"bgfillcolor_type" : "gradient",
						"bgfillcolor_color1" : [ 0.454902, 0.462745, 0.482353, 1.0 ],
						"bgfillcolor_color2" : [ 0.290196, 0.309804, 0.301961, 1.0 ],
						"bgfillcolor_color" : [ 0.290196, 0.309804, 0.301961, 1.0 ],
						"bgfillcolor_angle" : 270.0,
						"bgfillcolor_proportion" : 0.39
					}
,
					"patching_rect" : [ 36.0, 27.0, 50.0, 22.0 ],
					"saved_object_attributes" : 					{
						"description" : "",
						"digest" : "",
						"fontsize" : 13.0,
						"globalpatchername" : "",
						"style" : "",
						"tags" : ""
					}
,
					"style" : "",
					"text" : "p basic",
					"varname" : "basic_tab"
				}

			}
 ],
		"lines" : [ 			{
				"patchline" : 				{
					"destination" : [ "obj-20", 1 ],
					"disabled" : 0,
					"hidden" : 0,
					"source" : [ "obj-13", 0 ]
				}

			}
, 			{
				"patchline" : 				{
					"destination" : [ "obj-13", 0 ],
					"disabled" : 0,
					"hidden" : 0,
					"source" : [ "obj-17", 0 ]
				}

			}
, 			{
				"patchline" : 				{
					"destination" : [ "obj-13", 0 ],
					"disabled" : 0,
					"hidden" : 0,
					"source" : [ "obj-21", 0 ]
				}

			}
 ],
		"parameters" : 		{
			"obj-2::obj-7::obj-40" : [ "LoValue", "Low", 0 ],
			"obj-2::obj-18::obj-1" : [ "divide", "divide", 0 ],
			"obj-2::obj-1::obj-12" : [ "Mute[2]", "Mute", 0 ],
			"obj-2::obj-1::obj-20" : [ "Frequency", "Freq", 0 ],
			"obj-2::obj-7::obj-38" : [ "LoValueCV", "CV", 0 ],
			"obj-2::obj-3::obj-106" : [ "CV3", "CV3", 0 ],
			"obj-2::obj-3::obj-46" : [ "Offset", "Offset", 0 ],
			"obj-2::obj-4::obj-52" : [ "Level", "Level", 0 ],
			"obj-2::obj-3::obj-107" : [ "Linear", "Linear", 0 ],
			"obj-2::obj-18::obj-69" : [ "Lock", "Lock", 0 ],
			"obj-2::obj-7::obj-52" : [ "HiValue", "High", 0 ],
			"obj-2::obj-4::obj-55" : [ "DSP", "DSP", 0 ],
			"obj-2::obj-3::obj-20" : [ "Mute", "Mute", 0 ],
			"obj-2::obj-7::obj-4" : [ "bypass", "bypass", 0 ],
			"obj-2::obj-4::obj-56" : [ "OutputChannel", "OutputChannel", 0 ],
			"obj-2::obj-3::obj-51" : [ "Fatness", "Fatness", 0 ],
			"obj-2::obj-7::obj-50" : [ "HiValueCV", "CV", 0 ],
			"obj-2::obj-3::obj-129" : [ "CV2", "CV2", 0 ],
			"obj-2::obj-3::obj-24" : [ "Freq", "Freq", 0 ],
			"obj-2::obj-18::obj-129" : [ "Points", "Points", 0 ],
			"obj-2::obj-4::obj-22" : [ "Mute[1]", "Mute", 0 ],
			"obj-2::obj-18::obj-52" : [ "multiply", "multiply", 0 ],
			"obj-2::obj-3::obj-45" : [ "TimeMode", "TimeMode", 1 ],
			"obj-2::obj-7::obj-45" : [ "mode", "mode", 0 ],
			"obj-2::obj-3::obj-331" : [ "WaveformCloud", "Waveform", 0 ]
		}
,
		"dependency_cache" : [ 			{
				"name" : "bp.Cloud.maxpat",
				"bootpath" : "C74:/packages/Beap/clippings/BEAP/Oscillator",
				"type" : "JSON",
				"implicit" : 1
			}
, 			{
				"name" : "bp.Stereo.maxpat",
				"bootpath" : "C74:/packages/Beap/clippings/BEAP/Output",
				"type" : "JSON",
				"implicit" : 1
			}
, 			{
				"name" : "bp.LFO.maxpat",
				"bootpath" : "C74:/packages/Beap/clippings/BEAP/LFO",
				"type" : "JSON",
				"implicit" : 1
			}
, 			{
				"name" : "bp.Folder.maxpat",
				"bootpath" : "C74:/packages/Beap/clippings/BEAP/Waveshapers",
				"type" : "JSON",
				"implicit" : 1
			}
 ],
		"embedsnapshot" : 1,
		"snapshot" : 		{
			"filetype" : "C74Snapshot",
			"version" : 1,
			"name" : "bp.Folder.maxhelp",
			"origin" : "bp.Folder.maxhelp",
			"type" : "patcher",
			"subtype" : "Undefined",
			"snapshot" : 			{
				"name" : "bp.Folder.maxhelp",
				"valuedictionary" : 				{
					"parameter_values" : 					{
						"CV2" : 50.0,
						"CV3" : 5.0,
						"DSP" : 1.0,
						"Fatness" : 2.828427,
						"Freq" : 10466.891602,
						"Frequency" : 89.890495,
						"HiValue" : 5.0,
						"HiValueCV" : 0.0,
						"Level" : -7.128981,
						"Linear" : 2.0,
						"LoValue" : -5.0,
						"LoValueCV" : 0.0,
						"Lock" : 2.0,
						"Mute" : 0.0,
						"Mute[1]" : 0.0,
						"Mute[2]" : 0.0,
						"Offset" : 30.236221,
						"OutputChannel" : 0.0,
						"Points" : 1685.615112,
						"WaveformCloud" : 0.0,
						"bypass" : 0.0,
						"divide" : 0.0,
						"mode" : 0.0,
						"multiply" : 0.0,
						"TimeMode" : 1.0
					}

				}

			}

		}
,
		"styles" : [ 			{
				"name" : "AudioStatus_Menu",
				"default" : 				{
					"bgfillcolor" : 					{
						"type" : "color",
						"color" : [ 0.294118, 0.313726, 0.337255, 1 ],
						"color1" : [ 0.454902, 0.462745, 0.482353, 0.0 ],
						"color2" : [ 0.290196, 0.309804, 0.301961, 1.0 ],
						"angle" : 270.0,
						"proportion" : 0.39,
						"autogradient" : 0
					}

				}
,
				"parentstyle" : "",
				"multi" : 0
			}
 ]
	}

}
