{
	"patcher" : 	{
		"fileversion" : 1,
		"appversion" : 		{
			"major" : 7,
			"minor" : 0,
			"revision" : 2,
			"architecture" : "x64",
			"modernui" : 1
		}
,
		"rect" : [ 57.0, 79.0, 914.0, 658.0 ],
		"bglocked" : 0,
		"openinpresentation" : 0,
		"default_fontsize" : 12.0,
		"default_fontface" : 0,
		"default_fontname" : "Arial",
		"gridonopen" : 1,
		"gridsize" : [ 15.0, 15.0 ],
		"gridsnaponopen" : 1,
		"objectsnaponopen" : 1,
		"statusbarvisible" : 2,
		"toolbarvisible" : 1,
		"lefttoolbarpinned" : 0,
		"toptoolbarpinned" : 0,
		"righttoolbarpinned" : 0,
		"bottomtoolbarpinned" : 0,
		"toolbars_unpinned_last_save" : 0,
		"tallnewobj" : 0,
		"boxanimatetime" : 200,
		"enablehscroll" : 1,
		"enablevscroll" : 1,
		"devicewidth" : 0.0,
		"description" : "",
		"digest" : "",
		"tags" : "",
		"style" : "",
		"subpatcher_template" : "",
		"showrootpatcherontab" : 0,
		"showontab" : 0,
		"boxes" : [ 			{
				"box" : 				{
					"fontname" : "Arial",
					"fontsize" : 12.0,
					"id" : "obj-21",
					"maxclass" : "message",
					"numinlets" : 2,
					"numoutlets" : 1,
					"outlettype" : [ "" ],
					"patching_rect" : [ 740.0, 291.0, 244.0, 22.0 ],
					"style" : "",
					"text" : "window size 20 60 1023 768, window exec"
				}

			}
, 			{
				"box" : 				{
					"fontname" : "Arial",
					"fontsize" : 12.0,
					"id" : "obj-20",
					"maxclass" : "message",
					"numinlets" : 2,
					"numoutlets" : 1,
					"outlettype" : [ "" ],
					"patching_rect" : [ 740.0, 424.0, 182.0, 22.0 ],
					"style" : "",
					"text" : "window size 20 60 922 728"
				}

			}
, 			{
				"box" : 				{
					"fontname" : "Arial",
					"fontsize" : 12.0,
					"id" : "obj-17",
					"maxclass" : "message",
					"numinlets" : 2,
					"numoutlets" : 1,
					"outlettype" : [ "" ],
					"patching_rect" : [ 765.0, 327.0, 94.0, 22.0 ],
					"style" : "",
					"text" : "window getsize"
				}

			}
, 			{
				"box" : 				{
					"fontname" : "Arial",
					"fontsize" : 12.0,
					"id" : "obj-13",
					"maxclass" : "newobj",
					"numinlets" : 1,
					"numoutlets" : 2,
					"outlettype" : [ "", "" ],
					"patching_rect" : [ 740.0, 369.0, 71.0, 22.0 ],
					"save" : [ "#N", "thispatcher", ";", "#Q", "end", ";" ],
					"style" : "",
					"text" : "thispatcher"
				}

			}
, 			{
				"box" : 				{
					"fontname" : "Arial",
					"fontsize" : 12.0,
					"id" : "obj-2",
					"maxclass" : "newobj",
					"numinlets" : 0,
					"numoutlets" : 0,
					"patcher" : 					{
						"fileversion" : 1,
						"appversion" : 						{
							"major" : 7,
							"minor" : 0,
							"revision" : 2,
							"architecture" : "x64",
							"modernui" : 1
						}
,
						"rect" : [ 57.0, 105.0, 914.0, 632.0 ],
						"bgcolor" : [ 0.88, 0.88, 0.88, 1.0 ],
						"bglocked" : 0,
						"openinpresentation" : 0,
						"default_fontsize" : 13.0,
						"default_fontface" : 0,
						"default_fontname" : "Arial",
						"gridonopen" : 1,
						"gridsize" : [ 5.0, 5.0 ],
						"gridsnaponopen" : 1,
						"objectsnaponopen" : 1,
						"statusbarvisible" : 2,
						"toolbarvisible" : 1,
						"lefttoolbarpinned" : 0,
						"toptoolbarpinned" : 0,
						"righttoolbarpinned" : 0,
						"bottomtoolbarpinned" : 0,
						"toolbars_unpinned_last_save" : 0,
						"tallnewobj" : 0,
						"boxanimatetime" : 200,
						"enablehscroll" : 1,
						"enablevscroll" : 1,
						"devicewidth" : 0.0,
						"description" : "",
						"digest" : "",
						"tags" : "",
						"style" : "",
						"subpatcher_template" : "",
						"showontab" : 1,
						"boxes" : [ 							{
								"box" : 								{
									"bubble" : 1,
									"bubblepoint" : 0.22,
									"id" : "obj-31",
									"linecount" : 5,
									"maxclass" : "comment",
									"numinlets" : 1,
									"numoutlets" : 0,
									"patching_rect" : [ 172.0, 417.0, 140.0, 83.0 ],
									"presentation_rect" : [ 170.0, 417.0, 0.0, 0.0 ],
									"style" : "",
									"text" : "the link button links up and down parameters. Unlink for independent operation."
								}

							}
, 							{
								"box" : 								{
									"id" : "obj-30",
									"linecount" : 2,
									"maxclass" : "comment",
									"numinlets" : 1,
									"numoutlets" : 0,
									"patching_rect" : [ 364.0, 446.0, 142.0, 36.0 ],
									"style" : "",
									"text" : "Lag is also known as 'slew' or 'portamento'"
								}

							}
, 							{
								"box" : 								{
									"bubble" : 1,
									"id" : "obj-28",
									"linecount" : 2,
									"maxclass" : "comment",
									"numinlets" : 1,
									"numoutlets" : 0,
									"patching_rect" : [ 172.0, 361.0, 140.0, 40.0 ],
									"style" : "",
									"text" : "click bypass to hear the difference"
								}

							}
, 							{
								"box" : 								{
									"bgmode" : 0,
									"border" : 0,
									"clickthrough" : 0,
									"enablehscroll" : 0,
									"enablevscroll" : 0,
									"extract" : 1,
									"id" : "obj-26",
									"lockeddragscroll" : 0,
									"maxclass" : "bpatcher",
									"name" : "bp.Scope.maxpat",
									"numinlets" : 1,
									"numoutlets" : 1,
									"offset" : [ 0.0, 0.0 ],
									"outlettype" : [ "signal" ],
									"patching_rect" : [ 7.0, 479.0, 101.0, 116.0 ],
									"presentation_rect" : [ 375.0, 549.0, 0.0, 0.0 ],
									"varname" : "bp.Scope[1]",
									"viewvisibility" : 1
								}

							}
, 							{
								"box" : 								{
									"bgmode" : 0,
									"border" : 0,
									"clickthrough" : 0,
									"embed" : 1,
									"enablehscroll" : 0,
									"enablevscroll" : 0,
									"id" : "obj-1",
									"lockeddragscroll" : 0,
									"maxclass" : "bpatcher",
									"numinlets" : 1,
									"numoutlets" : 1,
									"offset" : [ 0.0, 0.0 ],
									"outlettype" : [ "signal" ],
									"patcher" : 									{
										"fileversion" : 1,
										"appversion" : 										{
											"major" : 7,
											"minor" : 0,
											"revision" : 2,
											"architecture" : "x64",
											"modernui" : 1
										}
,
										"rect" : [ 64.0, 457.0, 150.0, 116.0 ],
										"bgcolor" : [ 1.0, 1.0, 1.0, 0.0 ],
										"bglocked" : 0,
										"openinpresentation" : 1,
										"default_fontsize" : 12.0,
										"default_fontface" : 0,
										"default_fontname" : "Arial",
										"gridonopen" : 1,
										"gridsize" : [ 15.0, 15.0 ],
										"gridsnaponopen" : 1,
										"objectsnaponopen" : 1,
										"statusbarvisible" : 1,
										"toolbarvisible" : 1,
										"lefttoolbarpinned" : 0,
										"toptoolbarpinned" : 0,
										"righttoolbarpinned" : 0,
										"bottomtoolbarpinned" : 0,
										"toolbars_unpinned_last_save" : 0,
										"tallnewobj" : 0,
										"boxanimatetime" : 200,
										"enablehscroll" : 1,
										"enablevscroll" : 1,
										"devicewidth" : 0.0,
										"description" : "",
										"digest" : "",
										"tags" : "",
										"style" : "",
										"subpatcher_template" : "",
										"boxes" : [ 											{
												"box" : 												{
													"id" : "obj-16",
													"maxclass" : "comment",
													"numinlets" : 1,
													"numoutlets" : 0,
													"patching_rect" : [ 22.0, 68.0, 213.0, 20.0 ],
													"style" : "",
													"text" : "## Slows down or smooth a signal ## "
												}

											}
, 											{
												"box" : 												{
													"fontname" : "Arial",
													"fontsize" : 12.0,
													"id" : "obj-13",
													"maxclass" : "newobj",
													"numinlets" : 3,
													"numoutlets" : 2,
													"outlettype" : [ "", "" ],
													"patcher" : 													{
														"fileversion" : 1,
														"appversion" : 														{
															"major" : 7,
															"minor" : 0,
															"revision" : 2,
															"architecture" : "x64",
															"modernui" : 1
														}
,
														"rect" : [ 25.0, 69.0, 640.0, 480.0 ],
														"bglocked" : 0,
														"openinpresentation" : 0,
														"default_fontsize" : 10.0,
														"default_fontface" : 0,
														"default_fontname" : "Arial Bold",
														"gridonopen" : 1,
														"gridsize" : [ 15.0, 15.0 ],
														"gridsnaponopen" : 1,
														"objectsnaponopen" : 1,
														"statusbarvisible" : 2,
														"toolbarvisible" : 1,
														"lefttoolbarpinned" : 0,
														"toptoolbarpinned" : 0,
														"righttoolbarpinned" : 0,
														"bottomtoolbarpinned" : 0,
														"toolbars_unpinned_last_save" : 0,
														"tallnewobj" : 0,
														"boxanimatetime" : 200,
														"enablehscroll" : 1,
														"enablevscroll" : 1,
														"devicewidth" : 0.0,
														"description" : "",
														"digest" : "",
														"tags" : "",
														"style" : "",
														"subpatcher_template" : "",
														"boxes" : [ 															{
																"box" : 																{
																	"fontname" : "Arial Bold",
																	"fontsize" : 10.0,
																	"id" : "obj-19",
																	"maxclass" : "newobj",
																	"numinlets" : 1,
																	"numoutlets" : 3,
																	"outlettype" : [ "outputvalue", "int", "int" ],
																	"patching_rect" : [ 356.5, 109.0, 90.0, 18.0 ],
																	"style" : "",
																	"text" : "t outputvalue 1 0"
																}

															}
, 															{
																"box" : 																{
																	"fontname" : "Arial Bold",
																	"fontsize" : 10.0,
																	"id" : "obj-18",
																	"maxclass" : "newobj",
																	"numinlets" : 1,
																	"numoutlets" : 2,
																	"outlettype" : [ "int", "int" ],
																	"patching_rect" : [ 324.0, 109.0, 32.5, 18.0 ],
																	"style" : "",
																	"text" : "t 0 0"
																}

															}
, 															{
																"box" : 																{
																	"fontname" : "Arial Bold",
																	"fontsize" : 10.0,
																	"id" : "obj-17",
																	"maxclass" : "newobj",
																	"numinlets" : 3,
																	"numoutlets" : 3,
																	"outlettype" : [ "bang", "bang", "" ],
																	"patching_rect" : [ 323.0, 80.0, 86.0, 18.0 ],
																	"style" : "",
																	"text" : "sel 0 1"
																}

															}
, 															{
																"box" : 																{
																	"comment" : "",
																	"id" : "obj-16",
																	"maxclass" : "inlet",
																	"numinlets" : 0,
																	"numoutlets" : 1,
																	"outlettype" : [ "" ],
																	"patching_rect" : [ 184.5, 43.0, 25.0, 25.0 ],
																	"style" : ""
																}

															}
, 															{
																"box" : 																{
																	"comment" : "",
																	"id" : "obj-15",
																	"maxclass" : "inlet",
																	"numinlets" : 0,
																	"numoutlets" : 1,
																	"outlettype" : [ "" ],
																	"patching_rect" : [ 230.0, 43.0, 25.0, 25.0 ],
																	"style" : ""
																}

															}
, 															{
																"box" : 																{
																	"fontname" : "Arial",
																	"fontsize" : 13.0,
																	"id" : "obj-14",
																	"maxclass" : "comment",
																	"numinlets" : 1,
																	"numoutlets" : 0,
																	"patching_rect" : [ 462.0, 28.0, 38.0, 21.0 ],
																	"style" : "",
																	"text" : "xoaz",
																	"textcolor" : [ 1.0, 1.0, 1.0, 1.0 ]
																}

															}
, 															{
																"box" : 																{
																	"fontname" : "Arial",
																	"fontsize" : 13.0,
																	"id" : "obj-33",
																	"linecount" : 4,
																	"maxclass" : "comment",
																	"numinlets" : 1,
																	"numoutlets" : 0,
																	"patching_rect" : [ 257.5, 140.0, 223.0, 65.0 ],
																	"style" : "",
																	"text" : "Messages sent from this abstraction cannot be received here. Messages received here cannot be sent from here. Thus stack overflow is avoided.",
																	"textcolor" : [ 0.501961, 0.501961, 0.501961, 1.0 ]
																}

															}
, 															{
																"box" : 																{
																	"fontname" : "Geneva",
																	"fontsize" : 13.0,
																	"id" : "obj-1",
																	"maxclass" : "newobj",
																	"numinlets" : 1,
																	"numoutlets" : 1,
																	"outlettype" : [ "bang" ],
																	"patching_rect" : [ 38.0, 68.0, 76.0, 23.0 ],
																	"style" : "",
																	"text" : "loadbang"
																}

															}
, 															{
																"box" : 																{
																	"fontname" : "Geneva",
																	"fontsize" : 13.0,
																	"id" : "obj-2",
																	"maxclass" : "newobj",
																	"numinlets" : 1,
																	"numoutlets" : 3,
																	"outlettype" : [ "bang", "", "bang" ],
																	"patching_rect" : [ 76.0, 222.0, 86.0, 23.0 ],
																	"style" : "",
																	"text" : "t b l b"
																}

															}
, 															{
																"box" : 																{
																	"fontname" : "Geneva",
																	"fontsize" : 13.0,
																	"id" : "obj-3",
																	"maxclass" : "newobj",
																	"numinlets" : 1,
																	"numoutlets" : 3,
																	"outlettype" : [ "bang", "", "bang" ],
																	"patching_rect" : [ 184.5, 222.0, 86.0, 23.0 ],
																	"style" : "",
																	"text" : "t b l b"
																}

															}
, 															{
																"box" : 																{
																	"fontname" : "Geneva",
																	"fontsize" : 13.0,
																	"id" : "obj-4",
																	"maxclass" : "newobj",
																	"numinlets" : 2,
																	"numoutlets" : 1,
																	"outlettype" : [ "" ],
																	"patching_rect" : [ 175.0, 161.0, 74.0, 23.0 ],
																	"style" : "",
																	"text" : "gate"
																}

															}
, 															{
																"box" : 																{
																	"fontname" : "Geneva",
																	"fontsize" : 13.0,
																	"id" : "obj-5",
																	"maxclass" : "message",
																	"numinlets" : 2,
																	"numoutlets" : 1,
																	"outlettype" : [ "" ],
																	"patching_rect" : [ 160.0, 117.0, 19.0, 21.0 ],
																	"style" : "",
																	"text" : "1"
																}

															}
, 															{
																"box" : 																{
																	"fontname" : "Geneva",
																	"fontsize" : 13.0,
																	"id" : "obj-6",
																	"maxclass" : "message",
																	"numinlets" : 2,
																	"numoutlets" : 1,
																	"outlettype" : [ "" ],
																	"patching_rect" : [ 200.0, 117.0, 19.0, 21.0 ],
																	"style" : "",
																	"text" : "0"
																}

															}
, 															{
																"box" : 																{
																	"fontname" : "Geneva",
																	"fontsize" : 13.0,
																	"id" : "obj-7",
																	"maxclass" : "message",
																	"numinlets" : 2,
																	"numoutlets" : 1,
																	"outlettype" : [ "" ],
																	"patching_rect" : [ 96.0, 117.0, 19.0, 21.0 ],
																	"style" : "",
																	"text" : "0"
																}

															}
, 															{
																"box" : 																{
																	"fontname" : "Geneva",
																	"fontsize" : 13.0,
																	"id" : "obj-8",
																	"maxclass" : "message",
																	"numinlets" : 2,
																	"numoutlets" : 1,
																	"outlettype" : [ "" ],
																	"patching_rect" : [ 56.0, 117.0, 19.0, 21.0 ],
																	"style" : "",
																	"text" : "1"
																}

															}
, 															{
																"box" : 																{
																	"fontname" : "Geneva",
																	"fontsize" : 13.0,
																	"id" : "obj-9",
																	"maxclass" : "newobj",
																	"numinlets" : 2,
																	"numoutlets" : 1,
																	"outlettype" : [ "" ],
																	"patching_rect" : [ 71.0, 161.0, 74.0, 23.0 ],
																	"style" : "",
																	"text" : "gate"
																}

															}
, 															{
																"box" : 																{
																	"comment" : "",
																	"id" : "obj-11",
																	"maxclass" : "outlet",
																	"numinlets" : 1,
																	"numoutlets" : 0,
																	"patching_rect" : [ 218.0, 260.0, 25.0, 25.0 ],
																	"style" : ""
																}

															}
, 															{
																"box" : 																{
																	"comment" : "",
																	"id" : "obj-12",
																	"maxclass" : "outlet",
																	"numinlets" : 1,
																	"numoutlets" : 0,
																	"patching_rect" : [ 109.5, 267.0, 25.0, 25.0 ],
																	"style" : ""
																}

															}
, 															{
																"box" : 																{
																	"comment" : "",
																	"id" : "obj-13",
																	"maxclass" : "inlet",
																	"numinlets" : 0,
																	"numoutlets" : 1,
																	"outlettype" : [ "" ],
																	"patching_rect" : [ 125.5, 43.0, 25.0, 25.0 ],
																	"style" : ""
																}

															}
 ],
														"lines" : [ 															{
																"patchline" : 																{
																	"destination" : [ "obj-5", 0 ],
																	"disabled" : 0,
																	"hidden" : 0,
																	"source" : [ "obj-1", 0 ]
																}

															}
, 															{
																"patchline" : 																{
																	"destination" : [ "obj-8", 0 ],
																	"disabled" : 0,
																	"hidden" : 0,
																	"source" : [ "obj-1", 0 ]
																}

															}
, 															{
																"patchline" : 																{
																	"color" : [ 0.156863, 0.8, 0.54902, 1.0 ],
																	"destination" : [ "obj-9", 1 ],
																	"disabled" : 0,
																	"hidden" : 0,
																	"source" : [ "obj-13", 0 ]
																}

															}
, 															{
																"patchline" : 																{
																	"destination" : [ "obj-4", 1 ],
																	"disabled" : 0,
																	"hidden" : 0,
																	"source" : [ "obj-15", 0 ]
																}

															}
, 															{
																"patchline" : 																{
																	"destination" : [ "obj-17", 0 ],
																	"disabled" : 0,
																	"hidden" : 0,
																	"source" : [ "obj-16", 0 ]
																}

															}
, 															{
																"patchline" : 																{
																	"destination" : [ "obj-18", 0 ],
																	"disabled" : 0,
																	"hidden" : 0,
																	"source" : [ "obj-17", 0 ]
																}

															}
, 															{
																"patchline" : 																{
																	"destination" : [ "obj-19", 0 ],
																	"disabled" : 0,
																	"hidden" : 0,
																	"source" : [ "obj-17", 1 ]
																}

															}
, 															{
																"patchline" : 																{
																	"destination" : [ "obj-4", 0 ],
																	"disabled" : 0,
																	"hidden" : 0,
																	"source" : [ "obj-18", 1 ]
																}

															}
, 															{
																"patchline" : 																{
																	"destination" : [ "obj-9", 0 ],
																	"disabled" : 0,
																	"hidden" : 0,
																	"source" : [ "obj-18", 0 ]
																}

															}
, 															{
																"patchline" : 																{
																	"destination" : [ "obj-12", 0 ],
																	"disabled" : 0,
																	"hidden" : 0,
																	"source" : [ "obj-19", 0 ]
																}

															}
, 															{
																"patchline" : 																{
																	"destination" : [ "obj-4", 0 ],
																	"disabled" : 0,
																	"hidden" : 0,
																	"source" : [ "obj-19", 2 ]
																}

															}
, 															{
																"patchline" : 																{
																	"destination" : [ "obj-9", 0 ],
																	"disabled" : 0,
																	"hidden" : 0,
																	"source" : [ "obj-19", 1 ]
																}

															}
, 															{
																"patchline" : 																{
																	"color" : [ 1.0, 0.360784, 0.682353, 1.0 ],
																	"destination" : [ "obj-12", 0 ],
																	"disabled" : 0,
																	"hidden" : 0,
																	"source" : [ "obj-2", 1 ]
																}

															}
, 															{
																"patchline" : 																{
																	"color" : [ 1.0, 0.360784, 0.682353, 1.0 ],
																	"destination" : [ "obj-7", 0 ],
																	"disabled" : 0,
																	"hidden" : 0,
																	"source" : [ "obj-2", 2 ]
																}

															}
, 															{
																"patchline" : 																{
																	"color" : [ 1.0, 0.360784, 0.682353, 1.0 ],
																	"destination" : [ "obj-8", 0 ],
																	"disabled" : 0,
																	"hidden" : 0,
																	"source" : [ "obj-2", 0 ]
																}

															}
, 															{
																"patchline" : 																{
																	"color" : [ 0.156863, 0.8, 0.54902, 1.0 ],
																	"destination" : [ "obj-11", 0 ],
																	"disabled" : 0,
																	"hidden" : 0,
																	"source" : [ "obj-3", 1 ]
																}

															}
, 															{
																"patchline" : 																{
																	"color" : [ 0.156863, 0.8, 0.54902, 1.0 ],
																	"destination" : [ "obj-5", 0 ],
																	"disabled" : 0,
																	"hidden" : 0,
																	"source" : [ "obj-3", 0 ]
																}

															}
, 															{
																"patchline" : 																{
																	"color" : [ 0.156863, 0.8, 0.54902, 1.0 ],
																	"destination" : [ "obj-6", 0 ],
																	"disabled" : 0,
																	"hidden" : 0,
																	"source" : [ "obj-3", 2 ]
																}

															}
, 															{
																"patchline" : 																{
																	"color" : [ 1.0, 0.360784, 0.682353, 1.0 ],
																	"destination" : [ "obj-2", 0 ],
																	"disabled" : 0,
																	"hidden" : 0,
																	"source" : [ "obj-4", 0 ]
																}

															}
, 															{
																"patchline" : 																{
																	"destination" : [ "obj-4", 0 ],
																	"disabled" : 0,
																	"hidden" : 0,
																	"source" : [ "obj-5", 0 ]
																}

															}
, 															{
																"patchline" : 																{
																	"destination" : [ "obj-4", 0 ],
																	"disabled" : 0,
																	"hidden" : 0,
																	"source" : [ "obj-6", 0 ]
																}

															}
, 															{
																"patchline" : 																{
																	"destination" : [ "obj-9", 0 ],
																	"disabled" : 0,
																	"hidden" : 0,
																	"source" : [ "obj-7", 0 ]
																}

															}
, 															{
																"patchline" : 																{
																	"destination" : [ "obj-9", 0 ],
																	"disabled" : 0,
																	"hidden" : 0,
																	"source" : [ "obj-8", 0 ]
																}

															}
, 															{
																"patchline" : 																{
																	"color" : [ 0.156863, 0.8, 0.54902, 1.0 ],
																	"destination" : [ "obj-3", 0 ],
																	"disabled" : 0,
																	"hidden" : 0,
																	"source" : [ "obj-9", 0 ]
																}

															}
 ],
														"bgfillcolor_type" : "gradient",
														"bgfillcolor_color1" : [ 0.435294, 0.462745, 0.498039, 1.0 ],
														"bgfillcolor_color2" : [ 0.290196, 0.309804, 0.301961, 1.0 ],
														"bgfillcolor_color" : [ 0.290196, 0.309804, 0.301961, 1.0 ],
														"bgfillcolor_angle" : 270.0,
														"bgfillcolor_proportion" : 0.39
													}
,
													"patching_rect" : [ 417.889893, 94.0, 156.0, 22.0 ],
													"saved_object_attributes" : 													{
														"description" : "",
														"digest" : "",
														"fontname" : "Arial Bold",
														"fontsize" : 10.0,
														"globalpatchername" : "",
														"style" : "",
														"tags" : ""
													}
,
													"style" : "",
													"text" : "p sw"
												}

											}
, 											{
												"box" : 												{
													"activebgcolor" : [ 0.917647, 0.94902, 0.054902, 0.0 ],
													"activebgoncolor" : [ 0.278431, 0.839216, 1.0, 1.0 ],
													"activetextcolor" : [ 0.278431, 0.839216, 1.0, 1.0 ],
													"activetextoncolor" : [ 0.137255, 0.145098, 0.160784, 1.0 ],
													"annotation" : "Link Up/Down Times",
													"automation" : "Off",
													"automationon" : "On",
													"bgcolor" : [ 0.6, 0.6, 0.6, 0.0 ],
													"bordercolor" : [ 0.278431, 0.839216, 1.0, 1.0 ],
													"focusbordercolor" : [ 0.278431, 0.839216, 1.0, 1.0 ],
													"hint" : "",
													"id" : "obj-11",
													"maxclass" : "live.text",
													"numinlets" : 1,
													"numoutlets" : 2,
													"outlettype" : [ "", "" ],
													"parameter_enable" : 1,
													"patching_rect" : [ 486.389893, 59.754272, 35.0, 19.0 ],
													"presentation" : 1,
													"presentation_rect" : [ 101.0, 53.509708, 40.0, 15.0 ],
													"saved_attribute_attributes" : 													{
														"valueof" : 														{
															"parameter_order" : 1,
															"parameter_linknames" : 1,
															"parameter_longname" : "Link",
															"parameter_shortname" : "Link",
															"parameter_type" : 2,
															"parameter_mmax" : 1.0,
															"parameter_enum" : [ "Off", "On" ],
															"parameter_initial_enable" : 1,
															"parameter_initial" : [ 1 ],
															"parameter_speedlim" : 0.0,
															"parameter_annotation_name" : "Link"
														}

													}
,
													"text" : "Link",
													"textcolor" : [ 0.556863, 0.556863, 0.556863, 1.0 ],
													"texton" : "Link",
													"varname" : "Link"
												}

											}
, 											{
												"box" : 												{
													"activedialcolor" : [ 0.278431, 0.839216, 1.0, 1.0 ],
													"activeneedlecolor" : [ 1.0, 1.0, 1.0, 0.7 ],
													"focusbordercolor" : [ 1.0, 1.0, 1.0, 1.0 ],
													"id" : "obj-9",
													"maxclass" : "live.dial",
													"numinlets" : 1,
													"numoutlets" : 2,
													"outlettype" : [ "", "float" ],
													"parameter_enable" : 1,
													"patching_rect" : [ 554.889893, 128.754272, 44.0, 47.0 ],
													"presentation" : 1,
													"presentation_rect" : [ 47.889893, 43.984612, 44.0, 47.0 ],
													"saved_attribute_attributes" : 													{
														"valueof" : 														{
															"parameter_longname" : "Down",
															"parameter_shortname" : "Down",
															"parameter_type" : 0,
															"parameter_mmax" : 1000.0,
															"parameter_initial_enable" : 1,
															"parameter_initial" : [ 50 ],
															"parameter_unitstyle" : 2,
															"parameter_exponent" : 2.0
														}

													}
,
													"textcolor" : [ 1.0, 1.0, 1.0, 0.7 ],
													"varname" : "Down"
												}

											}
, 											{
												"box" : 												{
													"fontname" : "Arial",
													"fontsize" : 12.0,
													"id" : "obj-10",
													"maxclass" : "newobj",
													"numinlets" : 1,
													"numoutlets" : 1,
													"outlettype" : [ "" ],
													"patching_rect" : [ 554.889893, 191.0, 124.0, 22.0 ],
													"style" : "",
													"text" : "translate ms samples"
												}

											}
, 											{
												"box" : 												{
													"fontname" : "Arial",
													"fontsize" : 12.0,
													"id" : "obj-8",
													"maxclass" : "newobj",
													"numinlets" : 3,
													"numoutlets" : 1,
													"outlettype" : [ "signal" ],
													"patching_rect" : [ 254.170013, 386.0, 80.0, 22.0 ],
													"style" : "",
													"text" : "selector~ 2 1"
												}

											}
, 											{
												"box" : 												{
													"fontname" : "Arial",
													"fontsize" : 12.0,
													"id" : "obj-7",
													"maxclass" : "newobj",
													"numinlets" : 2,
													"numoutlets" : 1,
													"outlettype" : [ "int" ],
													"patching_rect" : [ 525.080994, 298.0, 32.5, 22.0 ],
													"style" : "",
													"text" : "+ 1"
												}

											}
, 											{
												"box" : 												{
													"activebgcolor" : [ 0.917647, 0.94902, 0.054902, 0.0 ],
													"activebgoncolor" : [ 0.278431, 0.839216, 1.0, 1.0 ],
													"activetextcolor" : [ 0.278431, 0.839216, 1.0, 1.0 ],
													"activetextoncolor" : [ 0.137255, 0.145098, 0.160784, 1.0 ],
													"annotation" : "When unselected, values use RC curves.  When selected, linear interpolation is used.",
													"automation" : "RC",
													"automationon" : "Linear",
													"bgcolor" : [ 0.6, 0.6, 0.6, 0.0 ],
													"bordercolor" : [ 0.278431, 0.839216, 1.0, 1.0 ],
													"focusbordercolor" : [ 0.278431, 0.839216, 1.0, 1.0 ],
													"hint" : "",
													"id" : "obj-22",
													"maxclass" : "live.text",
													"numinlets" : 1,
													"numoutlets" : 2,
													"outlettype" : [ "", "" ],
													"parameter_enable" : 1,
													"patching_rect" : [ 525.080994, 267.691772, 35.0, 19.0 ],
													"presentation" : 1,
													"presentation_rect" : [ 101.0, 72.557114, 40.0, 15.0 ],
													"saved_attribute_attributes" : 													{
														"valueof" : 														{
															"parameter_order" : 1,
															"parameter_longname" : "InterpMode",
															"parameter_shortname" : "InterpMode",
															"parameter_type" : 2,
															"parameter_mmax" : 1.0,
															"parameter_enum" : [ "RC", "Linear" ],
															"parameter_initial_enable" : 1,
															"parameter_initial" : [ 0.0 ],
															"parameter_speedlim" : 0.0,
															"parameter_annotation_name" : "RC / Linear"
														}

													}
,
													"text" : "RC",
													"textcolor" : [ 0.556863, 0.556863, 0.556863, 1.0 ],
													"texton" : "Linear",
													"varname" : "FreqMode"
												}

											}
, 											{
												"box" : 												{
													"fontname" : "Arial",
													"fontsize" : 12.0,
													"id" : "obj-5",
													"maxclass" : "newobj",
													"numinlets" : 3,
													"numoutlets" : 1,
													"outlettype" : [ "signal" ],
													"patching_rect" : [ 494.0, 350.0, 144.0, 22.0 ],
													"style" : "",
													"text" : "rampsmooth~ 4410 4410"
												}

											}
, 											{
												"box" : 												{
													"activedialcolor" : [ 0.278431, 0.839216, 1.0, 1.0 ],
													"activeneedlecolor" : [ 1.0, 1.0, 1.0, 0.7 ],
													"focusbordercolor" : [ 1.0, 1.0, 1.0, 1.0 ],
													"id" : "obj-37",
													"maxclass" : "live.dial",
													"numinlets" : 1,
													"numoutlets" : 2,
													"outlettype" : [ "", "float" ],
													"parameter_enable" : 1,
													"patching_rect" : [ 417.889893, 128.754272, 44.0, 47.0 ],
													"presentation" : 1,
													"presentation_rect" : [ 0.977173, 43.984612, 44.0, 47.0 ],
													"saved_attribute_attributes" : 													{
														"valueof" : 														{
															"parameter_longname" : "Up",
															"parameter_shortname" : "Up",
															"parameter_type" : 0,
															"parameter_mmax" : 1000.0,
															"parameter_initial_enable" : 1,
															"parameter_initial" : [ 50 ],
															"parameter_unitstyle" : 2,
															"parameter_exponent" : 2.0
														}

													}
,
													"textcolor" : [ 1.0, 1.0, 1.0, 0.7 ],
													"varname" : "Time"
												}

											}
, 											{
												"box" : 												{
													"activebgcolor" : [ 0.572549, 0.615686, 0.658824, 0.0 ],
													"activebgoncolor" : [ 0.278431, 0.839216, 1.0, 1.0 ],
													"activetextcolor" : [ 1.0, 1.0, 1.0, 0.57 ],
													"activetextoncolor" : [ 0.0, 0.019608, 0.078431, 1.0 ],
													"bgcolor" : [ 0.101961, 0.101961, 0.101961, 0.78 ],
													"bordercolor" : [ 0.0, 0.019608, 0.078431, 0.37 ],
													"id" : "obj-1",
													"maxclass" : "live.text",
													"numinlets" : 1,
													"numoutlets" : 2,
													"outlettype" : [ "", "" ],
													"parameter_enable" : 1,
													"patching_rect" : [ 217.170013, 266.691772, 40.0, 20.0 ],
													"presentation" : 1,
													"presentation_rect" : [ 90.977173, 19.222733, 52.0, 14.764645 ],
													"saved_attribute_attributes" : 													{
														"valueof" : 														{
															"parameter_longname" : "bypass",
															"parameter_shortname" : "bypass",
															"parameter_type" : 2,
															"parameter_mmax" : 1.0,
															"parameter_enum" : [ "val1", "val2" ],
															"parameter_initial_enable" : 1,
															"parameter_initial" : [ 0.0 ],
															"parameter_defer" : 1
														}

													}
,
													"text" : "bypass",
													"textcolor" : [ 1.0, 1.0, 1.0, 1.0 ],
													"texton" : "bypass",
													"varname" : "bypass"
												}

											}
, 											{
												"box" : 												{
													"fontname" : "Arial Bold",
													"fontsize" : 9.0,
													"id" : "obj-42",
													"maxclass" : "comment",
													"numinlets" : 1,
													"numoutlets" : 0,
													"patching_rect" : [ 293.170013, 176.754272, 41.0, 17.0 ],
													"presentation" : 1,
													"presentation_rect" : [ 2.0, 0.0, 41.0, 17.0 ],
													"style" : "",
													"text" : "Signal",
													"textcolor" : [ 1.0, 1.0, 1.0, 1.0 ]
												}

											}
, 											{
												"box" : 												{
													"fontname" : "Arial Bold",
													"fontsize" : 9.0,
													"id" : "obj-24",
													"maxclass" : "comment",
													"numinlets" : 1,
													"numoutlets" : 0,
													"patching_rect" : [ 254.170013, 502.754272, 41.0, 17.0 ],
													"presentation" : 1,
													"presentation_rect" : [ 2.0, 96.0, 41.0, 17.0 ],
													"style" : "",
													"text" : "Signal",
													"textcolor" : [ 1.0, 1.0, 1.0, 1.0 ]
												}

											}
, 											{
												"box" : 												{
													"fontname" : "Arial Bold",
													"fontsize" : 9.0,
													"id" : "obj-28",
													"maxclass" : "comment",
													"numinlets" : 1,
													"numoutlets" : 0,
													"patching_rect" : [ 22.0, 44.754272, 29.0, 17.0 ],
													"presentation" : 1,
													"presentation_rect" : [ 1.75, 19.222733, 29.0, 17.0 ],
													"style" : "",
													"text" : "LAG",
													"textcolor" : [ 1.0, 1.0, 1.0, 1.0 ]
												}

											}
, 											{
												"box" : 												{
													"fontname" : "Arial",
													"fontsize" : 12.0,
													"id" : "obj-38",
													"maxclass" : "newobj",
													"numinlets" : 1,
													"numoutlets" : 1,
													"outlettype" : [ "" ],
													"patching_rect" : [ 417.889893, 191.0, 124.0, 22.0 ],
													"style" : "",
													"text" : "translate ms samples"
												}

											}
, 											{
												"box" : 												{
													"fontname" : "Arial",
													"fontsize" : 12.0,
													"id" : "obj-27",
													"maxclass" : "newobj",
													"numinlets" : 2,
													"numoutlets" : 1,
													"outlettype" : [ "int" ],
													"patching_rect" : [ 217.170013, 311.754272, 32.5, 22.0 ],
													"style" : "",
													"text" : "+ 1"
												}

											}
, 											{
												"box" : 												{
													"fontname" : "Arial",
													"fontsize" : 12.0,
													"id" : "obj-34",
													"maxclass" : "newobj",
													"numinlets" : 3,
													"numoutlets" : 1,
													"outlettype" : [ "signal" ],
													"patching_rect" : [ 217.170013, 443.754272, 154.0, 22.0 ],
													"style" : "",
													"text" : "selector~ 2 1"
												}

											}
, 											{
												"box" : 												{
													"comment" : "signal output",
													"id" : "obj-35",
													"maxclass" : "outlet",
													"numinlets" : 1,
													"numoutlets" : 0,
													"patching_rect" : [ 217.170013, 498.754272, 25.0, 25.0 ],
													"style" : ""
												}

											}
, 											{
												"box" : 												{
													"comment" : "signal input",
													"id" : "obj-3",
													"maxclass" : "inlet",
													"numinlets" : 0,
													"numoutlets" : 1,
													"outlettype" : [ "signal" ],
													"patching_rect" : [ 346.170044, 172.754272, 25.0, 25.0 ],
													"style" : ""
												}

											}
, 											{
												"box" : 												{
													"fontname" : "Arial",
													"fontsize" : 12.0,
													"id" : "obj-2",
													"maxclass" : "newobj",
													"numinlets" : 3,
													"numoutlets" : 1,
													"outlettype" : [ "signal" ],
													"patching_rect" : [ 284.670013, 304.0, 102.0, 22.0 ],
													"style" : "",
													"text" : "slide~ 4410 4410"
												}

											}
, 											{
												"box" : 												{
													"fontname" : "Arial",
													"fontsize" : 12.0,
													"id" : "obj-4",
													"maxclass" : "newobj",
													"numinlets" : 1,
													"numoutlets" : 4,
													"outlettype" : [ "", "", "", "" ],
													"patching_rect" : [ 22.0, 99.754272, 59.5, 22.0 ],
													"restore" : 													{
														"Down" : [ 324.635361 ],
														"FreqMode" : [ 0.0 ],
														"Link" : [ 1.0 ],
														"Time" : [ 324.635361 ],
														"bypass" : [ 0.0 ]
													}
,
													"style" : "",
													"text" : "autopattr",
													"varname" : "u426004372"
												}

											}
, 											{
												"box" : 												{
													"angle" : 0.0,
													"background" : 1,
													"bgcolor" : [ 0.137255, 0.145098, 0.160784, 0.65 ],
													"id" : "obj-130",
													"maxclass" : "panel",
													"mode" : 0,
													"numinlets" : 1,
													"numoutlets" : 0,
													"patching_rect" : [ 22.0, 22.711639, 37.0, 5.0 ],
													"presentation" : 1,
													"presentation_rect" : [ 0.0, 37.0, 425.0, 60.338158 ],
													"proportion" : 0.39,
													"rounded" : 0,
													"style" : ""
												}

											}
, 											{
												"box" : 												{
													"angle" : 0.0,
													"background" : 1,
													"bgcolor" : [ 0.367404, 0.389405, 0.430238, 1.0 ],
													"id" : "obj-131",
													"maxclass" : "panel",
													"mode" : 0,
													"numinlets" : 1,
													"numoutlets" : 0,
													"patching_rect" : [ 66.337189, 22.711639, 37.0, 5.0 ],
													"presentation" : 1,
													"presentation_rect" : [ 0.0, 17.0, 425.0, 80.338158 ],
													"proportion" : 0.39,
													"rounded" : 0,
													"style" : ""
												}

											}
, 											{
												"box" : 												{
													"angle" : 0.0,
													"background" : 1,
													"bgcolor" : [ 0.0, 0.0, 0.0, 1.0 ],
													"id" : "obj-135",
													"maxclass" : "panel",
													"mode" : 0,
													"numinlets" : 1,
													"numoutlets" : 0,
													"patching_rect" : [ 109.079285, 22.711639, 37.0, 5.0 ],
													"presentation" : 1,
													"presentation_rect" : [ 0.0, 0.0, 425.0, 133.0 ],
													"proportion" : 0.39,
													"rounded" : 0,
													"style" : ""
												}

											}
 ],
										"lines" : [ 											{
												"patchline" : 												{
													"destination" : [ "obj-27", 0 ],
													"disabled" : 0,
													"hidden" : 0,
													"source" : [ "obj-1", 0 ]
												}

											}
, 											{
												"patchline" : 												{
													"destination" : [ "obj-2", 2 ],
													"disabled" : 0,
													"hidden" : 0,
													"source" : [ "obj-10", 0 ]
												}

											}
, 											{
												"patchline" : 												{
													"destination" : [ "obj-5", 2 ],
													"disabled" : 0,
													"hidden" : 0,
													"source" : [ "obj-10", 0 ]
												}

											}
, 											{
												"patchline" : 												{
													"destination" : [ "obj-13", 1 ],
													"disabled" : 0,
													"hidden" : 0,
													"source" : [ "obj-11", 0 ]
												}

											}
, 											{
												"patchline" : 												{
													"destination" : [ "obj-37", 0 ],
													"disabled" : 0,
													"hidden" : 0,
													"source" : [ "obj-13", 0 ]
												}

											}
, 											{
												"patchline" : 												{
													"destination" : [ "obj-9", 0 ],
													"disabled" : 0,
													"hidden" : 0,
													"source" : [ "obj-13", 1 ]
												}

											}
, 											{
												"patchline" : 												{
													"destination" : [ "obj-8", 1 ],
													"disabled" : 0,
													"hidden" : 0,
													"source" : [ "obj-2", 0 ]
												}

											}
, 											{
												"patchline" : 												{
													"destination" : [ "obj-7", 0 ],
													"disabled" : 0,
													"hidden" : 0,
													"source" : [ "obj-22", 0 ]
												}

											}
, 											{
												"patchline" : 												{
													"destination" : [ "obj-34", 0 ],
													"disabled" : 0,
													"hidden" : 0,
													"source" : [ "obj-27", 0 ]
												}

											}
, 											{
												"patchline" : 												{
													"destination" : [ "obj-2", 0 ],
													"disabled" : 0,
													"hidden" : 0,
													"source" : [ "obj-3", 0 ]
												}

											}
, 											{
												"patchline" : 												{
													"destination" : [ "obj-34", 2 ],
													"disabled" : 0,
													"hidden" : 0,
													"source" : [ "obj-3", 0 ]
												}

											}
, 											{
												"patchline" : 												{
													"destination" : [ "obj-5", 0 ],
													"disabled" : 0,
													"hidden" : 0,
													"source" : [ "obj-3", 0 ]
												}

											}
, 											{
												"patchline" : 												{
													"destination" : [ "obj-35", 0 ],
													"disabled" : 0,
													"hidden" : 0,
													"source" : [ "obj-34", 0 ]
												}

											}
, 											{
												"patchline" : 												{
													"destination" : [ "obj-13", 0 ],
													"disabled" : 0,
													"hidden" : 0,
													"source" : [ "obj-37", 0 ]
												}

											}
, 											{
												"patchline" : 												{
													"destination" : [ "obj-38", 0 ],
													"disabled" : 0,
													"hidden" : 0,
													"source" : [ "obj-37", 0 ]
												}

											}
, 											{
												"patchline" : 												{
													"destination" : [ "obj-2", 1 ],
													"disabled" : 0,
													"hidden" : 0,
													"source" : [ "obj-38", 0 ]
												}

											}
, 											{
												"patchline" : 												{
													"destination" : [ "obj-5", 1 ],
													"disabled" : 0,
													"hidden" : 0,
													"source" : [ "obj-38", 0 ]
												}

											}
, 											{
												"patchline" : 												{
													"destination" : [ "obj-8", 2 ],
													"disabled" : 0,
													"hidden" : 0,
													"source" : [ "obj-5", 0 ]
												}

											}
, 											{
												"patchline" : 												{
													"destination" : [ "obj-8", 0 ],
													"disabled" : 0,
													"hidden" : 0,
													"source" : [ "obj-7", 0 ]
												}

											}
, 											{
												"patchline" : 												{
													"destination" : [ "obj-34", 1 ],
													"disabled" : 0,
													"hidden" : 0,
													"source" : [ "obj-8", 0 ]
												}

											}
, 											{
												"patchline" : 												{
													"destination" : [ "obj-10", 0 ],
													"disabled" : 0,
													"hidden" : 0,
													"source" : [ "obj-9", 0 ]
												}

											}
, 											{
												"patchline" : 												{
													"destination" : [ "obj-13", 2 ],
													"disabled" : 0,
													"hidden" : 0,
													"source" : [ "obj-9", 0 ]
												}

											}
 ]
									}
,
									"patching_rect" : [ 7.0, 352.0, 150.0, 116.0 ],
									"varname" : "LagProcessor",
									"viewvisibility" : 1
								}

							}
, 							{
								"box" : 								{
									"bgmode" : 0,
									"border" : 0,
									"clickthrough" : 0,
									"enablehscroll" : 0,
									"enablevscroll" : 0,
									"extract" : 1,
									"id" : "obj-25",
									"lockeddragscroll" : 0,
									"maxclass" : "bpatcher",
									"name" : "bp.Scope.maxpat",
									"numinlets" : 1,
									"numoutlets" : 1,
									"offset" : [ 0.0, 0.0 ],
									"outlettype" : [ "signal" ],
									"patching_rect" : [ 7.0, 229.0, 101.0, 116.0 ],
									"varname" : "bp.Scope",
									"viewvisibility" : 1
								}

							}
, 							{
								"box" : 								{
									"bgmode" : 0,
									"border" : 0,
									"clickthrough" : 0,
									"enablehscroll" : 0,
									"enablevscroll" : 0,
									"extract" : 1,
									"id" : "obj-24",
									"lockeddragscroll" : 0,
									"maxclass" : "bpatcher",
									"name" : "bp.LFO2.maxpat",
									"numinlets" : 1,
									"numoutlets" : 2,
									"offset" : [ 0.0, 0.0 ],
									"outlettype" : [ "signal", "signal" ],
									"patching_rect" : [ 7.0, 102.0, 170.0, 116.0 ],
									"varname" : "bp.LFO2",
									"viewvisibility" : 1
								}

							}
, 							{
								"box" : 								{
									"bgmode" : 0,
									"border" : 0,
									"clickthrough" : 0,
									"enablehscroll" : 0,
									"enablevscroll" : 0,
									"extract" : 1,
									"id" : "obj-20",
									"lockeddragscroll" : 0,
									"maxclass" : "bpatcher",
									"name" : "bp.Cloud.maxpat",
									"numinlets" : 4,
									"numoutlets" : 1,
									"offset" : [ 0.0, 0.0 ],
									"outlettype" : [ "signal" ],
									"patching_rect" : [ 358.0, 136.0, 280.0, 116.0 ],
									"varname" : "bp.Cloud",
									"viewvisibility" : 1
								}

							}
, 							{
								"box" : 								{
									"bgmode" : 0,
									"border" : 0,
									"clickthrough" : 0,
									"enablehscroll" : 0,
									"enablevscroll" : 0,
									"extract" : 1,
									"id" : "obj-3",
									"lockeddragscroll" : 0,
									"maxclass" : "bpatcher",
									"name" : "bp.Stereo.maxpat",
									"numinlets" : 2,
									"numoutlets" : 0,
									"offset" : [ 0.0, 0.0 ],
									"patching_rect" : [ 358.0, 277.0, 148.0, 116.0 ],
									"varname" : "bp.Stereo",
									"viewvisibility" : 1
								}

							}
, 							{
								"box" : 								{
									"fontname" : "Arial",
									"fontsize" : 13.0,
									"id" : "obj-5",
									"maxclass" : "comment",
									"numinlets" : 1,
									"numoutlets" : 0,
									"patching_rect" : [ 7.0, 69.0, 428.0, 21.0 ],
									"style" : "",
									"text" : "The lag processor slews signal changes",
									"textcolor" : [ 0.2, 0.2, 0.2, 1.0 ],
									"varname" : "autohelp_top_digest"
								}

							}
, 							{
								"box" : 								{
									"fontname" : "Arial",
									"fontsize" : 48.0,
									"id" : "obj-11",
									"maxclass" : "comment",
									"numinlets" : 1,
									"numoutlets" : 0,
									"patching_rect" : [ 10.0, 10.6875, 320.0, 60.0 ],
									"style" : "",
									"text" : "Lag Processor",
									"textcolor" : [ 0.2, 0.2, 0.2, 1.0 ],
									"varname" : "autohelp_top_digest[2]"
								}

							}
 ],
						"lines" : [ 							{
								"patchline" : 								{
									"destination" : [ "obj-26", 0 ],
									"disabled" : 0,
									"hidden" : 0,
									"source" : [ "obj-1", 0 ]
								}

							}
, 							{
								"patchline" : 								{
									"destination" : [ "obj-3", 1 ],
									"disabled" : 0,
									"hidden" : 0,
									"source" : [ "obj-20", 0 ]
								}

							}
, 							{
								"patchline" : 								{
									"destination" : [ "obj-3", 0 ],
									"disabled" : 0,
									"hidden" : 0,
									"source" : [ "obj-20", 0 ]
								}

							}
, 							{
								"patchline" : 								{
									"destination" : [ "obj-25", 0 ],
									"disabled" : 0,
									"hidden" : 0,
									"source" : [ "obj-24", 0 ]
								}

							}
, 							{
								"patchline" : 								{
									"destination" : [ "obj-1", 0 ],
									"disabled" : 0,
									"hidden" : 0,
									"source" : [ "obj-25", 0 ]
								}

							}
, 							{
								"patchline" : 								{
									"destination" : [ "obj-20", 0 ],
									"disabled" : 0,
									"hidden" : 0,
									"midpoints" : [ 16.5, 605.0, 333.0, 605.0, 333.0, 122.0, 367.5, 122.0 ],
									"source" : [ "obj-26", 0 ]
								}

							}
 ],
						"bgfillcolor_type" : "gradient",
						"bgfillcolor_color1" : [ 0.454902, 0.462745, 0.482353, 1.0 ],
						"bgfillcolor_color2" : [ 0.290196, 0.309804, 0.301961, 1.0 ],
						"bgfillcolor_color" : [ 0.290196, 0.309804, 0.301961, 1.0 ],
						"bgfillcolor_angle" : 270.0,
						"bgfillcolor_proportion" : 0.39
					}
,
					"patching_rect" : [ 36.0, 27.0, 50.0, 22.0 ],
					"saved_object_attributes" : 					{
						"description" : "",
						"digest" : "",
						"fontsize" : 13.0,
						"globalpatchername" : "",
						"style" : "",
						"tags" : ""
					}
,
					"style" : "",
					"text" : "p basic",
					"varname" : "basic_tab"
				}

			}
 ],
		"lines" : [ 			{
				"patchline" : 				{
					"destination" : [ "obj-20", 1 ],
					"disabled" : 0,
					"hidden" : 0,
					"source" : [ "obj-13", 0 ]
				}

			}
, 			{
				"patchline" : 				{
					"destination" : [ "obj-13", 0 ],
					"disabled" : 0,
					"hidden" : 0,
					"source" : [ "obj-17", 0 ]
				}

			}
, 			{
				"patchline" : 				{
					"destination" : [ "obj-13", 0 ],
					"disabled" : 0,
					"hidden" : 0,
					"source" : [ "obj-21", 0 ]
				}

			}
 ],
		"parameters" : 		{
			"obj-2::obj-24::obj-88" : [ "Time Mode", "Time Mode", 1 ],
			"obj-2::obj-25::obj-20" : [ "RangeSwitch", "RangeSwitch", 0 ],
			"obj-2::obj-20::obj-129" : [ "CV2", "CV2", 0 ],
			"obj-2::obj-24::obj-81" : [ "Phase-Inversion", "Phase-Inversion", 1 ],
			"obj-2::obj-3::obj-56" : [ "OutputChannel", "OutputChannel", 0 ],
			"obj-2::obj-20::obj-45" : [ "TimeMode[1]", "TimeMode", 1 ],
			"obj-2::obj-3::obj-52" : [ "Level", "Level", 0 ],
			"obj-2::obj-20::obj-51" : [ "Fatness", "Fatness", 0 ],
			"obj-2::obj-24::obj-89" : [ "SyncRate", "Rate", 0 ],
			"obj-2::obj-1::obj-9" : [ "Down", "Down", 0 ],
			"obj-2::obj-3::obj-22" : [ "Mute[2]", "Mute", 0 ],
			"obj-2::obj-24::obj-74" : [ "Rate", "Rate", 0 ],
			"obj-2::obj-24::obj-75" : [ "Shape", "Shape", 0 ],
			"obj-2::obj-24::obj-94" : [ "Re-Trigger", "Re-Trigger", 0 ],
			"obj-2::obj-24::obj-144" : [ "Phase", "Phase", 0 ],
			"obj-2::obj-20::obj-106" : [ "CV3", "CV3", 0 ],
			"obj-2::obj-1::obj-1" : [ "bypass", "bypass", 0 ],
			"obj-2::obj-20::obj-331" : [ "WaveformCloud", "Waveform", 0 ],
			"obj-2::obj-20::obj-20" : [ "Mute", "Mute", 0 ],
			"obj-2::obj-26::obj-20" : [ "RangeSwitch[1]", "RangeSwitch", 0 ],
			"obj-2::obj-20::obj-107" : [ "Linear", "Linear", 0 ],
			"obj-2::obj-24::obj-12" : [ "Mute[4]", "Mute", 0 ],
			"obj-2::obj-20::obj-24" : [ "Freq", "Freq", 0 ],
			"obj-2::obj-1::obj-22" : [ "InterpMode", "InterpMode", 1 ],
			"obj-2::obj-20::obj-46" : [ "Offset", "Offset", 0 ],
			"obj-2::obj-3::obj-55" : [ "DSP", "DSP", 0 ],
			"obj-2::obj-1::obj-37" : [ "Up", "Up", 0 ],
			"obj-2::obj-1::obj-11" : [ "Link", "Link", 1 ]
		}
,
		"dependency_cache" : [ 			{
				"name" : "bp.Stereo.maxpat",
				"bootpath" : "C74:/packages/Beap/clippings/BEAP/Output",
				"type" : "JSON",
				"implicit" : 1
			}
, 			{
				"name" : "bp.Cloud.maxpat",
				"bootpath" : "C74:/packages/Beap/clippings/BEAP/Oscillator",
				"type" : "JSON",
				"implicit" : 1
			}
, 			{
				"name" : "bp.LFO2.maxpat",
				"bootpath" : "C74:/packages/Beap/clippings/BEAP/LFO",
				"type" : "JSON",
				"implicit" : 1
			}
, 			{
				"name" : "bp.Scope.maxpat",
				"bootpath" : "C74:/packages/Beap/clippings/BEAP/Scope",
				"type" : "JSON",
				"implicit" : 1
			}
 ],
		"embedsnapshot" : 1,
		"snapshot" : 		{
			"filetype" : "C74Snapshot",
			"version" : 1,
			"name" : "bp.Lag Processor.maxhelp",
			"origin" : "bp.Lag Processor.maxhelp",
			"type" : "patcher",
			"subtype" : "Undefined",
			"snapshot" : 			{
				"name" : "bp.Lag Processor.maxhelp",
				"valuedictionary" : 				{
					"parameter_values" : 					{
						"CV2" : 0.0,
						"CV3" : 0.0,
						"DSP" : 1.0,
						"Down" : 569.767822,
						"Fatness" : 2.366432,
						"Freq" : 6763.827637,
						"Level" : -5.266197,
						"Linear" : 0.0,
						"Mute" : 0.0,
						"Mute[2]" : 0.0,
						"Mute[4]" : 0.0,
						"Offset" : 0.0,
						"OutputChannel" : 0.0,
						"Phase" : 0.0,
						"RangeSwitch" : 0.0,
						"RangeSwitch[1]" : 0.0,
						"Rate" : 5.0,
						"Re-Trigger" : 0.0,
						"Shape" : 5.0,
						"SyncRate" : 20.661417,
						"Up" : 569.767822,
						"WaveformCloud" : 0.0,
						"bypass" : 0.0,
						"InterpMode" : 0.0,
						"Link" : 1.0,
						"Time Mode" : 1.0,
						"TimeMode[1]" : 1.0
					}

				}

			}

		}

	}

}
