{
	"patcher" : 	{
		"fileversion" : 1,
		"appversion" : 		{
			"major" : 7,
			"minor" : 0,
			"revision" : 0,
			"architecture" : "x64",
			"modernui" : 1
		}
,
		"rect" : [ 34.0, 78.0, 1212.0, 641.0 ],
		"bglocked" : 0,
		"openinpresentation" : 0,
		"default_fontsize" : 12.0,
		"default_fontface" : 0,
		"default_fontname" : "Arial",
		"gridonopen" : 1,
		"gridsize" : [ 15.0, 15.0 ],
		"gridsnaponopen" : 1,
		"statusbarvisible" : 1,
		"toolbarvisible" : 1,
		"lefttoolbarpinned" : 0,
		"toptoolbarpinned" : 0,
		"righttoolbarpinned" : 0,
		"bottomtoolbarpinned" : 0,
		"toolbars_unpinned_last_save" : 0,
		"tallnewobj" : 0,
		"boxanimatetime" : 200,
		"enablehscroll" : 1,
		"enablevscroll" : 1,
		"devicewidth" : 0.0,
		"description" : "",
		"digest" : "",
		"tags" : "",
		"style" : "",
		"boxes" : [ 			{
				"box" : 				{
					"bgmode" : 0,
					"border" : 0,
					"clickthrough" : 0,
					"embed" : 1,
					"enablehscroll" : 0,
					"enablevscroll" : 0,
					"id" : "obj-6",
					"lockeddragscroll" : 0,
					"maxclass" : "bpatcher",
					"numinlets" : 5,
					"numoutlets" : 3,
					"offset" : [ 0.0, 0.0 ],
					"outlettype" : [ "signal", "", "" ],
					"patcher" : 					{
						"fileversion" : 1,
						"appversion" : 						{
							"major" : 7,
							"minor" : 0,
							"revision" : 0,
							"architecture" : "x64",
							"modernui" : 1
						}
,
						"rect" : [ 34.0, 78.0, 309.0, 116.0 ],
						"bgcolor" : [ 1.0, 1.0, 1.0, 0.0 ],
						"bglocked" : 0,
						"openinpresentation" : 1,
						"default_fontsize" : 12.0,
						"default_fontface" : 0,
						"default_fontname" : "Arial",
						"gridonopen" : 1,
						"gridsize" : [ 15.0, 15.0 ],
						"gridsnaponopen" : 1,
						"statusbarvisible" : 1,
						"toolbarvisible" : 1,
						"lefttoolbarpinned" : 0,
						"toptoolbarpinned" : 0,
						"righttoolbarpinned" : 0,
						"bottomtoolbarpinned" : 0,
						"toolbars_unpinned_last_save" : 0,
						"tallnewobj" : 0,
						"boxanimatetime" : 200,
						"enablehscroll" : 1,
						"enablevscroll" : 1,
						"devicewidth" : 0.0,
						"description" : "",
						"digest" : "",
						"tags" : "",
						"style" : "",
						"boxes" : [ 							{
								"box" : 								{
									"id" : "obj-7",
									"maxclass" : "comment",
									"numinlets" : 1,
									"numoutlets" : 0,
									"patching_rect" : [ 22.0, 68.0, 303.0, 20.0 ],
									"style" : "",
									"text" : "## Morphable additive oscillator with 32 harmonics ## "
								}

							}
, 							{
								"box" : 								{
									"fontname" : "Arial Bold",
									"fontsize" : 10.0,
									"id" : "obj-6",
									"maxclass" : "newobj",
									"numinlets" : 0,
									"numoutlets" : 1,
									"outlettype" : [ "" ],
									"patching_rect" : [ 874.803711, 406.44165, 102.0, 20.0 ],
									"style" : "",
									"text" : "r beap_resynthesis"
								}

							}
, 							{
								"box" : 								{
									"fontname" : "Arial Bold",
									"fontsize" : 9.0,
									"id" : "obj-102",
									"maxclass" : "comment",
									"numinlets" : 1,
									"numoutlets" : 0,
									"patching_rect" : [ 1404.0, 1064.213379, 60.0, 17.0 ],
									"presentation" : 1,
									"presentation_rect" : [ 244.268768, 97.0, 60.0, 17.0 ],
									"style" : "",
									"text" : "Serialosc B",
									"textcolor" : [ 1.0, 1.0, 1.0, 1.0 ]
								}

							}
, 							{
								"box" : 								{
									"fontname" : "Arial Bold",
									"fontsize" : 9.0,
									"id" : "obj-103",
									"maxclass" : "comment",
									"numinlets" : 1,
									"numoutlets" : 0,
									"patching_rect" : [ 1026.0, 1056.213379, 59.0, 17.0 ],
									"presentation" : 1,
									"presentation_rect" : [ 125.634384, 97.0, 59.0, 17.0 ],
									"style" : "",
									"text" : "Serialosc A",
									"textcolor" : [ 1.0, 1.0, 1.0, 1.0 ]
								}

							}
, 							{
								"box" : 								{
									"fontname" : "Arial Bold",
									"fontsize" : 9.0,
									"id" : "obj-101",
									"maxclass" : "comment",
									"numinlets" : 1,
									"numoutlets" : 0,
									"patching_rect" : [ 1782.0, 121.951538, 60.0, 17.0 ],
									"presentation" : 1,
									"presentation_rect" : [ 244.268768, 0.0, 60.0, 17.0 ],
									"style" : "",
									"text" : "Serialosc B",
									"textcolor" : [ 1.0, 1.0, 1.0, 1.0 ]
								}

							}
, 							{
								"box" : 								{
									"fontname" : "Arial Bold",
									"fontsize" : 9.0,
									"id" : "obj-100",
									"maxclass" : "comment",
									"numinlets" : 1,
									"numoutlets" : 0,
									"patching_rect" : [ 1404.0, 117.951538, 59.0, 17.0 ],
									"presentation" : 1,
									"presentation_rect" : [ 192.788452, 0.0, 59.0, 17.0 ],
									"style" : "",
									"text" : "Serialosc A",
									"textcolor" : [ 1.0, 1.0, 1.0, 1.0 ]
								}

							}
, 							{
								"box" : 								{
									"annotation" : "Monome",
									"comment" : "Monome",
									"hint" : "Monome",
									"id" : "obj-99",
									"maxclass" : "inlet",
									"numinlets" : 0,
									"numoutlets" : 1,
									"outlettype" : [ "" ],
									"patching_rect" : [ 1740.0, 113.951538, 25.0, 25.0 ],
									"style" : ""
								}

							}
, 							{
								"box" : 								{
									"annotation" : "Monome",
									"comment" : "Monome",
									"hint" : "Monome",
									"id" : "obj-98",
									"maxclass" : "inlet",
									"numinlets" : 0,
									"numoutlets" : 1,
									"outlettype" : [ "" ],
									"patching_rect" : [ 1362.0, 113.951538, 25.0, 25.0 ],
									"style" : ""
								}

							}
, 							{
								"box" : 								{
									"annotation" : "Monome",
									"comment" : "Monome",
									"hint" : "Monome",
									"id" : "obj-97",
									"maxclass" : "outlet",
									"numinlets" : 1,
									"numoutlets" : 0,
									"patching_rect" : [ 1362.0, 1056.213379, 25.0, 25.0 ],
									"style" : ""
								}

							}
, 							{
								"box" : 								{
									"annotation" : "Monome",
									"comment" : "Monome",
									"hint" : "Monome",
									"id" : "obj-96",
									"maxclass" : "outlet",
									"numinlets" : 1,
									"numoutlets" : 0,
									"patching_rect" : [ 984.0, 1049.213379, 25.0, 25.0 ],
									"style" : ""
								}

							}
, 							{
								"box" : 								{
									"fontname" : "Arial",
									"fontsize" : 12.0,
									"id" : "obj-88",
									"maxclass" : "message",
									"numinlets" : 2,
									"numoutlets" : 1,
									"outlettype" : [ "" ],
									"patching_rect" : [ 1740.0, 406.44165, 75.0, 22.0 ],
									"style" : "",
									"text" : "select $1 $2"
								}

							}
, 							{
								"box" : 								{
									"fontname" : "Arial",
									"fontsize" : 12.0,
									"id" : "obj-89",
									"maxclass" : "newobj",
									"numinlets" : 2,
									"numoutlets" : 1,
									"outlettype" : [ "" ],
									"patching_rect" : [ 1740.0, 371.44165, 78.0, 22.0 ],
									"style" : "",
									"text" : "pack i f"
								}

							}
, 							{
								"box" : 								{
									"fontname" : "Arial",
									"fontsize" : 12.0,
									"id" : "obj-90",
									"maxclass" : "newobj",
									"numinlets" : 1,
									"numoutlets" : 2,
									"outlettype" : [ "int", "int" ],
									"patching_rect" : [ 1740.0, 293.44165, 78.0, 22.0 ],
									"style" : "",
									"text" : "unpack i i"
								}

							}
, 							{
								"box" : 								{
									"fontname" : "Arial",
									"fontsize" : 12.0,
									"id" : "obj-91",
									"maxclass" : "newobj",
									"numinlets" : 6,
									"numoutlets" : 1,
									"outlettype" : [ "" ],
									"patching_rect" : [ 1799.0, 336.44165, 92.0, 22.0 ],
									"style" : "",
									"text" : "scale 0 15 1. 0."
								}

							}
, 							{
								"box" : 								{
									"fontname" : "Arial",
									"fontsize" : 12.0,
									"id" : "obj-92",
									"maxclass" : "newobj",
									"numinlets" : 2,
									"numoutlets" : 1,
									"outlettype" : [ "int" ],
									"patching_rect" : [ 1740.0, 336.44165, 34.0, 22.0 ],
									"style" : "",
									"text" : "+ 17"
								}

							}
, 							{
								"box" : 								{
									"fontname" : "Arial",
									"fontsize" : 12.0,
									"id" : "obj-93",
									"maxclass" : "newobj",
									"numinlets" : 2,
									"numoutlets" : 2,
									"outlettype" : [ "", "" ],
									"patching_rect" : [ 1740.0, 240.44165, 48.0, 22.0 ],
									"style" : "",
									"text" : "route 1"
								}

							}
, 							{
								"box" : 								{
									"fontname" : "Arial",
									"fontsize" : 12.0,
									"id" : "obj-94",
									"maxclass" : "newobj",
									"numinlets" : 2,
									"numoutlets" : 2,
									"outlettype" : [ "", "" ],
									"patching_rect" : [ 1740.0, 201.44165, 51.0, 22.0 ],
									"style" : "",
									"text" : "zl rot -2"
								}

							}
, 							{
								"box" : 								{
									"fontname" : "Arial",
									"fontsize" : 12.0,
									"id" : "obj-95",
									"maxclass" : "newobj",
									"numinlets" : 2,
									"numoutlets" : 2,
									"outlettype" : [ "", "" ],
									"patching_rect" : [ 1740.0, 155.44165, 137.0, 22.0 ],
									"style" : "",
									"text" : "route /monome/grid/key"
								}

							}
, 							{
								"box" : 								{
									"fontname" : "Arial",
									"fontsize" : 12.0,
									"id" : "obj-87",
									"maxclass" : "message",
									"numinlets" : 2,
									"numoutlets" : 1,
									"outlettype" : [ "" ],
									"patching_rect" : [ 1362.0, 406.44165, 75.0, 22.0 ],
									"style" : "",
									"text" : "select $1 $2"
								}

							}
, 							{
								"box" : 								{
									"fontname" : "Arial",
									"fontsize" : 12.0,
									"id" : "obj-85",
									"maxclass" : "newobj",
									"numinlets" : 2,
									"numoutlets" : 1,
									"outlettype" : [ "" ],
									"patching_rect" : [ 1362.0, 371.44165, 78.0, 22.0 ],
									"style" : "",
									"text" : "pack i f"
								}

							}
, 							{
								"box" : 								{
									"fontname" : "Arial",
									"fontsize" : 12.0,
									"id" : "obj-84",
									"maxclass" : "newobj",
									"numinlets" : 1,
									"numoutlets" : 2,
									"outlettype" : [ "int", "int" ],
									"patching_rect" : [ 1362.0, 293.44165, 78.0, 22.0 ],
									"style" : "",
									"text" : "unpack i i"
								}

							}
, 							{
								"box" : 								{
									"fontname" : "Arial",
									"fontsize" : 12.0,
									"id" : "obj-83",
									"maxclass" : "newobj",
									"numinlets" : 6,
									"numoutlets" : 1,
									"outlettype" : [ "" ],
									"patching_rect" : [ 1421.0, 336.44165, 92.0, 22.0 ],
									"style" : "",
									"text" : "scale 0 15 1. 0."
								}

							}
, 							{
								"box" : 								{
									"fontname" : "Arial",
									"fontsize" : 12.0,
									"id" : "obj-82",
									"maxclass" : "newobj",
									"numinlets" : 2,
									"numoutlets" : 1,
									"outlettype" : [ "int" ],
									"patching_rect" : [ 1362.0, 336.44165, 32.5, 22.0 ],
									"style" : "",
									"text" : "+ 1"
								}

							}
, 							{
								"box" : 								{
									"fontname" : "Arial",
									"fontsize" : 12.0,
									"id" : "obj-77",
									"maxclass" : "newobj",
									"numinlets" : 2,
									"numoutlets" : 2,
									"outlettype" : [ "", "" ],
									"patching_rect" : [ 1362.0, 240.44165, 48.0, 22.0 ],
									"style" : "",
									"text" : "route 1"
								}

							}
, 							{
								"box" : 								{
									"fontname" : "Arial",
									"fontsize" : 12.0,
									"id" : "obj-72",
									"maxclass" : "newobj",
									"numinlets" : 2,
									"numoutlets" : 2,
									"outlettype" : [ "", "" ],
									"patching_rect" : [ 1362.0, 201.44165, 51.0, 22.0 ],
									"style" : "",
									"text" : "zl rot -2"
								}

							}
, 							{
								"box" : 								{
									"fontname" : "Arial",
									"fontsize" : 12.0,
									"id" : "obj-62",
									"maxclass" : "newobj",
									"numinlets" : 2,
									"numoutlets" : 2,
									"outlettype" : [ "", "" ],
									"patching_rect" : [ 1362.0, 155.44165, 137.0, 22.0 ],
									"style" : "",
									"text" : "route /monome/grid/key"
								}

							}
, 							{
								"box" : 								{
									"fontname" : "Arial",
									"fontsize" : 12.0,
									"id" : "obj-27",
									"maxclass" : "newobj",
									"numinlets" : 2,
									"numoutlets" : 1,
									"outlettype" : [ "int" ],
									"patching_rect" : [ 984.0, 544.063843, 32.5, 22.0 ],
									"style" : "",
									"text" : "> 0"
								}

							}
, 							{
								"box" : 								{
									"fontname" : "Arial",
									"fontsize" : 12.0,
									"id" : "obj-5",
									"maxclass" : "newobj",
									"numinlets" : 2,
									"numoutlets" : 1,
									"outlettype" : [ "" ],
									"patching_rect" : [ 984.0, 632.063843, 88.0, 22.0 ],
									"style" : "",
									"text" : "gate"
								}

							}
, 							{
								"box" : 								{
									"fontname" : "Arial",
									"fontsize" : 12.0,
									"id" : "obj-36",
									"maxclass" : "message",
									"numinlets" : 2,
									"numoutlets" : 1,
									"outlettype" : [ "" ],
									"patching_rect" : [ 1362.0, 1000.428467, 182.0, 22.0 ],
									"style" : "",
									"text" : "/monome/grid/led/col $1 0 $2 $3"
								}

							}
, 							{
								"box" : 								{
									"fontname" : "Arial",
									"fontsize" : 12.0,
									"id" : "obj-37",
									"maxclass" : "newobj",
									"numinlets" : 1,
									"numoutlets" : 2,
									"outlettype" : [ "int", "int" ],
									"patching_rect" : [ 1404.0, 908.071655, 61.0, 22.0 ],
									"style" : "",
									"text" : "unpack i i"
								}

							}
, 							{
								"box" : 								{
									"fontname" : "Arial",
									"fontsize" : 12.0,
									"id" : "obj-39",
									"maxclass" : "newobj",
									"numinlets" : 1,
									"numoutlets" : 2,
									"outlettype" : [ "int", "int" ],
									"patching_rect" : [ 1362.0, 835.756653, 61.0, 22.0 ],
									"style" : "",
									"text" : "unpack i i"
								}

							}
, 							{
								"box" : 								{
									"fontname" : "Arial",
									"fontsize" : 12.0,
									"id" : "obj-40",
									"maxclass" : "newobj",
									"numinlets" : 3,
									"numoutlets" : 1,
									"outlettype" : [ "" ],
									"patching_rect" : [ 1362.0, 946.428467, 103.0, 22.0 ],
									"style" : "",
									"text" : "pack i i i"
								}

							}
, 							{
								"box" : 								{
									"coll_data" : 									{
										"count" : 17,
										"data" : [ 											{
												"key" : 0,
												"value" : [ 0, 0 ]
											}
, 											{
												"key" : 1,
												"value" : [ 0, 128 ]
											}
, 											{
												"key" : 2,
												"value" : [ 0, 192 ]
											}
, 											{
												"key" : 3,
												"value" : [ 0, 224 ]
											}
, 											{
												"key" : 4,
												"value" : [ 0, 240 ]
											}
, 											{
												"key" : 5,
												"value" : [ 0, 248 ]
											}
, 											{
												"key" : 6,
												"value" : [ 0, 252 ]
											}
, 											{
												"key" : 7,
												"value" : [ 0, 254 ]
											}
, 											{
												"key" : 8,
												"value" : [ 0, 255 ]
											}
, 											{
												"key" : 9,
												"value" : [ 128, 255 ]
											}
, 											{
												"key" : 10,
												"value" : [ 192, 255 ]
											}
, 											{
												"key" : 11,
												"value" : [ 224, 255 ]
											}
, 											{
												"key" : 12,
												"value" : [ 240, 255 ]
											}
, 											{
												"key" : 13,
												"value" : [ 248, 255 ]
											}
, 											{
												"key" : 14,
												"value" : [ 252, 255 ]
											}
, 											{
												"key" : 15,
												"value" : [ 254, 255 ]
											}
, 											{
												"key" : 16,
												"value" : [ 255, 255 ]
											}
 ]
									}
,
									"fontname" : "Arial",
									"fontsize" : 12.0,
									"id" : "obj-43",
									"maxclass" : "newobj",
									"numinlets" : 1,
									"numoutlets" : 4,
									"outlettype" : [ "", "", "", "" ],
									"patching_rect" : [ 1404.0, 873.071655, 63.0, 22.0 ],
									"saved_object_attributes" : 									{
										"embed" : 1
									}
,
									"style" : "",
									"text" : "coll meter"
								}

							}
, 							{
								"box" : 								{
									"fontname" : "Arial",
									"fontsize" : 12.0,
									"id" : "obj-47",
									"maxclass" : "newobj",
									"numinlets" : 1,
									"numoutlets" : 1,
									"outlettype" : [ "list" ],
									"patching_rect" : [ 1362.0, 795.44165, 58.0, 22.0 ],
									"style" : "",
									"text" : "listfunnel"
								}

							}
, 							{
								"box" : 								{
									"fontname" : "Arial",
									"fontsize" : 12.0,
									"id" : "obj-17",
									"maxclass" : "message",
									"numinlets" : 2,
									"numoutlets" : 1,
									"outlettype" : [ "" ],
									"patching_rect" : [ 984.0, 1000.428467, 182.0, 22.0 ],
									"style" : "",
									"text" : "/monome/grid/led/col $1 0 $2 $3"
								}

							}
, 							{
								"box" : 								{
									"fontname" : "Arial",
									"fontsize" : 12.0,
									"id" : "obj-9",
									"maxclass" : "newobj",
									"numinlets" : 1,
									"numoutlets" : 2,
									"outlettype" : [ "int", "int" ],
									"patching_rect" : [ 1026.0, 908.071655, 61.0, 22.0 ],
									"style" : "",
									"text" : "unpack i i"
								}

							}
, 							{
								"box" : 								{
									"fontname" : "Arial",
									"fontsize" : 12.0,
									"id" : "obj-11",
									"maxclass" : "newobj",
									"numinlets" : 1,
									"numoutlets" : 2,
									"outlettype" : [ "int", "int" ],
									"patching_rect" : [ 984.0, 835.756653, 61.0, 22.0 ],
									"style" : "",
									"text" : "unpack i i"
								}

							}
, 							{
								"box" : 								{
									"fontname" : "Arial",
									"fontsize" : 12.0,
									"id" : "obj-12",
									"maxclass" : "newobj",
									"numinlets" : 3,
									"numoutlets" : 1,
									"outlettype" : [ "" ],
									"patching_rect" : [ 984.0, 946.428467, 103.0, 22.0 ],
									"style" : "",
									"text" : "pack i i i"
								}

							}
, 							{
								"box" : 								{
									"coll_data" : 									{
										"count" : 17,
										"data" : [ 											{
												"key" : 0,
												"value" : [ 0, 0 ]
											}
, 											{
												"key" : 1,
												"value" : [ 0, 128 ]
											}
, 											{
												"key" : 2,
												"value" : [ 0, 192 ]
											}
, 											{
												"key" : 3,
												"value" : [ 0, 224 ]
											}
, 											{
												"key" : 4,
												"value" : [ 0, 240 ]
											}
, 											{
												"key" : 5,
												"value" : [ 0, 248 ]
											}
, 											{
												"key" : 6,
												"value" : [ 0, 252 ]
											}
, 											{
												"key" : 7,
												"value" : [ 0, 254 ]
											}
, 											{
												"key" : 8,
												"value" : [ 0, 255 ]
											}
, 											{
												"key" : 9,
												"value" : [ 128, 255 ]
											}
, 											{
												"key" : 10,
												"value" : [ 192, 255 ]
											}
, 											{
												"key" : 11,
												"value" : [ 224, 255 ]
											}
, 											{
												"key" : 12,
												"value" : [ 240, 255 ]
											}
, 											{
												"key" : 13,
												"value" : [ 248, 255 ]
											}
, 											{
												"key" : 14,
												"value" : [ 252, 255 ]
											}
, 											{
												"key" : 15,
												"value" : [ 254, 255 ]
											}
, 											{
												"key" : 16,
												"value" : [ 255, 255 ]
											}
 ]
									}
,
									"fontname" : "Arial",
									"fontsize" : 12.0,
									"id" : "obj-16",
									"maxclass" : "newobj",
									"numinlets" : 1,
									"numoutlets" : 4,
									"outlettype" : [ "", "", "", "" ],
									"patching_rect" : [ 1026.0, 873.071655, 63.0, 22.0 ],
									"saved_object_attributes" : 									{
										"embed" : 1
									}
,
									"style" : "",
									"text" : "coll meter"
								}

							}
, 							{
								"box" : 								{
									"fontname" : "Arial",
									"fontsize" : 12.0,
									"id" : "obj-28",
									"maxclass" : "newobj",
									"numinlets" : 2,
									"numoutlets" : 2,
									"outlettype" : [ "", "" ],
									"patching_rect" : [ 984.0, 741.756775, 397.0, 22.0 ],
									"style" : "",
									"text" : "zl slice 16"
								}

							}
, 							{
								"box" : 								{
									"fontname" : "Arial",
									"fontsize" : 12.0,
									"id" : "obj-60",
									"maxclass" : "newobj",
									"numinlets" : 1,
									"numoutlets" : 1,
									"outlettype" : [ "list" ],
									"patching_rect" : [ 984.0, 795.44165, 58.0, 22.0 ],
									"style" : "",
									"text" : "listfunnel"
								}

							}
, 							{
								"box" : 								{
									"fontname" : "Arial",
									"fontsize" : 12.0,
									"id" : "obj-34",
									"maxclass" : "newobj",
									"numinlets" : 1,
									"numoutlets" : 1,
									"outlettype" : [ "" ],
									"patching_rect" : [ 984.0, 696.44165, 102.0, 22.0 ],
									"style" : "",
									"text" : "vexpr int($f1*15.)"
								}

							}
, 							{
								"box" : 								{
									"fontname" : "Arial Bold",
									"fontsize" : 9.0,
									"id" : "obj-4",
									"maxclass" : "comment",
									"numinlets" : 1,
									"numoutlets" : 0,
									"patching_rect" : [ 935.967773, 31.711639, 53.0, 17.0 ],
									"presentation" : 1,
									"presentation_rect" : [ 129.634384, 0.0, 53.0, 17.0 ],
									"style" : "",
									"text" : "Morph CV",
									"textcolor" : [ 1.0, 1.0, 1.0, 1.0 ]
								}

							}
, 							{
								"box" : 								{
									"fontname" : "Arial",
									"fontsize" : 12.0,
									"id" : "obj-76",
									"maxclass" : "newobj",
									"numinlets" : 2,
									"numoutlets" : 1,
									"outlettype" : [ "float" ],
									"patching_rect" : [ 404.599976, 461.518799, 76.0, 22.0 ],
									"style" : "",
									"text" : "snapshot~ 1"
								}

							}
, 							{
								"box" : 								{
									"fontface" : 0,
									"fontname" : "Arial",
									"fontsize" : 12.0,
									"id" : "obj-74",
									"maxclass" : "newobj",
									"numinlets" : 2,
									"numoutlets" : 1,
									"outlettype" : [ "float" ],
									"patching_rect" : [ 895.40564, 141.441635, 83.0, 22.0 ],
									"style" : "",
									"text" : "snapshot~ 20"
								}

							}
, 							{
								"box" : 								{
									"fontname" : "Arial Bold",
									"fontsize" : 10.0,
									"id" : "obj-112",
									"maxclass" : "newobj",
									"numinlets" : 3,
									"numoutlets" : 2,
									"outlettype" : [ "", "" ],
									"patcher" : 									{
										"fileversion" : 1,
										"appversion" : 										{
											"major" : 7,
											"minor" : 0,
											"revision" : 0,
											"architecture" : "x64",
											"modernui" : 1
										}
,
										"rect" : [ 34.0, 78.0, 1212.0, 645.0 ],
										"bglocked" : 0,
										"openinpresentation" : 0,
										"default_fontsize" : 12.0,
										"default_fontface" : 0,
										"default_fontname" : "Arial",
										"gridonopen" : 1,
										"gridsize" : [ 15.0, 15.0 ],
										"gridsnaponopen" : 1,
										"statusbarvisible" : 1,
										"toolbarvisible" : 1,
										"lefttoolbarpinned" : 0,
										"toptoolbarpinned" : 0,
										"righttoolbarpinned" : 0,
										"bottomtoolbarpinned" : 0,
										"toolbars_unpinned_last_save" : 0,
										"tallnewobj" : 0,
										"boxanimatetime" : 200,
										"enablehscroll" : 1,
										"enablevscroll" : 1,
										"devicewidth" : 0.0,
										"description" : "",
										"digest" : "",
										"tags" : "",
										"style" : "",
										"boxes" : [ 											{
												"box" : 												{
													"fontname" : "Arial Bold",
													"fontsize" : 10.0,
													"id" : "obj-60",
													"maxclass" : "message",
													"numinlets" : 2,
													"numoutlets" : 1,
													"outlettype" : [ "" ],
													"patching_rect" : [ 310.092529, 334.000061, 86.0, 20.0 ],
													"style" : "",
													"text" : "get harmonic_B"
												}

											}
, 											{
												"box" : 												{
													"fontname" : "Arial Bold",
													"fontsize" : 10.0,
													"id" : "obj-59",
													"maxclass" : "message",
													"numinlets" : 2,
													"numoutlets" : 1,
													"outlettype" : [ "" ],
													"patching_rect" : [ 215.925781, 334.000061, 86.0, 20.0 ],
													"style" : "",
													"text" : "get harmonic_A"
												}

											}
, 											{
												"box" : 												{
													"fontname" : "Arial Bold",
													"fontsize" : 10.0,
													"id" : "obj-51",
													"maxclass" : "newobj",
													"numinlets" : 1,
													"numoutlets" : 1,
													"outlettype" : [ "" ],
													"patching_rect" : [ 395.0, 430.045166, 128.0, 20.0 ],
													"style" : "",
													"text" : "prepend set harmonic_B"
												}

											}
, 											{
												"box" : 												{
													"fontname" : "Arial Bold",
													"fontsize" : 10.0,
													"id" : "obj-43",
													"maxclass" : "newobj",
													"numinlets" : 1,
													"numoutlets" : 1,
													"outlettype" : [ "" ],
													"patching_rect" : [ 254.629578, 430.045166, 128.0, 20.0 ],
													"style" : "",
													"text" : "prepend set harmonic_A"
												}

											}
, 											{
												"box" : 												{
													"fontname" : "Arial Bold",
													"fontsize" : 10.0,
													"id" : "obj-116",
													"maxclass" : "newobj",
													"numinlets" : 1,
													"numoutlets" : 3,
													"outlettype" : [ "int", "int", "int" ],
													"patching_rect" : [ 130.259155, 204.0, 46.0, 20.0 ],
													"style" : "",
													"text" : "t 1 1 2"
												}

											}
, 											{
												"box" : 												{
													"fontname" : "Arial Bold",
													"fontsize" : 10.0,
													"id" : "obj-114",
													"maxclass" : "newobj",
													"numinlets" : 4,
													"numoutlets" : 4,
													"outlettype" : [ "bang", "bang", "bang", "" ],
													"patching_rect" : [ 130.259201, 149.0, 268.5, 20.0 ],
													"style" : "",
													"text" : "sel 0 1 2"
												}

											}
, 											{
												"box" : 												{
													"fontname" : "Arial Bold",
													"fontsize" : 10.0,
													"id" : "obj-83",
													"maxclass" : "newobj",
													"numinlets" : 1,
													"numoutlets" : 3,
													"outlettype" : [ "int", "int", "int" ],
													"patching_rect" : [ 296.592529, 204.0, 46.0, 20.0 ],
													"style" : "",
													"text" : "t 1 2 3"
												}

											}
, 											{
												"box" : 												{
													"fontname" : "Arial Bold",
													"fontsize" : 10.0,
													"id" : "obj-82",
													"maxclass" : "newobj",
													"numinlets" : 1,
													"numoutlets" : 3,
													"outlettype" : [ "int", "int", "int" ],
													"patching_rect" : [ 213.425781, 204.0, 46.0, 20.0 ],
													"style" : "",
													"text" : "t 0 1 2"
												}

											}
, 											{
												"box" : 												{
													"fontname" : "Arial Bold",
													"fontsize" : 10.0,
													"id" : "obj-78",
													"maxclass" : "newobj",
													"numinlets" : 2,
													"numoutlets" : 1,
													"outlettype" : [ "int" ],
													"patching_rect" : [ 50.0, 100.0, 32.5, 20.0 ],
													"style" : "",
													"text" : "+ 1"
												}

											}
, 											{
												"box" : 												{
													"fontname" : "Arial Bold",
													"fontsize" : 10.0,
													"id" : "obj-69",
													"maxclass" : "newobj",
													"numinlets" : 2,
													"numoutlets" : 3,
													"outlettype" : [ "", "", "" ],
													"patching_rect" : [ 130.259155, 371.955872, 267.740845, 20.0 ],
													"style" : "",
													"text" : "gate 3 1"
												}

											}
, 											{
												"box" : 												{
													"fontname" : "Arial Bold",
													"fontsize" : 10.0,
													"id" : "obj-68",
													"maxclass" : "newobj",
													"numinlets" : 2,
													"numoutlets" : 3,
													"outlettype" : [ "", "", "" ],
													"patching_rect" : [ 50.0, 204.0, 48.0, 20.0 ],
													"style" : "",
													"text" : "gate 3 1"
												}

											}
, 											{
												"box" : 												{
													"fontname" : "Arial Bold",
													"fontsize" : 10.0,
													"format" : 6,
													"id" : "obj-27",
													"maxclass" : "flonum",
													"maximum" : 1.0,
													"minimum" : 0.0,
													"numinlets" : 1,
													"numoutlets" : 2,
													"outlettype" : [ "", "bang" ],
													"parameter_enable" : 0,
													"patching_rect" : [ 50.0, 371.955872, 50.0, 20.0 ],
													"style" : ""
												}

											}
, 											{
												"box" : 												{
													"comment" : "",
													"id" : "obj-73",
													"maxclass" : "inlet",
													"numinlets" : 0,
													"numoutlets" : 1,
													"outlettype" : [ "" ],
													"patching_rect" : [ 130.259201, 40.0, 25.0, 25.0 ],
													"style" : ""
												}

											}
, 											{
												"box" : 												{
													"comment" : "",
													"id" : "obj-77",
													"maxclass" : "inlet",
													"numinlets" : 0,
													"numoutlets" : 1,
													"outlettype" : [ "float" ],
													"patching_rect" : [ 79.0, 40.0, 25.0, 25.0 ],
													"style" : ""
												}

											}
, 											{
												"box" : 												{
													"comment" : "",
													"id" : "obj-84",
													"maxclass" : "inlet",
													"numinlets" : 0,
													"numoutlets" : 1,
													"outlettype" : [ "" ],
													"patching_rect" : [ 20.259155, 40.0, 25.0, 25.0 ],
													"style" : ""
												}

											}
, 											{
												"box" : 												{
													"comment" : "",
													"id" : "obj-87",
													"maxclass" : "outlet",
													"numinlets" : 1,
													"numoutlets" : 0,
													"patching_rect" : [ 50.0, 537.852234, 25.0, 25.0 ],
													"style" : ""
												}

											}
, 											{
												"box" : 												{
													"comment" : "",
													"id" : "obj-109",
													"maxclass" : "outlet",
													"numinlets" : 1,
													"numoutlets" : 0,
													"patching_rect" : [ 254.629578, 537.852234, 25.0, 25.0 ],
													"style" : ""
												}

											}
 ],
										"lines" : [ 											{
												"patchline" : 												{
													"destination" : [ "obj-116", 0 ],
													"disabled" : 0,
													"hidden" : 0,
													"source" : [ "obj-114", 0 ]
												}

											}
, 											{
												"patchline" : 												{
													"destination" : [ "obj-82", 0 ],
													"disabled" : 0,
													"hidden" : 0,
													"source" : [ "obj-114", 1 ]
												}

											}
, 											{
												"patchline" : 												{
													"destination" : [ "obj-83", 0 ],
													"disabled" : 0,
													"hidden" : 0,
													"source" : [ "obj-114", 2 ]
												}

											}
, 											{
												"patchline" : 												{
													"destination" : [ "obj-59", 0 ],
													"disabled" : 0,
													"hidden" : 0,
													"source" : [ "obj-116", 1 ]
												}

											}
, 											{
												"patchline" : 												{
													"destination" : [ "obj-60", 0 ],
													"disabled" : 0,
													"hidden" : 0,
													"source" : [ "obj-116", 2 ]
												}

											}
, 											{
												"patchline" : 												{
													"destination" : [ "obj-69", 0 ],
													"disabled" : 0,
													"hidden" : 0,
													"source" : [ "obj-116", 0 ]
												}

											}
, 											{
												"patchline" : 												{
													"destination" : [ "obj-87", 0 ],
													"disabled" : 0,
													"hidden" : 0,
													"source" : [ "obj-27", 0 ]
												}

											}
, 											{
												"patchline" : 												{
													"destination" : [ "obj-109", 0 ],
													"disabled" : 0,
													"hidden" : 0,
													"source" : [ "obj-43", 0 ]
												}

											}
, 											{
												"patchline" : 												{
													"destination" : [ "obj-109", 0 ],
													"disabled" : 0,
													"hidden" : 0,
													"source" : [ "obj-51", 0 ]
												}

											}
, 											{
												"patchline" : 												{
													"destination" : [ "obj-109", 0 ],
													"disabled" : 0,
													"hidden" : 0,
													"source" : [ "obj-59", 0 ]
												}

											}
, 											{
												"patchline" : 												{
													"destination" : [ "obj-109", 0 ],
													"disabled" : 0,
													"hidden" : 0,
													"source" : [ "obj-60", 0 ]
												}

											}
, 											{
												"patchline" : 												{
													"destination" : [ "obj-27", 0 ],
													"disabled" : 0,
													"hidden" : 0,
													"source" : [ "obj-68", 0 ]
												}

											}
, 											{
												"patchline" : 												{
													"destination" : [ "obj-43", 0 ],
													"disabled" : 0,
													"hidden" : 0,
													"source" : [ "obj-69", 1 ]
												}

											}
, 											{
												"patchline" : 												{
													"destination" : [ "obj-51", 0 ],
													"disabled" : 0,
													"hidden" : 0,
													"source" : [ "obj-69", 2 ]
												}

											}
, 											{
												"patchline" : 												{
													"destination" : [ "obj-114", 0 ],
													"disabled" : 0,
													"hidden" : 0,
													"source" : [ "obj-73", 0 ]
												}

											}
, 											{
												"patchline" : 												{
													"destination" : [ "obj-78", 0 ],
													"disabled" : 0,
													"hidden" : 0,
													"source" : [ "obj-73", 0 ]
												}

											}
, 											{
												"patchline" : 												{
													"destination" : [ "obj-68", 1 ],
													"disabled" : 0,
													"hidden" : 0,
													"source" : [ "obj-77", 0 ]
												}

											}
, 											{
												"patchline" : 												{
													"destination" : [ "obj-68", 0 ],
													"disabled" : 0,
													"hidden" : 0,
													"source" : [ "obj-78", 0 ]
												}

											}
, 											{
												"patchline" : 												{
													"destination" : [ "obj-27", 0 ],
													"disabled" : 0,
													"hidden" : 0,
													"source" : [ "obj-82", 0 ]
												}

											}
, 											{
												"patchline" : 												{
													"destination" : [ "obj-59", 0 ],
													"disabled" : 0,
													"hidden" : 0,
													"source" : [ "obj-82", 1 ]
												}

											}
, 											{
												"patchline" : 												{
													"destination" : [ "obj-69", 0 ],
													"disabled" : 0,
													"hidden" : 0,
													"source" : [ "obj-82", 2 ]
												}

											}
, 											{
												"patchline" : 												{
													"destination" : [ "obj-27", 0 ],
													"disabled" : 0,
													"hidden" : 0,
													"source" : [ "obj-83", 0 ]
												}

											}
, 											{
												"patchline" : 												{
													"destination" : [ "obj-60", 0 ],
													"disabled" : 0,
													"hidden" : 0,
													"source" : [ "obj-83", 1 ]
												}

											}
, 											{
												"patchline" : 												{
													"destination" : [ "obj-69", 0 ],
													"disabled" : 0,
													"hidden" : 0,
													"source" : [ "obj-83", 2 ]
												}

											}
, 											{
												"patchline" : 												{
													"destination" : [ "obj-69", 1 ],
													"disabled" : 0,
													"hidden" : 0,
													"source" : [ "obj-84", 0 ]
												}

											}
 ],
										"bgfillcolor_type" : "gradient",
										"bgfillcolor_color1" : [ 0.435294, 0.462745, 0.498039, 1.0 ],
										"bgfillcolor_color2" : [ 0.290196, 0.309804, 0.301961, 1.0 ],
										"bgfillcolor_color" : [ 0.290196, 0.309804, 0.301961, 1.0 ],
										"bgfillcolor_angle" : 270.0,
										"bgfillcolor_proportion" : 0.39
									}
,
									"patching_rect" : [ 833.007568, 228.71167, 143.796143, 20.0 ],
									"saved_object_attributes" : 									{
										"description" : "",
										"digest" : "",
										"globalpatchername" : "",
										"style" : "",
										"tags" : ""
									}
,
									"style" : "",
									"text" : "p harmonic_management"
								}

							}
, 							{
								"box" : 								{
									"fontname" : "Arial Bold",
									"fontsize" : 10.0,
									"id" : "obj-61",
									"maxclass" : "newobj",
									"numinlets" : 3,
									"numoutlets" : 3,
									"outlettype" : [ "", "", "" ],
									"patching_rect" : [ 982.137207, 314.354431, 156.0, 20.0 ],
									"style" : "",
									"text" : "route harmonic_A harmonic_B"
								}

							}
, 							{
								"box" : 								{
									"fontname" : "Arial Bold",
									"fontsize" : 10.0,
									"id" : "obj-8",
									"maxclass" : "newobj",
									"numinlets" : 2,
									"numoutlets" : 4,
									"outlettype" : [ "dictionary", "", "", "" ],
									"patching_rect" : [ 957.803711, 280.518799, 92.0, 20.0 ],
									"saved_attribute_attributes" : 									{
										"valueof" : 										{
											"parameter_initial" : [ 												{
													"harmonic_A" : [ 0.0, 0.506024, 0.0, 0.0, 0.0, 0.0, 0.0, 0.0, 0.0, 0.0, 0.0, 0.0, 0.421687, 0.0, 0.0, 0.0, 0.0, 0.0, 0.0, 0.0, 0.0, 0.590361, 0.590361, 0.0, 0.0, 0.0, 0.0, 0.0, 0.698795, 0.0, 0.0, 0.0 ],
													"harmonic_B" : [ 1.0, 1.0, 0.361446, 1.0, 1.0, 1.0, 0.289157, 0.120482, 0.0, 0.0, 0.0, 0.0, 0.0, 0.0, 0.0, 0.0, 0.0, 0.0, 0.0, 0.0, 0.0, 0.180723, 0.198795, 0.216867, 0.216867, 0.216867, 0.212851, 0.208835, 0.204819, 0.192771, 0.180723, 0.036145 ]
												}
 ],
											"parameter_initial_enable" : 1,
											"parameter_invisible" : 1,
											"parameter_longname" : "dict",
											"parameter_order" : -1,
											"parameter_shortname" : "dict",
											"parameter_type" : 3
										}

									}
,
									"saved_object_attributes" : 									{
										"annotation_name" : "",
										"embed" : 0,
										"parameter_enable" : 1
									}
,
									"style" : "",
									"text" : "dict ---harmonics",
									"varname" : "dict"
								}

							}
, 							{
								"box" : 								{
									"activebgcolor" : [ 0.6, 0.6, 0.6, 0.0 ],
									"activebgoncolor" : [ 0.278431, 0.839216, 1.0, 1.0 ],
									"hint" : "Must be set to modulate to follow pitch. ",
									"id" : "obj-80",
									"maxclass" : "live.tab",
									"mode" : 1,
									"num_lines_patching" : 1,
									"num_lines_presentation" : 3,
									"numinlets" : 1,
									"numoutlets" : 3,
									"outlettype" : [ "", "", "float" ],
									"parameter_enable" : 1,
									"patching_rect" : [ 984.0, 179.211655, 152.0, 17.663452 ],
									"presentation" : 1,
									"presentation_rect" : [ 240.268768, 42.221527, 63.281036, 49.159897 ],
									"saved_attribute_attributes" : 									{
										"valueof" : 										{
											"parameter_longname" : "EditMode",
											"parameter_shortname" : "EditMode",
											"parameter_type" : 2,
											"parameter_enum" : [ "Modulate", "Wave A", "Wave B" ],
											"parameter_initial_enable" : 1,
											"parameter_initial" : [ 1 ],
											"parameter_unitstyle" : 0
										}

									}
,
									"textcolor" : [ 1.0, 1.0, 1.0, 0.501961 ],
									"varname" : "EditMode"
								}

							}
, 							{
								"box" : 								{
									"annotation" : "Amplitudes of the first 32 harmonics of the harmonic series. Displays current spectra when Modulate is lit. Draw new spectra with Wave A and Wave B options.",
									"bgcolor" : [ 0.74902, 0.74902, 0.74902, 0.0 ],
									"contdata" : 1,
									"ghostbar" : 30,
									"id" : "obj-13",
									"maxclass" : "multislider",
									"numinlets" : 1,
									"numoutlets" : 2,
									"outlettype" : [ "", "" ],
									"parameter_enable" : 0,
									"patching_rect" : [ 833.007568, 470.063843, 127.259033, 59.0 ],
									"presentation" : 1,
									"presentation_rect" : [ 96.702057, 42.221527, 138.281021, 49.159897 ],
									"setminmax" : [ 0.0, 1.0 ],
									"size" : 32,
									"slidercolor" : [ 0.278431, 0.839216, 1.0, 1.0 ],
									"style" : "",
									"thickness" : 1,
									"varname" : "Spectra"
								}

							}
, 							{
								"box" : 								{
									"fontname" : "Arial Bold",
									"fontsize" : 10.0,
									"id" : "obj-19",
									"maxclass" : "newobj",
									"numinlets" : 2,
									"numoutlets" : 1,
									"outlettype" : [ "float" ],
									"patching_rect" : [ 355.599976, 741.756775, 68.0, 20.0 ],
									"style" : "",
									"text" : "f"
								}

							}
, 							{
								"box" : 								{
									"fontname" : "Arial Bold",
									"fontsize" : 10.0,
									"id" : "obj-64",
									"maxclass" : "newobj",
									"numinlets" : 1,
									"numoutlets" : 1,
									"outlettype" : [ "" ],
									"patching_rect" : [ 355.599976, 772.756775, 34.0, 20.0 ],
									"style" : "",
									"text" : "mtof"
								}

							}
, 							{
								"box" : 								{
									"fontname" : "Arial Bold",
									"fontsize" : 10.0,
									"id" : "obj-65",
									"maxclass" : "newobj",
									"numinlets" : 1,
									"numoutlets" : 3,
									"outlettype" : [ "bang", "bang", "" ],
									"patching_rect" : [ 554.599976, 669.756836, 100.0, 20.0 ],
									"style" : "",
									"text" : "t b b l"
								}

							}
, 							{
								"box" : 								{
									"fontname" : "Arial Bold",
									"fontsize" : 10.0,
									"id" : "obj-66",
									"maxclass" : "newobj",
									"numinlets" : 2,
									"numoutlets" : 1,
									"outlettype" : [ "" ],
									"patching_rect" : [ 355.599976, 811.756653, 164.0, 20.0 ],
									"style" : "",
									"text" : "vexpr $f1 * $f2 @scalarmode 1"
								}

							}
, 							{
								"box" : 								{
									"fontname" : "Arial Bold",
									"fontsize" : 10.0,
									"id" : "obj-67",
									"maxclass" : "newobj",
									"numinlets" : 1,
									"numoutlets" : 1,
									"outlettype" : [ "" ],
									"patching_rect" : [ 355.599976, 862.756653, 68.0, 20.0 ],
									"style" : "",
									"text" : "prepend set"
								}

							}
, 							{
								"box" : 								{
									"fontname" : "Arial Bold",
									"fontsize" : 10.0,
									"id" : "obj-68",
									"maxclass" : "newobj",
									"numinlets" : 2,
									"numoutlets" : 2,
									"outlettype" : [ "", "" ],
									"patching_rect" : [ 355.599976, 835.756653, 299.0, 20.0 ],
									"style" : "",
									"text" : "zl lace"
								}

							}
, 							{
								"box" : 								{
									"fontname" : "Arial Bold",
									"fontsize" : 10.0,
									"id" : "obj-69",
									"linecount" : 4,
									"maxclass" : "message",
									"numinlets" : 2,
									"numoutlets" : 1,
									"outlettype" : [ "" ],
									"patching_rect" : [ 500.599976, 741.756775, 115.0, 53.0 ],
									"style" : "",
									"text" : "1 2 3 4 5 6 7 8 9 10 11 12 13 14 15 16 17 18 19 20 21 22 23 24 25 26 27 28 29 30 31 32"
								}

							}
, 							{
								"box" : 								{
									"fontname" : "Arial Bold",
									"fontsize" : 10.0,
									"id" : "obj-70",
									"maxclass" : "newobj",
									"numinlets" : 4,
									"numoutlets" : 1,
									"outlettype" : [ "signal" ],
									"patching_rect" : [ 355.599976, 908.211731, 110.0, 20.0 ],
									"style" : "",
									"text" : "oscbank~ 32 128 128"
								}

							}
, 							{
								"box" : 								{
									"fontname" : "Arial Bold",
									"fontsize" : 10.0,
									"id" : "obj-73",
									"maxclass" : "newobj",
									"numinlets" : 3,
									"numoutlets" : 1,
									"outlettype" : [ "" ],
									"patching_rect" : [ 833.007568, 352.345032, 317.259064, 20.0 ],
									"style" : "",
									"text" : "vexpr $f1*($f3-$f2)+$f2 @scalarmode 1"
								}

							}
, 							{
								"box" : 								{
									"fontname" : "Arial",
									"fontsize" : 12.0,
									"id" : "obj-2",
									"maxclass" : "newobj",
									"numinlets" : 2,
									"numoutlets" : 1,
									"outlettype" : [ "int" ],
									"patching_rect" : [ 250.629883, 919.533508, 32.5, 22.0 ],
									"style" : "",
									"text" : "!= 1"
								}

							}
, 							{
								"box" : 								{
									"fontname" : "Arial",
									"fontsize" : 12.0,
									"id" : "obj-1",
									"maxclass" : "newobj",
									"numinlets" : 2,
									"numoutlets" : 1,
									"outlettype" : [ "signal" ],
									"patching_rect" : [ 250.629883, 961.493469, 123.970093, 22.0 ],
									"style" : "",
									"text" : "gate~ 1 1"
								}

							}
, 							{
								"box" : 								{
									"activebgcolor" : [ 0.572549, 0.615686, 0.658824, 0.0 ],
									"activebgoncolor" : [ 0.278431, 0.839216, 1.0, 1.0 ],
									"activetextcolor" : [ 1.0, 1.0, 1.0, 0.57 ],
									"activetextoncolor" : [ 0.0, 0.019608, 0.078431, 1.0 ],
									"bgcolor" : [ 0.101961, 0.101961, 0.101961, 0.78 ],
									"bordercolor" : [ 0.0, 0.019608, 0.078431, 0.37 ],
									"id" : "obj-53",
									"maxclass" : "live.text",
									"numinlets" : 1,
									"numoutlets" : 2,
									"outlettype" : [ "", "" ],
									"parameter_enable" : 1,
									"patching_rect" : [ 250.629883, 874.113464, 40.0, 20.0 ],
									"presentation" : 1,
									"presentation_rect" : [ 240.268768, 19.0, 61.257065, 14.764645 ],
									"saved_attribute_attributes" : 									{
										"valueof" : 										{
											"parameter_longname" : "Mute",
											"parameter_shortname" : "Mute",
											"parameter_type" : 2,
											"parameter_mmax" : 1.0,
											"parameter_enum" : [ "val1", "val2" ],
											"parameter_initial_enable" : 1,
											"parameter_initial" : [ 0.0 ],
											"parameter_defer" : 1
										}

									}
,
									"text" : "mute",
									"textcolor" : [ 1.0, 1.0, 1.0, 1.0 ],
									"texton" : "mute",
									"varname" : "Mute"
								}

							}
, 							{
								"box" : 								{
									"activedialcolor" : [ 0.278431, 0.839216, 1.0, 1.0 ],
									"activeneedlecolor" : [ 1.0, 1.0, 1.0, 0.7 ],
									"id" : "obj-33",
									"maxclass" : "live.dial",
									"numinlets" : 1,
									"numoutlets" : 2,
									"outlettype" : [ "", "float" ],
									"parameter_enable" : 1,
									"patching_rect" : [ 575.849976, 74.211639, 44.0, 47.0 ],
									"presentation" : 1,
									"presentation_rect" : [ 3.033405, 42.221527, 44.0, 47.0 ],
									"saved_attribute_attributes" : 									{
										"valueof" : 										{
											"parameter_longname" : "Offset",
											"parameter_shortname" : "Offset",
											"parameter_type" : 0,
											"parameter_mmin" : -64.0,
											"parameter_mmax" : 64.0,
											"parameter_initial_enable" : 1,
											"parameter_initial" : [ 0.0 ],
											"parameter_unitstyle" : 1
										}

									}
,
									"textcolor" : [ 1.0, 1.0, 1.0, 0.7 ],
									"varname" : "Offset"
								}

							}
, 							{
								"box" : 								{
									"activedialcolor" : [ 0.278431, 0.839216, 1.0, 1.0 ],
									"activeneedlecolor" : [ 1.0, 1.0, 1.0, 0.7 ],
									"id" : "obj-23",
									"maxclass" : "live.dial",
									"numinlets" : 1,
									"numoutlets" : 2,
									"outlettype" : [ "", "float" ],
									"parameter_enable" : 1,
									"patching_rect" : [ 717.599976, 143.211639, 44.0, 47.0 ],
									"presentation" : 1,
									"presentation_rect" : [ 47.033401, 42.221527, 44.0, 47.0 ],
									"saved_attribute_attributes" : 									{
										"valueof" : 										{
											"parameter_longname" : "CV",
											"parameter_shortname" : "CV",
											"parameter_type" : 0,
											"parameter_mmax" : 100.0,
											"parameter_unitstyle" : 5
										}

									}
,
									"textcolor" : [ 1.0, 1.0, 1.0, 0.7 ],
									"varname" : "CV"
								}

							}
, 							{
								"box" : 								{
									"fontname" : "Arial Bold",
									"fontsize" : 9.0,
									"id" : "obj-55",
									"maxclass" : "comment",
									"numinlets" : 1,
									"numoutlets" : 0,
									"patching_rect" : [ 611.349976, 250.711655, 23.0, 17.0 ],
									"presentation" : 1,
									"presentation_rect" : [ 71.0, 0.0, 23.0, 17.0 ],
									"style" : "",
									"text" : "CV",
									"textcolor" : [ 1.0, 1.0, 1.0, 1.0 ]
								}

							}
, 							{
								"box" : 								{
									"fontname" : "Arial Bold",
									"fontsize" : 9.0,
									"id" : "obj-3",
									"maxclass" : "comment",
									"numinlets" : 1,
									"numoutlets" : 0,
									"patching_rect" : [ 440.099976, 22.711639, 37.0, 17.0 ],
									"presentation" : 1,
									"presentation_rect" : [ 2.0, 0.0, 37.0, 17.0 ],
									"style" : "",
									"text" : "1v/oct",
									"textcolor" : [ 1.0, 1.0, 1.0, 1.0 ]
								}

							}
, 							{
								"box" : 								{
									"fontname" : "Arial Bold",
									"fontsize" : 9.0,
									"id" : "obj-24",
									"maxclass" : "comment",
									"numinlets" : 1,
									"numoutlets" : 0,
									"patching_rect" : [ 301.634399, 1056.213379, 38.0, 17.0 ],
									"presentation" : 1,
									"presentation_rect" : [ 2.0, 97.0, 38.0, 17.0 ],
									"style" : "",
									"text" : "Output",
									"textcolor" : [ 1.0, 1.0, 1.0, 1.0 ]
								}

							}
, 							{
								"box" : 								{
									"fontname" : "Arial Bold",
									"fontsize" : 9.0,
									"id" : "obj-57",
									"maxclass" : "comment",
									"numinlets" : 1,
									"numoutlets" : 0,
									"patching_rect" : [ 22.0, 39.987255, 54.0, 17.0 ],
									"presentation" : 1,
									"presentation_rect" : [ 2.0, 19.0, 54.0, 17.0 ],
									"style" : "",
									"text" : "SPECTRA",
									"textcolor" : [ 1.0, 1.0, 1.0, 1.0 ]
								}

							}
, 							{
								"box" : 								{
									"fontname" : "Arial",
									"fontsize" : 12.0,
									"id" : "obj-26",
									"maxclass" : "newobj",
									"numinlets" : 1,
									"numoutlets" : 4,
									"outlettype" : [ "", "", "", "" ],
									"patching_rect" : [ 22.0, 102.770004, 59.5, 22.0 ],
									"restore" : 									{
										"CV" : [ 0.0 ],
										"EditMode" : [ 1.0 ],
										"Mute" : [ 0.0 ],
										"Offset" : [ 0.0 ],
										"Spectra" : [ 0.0, 0.506024, 0.0, 0.0, 0.0, 0.0, 0.0, 0.0, 0.0, 0.0, 0.0, 0.0, 0.421687, 0.0, 0.0, 0.0, 0.0, 0.0, 0.0, 0.0, 0.0, 0.590361, 0.590361, 0.0, 0.0, 0.0, 0.0, 0.0, 0.698795, 0.0, 0.0, 0.0 ],
										"dict" : [ 											{
												"harmonic_A" : [ 0.0, 0.506024, 0.0, 0.0, 0.0, 0.0, 0.0, 0.0, 0.0, 0.0, 0.0, 0.0, 0.421687, 0.0, 0.0, 0.0, 0.0, 0.0, 0.0, 0.0, 0.0, 0.590361, 0.590361, 0.0, 0.0, 0.0, 0.0, 0.0, 0.698795, 0.0, 0.0, 0.0 ],
												"harmonic_B" : [ 1.0, 1.0, 0.361446, 1.0, 1.0, 1.0, 0.289157, 0.120482, 0.0, 0.0, 0.0, 0.0, 0.0, 0.0, 0.0, 0.0, 0.0, 0.0, 0.0, 0.0, 0.0, 0.180723, 0.198795, 0.216867, 0.216867, 0.216867, 0.212851, 0.208835, 0.204819, 0.192771, 0.180723, 0.036145 ]
											}
 ]
									}
,
									"style" : "",
									"text" : "autopattr",
									"varname" : "u893001744"
								}

							}
, 							{
								"box" : 								{
									"fontname" : "Arial",
									"fontsize" : 12.0,
									"id" : "obj-59",
									"maxclass" : "newobj",
									"numinlets" : 2,
									"numoutlets" : 1,
									"outlettype" : [ "float" ],
									"patching_rect" : [ 717.599976, 211.211655, 42.0, 22.0 ],
									"style" : "",
									"text" : "* 0.01"
								}

							}
, 							{
								"box" : 								{
									"fontname" : "Arial",
									"fontsize" : 12.0,
									"id" : "obj-38",
									"maxclass" : "newobj",
									"numinlets" : 2,
									"numoutlets" : 1,
									"outlettype" : [ "signal" ],
									"patching_rect" : [ 250.629883, 1007.213379, 36.0, 22.0 ],
									"style" : "",
									"text" : "*~ 5."
								}

							}
, 							{
								"box" : 								{
									"fontname" : "Arial",
									"fontsize" : 12.0,
									"id" : "obj-54",
									"maxclass" : "newobj",
									"numinlets" : 2,
									"numoutlets" : 1,
									"outlettype" : [ "signal" ],
									"patching_rect" : [ 575.849976, 285.21167, 32.5, 22.0 ],
									"style" : "",
									"text" : "*~ 5"
								}

							}
, 							{
								"box" : 								{
									"comment" : "CV",
									"id" : "obj-56",
									"maxclass" : "inlet",
									"numinlets" : 0,
									"numoutlets" : 1,
									"outlettype" : [ "" ],
									"patching_rect" : [ 575.849976, 250.711655, 25.0, 25.0 ],
									"style" : ""
								}

							}
, 							{
								"box" : 								{
									"fontname" : "Arial",
									"fontsize" : 12.0,
									"id" : "obj-51",
									"maxclass" : "newobj",
									"numinlets" : 2,
									"numoutlets" : 1,
									"outlettype" : [ "signal" ],
									"patching_rect" : [ 404.599976, 378.21167, 190.25, 22.0 ],
									"style" : "",
									"text" : "+~"
								}

							}
, 							{
								"box" : 								{
									"comment" : "sync",
									"id" : "obj-42",
									"maxclass" : "inlet",
									"numinlets" : 0,
									"numoutlets" : 1,
									"outlettype" : [ "" ],
									"patching_rect" : [ 895.40564, 31.711639, 25.0, 25.0 ],
									"style" : ""
								}

							}
, 							{
								"box" : 								{
									"fontname" : "Arial",
									"fontsize" : 12.0,
									"id" : "obj-41",
									"maxclass" : "newobj",
									"numinlets" : 6,
									"numoutlets" : 1,
									"outlettype" : [ "signal" ],
									"patching_rect" : [ 895.40564, 81.211639, 103.0, 22.0 ],
									"style" : "",
									"text" : "scale~ -5. 5. 0. 1."
								}

							}
, 							{
								"box" : 								{
									"fontname" : "Arial",
									"fontsize" : 12.0,
									"id" : "obj-32",
									"maxclass" : "newobj",
									"numinlets" : 2,
									"numoutlets" : 1,
									"outlettype" : [ "signal" ],
									"patching_rect" : [ 404.599976, 145.211639, 190.25, 22.0 ],
									"style" : "",
									"text" : "+~"
								}

							}
, 							{
								"box" : 								{
									"fontname" : "Arial",
									"fontsize" : 12.0,
									"id" : "obj-31",
									"maxclass" : "newobj",
									"numinlets" : 6,
									"numoutlets" : 1,
									"outlettype" : [ "signal" ],
									"patching_rect" : [ 404.599976, 87.711639, 116.0, 22.0 ],
									"style" : "",
									"text" : "scale~ -5. 5. 0. 120."
								}

							}
, 							{
								"box" : 								{
									"fontname" : "Arial",
									"fontsize" : 12.0,
									"id" : "obj-44",
									"maxclass" : "newobj",
									"numinlets" : 2,
									"numoutlets" : 1,
									"outlettype" : [ "signal" ],
									"patching_rect" : [ 575.849976, 328.21167, 160.75, 22.0 ],
									"style" : "",
									"text" : "*~"
								}

							}
, 							{
								"box" : 								{
									"comment" : "CV",
									"id" : "obj-45",
									"maxclass" : "inlet",
									"numinlets" : 0,
									"numoutlets" : 1,
									"outlettype" : [ "" ],
									"patching_rect" : [ 404.599976, 22.711639, 25.0, 25.0 ],
									"style" : ""
								}

							}
, 							{
								"box" : 								{
									"fontname" : "Arial",
									"fontsize" : 13.0,
									"id" : "obj-46",
									"maxclass" : "message",
									"numinlets" : 2,
									"numoutlets" : 1,
									"outlettype" : [ "" ],
									"patching_rect" : [ 717.599976, 252.211655, 43.0, 23.0 ],
									"style" : "",
									"text" : "$1 20"
								}

							}
, 							{
								"box" : 								{
									"fontname" : "Arial",
									"fontsize" : 13.0,
									"id" : "obj-49",
									"maxclass" : "newobj",
									"numinlets" : 3,
									"numoutlets" : 2,
									"outlettype" : [ "", "" ],
									"patching_rect" : [ 717.599976, 292.71167, 46.0, 23.0 ],
									"style" : "",
									"text" : "line 0."
								}

							}
, 							{
								"box" : 								{
									"comment" : "",
									"id" : "obj-50",
									"maxclass" : "outlet",
									"numinlets" : 1,
									"numoutlets" : 0,
									"patching_rect" : [ 250.629883, 1049.213379, 25.0, 25.0 ],
									"style" : ""
								}

							}
, 							{
								"box" : 								{
									"angle" : 0.0,
									"background" : 1,
									"bgcolor" : [ 0.137255, 0.145098, 0.160784, 0.65 ],
									"id" : "obj-130",
									"maxclass" : "panel",
									"mode" : 0,
									"numinlets" : 1,
									"numoutlets" : 0,
									"patching_rect" : [ 22.0, 22.711639, 37.0, 5.0 ],
									"presentation" : 1,
									"presentation_rect" : [ 0.0, 37.0, 425.0, 60.338158 ],
									"proportion" : 0.39,
									"rounded" : 0,
									"style" : ""
								}

							}
, 							{
								"box" : 								{
									"angle" : 0.0,
									"background" : 1,
									"bgcolor" : [ 0.367404, 0.389405, 0.430238, 1.0 ],
									"id" : "obj-131",
									"maxclass" : "panel",
									"mode" : 0,
									"numinlets" : 1,
									"numoutlets" : 0,
									"patching_rect" : [ 66.337189, 22.711639, 37.0, 5.0 ],
									"presentation" : 1,
									"presentation_rect" : [ 0.0, 17.0, 425.0, 80.338158 ],
									"proportion" : 0.39,
									"rounded" : 0,
									"style" : ""
								}

							}
, 							{
								"box" : 								{
									"angle" : 0.0,
									"background" : 1,
									"bgcolor" : [ 0.0, 0.0, 0.0, 1.0 ],
									"id" : "obj-135",
									"maxclass" : "panel",
									"mode" : 0,
									"numinlets" : 1,
									"numoutlets" : 0,
									"patching_rect" : [ 109.079285, 22.711639, 37.0, 5.0 ],
									"presentation" : 1,
									"presentation_rect" : [ 0.0, 0.0, 425.0, 133.0 ],
									"proportion" : 0.39,
									"rounded" : 0,
									"style" : ""
								}

							}
 ],
						"lines" : [ 							{
								"patchline" : 								{
									"destination" : [ "obj-38", 0 ],
									"disabled" : 0,
									"hidden" : 0,
									"source" : [ "obj-1", 0 ]
								}

							}
, 							{
								"patchline" : 								{
									"destination" : [ "obj-12", 0 ],
									"disabled" : 0,
									"hidden" : 0,
									"source" : [ "obj-11", 0 ]
								}

							}
, 							{
								"patchline" : 								{
									"destination" : [ "obj-16", 0 ],
									"disabled" : 0,
									"hidden" : 0,
									"source" : [ "obj-11", 1 ]
								}

							}
, 							{
								"patchline" : 								{
									"destination" : [ "obj-73", 0 ],
									"disabled" : 0,
									"hidden" : 0,
									"source" : [ "obj-112", 0 ]
								}

							}
, 							{
								"patchline" : 								{
									"destination" : [ "obj-8", 0 ],
									"disabled" : 0,
									"hidden" : 0,
									"source" : [ "obj-112", 1 ]
								}

							}
, 							{
								"patchline" : 								{
									"destination" : [ "obj-17", 0 ],
									"disabled" : 0,
									"hidden" : 0,
									"source" : [ "obj-12", 0 ]
								}

							}
, 							{
								"patchline" : 								{
									"destination" : [ "obj-112", 0 ],
									"disabled" : 0,
									"hidden" : 0,
									"midpoints" : [ 842.507568, 546.354431, 801.999939, 546.354431, 801.999939, 211.354431, 842.507568, 211.354431 ],
									"source" : [ "obj-13", 0 ]
								}

							}
, 							{
								"patchline" : 								{
									"destination" : [ "obj-5", 1 ],
									"disabled" : 0,
									"hidden" : 0,
									"source" : [ "obj-13", 0 ]
								}

							}
, 							{
								"patchline" : 								{
									"destination" : [ "obj-65", 0 ],
									"disabled" : 0,
									"hidden" : 0,
									"midpoints" : [ 842.507568, 598.910339, 564.099976, 598.910339 ],
									"source" : [ "obj-13", 0 ]
								}

							}
, 							{
								"patchline" : 								{
									"destination" : [ "obj-9", 0 ],
									"disabled" : 0,
									"hidden" : 0,
									"source" : [ "obj-16", 0 ]
								}

							}
, 							{
								"patchline" : 								{
									"destination" : [ "obj-96", 0 ],
									"disabled" : 0,
									"hidden" : 0,
									"source" : [ "obj-17", 0 ]
								}

							}
, 							{
								"patchline" : 								{
									"destination" : [ "obj-64", 0 ],
									"disabled" : 0,
									"hidden" : 0,
									"source" : [ "obj-19", 0 ]
								}

							}
, 							{
								"patchline" : 								{
									"destination" : [ "obj-1", 0 ],
									"disabled" : 0,
									"hidden" : 0,
									"source" : [ "obj-2", 0 ]
								}

							}
, 							{
								"patchline" : 								{
									"destination" : [ "obj-59", 0 ],
									"disabled" : 0,
									"hidden" : 0,
									"source" : [ "obj-23", 0 ]
								}

							}
, 							{
								"patchline" : 								{
									"destination" : [ "obj-5", 0 ],
									"disabled" : 0,
									"hidden" : 0,
									"source" : [ "obj-27", 0 ]
								}

							}
, 							{
								"patchline" : 								{
									"destination" : [ "obj-47", 0 ],
									"disabled" : 0,
									"hidden" : 0,
									"source" : [ "obj-28", 1 ]
								}

							}
, 							{
								"patchline" : 								{
									"destination" : [ "obj-60", 0 ],
									"disabled" : 0,
									"hidden" : 0,
									"source" : [ "obj-28", 0 ]
								}

							}
, 							{
								"patchline" : 								{
									"destination" : [ "obj-32", 0 ],
									"disabled" : 0,
									"hidden" : 0,
									"source" : [ "obj-31", 0 ]
								}

							}
, 							{
								"patchline" : 								{
									"destination" : [ "obj-51", 0 ],
									"disabled" : 0,
									"hidden" : 0,
									"source" : [ "obj-32", 0 ]
								}

							}
, 							{
								"patchline" : 								{
									"destination" : [ "obj-32", 1 ],
									"disabled" : 0,
									"hidden" : 0,
									"source" : [ "obj-33", 0 ]
								}

							}
, 							{
								"patchline" : 								{
									"destination" : [ "obj-28", 0 ],
									"disabled" : 0,
									"hidden" : 0,
									"source" : [ "obj-34", 0 ]
								}

							}
, 							{
								"patchline" : 								{
									"destination" : [ "obj-97", 0 ],
									"disabled" : 0,
									"hidden" : 0,
									"source" : [ "obj-36", 0 ]
								}

							}
, 							{
								"patchline" : 								{
									"destination" : [ "obj-40", 2 ],
									"disabled" : 0,
									"hidden" : 0,
									"source" : [ "obj-37", 1 ]
								}

							}
, 							{
								"patchline" : 								{
									"destination" : [ "obj-40", 1 ],
									"disabled" : 0,
									"hidden" : 0,
									"source" : [ "obj-37", 0 ]
								}

							}
, 							{
								"patchline" : 								{
									"destination" : [ "obj-50", 0 ],
									"disabled" : 0,
									"hidden" : 0,
									"source" : [ "obj-38", 0 ]
								}

							}
, 							{
								"patchline" : 								{
									"destination" : [ "obj-40", 0 ],
									"disabled" : 0,
									"hidden" : 0,
									"source" : [ "obj-39", 0 ]
								}

							}
, 							{
								"patchline" : 								{
									"destination" : [ "obj-43", 0 ],
									"disabled" : 0,
									"hidden" : 0,
									"source" : [ "obj-39", 1 ]
								}

							}
, 							{
								"patchline" : 								{
									"destination" : [ "obj-36", 0 ],
									"disabled" : 0,
									"hidden" : 0,
									"source" : [ "obj-40", 0 ]
								}

							}
, 							{
								"patchline" : 								{
									"destination" : [ "obj-74", 0 ],
									"disabled" : 0,
									"hidden" : 0,
									"source" : [ "obj-41", 0 ]
								}

							}
, 							{
								"patchline" : 								{
									"destination" : [ "obj-41", 0 ],
									"disabled" : 0,
									"hidden" : 0,
									"source" : [ "obj-42", 0 ]
								}

							}
, 							{
								"patchline" : 								{
									"destination" : [ "obj-37", 0 ],
									"disabled" : 0,
									"hidden" : 0,
									"source" : [ "obj-43", 0 ]
								}

							}
, 							{
								"patchline" : 								{
									"destination" : [ "obj-51", 1 ],
									"disabled" : 0,
									"hidden" : 0,
									"source" : [ "obj-44", 0 ]
								}

							}
, 							{
								"patchline" : 								{
									"destination" : [ "obj-31", 0 ],
									"disabled" : 0,
									"hidden" : 0,
									"source" : [ "obj-45", 0 ]
								}

							}
, 							{
								"patchline" : 								{
									"destination" : [ "obj-49", 0 ],
									"disabled" : 0,
									"hidden" : 0,
									"source" : [ "obj-46", 0 ]
								}

							}
, 							{
								"patchline" : 								{
									"destination" : [ "obj-39", 0 ],
									"disabled" : 0,
									"hidden" : 0,
									"source" : [ "obj-47", 0 ]
								}

							}
, 							{
								"patchline" : 								{
									"destination" : [ "obj-44", 1 ],
									"disabled" : 0,
									"hidden" : 0,
									"source" : [ "obj-49", 0 ]
								}

							}
, 							{
								"patchline" : 								{
									"destination" : [ "obj-34", 0 ],
									"disabled" : 0,
									"hidden" : 0,
									"source" : [ "obj-5", 0 ]
								}

							}
, 							{
								"patchline" : 								{
									"destination" : [ "obj-76", 0 ],
									"disabled" : 0,
									"hidden" : 0,
									"source" : [ "obj-51", 0 ]
								}

							}
, 							{
								"patchline" : 								{
									"destination" : [ "obj-2", 0 ],
									"disabled" : 0,
									"hidden" : 0,
									"source" : [ "obj-53", 0 ]
								}

							}
, 							{
								"patchline" : 								{
									"destination" : [ "obj-44", 0 ],
									"disabled" : 0,
									"hidden" : 0,
									"source" : [ "obj-54", 0 ]
								}

							}
, 							{
								"patchline" : 								{
									"destination" : [ "obj-54", 0 ],
									"disabled" : 0,
									"hidden" : 0,
									"source" : [ "obj-56", 0 ]
								}

							}
, 							{
								"patchline" : 								{
									"destination" : [ "obj-46", 0 ],
									"disabled" : 0,
									"hidden" : 0,
									"source" : [ "obj-59", 0 ]
								}

							}
, 							{
								"patchline" : 								{
									"destination" : [ "obj-13", 0 ],
									"disabled" : 0,
									"hidden" : 0,
									"midpoints" : [ 884.303711, 447.752747, 842.507568, 447.752747 ],
									"source" : [ "obj-6", 0 ]
								}

							}
, 							{
								"patchline" : 								{
									"destination" : [ "obj-11", 0 ],
									"disabled" : 0,
									"hidden" : 0,
									"source" : [ "obj-60", 0 ]
								}

							}
, 							{
								"patchline" : 								{
									"destination" : [ "obj-73", 2 ],
									"disabled" : 0,
									"hidden" : 0,
									"midpoints" : [ 1060.137207, 342.849731, 1140.766632, 342.849731 ],
									"source" : [ "obj-61", 1 ]
								}

							}
, 							{
								"patchline" : 								{
									"destination" : [ "obj-73", 1 ],
									"disabled" : 0,
									"hidden" : 0,
									"source" : [ "obj-61", 0 ]
								}

							}
, 							{
								"patchline" : 								{
									"destination" : [ "obj-72", 0 ],
									"disabled" : 0,
									"hidden" : 0,
									"source" : [ "obj-62", 0 ]
								}

							}
, 							{
								"patchline" : 								{
									"destination" : [ "obj-66", 0 ],
									"disabled" : 0,
									"hidden" : 0,
									"source" : [ "obj-64", 0 ]
								}

							}
, 							{
								"patchline" : 								{
									"destination" : [ "obj-19", 0 ],
									"disabled" : 0,
									"hidden" : 0,
									"source" : [ "obj-65", 0 ]
								}

							}
, 							{
								"patchline" : 								{
									"destination" : [ "obj-68", 1 ],
									"disabled" : 0,
									"hidden" : 0,
									"source" : [ "obj-65", 2 ]
								}

							}
, 							{
								"patchline" : 								{
									"destination" : [ "obj-69", 0 ],
									"disabled" : 0,
									"hidden" : 0,
									"source" : [ "obj-65", 1 ]
								}

							}
, 							{
								"patchline" : 								{
									"destination" : [ "obj-68", 0 ],
									"disabled" : 0,
									"hidden" : 0,
									"source" : [ "obj-66", 0 ]
								}

							}
, 							{
								"patchline" : 								{
									"destination" : [ "obj-70", 0 ],
									"disabled" : 0,
									"hidden" : 0,
									"source" : [ "obj-67", 0 ]
								}

							}
, 							{
								"patchline" : 								{
									"destination" : [ "obj-67", 0 ],
									"disabled" : 0,
									"hidden" : 0,
									"source" : [ "obj-68", 0 ]
								}

							}
, 							{
								"patchline" : 								{
									"destination" : [ "obj-66", 1 ],
									"disabled" : 0,
									"hidden" : 0,
									"source" : [ "obj-69", 0 ]
								}

							}
, 							{
								"patchline" : 								{
									"destination" : [ "obj-1", 1 ],
									"disabled" : 0,
									"hidden" : 0,
									"source" : [ "obj-70", 0 ]
								}

							}
, 							{
								"patchline" : 								{
									"destination" : [ "obj-77", 0 ],
									"disabled" : 0,
									"hidden" : 0,
									"source" : [ "obj-72", 0 ]
								}

							}
, 							{
								"patchline" : 								{
									"destination" : [ "obj-13", 0 ],
									"disabled" : 0,
									"hidden" : 0,
									"source" : [ "obj-73", 0 ]
								}

							}
, 							{
								"patchline" : 								{
									"destination" : [ "obj-112", 1 ],
									"disabled" : 0,
									"hidden" : 0,
									"source" : [ "obj-74", 0 ]
								}

							}
, 							{
								"patchline" : 								{
									"destination" : [ "obj-19", 1 ],
									"disabled" : 0,
									"hidden" : 0,
									"source" : [ "obj-76", 0 ]
								}

							}
, 							{
								"patchline" : 								{
									"destination" : [ "obj-84", 0 ],
									"disabled" : 0,
									"hidden" : 0,
									"source" : [ "obj-77", 0 ]
								}

							}
, 							{
								"patchline" : 								{
									"destination" : [ "obj-61", 0 ],
									"disabled" : 0,
									"hidden" : 0,
									"source" : [ "obj-8", 1 ]
								}

							}
, 							{
								"patchline" : 								{
									"destination" : [ "obj-112", 2 ],
									"disabled" : 0,
									"hidden" : 0,
									"source" : [ "obj-80", 0 ]
								}

							}
, 							{
								"patchline" : 								{
									"destination" : [ "obj-27", 0 ],
									"disabled" : 0,
									"hidden" : 0,
									"source" : [ "obj-80", 0 ]
								}

							}
, 							{
								"patchline" : 								{
									"destination" : [ "obj-85", 0 ],
									"disabled" : 0,
									"hidden" : 0,
									"source" : [ "obj-82", 0 ]
								}

							}
, 							{
								"patchline" : 								{
									"destination" : [ "obj-85", 1 ],
									"disabled" : 0,
									"hidden" : 0,
									"source" : [ "obj-83", 0 ]
								}

							}
, 							{
								"patchline" : 								{
									"destination" : [ "obj-82", 0 ],
									"disabled" : 0,
									"hidden" : 0,
									"source" : [ "obj-84", 0 ]
								}

							}
, 							{
								"patchline" : 								{
									"destination" : [ "obj-83", 0 ],
									"disabled" : 0,
									"hidden" : 0,
									"source" : [ "obj-84", 1 ]
								}

							}
, 							{
								"patchline" : 								{
									"destination" : [ "obj-87", 0 ],
									"disabled" : 0,
									"hidden" : 0,
									"source" : [ "obj-85", 0 ]
								}

							}
, 							{
								"patchline" : 								{
									"destination" : [ "obj-13", 0 ],
									"disabled" : 0,
									"hidden" : 0,
									"midpoints" : [ 1371.5, 448.752747, 842.507568, 448.752747 ],
									"source" : [ "obj-87", 0 ]
								}

							}
, 							{
								"patchline" : 								{
									"destination" : [ "obj-13", 0 ],
									"disabled" : 0,
									"hidden" : 0,
									"midpoints" : [ 1749.5, 448.752747, 842.507568, 448.752747 ],
									"source" : [ "obj-88", 0 ]
								}

							}
, 							{
								"patchline" : 								{
									"destination" : [ "obj-88", 0 ],
									"disabled" : 0,
									"hidden" : 0,
									"source" : [ "obj-89", 0 ]
								}

							}
, 							{
								"patchline" : 								{
									"destination" : [ "obj-12", 2 ],
									"disabled" : 0,
									"hidden" : 0,
									"source" : [ "obj-9", 1 ]
								}

							}
, 							{
								"patchline" : 								{
									"destination" : [ "obj-12", 1 ],
									"disabled" : 0,
									"hidden" : 0,
									"source" : [ "obj-9", 0 ]
								}

							}
, 							{
								"patchline" : 								{
									"destination" : [ "obj-91", 0 ],
									"disabled" : 0,
									"hidden" : 0,
									"source" : [ "obj-90", 1 ]
								}

							}
, 							{
								"patchline" : 								{
									"destination" : [ "obj-92", 0 ],
									"disabled" : 0,
									"hidden" : 0,
									"source" : [ "obj-90", 0 ]
								}

							}
, 							{
								"patchline" : 								{
									"destination" : [ "obj-89", 1 ],
									"disabled" : 0,
									"hidden" : 0,
									"source" : [ "obj-91", 0 ]
								}

							}
, 							{
								"patchline" : 								{
									"destination" : [ "obj-89", 0 ],
									"disabled" : 0,
									"hidden" : 0,
									"source" : [ "obj-92", 0 ]
								}

							}
, 							{
								"patchline" : 								{
									"destination" : [ "obj-90", 0 ],
									"disabled" : 0,
									"hidden" : 0,
									"source" : [ "obj-93", 0 ]
								}

							}
, 							{
								"patchline" : 								{
									"destination" : [ "obj-93", 0 ],
									"disabled" : 0,
									"hidden" : 0,
									"source" : [ "obj-94", 0 ]
								}

							}
, 							{
								"patchline" : 								{
									"destination" : [ "obj-94", 0 ],
									"disabled" : 0,
									"hidden" : 0,
									"source" : [ "obj-95", 0 ]
								}

							}
, 							{
								"patchline" : 								{
									"destination" : [ "obj-62", 0 ],
									"disabled" : 0,
									"hidden" : 0,
									"source" : [ "obj-98", 0 ]
								}

							}
, 							{
								"patchline" : 								{
									"destination" : [ "obj-95", 0 ],
									"disabled" : 0,
									"hidden" : 0,
									"source" : [ "obj-99", 0 ]
								}

							}
 ]
					}
,
					"patching_rect" : [ 0.0, 0.0, 309.0, 116.0 ],
					"varname" : "Spectra",
					"viewvisibility" : 1
				}

			}
 ],
		"lines" : [  ],
		"parameters" : 		{
			"obj-6::obj-80" : [ "EditMode", "EditMode", 0 ],
			"obj-6::obj-53" : [ "Mute", "Mute", 0 ],
			"obj-6::obj-23" : [ "CV", "CV", 0 ],
			"obj-6::obj-8" : [ "dict", "dict", -1 ],
			"obj-6::obj-33" : [ "Offset", "Offset", 0 ]
		}
,
		"dependency_cache" : [  ],
		"embedsnapshot" : 0
	}

}
