{
	"patcher" : 	{
		"fileversion" : 1,
		"appversion" : 		{
			"major" : 6,
			"minor" : 1,
			"revision" : 3,
			"architecture" : "x86"
		}
,
		"rect" : [ 0.0, 44.0, 1440.0, 758.0 ],
		"bglocked" : 0,
		"openinpresentation" : 0,
		"default_fontsize" : 12.0,
		"default_fontface" : 0,
		"default_fontname" : "Arial",
		"gridonopen" : 0,
		"gridsize" : [ 15.0, 15.0 ],
		"gridsnaponopen" : 0,
		"statusbarvisible" : 1,
		"toolbarvisible" : 1,
		"boxanimatetime" : 200,
		"imprint" : 0,
		"enablehscroll" : 1,
		"enablevscroll" : 1,
		"devicewidth" : 0.0,
		"description" : "",
		"digest" : "",
		"tags" : "",
		"boxes" : [ 			{
				"box" : 				{
					"embed" : 1,
					"id" : "obj-18",
					"maxclass" : "bpatcher",
					"numinlets" : 1,
					"numoutlets" : 1,
					"outlettype" : [ "" ],
					"patcher" : 					{
						"fileversion" : 1,
						"appversion" : 						{
							"major" : 6,
							"minor" : 1,
							"revision" : 3,
							"architecture" : "x86"
						}
,
						"rect" : [ 0.0, 44.0, 435.0, 214.0 ],
						"bgcolor" : [ 1.0, 1.0, 1.0, 0.0 ],
						"bglocked" : 0,
						"openinpresentation" : 1,
						"default_fontsize" : 12.0,
						"default_fontface" : 0,
						"default_fontname" : "Arial",
						"gridonopen" : 0,
						"gridsize" : [ 15.0, 15.0 ],
						"gridsnaponopen" : 0,
						"statusbarvisible" : 1,
						"toolbarvisible" : 1,
						"boxanimatetime" : 200,
						"imprint" : 0,
						"enablehscroll" : 1,
						"enablevscroll" : 1,
						"devicewidth" : 0.0,
						"description" : "",
						"digest" : "",
						"tags" : "",
						"boxes" : [ 							{
								"box" : 								{
									"fontname" : "Arial Bold",
									"fontsize" : 9.0,
									"frgb" : 0.0,
									"id" : "obj-41",
									"linecount" : 2,
									"maxclass" : "comment",
									"numinlets" : 1,
									"numoutlets" : 0,
									"patching_rect" : [ 279.0, 95.248817, 37.0, 27.0 ],
									"presentation" : 1,
									"presentation_rect" : [ 279.0, 100.521538, 55.0, 17.0 ],
									"text" : "Amp scale",
									"textcolor" : [ 1.0, 1.0, 1.0, 1.0 ]
								}

							}
, 							{
								"box" : 								{
									"fontname" : "Arial Bold",
									"fontsize" : 9.0,
									"frgb" : 0.0,
									"id" : "obj-40",
									"linecount" : 2,
									"maxclass" : "comment",
									"numinlets" : 1,
									"numoutlets" : 0,
									"patching_rect" : [ 279.0, 78.485626, 37.0, 27.0 ],
									"presentation" : 1,
									"presentation_rect" : [ 279.0, 81.521538, 55.0, 17.0 ],
									"text" : "Freq scale",
									"textcolor" : [ 1.0, 1.0, 1.0, 1.0 ]
								}

							}
, 							{
								"box" : 								{
									"id" : "obj-20",
									"maxclass" : "live.line",
									"numinlets" : 1,
									"numoutlets" : 0,
									"patching_rect" : [ 313.354034, 140.0, 5.0, 100.0 ],
									"presentation" : 1,
									"presentation_rect" : [ 307.354034, 142.0, 19.791542, 5.0 ]
								}

							}
, 							{
								"box" : 								{
									"id" : "obj-17",
									"maxclass" : "live.line",
									"numinlets" : 1,
									"numoutlets" : 0,
									"patching_rect" : [ 324.689087, 232.787155, 5.0, 100.0 ],
									"presentation" : 1,
									"presentation_rect" : [ 374.0, 142.0, 19.791542, 5.0 ]
								}

							}
, 							{
								"box" : 								{
									"fontname" : "Arial Bold",
									"fontsize" : 9.0,
									"frgb" : 0.0,
									"id" : "obj-11",
									"linecount" : 2,
									"maxclass" : "comment",
									"numinlets" : 1,
									"numoutlets" : 0,
									"patching_rect" : [ 330.0, 134.0, 37.0, 27.0 ],
									"presentation" : 1,
									"presentation_rect" : [ 328.0, 134.0, 46.0, 17.0 ],
									"text" : " Domain",
									"textcolor" : [ 1.0, 1.0, 1.0, 1.0 ]
								}

							}
, 							{
								"box" : 								{
									"fontname" : "Arial Bold",
									"fontsize" : 9.0,
									"frgb" : 0.0,
									"id" : "obj-6",
									"maxclass" : "comment",
									"numinlets" : 1,
									"numoutlets" : 0,
									"patching_rect" : [ 357.0, 134.0, 37.0, 17.0 ],
									"presentation" : 1,
									"presentation_rect" : [ 395.108063, 134.0, 30.0, 17.0 ],
									"text" : "High",
									"textcolor" : [ 1.0, 1.0, 1.0, 1.0 ]
								}

							}
, 							{
								"box" : 								{
									"fontname" : "Arial Bold",
									"fontsize" : 9.0,
									"frgb" : 0.0,
									"id" : "obj-5",
									"maxclass" : "comment",
									"numinlets" : 1,
									"numoutlets" : 0,
									"patching_rect" : [ 277.0, 130.0, 37.0, 17.0 ],
									"presentation" : 1,
									"presentation_rect" : [ 279.0, 134.0, 28.0, 17.0 ],
									"text" : "Low",
									"textcolor" : [ 1.0, 1.0, 1.0, 1.0 ]
								}

							}
, 							{
								"box" : 								{
									"fontname" : "Arial",
									"fontsize" : 12.0,
									"id" : "obj-39",
									"maxclass" : "newobj",
									"numinlets" : 1,
									"numoutlets" : 1,
									"outlettype" : [ "" ],
									"patching_rect" : [ 695.0, 729.0, 97.0, 20.0 ],
									"text" : "prepend domain"
								}

							}
, 							{
								"box" : 								{
									"fontname" : "Arial",
									"fontsize" : 12.0,
									"id" : "obj-34",
									"maxclass" : "newobj",
									"numinlets" : 1,
									"numoutlets" : 1,
									"outlettype" : [ "" ],
									"patching_rect" : [ 762.0, 580.0, 34.0, 20.0 ],
									"text" : "ftom"
								}

							}
, 							{
								"box" : 								{
									"fontname" : "Arial",
									"fontsize" : 12.0,
									"id" : "obj-35",
									"maxclass" : "newobj",
									"numinlets" : 1,
									"numoutlets" : 1,
									"outlettype" : [ "" ],
									"patching_rect" : [ 762.0, 617.0, 74.0, 20.0 ],
									"text" : "prepend set"
								}

							}
, 							{
								"box" : 								{
									"activebgcolor" : [ 0.572549, 0.615686, 0.658824, 1.0 ],
									"id" : "obj-36",
									"maxclass" : "live.numbox",
									"numinlets" : 1,
									"numoutlets" : 2,
									"outlettype" : [ "", "float" ],
									"parameter_enable" : 1,
									"patching_rect" : [ 762.0, 472.0, 64.0, 15.0 ],
									"presentation" : 1,
									"presentation_rect" : [ 357.935913, 151.0, 64.0, 15.0 ],
									"saved_attribute_attributes" : 									{
										"valueof" : 										{
											"parameter_longname" : "live.numbox[2]",
											"parameter_shortname" : "live.numbox",
											"parameter_type" : 1,
											"parameter_mmin" : -1.0,
											"parameter_mmax" : 128.0,
											"parameter_unitstyle" : 8
										}

									}
,
									"varname" : "live.numbox[2]"
								}

							}
, 							{
								"box" : 								{
									"activebgcolor" : [ 0.572549, 0.615686, 0.658824, 1.0 ],
									"id" : "obj-37",
									"maxclass" : "live.numbox",
									"numinlets" : 1,
									"numoutlets" : 2,
									"outlettype" : [ "", "float" ],
									"parameter_enable" : 1,
									"patching_rect" : [ 762.0, 531.0, 64.0, 15.0 ],
									"presentation" : 1,
									"presentation_rect" : [ 357.935913, 173.0, 64.0, 15.0 ],
									"saved_attribute_attributes" : 									{
										"valueof" : 										{
											"parameter_longname" : "live.numbox[3]",
											"parameter_shortname" : "live.numbox",
											"parameter_type" : 0,
											"parameter_mmax" : 22050.0,
											"parameter_initial_enable" : 1,
											"parameter_initial" : [ 22050 ],
											"parameter_unitstyle" : 3
										}

									}
,
									"varname" : "live.numbox[3]"
								}

							}
, 							{
								"box" : 								{
									"fontname" : "Arial",
									"fontsize" : 12.0,
									"id" : "obj-38",
									"maxclass" : "newobj",
									"numinlets" : 1,
									"numoutlets" : 1,
									"outlettype" : [ "" ],
									"patching_rect" : [ 762.0, 497.737061, 34.0, 20.0 ],
									"text" : "mtof"
								}

							}
, 							{
								"box" : 								{
									"fontname" : "Arial",
									"fontsize" : 12.0,
									"id" : "obj-33",
									"maxclass" : "newobj",
									"numinlets" : 1,
									"numoutlets" : 1,
									"outlettype" : [ "" ],
									"patching_rect" : [ 671.0, 580.0, 34.0, 20.0 ],
									"text" : "ftom"
								}

							}
, 							{
								"box" : 								{
									"fontname" : "Arial",
									"fontsize" : 12.0,
									"id" : "obj-32",
									"maxclass" : "newobj",
									"numinlets" : 1,
									"numoutlets" : 1,
									"outlettype" : [ "" ],
									"patching_rect" : [ 671.0, 617.0, 74.0, 20.0 ],
									"text" : "prepend set"
								}

							}
, 							{
								"box" : 								{
									"activebgcolor" : [ 0.572549, 0.615686, 0.658824, 1.0 ],
									"id" : "obj-31",
									"maxclass" : "live.numbox",
									"numinlets" : 1,
									"numoutlets" : 2,
									"outlettype" : [ "", "float" ],
									"parameter_enable" : 1,
									"patching_rect" : [ 671.0, 472.0, 64.0, 15.0 ],
									"presentation" : 1,
									"presentation_rect" : [ 279.0, 151.0, 64.0, 15.0 ],
									"saved_attribute_attributes" : 									{
										"valueof" : 										{
											"parameter_longname" : "live.numbox[1]",
											"parameter_shortname" : "live.numbox",
											"parameter_type" : 1,
											"parameter_mmin" : -1.0,
											"parameter_mmax" : 128.0,
											"parameter_unitstyle" : 8
										}

									}
,
									"varname" : "live.numbox[1]"
								}

							}
, 							{
								"box" : 								{
									"activebgcolor" : [ 0.572549, 0.615686, 0.658824, 1.0 ],
									"id" : "obj-30",
									"maxclass" : "live.numbox",
									"numinlets" : 1,
									"numoutlets" : 2,
									"outlettype" : [ "", "float" ],
									"parameter_enable" : 1,
									"patching_rect" : [ 671.0, 531.0, 64.0, 15.0 ],
									"presentation" : 1,
									"presentation_rect" : [ 279.0, 173.0, 64.0, 15.0 ],
									"saved_attribute_attributes" : 									{
										"valueof" : 										{
											"parameter_longname" : "live.numbox",
											"parameter_shortname" : "live.numbox",
											"parameter_type" : 0,
											"parameter_mmax" : 22050.0,
											"parameter_initial_enable" : 1,
											"parameter_initial" : [ 0 ],
											"parameter_unitstyle" : 3
										}

									}
,
									"varname" : "live.numbox"
								}

							}
, 							{
								"box" : 								{
									"fontname" : "Arial",
									"fontsize" : 12.0,
									"id" : "obj-29",
									"maxclass" : "newobj",
									"numinlets" : 1,
									"numoutlets" : 1,
									"outlettype" : [ "" ],
									"patching_rect" : [ 671.0, 497.737061, 34.0, 20.0 ],
									"text" : "mtof"
								}

							}
, 							{
								"box" : 								{
									"fontname" : "Arial",
									"fontsize" : 12.0,
									"id" : "obj-28",
									"maxclass" : "newobj",
									"numinlets" : 2,
									"numoutlets" : 1,
									"outlettype" : [ "" ],
									"patching_rect" : [ 695.0, 683.0, 68.0, 20.0 ],
									"text" : "pak i i"
								}

							}
, 							{
								"box" : 								{
									"activebgoncolor" : [ 0.278431, 0.839216, 1.0, 1.0 ],
									"id" : "obj-26",
									"maxclass" : "live.tab",
									"numinlets" : 1,
									"numoutlets" : 3,
									"outlettype" : [ "", "", "float" ],
									"parameter_enable" : 1,
									"patching_rect" : [ 291.142456, 551.737061, 111.0, 19.280884 ],
									"presentation" : 1,
									"presentation_rect" : [ 341.825317, 99.521538, 85.282745, 19.0 ],
									"saved_attribute_attributes" : 									{
										"valueof" : 										{
											"parameter_longname" : "LinLog[1]",
											"parameter_shortname" : "LinLog",
											"parameter_type" : 2,
											"parameter_enum" : [ "Lin", "Log" ],
											"parameter_unitstyle" : 0
										}

									}
,
									"varname" : "LinLog[1]"
								}

							}
, 							{
								"box" : 								{
									"fontname" : "Arial",
									"fontsize" : 13.0,
									"id" : "obj-27",
									"maxclass" : "message",
									"numinlets" : 2,
									"numoutlets" : 1,
									"outlettype" : [ "" ],
									"patching_rect" : [ 291.142456, 600.907471, 71.0, 19.0 ],
									"text" : "logamp $1"
								}

							}
, 							{
								"box" : 								{
									"activebgoncolor" : [ 0.278431, 0.839216, 1.0, 1.0 ],
									"id" : "obj-7",
									"maxclass" : "live.tab",
									"multiline" : 0,
									"numinlets" : 1,
									"numoutlets" : 3,
									"outlettype" : [ "", "", "float" ],
									"parameter_enable" : 1,
									"patching_rect" : [ 490.5, 561.737061, 111.0, 19.280884 ],
									"presentation" : 1,
									"presentation_rect" : [ 279.0, 43.0, 148.108063, 22.146914 ],
									"saved_attribute_attributes" : 									{
										"valueof" : 										{
											"parameter_longname" : "display",
											"parameter_shortname" : "display",
											"parameter_type" : 2,
											"parameter_enum" : [ "Sonogram", "Spectrogram" ],
											"parameter_unitstyle" : 0
										}

									}
,
									"varname" : "display"
								}

							}
, 							{
								"box" : 								{
									"fontname" : "Arial",
									"fontsize" : 13.0,
									"id" : "obj-3",
									"maxclass" : "message",
									"numinlets" : 2,
									"numoutlets" : 1,
									"outlettype" : [ "" ],
									"patching_rect" : [ 490.5, 610.907471, 57.0, 19.0 ],
									"text" : "sono $1"
								}

							}
, 							{
								"box" : 								{
									"activebgoncolor" : [ 0.278431, 0.839216, 1.0, 1.0 ],
									"id" : "obj-12",
									"maxclass" : "live.tab",
									"numinlets" : 1,
									"numoutlets" : 3,
									"outlettype" : [ "", "", "float" ],
									"parameter_enable" : 1,
									"patching_rect" : [ 175.236206, 544.737061, 111.0, 19.280884 ],
									"presentation" : 1,
									"presentation_rect" : [ 341.825317, 80.521538, 85.282745, 19.0 ],
									"saved_attribute_attributes" : 									{
										"valueof" : 										{
											"parameter_longname" : "LinLog",
											"parameter_shortname" : "LinLog",
											"parameter_type" : 2,
											"parameter_enum" : [ "Lin", "Log" ],
											"parameter_unitstyle" : 0
										}

									}
,
									"varname" : "LinLog"
								}

							}
, 							{
								"box" : 								{
									"fontname" : "Arial",
									"fontsize" : 13.0,
									"id" : "obj-22",
									"maxclass" : "message",
									"numinlets" : 2,
									"numoutlets" : 1,
									"outlettype" : [ "" ],
									"patching_rect" : [ 175.236206, 593.907471, 68.0, 19.0 ],
									"text" : "logfreq $1"
								}

							}
, 							{
								"box" : 								{
									"bgcolor" : [ 0.0, 0.0, 0.0, 1.0 ],
									"bordercolor" : [ 0.0, 0.0, 0.0, 1.0 ],
									"fgcolor" : [ 0.0, 0.771062, 1.0, 1.0 ],
									"id" : "obj-23",
									"markercolor" : [ 0.178799, 0.178799, 0.178799, 1.0 ],
									"maxclass" : "spectroscope~",
									"monochrome" : 0,
									"numinlets" : 2,
									"numoutlets" : 1,
									"outlettype" : [ "" ],
									"patching_rect" : [ 150.5, 771.0, 300.0, 100.0 ],
									"peakcolor" : [ 0.952941, 0.8, 0.8, 1.0 ],
									"presentation" : 1,
									"presentation_rect" : [ 5.0, 43.0, 267.0, 145.0 ],
									"range" : [ 0.0, 1.0 ],
									"rounded" : 0,
									"sonohicolor" : [ 0.278431, 0.839216, 1.0, 1.0 ],
									"sonomedcolor" : [ 0.129761, 0.394144, 0.47164, 1.0 ],
									"sonomedhicolor" : [ 0.198412, 0.602667, 0.721161, 1.0 ],
									"sonomedlocolor" : [ 0.065272, 0.206569, 0.24717, 1.0 ],
									"sonomonobgcolor" : [ 0.0, 0.700912, 1.0, 1.0 ]
								}

							}
, 							{
								"box" : 								{
									"annotation" : "output",
									"comment" : "output",
									"id" : "obj-24",
									"maxclass" : "outlet",
									"numinlets" : 1,
									"numoutlets" : 0,
									"patching_rect" : [ 48.0, 881.0, 25.0, 25.0 ]
								}

							}
, 							{
								"box" : 								{
									"comment" : "CV",
									"id" : "obj-25",
									"maxclass" : "inlet",
									"numinlets" : 0,
									"numoutlets" : 1,
									"outlettype" : [ "" ],
									"patching_rect" : [ 48.0, 690.5, 25.0, 25.0 ]
								}

							}
, 							{
								"box" : 								{
									"fontname" : "Arial",
									"fontsize" : 12.0,
									"id" : "obj-2",
									"maxclass" : "newobj",
									"numinlets" : 1,
									"numoutlets" : 4,
									"outlettype" : [ "", "", "", "" ],
									"patching_rect" : [ 278.0, 668.0, 59.5, 20.0 ],
									"restore" : 									{
										"LinLog" : [ 0.0 ],
										"LinLog[1]" : [ 1.0 ],
										"display" : [ 0.0 ],
										"live.numbox" : [ 0.0 ],
										"live.numbox[1]" : [ -1.0 ],
										"live.numbox[2]" : [ 128.0 ],
										"live.numbox[3]" : [ 22050.0 ]
									}
,
									"text" : "autopattr",
									"varname" : "u536004898"
								}

							}
, 							{
								"box" : 								{
									"fontname" : "Arial Bold",
									"fontsize" : 9.0,
									"frgb" : 0.0,
									"id" : "obj-8",
									"maxclass" : "comment",
									"numinlets" : 1,
									"numoutlets" : 0,
									"patching_rect" : [ 328.142456, 340.0, 37.0, 17.0 ],
									"presentation" : 1,
									"presentation_rect" : [ 2.0, 196.0, 38.0, 17.0 ],
									"text" : "Thru",
									"textcolor" : [ 1.0, 1.0, 1.0, 1.0 ]
								}

							}
, 							{
								"box" : 								{
									"fontname" : "Arial Bold",
									"fontsize" : 9.0,
									"frgb" : 0.0,
									"id" : "obj-19",
									"maxclass" : "comment",
									"numinlets" : 1,
									"numoutlets" : 0,
									"patching_rect" : [ 322.642456, 397.883911, 37.0, 17.0 ],
									"presentation" : 1,
									"presentation_rect" : [ 2.0, 0.0, 38.0, 17.0 ],
									"text" : "Signal",
									"textcolor" : [ 1.0, 1.0, 1.0, 1.0 ]
								}

							}
, 							{
								"box" : 								{
									"fontname" : "Arial Bold",
									"fontsize" : 9.0,
									"frgb" : 0.0,
									"id" : "obj-13",
									"linecount" : 3,
									"maxclass" : "comment",
									"numinlets" : 1,
									"numoutlets" : 0,
									"patching_rect" : [ 322.642456, 425.907501, 48.0, 37.0 ],
									"presentation" : 1,
									"presentation_rect" : [ 2.0, 19.0, 78.0, 17.0 ],
									"text" : "BIG SPECTRAL",
									"textcolor" : [ 1.0, 1.0, 1.0, 1.0 ]
								}

							}
, 							{
								"box" : 								{
									"bgcolor" : [ 0.0, 0.0, 0.0, 1.0 ],
									"id" : "obj-14",
									"maxclass" : "panel",
									"numinlets" : 1,
									"numoutlets" : 0,
									"patching_rect" : [ 15.0, 267.470001, 128.0, 128.0 ],
									"presentation" : 1,
									"presentation_rect" : [ 0.0, 0.0, 474.268768, 17.0 ],
									"rounded" : 0
								}

							}
, 							{
								"box" : 								{
									"bgcolor" : [ 0.0, 0.0, 0.0, 1.0 ],
									"id" : "obj-15",
									"maxclass" : "panel",
									"numinlets" : 1,
									"numoutlets" : 0,
									"patching_rect" : [ 175.236206, 133.0, 128.0, 128.0 ],
									"presentation" : 1,
									"presentation_rect" : [ 0.0, 196.0, 474.268768, 35.433025 ],
									"rounded" : 0
								}

							}
, 							{
								"box" : 								{
									"bgcolor" : [ 0.137255, 0.145098, 0.160784, 0.65 ],
									"id" : "obj-18",
									"maxclass" : "panel",
									"numinlets" : 1,
									"numoutlets" : 0,
									"patching_rect" : [ 21.736206, 133.0, 128.0, 128.0 ],
									"presentation" : 1,
									"presentation_rect" : [ 0.0, 37.0, 474.268768, 194.433029 ],
									"rounded" : 0
								}

							}
, 							{
								"box" : 								{
									"bgcolor" : [ 0.367404, 0.389405, 0.430238, 1.0 ],
									"id" : "obj-21",
									"maxclass" : "panel",
									"numinlets" : 1,
									"numoutlets" : 0,
									"patching_rect" : [ 161.562378, 267.470001, 128.0, 128.0 ],
									"presentation" : 1,
									"presentation_rect" : [ 0.0, 17.0, 474.268768, 214.433029 ],
									"rounded" : 0
								}

							}
 ],
						"lines" : [ 							{
								"patchline" : 								{
									"destination" : [ "obj-22", 0 ],
									"disabled" : 0,
									"hidden" : 0,
									"source" : [ "obj-12", 0 ]
								}

							}
, 							{
								"patchline" : 								{
									"destination" : [ "obj-23", 0 ],
									"disabled" : 0,
									"hidden" : 0,
									"source" : [ "obj-22", 0 ]
								}

							}
, 							{
								"patchline" : 								{
									"destination" : [ "obj-23", 0 ],
									"disabled" : 0,
									"hidden" : 0,
									"source" : [ "obj-25", 0 ]
								}

							}
, 							{
								"patchline" : 								{
									"destination" : [ "obj-24", 0 ],
									"disabled" : 0,
									"hidden" : 0,
									"source" : [ "obj-25", 0 ]
								}

							}
, 							{
								"patchline" : 								{
									"destination" : [ "obj-27", 0 ],
									"disabled" : 0,
									"hidden" : 0,
									"source" : [ "obj-26", 0 ]
								}

							}
, 							{
								"patchline" : 								{
									"destination" : [ "obj-23", 0 ],
									"disabled" : 0,
									"hidden" : 0,
									"source" : [ "obj-27", 0 ]
								}

							}
, 							{
								"patchline" : 								{
									"destination" : [ "obj-39", 0 ],
									"disabled" : 0,
									"hidden" : 0,
									"source" : [ "obj-28", 0 ]
								}

							}
, 							{
								"patchline" : 								{
									"destination" : [ "obj-30", 0 ],
									"disabled" : 0,
									"hidden" : 0,
									"source" : [ "obj-29", 0 ]
								}

							}
, 							{
								"patchline" : 								{
									"destination" : [ "obj-23", 0 ],
									"disabled" : 0,
									"hidden" : 0,
									"source" : [ "obj-3", 0 ]
								}

							}
, 							{
								"patchline" : 								{
									"destination" : [ "obj-28", 0 ],
									"disabled" : 0,
									"hidden" : 0,
									"source" : [ "obj-30", 0 ]
								}

							}
, 							{
								"patchline" : 								{
									"destination" : [ "obj-33", 0 ],
									"disabled" : 0,
									"hidden" : 0,
									"source" : [ "obj-30", 0 ]
								}

							}
, 							{
								"patchline" : 								{
									"destination" : [ "obj-29", 0 ],
									"disabled" : 0,
									"hidden" : 0,
									"source" : [ "obj-31", 0 ]
								}

							}
, 							{
								"patchline" : 								{
									"destination" : [ "obj-31", 0 ],
									"disabled" : 0,
									"hidden" : 0,
									"midpoints" : [ 680.5, 646.0, 650.5, 646.0, 650.5, 462.0, 680.5, 462.0 ],
									"source" : [ "obj-32", 0 ]
								}

							}
, 							{
								"patchline" : 								{
									"destination" : [ "obj-32", 0 ],
									"disabled" : 0,
									"hidden" : 0,
									"source" : [ "obj-33", 0 ]
								}

							}
, 							{
								"patchline" : 								{
									"destination" : [ "obj-35", 0 ],
									"disabled" : 0,
									"hidden" : 0,
									"source" : [ "obj-34", 0 ]
								}

							}
, 							{
								"patchline" : 								{
									"destination" : [ "obj-36", 0 ],
									"disabled" : 0,
									"hidden" : 0,
									"midpoints" : [ 771.5, 646.0, 741.5, 646.0, 741.5, 462.0, 771.5, 462.0 ],
									"source" : [ "obj-35", 0 ]
								}

							}
, 							{
								"patchline" : 								{
									"destination" : [ "obj-38", 0 ],
									"disabled" : 0,
									"hidden" : 0,
									"source" : [ "obj-36", 0 ]
								}

							}
, 							{
								"patchline" : 								{
									"destination" : [ "obj-28", 1 ],
									"disabled" : 0,
									"hidden" : 0,
									"source" : [ "obj-37", 0 ]
								}

							}
, 							{
								"patchline" : 								{
									"destination" : [ "obj-34", 0 ],
									"disabled" : 0,
									"hidden" : 0,
									"source" : [ "obj-37", 0 ]
								}

							}
, 							{
								"patchline" : 								{
									"destination" : [ "obj-37", 0 ],
									"disabled" : 0,
									"hidden" : 0,
									"source" : [ "obj-38", 0 ]
								}

							}
, 							{
								"patchline" : 								{
									"destination" : [ "obj-23", 0 ],
									"disabled" : 0,
									"hidden" : 0,
									"source" : [ "obj-39", 0 ]
								}

							}
, 							{
								"patchline" : 								{
									"destination" : [ "obj-3", 0 ],
									"disabled" : 0,
									"hidden" : 0,
									"source" : [ "obj-7", 0 ]
								}

							}
 ]
					}
,
					"patching_rect" : [ 0.0, 0.0, 435.0, 214.0 ],
					"varname" : "BigSpectral"
				}

			}
 ],
		"lines" : [  ],
		"parameters" : 		{
			"obj-18::obj-26" : [ "LinLog[1]", "LinLog", 0 ],
			"obj-18::obj-31" : [ "live.numbox[1]", "live.numbox", 0 ],
			"obj-18::obj-7" : [ "display", "display", 0 ],
			"obj-18::obj-36" : [ "live.numbox[2]", "live.numbox", 0 ],
			"obj-18::obj-12" : [ "LinLog", "LinLog", 0 ],
			"obj-18::obj-30" : [ "live.numbox", "live.numbox", 0 ],
			"obj-18::obj-37" : [ "live.numbox[3]", "live.numbox", 0 ]
		}
,
		"dependency_cache" : [  ]
	}

}
