{
	"patcher" : 	{
		"fileversion" : 1,
		"appversion" : 		{
			"major" : 7,
			"minor" : 2,
			"revision" : 0,
			"architecture" : "x64",
			"modernui" : 1
		}
,
		"rect" : [ 34.0, 79.0, 862.0, 641.0 ],
		"bglocked" : 0,
		"openinpresentation" : 0,
		"default_fontsize" : 12.0,
		"default_fontface" : 0,
		"default_fontname" : "Arial",
		"gridonopen" : 1,
		"gridsize" : [ 15.0, 15.0 ],
		"gridsnaponopen" : 1,
		"objectsnaponopen" : 1,
		"statusbarvisible" : 2,
		"toolbarvisible" : 1,
		"lefttoolbarpinned" : 0,
		"toptoolbarpinned" : 0,
		"righttoolbarpinned" : 0,
		"bottomtoolbarpinned" : 0,
		"toolbars_unpinned_last_save" : 0,
		"tallnewobj" : 0,
		"boxanimatetime" : 200,
		"enablehscroll" : 1,
		"enablevscroll" : 1,
		"devicewidth" : 0.0,
		"description" : "",
		"digest" : "",
		"tags" : "",
		"style" : "",
		"subpatcher_template" : "",
		"boxes" : [ 			{
				"box" : 				{
					"bgmode" : 0,
					"border" : 0,
					"clickthrough" : 0,
					"embed" : 1,
					"enablehscroll" : 0,
					"enablevscroll" : 0,
					"id" : "obj-10",
					"lockeddragscroll" : 0,
					"maxclass" : "bpatcher",
					"numinlets" : 1,
					"numoutlets" : 1,
					"offset" : [ 0.0, 0.0 ],
					"outlettype" : [ "" ],
					"patcher" : 					{
						"fileversion" : 1,
						"appversion" : 						{
							"major" : 7,
							"minor" : 2,
							"revision" : 0,
							"architecture" : "x64",
							"modernui" : 1
						}
,
						"rect" : [ 34.0, 79.0, 275.0, 217.0 ],
						"bgcolor" : [ 1.0, 1.0, 1.0, 0.0 ],
						"bglocked" : 0,
						"openinpresentation" : 1,
						"default_fontsize" : 12.0,
						"default_fontface" : 0,
						"default_fontname" : "Arial",
						"gridonopen" : 1,
						"gridsize" : [ 15.0, 15.0 ],
						"gridsnaponopen" : 1,
						"objectsnaponopen" : 1,
						"statusbarvisible" : 1,
						"toolbarvisible" : 1,
						"lefttoolbarpinned" : 0,
						"toptoolbarpinned" : 0,
						"righttoolbarpinned" : 0,
						"bottomtoolbarpinned" : 0,
						"toolbars_unpinned_last_save" : 0,
						"tallnewobj" : 0,
						"boxanimatetime" : 200,
						"enablehscroll" : 1,
						"enablevscroll" : 1,
						"devicewidth" : 0.0,
						"description" : "",
						"digest" : "",
						"tags" : "",
						"style" : "",
						"subpatcher_template" : "",
						"boxes" : [ 							{
								"box" : 								{
									"id" : "obj-32",
									"maxclass" : "newobj",
									"numinlets" : 1,
									"numoutlets" : 1,
									"outlettype" : [ "" ],
									"patching_rect" : [ 50.0, 351.0, 74.0, 22.0 ],
									"style" : "",
									"text" : "prepend set"
								}

							}
, 							{
								"box" : 								{
									"fontsize" : 14.0,
									"id" : "obj-31",
									"maxclass" : "comment",
									"numinlets" : 1,
									"numoutlets" : 0,
									"patching_rect" : [ 48.099976, 390.0, 169.0, 22.0 ],
									"presentation" : 1,
									"presentation_rect" : [ 68.442886, 120.0, 135.0, 22.0 ],
									"style" : "",
									"text" : "0.00",
									"textcolor" : [ 1.0, 1.0, 1.0, 0.5 ],
									"textjustification" : 1
								}

							}
, 							{
								"box" : 								{
									"id" : "obj-4",
									"maxclass" : "comment",
									"numinlets" : 1,
									"numoutlets" : 0,
									"patching_rect" : [ 21.642456, 83.0, 177.0, 20.0 ],
									"style" : "",
									"text" : "## Emulation of a volt meter ##"
								}

							}
, 							{
								"box" : 								{
									"comment" : "",
									"id" : "obj-2",
									"maxclass" : "outlet",
									"numinlets" : 1,
									"numoutlets" : 0,
									"patching_rect" : [ 181.0, 198.0, 25.0, 25.0 ],
									"style" : ""
								}

							}
, 							{
								"box" : 								{
									"comment" : "",
									"id" : "obj-1",
									"maxclass" : "inlet",
									"numinlets" : 0,
									"numoutlets" : 1,
									"outlettype" : [ "" ],
									"patching_rect" : [ 241.0, 128.0, 25.0, 25.0 ],
									"style" : ""
								}

							}
, 							{
								"box" : 								{
									"fontname" : "Arial Bold",
									"fontsize" : 9.0,
									"id" : "obj-26",
									"maxclass" : "comment",
									"numinlets" : 1,
									"numoutlets" : 0,
									"patching_rect" : [ 142.0, 206.0, 30.0, 17.0 ],
									"presentation" : 1,
									"presentation_rect" : [ 2.0, 194.0, 30.0, 17.0 ],
									"style" : "",
									"text" : "Thru",
									"textcolor" : [ 1.0, 1.0, 1.0, 1.0 ]
								}

							}
, 							{
								"box" : 								{
									"angle" : 0.0,
									"bgcolor" : [ 0.0, 0.0, 0.0, 1.0 ],
									"id" : "obj-27",
									"maxclass" : "panel",
									"mode" : 0,
									"numinlets" : 1,
									"numoutlets" : 0,
									"patching_rect" : [ 170.0, 29.326721, 47.0, 9.0 ],
									"presentation" : 1,
									"presentation_rect" : [ 0.0, 194.0, 400.268768, 112.114227 ],
									"proportion" : 0.39,
									"rounded" : 0,
									"style" : ""
								}

							}
, 							{
								"box" : 								{
									"fontname" : "Arial Bold",
									"fontsize" : 10.0,
									"id" : "obj-25",
									"maxclass" : "comment",
									"numinlets" : 1,
									"numoutlets" : 0,
									"patching_rect" : [ 192.099976, 426.0, 25.0, 18.0 ],
									"presentation" : 1,
									"presentation_rect" : [ 4.885773, 165.057129, 25.0, 18.0 ],
									"style" : "",
									"text" : "-5v",
									"textcolor" : [ 1.0, 1.0, 1.0, 1.0 ]
								}

							}
, 							{
								"box" : 								{
									"fontname" : "Arial Bold",
									"fontsize" : 10.0,
									"id" : "obj-24",
									"maxclass" : "comment",
									"numinlets" : 1,
									"numoutlets" : 0,
									"patching_rect" : [ 461.0, 426.0, 27.0, 18.0 ],
									"presentation" : 1,
									"presentation_rect" : [ 237.885773, 165.057129, 27.0, 18.0 ],
									"style" : "",
									"text" : "+5v",
									"textcolor" : [ 1.0, 1.0, 1.0, 1.0 ]
								}

							}
, 							{
								"box" : 								{
									"fontname" : "Arial Bold",
									"fontsize" : 10.0,
									"id" : "obj-8",
									"maxclass" : "comment",
									"numinlets" : 1,
									"numoutlets" : 0,
									"patching_rect" : [ 338.099976, 301.0, 22.0, 18.0 ],
									"presentation" : 1,
									"presentation_rect" : [ 127.885773, 47.0, 22.0, 18.0 ],
									"style" : "",
									"text" : "0v",
									"textcolor" : [ 1.0, 1.0, 1.0, 1.0 ]
								}

							}
, 							{
								"box" : 								{
									"fontname" : "Arial Bold",
									"fontsize" : 9.0,
									"id" : "obj-19",
									"maxclass" : "comment",
									"numinlets" : 1,
									"numoutlets" : 0,
									"patching_rect" : [ 192.099976, 128.0, 38.0, 17.0 ],
									"presentation" : 1,
									"presentation_rect" : [ 2.0, 0.0, 38.0, 17.0 ],
									"style" : "",
									"text" : "Signal",
									"textcolor" : [ 1.0, 1.0, 1.0, 1.0 ]
								}

							}
, 							{
								"box" : 								{
									"fontname" : "Arial",
									"fontsize" : 12.0,
									"id" : "obj-9",
									"maxclass" : "newobj",
									"numinlets" : 2,
									"numoutlets" : 1,
									"outlettype" : [ "float" ],
									"patching_rect" : [ 240.0, 299.0, 35.0, 22.0 ],
									"style" : "",
									"text" : "* 10."
								}

							}
, 							{
								"box" : 								{
									"fontname" : "Arial",
									"fontsize" : 12.0,
									"id" : "obj-11",
									"maxclass" : "newobj",
									"numinlets" : 2,
									"numoutlets" : 1,
									"outlettype" : [ "float" ],
									"patching_rect" : [ 240.0, 264.0, 32.5, 22.0 ],
									"style" : "",
									"text" : "+ 5."
								}

							}
, 							{
								"box" : 								{
									"fontname" : "Arial",
									"fontsize" : 12.0,
									"id" : "obj-16",
									"maxclass" : "newobj",
									"numinlets" : 2,
									"numoutlets" : 1,
									"outlettype" : [ "float" ],
									"patching_rect" : [ 240.0, 227.0, 83.0, 22.0 ],
									"style" : "",
									"text" : "snapshot~ 10"
								}

							}
, 							{
								"box" : 								{
									"bgcolor" : [ 0.0, 0.0, 0.0, 1.0 ],
									"degrees" : 180,
									"id" : "obj-17",
									"ignoreclick" : 1,
									"maxclass" : "dial",
									"mode" : 1,
									"needlecolor" : [ 0.278431, 0.839216, 1.0, 1.0 ],
									"numinlets" : 1,
									"numoutlets" : 1,
									"outlettype" : [ "float" ],
									"outlinecolor" : [ 0.186871, 0.186871, 0.186871, 1.0 ],
									"parameter_enable" : 0,
									"patching_rect" : [ 240.0, 338.0, 209.0, 209.0 ],
									"presentation" : 1,
									"presentation_rect" : [ 4.885773, 44.0, 262.114227, 262.114227 ],
									"size" : 100.0,
									"style" : ""
								}

							}
, 							{
								"box" : 								{
									"fontname" : "Arial Bold",
									"fontsize" : 9.0,
									"id" : "obj-13",
									"maxclass" : "comment",
									"numinlets" : 1,
									"numoutlets" : 0,
									"patching_rect" : [ 21.642456, 53.907501, 68.0, 17.0 ],
									"presentation" : 1,
									"presentation_rect" : [ 2.0, 19.0, 68.0, 17.0 ],
									"style" : "",
									"text" : "VOLT METER",
									"textcolor" : [ 1.0, 1.0, 1.0, 1.0 ]
								}

							}
, 							{
								"box" : 								{
									"angle" : 0.0,
									"background" : 1,
									"bgcolor" : [ 0.137255, 0.145098, 0.160784, 0.65 ],
									"id" : "obj-18",
									"maxclass" : "panel",
									"mode" : 0,
									"numinlets" : 1,
									"numoutlets" : 0,
									"patching_rect" : [ 69.642456, 29.326721, 44.0, 9.0 ],
									"presentation" : 1,
									"presentation_rect" : [ 0.0, 36.610306, 469.268768, 158.433029 ],
									"proportion" : 0.39,
									"rounded" : 0,
									"style" : ""
								}

							}
, 							{
								"box" : 								{
									"angle" : 0.0,
									"background" : 1,
									"bgcolor" : [ 0.367404, 0.389405, 0.430238, 1.0 ],
									"id" : "obj-21",
									"maxclass" : "panel",
									"mode" : 0,
									"numinlets" : 1,
									"numoutlets" : 0,
									"patching_rect" : [ 117.642456, 29.326721, 44.0, 9.0 ],
									"presentation" : 1,
									"presentation_rect" : [ 0.0, 16.610306, 469.268768, 178.433029 ],
									"proportion" : 0.39,
									"rounded" : 0,
									"style" : ""
								}

							}
, 							{
								"box" : 								{
									"angle" : 0.0,
									"background" : 1,
									"bgcolor" : [ 0.0, 0.0, 0.0, 1.0 ],
									"id" : "obj-14",
									"maxclass" : "panel",
									"mode" : 0,
									"numinlets" : 1,
									"numoutlets" : 0,
									"patching_rect" : [ 21.642456, 29.326721, 44.0, 9.0 ],
									"presentation" : 1,
									"presentation_rect" : [ 0.0, -0.389694, 469.268768, 232.433029 ],
									"proportion" : 0.39,
									"rounded" : 0,
									"style" : ""
								}

							}
 ],
						"lines" : [ 							{
								"patchline" : 								{
									"destination" : [ "obj-16", 0 ],
									"disabled" : 0,
									"hidden" : 0,
									"source" : [ "obj-1", 0 ]
								}

							}
, 							{
								"patchline" : 								{
									"destination" : [ "obj-2", 0 ],
									"disabled" : 0,
									"hidden" : 0,
									"source" : [ "obj-1", 0 ]
								}

							}
, 							{
								"patchline" : 								{
									"destination" : [ "obj-9", 0 ],
									"disabled" : 0,
									"hidden" : 0,
									"source" : [ "obj-11", 0 ]
								}

							}
, 							{
								"patchline" : 								{
									"destination" : [ "obj-11", 0 ],
									"disabled" : 0,
									"hidden" : 0,
									"source" : [ "obj-16", 0 ]
								}

							}
, 							{
								"patchline" : 								{
									"destination" : [ "obj-31", 0 ],
									"disabled" : 0,
									"hidden" : 0,
									"source" : [ "obj-32", 0 ]
								}

							}
, 							{
								"patchline" : 								{
									"destination" : [ "obj-17", 0 ],
									"disabled" : 0,
									"hidden" : 0,
									"source" : [ "obj-9", 0 ]
								}

							}
, 							{
								"patchline" : 								{
									"destination" : [ "obj-32", 0 ],
									"disabled" : 0,
									"hidden" : 0,
									"source" : [ "obj-9", 0 ]
								}

							}
 ]
					}
,
					"patching_rect" : [ 0.0, 0.0, 275.0, 216.970001 ],
					"varname" : "VoltMeter",
					"viewvisibility" : 1
				}

			}
 ],
		"lines" : [  ],
		"dependency_cache" : [  ],
		"autosave" : 0
	}

}
