{
	"patcher" : 	{
		"fileversion" : 1,
		"appversion" : 		{
			"major" : 9,
			"minor" : 0,
			"revision" : 7,
			"architecture" : "x64",
			"modernui" : 1
		}
,
		"classnamespace" : "box",
		"rect" : [ 134.0, 96.0, 469.0, 619.0 ],
		"openinpresentation" : 1,
		"gridsize" : [ 15.0, 15.0 ],
		"statusbarvisible" : 1,
		"boxes" : [ 			{
				"box" : 				{
					"id" : "obj-15",
					"maxclass" : "newobj",
					"numinlets" : 2,
					"numoutlets" : 2,
					"outlettype" : [ "signal", "bang" ],
					"patching_rect" : [ 416.0, 464.0, 34.0, 22.0 ],
					"text" : "line~"
				}

			}
, 			{
				"box" : 				{
					"id" : "obj-6",
					"maxclass" : "newobj",
					"numinlets" : 2,
					"numoutlets" : 1,
					"outlettype" : [ "bang" ],
					"patching_rect" : [ 263.068909000000076, 252.0, 54.0, 22.0 ],
					"text" : "delay 20"
				}

			}
, 			{
				"box" : 				{
					"id" : "obj-14",
					"maxclass" : "newobj",
					"numinlets" : 2,
					"numoutlets" : 2,
					"outlettype" : [ "", "" ],
					"patching_rect" : [ 416.0, 375.0, 108.75, 22.0 ],
					"text" : "list.reg"
				}

			}
, 			{
				"box" : 				{
					"id" : "obj-10",
					"maxclass" : "newobj",
					"numinlets" : 2,
					"numoutlets" : 1,
					"outlettype" : [ "" ],
					"patching_rect" : [ 506.0, 320.0, 82.0, 22.0 ],
					"text" : "pak f f"
				}

			}
, 			{
				"box" : 				{
					"id" : "obj-7",
					"maxclass" : "message",
					"numinlets" : 2,
					"numoutlets" : 1,
					"outlettype" : [ "" ],
					"patching_rect" : [ 416.0, 421.0, 79.0, 22.0 ],
					"text" : "0 0 5 $1 0 $2"
				}

			}
, 			{
				"box" : 				{
					"id" : "obj-2",
					"linecount" : 3,
					"maxclass" : "comment",
					"numinlets" : 1,
					"numoutlets" : 0,
					"patching_rect" : [ 29.173828, 80.0, 228.0, 47.0 ],
					"text" : "## Attack, decay envelope generator ## \nniput is treated like a trigger, gate is ignored"
				}

			}
, 			{
				"box" : 				{
					"fontname" : "Arial",
					"fontsize" : 12.0,
					"id" : "obj-25",
					"maxclass" : "message",
					"numinlets" : 2,
					"numoutlets" : 1,
					"outlettype" : [ "" ],
					"patching_rect" : [ 263.068909000000076, 305.0, 117.0, 22.0 ],
					"text" : "bgcolor 0 146 255 0"
				}

			}
, 			{
				"box" : 				{
					"fontname" : "Arial",
					"fontsize" : 12.0,
					"id" : "obj-23",
					"maxclass" : "message",
					"numinlets" : 2,
					"numoutlets" : 1,
					"outlettype" : [ "" ],
					"patching_rect" : [ 91.068909000000076, 252.0, 117.0, 22.0 ],
					"text" : "bgcolor 0 146 255 1"
				}

			}
, 			{
				"box" : 				{
					"bgcolor" : [ 0.0, 146.0, 255.0, 0.0 ],
					"id" : "obj-5",
					"ignoreclick" : 1,
					"maxclass" : "textbutton",
					"numinlets" : 1,
					"numoutlets" : 3,
					"outlettype" : [ "", "", "int" ],
					"parameter_enable" : 0,
					"patching_rect" : [ 96.068909000000076, 403.0, 10.243361, 10.197549 ],
					"presentation" : 1,
					"presentation_rect" : [ 27.0, 5.0, 6.0, 6.0 ],
					"rounded" : 8.0,
					"text" : ""
				}

			}
, 			{
				"box" : 				{
					"fontname" : "Arial",
					"fontsize" : 12.0,
					"id" : "obj-11",
					"maxclass" : "newobj",
					"numinlets" : 2,
					"numoutlets" : 1,
					"outlettype" : [ "int" ],
					"patching_rect" : [ 301.568909000000019, 458.470001000000025, 32.5, 22.0 ],
					"text" : "!= 1"
				}

			}
, 			{
				"box" : 				{
					"fontname" : "Arial",
					"fontsize" : 12.0,
					"id" : "obj-12",
					"maxclass" : "newobj",
					"numinlets" : 2,
					"numoutlets" : 1,
					"outlettype" : [ "signal" ],
					"patching_rect" : [ 302.0, 505.451171999999985, 133.0, 22.0 ],
					"text" : "gate~ 1 1"
				}

			}
, 			{
				"box" : 				{
					"activebgcolor" : [ 0.572549, 0.615686, 0.658824, 0.0 ],
					"activebgoncolor" : [ 0.278431, 0.839216, 1.0, 1.0 ],
					"activetextcolor" : [ 1.0, 1.0, 1.0, 0.57 ],
					"activetextoncolor" : [ 0.0, 0.019608, 0.078431, 1.0 ],
					"bgcolor" : [ 0.101961, 0.101961, 0.101961, 0.78 ],
					"bordercolor" : [ 0.0, 0.019608, 0.078431, 0.37 ],
					"id" : "obj-20",
					"maxclass" : "live.text",
					"numinlets" : 1,
					"numoutlets" : 2,
					"outlettype" : [ "", "" ],
					"parameter_enable" : 1,
					"patching_rect" : [ 301.568909000000019, 414.706420999999978, 40.0, 20.0 ],
					"presentation" : 1,
					"presentation_rect" : [ 44.0, 18.623149871826172, 52.0, 14.764644622802734 ],
					"saved_attribute_attributes" : 					{
						"activebgcolor" : 						{
							"expression" : ""
						}
,
						"activebgoncolor" : 						{
							"expression" : ""
						}
,
						"activetextcolor" : 						{
							"expression" : ""
						}
,
						"activetextoncolor" : 						{
							"expression" : ""
						}
,
						"bgcolor" : 						{
							"expression" : ""
						}
,
						"bordercolor" : 						{
							"expression" : ""
						}
,
						"textcolor" : 						{
							"expression" : ""
						}
,
						"valueof" : 						{
							"parameter_defer" : 1,
							"parameter_enum" : [ "val1", "val2" ],
							"parameter_initial" : [ 0.0 ],
							"parameter_initial_enable" : 1,
							"parameter_longname" : "mute",
							"parameter_mmax" : 1,
							"parameter_modmode" : 0,
							"parameter_shortname" : "mute",
							"parameter_type" : 2
						}

					}
,
					"text" : "mute",
					"textcolor" : [ 1.0, 1.0, 1.0, 1.0 ],
					"texton" : "mute",
					"varname" : "mute"
				}

			}
, 			{
				"box" : 				{
					"comment" : "signal output",
					"id" : "obj-16",
					"index" : 0,
					"maxclass" : "outlet",
					"numinlets" : 1,
					"numoutlets" : 0,
					"patching_rect" : [ 301.568909000000019, 565.0, 25.0, 25.0 ]
				}

			}
, 			{
				"box" : 				{
					"comment" : "",
					"id" : "obj-3",
					"index" : 0,
					"maxclass" : "inlet",
					"numinlets" : 0,
					"numoutlets" : 1,
					"outlettype" : [ "" ],
					"patching_rect" : [ 423.0, 31.0, 25.0, 25.0 ]
				}

			}
, 			{
				"box" : 				{
					"fontname" : "Arial",
					"fontsize" : 12.0,
					"id" : "obj-1",
					"maxclass" : "newobj",
					"numinlets" : 1,
					"numoutlets" : 2,
					"outlettype" : [ "bang", "bang" ],
					"patching_rect" : [ 423.0, 116.0, 101.75, 22.0 ],
					"text" : "edge~"
				}

			}
, 			{
				"box" : 				{
					"fontname" : "Arial",
					"fontsize" : 13.0,
					"id" : "obj-24",
					"maxclass" : "newobj",
					"numinlets" : 2,
					"numoutlets" : 1,
					"outlettype" : [ "signal" ],
					"patching_rect" : [ 423.0, 69.0, 47.0, 23.0 ],
					"text" : ">~ 2.5"
				}

			}
, 			{
				"box" : 				{
					"activedialcolor" : [ 0.278431, 0.839216, 1.0, 1.0 ],
					"activefgdialcolor" : [ 0.65098, 0.666667, 0.662745, 1.0 ],
					"activeneedlecolor" : [ 1.0, 1.0, 1.0, 0.7 ],
					"focusbordercolor" : [ 1.0, 1.0, 1.0, 1.0 ],
					"id" : "obj-45",
					"maxclass" : "live.dial",
					"numinlets" : 1,
					"numoutlets" : 2,
					"outlettype" : [ "", "float" ],
					"parameter_enable" : 1,
					"patching_rect" : [ 506.0, 234.0, 44.0, 48.0 ],
					"presentation" : 1,
					"presentation_rect" : [ 0.0, 42.623149871826172, 44.0, 48.0 ],
					"saved_attribute_attributes" : 					{
						"activedialcolor" : 						{
							"expression" : ""
						}
,
						"activefgdialcolor" : 						{
							"expression" : ""
						}
,
						"activeneedlecolor" : 						{
							"expression" : ""
						}
,
						"focusbordercolor" : 						{
							"expression" : ""
						}
,
						"textcolor" : 						{
							"expression" : ""
						}
,
						"valueof" : 						{
							"parameter_exponent" : 5.0,
							"parameter_initial" : [ 100 ],
							"parameter_initial_enable" : 1,
							"parameter_longname" : "Attack",
							"parameter_mmax" : 60000.0,
							"parameter_modmode" : 0,
							"parameter_shortname" : "Attack",
							"parameter_type" : 0,
							"parameter_unitstyle" : 2
						}

					}
,
					"textcolor" : [ 1.0, 1.0, 1.0, 0.7 ],
					"varname" : "Attack"
				}

			}
, 			{
				"box" : 				{
					"activedialcolor" : [ 0.278431, 0.839216, 1.0, 1.0 ],
					"activefgdialcolor" : [ 0.65098, 0.666667, 0.662745, 1.0 ],
					"activeneedlecolor" : [ 1.0, 1.0, 1.0, 0.7 ],
					"focusbordercolor" : [ 1.0, 1.0, 1.0, 1.0 ],
					"id" : "obj-32",
					"maxclass" : "live.dial",
					"numinlets" : 1,
					"numoutlets" : 2,
					"outlettype" : [ "", "float" ],
					"parameter_enable" : 1,
					"patching_rect" : [ 569.0, 234.0, 44.0, 48.0 ],
					"presentation" : 1,
					"presentation_rect" : [ 44.0, 42.623149871826172, 44.0, 48.0 ],
					"saved_attribute_attributes" : 					{
						"activedialcolor" : 						{
							"expression" : ""
						}
,
						"activefgdialcolor" : 						{
							"expression" : ""
						}
,
						"activeneedlecolor" : 						{
							"expression" : ""
						}
,
						"focusbordercolor" : 						{
							"expression" : ""
						}
,
						"textcolor" : 						{
							"expression" : ""
						}
,
						"valueof" : 						{
							"parameter_exponent" : 5.0,
							"parameter_initial" : [ 100 ],
							"parameter_initial_enable" : 1,
							"parameter_longname" : "Decay",
							"parameter_mmax" : 60000.0,
							"parameter_modmode" : 0,
							"parameter_shortname" : "Decay",
							"parameter_type" : 0,
							"parameter_unitstyle" : 2
						}

					}
,
					"textcolor" : [ 1.0, 1.0, 1.0, 0.7 ],
					"varname" : "Decay"
				}

			}
, 			{
				"box" : 				{
					"fontname" : "Arial",
					"fontsize" : 12.0,
					"id" : "obj-9",
					"maxclass" : "newobj",
					"numinlets" : 1,
					"numoutlets" : 4,
					"outlettype" : [ "", "", "", "" ],
					"patching_rect" : [ 29.173828, 119.451172, 59.5, 22.0 ],
					"restore" : 					{
						"Attack" : [ 0.0 ],
						"Decay" : [ 462.741907497430475 ],
						"mute" : [ 0.0 ]
					}
,
					"text" : "autopattr",
					"varname" : "u150004087"
				}

			}
, 			{
				"box" : 				{
					"fontname" : "Ableton Sans Bold Regular",
					"fontsize" : 9.0,
					"id" : "obj-8",
					"maxclass" : "comment",
					"numinlets" : 1,
					"numoutlets" : 0,
					"patching_rect" : [ 341.784485000000018, 569.0, 37.0, 17.0 ],
					"presentation" : 1,
					"presentation_rect" : [ 0.0, 95.9613037109375, 38.0, 17.0 ],
					"text" : "Signal",
					"textcolor" : [ 1.0, 1.0, 1.0, 1.0 ]
				}

			}
, 			{
				"box" : 				{
					"fontname" : "Ableton Sans Bold Regular",
					"fontsize" : 9.0,
					"id" : "obj-19",
					"maxclass" : "comment",
					"numinlets" : 1,
					"numoutlets" : 0,
					"patching_rect" : [ 462.0, 31.0, 31.0, 17.0 ],
					"presentation" : 1,
					"presentation_rect" : [ 0.0, -0.0, 31.0, 17.0 ],
					"text" : "Gate",
					"textcolor" : [ 1.0, 1.0, 1.0, 1.0 ]
				}

			}
, 			{
				"box" : 				{
					"fontname" : "Ableton Sans Bold Regular",
					"fontsize" : 9.0,
					"id" : "obj-13",
					"maxclass" : "comment",
					"numinlets" : 1,
					"numoutlets" : 0,
					"patching_rect" : [ 29.173828, 60.0, 23.0, 17.0 ],
					"presentation" : 1,
					"presentation_rect" : [ 3.0, 15.623149871826172, 23.0, 17.0 ],
					"text" : "AD",
					"textcolor" : [ 1.0, 1.0, 1.0, 1.0 ]
				}

			}
, 			{
				"box" : 				{
					"background" : 1,
					"bgmode" : 0,
					"border" : 0,
					"clickthrough" : 0,
					"enablehscroll" : 0,
					"enablevscroll" : 0,
					"id" : "obj-4",
					"lockeddragscroll" : 0,
					"lockedsize" : 0,
					"maxclass" : "bpatcher",
					"name" : "background_sm.maxpat",
					"numinlets" : 0,
					"numoutlets" : 0,
					"offset" : [ 0.0, 0.0 ],
					"patching_rect" : [ 29.173828, 37.0, 239.0, 10.0 ],
					"presentation" : 1,
					"presentation_rect" : [ 0.0, 0.0, 131.0, 132.0 ],
					"viewvisibility" : 1
				}

			}
 ],
		"lines" : [ 			{
				"patchline" : 				{
					"destination" : [ "obj-14", 0 ],
					"order" : 0,
					"source" : [ "obj-1", 0 ]
				}

			}
, 			{
				"patchline" : 				{
					"destination" : [ "obj-23", 0 ],
					"order" : 2,
					"source" : [ "obj-1", 0 ]
				}

			}
, 			{
				"patchline" : 				{
					"destination" : [ "obj-6", 0 ],
					"order" : 1,
					"source" : [ "obj-1", 0 ]
				}

			}
, 			{
				"patchline" : 				{
					"destination" : [ "obj-14", 1 ],
					"source" : [ "obj-10", 0 ]
				}

			}
, 			{
				"patchline" : 				{
					"destination" : [ "obj-12", 0 ],
					"source" : [ "obj-11", 0 ]
				}

			}
, 			{
				"patchline" : 				{
					"destination" : [ "obj-16", 0 ],
					"source" : [ "obj-12", 0 ]
				}

			}
, 			{
				"patchline" : 				{
					"destination" : [ "obj-7", 0 ],
					"source" : [ "obj-14", 0 ]
				}

			}
, 			{
				"patchline" : 				{
					"destination" : [ "obj-12", 1 ],
					"source" : [ "obj-15", 0 ]
				}

			}
, 			{
				"patchline" : 				{
					"destination" : [ "obj-11", 0 ],
					"source" : [ "obj-20", 0 ]
				}

			}
, 			{
				"patchline" : 				{
					"destination" : [ "obj-5", 0 ],
					"source" : [ "obj-23", 0 ]
				}

			}
, 			{
				"patchline" : 				{
					"destination" : [ "obj-1", 0 ],
					"source" : [ "obj-24", 0 ]
				}

			}
, 			{
				"patchline" : 				{
					"destination" : [ "obj-5", 0 ],
					"source" : [ "obj-25", 0 ]
				}

			}
, 			{
				"patchline" : 				{
					"destination" : [ "obj-24", 0 ],
					"source" : [ "obj-3", 0 ]
				}

			}
, 			{
				"patchline" : 				{
					"destination" : [ "obj-10", 1 ],
					"source" : [ "obj-32", 0 ]
				}

			}
, 			{
				"patchline" : 				{
					"destination" : [ "obj-10", 0 ],
					"source" : [ "obj-45", 0 ]
				}

			}
, 			{
				"patchline" : 				{
					"destination" : [ "obj-25", 0 ],
					"source" : [ "obj-6", 0 ]
				}

			}
, 			{
				"patchline" : 				{
					"destination" : [ "obj-15", 0 ],
					"source" : [ "obj-7", 0 ]
				}

			}
 ],
		"parameters" : 		{
			"obj-20" : [ "mute", "mute", 0 ],
			"obj-32" : [ "Decay", "Decay", 0 ],
			"obj-45" : [ "Attack", "Attack", 0 ],
			"parameterbanks" : 			{
				"0" : 				{
					"index" : 0,
					"name" : "",
					"parameters" : [ "-", "-", "-", "-", "-", "-", "-", "-" ]
				}

			}
,
			"inherited_shortname" : 1
		}
,
		"dependency_cache" : [ 			{
				"name" : "background_sm.maxpat",
				"bootpath" : "C74:/packages/BEAP/misc",
				"type" : "JSON",
				"implicit" : 1
			}
 ],
		"autosave" : 0,
		"bgcolor" : [ 1.0, 1.0, 1.0, 0.0 ]
	}

}
