{
	"patcher" : 	{
		"fileversion" : 1,
		"appversion" : 		{
			"major" : 8,
			"minor" : 0,
			"revision" : 1,
			"architecture" : "x64",
			"modernui" : 1
		}
,
		"classnamespace" : "box",
		"rect" : [ 34.0, 79.0, 862.0, 641.0 ],
		"bglocked" : 0,
		"openinpresentation" : 0,
		"default_fontsize" : 10.0,
		"default_fontface" : 0,
		"default_fontname" : "Ableton Sans Bold Regular",
		"gridonopen" : 1,
		"gridsize" : [ 15.0, 15.0 ],
		"gridsnaponopen" : 1,
		"objectsnaponopen" : 1,
		"statusbarvisible" : 2,
		"toolbarvisible" : 1,
		"lefttoolbarpinned" : 0,
		"toptoolbarpinned" : 0,
		"righttoolbarpinned" : 0,
		"bottomtoolbarpinned" : 0,
		"toolbars_unpinned_last_save" : 0,
		"tallnewobj" : 0,
		"boxanimatetime" : 200,
		"enablehscroll" : 1,
		"enablevscroll" : 1,
		"devicewidth" : 0.0,
		"description" : "",
		"digest" : "",
		"tags" : "",
		"style" : "",
		"subpatcher_template" : "",
		"boxes" : [ 			{
				"box" : 				{
					"bgmode" : 0,
					"border" : 0,
					"clickthrough" : 0,
					"embed" : 1,
					"enablehscroll" : 0,
					"enablevscroll" : 0,
					"hint" : "RC-curve AHD envelope",
					"id" : "obj-10",
					"lockeddragscroll" : 0,
					"maxclass" : "bpatcher",
					"numinlets" : 5,
					"numoutlets" : 1,
					"offset" : [ 0.0, 0.0 ],
					"outlettype" : [ "multichannelsignal" ],
					"patcher" : 					{
						"fileversion" : 1,
						"appversion" : 						{
							"major" : 8,
							"minor" : 0,
							"revision" : 1,
							"architecture" : "x64",
							"modernui" : 1
						}
,
						"classnamespace" : "box",
						"rect" : [ 92.0, 112.0, 1102.0, 728.0 ],
						"bglocked" : 0,
						"openinpresentation" : 1,
						"default_fontsize" : 12.0,
						"default_fontface" : 0,
						"default_fontname" : "Arial",
						"gridonopen" : 1,
						"gridsize" : [ 15.0, 15.0 ],
						"gridsnaponopen" : 1,
						"objectsnaponopen" : 1,
						"statusbarvisible" : 1,
						"toolbarvisible" : 1,
						"lefttoolbarpinned" : 0,
						"toptoolbarpinned" : 0,
						"righttoolbarpinned" : 0,
						"bottomtoolbarpinned" : 0,
						"toolbars_unpinned_last_save" : 0,
						"tallnewobj" : 0,
						"boxanimatetime" : 200,
						"enablehscroll" : 1,
						"enablevscroll" : 1,
						"devicewidth" : 0.0,
						"description" : "AHD Envelope.  Fixed duration (no sustain)",
						"digest" : "",
						"tags" : "",
						"style" : "",
						"subpatcher_template" : "",
						"boxes" : [ 							{
								"box" : 								{
									"id" : "obj-49",
									"maxclass" : "newobj",
									"numinlets" : 1,
									"numoutlets" : 4,
									"outlettype" : [ "", "", "", "" ],
									"patching_rect" : [ 39.0, 172.0, 58.0, 20.0 ],
									"restore" : 									{
										"Attack" : [ 1.0 ],
										"Decay" : [ 100.0 ],
										"Hold" : [ 500.0 ],
										"mute" : [ 0.0 ]
									}
,
									"text" : "autopattr",
									"varname" : "u583001394"
								}

							}
, 							{
								"box" : 								{
									"activedialcolor" : [ 0.278431, 0.839216, 1.0, 1.0 ],
									"activefgdialcolor" : [ 0.65098, 0.666667, 0.662745, 1.0 ],
									"activeneedlecolor" : [ 1.0, 1.0, 1.0, 0.701961 ],
									"focusbordercolor" : [ 1.0, 1.0, 1.0, 1.0 ],
									"id" : "obj-30",
									"maxclass" : "live.dial",
									"numinlets" : 1,
									"numoutlets" : 2,
									"outlettype" : [ "", "float" ],
									"parameter_enable" : 1,
									"patching_rect" : [ 689.340514999999982, 422.910735999999986, 44.0, 48.0 ],
									"presentation" : 1,
									"presentation_rect" : [ 55.0, 42.292228698730469, 44.0, 48.0 ],
									"saved_attribute_attributes" : 									{
										"valueof" : 										{
											"parameter_initial" : [ 500.0 ],
											"parameter_shortname" : "Hold",
											"parameter_type" : 0,
											"parameter_unitstyle" : 2,
											"parameter_exponent" : 4.0,
											"parameter_longname" : "Hold",
											"parameter_initial_enable" : 1,
											"parameter_mmax" : 10000.0
										}

									}
,
									"textcolor" : [ 1.0, 1.0, 1.0, 0.701961 ],
									"varname" : "Hold"
								}

							}
, 							{
								"box" : 								{
									"id" : "obj-6",
									"maxclass" : "comment",
									"numinlets" : 1,
									"numoutlets" : 0,
									"patching_rect" : [ 26.173828, 79.5, 379.0, 18.0 ],
									"text" : "## Attack hold decay envelope with voltage controlled parameters ## "
								}

							}
, 							{
								"box" : 								{
									"fontname" : "Ableton Sans Bold Regular",
									"fontsize" : 9.0,
									"id" : "obj-26",
									"maxclass" : "comment",
									"numinlets" : 1,
									"numoutlets" : 0,
									"patching_rect" : [ 521.673827999999958, 352.29892000000001, 37.0, 17.0 ],
									"presentation" : 1,
									"presentation_rect" : [ 29.95098876953125, -0.376850008964539, 24.0, 17.0 ],
									"text" : "Vel",
									"textcolor" : [ 1.0, 1.0, 1.0, 1.0 ],
									"textjustification" : 1
								}

							}
, 							{
								"box" : 								{
									"fontname" : "Arial",
									"fontsize" : 12.0,
									"id" : "obj-21",
									"maxclass" : "message",
									"numinlets" : 2,
									"numoutlets" : 1,
									"outlettype" : [ "" ],
									"patching_rect" : [ 534.428528000000028, 437.206420999999978, 32.5, 20.0 ],
									"text" : "5."
								}

							}
, 							{
								"box" : 								{
									"comment" : "Velocity 0-5V",
									"hint" : "Velocity 0-5V",
									"id" : "obj-4",
									"index" : 2,
									"maxclass" : "inlet",
									"numinlets" : 0,
									"numoutlets" : 1,
									"outlettype" : [ "" ],
									"patching_rect" : [ 521.673827999999958, 384.910735999999986, 25.0, 25.0 ]
								}

							}
, 							{
								"box" : 								{
									"fontname" : "Arial",
									"fontsize" : 12.0,
									"id" : "obj-2",
									"maxclass" : "newobj",
									"numinlets" : 2,
									"numoutlets" : 1,
									"outlettype" : [ "multichannelsignal" ],
									"patching_rect" : [ 458.673828125, 437.2064208984375, 62.0, 20.0 ],
									"text" : "mc.>~ 2.5"
								}

							}
, 							{
								"box" : 								{
									"fontname" : "Arial",
									"fontsize" : 12.0,
									"id" : "obj-43",
									"linecount" : 3,
									"maxclass" : "comment",
									"numinlets" : 1,
									"numoutlets" : 0,
									"patching_rect" : [ 39.0, 232.0, 150.0, 42.0 ],
									"text" : "Using > 0 instead of 2.5 because this module is velocity sensitive"
								}

							}
, 							{
								"box" : 								{
									"fontname" : "Arial",
									"fontsize" : 12.0,
									"id" : "obj-36",
									"maxclass" : "newobj",
									"numinlets" : 2,
									"numoutlets" : 1,
									"outlettype" : [ "multichannelsignal" ],
									"patcher" : 									{
										"fileversion" : 1,
										"appversion" : 										{
											"major" : 8,
											"minor" : 0,
											"revision" : 1,
											"architecture" : "x64",
											"modernui" : 1
										}
,
										"classnamespace" : "box",
										"rect" : [ 34.0, 79.0, 640.0, 480.0 ],
										"bglocked" : 0,
										"openinpresentation" : 0,
										"default_fontsize" : 10.0,
										"default_fontface" : 0,
										"default_fontname" : "Ableton Sans Bold Regular",
										"gridonopen" : 1,
										"gridsize" : [ 15.0, 15.0 ],
										"gridsnaponopen" : 1,
										"objectsnaponopen" : 1,
										"statusbarvisible" : 2,
										"toolbarvisible" : 1,
										"lefttoolbarpinned" : 0,
										"toptoolbarpinned" : 0,
										"righttoolbarpinned" : 0,
										"bottomtoolbarpinned" : 0,
										"toolbars_unpinned_last_save" : 0,
										"tallnewobj" : 0,
										"boxanimatetime" : 200,
										"enablehscroll" : 1,
										"enablevscroll" : 1,
										"devicewidth" : 0.0,
										"description" : "",
										"digest" : "",
										"tags" : "",
										"style" : "",
										"subpatcher_template" : "",
										"boxes" : [ 											{
												"box" : 												{
													"fontname" : "Ableton Sans Bold Regular",
													"fontsize" : 10.0,
													"id" : "obj-8",
													"linecount" : 2,
													"maxclass" : "comment",
													"numinlets" : 1,
													"numoutlets" : 0,
													"patching_rect" : [ 253.0, 178.0, 61.0, 30.0 ],
													"text" : "0-5V -> 0-1"
												}

											}
, 											{
												"box" : 												{
													"data" : 													{
														"patcher" : 														{
															"fileversion" : 1,
															"appversion" : 															{
																"major" : 8,
																"minor" : 0,
																"revision" : 1,
																"architecture" : "x64",
																"modernui" : 1
															}
,
															"classnamespace" : "dsp.gen",
															"rect" : [ 50.0, 94.0, 257.0, 221.0 ],
															"bglocked" : 0,
															"openinpresentation" : 0,
															"default_fontsize" : 10.0,
															"default_fontface" : 0,
															"default_fontname" : "Ableton Sans Bold Regular",
															"gridonopen" : 1,
															"gridsize" : [ 15.0, 15.0 ],
															"gridsnaponopen" : 1,
															"objectsnaponopen" : 1,
															"statusbarvisible" : 2,
															"toolbarvisible" : 1,
															"lefttoolbarpinned" : 0,
															"toptoolbarpinned" : 0,
															"righttoolbarpinned" : 0,
															"bottomtoolbarpinned" : 0,
															"toolbars_unpinned_last_save" : 0,
															"tallnewobj" : 0,
															"boxanimatetime" : 200,
															"enablehscroll" : 1,
															"enablevscroll" : 1,
															"devicewidth" : 0.0,
															"description" : "",
															"digest" : "",
															"tags" : "",
															"style" : "",
															"subpatcher_template" : "",
															"boxes" : [ 																{
																	"box" : 																	{
																		"maxclass" : "comment",
																		"text" : "This is really just a pass through, but it allows us handle a control-rate default arg.",
																		"linecount" : 4,
																		"id" : "obj-7",
																		"fontsize" : 10.0,
																		"numinlets" : 1,
																		"fontname" : "Ableton Sans Bold Regular",
																		"numoutlets" : 0,
																		"patching_rect" : [ 79.0, 69.0, 137.0, 51.0 ]
																	}

																}
, 																{
																	"box" : 																	{
																		"maxclass" : "newobj",
																		"text" : "* 0.2",
																		"id" : "obj-5",
																		"fontsize" : 10.0,
																		"numinlets" : 1,
																		"fontname" : "Ableton Sans Bold Regular",
																		"numoutlets" : 1,
																		"patching_rect" : [ 50.0, 67.0, 31.0, 18.0 ],
																		"outlettype" : [ "" ]
																	}

																}
, 																{
																	"box" : 																	{
																		"maxclass" : "newobj",
																		"text" : "in 1",
																		"id" : "obj-1",
																		"fontsize" : 10.0,
																		"numinlets" : 0,
																		"fontname" : "Ableton Sans Bold Regular",
																		"numoutlets" : 1,
																		"patching_rect" : [ 50.0, 14.0, 28.0, 18.0 ],
																		"outlettype" : [ "" ]
																	}

																}
, 																{
																	"box" : 																	{
																		"maxclass" : "newobj",
																		"text" : "out 1",
																		"id" : "obj-4",
																		"fontsize" : 10.0,
																		"numinlets" : 1,
																		"fontname" : "Ableton Sans Bold Regular",
																		"numoutlets" : 0,
																		"patching_rect" : [ 50.0, 168.0, 34.0, 18.0 ]
																	}

																}
 ],
															"lines" : [ 																{
																	"patchline" : 																	{
																		"source" : [ "obj-5", 0 ],
																		"destination" : [ "obj-4", 0 ]
																	}

																}
, 																{
																	"patchline" : 																	{
																		"source" : [ "obj-1", 0 ],
																		"destination" : [ "obj-5", 0 ]
																	}

																}
 ],
															"bgcolor" : [ 0.9, 0.9, 0.9, 1.0 ],
															"editing_bgcolor" : [ 0.9, 0.9, 0.9, 1.0 ]
														}

													}
,
													"fontname" : "Ableton Sans Bold Regular",
													"fontsize" : 10.0,
													"id" : "obj-5",
													"maxclass" : "newobj",
													"numinlets" : 1,
													"numoutlets" : 1,
													"outlettype" : [ "multichannelsignal" ],
													"patching_rect" : [ 156.5, 178.0, 48.0, 20.0 ],
													"text" : "mc.gen~"
												}

											}
, 											{
												"box" : 												{
													"fontname" : "Arial",
													"fontsize" : 12.0,
													"id" : "obj-3",
													"maxclass" : "comment",
													"numinlets" : 1,
													"numoutlets" : 0,
													"patching_rect" : [ 42.5, 83.0, 37.0, 18.0 ],
													"text" : "Gate"
												}

											}
, 											{
												"box" : 												{
													"comment" : "",
													"id" : "obj-1",
													"index" : 2,
													"maxclass" : "inlet",
													"numinlets" : 0,
													"numoutlets" : 1,
													"outlettype" : [ "" ],
													"patching_rect" : [ 156.5, 83.0, 25.0, 25.0 ]
												}

											}
, 											{
												"box" : 												{
													"fontname" : "Arial",
													"fontsize" : 12.0,
													"id" : "obj-2",
													"maxclass" : "comment",
													"numinlets" : 1,
													"numoutlets" : 0,
													"patching_rect" : [ 181.5, 85.5, 36.0, 18.0 ],
													"text" : "\"Vel\""
												}

											}
, 											{
												"box" : 												{
													"fontname" : "Arial",
													"fontsize" : 12.0,
													"id" : "obj-6",
													"maxclass" : "newobj",
													"numinlets" : 2,
													"numoutlets" : 1,
													"outlettype" : [ "multichannelsignal" ],
													"patching_rect" : [ 85.0, 242.0, 90.5, 20.0 ],
													"text" : "mc.*~"
												}

											}
, 											{
												"box" : 												{
													"comment" : "",
													"id" : "obj-4",
													"index" : 1,
													"maxclass" : "outlet",
													"numinlets" : 1,
													"numoutlets" : 0,
													"patching_rect" : [ 85.0, 299.0, 25.0, 25.0 ]
												}

											}
, 											{
												"box" : 												{
													"fontname" : "Arial",
													"fontsize" : 12.0,
													"id" : "obj-15",
													"maxclass" : "newobj",
													"numinlets" : 2,
													"numoutlets" : 1,
													"outlettype" : [ "multichannelsignal" ],
													"patching_rect" : [ 85.0, 209.0, 52.0, 20.0 ],
													"text" : "mc.>~ 0"
												}

											}
, 											{
												"box" : 												{
													"fontname" : "Arial",
													"fontsize" : 12.0,
													"id" : "obj-30",
													"maxclass" : "newobj",
													"numinlets" : 1,
													"numoutlets" : 1,
													"outlettype" : [ "multichannelsignal" ],
													"patching_rect" : [ 85.0, 178.0, 61.0, 20.0 ],
													"text" : "mc.delta~"
												}

											}
, 											{
												"box" : 												{
													"fontname" : "Arial",
													"fontsize" : 12.0,
													"id" : "obj-33",
													"maxclass" : "newobj",
													"numinlets" : 2,
													"numoutlets" : 1,
													"outlettype" : [ "multichannelsignal" ],
													"patching_rect" : [ 85.0, 143.0, 52.0, 20.0 ],
													"text" : "mc.>~ 0"
												}

											}
, 											{
												"box" : 												{
													"comment" : "",
													"id" : "obj-34",
													"index" : 1,
													"maxclass" : "inlet",
													"numinlets" : 0,
													"numoutlets" : 1,
													"outlettype" : [ "multichannelsignal" ],
													"patching_rect" : [ 85.0, 83.0, 25.0, 25.0 ]
												}

											}
 ],
										"lines" : [ 											{
												"patchline" : 												{
													"destination" : [ "obj-5", 0 ],
													"source" : [ "obj-1", 0 ]
												}

											}
, 											{
												"patchline" : 												{
													"destination" : [ "obj-6", 0 ],
													"source" : [ "obj-15", 0 ]
												}

											}
, 											{
												"patchline" : 												{
													"destination" : [ "obj-15", 0 ],
													"source" : [ "obj-30", 0 ]
												}

											}
, 											{
												"patchline" : 												{
													"destination" : [ "obj-30", 0 ],
													"source" : [ "obj-33", 0 ]
												}

											}
, 											{
												"patchline" : 												{
													"destination" : [ "obj-33", 0 ],
													"source" : [ "obj-34", 0 ]
												}

											}
, 											{
												"patchline" : 												{
													"destination" : [ "obj-6", 1 ],
													"source" : [ "obj-5", 0 ]
												}

											}
, 											{
												"patchline" : 												{
													"destination" : [ "obj-4", 0 ],
													"source" : [ "obj-6", 0 ]
												}

											}
 ],
										"bgfillcolor_type" : "gradient",
										"bgfillcolor_color1" : [ 0.435294, 0.462745, 0.498039, 1.0 ],
										"bgfillcolor_color2" : [ 0.290196, 0.309804, 0.301961, 1.0 ],
										"bgfillcolor_color" : [ 0.290196, 0.309804, 0.301961, 1.0 ]
									}
,
									"patching_rect" : [ 458.673828000000015, 495.910735999999986, 82.0, 20.0 ],
									"saved_object_attributes" : 									{
										"description" : "",
										"digest" : "",
										"fontname" : "Ableton Sans Bold Regular",
										"fontsize" : 10.0,
										"globalpatchername" : "",
										"tags" : ""
									}
,
									"text" : "p RisingEdge"
								}

							}
, 							{
								"box" : 								{
									"fontname" : "Arial",
									"fontsize" : 12.0,
									"format" : 6,
									"id" : "obj-40",
									"maxclass" : "flonum",
									"numinlets" : 1,
									"numoutlets" : 2,
									"outlettype" : [ "", "bang" ],
									"parameter_enable" : 0,
									"patching_rect" : [ 593.007141000000047, 422.910735999999986, 50.0, 20.0 ]
								}

							}
, 							{
								"box" : 								{
									"fontname" : "Arial",
									"fontsize" : 12.0,
									"id" : "obj-41",
									"maxclass" : "newobj",
									"numinlets" : 1,
									"numoutlets" : 1,
									"outlettype" : [ "" ],
									"patching_rect" : [ 593.007141000000047, 389.910735999999986, 105.0, 20.0 ],
									"text" : "expr log10($f1)+1"
								}

							}
, 							{
								"box" : 								{
									"fontname" : "Arial",
									"fontsize" : 12.0,
									"format" : 6,
									"id" : "obj-38",
									"maxclass" : "flonum",
									"numinlets" : 1,
									"numoutlets" : 2,
									"outlettype" : [ "", "bang" ],
									"parameter_enable" : 0,
									"patching_rect" : [ 689.340514999999982, 528.910706000000005, 50.0, 20.0 ]
								}

							}
, 							{
								"box" : 								{
									"fontname" : "Arial",
									"fontsize" : 12.0,
									"id" : "obj-39",
									"maxclass" : "newobj",
									"numinlets" : 1,
									"numoutlets" : 1,
									"outlettype" : [ "" ],
									"patching_rect" : [ 689.340514999999982, 495.910735999999986, 105.0, 20.0 ],
									"text" : "expr log10($f1)+1"
								}

							}
, 							{
								"box" : 								{
									"fontname" : "Arial",
									"fontsize" : 12.0,
									"format" : 6,
									"id" : "obj-37",
									"maxclass" : "flonum",
									"numinlets" : 1,
									"numoutlets" : 2,
									"outlettype" : [ "", "bang" ],
									"parameter_enable" : 0,
									"patching_rect" : [ 816.340514999999982, 565.763550000000009, 50.0, 20.0 ]
								}

							}
, 							{
								"box" : 								{
									"fontname" : "Arial",
									"fontsize" : 12.0,
									"id" : "obj-35",
									"maxclass" : "newobj",
									"numinlets" : 1,
									"numoutlets" : 1,
									"outlettype" : [ "" ],
									"patching_rect" : [ 816.340514999999982, 528.910706000000005, 105.0, 20.0 ],
									"text" : "expr log10($f1)+1"
								}

							}
, 							{
								"box" : 								{
									"fontname" : "Ableton Sans Bold Regular",
									"fontsize" : 9.0,
									"id" : "obj-10",
									"maxclass" : "comment",
									"numinlets" : 1,
									"numoutlets" : 0,
									"patching_rect" : [ 747.673889000000031, 533.910766999999964, 37.0, 17.0 ],
									"presentation" : 1,
									"presentation_rect" : [ 123.0, -0.376850008964539, 27.0, 17.0 ],
									"text" : "Dcy",
									"textcolor" : [ 1.0, 1.0, 1.0, 1.0 ],
									"textjustification" : 2
								}

							}
, 							{
								"box" : 								{
									"fontname" : "Ableton Sans Bold Regular",
									"fontsize" : 9.0,
									"id" : "obj-7",
									"maxclass" : "comment",
									"numinlets" : 1,
									"numoutlets" : 0,
									"patching_rect" : [ 636.673889000000031, 528.910766999999964, 30.0, 17.0 ],
									"presentation" : 1,
									"presentation_rect" : [ 94.0, -0.376850008964539, 30.0, 17.0 ],
									"text" : "Hold",
									"textcolor" : [ 1.0, 1.0, 1.0, 1.0 ],
									"textjustification" : 1
								}

							}
, 							{
								"box" : 								{
									"fontname" : "Ableton Sans Bold Regular",
									"fontsize" : 9.0,
									"id" : "obj-5",
									"maxclass" : "comment",
									"numinlets" : 1,
									"numoutlets" : 0,
									"patching_rect" : [ 555.007141000000047, 205.0, 37.0, 17.0 ],
									"presentation" : 1,
									"presentation_rect" : [ 64.0, -0.376850008964539, 25.0, 17.0 ],
									"text" : "Atk",
									"textcolor" : [ 1.0, 1.0, 1.0, 1.0 ],
									"textjustification" : 1
								}

							}
, 							{
								"box" : 								{
									"fontname" : "Arial",
									"fontsize" : 12.0,
									"id" : "obj-22",
									"maxclass" : "newobj",
									"numinlets" : 2,
									"numoutlets" : 1,
									"outlettype" : [ "multichannelsignal" ],
									"patching_rect" : [ 458.673828125, 650.0, 53.0, 20.0 ],
									"text" : "mc.*~ 5."
								}

							}
, 							{
								"box" : 								{
									"activedialcolor" : [ 0.278431, 0.839216, 1.0, 1.0 ],
									"activefgdialcolor" : [ 0.65098, 0.666667, 0.662745, 1.0 ],
									"activeneedlecolor" : [ 1.0, 1.0, 1.0, 0.7 ],
									"focusbordercolor" : [ 1.0, 1.0, 1.0, 1.0 ],
									"id" : "obj-18",
									"maxclass" : "live.dial",
									"numinlets" : 1,
									"numoutlets" : 2,
									"outlettype" : [ "", "float" ],
									"parameter_enable" : 1,
									"patching_rect" : [ 816.340514999999982, 470.910735999999986, 44.0, 48.0 ],
									"presentation" : 1,
									"presentation_rect" : [ 106.0, 42.292228698730469, 44.0, 48.0 ],
									"saved_attribute_attributes" : 									{
										"valueof" : 										{
											"parameter_initial" : [ 100 ],
											"parameter_shortname" : "Decay",
											"parameter_type" : 0,
											"parameter_unitstyle" : 2,
											"parameter_exponent" : 4.0,
											"parameter_longname" : "Decay",
											"parameter_initial_enable" : 1,
											"parameter_mmax" : 10000.0
										}

									}
,
									"textcolor" : [ 1.0, 1.0, 1.0, 0.7 ],
									"varname" : "Decay"
								}

							}
, 							{
								"box" : 								{
									"fontname" : "Arial",
									"fontsize" : 12.0,
									"id" : "obj-14",
									"maxclass" : "newobj",
									"numinlets" : 2,
									"numoutlets" : 2,
									"outlettype" : [ "", "" ],
									"patching_rect" : [ 350.426177999999993, 502.706420999999978, 68.0, 20.0 ],
									"text" : "route done"
								}

							}
, 							{
								"box" : 								{
									"fontname" : "Arial",
									"fontsize" : 12.0,
									"id" : "obj-31",
									"linecount" : 3,
									"maxclass" : "newobj",
									"numinlets" : 1,
									"numoutlets" : 2,
									"outlettype" : [ "", "" ],
									"patching_rect" : [ 233.426177999999993, 431.29892000000001, 136.0, 44.0 ],
									"text" : "patcherargs 1. 4. 70. @analog 0. @max_analog 2."
								}

							}
, 							{
								"box" : 								{
									"comment" : "Decay: 0-5V = 0.1,1,10,100,1000, 10000 ms",
									"id" : "obj-29",
									"index" : 5,
									"maxclass" : "inlet",
									"numinlets" : 0,
									"numoutlets" : 1,
									"outlettype" : [ "" ],
									"patching_rect" : [ 747.673889000000031, 560.469970999999987, 25.0, 25.0 ]
								}

							}
, 							{
								"box" : 								{
									"comment" : "Hold: 0-5V = 0.1,1,10,100,1000, 10000 ms",
									"id" : "obj-28",
									"index" : 4,
									"maxclass" : "inlet",
									"numinlets" : 0,
									"numoutlets" : 1,
									"outlettype" : [ "" ],
									"patching_rect" : [ 651.340576000000056, 565.763550000000009, 25.0, 25.0 ]
								}

							}
, 							{
								"box" : 								{
									"comment" : "Attack: 0-5V = 0.1,1,10,100,1000, 10000 ms",
									"hint" : "Attack: 0-5V = 0.1,1,10,100,1000, 10000 ms",
									"id" : "obj-27",
									"index" : 3,
									"maxclass" : "inlet",
									"numinlets" : 0,
									"numoutlets" : 1,
									"outlettype" : [ "" ],
									"patching_rect" : [ 555.007141000000047, 237.0, 25.0, 25.0 ]
								}

							}
, 							{
								"box" : 								{
									"data" : 									{
										"patcher" : 										{
											"fileversion" : 1,
											"appversion" : 											{
												"major" : 8,
												"minor" : 0,
												"revision" : 1,
												"architecture" : "x64",
												"modernui" : 1
											}
,
											"classnamespace" : "dsp.gen",
											"rect" : [ 109.0, 44.0, 770.0, 723.0 ],
											"bglocked" : 0,
											"openinpresentation" : 0,
											"default_fontsize" : 12.0,
											"default_fontface" : 0,
											"default_fontname" : "Arial",
											"gridonopen" : 1,
											"gridsize" : [ 15.0, 15.0 ],
											"gridsnaponopen" : 1,
											"objectsnaponopen" : 1,
											"statusbarvisible" : 2,
											"toolbarvisible" : 1,
											"lefttoolbarpinned" : 0,
											"toptoolbarpinned" : 0,
											"righttoolbarpinned" : 0,
											"bottomtoolbarpinned" : 0,
											"toolbars_unpinned_last_save" : 0,
											"tallnewobj" : 0,
											"boxanimatetime" : 200,
											"enablehscroll" : 1,
											"enablevscroll" : 1,
											"devicewidth" : 0.0,
											"description" : "",
											"digest" : "",
											"tags" : "",
											"style" : "",
											"subpatcher_template" : "",
											"boxes" : [ 												{
													"box" : 													{
														"maxclass" : "newobj",
														"text" : "10",
														"id" : "obj-14",
														"fontsize" : 12.0,
														"numinlets" : 0,
														"fontname" : "Arial",
														"numoutlets" : 1,
														"patching_rect" : [ 224.666672000000005, 75.0, 24.0, 20.0 ],
														"outlettype" : [ "" ]
													}

												}
, 												{
													"box" : 													{
														"maxclass" : "newobj",
														"text" : "pow",
														"id" : "obj-15",
														"fontsize" : 12.0,
														"numinlets" : 2,
														"fontname" : "Arial",
														"numoutlets" : 1,
														"patching_rect" : [ 224.666672000000005, 117.0, 49.0, 20.0 ],
														"outlettype" : [ "" ]
													}

												}
, 												{
													"box" : 													{
														"maxclass" : "newobj",
														"text" : "- 1",
														"id" : "obj-16",
														"fontsize" : 12.0,
														"numinlets" : 1,
														"fontname" : "Arial",
														"numoutlets" : 1,
														"patching_rect" : [ 254.666672000000005, 75.0, 25.0, 20.0 ],
														"outlettype" : [ "" ]
													}

												}
, 												{
													"box" : 													{
														"maxclass" : "newobj",
														"text" : "10",
														"id" : "obj-11",
														"fontsize" : 12.0,
														"numinlets" : 0,
														"fontname" : "Arial",
														"numoutlets" : 1,
														"patching_rect" : [ 399.333344000000011, 75.0, 24.0, 20.0 ],
														"outlettype" : [ "" ]
													}

												}
, 												{
													"box" : 													{
														"maxclass" : "newobj",
														"text" : "pow",
														"id" : "obj-12",
														"fontsize" : 12.0,
														"numinlets" : 2,
														"fontname" : "Arial",
														"numoutlets" : 1,
														"patching_rect" : [ 399.333344000000011, 117.0, 49.0, 20.0 ],
														"outlettype" : [ "" ]
													}

												}
, 												{
													"box" : 													{
														"maxclass" : "newobj",
														"text" : "- 1",
														"id" : "obj-13",
														"fontsize" : 12.0,
														"numinlets" : 1,
														"fontname" : "Arial",
														"numoutlets" : 1,
														"patching_rect" : [ 429.333344000000011, 75.0, 25.0, 20.0 ],
														"outlettype" : [ "" ]
													}

												}
, 												{
													"box" : 													{
														"maxclass" : "newobj",
														"text" : "10",
														"id" : "obj-10",
														"fontsize" : 12.0,
														"numinlets" : 0,
														"fontname" : "Arial",
														"numoutlets" : 1,
														"patching_rect" : [ 574.0, 75.0, 24.0, 20.0 ],
														"outlettype" : [ "" ]
													}

												}
, 												{
													"box" : 													{
														"maxclass" : "newobj",
														"text" : "pow",
														"id" : "obj-9",
														"fontsize" : 12.0,
														"numinlets" : 2,
														"fontname" : "Arial",
														"numoutlets" : 1,
														"patching_rect" : [ 574.0, 117.0, 49.0, 20.0 ],
														"outlettype" : [ "" ]
													}

												}
, 												{
													"box" : 													{
														"maxclass" : "newobj",
														"text" : "- 1",
														"id" : "obj-3",
														"fontsize" : 12.0,
														"numinlets" : 1,
														"fontname" : "Arial",
														"numoutlets" : 1,
														"patching_rect" : [ 604.0, 75.0, 25.0, 20.0 ],
														"outlettype" : [ "" ]
													}

												}
, 												{
													"box" : 													{
														"maxclass" : "comment",
														"text" : "Peter McCulloch, 2013\npeter.mcculloch@gmail.com",
														"linecount" : 2,
														"id" : "obj-8",
														"fontsize" : 12.0,
														"numinlets" : 1,
														"fontname" : "Arial",
														"numoutlets" : 0,
														"patching_rect" : [ 99.0, 616.0, 161.0, 33.0 ]
													}

												}
, 												{
													"box" : 													{
														"maxclass" : "newobj",
														"text" : "in 4",
														"id" : "obj-7",
														"fontsize" : 12.0,
														"numinlets" : 0,
														"fontname" : "Arial",
														"numoutlets" : 1,
														"patching_rect" : [ 604.0, 14.0, 30.0, 20.0 ],
														"outlettype" : [ "" ]
													}

												}
, 												{
													"box" : 													{
														"maxclass" : "newobj",
														"text" : "in 3",
														"id" : "obj-6",
														"fontsize" : 12.0,
														"numinlets" : 0,
														"fontname" : "Arial",
														"numoutlets" : 1,
														"patching_rect" : [ 429.333344000000011, 14.0, 30.0, 20.0 ],
														"outlettype" : [ "" ]
													}

												}
, 												{
													"box" : 													{
														"maxclass" : "codebox",
														"id" : "obj-5",
														"fontsize" : 12.0,
														"numinlets" : 4,
														"fontname" : "Menlo",
														"numoutlets" : 1,
														"patching_rect" : [ 50.0, 180.0, 543.0, 412.0 ],
														"fontface" : 0,
														"outlettype" : [ "" ],
														"code" : "History hold_count(0), gate(0),rising(0), falling(1), x(0.),x_at_attack(0.), prev_velocity(0.), velocity(0.);\r\nHistory thresh(1.);\r\nHistory thresh_target(1.05);\r\nHistory scaler(1.);\r\nHistory clip_low(0.),clip_high(1.);\r\nParam analog(0.25);\r\nParam max_analog(2.);\r\n\r\nrelease_target = -0.05;\r\n\r\nvelocity = in1;\r\nattack = in2;\r\nhold = in3;\r\ndecay = in4;\r\n\r\na_coeff = 1.-(exp(-1. / ((max(mstosamps(attack),1.)/3.))));\r\nd_coeff = 1.-(exp(-1. / ((max(mstosamps(decay),3.)/3.))));\r\n\r\nhold_max_count = max(mstosamps(hold),4);\r\n\r\nif (prev_velocity != velocity && velocity != 0) {\r\n\tx_at_attack = x;\r\n\tthresh = min(max_analog,1. + (x_at_attack*analog));\r\n\tthresh_target = thresh*1.05;\r\n\trising = 1;\r\n\tscaler = velocity;\r\n\r\n\thold_count=0;\r\n}\r\n\r\nif (rising) {\r\n\tx += rising * a_coeff * (thresh_target - x);\r\n\trising = (x <= thresh);\r\n\tx = min(x,thresh);\t\t\r\n} else if (hold_count < hold_max_count) {\r\n\thold_count += 1;\r\n} else {\r\n\tx += d_coeff * (release_target - x);\r\n\tx = max(x,0.);\r\n}\r\n\r\nprev_velocity = velocity;\r\n\r\nout1 = x*scaler;"
													}

												}
, 												{
													"box" : 													{
														"maxclass" : "newobj",
														"text" : "in 1",
														"id" : "obj-1",
														"fontsize" : 12.0,
														"numinlets" : 0,
														"fontname" : "Arial",
														"numoutlets" : 1,
														"patching_rect" : [ 50.0, 14.0, 30.0, 20.0 ],
														"outlettype" : [ "" ]
													}

												}
, 												{
													"box" : 													{
														"maxclass" : "newobj",
														"text" : "in 2",
														"id" : "obj-2",
														"fontsize" : 12.0,
														"numinlets" : 0,
														"fontname" : "Arial",
														"numoutlets" : 1,
														"patching_rect" : [ 254.666672000000005, 14.0, 30.0, 20.0 ],
														"outlettype" : [ "" ]
													}

												}
, 												{
													"box" : 													{
														"maxclass" : "newobj",
														"text" : "out 1",
														"id" : "obj-4",
														"fontsize" : 12.0,
														"numinlets" : 1,
														"fontname" : "Arial",
														"numoutlets" : 0,
														"patching_rect" : [ 50.0, 616.0, 37.0, 20.0 ]
													}

												}
 ],
											"lines" : [ 												{
													"patchline" : 													{
														"source" : [ "obj-9", 0 ],
														"destination" : [ "obj-5", 3 ]
													}

												}
, 												{
													"patchline" : 													{
														"source" : [ "obj-7", 0 ],
														"destination" : [ "obj-3", 0 ]
													}

												}
, 												{
													"patchline" : 													{
														"source" : [ "obj-6", 0 ],
														"destination" : [ "obj-13", 0 ]
													}

												}
, 												{
													"patchline" : 													{
														"source" : [ "obj-5", 0 ],
														"destination" : [ "obj-4", 0 ]
													}

												}
, 												{
													"patchline" : 													{
														"source" : [ "obj-3", 0 ],
														"destination" : [ "obj-9", 1 ]
													}

												}
, 												{
													"patchline" : 													{
														"source" : [ "obj-2", 0 ],
														"destination" : [ "obj-16", 0 ]
													}

												}
, 												{
													"patchline" : 													{
														"source" : [ "obj-16", 0 ],
														"destination" : [ "obj-15", 1 ]
													}

												}
, 												{
													"patchline" : 													{
														"source" : [ "obj-15", 0 ],
														"destination" : [ "obj-5", 1 ]
													}

												}
, 												{
													"patchline" : 													{
														"source" : [ "obj-14", 0 ],
														"destination" : [ "obj-15", 0 ]
													}

												}
, 												{
													"patchline" : 													{
														"source" : [ "obj-13", 0 ],
														"destination" : [ "obj-12", 1 ]
													}

												}
, 												{
													"patchline" : 													{
														"source" : [ "obj-12", 0 ],
														"destination" : [ "obj-5", 2 ]
													}

												}
, 												{
													"patchline" : 													{
														"source" : [ "obj-11", 0 ],
														"destination" : [ "obj-12", 0 ]
													}

												}
, 												{
													"patchline" : 													{
														"source" : [ "obj-10", 0 ],
														"destination" : [ "obj-9", 0 ]
													}

												}
, 												{
													"patchline" : 													{
														"source" : [ "obj-1", 0 ],
														"destination" : [ "obj-5", 0 ]
													}

												}
 ],
											"bgcolor" : [ 0.9, 0.9, 0.9, 1.0 ],
											"editing_bgcolor" : [ 0.9, 0.9, 0.9, 1.0 ]
										}

									}
,
									"fontname" : "Arial",
									"fontsize" : 12.0,
									"id" : "obj-17",
									"maxclass" : "newobj",
									"numinlets" : 4,
									"numoutlets" : 1,
									"outlettype" : [ "multichannelsignal" ],
									"patching_rect" : [ 458.67388916015625, 615.7064208984375, 360.0, 20.0 ],
									"text" : "mc.gen~"
								}

							}
, 							{
								"box" : 								{
									"fontname" : "Arial",
									"fontsize" : 12.0,
									"id" : "obj-11",
									"maxclass" : "newobj",
									"numinlets" : 2,
									"numoutlets" : 1,
									"outlettype" : [ "int" ],
									"patching_rect" : [ 356.997436999999991, 635.469970999999987, 32.5, 20.0 ],
									"text" : "!= 1"
								}

							}
, 							{
								"box" : 								{
									"fontname" : "Arial",
									"fontsize" : 12.0,
									"id" : "obj-12",
									"maxclass" : "newobj",
									"numinlets" : 2,
									"numoutlets" : 1,
									"outlettype" : [ "multichannelsignal" ],
									"patching_rect" : [ 356.9974365234375, 685.8839111328125, 78.0, 20.0 ],
									"text" : "mc.gate~ 1 1"
								}

							}
, 							{
								"box" : 								{
									"activebgcolor" : [ 0.572549, 0.615686, 0.658824, 0.0 ],
									"activebgoncolor" : [ 0.278431, 0.839216, 1.0, 1.0 ],
									"activetextcolor" : [ 1.0, 1.0, 1.0, 0.57 ],
									"activetextoncolor" : [ 0.0, 0.019608, 0.078431, 1.0 ],
									"bgcolor" : [ 0.101961, 0.101961, 0.101961, 0.78 ],
									"bordercolor" : [ 0.0, 0.019608, 0.078431, 0.37 ],
									"id" : "obj-20",
									"maxclass" : "live.text",
									"numinlets" : 1,
									"numoutlets" : 2,
									"outlettype" : [ "", "" ],
									"parameter_enable" : 1,
									"patching_rect" : [ 356.997436999999991, 576.706420999999978, 40.0, 20.0 ],
									"presentation" : 1,
									"presentation_rect" : [ 97.0, 19.0, 52.0, 14.764644622802734 ],
									"saved_attribute_attributes" : 									{
										"valueof" : 										{
											"parameter_initial" : [ 0.0 ],
											"parameter_shortname" : "mute",
											"parameter_enum" : [ "val1", "val2" ],
											"parameter_defer" : 1,
											"parameter_type" : 2,
											"parameter_longname" : "mute",
											"parameter_initial_enable" : 1,
											"parameter_mmax" : 1.0
										}

									}
,
									"text" : "mute",
									"textcolor" : [ 1.0, 1.0, 1.0, 1.0 ],
									"texton" : "mute",
									"varname" : "mute"
								}

							}
, 							{
								"box" : 								{
									"comment" : "Envelope output",
									"hint" : "Envelope output",
									"id" : "obj-16",
									"index" : 1,
									"maxclass" : "outlet",
									"numinlets" : 1,
									"numoutlets" : 0,
									"patching_rect" : [ 356.997436999999991, 730.883911000000012, 25.0, 25.0 ]
								}

							}
, 							{
								"box" : 								{
									"comment" : "Trigger",
									"hint" : "Trigger",
									"id" : "obj-3",
									"index" : 1,
									"maxclass" : "inlet",
									"numinlets" : 0,
									"numoutlets" : 1,
									"outlettype" : [ "" ],
									"patching_rect" : [ 458.673828000000015, 136.0, 25.0, 25.0 ]
								}

							}
, 							{
								"box" : 								{
									"activedialcolor" : [ 0.278431, 0.839216, 1.0, 1.0 ],
									"activefgdialcolor" : [ 0.65098, 0.666667, 0.662745, 1.0 ],
									"activeneedlecolor" : [ 1.0, 1.0, 1.0, 0.7 ],
									"focusbordercolor" : [ 1.0, 1.0, 1.0, 1.0 ],
									"id" : "obj-45",
									"maxclass" : "live.dial",
									"numinlets" : 1,
									"numoutlets" : 2,
									"outlettype" : [ "", "float" ],
									"parameter_enable" : 1,
									"patching_rect" : [ 593.007141000000047, 325.0, 44.0, 48.0 ],
									"presentation" : 1,
									"presentation_rect" : [ 4.0, 42.292228698730469, 44.0, 48.0 ],
									"saved_attribute_attributes" : 									{
										"valueof" : 										{
											"parameter_initial" : [ 1.0 ],
											"parameter_shortname" : "Attack",
											"parameter_type" : 0,
											"parameter_unitstyle" : 2,
											"parameter_exponent" : 4.0,
											"parameter_longname" : "Attack",
											"parameter_initial_enable" : 1,
											"parameter_mmax" : 10000.0
										}

									}
,
									"textcolor" : [ 1.0, 1.0, 1.0, 0.7 ],
									"varname" : "Attack"
								}

							}
, 							{
								"box" : 								{
									"fontname" : "Ableton Sans Bold Regular",
									"fontsize" : 9.0,
									"id" : "obj-8",
									"maxclass" : "comment",
									"numinlets" : 1,
									"numoutlets" : 0,
									"patching_rect" : [ 388.102355999999986, 734.883911000000012, 37.0, 17.0 ],
									"presentation" : 1,
									"presentation_rect" : [ 2.0, 97.0, 30.0, 17.0 ],
									"text" : "0-5V",
									"textcolor" : [ 1.0, 1.0, 1.0, 1.0 ]
								}

							}
, 							{
								"box" : 								{
									"fontname" : "Ableton Sans Bold Regular",
									"fontsize" : 9.0,
									"id" : "obj-19",
									"maxclass" : "comment",
									"numinlets" : 1,
									"numoutlets" : 0,
									"patching_rect" : [ 458.673828000000015, 112.623154, 37.0, 17.0 ],
									"presentation" : 1,
									"presentation_rect" : [ 2.0, -0.376850008964539, 27.0, 17.0 ],
									"text" : "Trig",
									"textcolor" : [ 1.0, 1.0, 1.0, 1.0 ]
								}

							}
, 							{
								"box" : 								{
									"fontname" : "Ableton Sans Bold Regular",
									"fontsize" : 9.0,
									"id" : "obj-13",
									"linecount" : 2,
									"maxclass" : "comment",
									"numinlets" : 1,
									"numoutlets" : 0,
									"patching_rect" : [ 26.173828125, 55.298919677734375, 30.0, 28.0 ],
									"presentation" : 1,
									"presentation_rect" : [ 2.0, 19.0, 42.0, 17.0 ],
									"text" : "mc.AHD",
									"textcolor" : [ 1.0, 1.0, 1.0, 1.0 ]
								}

							}
, 							{
								"box" : 								{
									"background" : 1,
									"bgmode" : 0,
									"border" : 0,
									"clickthrough" : 0,
									"enablehscroll" : 0,
									"enablevscroll" : 0,
									"id" : "obj-15",
									"lockeddragscroll" : 0,
									"maxclass" : "bpatcher",
									"name" : "background_sm.maxpat",
									"numinlets" : 0,
									"numoutlets" : 0,
									"offset" : [ 0.0, 0.0 ],
									"patching_rect" : [ 26.173828, 38.0, 239.0, 10.0 ],
									"presentation" : 1,
									"presentation_rect" : [ 0.0, 0.0, 186.0, 132.0 ],
									"viewvisibility" : 1
								}

							}
 ],
						"lines" : [ 							{
								"patchline" : 								{
									"destination" : [ "obj-12", 0 ],
									"source" : [ "obj-11", 0 ]
								}

							}
, 							{
								"patchline" : 								{
									"destination" : [ "obj-16", 0 ],
									"source" : [ "obj-12", 0 ]
								}

							}
, 							{
								"patchline" : 								{
									"destination" : [ "obj-17", 0 ],
									"midpoints" : [ 408.926177999999993, 559.206420999999978, 468.17388916015625, 559.206420999999978 ],
									"source" : [ "obj-14", 1 ]
								}

							}
, 							{
								"patchline" : 								{
									"destination" : [ "obj-22", 0 ],
									"source" : [ "obj-17", 0 ]
								}

							}
, 							{
								"patchline" : 								{
									"destination" : [ "obj-35", 0 ],
									"source" : [ "obj-18", 0 ]
								}

							}
, 							{
								"patchline" : 								{
									"destination" : [ "obj-36", 0 ],
									"source" : [ "obj-2", 0 ]
								}

							}
, 							{
								"patchline" : 								{
									"destination" : [ "obj-11", 0 ],
									"source" : [ "obj-20", 0 ]
								}

							}
, 							{
								"patchline" : 								{
									"destination" : [ "obj-36", 1 ],
									"source" : [ "obj-21", 0 ]
								}

							}
, 							{
								"patchline" : 								{
									"destination" : [ "obj-12", 1 ],
									"source" : [ "obj-22", 0 ]
								}

							}
, 							{
								"patchline" : 								{
									"destination" : [ "obj-17", 1 ],
									"source" : [ "obj-27", 0 ]
								}

							}
, 							{
								"patchline" : 								{
									"destination" : [ "obj-17", 2 ],
									"source" : [ "obj-28", 0 ]
								}

							}
, 							{
								"patchline" : 								{
									"destination" : [ "obj-17", 3 ],
									"source" : [ "obj-29", 0 ]
								}

							}
, 							{
								"patchline" : 								{
									"destination" : [ "obj-2", 0 ],
									"source" : [ "obj-3", 0 ]
								}

							}
, 							{
								"patchline" : 								{
									"destination" : [ "obj-39", 0 ],
									"source" : [ "obj-30", 0 ]
								}

							}
, 							{
								"patchline" : 								{
									"destination" : [ "obj-14", 0 ],
									"source" : [ "obj-31", 1 ]
								}

							}
, 							{
								"patchline" : 								{
									"destination" : [ "obj-37", 0 ],
									"source" : [ "obj-35", 0 ]
								}

							}
, 							{
								"patchline" : 								{
									"destination" : [ "obj-17", 0 ],
									"source" : [ "obj-36", 0 ]
								}

							}
, 							{
								"patchline" : 								{
									"destination" : [ "obj-17", 3 ],
									"source" : [ "obj-37", 0 ]
								}

							}
, 							{
								"patchline" : 								{
									"destination" : [ "obj-17", 2 ],
									"source" : [ "obj-38", 0 ]
								}

							}
, 							{
								"patchline" : 								{
									"destination" : [ "obj-38", 0 ],
									"source" : [ "obj-39", 0 ]
								}

							}
, 							{
								"patchline" : 								{
									"destination" : [ "obj-36", 1 ],
									"source" : [ "obj-4", 0 ]
								}

							}
, 							{
								"patchline" : 								{
									"destination" : [ "obj-17", 1 ],
									"source" : [ "obj-40", 0 ]
								}

							}
, 							{
								"patchline" : 								{
									"destination" : [ "obj-40", 0 ],
									"source" : [ "obj-41", 0 ]
								}

							}
, 							{
								"patchline" : 								{
									"destination" : [ "obj-21", 0 ],
									"order" : 1,
									"source" : [ "obj-45", 0 ]
								}

							}
, 							{
								"patchline" : 								{
									"destination" : [ "obj-41", 0 ],
									"order" : 0,
									"source" : [ "obj-45", 0 ]
								}

							}
 ],
						"bgcolor" : [ 1.0, 1.0, 1.0, 0.0 ]
					}
,
					"patching_rect" : [ 0.0, 0.0, 152.0, 116.0 ],
					"varname" : "AHD",
					"viewvisibility" : 1
				}

			}
 ],
		"lines" : [  ],
		"parameters" : 		{
			"obj-10::obj-30" : [ "Hold", "Hold", 0 ],
			"obj-10::obj-45" : [ "Attack", "Attack", 0 ],
			"obj-10::obj-20" : [ "mute", "mute", 0 ],
			"obj-10::obj-18" : [ "Decay", "Decay", 0 ],
			"parameterbanks" : 			{

			}

		}
,
		"dependency_cache" : [ 			{
				"name" : "background_sm.maxpat",
				"bootpath" : "C74:/packages/BEAP/misc",
				"type" : "JSON",
				"implicit" : 1
			}
 ],
		"autosave" : 0
	}

}
