{
	"patcher" : 	{
		"fileversion" : 1,
		"appversion" : 		{
			"major" : 6,
			"minor" : 0,
			"revision" : 8
		}
,
		"rect" : [ 341.0, 107.0, 640.0, 480.0 ],
		"bglocked" : 0,
		"openinpresentation" : 0,
		"default_fontsize" : 12.0,
		"default_fontface" : 0,
		"default_fontname" : "Arial",
		"gridonopen" : 0,
		"gridsize" : [ 15.0, 15.0 ],
		"gridsnaponopen" : 0,
		"statusbarvisible" : 2,
		"toolbarvisible" : 1,
		"boxanimatetime" : 200,
		"imprint" : 0,
		"enablehscroll" : 1,
		"enablevscroll" : 1,
		"devicewidth" : 0.0,
		"description" : "",
		"digest" : "",
		"tags" : "",
		"boxes" : [ 			{
				"box" : 				{
					"embed" : 1,
					"id" : "obj-10",
					"maxclass" : "bpatcher",
					"numinlets" : 1,
					"numoutlets" : 1,
					"outlettype" : [ "signal" ],
					"patcher" : 					{
						"fileversion" : 1,
						"appversion" : 						{
							"major" : 6,
							"minor" : 0,
							"revision" : 8
						}
,
						"rect" : [ 341.0, 107.0, 110.0, 116.0 ],
						"bgcolor" : [ 1.0, 1.0, 1.0, 0.0 ],
						"bglocked" : 0,
						"openinpresentation" : 1,
						"default_fontsize" : 12.0,
						"default_fontface" : 0,
						"default_fontname" : "Arial",
						"gridonopen" : 0,
						"gridsize" : [ 15.0, 15.0 ],
						"gridsnaponopen" : 0,
						"statusbarvisible" : 1,
						"toolbarvisible" : 1,
						"boxanimatetime" : 200,
						"imprint" : 0,
						"enablehscroll" : 1,
						"enablevscroll" : 1,
						"devicewidth" : 0.0,
						"description" : "",
						"digest" : "",
						"tags" : "",
						"boxes" : [ 							{
								"box" : 								{
									"fontname" : "Arial",
									"fontsize" : 12.0,
									"id" : "obj-32",
									"maxclass" : "newobj",
									"numinlets" : 1,
									"numoutlets" : 1,
									"outlettype" : [ "signal" ],
									"patcher" : 									{
										"fileversion" : 1,
										"appversion" : 										{
											"major" : 6,
											"minor" : 0,
											"revision" : 8
										}
,
										"rect" : [ 50.0, 94.0, 290.0, 307.0 ],
										"bglocked" : 0,
										"openinpresentation" : 0,
										"default_fontsize" : 10.0,
										"default_fontface" : 0,
										"default_fontname" : "Arial Bold",
										"gridonopen" : 0,
										"gridsize" : [ 15.0, 15.0 ],
										"gridsnaponopen" : 0,
										"statusbarvisible" : 2,
										"toolbarvisible" : 1,
										"boxanimatetime" : 200,
										"imprint" : 0,
										"enablehscroll" : 1,
										"enablevscroll" : 1,
										"devicewidth" : 0.0,
										"description" : "",
										"digest" : "",
										"tags" : "",
										"boxes" : [ 											{
												"box" : 												{
													"fontname" : "Arial Bold",
													"fontsize" : 10.0,
													"frgb" : 0.0,
													"id" : "obj-2",
													"linecount" : 6,
													"maxclass" : "comment",
													"numinlets" : 1,
													"numoutlets" : 0,
													"patching_rect" : [ 117.0, 59.0, 150.0, 74.0 ],
													"text" : "Pass through that provides a minimum delay in case of feedback routings, otherwise no delay.  (otherwise feedback routings are impossible!)"
												}

											}
, 											{
												"box" : 												{
													"fontname" : "Arial",
													"fontsize" : 12.0,
													"id" : "obj-11",
													"maxclass" : "newobj",
													"numinlets" : 1,
													"numoutlets" : 1,
													"outlettype" : [ "signal" ],
													"patching_rect" : [ 50.0, 133.0, 61.0, 20.0 ],
													"text" : "tapout~ 0"
												}

											}
, 											{
												"box" : 												{
													"fontname" : "Arial",
													"fontsize" : 12.0,
													"id" : "obj-7",
													"maxclass" : "newobj",
													"numinlets" : 1,
													"numoutlets" : 1,
													"outlettype" : [ "tapconnect" ],
													"patching_rect" : [ 50.0, 100.0, 44.0, 20.0 ],
													"text" : "tapin~"
												}

											}
, 											{
												"box" : 												{
													"comment" : "",
													"id" : "obj-20",
													"maxclass" : "inlet",
													"numinlets" : 0,
													"numoutlets" : 1,
													"outlettype" : [ "" ],
													"patching_rect" : [ 50.0, 40.0, 25.0, 25.0 ]
												}

											}
, 											{
												"box" : 												{
													"comment" : "",
													"id" : "obj-31",
													"maxclass" : "outlet",
													"numinlets" : 1,
													"numoutlets" : 0,
													"patching_rect" : [ 50.0, 213.0, 25.0, 25.0 ]
												}

											}
 ],
										"lines" : [ 											{
												"patchline" : 												{
													"destination" : [ "obj-31", 0 ],
													"disabled" : 0,
													"hidden" : 0,
													"source" : [ "obj-11", 0 ]
												}

											}
, 											{
												"patchline" : 												{
													"destination" : [ "obj-7", 0 ],
													"disabled" : 0,
													"hidden" : 0,
													"source" : [ "obj-20", 0 ]
												}

											}
, 											{
												"patchline" : 												{
													"destination" : [ "obj-11", 0 ],
													"disabled" : 0,
													"hidden" : 0,
													"source" : [ "obj-7", 0 ]
												}

											}
 ]
									}
,
									"patching_rect" : [ 640.0, 395.0, 97.0, 20.0 ],
									"saved_object_attributes" : 									{
										"default_fontface" : 0,
										"default_fontname" : "Arial Bold",
										"default_fontsize" : 10.0,
										"description" : "",
										"digest" : "",
										"fontface" : 0,
										"fontname" : "Arial Bold",
										"fontsize" : 10.0,
										"globalpatchername" : "",
										"tags" : ""
									}
,
									"text" : "p buffered_input"
								}

							}
, 							{
								"box" : 								{
									"fontname" : "Arial",
									"fontsize" : 12.0,
									"id" : "obj-9",
									"maxclass" : "message",
									"numinlets" : 2,
									"numoutlets" : 1,
									"outlettype" : [ "" ],
									"patching_rect" : [ 573.0, 421.0, 50.0, 18.0 ],
									"text" : "time $1"
								}

							}
, 							{
								"box" : 								{
									"fontname" : "Arial",
									"fontsize" : 12.0,
									"id" : "obj-3",
									"maxclass" : "newobj",
									"numinlets" : 1,
									"numoutlets" : 1,
									"outlettype" : [ "signal" ],
									"patcher" : 									{
										"fileversion" : 1,
										"appversion" : 										{
											"major" : 6,
											"minor" : 0,
											"revision" : 8
										}
,
										"rect" : [ 50.0, 94.0, 328.0, 539.0 ],
										"bgcolor" : [ 0.9, 0.9, 0.9, 1.0 ],
										"bglocked" : 0,
										"openinpresentation" : 0,
										"default_fontsize" : 10.0,
										"default_fontface" : 0,
										"default_fontname" : "Arial Bold",
										"gridonopen" : 0,
										"gridsize" : [ 15.0, 15.0 ],
										"gridsnaponopen" : 0,
										"statusbarvisible" : 2,
										"toolbarvisible" : 1,
										"boxanimatetime" : 200,
										"imprint" : 0,
										"enablehscroll" : 1,
										"enablevscroll" : 1,
										"devicewidth" : 0.0,
										"description" : "",
										"digest" : "",
										"tags" : "",
										"boxes" : [ 											{
												"box" : 												{
													"fontname" : "Arial Bold",
													"fontsize" : 10.0,
													"frgb" : 0.0,
													"id" : "obj-36",
													"maxclass" : "comment",
													"numinlets" : 1,
													"numoutlets" : 0,
													"patching_rect" : [ 28.5, 371.0, 95.0, 18.0 ],
													"text" : "Under the count..."
												}

											}
, 											{
												"box" : 												{
													"fontname" : "Arial Bold",
													"fontsize" : 10.0,
													"id" : "obj-21",
													"maxclass" : "newobj",
													"numinlets" : 1,
													"numoutlets" : 1,
													"outlettype" : [ "" ],
													"patching_rect" : [ 21.0, 433.0, 23.0, 18.0 ],
													"text" : "* 5"
												}

											}
, 											{
												"box" : 												{
													"fontname" : "Arial Bold",
													"fontsize" : 10.0,
													"id" : "obj-17",
													"maxclass" : "newobj",
													"numinlets" : 2,
													"numoutlets" : 1,
													"outlettype" : [ "" ],
													"patching_rect" : [ 63.0, 242.0, 44.0, 18.0 ],
													"text" : "sah 0.5"
												}

											}
, 											{
												"box" : 												{
													"fontname" : "Arial Bold",
													"fontsize" : 10.0,
													"id" : "obj-16",
													"maxclass" : "newobj",
													"numinlets" : 2,
													"numoutlets" : 1,
													"outlettype" : [ "" ],
													"patching_rect" : [ 21.0, 345.0, 158.5, 18.0 ],
													"text" : "<"
												}

											}
, 											{
												"box" : 												{
													"fontname" : "Arial Bold",
													"fontsize" : 10.0,
													"id" : "obj-15",
													"maxclass" : "newobj",
													"numinlets" : 1,
													"numoutlets" : 1,
													"outlettype" : [ "" ],
													"patching_rect" : [ 153.0, 179.0, 66.0, 18.0 ],
													"text" : "mstosamps"
												}

											}
, 											{
												"box" : 												{
													"fontname" : "Arial Bold",
													"fontsize" : 10.0,
													"id" : "obj-14",
													"maxclass" : "newobj",
													"numinlets" : 0,
													"numoutlets" : 1,
													"outlettype" : [ "" ],
													"patching_rect" : [ 153.0, 149.0, 78.0, 18.0 ],
													"text" : "param time 10"
												}

											}
, 											{
												"box" : 												{
													"fontname" : "Arial Bold",
													"fontsize" : 10.0,
													"id" : "obj-13",
													"maxclass" : "newobj",
													"numinlets" : 1,
													"numoutlets" : 1,
													"outlettype" : [ "" ],
													"patching_rect" : [ 63.0, 168.0, 44.0, 18.0 ],
													"text" : "history"
												}

											}
, 											{
												"box" : 												{
													"fontname" : "Arial Bold",
													"fontsize" : 10.0,
													"id" : "obj-12",
													"maxclass" : "newobj",
													"numinlets" : 0,
													"numoutlets" : 1,
													"outlettype" : [ "" ],
													"patching_rect" : [ 42.0, 168.0, 19.0, 18.0 ],
													"text" : "0"
												}

											}
, 											{
												"box" : 												{
													"fontname" : "Arial Bold",
													"fontsize" : 10.0,
													"id" : "obj-11",
													"maxclass" : "newobj",
													"numinlets" : 2,
													"numoutlets" : 1,
													"outlettype" : [ "" ],
													"patching_rect" : [ 49.0, 283.0, 32.5, 18.0 ],
													"text" : "min"
												}

											}
, 											{
												"box" : 												{
													"fontname" : "Arial Bold",
													"fontsize" : 10.0,
													"id" : "obj-10",
													"maxclass" : "newobj",
													"numinlets" : 3,
													"numoutlets" : 1,
													"outlettype" : [ "" ],
													"patching_rect" : [ 21.0, 199.0, 61.0, 18.0 ],
													"text" : "switch"
												}

											}
, 											{
												"box" : 												{
													"fontname" : "Arial Bold",
													"fontsize" : 10.0,
													"id" : "obj-7",
													"maxclass" : "newobj",
													"numinlets" : 1,
													"numoutlets" : 1,
													"outlettype" : [ "" ],
													"patching_rect" : [ 21.0, 236.0, 25.0, 18.0 ],
													"text" : "+ 1"
												}

											}
, 											{
												"box" : 												{
													"fontname" : "Arial Bold",
													"fontsize" : 10.0,
													"id" : "obj-6",
													"maxclass" : "newobj",
													"numinlets" : 1,
													"numoutlets" : 1,
													"outlettype" : [ "" ],
													"patching_rect" : [ 21.0, 83.0, 25.0, 18.0 ],
													"text" : "> 0"
												}

											}
, 											{
												"box" : 												{
													"fontname" : "Arial Bold",
													"fontsize" : 10.0,
													"id" : "obj-1",
													"maxclass" : "newobj",
													"numinlets" : 0,
													"numoutlets" : 1,
													"outlettype" : [ "" ],
													"patching_rect" : [ 21.0, 20.0, 28.0, 18.0 ],
													"text" : "in 1"
												}

											}
, 											{
												"box" : 												{
													"fontname" : "Arial Bold",
													"fontsize" : 10.0,
													"id" : "obj-3",
													"maxclass" : "newobj",
													"numinlets" : 1,
													"numoutlets" : 1,
													"outlettype" : [ "" ],
													"patching_rect" : [ 21.0, 56.0, 34.0, 18.0 ],
													"text" : "delta"
												}

											}
, 											{
												"box" : 												{
													"fontname" : "Arial Bold",
													"fontsize" : 10.0,
													"id" : "obj-4",
													"maxclass" : "newobj",
													"numinlets" : 1,
													"numoutlets" : 0,
													"patching_rect" : [ 21.0, 461.0, 34.0, 18.0 ],
													"text" : "out 1"
												}

											}
 ],
										"lines" : [ 											{
												"patchline" : 												{
													"destination" : [ "obj-3", 0 ],
													"disabled" : 0,
													"hidden" : 0,
													"source" : [ "obj-1", 0 ]
												}

											}
, 											{
												"patchline" : 												{
													"destination" : [ "obj-7", 0 ],
													"disabled" : 0,
													"hidden" : 0,
													"source" : [ "obj-10", 0 ]
												}

											}
, 											{
												"patchline" : 												{
													"color" : [ 0.985948, 0.0, 0.028783, 0.9 ],
													"destination" : [ "obj-13", 0 ],
													"disabled" : 0,
													"hidden" : 0,
													"midpoints" : [ 58.5, 310.0, 121.5, 310.0, 121.5, 154.0, 72.5, 154.0 ],
													"source" : [ "obj-11", 0 ]
												}

											}
, 											{
												"patchline" : 												{
													"destination" : [ "obj-10", 1 ],
													"disabled" : 0,
													"hidden" : 0,
													"source" : [ "obj-12", 0 ]
												}

											}
, 											{
												"patchline" : 												{
													"destination" : [ "obj-10", 2 ],
													"disabled" : 0,
													"hidden" : 0,
													"source" : [ "obj-13", 0 ]
												}

											}
, 											{
												"patchline" : 												{
													"destination" : [ "obj-15", 0 ],
													"disabled" : 0,
													"hidden" : 0,
													"source" : [ "obj-14", 0 ]
												}

											}
, 											{
												"patchline" : 												{
													"destination" : [ "obj-17", 0 ],
													"disabled" : 0,
													"hidden" : 0,
													"source" : [ "obj-15", 0 ]
												}

											}
, 											{
												"patchline" : 												{
													"destination" : [ "obj-21", 0 ],
													"disabled" : 0,
													"hidden" : 0,
													"source" : [ "obj-16", 0 ]
												}

											}
, 											{
												"patchline" : 												{
													"destination" : [ "obj-11", 1 ],
													"disabled" : 0,
													"hidden" : 0,
													"source" : [ "obj-17", 0 ]
												}

											}
, 											{
												"patchline" : 												{
													"destination" : [ "obj-16", 1 ],
													"disabled" : 0,
													"hidden" : 0,
													"source" : [ "obj-17", 0 ]
												}

											}
, 											{
												"patchline" : 												{
													"destination" : [ "obj-4", 0 ],
													"disabled" : 0,
													"hidden" : 0,
													"source" : [ "obj-21", 0 ]
												}

											}
, 											{
												"patchline" : 												{
													"destination" : [ "obj-6", 0 ],
													"disabled" : 0,
													"hidden" : 0,
													"source" : [ "obj-3", 0 ]
												}

											}
, 											{
												"patchline" : 												{
													"destination" : [ "obj-10", 0 ],
													"disabled" : 0,
													"hidden" : 0,
													"source" : [ "obj-6", 0 ]
												}

											}
, 											{
												"patchline" : 												{
													"destination" : [ "obj-17", 1 ],
													"disabled" : 0,
													"hidden" : 0,
													"midpoints" : [ 30.5, 123.0, 97.5, 123.0 ],
													"source" : [ "obj-6", 0 ]
												}

											}
, 											{
												"patchline" : 												{
													"destination" : [ "obj-11", 0 ],
													"disabled" : 0,
													"hidden" : 0,
													"source" : [ "obj-7", 0 ]
												}

											}
, 											{
												"patchline" : 												{
													"destination" : [ "obj-16", 0 ],
													"disabled" : 0,
													"hidden" : 0,
													"source" : [ "obj-7", 0 ]
												}

											}
 ]
									}
,
									"patching_rect" : [ 640.0, 519.0, 38.0, 20.0 ],
									"text" : "gen~"
								}

							}
, 							{
								"box" : 								{
									"fontname" : "Arial",
									"fontsize" : 12.0,
									"id" : "obj-34",
									"maxclass" : "newobj",
									"numinlets" : 3,
									"numoutlets" : 1,
									"outlettype" : [ "" ],
									"patching_rect" : [ 791.431091, 685.0, 64.0, 20.0 ],
									"text" : "switch 2 1"
								}

							}
, 							{
								"box" : 								{
									"bgcolor" : [ 0.0, 146.0, 255.0, 0.0 ],
									"bgovercolor" : [ 0.698039, 0.698039, 0.698039, 0.0 ],
									"border" : 1,
									"bordercolor" : [ 0.101961, 0.101961, 0.101961, 0.54 ],
									"borderoncolor" : [ 0.101961, 0.101961, 0.101961, 0.54 ],
									"fontname" : "Arial",
									"fontsize" : 12.0,
									"id" : "obj-22",
									"ignoreclick" : 1,
									"maxclass" : "textbutton",
									"numinlets" : 1,
									"numoutlets" : 3,
									"outlettype" : [ "", "", "int" ],
									"parameter_enable" : 0,
									"patching_rect" : [ 791.431091, 768.742065, 17.0, 13.902634 ],
									"presentation" : 1,
									"presentation_rect" : [ 43.0, 100.125908, 10.049012, 10.748189 ],
									"text" : ""
								}

							}
, 							{
								"box" : 								{
									"fontname" : "Arial",
									"fontsize" : 12.0,
									"id" : "obj-23",
									"maxclass" : "message",
									"numinlets" : 2,
									"numoutlets" : 1,
									"outlettype" : [ "" ],
									"patching_rect" : [ 791.431091, 724.0, 123.0, 18.0 ],
									"text" : "bgcolor 0 146 255 $1"
								}

							}
, 							{
								"box" : 								{
									"fontname" : "Arial",
									"fontsize" : 12.0,
									"id" : "obj-24",
									"maxclass" : "message",
									"numinlets" : 2,
									"numoutlets" : 1,
									"outlettype" : [ "" ],
									"patching_rect" : [ 855.0, 617.0, 32.5, 18.0 ],
									"text" : "0"
								}

							}
, 							{
								"box" : 								{
									"fontname" : "Arial",
									"fontsize" : 12.0,
									"id" : "obj-25",
									"maxclass" : "message",
									"numinlets" : 2,
									"numoutlets" : 1,
									"outlettype" : [ "" ],
									"patching_rect" : [ 814.0, 617.0, 32.5, 18.0 ],
									"text" : "5"
								}

							}
, 							{
								"box" : 								{
									"fontname" : "Arial",
									"fontsize" : 12.0,
									"id" : "obj-26",
									"maxclass" : "newobj",
									"numinlets" : 1,
									"numoutlets" : 2,
									"outlettype" : [ "bang", "bang" ],
									"patching_rect" : [ 814.0, 581.0, 60.0, 20.0 ],
									"text" : "edge~"
								}

							}
, 							{
								"box" : 								{
									"fontname" : "Arial",
									"fontsize" : 12.0,
									"frgb" : 0.0,
									"id" : "obj-10",
									"maxclass" : "comment",
									"numinlets" : 1,
									"numoutlets" : 0,
									"patching_rect" : [ 547.5, 498.0, 49.0, 20.0 ],
									"text" : "bypass"
								}

							}
, 							{
								"box" : 								{
									"fontname" : "Arial",
									"fontsize" : 12.0,
									"id" : "obj-17",
									"maxclass" : "newobj",
									"numinlets" : 2,
									"numoutlets" : 1,
									"outlettype" : [ "int" ],
									"patching_rect" : [ 547.5, 586.754272, 32.5, 20.0 ],
									"text" : "+ 1"
								}

							}
, 							{
								"box" : 								{
									"fontname" : "Arial",
									"fontsize" : 12.0,
									"id" : "obj-16",
									"maxclass" : "newobj",
									"numinlets" : 3,
									"numoutlets" : 1,
									"outlettype" : [ "signal" ],
									"patching_rect" : [ 547.5, 641.754272, 204.0, 20.0 ],
									"text" : "selector~ 2 1"
								}

							}
, 							{
								"box" : 								{
									"activebgcolor" : [ 0.572549, 0.615686, 0.658824, 0.0 ],
									"activebgoncolor" : [ 0.278431, 0.839216, 1.0, 1.0 ],
									"activetextcolor" : [ 1.0, 1.0, 1.0, 0.57 ],
									"activetextoncolor" : [ 0.0, 0.019608, 0.078431, 1.0 ],
									"bgcolor" : [ 0.101961, 0.101961, 0.101961, 0.78 ],
									"bordercolor" : [ 0.0, 0.019608, 0.078431, 0.37 ],
									"id" : "obj-11",
									"maxclass" : "live.text",
									"numinlets" : 1,
									"numoutlets" : 2,
									"outlettype" : [ "", "" ],
									"parameter_enable" : 1,
									"patching_rect" : [ 547.5, 541.691772, 40.0, 20.0 ],
									"presentation" : 1,
									"presentation_rect" : [ 54.0, 19.0, 52.0, 14.764645 ],
									"saved_attribute_attributes" : 									{
										"valueof" : 										{
											"parameter_enum" : [ "val1", "val2" ],
											"parameter_mmax" : 1.0,
											"parameter_initial" : [ 0.0 ],
											"parameter_type" : 2,
											"parameter_initial_enable" : 1,
											"parameter_shortname" : "bypass",
											"parameter_longname" : "bypass",
											"parameter_defer" : 1
										}

									}
,
									"text" : "bypass",
									"textcolor" : [ 1.0, 1.0, 1.0, 1.0 ],
									"texton" : "bypass",
									"varname" : "bypass"
								}

							}
, 							{
								"box" : 								{
									"comment" : "signal output",
									"id" : "obj-20",
									"maxclass" : "outlet",
									"numinlets" : 1,
									"numoutlets" : 0,
									"patching_rect" : [ 547.5, 687.754272, 25.0, 25.0 ]
								}

							}
, 							{
								"box" : 								{
									"fontname" : "Arial",
									"fontsize" : 12.0,
									"id" : "obj-2",
									"maxclass" : "newobj",
									"numinlets" : 2,
									"numoutlets" : 1,
									"outlettype" : [ "signal" ],
									"patching_rect" : [ 640.0, 462.0, 45.0, 20.0 ],
									"text" : ">~ 2.5"
								}

							}
, 							{
								"box" : 								{
									"comment" : "",
									"id" : "obj-1",
									"maxclass" : "inlet",
									"numinlets" : 0,
									"numoutlets" : 1,
									"outlettype" : [ "" ],
									"patching_rect" : [ 640.0, 351.0, 25.0, 25.0 ]
								}

							}
, 							{
								"box" : 								{
									"fontname" : "Arial",
									"fontsize" : 12.0,
									"id" : "obj-6",
									"maxclass" : "newobj",
									"numinlets" : 1,
									"numoutlets" : 4,
									"outlettype" : [ "", "", "", "" ],
									"patching_rect" : [ 175.236206, 372.0, 59.5, 20.0 ],
									"restore" : 									{
										"Duration" : [ 10.0 ],
										"bypass" : [ 0.0 ]
									}
,
									"text" : "autopattr",
									"varname" : "u813000499"
								}

							}
, 							{
								"box" : 								{
									"fontname" : "Arial Bold",
									"fontsize" : 9.0,
									"frgb" : 0.0,
									"id" : "obj-8",
									"linecount" : 2,
									"maxclass" : "comment",
									"numinlets" : 1,
									"numoutlets" : 0,
									"patching_rect" : [ 352.099976, 220.0, 37.0, 27.0 ],
									"presentation" : 1,
									"presentation_rect" : [ 2.0, 97.0, 41.0, 17.0 ],
									"text" : "Trigger",
									"textcolor" : [ 1.0, 1.0, 1.0, 1.0 ]
								}

							}
, 							{
								"box" : 								{
									"activedialcolor" : [ 0.278431, 0.839216, 1.0, 1.0 ],
									"activeneedlecolor" : [ 1.0, 1.0, 1.0, 0.7 ],
									"focusbordercolor" : [ 1.0, 1.0, 1.0, 1.0 ],
									"id" : "obj-28",
									"maxclass" : "live.dial",
									"numinlets" : 1,
									"numoutlets" : 2,
									"outlettype" : [ "", "float" ],
									"parameter_enable" : 1,
									"patching_rect" : [ 573.0, 359.0, 44.0, 47.0 ],
									"presentation" : 1,
									"presentation_rect" : [ 3.0, 43.0, 44.0, 47.0 ],
									"saved_attribute_attributes" : 									{
										"valueof" : 										{
											"parameter_exponent" : 2.0,
											"parameter_unitstyle" : 2,
											"parameter_mmax" : 500.0,
											"parameter_mmin" : 0.001,
											"parameter_initial" : [ 10 ],
											"parameter_type" : 0,
											"parameter_initial_enable" : 1,
											"parameter_shortname" : "Duration",
											"parameter_longname" : "Duration"
										}

									}
,
									"textcolor" : [ 1.0, 1.0, 1.0, 0.7 ],
									"varname" : "Duration"
								}

							}
, 							{
								"box" : 								{
									"fontname" : "Arial Bold",
									"fontsize" : 9.0,
									"frgb" : 0.0,
									"id" : "obj-19",
									"maxclass" : "comment",
									"numinlets" : 1,
									"numoutlets" : 0,
									"patching_rect" : [ 322.642456, 279.883911, 37.0, 17.0 ],
									"presentation" : 1,
									"presentation_rect" : [ 2.0, 0.0, 29.0, 17.0 ],
									"text" : "Gate",
									"textcolor" : [ 1.0, 1.0, 1.0, 1.0 ]
								}

							}
, 							{
								"box" : 								{
									"fontname" : "Arial Bold",
									"fontsize" : 9.0,
									"frgb" : 0.0,
									"id" : "obj-13",
									"linecount" : 2,
									"maxclass" : "comment",
									"numinlets" : 1,
									"numoutlets" : 0,
									"patching_rect" : [ 322.642456, 307.907501, 48.0, 27.0 ],
									"presentation" : 1,
									"presentation_rect" : [ 2.0, 19.0, 52.0, 17.0 ],
									"text" : "TRIGGER",
									"textcolor" : [ 1.0, 1.0, 1.0, 1.0 ]
								}

							}
, 							{
								"box" : 								{
									"bgcolor" : [ 0.0, 0.0, 0.0, 1.0 ],
									"id" : "obj-14",
									"maxclass" : "panel",
									"numinlets" : 1,
									"numoutlets" : 0,
									"patching_rect" : [ 15.0, 149.470001, 128.0, 128.0 ],
									"presentation" : 1,
									"presentation_rect" : [ 0.0, 0.0, 283.268768, 17.0 ],
									"rounded" : 0
								}

							}
, 							{
								"box" : 								{
									"bgcolor" : [ 0.0, 0.0, 0.0, 1.0 ],
									"id" : "obj-15",
									"maxclass" : "panel",
									"numinlets" : 1,
									"numoutlets" : 0,
									"patching_rect" : [ 175.236206, 15.0, 128.0, 128.0 ],
									"presentation" : 1,
									"presentation_rect" : [ 0.0, 97.0, 283.268768, 35.433025 ],
									"rounded" : 0
								}

							}
, 							{
								"box" : 								{
									"bgcolor" : [ 0.137255, 0.145098, 0.160784, 0.65 ],
									"id" : "obj-18",
									"maxclass" : "panel",
									"numinlets" : 1,
									"numoutlets" : 0,
									"patching_rect" : [ 21.736206, 15.0, 128.0, 128.0 ],
									"presentation" : 1,
									"presentation_rect" : [ 0.0, 37.0, 283.268768, 71.584457 ],
									"rounded" : 0
								}

							}
, 							{
								"box" : 								{
									"bgcolor" : [ 0.367404, 0.389405, 0.430238, 1.0 ],
									"id" : "obj-21",
									"maxclass" : "panel",
									"numinlets" : 1,
									"numoutlets" : 0,
									"patching_rect" : [ 161.562378, 149.470001, 128.0, 128.0 ],
									"presentation" : 1,
									"presentation_rect" : [ 0.0, 17.0, 283.268768, 116.114227 ],
									"rounded" : 0
								}

							}
 ],
						"lines" : [ 							{
								"patchline" : 								{
									"destination" : [ "obj-32", 0 ],
									"disabled" : 0,
									"hidden" : 0,
									"source" : [ "obj-1", 0 ]
								}

							}
, 							{
								"patchline" : 								{
									"destination" : [ "obj-17", 0 ],
									"disabled" : 0,
									"hidden" : 0,
									"source" : [ "obj-11", 0 ]
								}

							}
, 							{
								"patchline" : 								{
									"destination" : [ "obj-20", 0 ],
									"disabled" : 0,
									"hidden" : 0,
									"source" : [ "obj-16", 0 ]
								}

							}
, 							{
								"patchline" : 								{
									"destination" : [ "obj-16", 0 ],
									"disabled" : 0,
									"hidden" : 0,
									"source" : [ "obj-17", 0 ]
								}

							}
, 							{
								"patchline" : 								{
									"destination" : [ "obj-34", 0 ],
									"disabled" : 0,
									"hidden" : 0,
									"source" : [ "obj-17", 0 ]
								}

							}
, 							{
								"patchline" : 								{
									"destination" : [ "obj-3", 0 ],
									"disabled" : 0,
									"hidden" : 0,
									"source" : [ "obj-2", 0 ]
								}

							}
, 							{
								"patchline" : 								{
									"destination" : [ "obj-22", 0 ],
									"disabled" : 0,
									"hidden" : 0,
									"source" : [ "obj-23", 0 ]
								}

							}
, 							{
								"patchline" : 								{
									"destination" : [ "obj-34", 1 ],
									"disabled" : 0,
									"hidden" : 0,
									"source" : [ "obj-24", 0 ]
								}

							}
, 							{
								"patchline" : 								{
									"destination" : [ "obj-34", 1 ],
									"disabled" : 0,
									"hidden" : 0,
									"source" : [ "obj-25", 0 ]
								}

							}
, 							{
								"patchline" : 								{
									"destination" : [ "obj-24", 0 ],
									"disabled" : 0,
									"hidden" : 0,
									"source" : [ "obj-26", 1 ]
								}

							}
, 							{
								"patchline" : 								{
									"destination" : [ "obj-25", 0 ],
									"disabled" : 0,
									"hidden" : 0,
									"source" : [ "obj-26", 0 ]
								}

							}
, 							{
								"patchline" : 								{
									"destination" : [ "obj-9", 0 ],
									"disabled" : 0,
									"hidden" : 0,
									"source" : [ "obj-28", 0 ]
								}

							}
, 							{
								"patchline" : 								{
									"destination" : [ "obj-16", 1 ],
									"disabled" : 0,
									"hidden" : 0,
									"source" : [ "obj-3", 0 ]
								}

							}
, 							{
								"patchline" : 								{
									"destination" : [ "obj-26", 0 ],
									"disabled" : 0,
									"hidden" : 0,
									"source" : [ "obj-3", 0 ]
								}

							}
, 							{
								"patchline" : 								{
									"destination" : [ "obj-16", 2 ],
									"disabled" : 0,
									"hidden" : 0,
									"midpoints" : [ 649.5, 436.377136, 742.0, 436.377136 ],
									"source" : [ "obj-32", 0 ]
								}

							}
, 							{
								"patchline" : 								{
									"destination" : [ "obj-2", 0 ],
									"disabled" : 0,
									"hidden" : 0,
									"source" : [ "obj-32", 0 ]
								}

							}
, 							{
								"patchline" : 								{
									"destination" : [ "obj-23", 0 ],
									"disabled" : 0,
									"hidden" : 0,
									"source" : [ "obj-34", 0 ]
								}

							}
, 							{
								"patchline" : 								{
									"destination" : [ "obj-3", 0 ],
									"disabled" : 0,
									"hidden" : 0,
									"source" : [ "obj-9", 0 ]
								}

							}
 ]
					}
,
					"patching_rect" : [ 0.0, 0.0, 110.0, 116.0 ],
					"varname" : "GateToTrigger"
				}

			}
 ],
		"lines" : [  ],
		"parameters" : 		{
			"obj-10::obj-28" : [ "Duration", "Duration", 0 ],
			"obj-10::obj-11" : [ "bypass", "bypass", 0 ]
		}
,
		"dependency_cache" : [  ]
	}

}
