{
	"patcher" : 	{
		"fileversion" : 1,
		"appversion" : 		{
			"major" : 6,
			"minor" : 1,
			"revision" : 3,
			"architecture" : "x86"
		}
,
		"rect" : [ 90.0, 44.0, 1463.0, 754.0 ],
		"bglocked" : 0,
		"openinpresentation" : 0,
		"default_fontsize" : 12.0,
		"default_fontface" : 0,
		"default_fontname" : "Arial",
		"gridonopen" : 0,
		"gridsize" : [ 15.0, 15.0 ],
		"gridsnaponopen" : 0,
		"statusbarvisible" : 1,
		"toolbarvisible" : 1,
		"boxanimatetime" : 200,
		"imprint" : 0,
		"enablehscroll" : 1,
		"enablevscroll" : 1,
		"devicewidth" : 0.0,
		"description" : "",
		"digest" : "",
		"tags" : "",
		"boxes" : [ 			{
				"box" : 				{
					"embed" : 1,
					"id" : "obj-3",
					"maxclass" : "bpatcher",
					"numinlets" : 1,
					"numoutlets" : 2,
					"outlettype" : [ "signal", "signal" ],
					"patcher" : 					{
						"fileversion" : 1,
						"appversion" : 						{
							"major" : 6,
							"minor" : 1,
							"revision" : 3,
							"architecture" : "x86"
						}
,
						"rect" : [ 90.0, 44.0, 726.0, 232.0 ],
						"bgcolor" : [ 1.0, 1.0, 1.0, 0.0 ],
						"bglocked" : 0,
						"openinpresentation" : 1,
						"default_fontsize" : 12.0,
						"default_fontface" : 0,
						"default_fontname" : "Arial",
						"gridonopen" : 0,
						"gridsize" : [ 15.0, 15.0 ],
						"gridsnaponopen" : 0,
						"statusbarvisible" : 1,
						"toolbarvisible" : 1,
						"boxanimatetime" : 200,
						"imprint" : 0,
						"enablehscroll" : 1,
						"enablevscroll" : 1,
						"devicewidth" : 0.0,
						"description" : "",
						"digest" : "",
						"tags" : "",
						"boxes" : [ 							{
								"box" : 								{
									"activebgoncolor" : [ 0.278431, 0.839216, 1.0, 1.0 ],
									"bgcolor" : [ 0.101961, 0.101961, 0.101961, 0.78 ],
									"id" : "obj-2",
									"maxclass" : "live.tab",
									"numinlets" : 1,
									"numoutlets" : 3,
									"outlettype" : [ "", "", "float" ],
									"parameter_enable" : 1,
									"patching_rect" : [ 421.413086, 625.0, 100.0, 20.0 ],
									"presentation" : 1,
									"presentation_rect" : [ 589.472168, 46.0, 114.500122, 20.0 ],
									"saved_attribute_attributes" : 									{
										"valueof" : 										{
											"parameter_longname" : "trans_trig",
											"parameter_shortname" : "trans_trig",
											"parameter_type" : 2,
											"parameter_enum" : [ "transport", "trigger" ],
											"parameter_unitstyle" : 0
										}

									}
,
									"varname" : "trans_trig"
								}

							}
, 							{
								"box" : 								{
									"fontname" : "Arial Bold",
									"fontsize" : 10.0,
									"frgb" : 0.0,
									"id" : "obj-46",
									"maxclass" : "comment",
									"numinlets" : 1,
									"numoutlets" : 0,
									"patching_rect" : [ 524.472168, 148.25, 60.0, 18.0 ],
									"presentation" : 1,
									"presentation_rect" : [ 519.601624, 150.75, 59.0, 18.0 ],
									"text" : "Gate TIme",
									"textcolor" : [ 1.0, 1.0, 1.0, 0.7 ]
								}

							}
, 							{
								"box" : 								{
									"fontname" : "Arial",
									"fontsize" : 12.0,
									"id" : "obj-40",
									"maxclass" : "message",
									"numinlets" : 2,
									"numoutlets" : 1,
									"outlettype" : [ "" ],
									"patching_rect" : [ 1832.959229, 1029.0, 32.5, 18.0 ],
									"text" : "0"
								}

							}
, 							{
								"box" : 								{
									"fontname" : "Arial",
									"fontsize" : 12.0,
									"id" : "obj-38",
									"maxclass" : "message",
									"numinlets" : 2,
									"numoutlets" : 1,
									"outlettype" : [ "" ],
									"patching_rect" : [ 1779.959229, 1029.0, 32.5, 18.0 ],
									"text" : "5"
								}

							}
, 							{
								"box" : 								{
									"fontname" : "Arial",
									"fontsize" : 12.0,
									"id" : "obj-33",
									"maxclass" : "newobj",
									"numinlets" : 2,
									"numoutlets" : 1,
									"outlettype" : [ "bang" ],
									"patching_rect" : [ 1832.959229, 975.0, 56.0, 20.0 ],
									"text" : "delay 10"
								}

							}
, 							{
								"box" : 								{
									"fontname" : "Arial",
									"fontsize" : 12.0,
									"id" : "obj-27",
									"maxclass" : "newobj",
									"numinlets" : 2,
									"numoutlets" : 1,
									"outlettype" : [ "" ],
									"patching_rect" : [ 1869.959229, 836.190063, 65.650146, 20.0 ],
									"text" : "pak f f"
								}

							}
, 							{
								"box" : 								{
									"fontname" : "Arial",
									"fontsize" : 12.0,
									"id" : "obj-26",
									"maxclass" : "newobj",
									"numinlets" : 2,
									"numoutlets" : 1,
									"outlettype" : [ "float" ],
									"patching_rect" : [ 1916.609375, 801.376831, 42.0, 20.0 ],
									"text" : "* 0.01"
								}

							}
, 							{
								"box" : 								{
									"activebgcolor" : [ 1.0, 1.0, 1.0, 0.3 ],
									"activeslidercolor" : [ 0.278431, 0.839216, 1.0, 1.0 ],
									"activetricolor" : [ 0.278431, 0.839216, 1.0, 1.0 ],
									"activetricolor2" : [ 1.0, 1.0, 1.0, 0.301961 ],
									"annotation" : "GateTime",
									"appearance" : 1,
									"bordercolor" : [ 1.0, 1.0, 1.0, 0.3 ],
									"focusbordercolor" : [ 1.0, 1.0, 1.0, 0.3 ],
									"id" : "obj-25",
									"maxclass" : "live.numbox",
									"numinlets" : 1,
									"numoutlets" : 2,
									"outlettype" : [ "", "float" ],
									"parameter_enable" : 1,
									"patching_rect" : [ 1916.609375, 765.664978, 36.0, 15.0 ],
									"presentation" : 1,
									"presentation_rect" : [ 524.601624, 168.743423, 45.702087, 15.0 ],
									"saved_attribute_attributes" : 									{
										"valueof" : 										{
											"parameter_longname" : "GateTime",
											"parameter_shortname" : "GateTime",
											"parameter_type" : 0,
											"parameter_mmax" : 100.0,
											"parameter_initial" : [ 80 ],
											"parameter_unitstyle" : 5,
											"parameter_defer" : 1
										}

									}
,
									"textcolor" : [ 0.094118, 0.117647, 0.137255, 1.0 ],
									"tricolor2" : [ 1.0, 1.0, 1.0, 0.301961 ],
									"varname" : "GateTime"
								}

							}
, 							{
								"box" : 								{
									"fontname" : "Arial",
									"fontsize" : 12.0,
									"id" : "obj-17",
									"maxclass" : "newobj",
									"numinlets" : 2,
									"numoutlets" : 1,
									"outlettype" : [ "float" ],
									"patching_rect" : [ 1869.959229, 879.0, 65.650146, 20.0 ],
									"text" : "* 0.8"
								}

							}
, 							{
								"box" : 								{
									"fontname" : "Arial",
									"fontsize" : 12.0,
									"id" : "obj-16",
									"maxclass" : "newobj",
									"numinlets" : 1,
									"numoutlets" : 1,
									"outlettype" : [ "" ],
									"patching_rect" : [ 1869.959229, 720.0, 99.0, 20.0 ],
									"text" : "translate bbu ms"
								}

							}
, 							{
								"box" : 								{
									"fontname" : "Arial",
									"fontsize" : 12.0,
									"id" : "obj-12",
									"maxclass" : "newobj",
									"numinlets" : 2,
									"numoutlets" : 2,
									"outlettype" : [ "bang", "" ],
									"patching_rect" : [ 1779.959229, 906.190063, 36.0, 20.0 ],
									"text" : "sel 1"
								}

							}
, 							{
								"box" : 								{
									"fontname" : "Arial",
									"fontsize" : 12.0,
									"id" : "obj-9",
									"maxclass" : "newobj",
									"numinlets" : 1,
									"numoutlets" : 1,
									"outlettype" : [ "int" ],
									"patching_rect" : [ 1564.1521, 45.979462, 42.0, 20.0 ],
									"text" : "active"
								}

							}
, 							{
								"box" : 								{
									"id" : "obj-7",
									"maxclass" : "button",
									"numinlets" : 1,
									"numoutlets" : 1,
									"outlettype" : [ "bang" ],
									"patching_rect" : [ 1549.1521, 93.0, 20.0, 20.0 ]
								}

							}
, 							{
								"box" : 								{
									"fontname" : "Arial",
									"fontsize" : 12.0,
									"id" : "obj-43",
									"maxclass" : "message",
									"numinlets" : 2,
									"numoutlets" : 1,
									"outlettype" : [ "" ],
									"patching_rect" : [ 1902.830322, 368.098114, 32.5, 18.0 ],
									"text" : "$2"
								}

							}
, 							{
								"box" : 								{
									"bgcolor" : [ 1.0, 1.0, 1.0, 0.0 ],
									"bordercolor" : [ 1.0, 1.0, 1.0, 0.0 ],
									"fontname" : "Arial",
									"fontsize" : 16.0,
									"format" : 4,
									"hbgcolor" : [ 1.0, 1.0, 1.0, 0.0 ],
									"htextcolor" : [ 1.0, 1.0, 1.0, 0.49 ],
									"htricolor" : [ 1.0, 1.0, 1.0, 0.0 ],
									"id" : "obj-41",
									"ignoreclick" : 1,
									"maxclass" : "number",
									"numinlets" : 1,
									"numoutlets" : 2,
									"outlettype" : [ "int", "bang" ],
									"parameter_enable" : 0,
									"patching_rect" : [ 1902.830322, 412.533203, 59.0, 24.0 ],
									"presentation" : 1,
									"presentation_rect" : [ 74.545387, 51.0, 59.0, 24.0 ],
									"textcolor" : [ 1.0, 1.0, 1.0, 0.49 ],
									"tricolor" : [ 1.0, 1.0, 1.0, 0.0 ]
								}

							}
, 							{
								"box" : 								{
									"fontname" : "Arial",
									"fontsize" : 16.0,
									"frgb" : 0.0,
									"id" : "obj-30",
									"maxclass" : "comment",
									"numinlets" : 1,
									"numoutlets" : 0,
									"patching_rect" : [ 1777.194092, 421.077515, 66.0, 24.0 ],
									"presentation" : 1,
									"presentation_rect" : [ 15.239624, 51.0, 66.0, 24.0 ],
									"text" : "5 48",
									"textcolor" : [ 1.0, 1.0, 1.0, 0.49 ]
								}

							}
, 							{
								"box" : 								{
									"fontname" : "Arial",
									"fontsize" : 12.0,
									"id" : "obj-36",
									"maxclass" : "newobj",
									"numinlets" : 1,
									"numoutlets" : 1,
									"outlettype" : [ "" ],
									"patching_rect" : [ 1777.194092, 379.035004, 74.0, 20.0 ],
									"text" : "prepend set"
								}

							}
, 							{
								"box" : 								{
									"fontname" : "Arial",
									"fontsize" : 12.0,
									"id" : "obj-3",
									"maxclass" : "message",
									"numinlets" : 2,
									"numoutlets" : 1,
									"outlettype" : [ "" ],
									"patching_rect" : [ 1598.867676, 368.098114, 32.5, 18.0 ],
									"text" : "$2"
								}

							}
, 							{
								"box" : 								{
									"fontname" : "Arial",
									"fontsize" : 12.0,
									"id" : "obj-140",
									"maxclass" : "newobj",
									"numinlets" : 2,
									"numoutlets" : 1,
									"outlettype" : [ "int" ],
									"patching_rect" : [ 421.413086, 677.190063, 32.5, 20.0 ],
									"text" : "+ 1"
								}

							}
, 							{
								"box" : 								{
									"fontname" : "Arial",
									"fontsize" : 12.0,
									"id" : "obj-138",
									"maxclass" : "newobj",
									"numinlets" : 3,
									"numoutlets" : 1,
									"outlettype" : [ "" ],
									"patching_rect" : [ 421.413086, 741.225464, 166.757568, 20.0 ],
									"text" : "switch 2 1"
								}

							}
, 							{
								"box" : 								{
									"comment" : "",
									"id" : "obj-137",
									"maxclass" : "inlet",
									"numinlets" : 0,
									"numoutlets" : 1,
									"outlettype" : [ "" ],
									"patching_rect" : [ 569.170654, 591.219238, 25.0, 25.0 ]
								}

							}
, 							{
								"box" : 								{
									"fontname" : "Arial",
									"fontsize" : 12.0,
									"id" : "obj-34",
									"maxclass" : "newobj",
									"numinlets" : 1,
									"numoutlets" : 2,
									"outlettype" : [ "bang", "bang" ],
									"patching_rect" : [ 569.170654, 677.190063, 95.0, 20.0 ],
									"text" : "edge~"
								}

							}
, 							{
								"box" : 								{
									"fontname" : "Arial",
									"fontsize" : 13.0,
									"id" : "obj-136",
									"maxclass" : "newobj",
									"numinlets" : 2,
									"numoutlets" : 1,
									"outlettype" : [ "signal" ],
									"patching_rect" : [ 569.170654, 637.141235, 47.0, 21.0 ],
									"text" : ">~ 2.5"
								}

							}
, 							{
								"box" : 								{
									"fontname" : "Arial",
									"fontsize" : 12.0,
									"id" : "obj-131",
									"maxclass" : "newobj",
									"numinlets" : 2,
									"numoutlets" : 1,
									"outlettype" : [ "signal" ],
									"patching_rect" : [ 1681.528076, 1224.779541, 117.431091, 20.0 ],
									"text" : "gate~ 1 1"
								}

							}
, 							{
								"box" : 								{
									"comment" : "signal output",
									"id" : "obj-132",
									"maxclass" : "outlet",
									"numinlets" : 1,
									"numoutlets" : 0,
									"patching_rect" : [ 1681.528076, 1278.779541, 25.0, 25.0 ]
								}

							}
, 							{
								"box" : 								{
									"fontname" : "Arial",
									"fontsize" : 12.0,
									"id" : "obj-134",
									"maxclass" : "newobj",
									"numinlets" : 1,
									"numoutlets" : 1,
									"outlettype" : [ "signal" ],
									"patching_rect" : [ 1779.959229, 1107.859619, 33.0, 20.0 ],
									"text" : "sig~"
								}

							}
, 							{
								"box" : 								{
									"fontname" : "Arial",
									"fontsize" : 12.0,
									"id" : "obj-135",
									"maxclass" : "newobj",
									"numinlets" : 2,
									"numoutlets" : 1,
									"outlettype" : [ "signal" ],
									"patching_rect" : [ 1779.959229, 1156.859619, 36.0, 20.0 ],
									"text" : "*~ 5."
								}

							}
, 							{
								"box" : 								{
									"fontname" : "Arial",
									"fontsize" : 12.0,
									"frgb" : 0.0,
									"id" : "obj-127",
									"maxclass" : "comment",
									"numinlets" : 1,
									"numoutlets" : 0,
									"patching_rect" : [ 1500.436523, 320.633759, 37.0, 20.0 ],
									"text" : "mute"
								}

							}
, 							{
								"box" : 								{
									"fontname" : "Arial",
									"fontsize" : 12.0,
									"id" : "obj-128",
									"maxclass" : "newobj",
									"numinlets" : 2,
									"numoutlets" : 1,
									"outlettype" : [ "int" ],
									"patching_rect" : [ 1500.436523, 440.633759, 32.5, 20.0 ],
									"text" : "!= 1"
								}

							}
, 							{
								"box" : 								{
									"fontname" : "Arial",
									"fontsize" : 12.0,
									"id" : "obj-129",
									"maxclass" : "newobj",
									"numinlets" : 2,
									"numoutlets" : 1,
									"outlettype" : [ "signal" ],
									"patching_rect" : [ 1500.436523, 511.633759, 117.431091, 20.0 ],
									"text" : "gate~ 1 1"
								}

							}
, 							{
								"box" : 								{
									"activebgcolor" : [ 0.572549, 0.615686, 0.658824, 0.0 ],
									"activebgoncolor" : [ 0.278431, 0.839216, 1.0, 1.0 ],
									"activetextcolor" : [ 1.0, 1.0, 1.0, 0.57 ],
									"activetextoncolor" : [ 0.0, 0.019608, 0.078431, 1.0 ],
									"bgcolor" : [ 0.101961, 0.101961, 0.101961, 0.78 ],
									"bordercolor" : [ 0.0, 0.019608, 0.078431, 0.37 ],
									"id" : "obj-130",
									"maxclass" : "live.text",
									"numinlets" : 1,
									"numoutlets" : 2,
									"outlettype" : [ "", "" ],
									"parameter_enable" : 1,
									"patching_rect" : [ 1500.436523, 368.098114, 40.0, 20.0 ],
									"presentation" : 1,
									"presentation_rect" : [ 663.876343, 19.0, 52.0, 14.764645 ],
									"saved_attribute_attributes" : 									{
										"valueof" : 										{
											"parameter_longname" : "mute",
											"parameter_shortname" : "mute",
											"parameter_type" : 2,
											"parameter_mmax" : 1.0,
											"parameter_enum" : [ "val1", "val2" ],
											"parameter_initial_enable" : 1,
											"parameter_initial" : [ 0.0 ],
											"parameter_defer" : 1
										}

									}
,
									"text" : "mute",
									"textcolor" : [ 1.0, 1.0, 1.0, 1.0 ],
									"texton" : "mute",
									"varname" : "mute"
								}

							}
, 							{
								"box" : 								{
									"comment" : "signal output",
									"id" : "obj-5",
									"maxclass" : "outlet",
									"numinlets" : 1,
									"numoutlets" : 0,
									"patching_rect" : [ 1500.436523, 565.633728, 25.0, 25.0 ]
								}

							}
, 							{
								"box" : 								{
									"fontname" : "Arial",
									"fontsize" : 12.0,
									"id" : "obj-82",
									"maxclass" : "newobj",
									"numinlets" : 1,
									"numoutlets" : 1,
									"outlettype" : [ "signal" ],
									"patching_rect" : [ 1598.867676, 475.47998, 33.0, 20.0 ],
									"text" : "sig~"
								}

							}
, 							{
								"box" : 								{
									"fontname" : "Arial",
									"fontsize" : 12.0,
									"id" : "obj-80",
									"maxclass" : "newobj",
									"numinlets" : 6,
									"numoutlets" : 1,
									"outlettype" : [ "" ],
									"patching_rect" : [ 1598.867676, 443.713837, 109.0, 20.0 ],
									"text" : "scale 0. 120. -5. 5."
								}

							}
, 							{
								"box" : 								{
									"bgstepcolor" : [ 1.0, 1.0, 1.0, 0.13 ],
									"bgstepcolor2" : [ 1.0, 1.0, 1.0, 0.07 ],
									"bordercolor" : [ 0.0, 0.0, 0.0, 0.0 ],
									"bordercolor2" : [ 0.0, 0.0, 0.0, 0.0 ],
									"columns" : 8,
									"direction" : 0,
									"hbgcolor" : [ 0.278431, 0.839216, 1.0, 0.1 ],
									"id" : "obj-125",
									"marker_vertical" : 0,
									"matrixmode" : 1,
									"maxclass" : "live.grid",
									"numinlets" : 2,
									"numoutlets" : 6,
									"outlettype" : [ "", "", "", "", "", "" ],
									"parameter_enable" : 1,
									"patching_rect" : [ 1779.959229, 614.088257, 318.0, 27.0 ],
									"presentation" : 1,
									"presentation_rect" : [ 15.239624, 165.743423, 501.0, 19.013153 ],
									"rounded" : 0.0,
									"rows" : 1,
									"saved_attribute_attributes" : 									{
										"valueof" : 										{
											"parameter_longname" : "NoteGrid",
											"parameter_shortname" : "NoteGrid",
											"parameter_type" : 3,
											"parameter_initial_enable" : 1,
											"parameter_initial" : [ 3, 16, 8, 0, 4, 0, 4000, 8000, 12000, 2, 2, 2, 2, 2, 2, 2, 2, 2, 2, 2, 2, 2, 2, 2, 2 ],
											"parameter_invisible" : 1
										}

									}
,
									"spacing" : 0.0,
									"stepcolor" : [ 0.278431, 0.839216, 1.0, 1.0 ],
									"varname" : "live.grid"
								}

							}
, 							{
								"box" : 								{
									"fontname" : "Arial Bold",
									"fontsize" : 9.0,
									"frgb" : 0.0,
									"id" : "obj-126",
									"maxclass" : "comment",
									"numinlets" : 1,
									"numoutlets" : 0,
									"patching_rect" : [ 239.0, 152.710068, 37.0, 17.0 ],
									"presentation" : 1,
									"presentation_rect" : [ 684.876343, 213.0, 31.0, 17.0 ],
									"text" : "Gate",
									"textcolor" : [ 1.0, 1.0, 1.0, 1.0 ]
								}

							}
, 							{
								"box" : 								{
									"annotation" : "",
									"bgcolor" : [ 0.094118, 0.113725, 0.137255, 0.0 ],
									"bgcolor2" : [ 0.094118, 0.113725, 0.137255, 1.0 ],
									"duration_active" : 0,
									"extra2_active" : 0,
									"extra_thickness" : 1.0,
									"fontname" : "Arial",
									"hbgcolor" : [ 1.0, 1.0, 1.0, 0.2 ],
									"id" : "obj-185",
									"loopruler" : 0,
									"maxclass" : "live.step",
									"mode" : 4,
									"nseq" : 16,
									"numinlets" : 1,
									"numoutlets" : 5,
									"outlettype" : [ "", "", "", "", "" ],
									"parameter_enable" : 1,
									"patching_rect" : [ 1598.867676, 204.979446, 370.0, 141.0 ],
									"pitch_active" : 0,
									"presentation" : 1,
									"presentation_rect" : [ 15.239624, 51.0, 501.0, 112.75 ],
									"saved_attribute_attributes" : 									{
										"valueof" : 										{
											"parameter_longname" : "Sequence",
											"parameter_shortname" : "Sequence",
											"parameter_type" : 3,
											"parameter_initial_enable" : 1,
											"parameter_initial" : [ 1, 16, 0, 1, 12, 0, 16, 59.0, 80.0, 0, 0, 60, 101, 4, 100, 127, 63, 83, 4, 52, 127, 67, 57, 4, 74, 127, 74, 78, 4, 43, 127, 70, 35, 4, 100, 127, 67, 75, 4, 55, 127, 60, 114, 4, 83, 127, 70, 75, 4, 38, 127, 67, 59, 4, 101, 127, 79, 80, 4, 51, 127, 60, 100, 4, 86, 127, 70, 84, 4, 36, 127, 60, 114, 4, 95, 127, 63, 98, 4, 53, 127, 70, 97, 4, 87, 127, 62, 103, 4, 32, 127 ],
											"parameter_invisible" : 1
										}

									}
,
									"stepcolor" : [ 0.278431, 0.839216, 1.0, 1.0 ],
									"stepcolor2" : [ 0.24247, 0.760542, 1.0, 1.0 ],
									"unitruler" : 0,
									"varname" : "Sequence",
									"velocity_active" : 0
								}

							}
, 							{
								"box" : 								{
									"activebgcolor" : [ 0.6, 0.6, 0.6, 0.0 ],
									"activebgoncolor" : [ 0.278431, 0.839216, 1.0, 1.0 ],
									"activetextcolor" : [ 1.0, 1.0, 1.0, 0.4 ],
									"activetextoncolor" : [ 1.0, 1.0, 1.0, 0.4 ],
									"bgcolor" : [ 0.6, 0.6, 0.6, 0.0 ],
									"bgoncolor" : [ 0.6, 0.6, 0.6, 0.0 ],
									"bordercolor" : [ 1.0, 1.0, 1.0, 0.4 ],
									"focusbordercolor" : [ 1.0, 1.0, 1.0, 0.4 ],
									"id" : "obj-4",
									"maxclass" : "live.text",
									"mode" : 0,
									"numinlets" : 1,
									"numoutlets" : 2,
									"outlettype" : [ "", "" ],
									"parameter_enable" : 1,
									"patching_rect" : [ 49.083984, 474.905396, 40.0, 20.0 ],
									"presentation" : 1,
									"presentation_rect" : [ 530.303711, 106.948242, 40.0, 20.0 ],
									"saved_attribute_attributes" : 									{
										"valueof" : 										{
											"parameter_longname" : "live.text",
											"parameter_shortname" : "live.text",
											"parameter_type" : 2,
											"parameter_mmax" : 1.0,
											"parameter_enum" : [ "val1", "val2" ]
										}

									}
,
									"text" : "write",
									"textcolor" : [ 1.0, 1.0, 1.0, 0.4 ],
									"texton" : "write",
									"varname" : "live.text"
								}

							}
, 							{
								"box" : 								{
									"fontname" : "Arial Bold",
									"fontsize" : 10.0,
									"id" : "obj-6",
									"maxclass" : "message",
									"numinlets" : 2,
									"numoutlets" : 1,
									"outlettype" : [ "" ],
									"patching_rect" : [ 49.083984, 563.924438, 49.0, 16.0 ],
									"text" : "store $1"
								}

							}
, 							{
								"box" : 								{
									"fontname" : "Arial Bold",
									"fontsize" : 10.0,
									"id" : "obj-20",
									"maxclass" : "newobj",
									"numinlets" : 2,
									"numoutlets" : 1,
									"outlettype" : [ "int" ],
									"patching_rect" : [ 49.083984, 529.924438, 67.28302, 18.0 ],
									"text" : "i"
								}

							}
, 							{
								"box" : 								{
									"activedialcolor" : [ 0.278431, 0.839216, 1.0, 1.0 ],
									"activeneedlecolor" : [ 1.0, 1.0, 1.0, 0.4 ],
									"annotation" : "Sets number of steps in the sequence.",
									"id" : "obj-22",
									"maxclass" : "live.dial",
									"numinlets" : 1,
									"numoutlets" : 2,
									"outlettype" : [ "", "float" ],
									"parameter_enable" : 1,
									"patching_rect" : [ 170.971069, 461.97998, 44.0, 47.0 ],
									"presentation" : 1,
									"presentation_rect" : [ 528.303711, 51.0, 44.0, 47.0 ],
									"saved_attribute_attributes" : 									{
										"valueof" : 										{
											"parameter_longname" : "Pattern",
											"parameter_shortname" : "Pattern",
											"parameter_type" : 0,
											"parameter_mmin" : 1.0,
											"parameter_mmax" : 12.0,
											"parameter_initial_enable" : 1,
											"parameter_initial" : [ 1 ],
											"parameter_unitstyle" : 0
										}

									}
,
									"textcolor" : [ 1.0, 1.0, 1.0, 0.4 ],
									"varname" : "Pattern"
								}

							}
, 							{
								"box" : 								{
									"fontname" : "Arial Bold",
									"fontsize" : 10.0,
									"id" : "obj-23",
									"maxclass" : "newobj",
									"numinlets" : 2,
									"numoutlets" : 1,
									"outlettype" : [ "bang" ],
									"patching_rect" : [ 838.607422, 649.389893, 191.0, 18.0 ],
									"text" : "metro 4.0.0 @quantize 4.0.0 @active 1"
								}

							}
, 							{
								"box" : 								{
									"fontname" : "Arial Bold",
									"fontsize" : 10.0,
									"id" : "obj-31",
									"maxclass" : "newobj",
									"numinlets" : 2,
									"numoutlets" : 1,
									"outlettype" : [ "bang" ],
									"patching_rect" : [ 783.575623, 612.389893, 191.0, 18.0 ],
									"text" : "metro 2.0.0 @quantize 2.0.0 @active 1"
								}

							}
, 							{
								"box" : 								{
									"fontname" : "Arial Bold",
									"fontsize" : 10.0,
									"id" : "obj-88",
									"maxclass" : "newobj",
									"numinlets" : 2,
									"numoutlets" : 1,
									"outlettype" : [ "bang" ],
									"patching_rect" : [ 728.543884, 577.389893, 191.0, 18.0 ],
									"text" : "metro 1.0.0 @quantize 1.0.0 @active 1"
								}

							}
, 							{
								"box" : 								{
									"fontname" : "Arial Bold",
									"fontsize" : 10.0,
									"frgb" : 0.0,
									"id" : "obj-24",
									"maxclass" : "comment",
									"numinlets" : 1,
									"numoutlets" : 0,
									"patching_rect" : [ 1352.517212, 239.50499, 60.0, 18.0 ],
									"presentation" : 1,
									"presentation_rect" : [ 644.472168, 136.25, 38.0, 18.0 ],
									"text" : "Reset",
									"textcolor" : [ 1.0, 1.0, 1.0, 0.7 ]
								}

							}
, 							{
								"box" : 								{
									"activebgcolor" : [ 0.0, 0.0, 0.0, 0.0 ],
									"annotation" : "Determines the rate at which a step advances. Set in terms of metric values (eg: 1/8 = 1/8th note) Swing is only available at 1/8, 1/16 and 1/32 values. ",
									"bordercolor" : [ 1.0, 1.0, 1.0, 0.2 ],
									"hltcolor" : [ 0.278431, 0.839216, 1.0, 1.0 ],
									"id" : "obj-96",
									"maxclass" : "live.menu",
									"numinlets" : 1,
									"numoutlets" : 3,
									"outlettype" : [ "", "", "float" ],
									"parameter_enable" : 1,
									"patching_rect" : [ 609.498779, 36.448002, 71.944458, 15.0 ],
									"presentation" : 1,
									"presentation_rect" : [ 632.027832, 74.0, 71.944458, 15.0 ],
									"saved_attribute_attributes" : 									{
										"valueof" : 										{
											"parameter_longname" : "Pulse",
											"parameter_shortname" : "Pulse",
											"parameter_type" : 2,
											"parameter_enum" : [ "whole", "1/2", "1/4", "1/8", "1/16", "1/32", "--", "1/2 dotted", "1/4 dotted", "1/8 dotted", "1/16 dotted", "1/32 dotted", "--", "1/2 triplet", "1/4 triplet", "1/8 triplet", "1/16 triplet", "1/32 triplet" ],
											"parameter_initial_enable" : 1,
											"parameter_initial" : [ 4.0 ],
											"parameter_invisible" : 1
										}

									}
,
									"textcolor" : [ 1.0, 1.0, 1.0, 0.6 ],
									"varname" : "Pulse"
								}

							}
, 							{
								"box" : 								{
									"fontname" : "Arial Bold",
									"fontsize" : 10.0,
									"frgb" : 0.0,
									"id" : "obj-99",
									"maxclass" : "comment",
									"numinlets" : 1,
									"numoutlets" : 0,
									"patching_rect" : [ 540.582031, 36.448002, 60.0, 18.0 ],
									"presentation" : 1,
									"presentation_rect" : [ 590.472168, 73.0, 38.0, 18.0 ],
									"text" : "Pulse",
									"textcolor" : [ 1.0, 1.0, 1.0, 0.7 ]
								}

							}
, 							{
								"box" : 								{
									"activebgcolor" : [ 1.0, 1.0, 1.0, 0.3 ],
									"activeslidercolor" : [ 0.278431, 0.839216, 1.0, 1.0 ],
									"activetricolor" : [ 0.278431, 0.839216, 1.0, 1.0 ],
									"activetricolor2" : [ 1.0, 1.0, 1.0, 0.301961 ],
									"annotation" : "The Swing Amount field determines the percentage of swing applied.",
									"appearance" : 1,
									"bordercolor" : [ 1.0, 1.0, 1.0, 0.3 ],
									"focusbordercolor" : [ 1.0, 1.0, 1.0, 0.3 ],
									"id" : "obj-155",
									"maxclass" : "live.numbox",
									"numinlets" : 1,
									"numoutlets" : 2,
									"outlettype" : [ "", "float" ],
									"parameter_enable" : 1,
									"patching_rect" : [ 776.650146, 291.664948, 36.0, 15.0 ],
									"presentation" : 1,
									"presentation_rect" : [ 652.472168, 98.33548, 51.404167, 15.0 ],
									"saved_attribute_attributes" : 									{
										"valueof" : 										{
											"parameter_longname" : "Swing amount",
											"parameter_shortname" : "Swing amount",
											"parameter_type" : 0,
											"parameter_mmax" : 100.0,
											"parameter_initial" : [ 50 ],
											"parameter_unitstyle" : 5,
											"parameter_defer" : 1
										}

									}
,
									"textcolor" : [ 0.094118, 0.117647, 0.137255, 1.0 ],
									"tricolor2" : [ 1.0, 1.0, 1.0, 0.301961 ],
									"varname" : "swing amount"
								}

							}
, 							{
								"box" : 								{
									"activebgcolor" : [ 0.094118, 0.117647, 0.137255, 0.0 ],
									"activebgoncolor" : [ 0.278431, 0.839216, 1.0, 1.0 ],
									"activetextcolor" : [ 1.0, 1.0, 1.0, 0.7 ],
									"activetextoncolor" : [ 0.094118, 0.117647, 0.137255, 1.0 ],
									"annotation" : "Turn on the Swing Switch to activate the Step Sequencer's internal swing function. Swing is disabled unless pulse is set to 1/8, 1/16 or 1/32 values.",
									"automation" : "off",
									"automationon" : "on",
									"bgcolor" : [ 0.094118, 0.117647, 0.137255, 0.0 ],
									"bordercolor" : [ 1.0, 1.0, 1.0, 0.2 ],
									"focusbordercolor" : [ 0.278431, 0.839216, 1.0, 1.0 ],
									"fontface" : 0,
									"fontname" : "Arial Bold",
									"id" : "obj-157",
									"maxclass" : "live.text",
									"numinlets" : 1,
									"numoutlets" : 2,
									"outlettype" : [ "", "" ],
									"parameter_enable" : 1,
									"patching_rect" : [ 674.970947, 291.664948, 56.0, 16.0 ],
									"presentation" : 1,
									"presentation_rect" : [ 592.472168, 98.33548, 52.661621, 14.973684 ],
									"saved_attribute_attributes" : 									{
										"valueof" : 										{
											"parameter_longname" : "Swing enable",
											"parameter_shortname" : "Swing enable",
											"parameter_type" : 2,
											"parameter_mmax" : 1.0,
											"parameter_enum" : [ "off", "on" ],
											"parameter_modmax" : 1.0,
											"parameter_initial_enable" : 1,
											"parameter_initial" : [ 0.0 ],
											"parameter_defer" : 1
										}

									}
,
									"text" : "Swing off",
									"texton" : "Swing on",
									"varname" : "swing switch"
								}

							}
, 							{
								"box" : 								{
									"fontname" : "Arial Bold",
									"fontsize" : 10.0,
									"id" : "obj-101",
									"maxclass" : "newobj",
									"numinlets" : 2,
									"numoutlets" : 2,
									"outlettype" : [ "", "" ],
									"patching_rect" : [ 674.970947, 225.725967, 67.0, 18.0 ],
									"text" : "routepass 0"
								}

							}
, 							{
								"box" : 								{
									"fontname" : "Arial Bold",
									"fontsize" : 10.0,
									"id" : "obj-133",
									"maxclass" : "newobj",
									"numinlets" : 2,
									"numoutlets" : 2,
									"outlettype" : [ "", "" ],
									"patching_rect" : [ 943.801453, 171.436035, 47.0, 18.0 ],
									"text" : "route -1"
								}

							}
, 							{
								"box" : 								{
									"fontname" : "Arial Bold",
									"fontsize" : 10.0,
									"id" : "obj-124",
									"maxclass" : "newobj",
									"numinlets" : 1,
									"numoutlets" : 3,
									"outlettype" : [ "int", "int", "int" ],
									"patching_rect" : [ 609.498779, 125.436157, 353.302734, 18.0 ],
									"text" : "unpack i i i"
								}

							}
, 							{
								"box" : 								{
									"fontname" : "Arial Bold",
									"fontsize" : 10.0,
									"id" : "obj-105",
									"maxclass" : "newobj",
									"numinlets" : 2,
									"numoutlets" : 1,
									"outlettype" : [ "int" ],
									"patching_rect" : [ 495.29187, 450.622498, 32.5, 18.0 ],
									"text" : "+ 1"
								}

							}
, 							{
								"box" : 								{
									"fontname" : "Arial Bold",
									"fontsize" : 10.0,
									"id" : "obj-109",
									"maxclass" : "newobj",
									"numinlets" : 3,
									"numoutlets" : 1,
									"outlettype" : [ "" ],
									"patching_rect" : [ 495.29187, 499.198669, 300.358276, 18.0 ],
									"text" : "switch 2"
								}

							}
, 							{
								"box" : 								{
									"bubble" : 1,
									"fontname" : "Arial",
									"fontsize" : 12.0,
									"frgb" : 0.0,
									"id" : "obj-145",
									"maxclass" : "comment",
									"numinlets" : 1,
									"numoutlets" : 0,
									"patching_rect" : [ 1019.679138, 368.098114, 110.0, 24.0 ],
									"text" : "thanks, Darwin!"
								}

							}
, 							{
								"box" : 								{
									"coll_data" : 									{
										"count" : 16,
										"data" : [ 											{
												"key" : 0,
												"value" : [ 1, 0, -1 ]
											}
, 											{
												"key" : 1,
												"value" : [ 4, 0, -1 ]
											}
, 											{
												"key" : 2,
												"value" : [ 7, 0, -1 ]
											}
, 											{
												"key" : 3,
												"value" : [ 10, 1, 2 ]
											}
, 											{
												"key" : 4,
												"value" : [ 13, 1, 1 ]
											}
, 											{
												"key" : 5,
												"value" : [ 16, 1, 0 ]
											}
, 											{
												"key" : 7,
												"value" : [ 3, 0, -1 ]
											}
, 											{
												"key" : 8,
												"value" : [ 6, 0, -1 ]
											}
, 											{
												"key" : 9,
												"value" : [ 9, 0, -1 ]
											}
, 											{
												"key" : 10,
												"value" : [ 12, 0, -1 ]
											}
, 											{
												"key" : 11,
												"value" : [ 15, 0, -1 ]
											}
, 											{
												"key" : 13,
												"value" : [ 5, 0, -1 ]
											}
, 											{
												"key" : 14,
												"value" : [ 8, 0, -1 ]
											}
, 											{
												"key" : 15,
												"value" : [ 11, 0, -1 ]
											}
, 											{
												"key" : 16,
												"value" : [ 14, 0, -1 ]
											}
, 											{
												"key" : 17,
												"value" : [ 17, 0, -1 ]
											}
 ]
									}
,
									"fontname" : "Arial Bold",
									"fontsize" : 10.0,
									"id" : "obj-116",
									"maxclass" : "newobj",
									"numinlets" : 1,
									"numoutlets" : 4,
									"outlettype" : [ "", "", "", "" ],
									"patching_rect" : [ 609.498779, 86.89563, 59.5, 18.0 ],
									"saved_object_attributes" : 									{
										"embed" : 1
									}
,
									"text" : "coll"
								}

							}
, 							{
								"box" : 								{
									"fontname" : "Arial Bold",
									"fontsize" : 10.0,
									"id" : "obj-299",
									"maxclass" : "newobj",
									"numinlets" : 2,
									"numoutlets" : 1,
									"outlettype" : [ "" ],
									"patching_rect" : [ 776.650146, 368.098114, 214.151367, 18.0 ],
									"saved_object_attributes" : 									{
										"filename" : "swingCalc.js",
										"parameter_enable" : 0
									}
,
									"text" : "js swingCalc.js"
								}

							}
, 							{
								"box" : 								{
									"fontname" : "Arial Bold",
									"fontsize" : 10.0,
									"id" : "obj-262",
									"maxclass" : "newobj",
									"numinlets" : 1,
									"numoutlets" : 1,
									"outlettype" : [ "bang" ],
									"patcher" : 									{
										"fileversion" : 1,
										"appversion" : 										{
											"major" : 6,
											"minor" : 1,
											"revision" : 3,
											"architecture" : "x86"
										}
,
										"rect" : [ 25.0, 95.0, 1058.0, 771.0 ],
										"bglocked" : 0,
										"openinpresentation" : 0,
										"default_fontsize" : 12.0,
										"default_fontface" : 0,
										"default_fontname" : "Arial",
										"gridonopen" : 0,
										"gridsize" : [ 15.0, 15.0 ],
										"gridsnaponopen" : 0,
										"statusbarvisible" : 1,
										"toolbarvisible" : 1,
										"boxanimatetime" : 200,
										"imprint" : 0,
										"enablehscroll" : 1,
										"enablevscroll" : 1,
										"devicewidth" : 0.0,
										"description" : "",
										"digest" : "",
										"tags" : "",
										"boxes" : [ 											{
												"box" : 												{
													"comment" : "",
													"id" : "obj-1",
													"maxclass" : "inlet",
													"numinlets" : 0,
													"numoutlets" : 1,
													"outlettype" : [ "" ],
													"patching_rect" : [ 226.625, 66.0, 25.0, 25.0 ]
												}

											}
, 											{
												"box" : 												{
													"fontname" : "Arial Bold",
													"fontsize" : 10.0,
													"id" : "obj-223",
													"maxclass" : "newobj",
													"numinlets" : 1,
													"numoutlets" : 2,
													"outlettype" : [ "bang", "bang" ],
													"patching_rect" : [ 50.000004, 655.415527, 32.5, 18.0 ],
													"text" : "b"
												}

											}
, 											{
												"box" : 												{
													"fontname" : "Arial Bold",
													"fontsize" : 10.0,
													"id" : "obj-215",
													"maxclass" : "newobj",
													"numinlets" : 1,
													"numoutlets" : 2,
													"outlettype" : [ "int", "clear" ],
													"patching_rect" : [ 90.625, 505.0, 46.0, 18.0 ],
													"text" : "t i clear"
												}

											}
, 											{
												"box" : 												{
													"fontname" : "Arial Bold",
													"fontsize" : 10.0,
													"id" : "obj-216",
													"maxclass" : "newobj",
													"numinlets" : 2,
													"numoutlets" : 2,
													"outlettype" : [ "", "" ],
													"patching_rect" : [ 50.000004, 577.0, 59.625, 18.0 ],
													"text" : "buddy"
												}

											}
, 											{
												"box" : 												{
													"fontname" : "Arial Bold",
													"fontsize" : 10.0,
													"id" : "obj-217",
													"maxclass" : "newobj",
													"numinlets" : 2,
													"numoutlets" : 1,
													"outlettype" : [ "int" ],
													"patching_rect" : [ 90.625, 552.0, 39.0, 18.0 ],
													"text" : "% 480"
												}

											}
, 											{
												"box" : 												{
													"fontname" : "Arial Bold",
													"fontsize" : 10.0,
													"id" : "obj-218",
													"maxclass" : "newobj",
													"numinlets" : 2,
													"numoutlets" : 1,
													"outlettype" : [ "int" ],
													"patching_rect" : [ 90.625, 529.0, 32.5, 18.0 ],
													"text" : "* 60"
												}

											}
, 											{
												"box" : 												{
													"fontname" : "Arial Bold",
													"fontsize" : 10.0,
													"id" : "obj-219",
													"maxclass" : "newobj",
													"numinlets" : 6,
													"numoutlets" : 1,
													"outlettype" : [ "" ],
													"patching_rect" : [ 50.000004, 609.415527, 120.5625, 18.0 ],
													"text" : "pack 0 0 0. 0. 0 0"
												}

											}
, 											{
												"box" : 												{
													"fontname" : "Arial Bold",
													"fontsize" : 10.0,
													"id" : "obj-221",
													"linecount" : 2,
													"maxclass" : "newobj",
													"numinlets" : 2,
													"numoutlets" : 1,
													"outlettype" : [ "bang" ],
													"patching_rect" : [ 50.0, 100.0, 145.0, 29.0 ],
													"text" : "metro @interval 5 ticks @quantize 5 ticks @active 1"
												}

											}
, 											{
												"box" : 												{
													"fontname" : "Arial Bold",
													"fontsize" : 10.0,
													"id" : "obj-222",
													"maxclass" : "newobj",
													"numinlets" : 2,
													"numoutlets" : 9,
													"outlettype" : [ "int", "int", "float", "float", "float", "", "int", "float", "" ],
													"patching_rect" : [ 50.0, 140.0, 154.416672, 18.0 ],
													"text" : "transport"
												}

											}
, 											{
												"box" : 												{
													"comment" : "",
													"id" : "obj-261",
													"maxclass" : "outlet",
													"numinlets" : 1,
													"numoutlets" : 0,
													"patching_rect" : [ 50.000004, 696.415527, 25.0, 25.0 ]
												}

											}
, 											{
												"box" : 												{
													"fontname" : "Arial Bold",
													"fontsize" : 10.0,
													"id" : "obj-16",
													"maxclass" : "newobj",
													"numinlets" : 1,
													"numoutlets" : 3,
													"outlettype" : [ "", "int", "int" ],
													"patching_rect" : [ 90.625, 463.0, 57.0, 18.0 ],
													"text" : "change -1"
												}

											}
, 											{
												"box" : 												{
													"fontname" : "Arial Bold",
													"fontsize" : 10.0,
													"id" : "obj-17",
													"maxclass" : "newobj",
													"numinlets" : 2,
													"numoutlets" : 1,
													"outlettype" : [ "int" ],
													"patching_rect" : [ 90.625, 439.0, 59.0, 18.0 ],
													"text" : "+ 0"
												}

											}
, 											{
												"box" : 												{
													"fontname" : "Arial Bold",
													"fontsize" : 10.0,
													"id" : "obj-18",
													"maxclass" : "newobj",
													"numinlets" : 2,
													"numoutlets" : 1,
													"outlettype" : [ "int" ],
													"patching_rect" : [ 90.625, 415.0, 32.5, 18.0 ],
													"text" : "* 8"
												}

											}
, 											{
												"box" : 												{
													"fontname" : "Arial Bold",
													"fontsize" : 10.0,
													"id" : "obj-19",
													"maxclass" : "newobj",
													"numinlets" : 2,
													"numoutlets" : 1,
													"outlettype" : [ "int" ],
													"patching_rect" : [ 90.625, 391.0, 32.5, 18.0 ],
													"text" : "- 1"
												}

											}
, 											{
												"box" : 												{
													"fontname" : "Arial Bold",
													"fontsize" : 10.0,
													"id" : "obj-46",
													"maxclass" : "newobj",
													"numinlets" : 1,
													"numoutlets" : 8,
													"outlettype" : [ "float", "float", "float", "float", "float", "float", "float", "float" ],
													"patching_rect" : [ 226.625, 140.0, 357.0, 18.0 ],
													"text" : "unpack 0. 0. 0. 0. 0. 0. 0. 0."
												}

											}
, 											{
												"box" : 												{
													"fontname" : "Arial Bold",
													"fontsize" : 10.0,
													"id" : "obj-20",
													"maxclass" : "newobj",
													"numinlets" : 2,
													"numoutlets" : 1,
													"outlettype" : [ "int" ],
													"patching_rect" : [ 130.625, 414.0, 32.5, 18.0 ],
													"text" : "- 1"
												}

											}
, 											{
												"box" : 												{
													"fontname" : "Arial Bold",
													"fontsize" : 10.0,
													"id" : "obj-14",
													"maxclass" : "newobj",
													"numinlets" : 2,
													"numoutlets" : 2,
													"outlettype" : [ "", "" ],
													"patching_rect" : [ 130.625, 391.0, 42.0, 18.0 ],
													"text" : "zl sum"
												}

											}
, 											{
												"box" : 												{
													"fontname" : "Arial Bold",
													"fontsize" : 10.0,
													"id" : "obj-13",
													"maxclass" : "newobj",
													"numinlets" : 8,
													"numoutlets" : 1,
													"outlettype" : [ "" ],
													"patching_rect" : [ 202.625, 367.0, 354.5, 18.0 ],
													"text" : "pack 0 0 0 0 0 0 0 0"
												}

											}
, 											{
												"box" : 												{
													"fontname" : "Arial Bold",
													"fontsize" : 10.0,
													"id" : "obj-11",
													"maxclass" : "newobj",
													"numinlets" : 2,
													"numoutlets" : 1,
													"outlettype" : [ "int" ],
													"patching_rect" : [ 538.625, 343.0, 45.0, 18.0 ],
													"text" : ">= 420."
												}

											}
, 											{
												"box" : 												{
													"fontname" : "Arial Bold",
													"fontsize" : 10.0,
													"id" : "obj-12",
													"maxclass" : "newobj",
													"numinlets" : 2,
													"numoutlets" : 1,
													"outlettype" : [ "int" ],
													"patching_rect" : [ 490.625, 343.0, 45.0, 18.0 ],
													"text" : ">= 380."
												}

											}
, 											{
												"box" : 												{
													"fontname" : "Arial Bold",
													"fontsize" : 10.0,
													"id" : "obj-9",
													"maxclass" : "newobj",
													"numinlets" : 2,
													"numoutlets" : 1,
													"outlettype" : [ "int" ],
													"patching_rect" : [ 442.625, 343.0, 44.0, 18.0 ],
													"text" : ">= 360."
												}

											}
, 											{
												"box" : 												{
													"fontname" : "Arial Bold",
													"fontsize" : 10.0,
													"id" : "obj-10",
													"maxclass" : "newobj",
													"numinlets" : 2,
													"numoutlets" : 1,
													"outlettype" : [ "int" ],
													"patching_rect" : [ 394.625, 343.0, 44.0, 18.0 ],
													"text" : ">= 240."
												}

											}
, 											{
												"box" : 												{
													"fontname" : "Arial Bold",
													"fontsize" : 10.0,
													"id" : "obj-8",
													"maxclass" : "newobj",
													"numinlets" : 2,
													"numoutlets" : 1,
													"outlettype" : [ "int" ],
													"patching_rect" : [ 346.625, 343.0, 44.0, 18.0 ],
													"text" : ">= 180."
												}

											}
, 											{
												"box" : 												{
													"fontname" : "Arial Bold",
													"fontsize" : 10.0,
													"id" : "obj-6",
													"maxclass" : "newobj",
													"numinlets" : 2,
													"numoutlets" : 1,
													"outlettype" : [ "int" ],
													"patching_rect" : [ 298.625, 343.0, 44.0, 18.0 ],
													"text" : ">= 120."
												}

											}
, 											{
												"box" : 												{
													"fontname" : "Arial Bold",
													"fontsize" : 10.0,
													"id" : "obj-5",
													"maxclass" : "newobj",
													"numinlets" : 2,
													"numoutlets" : 1,
													"outlettype" : [ "int" ],
													"patching_rect" : [ 250.625, 343.0, 43.0, 18.0 ],
													"text" : ">= 60."
												}

											}
, 											{
												"box" : 												{
													"fontname" : "Arial Bold",
													"fontsize" : 10.0,
													"id" : "obj-4",
													"maxclass" : "newobj",
													"numinlets" : 2,
													"numoutlets" : 1,
													"outlettype" : [ "int" ],
													"patching_rect" : [ 202.625, 343.0, 43.0, 18.0 ],
													"text" : ">= 0."
												}

											}
 ],
										"lines" : [ 											{
												"patchline" : 												{
													"destination" : [ "obj-46", 0 ],
													"disabled" : 0,
													"hidden" : 0,
													"source" : [ "obj-1", 0 ]
												}

											}
, 											{
												"patchline" : 												{
													"destination" : [ "obj-13", 4 ],
													"disabled" : 0,
													"hidden" : 0,
													"source" : [ "obj-10", 0 ]
												}

											}
, 											{
												"patchline" : 												{
													"destination" : [ "obj-13", 7 ],
													"disabled" : 0,
													"hidden" : 0,
													"source" : [ "obj-11", 0 ]
												}

											}
, 											{
												"patchline" : 												{
													"destination" : [ "obj-13", 6 ],
													"disabled" : 0,
													"hidden" : 0,
													"source" : [ "obj-12", 0 ]
												}

											}
, 											{
												"patchline" : 												{
													"destination" : [ "obj-14", 0 ],
													"disabled" : 0,
													"hidden" : 0,
													"source" : [ "obj-13", 0 ]
												}

											}
, 											{
												"patchline" : 												{
													"destination" : [ "obj-20", 0 ],
													"disabled" : 0,
													"hidden" : 0,
													"source" : [ "obj-14", 0 ]
												}

											}
, 											{
												"patchline" : 												{
													"destination" : [ "obj-215", 0 ],
													"disabled" : 0,
													"hidden" : 0,
													"source" : [ "obj-16", 0 ]
												}

											}
, 											{
												"patchline" : 												{
													"destination" : [ "obj-16", 0 ],
													"disabled" : 0,
													"hidden" : 0,
													"source" : [ "obj-17", 0 ]
												}

											}
, 											{
												"patchline" : 												{
													"destination" : [ "obj-17", 0 ],
													"disabled" : 0,
													"hidden" : 0,
													"source" : [ "obj-18", 0 ]
												}

											}
, 											{
												"patchline" : 												{
													"destination" : [ "obj-18", 0 ],
													"disabled" : 0,
													"hidden" : 0,
													"source" : [ "obj-19", 0 ]
												}

											}
, 											{
												"patchline" : 												{
													"destination" : [ "obj-17", 1 ],
													"disabled" : 0,
													"hidden" : 0,
													"source" : [ "obj-20", 0 ]
												}

											}
, 											{
												"patchline" : 												{
													"destination" : [ "obj-216", 0 ],
													"disabled" : 0,
													"hidden" : 0,
													"midpoints" : [ 127.125, 549.5, 59.500004, 549.5 ],
													"source" : [ "obj-215", 1 ]
												}

											}
, 											{
												"patchline" : 												{
													"destination" : [ "obj-218", 0 ],
													"disabled" : 0,
													"hidden" : 0,
													"source" : [ "obj-215", 0 ]
												}

											}
, 											{
												"patchline" : 												{
													"destination" : [ "obj-219", 2 ],
													"disabled" : 0,
													"hidden" : 0,
													"source" : [ "obj-216", 1 ]
												}

											}
, 											{
												"patchline" : 												{
													"destination" : [ "obj-219", 0 ],
													"disabled" : 0,
													"hidden" : 0,
													"source" : [ "obj-216", 0 ]
												}

											}
, 											{
												"patchline" : 												{
													"destination" : [ "obj-216", 1 ],
													"disabled" : 0,
													"hidden" : 0,
													"source" : [ "obj-217", 0 ]
												}

											}
, 											{
												"patchline" : 												{
													"destination" : [ "obj-217", 0 ],
													"disabled" : 0,
													"hidden" : 0,
													"source" : [ "obj-218", 0 ]
												}

											}
, 											{
												"patchline" : 												{
													"destination" : [ "obj-223", 0 ],
													"disabled" : 0,
													"hidden" : 0,
													"source" : [ "obj-219", 0 ]
												}

											}
, 											{
												"patchline" : 												{
													"destination" : [ "obj-222", 0 ],
													"disabled" : 0,
													"hidden" : 0,
													"source" : [ "obj-221", 0 ]
												}

											}
, 											{
												"patchline" : 												{
													"destination" : [ "obj-10", 0 ],
													"disabled" : 0,
													"hidden" : 0,
													"midpoints" : [ 93.354172, 250.0, 404.125, 250.0 ],
													"source" : [ "obj-222", 2 ]
												}

											}
, 											{
												"patchline" : 												{
													"destination" : [ "obj-11", 0 ],
													"disabled" : 0,
													"hidden" : 0,
													"midpoints" : [ 93.354172, 250.0, 548.125, 250.0 ],
													"source" : [ "obj-222", 2 ]
												}

											}
, 											{
												"patchline" : 												{
													"destination" : [ "obj-12", 0 ],
													"disabled" : 0,
													"hidden" : 0,
													"midpoints" : [ 93.354172, 250.0, 500.125, 250.0 ],
													"source" : [ "obj-222", 2 ]
												}

											}
, 											{
												"patchline" : 												{
													"destination" : [ "obj-19", 0 ],
													"disabled" : 0,
													"hidden" : 0,
													"midpoints" : [ 76.427086, 274.0, 100.125, 274.0 ],
													"source" : [ "obj-222", 1 ]
												}

											}
, 											{
												"patchline" : 												{
													"destination" : [ "obj-216", 0 ],
													"disabled" : 0,
													"hidden" : 0,
													"source" : [ "obj-222", 0 ]
												}

											}
, 											{
												"patchline" : 												{
													"destination" : [ "obj-219", 5 ],
													"disabled" : 0,
													"hidden" : 0,
													"source" : [ "obj-222", 6 ]
												}

											}
, 											{
												"patchline" : 												{
													"destination" : [ "obj-219", 4 ],
													"disabled" : 0,
													"hidden" : 0,
													"source" : [ "obj-222", 5 ]
												}

											}
, 											{
												"patchline" : 												{
													"destination" : [ "obj-219", 3 ],
													"disabled" : 0,
													"hidden" : 0,
													"source" : [ "obj-222", 3 ]
												}

											}
, 											{
												"patchline" : 												{
													"destination" : [ "obj-219", 1 ],
													"disabled" : 0,
													"hidden" : 0,
													"source" : [ "obj-222", 1 ]
												}

											}
, 											{
												"patchline" : 												{
													"destination" : [ "obj-4", 0 ],
													"disabled" : 0,
													"hidden" : 0,
													"midpoints" : [ 93.354172, 250.0, 212.125, 250.0 ],
													"source" : [ "obj-222", 2 ]
												}

											}
, 											{
												"patchline" : 												{
													"destination" : [ "obj-5", 0 ],
													"disabled" : 0,
													"hidden" : 0,
													"midpoints" : [ 93.354172, 250.0, 260.125, 250.0 ],
													"source" : [ "obj-222", 2 ]
												}

											}
, 											{
												"patchline" : 												{
													"destination" : [ "obj-6", 0 ],
													"disabled" : 0,
													"hidden" : 0,
													"midpoints" : [ 93.354172, 250.0, 308.125, 250.0 ],
													"source" : [ "obj-222", 2 ]
												}

											}
, 											{
												"patchline" : 												{
													"destination" : [ "obj-8", 0 ],
													"disabled" : 0,
													"hidden" : 0,
													"midpoints" : [ 93.354172, 250.0, 356.125, 250.0 ],
													"source" : [ "obj-222", 2 ]
												}

											}
, 											{
												"patchline" : 												{
													"destination" : [ "obj-9", 0 ],
													"disabled" : 0,
													"hidden" : 0,
													"midpoints" : [ 93.354172, 250.0, 452.125, 250.0 ],
													"source" : [ "obj-222", 2 ]
												}

											}
, 											{
												"patchline" : 												{
													"destination" : [ "obj-261", 0 ],
													"disabled" : 0,
													"hidden" : 0,
													"source" : [ "obj-223", 0 ]
												}

											}
, 											{
												"patchline" : 												{
													"destination" : [ "obj-13", 0 ],
													"disabled" : 0,
													"hidden" : 0,
													"source" : [ "obj-4", 0 ]
												}

											}
, 											{
												"patchline" : 												{
													"destination" : [ "obj-10", 1 ],
													"disabled" : 0,
													"hidden" : 0,
													"source" : [ "obj-46", 4 ]
												}

											}
, 											{
												"patchline" : 												{
													"destination" : [ "obj-11", 1 ],
													"disabled" : 0,
													"hidden" : 0,
													"source" : [ "obj-46", 7 ]
												}

											}
, 											{
												"patchline" : 												{
													"destination" : [ "obj-12", 1 ],
													"disabled" : 0,
													"hidden" : 0,
													"source" : [ "obj-46", 6 ]
												}

											}
, 											{
												"patchline" : 												{
													"destination" : [ "obj-4", 1 ],
													"disabled" : 0,
													"hidden" : 0,
													"source" : [ "obj-46", 0 ]
												}

											}
, 											{
												"patchline" : 												{
													"destination" : [ "obj-5", 1 ],
													"disabled" : 0,
													"hidden" : 0,
													"source" : [ "obj-46", 1 ]
												}

											}
, 											{
												"patchline" : 												{
													"destination" : [ "obj-6", 1 ],
													"disabled" : 0,
													"hidden" : 0,
													"source" : [ "obj-46", 2 ]
												}

											}
, 											{
												"patchline" : 												{
													"destination" : [ "obj-8", 1 ],
													"disabled" : 0,
													"hidden" : 0,
													"source" : [ "obj-46", 3 ]
												}

											}
, 											{
												"patchline" : 												{
													"destination" : [ "obj-9", 1 ],
													"disabled" : 0,
													"hidden" : 0,
													"source" : [ "obj-46", 5 ]
												}

											}
, 											{
												"patchline" : 												{
													"destination" : [ "obj-13", 1 ],
													"disabled" : 0,
													"hidden" : 0,
													"source" : [ "obj-5", 0 ]
												}

											}
, 											{
												"patchline" : 												{
													"destination" : [ "obj-13", 2 ],
													"disabled" : 0,
													"hidden" : 0,
													"source" : [ "obj-6", 0 ]
												}

											}
, 											{
												"patchline" : 												{
													"destination" : [ "obj-13", 3 ],
													"disabled" : 0,
													"hidden" : 0,
													"source" : [ "obj-8", 0 ]
												}

											}
, 											{
												"patchline" : 												{
													"destination" : [ "obj-13", 5 ],
													"disabled" : 0,
													"hidden" : 0,
													"source" : [ "obj-9", 0 ]
												}

											}
 ]
									}
,
									"patching_rect" : [ 776.650146, 406.278778, 79.0, 18.0 ],
									"saved_object_attributes" : 									{
										"default_fontface" : 0,
										"default_fontname" : "Arial",
										"default_fontsize" : 12.0,
										"description" : "",
										"digest" : "",
										"fontface" : 0,
										"fontname" : "Arial",
										"fontsize" : 12.0,
										"globalpatchername" : "",
										"tags" : ""
									}
,
									"text" : "p swingamajig"
								}

							}
, 							{
								"box" : 								{
									"id" : "obj-120",
									"maxclass" : "live.menu",
									"numinlets" : 1,
									"numoutlets" : 3,
									"outlettype" : [ "", "", "float" ],
									"parameter_enable" : 1,
									"patching_rect" : [ 609.498779, 171.436035, 71.944458, 15.0 ],
									"saved_attribute_attributes" : 									{
										"valueof" : 										{
											"parameter_longname" : "Max pulse[1]",
											"parameter_shortname" : "Max pulse",
											"parameter_type" : 2,
											"parameter_enum" : [ "1nd", "1n", "1nt", "2nd", "2n", "2nt", "4nd", "4n", "4nt", "8nd", "8n", "8nt", "16nd", "16n", "16nt", "32nd", "32n", "32nt", "64nd", "64n", "128nd", "128n" ],
											"parameter_initial" : [ 0.0 ],
											"parameter_invisible" : 2
										}

									}
,
									"varname" : "max pulse[1]"
								}

							}
, 							{
								"box" : 								{
									"fontname" : "Arial Bold",
									"fontsize" : 10.0,
									"id" : "obj-204",
									"maxclass" : "message",
									"numinlets" : 2,
									"numoutlets" : 1,
									"outlettype" : [ "" ],
									"patching_rect" : [ 635.970947, 353.1987, 120.0, 16.0 ],
									"text" : "interval $1, quantize $1"
								}

							}
, 							{
								"box" : 								{
									"fontface" : 1,
									"fontname" : "Arial",
									"fontsize" : 10.0,
									"id" : "obj-205",
									"linecount" : 3,
									"maxclass" : "newobj",
									"numinlets" : 2,
									"numoutlets" : 1,
									"outlettype" : [ "bang" ],
									"patching_rect" : [ 635.970947, 395.1987, 88.0, 40.0 ],
									"text" : "metro @active 1 @interval 32n @quantize 32n"
								}

							}
, 							{
								"box" : 								{
									"fontname" : "Arial Bold",
									"fontsize" : 10.0,
									"id" : "obj-153",
									"maxclass" : "message",
									"numinlets" : 2,
									"numoutlets" : 1,
									"outlettype" : [ "" ],
									"patching_rect" : [ 776.650146, 226.725967, 53.0, 16.0 ],
									"text" : "active $1"
								}

							}
, 							{
								"box" : 								{
									"activebgcolor" : [ 0.6, 0.6, 0.6, 0.06 ],
									"activebgoncolor" : [ 0.278431, 0.839216, 1.0, 1.0 ],
									"annotation" : "Sync",
									"bgcolor" : [ 0.6, 0.6, 0.6, 0.06 ],
									"bordercolor" : [ 1.0, 1.0, 1.0, 0.2 ],
									"focusbordercolor" : [ 1.0, 1.0, 1.0, 0.2 ],
									"id" : "obj-28",
									"maxclass" : "live.button",
									"numinlets" : 1,
									"numoutlets" : 1,
									"outlettype" : [ "" ],
									"parameter_enable" : 1,
									"patching_rect" : [ 673.512085, 762.689941, 23.345901, 25.0 ],
									"presentation" : 1,
									"presentation_rect" : [ 692.876343, 155.263153, 15.0, 15.0 ],
									"saved_attribute_attributes" : 									{
										"valueof" : 										{
											"parameter_longname" : "Sync",
											"parameter_shortname" : "Sync",
											"parameter_type" : 2,
											"parameter_mmax" : 1.0,
											"parameter_enum" : [ "off", "on" ]
										}

									}
,
									"varname" : "Sync"
								}

							}
, 							{
								"box" : 								{
									"fontname" : "Arial Bold",
									"fontsize" : 10.0,
									"id" : "obj-35",
									"maxclass" : "newobj",
									"numinlets" : 1,
									"numoutlets" : 0,
									"patching_rect" : [ 711.300537, 944.690063, 99.0, 18.0 ],
									"text" : "s #0_to_livestep"
								}

							}
, 							{
								"box" : 								{
									"fontface" : 1,
									"fontname" : "Arial",
									"fontsize" : 10.0,
									"id" : "obj-76",
									"maxclass" : "message",
									"numinlets" : 2,
									"numoutlets" : 1,
									"outlettype" : [ "" ],
									"patching_rect" : [ 774.800537, 871.190063, 100.0, 16.0 ],
									"text" : "nstep $1, loop 1 $1"
								}

							}
, 							{
								"box" : 								{
									"fontface" : 1,
									"fontname" : "Arial",
									"fontsize" : 10.0,
									"id" : "obj-73",
									"maxclass" : "newobj",
									"numinlets" : 1,
									"numoutlets" : 0,
									"patching_rect" : [ 774.800537, 906.190063, 99.0, 18.0 ],
									"text" : "s #0_to_livestep"
								}

							}
, 							{
								"box" : 								{
									"activebgcolor" : [ 0.0, 0.0, 0.0, 0.0 ],
									"annotation" : "Sync to downbeat every [n] measures.",
									"bordercolor" : [ 1.0, 1.0, 1.0, 0.2 ],
									"hltcolor" : [ 0.278431, 0.839216, 1.0, 1.0 ],
									"id" : "obj-89",
									"maxclass" : "live.menu",
									"numinlets" : 1,
									"numoutlets" : 3,
									"outlettype" : [ "", "", "float" ],
									"parameter_enable" : 1,
									"patching_rect" : [ 673.512085, 649.389893, 41.144463, 15.0 ],
									"presentation" : 1,
									"presentation_rect" : [ 646.515381, 156.263153, 42.438744, 15.0 ],
									"saved_attribute_attributes" : 									{
										"valueof" : 										{
											"parameter_longname" : "Reset",
											"parameter_shortname" : "Reset",
											"parameter_type" : 2,
											"parameter_enum" : [ "off", "1", "2", "4" ],
											"parameter_initial" : [ 0.0 ],
											"parameter_invisible" : 1
										}

									}
,
									"textcolor" : [ 1.0, 1.0, 1.0, 0.6 ],
									"tricolor" : [ 1.0, 1.0, 1.0, 0.6 ],
									"varname" : "Reset"
								}

							}
, 							{
								"box" : 								{
									"fontname" : "Arial Bold",
									"fontsize" : 10.0,
									"id" : "obj-90",
									"maxclass" : "newobj",
									"numinlets" : 4,
									"numoutlets" : 1,
									"outlettype" : [ "" ],
									"patching_rect" : [ 673.512085, 713.789795, 184.095337, 18.0 ],
									"text" : "switch 3"
								}

							}
, 							{
								"box" : 								{
									"fontname" : "Arial Bold",
									"fontsize" : 10.0,
									"id" : "obj-93",
									"maxclass" : "newobj",
									"numinlets" : 1,
									"numoutlets" : 0,
									"patching_rect" : [ 628.800537, 944.690063, 97.0, 18.0 ],
									"text" : "s #0_to_livegrid"
								}

							}
, 							{
								"box" : 								{
									"fontname" : "Arial Bold",
									"fontsize" : 10.0,
									"id" : "obj-94",
									"maxclass" : "message",
									"numinlets" : 2,
									"numoutlets" : 1,
									"outlettype" : [ "" ],
									"patching_rect" : [ 673.800537, 849.690063, 32.5, 16.0 ],
									"text" : "1"
								}

							}
, 							{
								"box" : 								{
									"fontname" : "Arial Bold",
									"fontsize" : 10.0,
									"id" : "obj-104",
									"maxclass" : "newobj",
									"numinlets" : 5,
									"numoutlets" : 4,
									"outlettype" : [ "int", "", "", "int" ],
									"patching_rect" : [ 628.800537, 890.376831, 109.0, 18.0 ],
									"text" : "counter 1 16"
								}

							}
, 							{
								"box" : 								{
									"activedialcolor" : [ 0.278431, 0.839216, 1.0, 1.0 ],
									"activeneedlecolor" : [ 1.0, 1.0, 1.0, 0.4 ],
									"annotation" : "Sets number of steps in the sequence.",
									"id" : "obj-95",
									"maxclass" : "live.dial",
									"numinlets" : 1,
									"numoutlets" : 2,
									"outlettype" : [ "", "float" ],
									"parameter_enable" : 1,
									"patching_rect" : [ 718.800537, 778.189819, 44.0, 47.0 ],
									"presentation" : 1,
									"presentation_rect" : [ 590.472168, 138.25, 44.0, 47.0 ],
									"saved_attribute_attributes" : 									{
										"valueof" : 										{
											"parameter_longname" : "Steps",
											"parameter_shortname" : "Steps",
											"parameter_type" : 1,
											"parameter_mmin" : 1.0,
											"parameter_mmax" : 64.0,
											"parameter_initial_enable" : 1,
											"parameter_initial" : [ 16 ],
											"parameter_unitstyle" : 0
										}

									}
,
									"textcolor" : [ 1.0, 1.0, 1.0, 0.4 ],
									"varname" : "Steps"
								}

							}
, 							{
								"box" : 								{
									"bgcolor" : [ 0.094118, 0.117647, 0.137255, 1.0 ],
									"bordercolor" : [ 1.0, 1.0, 1.0, 0.4 ],
									"id" : "obj-97",
									"maxclass" : "panel",
									"numinlets" : 1,
									"numoutlets" : 0,
									"patching_rect" : [ 1352.517212, 280.838135, 22.0, 30.0 ],
									"presentation" : 1,
									"presentation_rect" : [ 5.044422, 43.0, 574.817261, 158.25 ],
									"rounded" : 10,
									"varname" : "Display[2]"
								}

							}
, 							{
								"box" : 								{
									"fontface" : 1,
									"fontname" : "Arial",
									"fontsize" : 10.0,
									"id" : "obj-102",
									"maxclass" : "newobj",
									"numinlets" : 1,
									"numoutlets" : 0,
									"patching_rect" : [ 908.008789, 906.190063, 97.0, 18.0 ],
									"text" : "s #0_to_livegrid"
								}

							}
, 							{
								"box" : 								{
									"fontface" : 1,
									"fontname" : "Arial",
									"fontsize" : 10.0,
									"id" : "obj-103",
									"maxclass" : "message",
									"numinlets" : 2,
									"numoutlets" : 1,
									"outlettype" : [ "" ],
									"patching_rect" : [ 908.008789, 871.190063, 67.0, 16.0 ],
									"text" : "columns $1"
								}

							}
, 							{
								"box" : 								{
									"bgcolor" : [ 0.137255, 0.145098, 0.160784, 0.65 ],
									"bordercolor" : [ 0.0, 0.019608, 0.078431, 0.0 ],
									"id" : "obj-265",
									"maxclass" : "panel",
									"numinlets" : 1,
									"numoutlets" : 0,
									"patching_rect" : [ 1352.517212, 325.642517, 22.0, 20.336945 ],
									"presentation" : 1,
									"presentation_rect" : [ 582.861694, 43.0, 133.014648, 79.407898 ],
									"rounded" : 10
								}

							}
, 							{
								"box" : 								{
									"bgcolor" : [ 0.137255, 0.145098, 0.160784, 0.65 ],
									"bordercolor" : [ 0.0, 0.019608, 0.078431, 0.0 ],
									"id" : "obj-106",
									"maxclass" : "panel",
									"numinlets" : 1,
									"numoutlets" : 0,
									"patching_rect" : [ 1352.517212, 259.918915, 22.0, 20.336945 ],
									"presentation" : 1,
									"presentation_rect" : [ 582.861694, 126.206512, 133.014648, 75.302628 ],
									"rounded" : 10
								}

							}
, 							{
								"box" : 								{
									"fontname" : "Arial",
									"fontsize" : 12.0,
									"id" : "obj-1",
									"maxclass" : "newobj",
									"numinlets" : 1,
									"numoutlets" : 4,
									"outlettype" : [ "", "", "", "" ],
									"patching_rect" : [ 49.083984, 386.0, 59.5, 20.0 ],
									"restore" : 									{
										"GateTime" : [ 80.0 ],
										"Pattern" : [ 1.0 ],
										"Pulse" : [ 4.0 ],
										"Reset" : [ 0.0 ],
										"Steps" : [ 8.0 ],
										"Sync" : [ 0.0 ],
										"live.text" : [ 0.0 ],
										"max pulse[1]" : [ 13.0 ],
										"mute" : [ 0.0 ],
										"swing amount" : [ 0.0 ],
										"swing switch" : [ 0.0 ],
										"trans_trig" : [ 0.0 ]
									}
,
									"text" : "autopattr",
									"varname" : "u127005608"
								}

							}
, 							{
								"box" : 								{
									"fontname" : "Arial Bold",
									"fontsize" : 9.0,
									"frgb" : 0.0,
									"id" : "obj-8",
									"maxclass" : "comment",
									"numinlets" : 1,
									"numoutlets" : 0,
									"patching_rect" : [ 239.0, 175.546204, 37.0, 17.0 ],
									"presentation" : 1,
									"presentation_rect" : [ 2.0, 213.0, 38.0, 17.0 ],
									"text" : "CV",
									"textcolor" : [ 1.0, 1.0, 1.0, 1.0 ]
								}

							}
, 							{
								"box" : 								{
									"fontname" : "Arial Bold",
									"fontsize" : 9.0,
									"frgb" : 0.0,
									"id" : "obj-19",
									"maxclass" : "comment",
									"numinlets" : 1,
									"numoutlets" : 0,
									"patching_rect" : [ 239.0, 199.180069, 41.0, 17.0 ],
									"presentation" : 1,
									"presentation_rect" : [ 2.0, 0.0, 41.0, 17.0 ],
									"text" : "Trigger",
									"textcolor" : [ 1.0, 1.0, 1.0, 1.0 ]
								}

							}
, 							{
								"box" : 								{
									"fontname" : "Arial Bold",
									"fontsize" : 9.0,
									"frgb" : 0.0,
									"id" : "obj-13",
									"linecount" : 2,
									"maxclass" : "comment",
									"numinlets" : 1,
									"numoutlets" : 0,
									"patching_rect" : [ 239.0, 229.836136, 48.0, 27.0 ],
									"presentation" : 1,
									"presentation_rect" : [ 2.0, 19.0, 68.0, 17.0 ],
									"text" : "SEQUENCER",
									"textcolor" : [ 1.0, 1.0, 1.0, 1.0 ]
								}

							}
, 							{
								"box" : 								{
									"bgcolor" : [ 0.0, 0.0, 0.0, 1.0 ],
									"id" : "obj-14",
									"maxclass" : "panel",
									"numinlets" : 1,
									"numoutlets" : 0,
									"patching_rect" : [ 15.0, 149.470001, 128.0, 128.0 ],
									"presentation" : 1,
									"presentation_rect" : [ 0.0, 0.0, 789.268799, 17.0 ],
									"rounded" : 0
								}

							}
, 							{
								"box" : 								{
									"bgcolor" : [ 0.0, 0.0, 0.0, 1.0 ],
									"id" : "obj-15",
									"maxclass" : "panel",
									"numinlets" : 1,
									"numoutlets" : 0,
									"patching_rect" : [ 175.236206, 15.0, 128.0, 128.0 ],
									"presentation" : 1,
									"presentation_rect" : [ 0.0, 213.0, 789.268799, 35.433025 ],
									"rounded" : 0
								}

							}
, 							{
								"box" : 								{
									"bgcolor" : [ 0.137255, 0.145098, 0.160784, 0.65 ],
									"id" : "obj-18",
									"maxclass" : "panel",
									"numinlets" : 1,
									"numoutlets" : 0,
									"patching_rect" : [ 21.736206, 15.0, 128.0, 128.0 ],
									"presentation" : 1,
									"presentation_rect" : [ 0.0, 37.0, 789.268799, 204.584457 ],
									"rounded" : 0
								}

							}
, 							{
								"box" : 								{
									"bgcolor" : [ 0.367404, 0.389405, 0.430238, 1.0 ],
									"id" : "obj-21",
									"maxclass" : "panel",
									"numinlets" : 1,
									"numoutlets" : 0,
									"patching_rect" : [ 161.562378, 149.470001, 128.0, 128.0 ],
									"presentation" : 1,
									"presentation_rect" : [ 0.0, 17.0, 789.268799, 231.433029 ],
									"rounded" : 0
								}

							}
, 							{
								"box" : 								{
									"fontname" : "Arial",
									"fontsize" : 12.0,
									"id" : "obj-110",
									"maxclass" : "newobj",
									"numinlets" : 1,
									"numoutlets" : 3,
									"outlettype" : [ "", "", "" ],
									"patching_rect" : [ 1819.278076, 151.979462, 98.0, 20.0 ],
									"restore" : [ 16, 8, 0, 16, 0, 16, 0, 16, 0, 16, 0, 16, 0, 16, 0, 16, 0, 16, 0, 16, 0, 16, 0, 16, 0, 16, 0, 16, 0, 16, 0, 16, 0, 1, 12, 0, 8, 59.0, 80.0, 0, 0, 60, 101, 4, 48, 127, 63, 83, 4, 48, 127, 67, 57, 4, 50, 127, 74, 78, 4, 48, 127, 70, 35, 4, 48, 127, 67, 75, 4, 48, 127, 60, 114, 4, 46, 127, 70, 75, 4, 48, 127, 1, 12, 0, 16, 48.0, 71.0, 0, 0, 64, 72, 4, 54, 18, 66, 45, 4, 38, 95, 54, 8, 4, 12, 3, 69, 70, 4, 2, 2, 63, 111, 4, 20, 99, 66, 25, 4, 119, 51, 50, 43, 4, 65, 105, 53, 83, 4, 91, 85, 48, 54, 4, 4, 29, 59, 93, 4, 0, 88, 49, 21, 4, 89, 79, 61, 73, 4, 73, 36, 49, 73, 4, 18, 44, 54, 66, 4, 70, 96, 53, 19, 4, 21, 46, 52, 16, 4, 56, 124, 1, 12, 0, 16, 48.0, 71.0, 0, 0, 54, 26, 4, 59, 19, 65, 67, 4, 8, 119, 70, 12, 4, 57, 75, 60, 19, 4, 48, 16, 48, 88, 4, 15, 7, 65, 98, 4, 44, 104, 61, 105, 4, 96, 104, 52, 9, 4, 10, 67, 59, 97, 4, 44, 41, 70, 51, 4, 64, 56, 60, 24, 4, 112, 91, 51, 40, 4, 44, 60, 69, 33, 4, 32, 27, 67, 32, 4, 61, 33, 68, 4, 4, 81, 16, 54, 81, 4, 67, 100, 1, 12, 0, 16, 48.0, 71.0, 0, 0, 70, 97, 4, 12, 108, 54, 25, 4, 46, 47, 58, 8, 4, 14, 103, 69, 78, 4, 25, 36, 60, 106, 4, 106, 71, 52, 54, 4, 127, 34, 67, 60, 4, 79, 44, 48, 69, 4, 34, 54, 61, 97, 4, 87, 17, 49, 10, 4, 28, 21, 58, 7, 4, 72, 57, 52, 86, 4, 112, 63, 68, 10, 4, 40, 24, 55, 60, 4, 124, 124, 68, 109, 4, 96, 118, 53, 125, 4, 17, 126, 1, 12, 0, 16, 48.0, 71.0, 0, 0, 60, 112, 4, 115, 82, 63, 1, 4, 63, 98, 66, 112, 4, 13, 25, 68, 125, 4, 110, 25, 54, 57, 4, 124, 122, 51, 117, 4, 82, 53, 51, 93, 4, 24, 79, 50, 114, 4, 123, 90, 51, 79, 4, 94, 90, 70, 92, 4, 11, 102, 65, 2, 4, 120, 115, 48, 30, 4, 98, 38, 53, 15, 4, 69, 42, 58, 10, 4, 98, 108, 65, 51, 4, 92, 33, 57, 55, 4, 125, 13, 1, 12, 0, 16, 48.0, 71.0, 0, 0, 67, 126, 4, 64, 92, 67, 0, 4, 57, 54, 67, 45, 4, 10, 25, 57, 7, 4, 70, 61, 50, 107, 4, 111, 112, 61, 30, 4, 92, 56, 66, 76, 4, 27, 88, 67, 41, 4, 73, 23, 59, 73, 4, 119, 110, 53, 59, 4, 56, 111, 59, 16, 4, 121, 70, 58, 99, 4, 111, 0, 62, 32, 4, 1, 53, 57, 81, 4, 125, 120, 63, 86, 4, 99, 98, 68, 112, 4, 40, 53, 1, 12, 0, 16, 48.0, 71.0, 0, 0, 58, 108, 4, 114, 7, 69, 90, 4, 6, 83, 56, 7, 4, 104, 33, 48, 54, 4, 44, 67, 48, 38, 4, 75, 120, 55, 94, 4, 115, 41, 49, 114, 4, 46, 76, 66, 52, 4, 43, 13, 59, 59, 4, 9, 71, 62, 104, 4, 17, 75, 61, 6, 4, 79, 68, 57, 40, 4, 12, 19, 50, 1, 4, 52, 62, 59, 93, 4, 121, 80, 63, 99, 4, 103, 80, 58, 62, 4, 90, 19, 1, 12, 0, 16, 48.0, 71.0, 0, 0, 54, 43, 4, 45, 80, 68, 73, 4, 64, 41, 67, 99, 4, 106, 11, 52, 61, 4, 66, 41, 68, 22, 4, 76, 77, 57, 89, 4, 31, 68, 64, 39, 4, 87, 9, 61, 83, 4, 30, 30, 64, 125, 4, 47, 92, 63, 66, 4, 3, 100, 70, 105, 4, 58, 57, 52, 119, 4, 54, 30, 61, 111, 4, 64, 65, 60, 13, 4, 94, 93, 66, 109, 4, 86, 9, 48, 86, 4, 56, 62, 1, 12, 0, 16, 48.0, 71.0, 0, 0, 55, 29, 4, 115, 24, 59, 38, 4, 30, 120, 66, 86, 4, 119, 117, 53, 24, 4, 65, 42, 48, 97, 4, 125, 98, 53, 105, 4, 122, 52, 67, 78, 4, 21, 115, 62, 60, 4, 114, 30, 60, 101, 4, 67, 79, 64, 97, 4, 72, 97, 52, 87, 4, 70, 24, 69, 16, 4, 64, 19, 59, 108, 4, 1, 83, 62, 25, 4, 124, 80, 52, 3, 4, 122, 11, 67, 19, 4, 35, 35, 1, 12, 0, 16, 48.0, 71.0, 0, 0, 70, 14, 4, 105, 91, 56, 95, 4, 98, 119, 65, 69, 4, 73, 75, 58, 110, 4, 35, 106, 64, 16, 4, 23, 77, 66, 72, 4, 8, 15, 67, 15, 4, 7, 34, 63, 65, 4, 69, 119, 54, 49, 4, 71, 16, 57, 66, 4, 8, 93, 64, 107, 4, 79, 91, 52, 7, 4, 94, 59, 61, 13, 4, 118, 101, 60, 49, 4, 114, 44, 53, 10, 4, 64, 90, 51, 20, 4, 84, 126, 1, 12, 0, 16, 48.0, 71.0, 0, 0, 64, 112, 4, 52, 44, 62, 44, 4, 13, 22, 60, 69, 4, 33, 101, 56, 116, 4, 71, 87, 59, 75, 4, 55, 91, 53, 32, 4, 80, 123, 64, 65, 4, 24, 120, 52, 116, 4, 57, 55, 50, 58, 4, 66, 50, 70, 78, 4, 27, 84, 50, 73, 4, 118, 121, 61, 89, 4, 87, 101, 50, 26, 4, 55, 15, 48, 61, 4, 82, 27, 70, 101, 4, 112, 87, 49, 56, 4, 54, 17, 1, 12, 0, 16, 48.0, 71.0, 0, 0, 52, 63, 4, 94, 79, 66, 79, 4, 107, 124, 64, 5, 4, 118, 70, 60, 45, 4, 49, 127, 48, 64, 4, 41, 60, 65, 121, 4, 101, 27, 62, 24, 4, 120, 93, 55, 106, 4, 44, 71, 61, 2, 4, 48, 121, 54, 24, 4, 17, 13, 54, 75, 4, 88, 57, 69, 59, 4, 23, 25, 67, 98, 4, 19, 113, 64, 33, 4, 2, 55, 63, 124, 4, 4, 38, 66, 71, 4, 60, 76, 1, 12, 0, 16, 48.0, 71.0, 0, 0, 62, 105, 4, 112, 80, 51, 105, 4, 15, 51, 61, 114, 4, 19, 15, 58, 126, 4, 26, 86, 63, 10, 4, 32, 21, 58, 99, 4, 61, 52, 50, 112, 4, 20, 32, 63, 60, 4, 65, 18, 68, 13, 4, 7, 3, 68, 49, 4, 73, 111, 61, 52, 4, 47, 71, 56, 90, 4, 64, 36, 59, 78, 4, 115, 9, 56, 92, 4, 60, 94, 57, 12, 4, 64, 25, 62, 23, 4, 99, 118, 1, 12, 0, 16, 48.0, 71.0, 0, 0, 64, 39, 4, 69, 57, 66, 86, 4, 120, 16, 66, 47, 4, 50, 91, 63, 50, 4, 91, 100, 55, 118, 4, 37, 92, 63, 125, 4, 5, 79, 58, 46, 4, 114, 87, 58, 110, 4, 55, 66, 53, 24, 4, 66, 100, 70, 55, 4, 122, 14, 64, 83, 4, 110, 107, 60, 36, 4, 114, 77, 54, 26, 4, 67, 35, 52, 91, 4, 103, 51, 49, 102, 4, 122, 127, 59, 81, 4, 87, 77, 1, 12, 0, 16, 48.0, 71.0, 0, 0, 52, 8, 4, 61, 96, 52, 110, 4, 53, 75, 60, 54, 4, 36, 41, 58, 72, 4, 54, 54, 61, 93, 4, 77, 30, 49, 50, 4, 99, 109, 68, 2, 4, 103, 8, 63, 87, 4, 50, 20, 70, 60, 4, 92, 45, 63, 19, 4, 6, 7, 66, 42, 4, 24, 40, 50, 63, 4, 95, 125, 53, 98, 4, 59, 28, 63, 120, 4, 32, 118, 66, 111, 4, 36, 74, 60, 91, 4, 43, 79, 1, 12, 0, 16, 48.0, 71.0, 0, 0, 56, 43, 4, 98, 24, 51, 13, 4, 117, 28, 55, 52, 4, 115, 74, 52, 45, 4, 2, 0, 49, 120, 4, 88, 20, 69, 10, 4, 127, 117, 59, 60, 4, 21, 60, 52, 121, 4, 21, 55, 58, 69, 4, 56, 103, 56, 120, 4, 95, 28, 59, 73, 4, 114, 52, 64, 99, 4, 47, 70, 70, 110, 4, 58, 27, 68, 121, 4, 58, 58, 51, 56, 4, 3, 14, 59, 76, 4, 99, 38 ],
									"saved_object_attributes" : 									{
										"parameter_enable" : 0
									}
,
									"text" : "pattr velocitygrid",
									"varname" : "velocitygrid"
								}

							}
, 							{
								"box" : 								{
									"fontname" : "Arial",
									"fontsize" : 12.0,
									"id" : "obj-111",
									"maxclass" : "newobj",
									"numinlets" : 1,
									"numoutlets" : 3,
									"outlettype" : [ "", "", "" ],
									"patching_rect" : [ 1860.69751, 558.14386, 81.0, 20.0 ],
									"restore" : [ 3, 8, 1, 0, 8, 0, 1000, 2000, 3000, 4000, 5000, 6000, 7000, 2, 2, 2, 2, 2, 2, 2, 2 ],
									"saved_object_attributes" : 									{
										"parameter_enable" : 0
									}
,
									"text" : "pattr notegrid",
									"varname" : "notegrid"
								}

							}
, 							{
								"box" : 								{
									"fontface" : 1,
									"fontname" : "Arial",
									"fontsize" : 10.0,
									"id" : "obj-112",
									"maxclass" : "newobj",
									"numinlets" : 1,
									"numoutlets" : 1,
									"outlettype" : [ "" ],
									"patching_rect" : [ 49.083984, 619.924438, 209.0, 18.0 ],
									"saved_object_attributes" : 									{
										"client_rect" : [ 4, 44, 358, 172 ],
										"parameter_enable" : 0,
										"storage_rect" : [ 766, 44, 1220, 302 ]
									}
,
									"text" : "pattrstorage #0_patterns @savemode 0",
									"varname" : "1492_patterns"
								}

							}
, 							{
								"box" : 								{
									"fontface" : 1,
									"fontname" : "Arial",
									"fontsize" : 10.0,
									"id" : "obj-119",
									"maxclass" : "newobj",
									"numinlets" : 0,
									"numoutlets" : 1,
									"outlettype" : [ "" ],
									"patching_rect" : [ 1779.959229, 558.14386, 96.0, 18.0 ],
									"text" : "r #0_to_livegrid"
								}

							}
, 							{
								"box" : 								{
									"fontface" : 1,
									"fontname" : "Arial",
									"fontsize" : 10.0,
									"id" : "obj-121",
									"maxclass" : "newobj",
									"numinlets" : 0,
									"numoutlets" : 1,
									"outlettype" : [ "" ],
									"patching_rect" : [ 1681.528076, 138.979462, 97.0, 18.0 ],
									"text" : "r #0_to_livestep"
								}

							}
, 							{
								"box" : 								{
									"fontname" : "Arial Bold",
									"fontsize" : 10.0,
									"id" : "obj-122",
									"maxclass" : "newobj",
									"numinlets" : 1,
									"numoutlets" : 1,
									"outlettype" : [ "bang" ],
									"patching_rect" : [ 1598.867676, 109.979462, 55.0, 18.0 ],
									"text" : "loadbang"
								}

							}
, 							{
								"box" : 								{
									"fontname" : "Arial Bold",
									"fontsize" : 10.0,
									"id" : "obj-123",
									"maxclass" : "message",
									"numinlets" : 2,
									"numoutlets" : 1,
									"outlettype" : [ "" ],
									"patching_rect" : [ 1598.867676, 138.979462, 46.0, 16.0 ],
									"text" : "mode 4"
								}

							}
 ],
						"lines" : [ 							{
								"patchline" : 								{
									"destination" : [ "obj-157", 0 ],
									"disabled" : 0,
									"hidden" : 0,
									"source" : [ "obj-101", 0 ]
								}

							}
, 							{
								"patchline" : 								{
									"destination" : [ "obj-102", 0 ],
									"disabled" : 0,
									"hidden" : 0,
									"source" : [ "obj-103", 0 ]
								}

							}
, 							{
								"patchline" : 								{
									"destination" : [ "obj-35", 0 ],
									"disabled" : 0,
									"hidden" : 0,
									"source" : [ "obj-104", 0 ]
								}

							}
, 							{
								"patchline" : 								{
									"destination" : [ "obj-93", 0 ],
									"disabled" : 0,
									"hidden" : 0,
									"source" : [ "obj-104", 0 ]
								}

							}
, 							{
								"patchline" : 								{
									"destination" : [ "obj-109", 0 ],
									"disabled" : 0,
									"hidden" : 0,
									"source" : [ "obj-105", 0 ]
								}

							}
, 							{
								"patchline" : 								{
									"destination" : [ "obj-138", 1 ],
									"disabled" : 0,
									"hidden" : 0,
									"source" : [ "obj-109", 0 ]
								}

							}
, 							{
								"patchline" : 								{
									"destination" : [ "obj-185", 0 ],
									"disabled" : 0,
									"hidden" : 0,
									"source" : [ "obj-110", 1 ]
								}

							}
, 							{
								"patchline" : 								{
									"destination" : [ "obj-125", 0 ],
									"disabled" : 0,
									"hidden" : 0,
									"source" : [ "obj-111", 1 ]
								}

							}
, 							{
								"patchline" : 								{
									"destination" : [ "obj-124", 0 ],
									"disabled" : 0,
									"hidden" : 0,
									"source" : [ "obj-116", 0 ]
								}

							}
, 							{
								"patchline" : 								{
									"destination" : [ "obj-125", 0 ],
									"disabled" : 0,
									"hidden" : 0,
									"source" : [ "obj-119", 0 ]
								}

							}
, 							{
								"patchline" : 								{
									"destination" : [ "obj-33", 0 ],
									"disabled" : 0,
									"hidden" : 0,
									"source" : [ "obj-12", 0 ]
								}

							}
, 							{
								"patchline" : 								{
									"destination" : [ "obj-38", 0 ],
									"disabled" : 0,
									"hidden" : 0,
									"source" : [ "obj-12", 0 ]
								}

							}
, 							{
								"patchline" : 								{
									"destination" : [ "obj-16", 0 ],
									"disabled" : 0,
									"hidden" : 0,
									"source" : [ "obj-120", 1 ]
								}

							}
, 							{
								"patchline" : 								{
									"destination" : [ "obj-204", 0 ],
									"disabled" : 0,
									"hidden" : 0,
									"source" : [ "obj-120", 1 ]
								}

							}
, 							{
								"patchline" : 								{
									"destination" : [ "obj-185", 0 ],
									"disabled" : 0,
									"hidden" : 0,
									"source" : [ "obj-121", 0 ]
								}

							}
, 							{
								"patchline" : 								{
									"destination" : [ "obj-123", 0 ],
									"disabled" : 0,
									"hidden" : 0,
									"source" : [ "obj-122", 0 ]
								}

							}
, 							{
								"patchline" : 								{
									"destination" : [ "obj-185", 0 ],
									"disabled" : 0,
									"hidden" : 0,
									"source" : [ "obj-123", 0 ]
								}

							}
, 							{
								"patchline" : 								{
									"destination" : [ "obj-101", 0 ],
									"disabled" : 0,
									"hidden" : 0,
									"source" : [ "obj-124", 1 ]
								}

							}
, 							{
								"patchline" : 								{
									"destination" : [ "obj-120", 0 ],
									"disabled" : 0,
									"hidden" : 0,
									"source" : [ "obj-124", 0 ]
								}

							}
, 							{
								"patchline" : 								{
									"destination" : [ "obj-133", 0 ],
									"disabled" : 0,
									"hidden" : 0,
									"source" : [ "obj-124", 2 ]
								}

							}
, 							{
								"patchline" : 								{
									"destination" : [ "obj-153", 0 ],
									"disabled" : 0,
									"hidden" : 0,
									"source" : [ "obj-124", 1 ]
								}

							}
, 							{
								"patchline" : 								{
									"destination" : [ "obj-12", 0 ],
									"disabled" : 0,
									"hidden" : 0,
									"source" : [ "obj-125", 0 ]
								}

							}
, 							{
								"patchline" : 								{
									"destination" : [ "obj-129", 0 ],
									"disabled" : 0,
									"hidden" : 0,
									"source" : [ "obj-128", 0 ]
								}

							}
, 							{
								"patchline" : 								{
									"destination" : [ "obj-131", 0 ],
									"disabled" : 0,
									"hidden" : 0,
									"source" : [ "obj-128", 0 ]
								}

							}
, 							{
								"patchline" : 								{
									"destination" : [ "obj-5", 0 ],
									"disabled" : 0,
									"hidden" : 0,
									"source" : [ "obj-129", 0 ]
								}

							}
, 							{
								"patchline" : 								{
									"destination" : [ "obj-128", 0 ],
									"disabled" : 0,
									"hidden" : 0,
									"source" : [ "obj-130", 0 ]
								}

							}
, 							{
								"patchline" : 								{
									"destination" : [ "obj-7", 0 ],
									"disabled" : 0,
									"hidden" : 0,
									"source" : [ "obj-130", 0 ]
								}

							}
, 							{
								"patchline" : 								{
									"destination" : [ "obj-132", 0 ],
									"disabled" : 0,
									"hidden" : 0,
									"source" : [ "obj-131", 0 ]
								}

							}
, 							{
								"patchline" : 								{
									"destination" : [ "obj-299", 1 ],
									"disabled" : 0,
									"hidden" : 0,
									"source" : [ "obj-133", 1 ]
								}

							}
, 							{
								"patchline" : 								{
									"destination" : [ "obj-135", 0 ],
									"disabled" : 0,
									"hidden" : 0,
									"source" : [ "obj-134", 0 ]
								}

							}
, 							{
								"patchline" : 								{
									"destination" : [ "obj-131", 1 ],
									"disabled" : 0,
									"hidden" : 0,
									"source" : [ "obj-135", 0 ]
								}

							}
, 							{
								"patchline" : 								{
									"destination" : [ "obj-34", 0 ],
									"disabled" : 0,
									"hidden" : 0,
									"source" : [ "obj-136", 0 ]
								}

							}
, 							{
								"patchline" : 								{
									"destination" : [ "obj-136", 0 ],
									"disabled" : 0,
									"hidden" : 0,
									"source" : [ "obj-137", 0 ]
								}

							}
, 							{
								"patchline" : 								{
									"destination" : [ "obj-104", 0 ],
									"disabled" : 0,
									"hidden" : 0,
									"source" : [ "obj-138", 0 ]
								}

							}
, 							{
								"patchline" : 								{
									"destination" : [ "obj-138", 0 ],
									"disabled" : 0,
									"hidden" : 0,
									"source" : [ "obj-140", 0 ]
								}

							}
, 							{
								"patchline" : 								{
									"destination" : [ "obj-155", 0 ],
									"disabled" : 0,
									"hidden" : 0,
									"source" : [ "obj-153", 0 ]
								}

							}
, 							{
								"patchline" : 								{
									"destination" : [ "obj-157", 0 ],
									"disabled" : 0,
									"hidden" : 0,
									"source" : [ "obj-153", 0 ]
								}

							}
, 							{
								"patchline" : 								{
									"destination" : [ "obj-299", 0 ],
									"disabled" : 0,
									"hidden" : 0,
									"source" : [ "obj-155", 0 ]
								}

							}
, 							{
								"patchline" : 								{
									"destination" : [ "obj-105", 0 ],
									"disabled" : 0,
									"hidden" : 0,
									"midpoints" : [ 684.470947, 334.643677, 504.79187, 334.643677 ],
									"source" : [ "obj-157", 0 ]
								}

							}
, 							{
								"patchline" : 								{
									"destination" : [ "obj-27", 0 ],
									"disabled" : 0,
									"hidden" : 0,
									"source" : [ "obj-16", 0 ]
								}

							}
, 							{
								"patchline" : 								{
									"destination" : [ "obj-33", 1 ],
									"disabled" : 0,
									"hidden" : 0,
									"source" : [ "obj-17", 0 ]
								}

							}
, 							{
								"patchline" : 								{
									"destination" : [ "obj-3", 0 ],
									"disabled" : 0,
									"hidden" : 0,
									"source" : [ "obj-185", 0 ]
								}

							}
, 							{
								"patchline" : 								{
									"destination" : [ "obj-36", 0 ],
									"disabled" : 0,
									"hidden" : 0,
									"source" : [ "obj-185", 2 ]
								}

							}
, 							{
								"patchline" : 								{
									"destination" : [ "obj-43", 0 ],
									"disabled" : 0,
									"hidden" : 0,
									"source" : [ "obj-185", 2 ]
								}

							}
, 							{
								"patchline" : 								{
									"destination" : [ "obj-140", 0 ],
									"disabled" : 0,
									"hidden" : 0,
									"source" : [ "obj-2", 0 ]
								}

							}
, 							{
								"patchline" : 								{
									"destination" : [ "obj-6", 0 ],
									"disabled" : 0,
									"hidden" : 0,
									"source" : [ "obj-20", 0 ]
								}

							}
, 							{
								"patchline" : 								{
									"destination" : [ "obj-205", 0 ],
									"disabled" : 0,
									"hidden" : 0,
									"source" : [ "obj-204", 0 ]
								}

							}
, 							{
								"patchline" : 								{
									"destination" : [ "obj-109", 1 ],
									"disabled" : 0,
									"hidden" : 0,
									"source" : [ "obj-205", 0 ]
								}

							}
, 							{
								"patchline" : 								{
									"destination" : [ "obj-112", 0 ],
									"disabled" : 0,
									"hidden" : 0,
									"source" : [ "obj-22", 0 ]
								}

							}
, 							{
								"patchline" : 								{
									"destination" : [ "obj-20", 1 ],
									"disabled" : 0,
									"hidden" : 0,
									"source" : [ "obj-22", 0 ]
								}

							}
, 							{
								"patchline" : 								{
									"destination" : [ "obj-90", 3 ],
									"disabled" : 0,
									"hidden" : 0,
									"source" : [ "obj-23", 0 ]
								}

							}
, 							{
								"patchline" : 								{
									"destination" : [ "obj-26", 0 ],
									"disabled" : 0,
									"hidden" : 0,
									"source" : [ "obj-25", 0 ]
								}

							}
, 							{
								"patchline" : 								{
									"destination" : [ "obj-27", 1 ],
									"disabled" : 0,
									"hidden" : 0,
									"source" : [ "obj-26", 0 ]
								}

							}
, 							{
								"patchline" : 								{
									"destination" : [ "obj-109", 2 ],
									"disabled" : 0,
									"hidden" : 0,
									"source" : [ "obj-262", 0 ]
								}

							}
, 							{
								"patchline" : 								{
									"destination" : [ "obj-17", 0 ],
									"disabled" : 0,
									"hidden" : 0,
									"source" : [ "obj-27", 0 ]
								}

							}
, 							{
								"patchline" : 								{
									"destination" : [ "obj-94", 0 ],
									"disabled" : 0,
									"hidden" : 0,
									"source" : [ "obj-28", 0 ]
								}

							}
, 							{
								"patchline" : 								{
									"destination" : [ "obj-262", 0 ],
									"disabled" : 0,
									"hidden" : 0,
									"source" : [ "obj-299", 0 ]
								}

							}
, 							{
								"patchline" : 								{
									"destination" : [ "obj-80", 0 ],
									"disabled" : 0,
									"hidden" : 0,
									"source" : [ "obj-3", 0 ]
								}

							}
, 							{
								"patchline" : 								{
									"destination" : [ "obj-90", 2 ],
									"disabled" : 0,
									"hidden" : 0,
									"source" : [ "obj-31", 0 ]
								}

							}
, 							{
								"patchline" : 								{
									"destination" : [ "obj-40", 0 ],
									"disabled" : 0,
									"hidden" : 0,
									"source" : [ "obj-33", 0 ]
								}

							}
, 							{
								"patchline" : 								{
									"destination" : [ "obj-138", 2 ],
									"disabled" : 0,
									"hidden" : 0,
									"source" : [ "obj-34", 0 ]
								}

							}
, 							{
								"patchline" : 								{
									"destination" : [ "obj-30", 0 ],
									"disabled" : 0,
									"hidden" : 0,
									"source" : [ "obj-36", 0 ]
								}

							}
, 							{
								"patchline" : 								{
									"destination" : [ "obj-134", 0 ],
									"disabled" : 0,
									"hidden" : 0,
									"source" : [ "obj-38", 0 ]
								}

							}
, 							{
								"patchline" : 								{
									"destination" : [ "obj-20", 0 ],
									"disabled" : 0,
									"hidden" : 0,
									"source" : [ "obj-4", 0 ]
								}

							}
, 							{
								"patchline" : 								{
									"destination" : [ "obj-134", 0 ],
									"disabled" : 0,
									"hidden" : 0,
									"source" : [ "obj-40", 0 ]
								}

							}
, 							{
								"patchline" : 								{
									"destination" : [ "obj-41", 0 ],
									"disabled" : 0,
									"hidden" : 0,
									"source" : [ "obj-43", 0 ]
								}

							}
, 							{
								"patchline" : 								{
									"destination" : [ "obj-112", 0 ],
									"disabled" : 0,
									"hidden" : 0,
									"source" : [ "obj-6", 0 ]
								}

							}
, 							{
								"patchline" : 								{
									"destination" : [ "obj-123", 0 ],
									"disabled" : 0,
									"hidden" : 0,
									"source" : [ "obj-7", 0 ]
								}

							}
, 							{
								"patchline" : 								{
									"destination" : [ "obj-73", 0 ],
									"disabled" : 0,
									"hidden" : 0,
									"source" : [ "obj-76", 0 ]
								}

							}
, 							{
								"patchline" : 								{
									"destination" : [ "obj-82", 0 ],
									"disabled" : 0,
									"hidden" : 0,
									"source" : [ "obj-80", 0 ]
								}

							}
, 							{
								"patchline" : 								{
									"destination" : [ "obj-129", 1 ],
									"disabled" : 0,
									"hidden" : 0,
									"source" : [ "obj-82", 0 ]
								}

							}
, 							{
								"patchline" : 								{
									"destination" : [ "obj-90", 1 ],
									"disabled" : 0,
									"hidden" : 0,
									"source" : [ "obj-88", 0 ]
								}

							}
, 							{
								"patchline" : 								{
									"destination" : [ "obj-90", 0 ],
									"disabled" : 0,
									"hidden" : 0,
									"source" : [ "obj-89", 0 ]
								}

							}
, 							{
								"patchline" : 								{
									"destination" : [ "obj-7", 0 ],
									"disabled" : 0,
									"hidden" : 0,
									"source" : [ "obj-9", 0 ]
								}

							}
, 							{
								"patchline" : 								{
									"destination" : [ "obj-28", 0 ],
									"disabled" : 0,
									"hidden" : 0,
									"source" : [ "obj-90", 0 ]
								}

							}
, 							{
								"patchline" : 								{
									"destination" : [ "obj-104", 2 ],
									"disabled" : 0,
									"hidden" : 0,
									"source" : [ "obj-94", 0 ]
								}

							}
, 							{
								"patchline" : 								{
									"destination" : [ "obj-103", 0 ],
									"disabled" : 0,
									"hidden" : 0,
									"source" : [ "obj-95", 0 ]
								}

							}
, 							{
								"patchline" : 								{
									"destination" : [ "obj-104", 4 ],
									"disabled" : 0,
									"hidden" : 0,
									"source" : [ "obj-95", 0 ]
								}

							}
, 							{
								"patchline" : 								{
									"destination" : [ "obj-76", 0 ],
									"disabled" : 0,
									"hidden" : 0,
									"source" : [ "obj-95", 0 ]
								}

							}
, 							{
								"patchline" : 								{
									"destination" : [ "obj-116", 0 ],
									"disabled" : 0,
									"hidden" : 0,
									"source" : [ "obj-96", 0 ]
								}

							}
 ]
					}
,
					"patching_rect" : [ 0.0, 0.0, 726.0, 232.0 ],
					"varname" : "Sequencer"
				}

			}
 ],
		"lines" : [  ],
		"parameters" : 		{
			"obj-3::obj-4" : [ "live.text", "live.text", 0 ],
			"obj-3::obj-25" : [ "GateTime", "GateTime", 0 ],
			"obj-3::obj-95" : [ "Steps", "Steps", 0 ],
			"obj-3::obj-120" : [ "Max pulse[1]", "Max pulse", 0 ],
			"obj-3::obj-125" : [ "NoteGrid", "NoteGrid", 0 ],
			"obj-3::obj-89" : [ "Reset", "Reset", 0 ],
			"obj-3::obj-22" : [ "Pattern", "Pattern", 0 ],
			"obj-3::obj-28" : [ "Sync", "Sync", 0 ],
			"obj-3::obj-96" : [ "Pulse", "Pulse", 0 ],
			"obj-3::obj-2" : [ "trans_trig", "trans_trig", 0 ],
			"obj-3::obj-185" : [ "Sequence", "Sequence", 0 ],
			"obj-3::obj-155" : [ "Swing amount", "Swing amount", 0 ],
			"obj-3::obj-157" : [ "Swing enable", "Swing enable", 0 ],
			"obj-3::obj-130" : [ "mute", "mute", 0 ]
		}
,
		"dependency_cache" : [ 			{
				"name" : "swingCalc.js",
				"bootpath" : "/Applications/Max 6.1/packages/BEAP/clippings/BEAP/Sequencer",
				"patcherrelativepath" : ".",
				"type" : "TEXT",
				"implicit" : 1
			}
 ]
	}

}
