{
	"patcher" : 	{
		"fileversion" : 1,
		"appversion" : 		{
			"major" : 8,
			"minor" : 0,
			"revision" : 0,
			"architecture" : "x64",
			"modernui" : 1
		}
,
		"classnamespace" : "box",
		"rect" : [ 34.0, 79.0, 1212.0, 641.0 ],
		"bglocked" : 0,
		"openinpresentation" : 0,
		"default_fontsize" : 12.0,
		"default_fontface" : 0,
		"default_fontname" : "Arial",
		"gridonopen" : 1,
		"gridsize" : [ 15.0, 15.0 ],
		"gridsnaponopen" : 1,
		"objectsnaponopen" : 1,
		"statusbarvisible" : 1,
		"toolbarvisible" : 1,
		"lefttoolbarpinned" : 0,
		"toptoolbarpinned" : 0,
		"righttoolbarpinned" : 0,
		"bottomtoolbarpinned" : 0,
		"toolbars_unpinned_last_save" : 0,
		"tallnewobj" : 0,
		"boxanimatetime" : 200,
		"enablehscroll" : 1,
		"enablevscroll" : 1,
		"devicewidth" : 0.0,
		"description" : "",
		"digest" : "",
		"tags" : "",
		"style" : "",
		"subpatcher_template" : "",
		"boxes" : [ 			{
				"box" : 				{
					"bgmode" : 0,
					"border" : 0,
					"clickthrough" : 0,
					"embed" : 1,
					"enablehscroll" : 0,
					"enablevscroll" : 0,
					"id" : "obj-38",
					"lockeddragscroll" : 0,
					"maxclass" : "bpatcher",
					"numinlets" : 4,
					"numoutlets" : 1,
					"offset" : [ 0.0, 0.0 ],
					"outlettype" : [ "signal" ],
					"patcher" : 					{
						"fileversion" : 1,
						"appversion" : 						{
							"major" : 8,
							"minor" : 0,
							"revision" : 0,
							"architecture" : "x64",
							"modernui" : 1
						}
,
						"classnamespace" : "box",
						"rect" : [ 34.0, 79.0, 764.0, 589.0 ],
						"bglocked" : 0,
						"openinpresentation" : 1,
						"default_fontsize" : 12.0,
						"default_fontface" : 0,
						"default_fontname" : "Arial",
						"gridonopen" : 1,
						"gridsize" : [ 15.0, 15.0 ],
						"gridsnaponopen" : 1,
						"objectsnaponopen" : 1,
						"statusbarvisible" : 1,
						"toolbarvisible" : 1,
						"lefttoolbarpinned" : 0,
						"toptoolbarpinned" : 0,
						"righttoolbarpinned" : 0,
						"bottomtoolbarpinned" : 0,
						"toolbars_unpinned_last_save" : 0,
						"tallnewobj" : 0,
						"boxanimatetime" : 200,
						"enablehscroll" : 1,
						"enablevscroll" : 1,
						"devicewidth" : 0.0,
						"description" : "",
						"digest" : "",
						"tags" : "",
						"style" : "",
						"subpatcher_template" : "",
						"boxes" : [ 							{
								"box" : 								{
									"id" : "obj-4",
									"maxclass" : "comment",
									"numinlets" : 1,
									"numoutlets" : 0,
									"patching_rect" : [ 48.0, 83.336547999999993, 129.0, 18.0 ],
									"text" : "## High pass filter ## "
								}

							}
, 							{
								"box" : 								{
									"activebgcolor" : [ 0.137255, 0.145098, 0.160784, 0.65 ],
									"activebgoncolor" : [ 0.278431, 0.839216, 1.0, 1.0 ],
									"bordercolor" : [ 0.0, 0.0, 0.0, 0.56 ],
									"fontsize" : 9.0,
									"hint" : "Switches cƒ control between semiton and frequency modes.",
									"id" : "obj-80",
									"maxclass" : "live.tab",
									"num_lines_patching" : 2,
									"num_lines_presentation" : 2,
									"numinlets" : 1,
									"numoutlets" : 3,
									"outlettype" : [ "", "", "float" ],
									"parameter_enable" : 1,
									"patching_rect" : [ 255.453125, 36.711638999999998, 76.0, 59.663451999999999 ],
									"presentation" : 1,
									"presentation_rect" : [ 40.145195007324219, 43.838638305664062, 35.924076080322266, 36.514232635498047 ],
									"saved_attribute_attributes" : 									{
										"valueof" : 										{
											"parameter_enum" : [ "Freq", "Semi" ],
											"parameter_defer" : 1,
											"parameter_type" : 2,
											"parameter_unitstyle" : 0,
											"parameter_longname" : "FreqMode",
											"parameter_initial_enable" : 1,
											"parameter_mmax" : 1.0,
											"parameter_initial" : [ 0.0 ],
											"parameter_shortname" : "FreqMode"
										}

									}
,
									"textcolor" : [ 1.0, 1.0, 1.0, 0.501961 ],
									"varname" : "FreqMode"
								}

							}
, 							{
								"box" : 								{
									"fontname" : "Arial",
									"fontsize" : 12.0,
									"id" : "obj-1",
									"maxclass" : "newobj",
									"numinlets" : 1,
									"numoutlets" : 1,
									"outlettype" : [ "" ],
									"patching_rect" : [ 312.994385000000023, 225.788695999999987, 47.0, 20.0 ],
									"text" : "ftom 0."
								}

							}
, 							{
								"box" : 								{
									"fontname" : "Arial",
									"fontsize" : 12.0,
									"id" : "obj-5",
									"maxclass" : "newobj",
									"numinlets" : 2,
									"numoutlets" : 1,
									"outlettype" : [ "int" ],
									"patching_rect" : [ 255.453125, 225.788695999999987, 34.0, 20.0 ],
									"text" : "+ 60"
								}

							}
, 							{
								"box" : 								{
									"activedialcolor" : [ 0.278431, 0.839216, 1.0, 1.0 ],
									"activefgdialcolor" : [ 0.65098, 0.666667, 0.662745, 1.0 ],
									"activeneedlecolor" : [ 1.0, 1.0, 1.0, 0.4 ],
									"annotation" : "",
									"bordercolor" : [ 1.0, 1.0, 1.0, 0.2 ],
									"focusbordercolor" : [ 1.0, 1.0, 1.0, 0.2 ],
									"id" : "obj-2",
									"maxclass" : "live.dial",
									"needlecolor" : [ 0.752941, 0.784314, 0.839216, 1.0 ],
									"numinlets" : 1,
									"numoutlets" : 2,
									"outlettype" : [ "", "float" ],
									"parameter_enable" : 1,
									"patching_rect" : [ 312.994385000000023, 159.788695999999987, 44.0, 48.0 ],
									"presentation" : 1,
									"presentation_rect" : [ 1.0, 43.838638305664062, 44.0, 48.0 ],
									"prototypename" : "freq",
									"saved_attribute_attributes" : 									{
										"valueof" : 										{
											"parameter_type" : 0,
											"parameter_unitstyle" : 3,
											"parameter_exponent" : 4.0,
											"parameter_longname" : "Freq",
											"parameter_initial_enable" : 1,
											"parameter_mmax" : 20000.0,
											"parameter_initial" : [ 262 ],
											"parameter_speedlim" : 0.0,
											"parameter_shortname" : "Freq"
										}

									}
,
									"textcolor" : [ 1.0, 1.0, 1.0, 0.6 ],
									"varname" : "Freq"
								}

							}
, 							{
								"box" : 								{
									"fontname" : "Ableton Sans Bold Regular",
									"fontsize" : 10.0,
									"id" : "obj-3",
									"maxclass" : "newobj",
									"numinlets" : 1,
									"numoutlets" : 2,
									"outlettype" : [ "", "" ],
									"patcher" : 									{
										"fileversion" : 1,
										"appversion" : 										{
											"major" : 8,
											"minor" : 0,
											"revision" : 0,
											"architecture" : "x64",
											"modernui" : 1
										}
,
										"classnamespace" : "box",
										"rect" : [ 1560.0, 203.0, 440.0, 307.0 ],
										"bglocked" : 0,
										"openinpresentation" : 0,
										"default_fontsize" : 10.0,
										"default_fontface" : 0,
										"default_fontname" : "Ableton Sans Bold Regular",
										"gridonopen" : 2,
										"gridsize" : [ 8.0, 8.0 ],
										"gridsnaponopen" : 1,
										"objectsnaponopen" : 1,
										"statusbarvisible" : 1,
										"toolbarvisible" : 1,
										"lefttoolbarpinned" : 0,
										"toptoolbarpinned" : 0,
										"righttoolbarpinned" : 0,
										"bottomtoolbarpinned" : 0,
										"toolbars_unpinned_last_save" : 0,
										"tallnewobj" : 0,
										"boxanimatetime" : 200,
										"enablehscroll" : 1,
										"enablevscroll" : 1,
										"devicewidth" : 0.0,
										"description" : "",
										"digest" : "",
										"tags" : "",
										"style" : "",
										"subpatcher_template" : "",
										"boxes" : [ 											{
												"box" : 												{
													"id" : "obj-5",
													"maxclass" : "toggle",
													"numinlets" : 1,
													"numoutlets" : 1,
													"outlettype" : [ "int" ],
													"parameter_enable" : 0,
													"patching_rect" : [ 256.0, 128.0, 18.0, 18.0 ]
												}

											}
, 											{
												"box" : 												{
													"fontname" : "Ableton Sans Bold Regular",
													"fontsize" : 10.0,
													"id" : "obj-6",
													"maxclass" : "message",
													"numinlets" : 2,
													"numoutlets" : 1,
													"outlettype" : [ "" ],
													"patching_rect" : [ 256.0, 160.0, 57.0, 16.0 ],
													"text" : "hidden $1"
												}

											}
, 											{
												"box" : 												{
													"fontname" : "Ableton Sans Bold Regular",
													"fontsize" : 10.0,
													"id" : "obj-4",
													"maxclass" : "newobj",
													"numinlets" : 2,
													"numoutlets" : 1,
													"outlettype" : [ "int" ],
													"patching_rect" : [ 96.0, 88.0, 32.5, 18.0 ],
													"text" : "== 0"
												}

											}
, 											{
												"box" : 												{
													"id" : "obj-9",
													"maxclass" : "toggle",
													"numinlets" : 1,
													"numoutlets" : 1,
													"outlettype" : [ "int" ],
													"parameter_enable" : 0,
													"patching_rect" : [ 96.0, 112.0, 18.0, 18.0 ]
												}

											}
, 											{
												"box" : 												{
													"fontname" : "Ableton Sans Bold Regular",
													"fontsize" : 10.0,
													"id" : "obj-3",
													"maxclass" : "message",
													"numinlets" : 2,
													"numoutlets" : 1,
													"outlettype" : [ "" ],
													"patching_rect" : [ 96.0, 160.0, 57.0, 16.0 ],
													"text" : "hidden $1"
												}

											}
, 											{
												"box" : 												{
													"fontname" : "Ableton Sans Bold Regular",
													"fontsize" : 10.0,
													"id" : "obj-2",
													"maxclass" : "comment",
													"numinlets" : 1,
													"numoutlets" : 0,
													"patching_rect" : [ 40.0, 15.0, 63.0, 18.0 ],
													"text" : "Time mode"
												}

											}
, 											{
												"box" : 												{
													"fontname" : "Arial",
													"fontsize" : 10.0,
													"id" : "obj-7",
													"maxclass" : "comment",
													"numinlets" : 1,
													"numoutlets" : 0,
													"patching_rect" : [ 56.0, 40.0, 24.0, 18.0 ],
													"text" : "1/0"
												}

											}
, 											{
												"box" : 												{
													"fontname" : "Ableton Sans Bold Regular",
													"fontsize" : 10.0,
													"id" : "obj-14",
													"maxclass" : "newobj",
													"numinlets" : 2,
													"numoutlets" : 1,
													"outlettype" : [ "int" ],
													"patching_rect" : [ 176.0, 64.0, 32.5, 18.0 ],
													"text" : "== 0"
												}

											}
, 											{
												"box" : 												{
													"comment" : "",
													"id" : "obj-26",
													"index" : 2,
													"maxclass" : "outlet",
													"numinlets" : 1,
													"numoutlets" : 0,
													"patching_rect" : [ 176.0, 232.0, 18.0, 18.0 ]
												}

											}
, 											{
												"box" : 												{
													"fontname" : "Ableton Sans Bold Regular",
													"fontsize" : 10.0,
													"id" : "obj-29",
													"maxclass" : "message",
													"numinlets" : 2,
													"numoutlets" : 1,
													"outlettype" : [ "" ],
													"patching_rect" : [ 200.0, 160.0, 53.0, 16.0 ],
													"text" : "active $1"
												}

											}
, 											{
												"box" : 												{
													"id" : "obj-30",
													"maxclass" : "button",
													"numinlets" : 1,
													"numoutlets" : 1,
													"outlettype" : [ "bang" ],
													"parameter_enable" : 0,
													"patching_rect" : [ 176.0, 160.0, 18.0, 18.0 ]
												}

											}
, 											{
												"box" : 												{
													"fontname" : "Ableton Sans Bold Regular",
													"fontsize" : 10.0,
													"id" : "obj-33",
													"maxclass" : "newobj",
													"numinlets" : 2,
													"numoutlets" : 2,
													"outlettype" : [ "bang", "" ],
													"patching_rect" : [ 176.0, 120.0, 47.0, 18.0 ],
													"text" : "select 1"
												}

											}
, 											{
												"box" : 												{
													"id" : "obj-36",
													"maxclass" : "toggle",
													"numinlets" : 1,
													"numoutlets" : 1,
													"outlettype" : [ "int" ],
													"parameter_enable" : 0,
													"patching_rect" : [ 176.0, 88.0, 18.0, 18.0 ]
												}

											}
, 											{
												"box" : 												{
													"comment" : "",
													"id" : "obj-25",
													"index" : 1,
													"maxclass" : "outlet",
													"numinlets" : 1,
													"numoutlets" : 0,
													"patching_rect" : [ 16.0, 232.0, 18.0, 18.0 ]
												}

											}
, 											{
												"box" : 												{
													"fontname" : "Ableton Sans Bold Regular",
													"fontsize" : 10.0,
													"id" : "obj-24",
													"maxclass" : "message",
													"numinlets" : 2,
													"numoutlets" : 1,
													"outlettype" : [ "" ],
													"patching_rect" : [ 40.0, 160.0, 53.0, 16.0 ],
													"text" : "active $1"
												}

											}
, 											{
												"box" : 												{
													"id" : "obj-21",
													"maxclass" : "button",
													"numinlets" : 1,
													"numoutlets" : 1,
													"outlettype" : [ "bang" ],
													"parameter_enable" : 0,
													"patching_rect" : [ 16.0, 160.0, 18.0, 18.0 ]
												}

											}
, 											{
												"box" : 												{
													"fontname" : "Ableton Sans Bold Regular",
													"fontsize" : 10.0,
													"id" : "obj-19",
													"maxclass" : "newobj",
													"numinlets" : 2,
													"numoutlets" : 2,
													"outlettype" : [ "bang", "" ],
													"patching_rect" : [ 16.0, 120.0, 47.0, 18.0 ],
													"text" : "select 1"
												}

											}
, 											{
												"box" : 												{
													"id" : "obj-18",
													"maxclass" : "toggle",
													"numinlets" : 1,
													"numoutlets" : 1,
													"outlettype" : [ "int" ],
													"parameter_enable" : 0,
													"patching_rect" : [ 16.0, 80.0, 18.0, 18.0 ]
												}

											}
, 											{
												"box" : 												{
													"fontname" : "Ableton Sans Bold Regular",
													"fontsize" : 10.0,
													"id" : "obj-15",
													"maxclass" : "number",
													"maximum" : 1,
													"minimum" : 0,
													"numinlets" : 1,
													"numoutlets" : 2,
													"outlettype" : [ "", "bang" ],
													"parameter_enable" : 0,
													"patching_rect" : [ 16.0, 39.0, 40.0, 18.0 ],
													"prototypename" : "Live",
													"triscale" : 0.75
												}

											}
, 											{
												"box" : 												{
													"comment" : "",
													"id" : "obj-17",
													"index" : 1,
													"maxclass" : "inlet",
													"numinlets" : 0,
													"numoutlets" : 1,
													"outlettype" : [ "" ],
													"patching_rect" : [ 16.0, 8.0, 18.0, 18.0 ]
												}

											}
 ],
										"lines" : [ 											{
												"patchline" : 												{
													"destination" : [ "obj-36", 0 ],
													"source" : [ "obj-14", 0 ]
												}

											}
, 											{
												"patchline" : 												{
													"destination" : [ "obj-14", 0 ],
													"order" : 1,
													"source" : [ "obj-15", 0 ]
												}

											}
, 											{
												"patchline" : 												{
													"destination" : [ "obj-18", 0 ],
													"order" : 3,
													"source" : [ "obj-15", 0 ]
												}

											}
, 											{
												"patchline" : 												{
													"destination" : [ "obj-4", 0 ],
													"order" : 2,
													"source" : [ "obj-15", 0 ]
												}

											}
, 											{
												"patchline" : 												{
													"destination" : [ "obj-5", 0 ],
													"midpoints" : [ 25.5, 58.0, 265.5, 58.0 ],
													"order" : 0,
													"source" : [ "obj-15", 0 ]
												}

											}
, 											{
												"patchline" : 												{
													"destination" : [ "obj-15", 0 ],
													"source" : [ "obj-17", 0 ]
												}

											}
, 											{
												"patchline" : 												{
													"destination" : [ "obj-19", 0 ],
													"order" : 1,
													"source" : [ "obj-18", 0 ]
												}

											}
, 											{
												"patchline" : 												{
													"destination" : [ "obj-24", 0 ],
													"order" : 0,
													"source" : [ "obj-18", 0 ]
												}

											}
, 											{
												"patchline" : 												{
													"destination" : [ "obj-21", 0 ],
													"source" : [ "obj-19", 0 ]
												}

											}
, 											{
												"patchline" : 												{
													"destination" : [ "obj-25", 0 ],
													"source" : [ "obj-21", 0 ]
												}

											}
, 											{
												"patchline" : 												{
													"destination" : [ "obj-25", 0 ],
													"source" : [ "obj-24", 0 ]
												}

											}
, 											{
												"patchline" : 												{
													"destination" : [ "obj-26", 0 ],
													"source" : [ "obj-29", 0 ]
												}

											}
, 											{
												"patchline" : 												{
													"destination" : [ "obj-25", 0 ],
													"source" : [ "obj-3", 0 ]
												}

											}
, 											{
												"patchline" : 												{
													"destination" : [ "obj-26", 0 ],
													"source" : [ "obj-30", 0 ]
												}

											}
, 											{
												"patchline" : 												{
													"destination" : [ "obj-30", 0 ],
													"source" : [ "obj-33", 0 ]
												}

											}
, 											{
												"patchline" : 												{
													"destination" : [ "obj-29", 0 ],
													"order" : 0,
													"source" : [ "obj-36", 0 ]
												}

											}
, 											{
												"patchline" : 												{
													"destination" : [ "obj-33", 0 ],
													"order" : 1,
													"source" : [ "obj-36", 0 ]
												}

											}
, 											{
												"patchline" : 												{
													"destination" : [ "obj-9", 0 ],
													"source" : [ "obj-4", 0 ]
												}

											}
, 											{
												"patchline" : 												{
													"destination" : [ "obj-6", 0 ],
													"source" : [ "obj-5", 0 ]
												}

											}
, 											{
												"patchline" : 												{
													"destination" : [ "obj-26", 0 ],
													"source" : [ "obj-6", 0 ]
												}

											}
, 											{
												"patchline" : 												{
													"destination" : [ "obj-3", 0 ],
													"source" : [ "obj-9", 0 ]
												}

											}
 ],
										"bgfillcolor_type" : "gradient",
										"bgfillcolor_color1" : [ 0.435294, 0.462745, 0.498039, 1.0 ],
										"bgfillcolor_color2" : [ 0.290196, 0.309804, 0.301961, 1.0 ],
										"bgfillcolor_color" : [ 0.290196, 0.309804, 0.301961, 1.0 ]
									}
,
									"patching_rect" : [ 255.453125, 116.788696000000002, 76.541274999999999, 20.0 ],
									"saved_object_attributes" : 									{
										"description" : "",
										"digest" : "",
										"fontname" : "Ableton Sans Bold Regular",
										"fontsize" : 10.0,
										"globalpatchername" : "",
										"tags" : ""
									}
,
									"text" : "p TimeMode"
								}

							}
, 							{
								"box" : 								{
									"activedialcolor" : [ 0.278431, 0.839216, 1.0, 1.0 ],
									"activefgdialcolor" : [ 0.65098, 0.666667, 0.662745, 1.0 ],
									"activeneedlecolor" : [ 1.0, 1.0, 1.0, 0.4 ],
									"annotation" : "",
									"bordercolor" : [ 1.0, 1.0, 1.0, 0.2 ],
									"focusbordercolor" : [ 1.0, 1.0, 1.0, 0.2 ],
									"hidden" : 1,
									"id" : "obj-7",
									"maxclass" : "live.dial",
									"needlecolor" : [ 0.752941, 0.784314, 0.839216, 1.0 ],
									"numinlets" : 1,
									"numoutlets" : 2,
									"outlettype" : [ "", "float" ],
									"parameter_enable" : 1,
									"patching_rect" : [ 255.453125, 159.788695999999987, 44.0, 48.0 ],
									"presentation" : 1,
									"presentation_rect" : [ 1.0, 43.838638305664062, 44.0, 48.0 ],
									"prototypename" : "freq",
									"saved_attribute_attributes" : 									{
										"valueof" : 										{
											"parameter_type" : 0,
											"parameter_unitstyle" : 1,
											"parameter_mmin" : -64.0,
											"parameter_longname" : "Offset",
											"parameter_initial_enable" : 1,
											"parameter_mmax" : 64.0,
											"parameter_initial" : [ 0 ],
											"parameter_speedlim" : 0.0,
											"parameter_shortname" : "Offset"
										}

									}
,
									"textcolor" : [ 1.0, 1.0, 1.0, 0.6 ],
									"varname" : "Offset[2]"
								}

							}
, 							{
								"box" : 								{
									"bubble" : 1,
									"fontname" : "Arial",
									"fontsize" : 12.0,
									"id" : "obj-62",
									"maxclass" : "comment",
									"numinlets" : 1,
									"numoutlets" : 0,
									"patching_rect" : [ 526.453125, 392.927429000000018, 69.0, 22.0 ],
									"text" : "0v = C3"
								}

							}
, 							{
								"box" : 								{
									"fontname" : "Ableton Sans Bold Regular",
									"fontsize" : 10.0,
									"id" : "obj-53",
									"maxclass" : "newobj",
									"numinlets" : 2,
									"numoutlets" : 1,
									"outlettype" : [ "signal" ],
									"patching_rect" : [ 476.046875, 247.006042000000008, 140.406005999999991, 20.0 ],
									"text" : "*~"
								}

							}
, 							{
								"box" : 								{
									"comment" : "CV input to modulate cƒ",
									"id" : "obj-56",
									"index" : 2,
									"maxclass" : "inlet",
									"numinlets" : 0,
									"numoutlets" : 1,
									"outlettype" : [ "" ],
									"patching_rect" : [ 476.046875, 198.004394999999988, 25.0, 25.0 ]
								}

							}
, 							{
								"box" : 								{
									"fontname" : "Arial",
									"fontsize" : 13.0,
									"id" : "obj-57",
									"maxclass" : "newobj",
									"numinlets" : 1,
									"numoutlets" : 1,
									"outlettype" : [ "signal" ],
									"patching_rect" : [ 597.452881000000048, 164.408324999999991, 45.0, 21.0 ],
									"text" : "sig~ 2"
								}

							}
, 							{
								"box" : 								{
									"fontname" : "Arial",
									"fontsize" : 13.0,
									"id" : "obj-12",
									"maxclass" : "newobj",
									"numinlets" : 2,
									"numoutlets" : 1,
									"outlettype" : [ "signal" ],
									"patching_rect" : [ 597.452881000000048, 207.349608999999987, 81.0, 21.0 ],
									"text" : "pow~"
								}

							}
, 							{
								"box" : 								{
									"fontname" : "Ableton Sans Bold Regular",
									"fontsize" : 10.0,
									"id" : "obj-16",
									"maxclass" : "newobj",
									"numinlets" : 2,
									"numoutlets" : 1,
									"outlettype" : [ "float" ],
									"patching_rect" : [ 659.452881000000048, 173.166748000000013, 37.0, 20.0 ],
									"text" : "* 0.01"
								}

							}
, 							{
								"box" : 								{
									"fontname" : "Ableton Sans Bold Regular",
									"fontsize" : 10.0,
									"id" : "obj-43",
									"maxclass" : "newobj",
									"numinlets" : 2,
									"numoutlets" : 1,
									"outlettype" : [ "signal" ],
									"patching_rect" : [ 688.453125, 327.427429000000018, 140.406005999999991, 20.0 ],
									"text" : "*~"
								}

							}
, 							{
								"box" : 								{
									"fontname" : "Arial",
									"fontsize" : 12.0,
									"id" : "obj-44",
									"maxclass" : "newobj",
									"numinlets" : 2,
									"numoutlets" : 1,
									"outlettype" : [ "signal" ],
									"patching_rect" : [ 1073.453125, 440.936217999999997, 42.0, 20.0 ],
									"text" : "*~ 0.2"
								}

							}
, 							{
								"box" : 								{
									"fontname" : "Arial",
									"fontsize" : 13.0,
									"id" : "obj-45",
									"maxclass" : "newobj",
									"numinlets" : 1,
									"numoutlets" : 1,
									"outlettype" : [ "signal" ],
									"patching_rect" : [ 1011.453125, 451.078673999999978, 45.0, 21.0 ],
									"text" : "sig~ 2"
								}

							}
, 							{
								"box" : 								{
									"fontname" : "Arial",
									"fontsize" : 13.0,
									"id" : "obj-47",
									"maxclass" : "newobj",
									"numinlets" : 2,
									"numoutlets" : 1,
									"outlettype" : [ "signal" ],
									"patching_rect" : [ 1011.453125, 494.019927999999993, 81.0, 21.0 ],
									"text" : "pow~"
								}

							}
, 							{
								"box" : 								{
									"fontname" : "Ableton Sans Bold Regular",
									"fontsize" : 10.0,
									"id" : "obj-49",
									"maxclass" : "newobj",
									"numinlets" : 2,
									"numoutlets" : 1,
									"outlettype" : [ "signal" ],
									"patching_rect" : [ 1073.453125, 409.936217999999997, 140.406005999999991, 20.0 ],
									"text" : "*~"
								}

							}
, 							{
								"box" : 								{
									"fontname" : "Ableton Sans Bold Regular",
									"fontsize" : 10.0,
									"id" : "obj-50",
									"maxclass" : "newobj",
									"numinlets" : 2,
									"numoutlets" : 1,
									"outlettype" : [ "float" ],
									"patching_rect" : [ 1194.859130999999934, 368.812042000000019, 37.0, 20.0 ],
									"text" : "* 0.01"
								}

							}
, 							{
								"box" : 								{
									"comment" : "CV input to modulate cƒ",
									"id" : "obj-51",
									"index" : 3,
									"maxclass" : "inlet",
									"numinlets" : 0,
									"numoutlets" : 1,
									"outlettype" : [ "" ],
									"patching_rect" : [ 688.453125, 278.425780999999972, 25.0, 25.0 ]
								}

							}
, 							{
								"box" : 								{
									"fontname" : "Arial",
									"fontsize" : 13.0,
									"id" : "obj-58",
									"maxclass" : "newobj",
									"numinlets" : 1,
									"numoutlets" : 1,
									"outlettype" : [ "signal" ],
									"patching_rect" : [ 809.859131000000048, 244.829712000000001, 45.0, 21.0 ],
									"text" : "sig~ 2"
								}

							}
, 							{
								"box" : 								{
									"fontname" : "Arial",
									"fontsize" : 13.0,
									"id" : "obj-60",
									"maxclass" : "newobj",
									"numinlets" : 2,
									"numoutlets" : 1,
									"outlettype" : [ "signal" ],
									"patching_rect" : [ 809.859131000000048, 287.770996000000025, 81.0, 21.0 ],
									"text" : "pow~"
								}

							}
, 							{
								"box" : 								{
									"fontname" : "Ableton Sans Bold Regular",
									"fontsize" : 10.0,
									"id" : "obj-64",
									"maxclass" : "newobj",
									"numinlets" : 2,
									"numoutlets" : 1,
									"outlettype" : [ "float" ],
									"patching_rect" : [ 871.859131000000048, 253.588134999999994, 37.0, 20.0 ],
									"text" : "* 0.01"
								}

							}
, 							{
								"box" : 								{
									"fontname" : "Arial",
									"fontsize" : 12.0,
									"id" : "obj-65",
									"maxclass" : "newobj",
									"numinlets" : 2,
									"numoutlets" : 1,
									"outlettype" : [ "signal" ],
									"patching_rect" : [ 688.453125, 445.427429000000018, 38.0, 20.0 ],
									"text" : "-~ 60"
								}

							}
, 							{
								"box" : 								{
									"fontname" : "Arial",
									"fontsize" : 12.0,
									"id" : "obj-66",
									"maxclass" : "newobj",
									"numinlets" : 2,
									"numoutlets" : 1,
									"outlettype" : [ "signal" ],
									"patching_rect" : [ 476.046875, 392.927429000000018, 38.0, 20.0 ],
									"text" : "-~ 60"
								}

							}
, 							{
								"box" : 								{
									"fontname" : "Arial",
									"fontsize" : 12.0,
									"id" : "obj-92",
									"maxclass" : "newobj",
									"numinlets" : 2,
									"numoutlets" : 1,
									"outlettype" : [ "signal" ],
									"patching_rect" : [ 255.453125, 545.859252999999967, 775.0, 20.0 ],
									"text" : "+~"
								}

							}
, 							{
								"box" : 								{
									"fontname" : "Arial",
									"fontsize" : 12.0,
									"id" : "obj-91",
									"maxclass" : "newobj",
									"numinlets" : 2,
									"numoutlets" : 1,
									"outlettype" : [ "signal" ],
									"patching_rect" : [ 255.453125, 494.019927999999993, 452.0, 20.0 ],
									"text" : "+~"
								}

							}
, 							{
								"box" : 								{
									"fontname" : "Arial",
									"fontsize" : 12.0,
									"id" : "obj-90",
									"maxclass" : "newobj",
									"numinlets" : 2,
									"numoutlets" : 1,
									"outlettype" : [ "signal" ],
									"patching_rect" : [ 255.453125, 443.019927999999993, 239.59375, 20.0 ],
									"text" : "+~"
								}

							}
, 							{
								"box" : 								{
									"bubble" : 1,
									"fontname" : "Arial",
									"fontsize" : 12.0,
									"id" : "obj-89",
									"linecount" : 2,
									"maxclass" : "comment",
									"numinlets" : 1,
									"numoutlets" : 0,
									"patching_rect" : [ 526.453125, 354.427429000000018, 109.0, 34.0 ],
									"text" : "12 semitones in an oct"
								}

							}
, 							{
								"box" : 								{
									"bubble" : 1,
									"fontname" : "Arial",
									"fontsize" : 12.0,
									"id" : "obj-88",
									"linecount" : 2,
									"maxclass" : "comment",
									"numinlets" : 1,
									"numoutlets" : 0,
									"patching_rect" : [ 526.453125, 308.427429000000018, 109.0, 34.0 ],
									"text" : "add 5v to bring to 0-10v range"
								}

							}
, 							{
								"box" : 								{
									"bubble" : 1,
									"bubbleside" : 3,
									"fontname" : "Arial",
									"fontsize" : 12.0,
									"id" : "obj-87",
									"linecount" : 4,
									"maxclass" : "comment",
									"numinlets" : 1,
									"numoutlets" : 0,
									"patching_rect" : [ 954.453125, 314.73507699999999, 102.0, 58.0 ],
									"text" : "convert 0-5v to 0-120 range of semitones"
								}

							}
, 							{
								"box" : 								{
									"fontname" : "Arial",
									"fontsize" : 12.0,
									"id" : "obj-84",
									"maxclass" : "newobj",
									"numinlets" : 2,
									"numoutlets" : 1,
									"outlettype" : [ "signal" ],
									"patching_rect" : [ 1073.453125, 336.73507699999999, 39.0, 20.0 ],
									"text" : "*~ 24"
								}

							}
, 							{
								"box" : 								{
									"fontname" : "Arial",
									"fontsize" : 12.0,
									"id" : "obj-83",
									"maxclass" : "newobj",
									"numinlets" : 3,
									"numoutlets" : 1,
									"outlettype" : [ "signal" ],
									"patching_rect" : [ 1073.453125, 278.425780999999972, 56.0, 20.0 ],
									"text" : "clip~ 0 5"
								}

							}
, 							{
								"box" : 								{
									"fontname" : "Arial",
									"fontsize" : 12.0,
									"id" : "obj-81",
									"maxclass" : "newobj",
									"numinlets" : 2,
									"numoutlets" : 1,
									"outlettype" : [ "signal" ],
									"patching_rect" : [ 688.453125, 416.088135000000023, 39.0, 20.0 ],
									"text" : "*~ 12"
								}

							}
, 							{
								"box" : 								{
									"fontname" : "Arial",
									"fontsize" : 12.0,
									"id" : "obj-82",
									"maxclass" : "newobj",
									"numinlets" : 2,
									"numoutlets" : 1,
									"outlettype" : [ "signal" ],
									"patching_rect" : [ 688.453125, 378.088135000000023, 35.0, 20.0 ],
									"text" : "+~ 5"
								}

							}
, 							{
								"box" : 								{
									"fontname" : "Arial",
									"fontsize" : 12.0,
									"id" : "obj-78",
									"maxclass" : "newobj",
									"numinlets" : 2,
									"numoutlets" : 1,
									"outlettype" : [ "signal" ],
									"patching_rect" : [ 476.046875, 354.927429000000018, 39.0, 20.0 ],
									"text" : "*~ 12"
								}

							}
, 							{
								"box" : 								{
									"fontname" : "Arial",
									"fontsize" : 12.0,
									"id" : "obj-76",
									"maxclass" : "newobj",
									"numinlets" : 2,
									"numoutlets" : 1,
									"outlettype" : [ "signal" ],
									"patching_rect" : [ 476.046875, 316.927429000000018, 35.0, 20.0 ],
									"text" : "+~ 5"
								}

							}
, 							{
								"box" : 								{
									"annotation" : "1v/oct",
									"comment" : "CV input to modulate cƒ",
									"id" : "obj-67",
									"index" : 4,
									"maxclass" : "inlet",
									"numinlets" : 0,
									"numoutlets" : 1,
									"outlettype" : [ "" ],
									"patching_rect" : [ 1073.453125, 234.925781000000001, 25.0, 25.0 ]
								}

							}
, 							{
								"box" : 								{
									"activedialcolor" : [ 0.278431, 0.839216, 1.0, 1.0 ],
									"activefgdialcolor" : [ 0.65098, 0.666667, 0.662745, 1.0 ],
									"activeneedlecolor" : [ 1.0, 1.0, 1.0, 0.6 ],
									"hint" : "Input attenuator for CV input 1",
									"id" : "obj-68",
									"maxclass" : "live.dial",
									"numinlets" : 1,
									"numoutlets" : 2,
									"outlettype" : [ "", "float" ],
									"parameter_enable" : 1,
									"patching_rect" : [ 1194.859130999999934, 287.770996000000025, 44.0, 48.0 ],
									"presentation" : 1,
									"presentation_rect" : [ 158.640533447265625, 43.838638305664062, 44.0, 48.0 ],
									"saved_attribute_attributes" : 									{
										"valueof" : 										{
											"parameter_type" : 0,
											"parameter_unitstyle" : 5,
											"parameter_longname" : "CV3",
											"parameter_mmax" : 100.0,
											"parameter_shortname" : "CV3"
										}

									}
,
									"textcolor" : [ 1.0, 1.0, 1.0, 0.6 ],
									"varname" : "CV3[1]"
								}

							}
, 							{
								"box" : 								{
									"activedialcolor" : [ 0.278431, 0.839216, 1.0, 1.0 ],
									"activefgdialcolor" : [ 0.65098, 0.666667, 0.662745, 1.0 ],
									"activeneedlecolor" : [ 1.0, 1.0, 1.0, 0.6 ],
									"hint" : "Input attenuator for CV input 1",
									"id" : "obj-102",
									"maxclass" : "live.dial",
									"numinlets" : 1,
									"numoutlets" : 2,
									"outlettype" : [ "", "float" ],
									"parameter_enable" : 1,
									"patching_rect" : [ 659.452881000000048, 99.984222000000003, 44.0, 48.0 ],
									"presentation" : 1,
									"presentation_rect" : [ 70.640533447265625, 43.838638305664062, 44.0, 48.0 ],
									"saved_attribute_attributes" : 									{
										"valueof" : 										{
											"parameter_type" : 0,
											"parameter_unitstyle" : 5,
											"parameter_longname" : "CV1",
											"parameter_mmax" : 100.0,
											"parameter_shortname" : "CV1"
										}

									}
,
									"textcolor" : [ 1.0, 1.0, 1.0, 0.6 ],
									"varname" : "CV1[1]"
								}

							}
, 							{
								"box" : 								{
									"activedialcolor" : [ 0.278431, 0.839216, 1.0, 1.0 ],
									"activefgdialcolor" : [ 0.65098, 0.666667, 0.662745, 1.0 ],
									"activeneedlecolor" : [ 1.0, 1.0, 1.0, 0.6 ],
									"hint" : "Input attenuator for CV input 2",
									"id" : "obj-103",
									"maxclass" : "live.dial",
									"numinlets" : 1,
									"numoutlets" : 2,
									"outlettype" : [ "", "float" ],
									"parameter_enable" : 1,
									"patching_rect" : [ 871.859131000000048, 187.004394999999988, 44.0, 48.0 ],
									"presentation" : 1,
									"presentation_rect" : [ 114.640533447265625, 43.838638305664062, 44.0, 48.0 ],
									"saved_attribute_attributes" : 									{
										"valueof" : 										{
											"parameter_type" : 0,
											"parameter_unitstyle" : 5,
											"parameter_longname" : "CV2",
											"parameter_mmax" : 100.0,
											"parameter_shortname" : "CV2"
										}

									}
,
									"textcolor" : [ 1.0, 1.0, 1.0, 0.6 ],
									"varname" : "CV2[1]"
								}

							}
, 							{
								"box" : 								{
									"fontname" : "Arial",
									"fontsize" : 13.0,
									"id" : "obj-107",
									"maxclass" : "message",
									"numinlets" : 2,
									"numoutlets" : 1,
									"outlettype" : [ "" ],
									"patching_rect" : [ 255.453125, 348.927429000000018, 43.0, 21.0 ],
									"text" : "$1 20"
								}

							}
, 							{
								"box" : 								{
									"fontname" : "Arial",
									"fontsize" : 13.0,
									"id" : "obj-108",
									"maxclass" : "newobj",
									"numinlets" : 2,
									"numoutlets" : 2,
									"outlettype" : [ "signal", "bang" ],
									"patching_rect" : [ 255.453125, 384.927429000000018, 53.0, 21.0 ],
									"text" : "line~ 0."
								}

							}
, 							{
								"box" : 								{
									"fontname" : "Arial",
									"fontsize" : 12.0,
									"id" : "obj-101",
									"maxclass" : "newobj",
									"numinlets" : 3,
									"numoutlets" : 1,
									"outlettype" : [ "signal" ],
									"patching_rect" : [ 255.453125, 657.340088000000037, 82.0, 20.0 ],
									"text" : "clip~ 0 22000"
								}

							}
, 							{
								"box" : 								{
									"fontname" : "Arial",
									"fontsize" : 12.0,
									"id" : "obj-106",
									"maxclass" : "newobj",
									"numinlets" : 1,
									"numoutlets" : 1,
									"outlettype" : [ "signal" ],
									"patching_rect" : [ 255.453125, 611.179320999999959, 41.0, 20.0 ],
									"text" : "mtof~"
								}

							}
, 							{
								"box" : 								{
									"fontname" : "Ableton Sans Bold Regular",
									"fontsize" : 9.0,
									"id" : "obj-70",
									"maxclass" : "comment",
									"numinlets" : 1,
									"numoutlets" : 0,
									"patching_rect" : [ 688.453125, 247.006042000000008, 28.0, 17.0 ],
									"presentation" : 1,
									"presentation_rect" : [ 152.5, 0.0, 28.0, 17.0 ],
									"text" : "CV2",
									"textcolor" : [ 1.0, 1.0, 1.0, 1.0 ]
								}

							}
, 							{
								"box" : 								{
									"fontname" : "Ableton Sans Bold Regular",
									"fontsize" : 9.0,
									"id" : "obj-42",
									"maxclass" : "comment",
									"numinlets" : 1,
									"numoutlets" : 0,
									"patching_rect" : [ 1074.453125, 207.349608999999987, 55.0, 17.0 ],
									"presentation" : 1,
									"presentation_rect" : [ 198.0, 0.0, 55.0, 17.0 ],
									"text" : "CV3 (0-5v)",
									"textcolor" : [ 1.0, 1.0, 1.0, 1.0 ]
								}

							}
, 							{
								"box" : 								{
									"fontname" : "Ableton Sans Bold Regular",
									"fontsize" : 9.0,
									"id" : "obj-41",
									"maxclass" : "comment",
									"numinlets" : 1,
									"numoutlets" : 0,
									"patching_rect" : [ 476.046875, 164.408324999999991, 31.0, 17.0 ],
									"presentation" : 1,
									"presentation_rect" : [ 74.5, 0.0, 31.0, 17.0 ],
									"text" : "CV1 ",
									"textcolor" : [ 1.0, 1.0, 1.0, 1.0 ]
								}

							}
, 							{
								"box" : 								{
									"fontname" : "Arial",
									"fontsize" : 12.0,
									"id" : "obj-10",
									"maxclass" : "newobj",
									"numinlets" : 2,
									"numoutlets" : 1,
									"outlettype" : [ "int" ],
									"patching_rect" : [ 193.703125, 903.375122000000033, 32.5, 20.0 ],
									"text" : "+ 1"
								}

							}
, 							{
								"box" : 								{
									"fontname" : "Arial",
									"fontsize" : 12.0,
									"id" : "obj-9",
									"maxclass" : "newobj",
									"numinlets" : 3,
									"numoutlets" : 1,
									"outlettype" : [ "signal" ],
									"patching_rect" : [ 193.703125, 948.375122000000033, 129.0, 20.0 ],
									"text" : "selector~ 2 1"
								}

							}
, 							{
								"box" : 								{
									"comment" : "",
									"id" : "obj-6",
									"index" : 1,
									"maxclass" : "outlet",
									"numinlets" : 1,
									"numoutlets" : 0,
									"patching_rect" : [ 193.703125, 996.375122000000033, 25.0, 25.0 ]
								}

							}
, 							{
								"box" : 								{
									"fontname" : "Arial",
									"fontsize" : 12.0,
									"id" : "obj-37",
									"maxclass" : "newobj",
									"numinlets" : 2,
									"numoutlets" : 1,
									"outlettype" : [ "float" ],
									"patching_rect" : [ 449.046875, 661.031127999999967, 42.0, 20.0 ],
									"text" : "* 0.01"
								}

							}
, 							{
								"box" : 								{
									"fontname" : "Arial",
									"fontsize" : 13.0,
									"id" : "obj-34",
									"maxclass" : "message",
									"numinlets" : 2,
									"numoutlets" : 1,
									"outlettype" : [ "" ],
									"patching_rect" : [ 449.046875, 699.531127999999967, 43.0, 21.0 ],
									"text" : "$1 20"
								}

							}
, 							{
								"box" : 								{
									"fontname" : "Arial",
									"fontsize" : 13.0,
									"id" : "obj-35",
									"maxclass" : "newobj",
									"numinlets" : 3,
									"numoutlets" : 2,
									"outlettype" : [ "", "bang" ],
									"patching_rect" : [ 449.046875, 734.370483000000036, 46.0, 21.0 ],
									"text" : "line 0."
								}

							}
, 							{
								"box" : 								{
									"activedialcolor" : [ 0.278431, 0.839216, 1.0, 1.0 ],
									"activefgdialcolor" : [ 0.65098, 0.666667, 0.662745, 1.0 ],
									"activeneedlecolor" : [ 1.0, 1.0, 1.0, 0.6 ],
									"hint" : "Resonance amount.",
									"id" : "obj-11",
									"maxclass" : "live.dial",
									"numinlets" : 1,
									"numoutlets" : 2,
									"outlettype" : [ "", "float" ],
									"parameter_enable" : 1,
									"patching_rect" : [ 449.046875, 596.031127999999967, 44.0, 48.0 ],
									"presentation" : 1,
									"presentation_rect" : [ 202.640533447265625, 43.838638305664062, 44.0, 48.0 ],
									"saved_attribute_attributes" : 									{
										"valueof" : 										{
											"parameter_type" : 0,
											"parameter_unitstyle" : 5,
											"parameter_longname" : "Res",
											"parameter_initial_enable" : 1,
											"parameter_mmax" : 100.0,
											"parameter_initial" : [ 0.0 ],
											"parameter_shortname" : "Res"
										}

									}
,
									"textcolor" : [ 1.0, 1.0, 1.0, 0.6 ],
									"varname" : "Res"
								}

							}
, 							{
								"box" : 								{
									"fontname" : "Arial",
									"fontsize" : 12.0,
									"id" : "obj-17",
									"maxclass" : "newobj",
									"numinlets" : 2,
									"numoutlets" : 1,
									"outlettype" : [ "signal" ],
									"patching_rect" : [ 248.703125, 903.375122000000033, 36.0, 20.0 ],
									"text" : "*~ 5."
								}

							}
, 							{
								"box" : 								{
									"fontname" : "Arial",
									"fontsize" : 12.0,
									"id" : "obj-32",
									"maxclass" : "newobj",
									"numinlets" : 2,
									"numoutlets" : 1,
									"outlettype" : [ "signal" ],
									"patching_rect" : [ 162.905364999999989, 719.603516000000013, 42.0, 20.0 ],
									"text" : "*~ 0.2"
								}

							}
, 							{
								"box" : 								{
									"fontface" : 1,
									"fontname" : "Arial",
									"fontsize" : 10.0,
									"id" : "obj-38",
									"maxclass" : "newobj",
									"numinlets" : 3,
									"numoutlets" : 4,
									"outlettype" : [ "signal", "signal", "signal", "signal" ],
									"patching_rect" : [ 235.203125, 826.375122000000033, 59.5, 18.0 ],
									"text" : "svf~"
								}

							}
, 							{
								"box" : 								{
									"activebgcolor" : [ 0.572549, 0.615686, 0.658824, 0.0 ],
									"activebgoncolor" : [ 0.278431, 0.839216, 1.0, 1.0 ],
									"activetextcolor" : [ 1.0, 1.0, 1.0, 0.57 ],
									"activetextoncolor" : [ 0.0, 0.019608, 0.078431, 1.0 ],
									"bgcolor" : [ 0.101961, 0.101961, 0.101961, 0.78 ],
									"bordercolor" : [ 0.0, 0.019608, 0.078431, 0.37 ],
									"id" : "obj-55",
									"maxclass" : "live.text",
									"numinlets" : 1,
									"numoutlets" : 2,
									"outlettype" : [ "", "" ],
									"parameter_enable" : 1,
									"patching_rect" : [ 193.703125, 861.875122000000033, 43.0, 19.0 ],
									"presentation" : 1,
									"presentation_rect" : [ 196.0, 18.0, 52.0, 17.0 ],
									"saved_attribute_attributes" : 									{
										"valueof" : 										{
											"parameter_enum" : [ "val1", "val2" ],
											"parameter_defer" : 1,
											"parameter_type" : 2,
											"parameter_longname" : "power",
											"parameter_mmax" : 1.0,
											"parameter_initial" : [ 0.0 ],
											"parameter_shortname" : "power"
										}

									}
,
									"text" : "bypass",
									"textcolor" : [ 1.0, 1.0, 1.0, 1.0 ],
									"texton" : "bypass",
									"varname" : "power[1]"
								}

							}
, 							{
								"box" : 								{
									"comment" : "Signal input to be filtered.",
									"id" : "obj-39",
									"index" : 1,
									"maxclass" : "inlet",
									"numinlets" : 0,
									"numoutlets" : 1,
									"outlettype" : [ "" ],
									"patching_rect" : [ 162.905364999999989, 572.381836000000021, 25.0, 25.0 ]
								}

							}
, 							{
								"box" : 								{
									"fontname" : "Arial",
									"fontsize" : 12.0,
									"id" : "obj-40",
									"maxclass" : "newobj",
									"numinlets" : 1,
									"numoutlets" : 4,
									"outlettype" : [ "", "", "", "" ],
									"patching_rect" : [ 48.0, 126.413605000000004, 59.5, 20.0 ],
									"restore" : 									{
										"CV1[1]" : [ 0.0 ],
										"CV2[1]" : [ 0.0 ],
										"CV3[1]" : [ 0.0 ],
										"Freq" : [ 261.999999999999943 ],
										"FreqMode" : [ 0.0 ],
										"Offset[2]" : [ 0.0 ],
										"Res" : [ 0.0 ],
										"power[1]" : [ 0.0 ]
									}
,
									"text" : "autopattr",
									"varname" : "u155007700"
								}

							}
, 							{
								"box" : 								{
									"fontname" : "Ableton Sans Bold Regular",
									"fontsize" : 9.0,
									"id" : "obj-8",
									"maxclass" : "comment",
									"numinlets" : 1,
									"numoutlets" : 0,
									"patching_rect" : [ 140.099975999999998, 1000.375122000000033, 40.0, 17.0 ],
									"presentation" : 1,
									"presentation_rect" : [ 2.0, 97.0, 40.0, 17.0 ],
									"text" : "Output",
									"textcolor" : [ 1.0, 1.0, 1.0, 1.0 ]
								}

							}
, 							{
								"box" : 								{
									"fontname" : "Ableton Sans Bold Regular",
									"fontsize" : 9.0,
									"id" : "obj-19",
									"maxclass" : "comment",
									"numinlets" : 1,
									"numoutlets" : 0,
									"patching_rect" : [ 115.905365000000003, 572.381836000000021, 38.0, 17.0 ],
									"presentation" : 1,
									"presentation_rect" : [ 2.0, 0.0, 38.0, 17.0 ],
									"text" : "Signal",
									"textcolor" : [ 1.0, 1.0, 1.0, 1.0 ]
								}

							}
, 							{
								"box" : 								{
									"fontname" : "Ableton Sans Bold Regular",
									"fontsize" : 9.0,
									"id" : "obj-13",
									"maxclass" : "comment",
									"numinlets" : 1,
									"numoutlets" : 0,
									"patching_rect" : [ 48.0, 51.907501000000003, 28.0, 17.0 ],
									"presentation" : 1,
									"presentation_rect" : [ 2.0, 19.0, 28.0, 17.0 ],
									"text" : "HPF",
									"textcolor" : [ 1.0, 1.0, 1.0, 1.0 ]
								}

							}
, 							{
								"box" : 								{
									"angle" : 0.0,
									"background" : 1,
									"bgcolor" : [ 0.137255, 0.145098, 0.160784, 0.65 ],
									"id" : "obj-130",
									"maxclass" : "panel",
									"mode" : 0,
									"numinlets" : 1,
									"numoutlets" : 0,
									"patching_rect" : [ 48.0, 36.711638999999998, 37.0, 5.0 ],
									"presentation" : 1,
									"presentation_rect" : [ 0.0, 37.0, 425.0, 60.338157653808594 ],
									"proportion" : 0.39,
									"rounded" : 0
								}

							}
, 							{
								"box" : 								{
									"angle" : 0.0,
									"background" : 1,
									"bgcolor" : [ 0.367404, 0.389405, 0.430238, 1.0 ],
									"id" : "obj-131",
									"maxclass" : "panel",
									"mode" : 0,
									"numinlets" : 1,
									"numoutlets" : 0,
									"patching_rect" : [ 92.337188999999995, 36.711638999999998, 37.0, 5.0 ],
									"presentation" : 1,
									"presentation_rect" : [ 0.0, 17.0, 425.0, 80.338157653808594 ],
									"proportion" : 0.39,
									"rounded" : 0
								}

							}
, 							{
								"box" : 								{
									"angle" : 0.0,
									"background" : 1,
									"bgcolor" : [ 0.0, 0.0, 0.0, 1.0 ],
									"id" : "obj-135",
									"maxclass" : "panel",
									"mode" : 0,
									"numinlets" : 1,
									"numoutlets" : 0,
									"patching_rect" : [ 135.079284999999999, 36.711638999999998, 37.0, 5.0 ],
									"presentation" : 1,
									"presentation_rect" : [ 0.0, 0.0, 425.0, 133.0 ],
									"proportion" : 0.39,
									"rounded" : 0
								}

							}
 ],
						"lines" : [ 							{
								"patchline" : 								{
									"destination" : [ "obj-107", 0 ],
									"source" : [ "obj-1", 0 ]
								}

							}
, 							{
								"patchline" : 								{
									"destination" : [ "obj-9", 0 ],
									"source" : [ "obj-10", 0 ]
								}

							}
, 							{
								"patchline" : 								{
									"destination" : [ "obj-38", 1 ],
									"source" : [ "obj-101", 0 ]
								}

							}
, 							{
								"patchline" : 								{
									"destination" : [ "obj-16", 0 ],
									"source" : [ "obj-102", 0 ]
								}

							}
, 							{
								"patchline" : 								{
									"destination" : [ "obj-64", 0 ],
									"source" : [ "obj-103", 0 ]
								}

							}
, 							{
								"patchline" : 								{
									"destination" : [ "obj-101", 0 ],
									"source" : [ "obj-106", 0 ]
								}

							}
, 							{
								"patchline" : 								{
									"destination" : [ "obj-108", 0 ],
									"source" : [ "obj-107", 0 ]
								}

							}
, 							{
								"patchline" : 								{
									"destination" : [ "obj-90", 0 ],
									"source" : [ "obj-108", 0 ]
								}

							}
, 							{
								"patchline" : 								{
									"destination" : [ "obj-37", 0 ],
									"source" : [ "obj-11", 0 ]
								}

							}
, 							{
								"patchline" : 								{
									"destination" : [ "obj-53", 1 ],
									"source" : [ "obj-12", 0 ]
								}

							}
, 							{
								"patchline" : 								{
									"destination" : [ "obj-12", 1 ],
									"source" : [ "obj-16", 0 ]
								}

							}
, 							{
								"patchline" : 								{
									"destination" : [ "obj-9", 1 ],
									"source" : [ "obj-17", 0 ]
								}

							}
, 							{
								"patchline" : 								{
									"destination" : [ "obj-1", 0 ],
									"source" : [ "obj-2", 0 ]
								}

							}
, 							{
								"patchline" : 								{
									"destination" : [ "obj-2", 0 ],
									"source" : [ "obj-3", 1 ]
								}

							}
, 							{
								"patchline" : 								{
									"destination" : [ "obj-7", 0 ],
									"source" : [ "obj-3", 0 ]
								}

							}
, 							{
								"patchline" : 								{
									"destination" : [ "obj-38", 0 ],
									"source" : [ "obj-32", 0 ]
								}

							}
, 							{
								"patchline" : 								{
									"destination" : [ "obj-35", 0 ],
									"source" : [ "obj-34", 0 ]
								}

							}
, 							{
								"patchline" : 								{
									"destination" : [ "obj-38", 2 ],
									"source" : [ "obj-35", 0 ]
								}

							}
, 							{
								"patchline" : 								{
									"destination" : [ "obj-34", 0 ],
									"source" : [ "obj-37", 0 ]
								}

							}
, 							{
								"patchline" : 								{
									"destination" : [ "obj-17", 0 ],
									"source" : [ "obj-38", 1 ]
								}

							}
, 							{
								"patchline" : 								{
									"destination" : [ "obj-32", 0 ],
									"order" : 1,
									"source" : [ "obj-39", 0 ]
								}

							}
, 							{
								"patchline" : 								{
									"destination" : [ "obj-9", 2 ],
									"order" : 0,
									"source" : [ "obj-39", 0 ]
								}

							}
, 							{
								"patchline" : 								{
									"destination" : [ "obj-82", 0 ],
									"source" : [ "obj-43", 0 ]
								}

							}
, 							{
								"patchline" : 								{
									"destination" : [ "obj-47", 1 ],
									"source" : [ "obj-44", 0 ]
								}

							}
, 							{
								"patchline" : 								{
									"color" : [ 0.501961, 0.501961, 0.501961, 0.901961 ],
									"destination" : [ "obj-47", 0 ],
									"source" : [ "obj-45", 0 ]
								}

							}
, 							{
								"patchline" : 								{
									"destination" : [ "obj-92", 1 ],
									"source" : [ "obj-47", 0 ]
								}

							}
, 							{
								"patchline" : 								{
									"destination" : [ "obj-44", 0 ],
									"source" : [ "obj-49", 0 ]
								}

							}
, 							{
								"patchline" : 								{
									"destination" : [ "obj-107", 0 ],
									"source" : [ "obj-5", 0 ]
								}

							}
, 							{
								"patchline" : 								{
									"destination" : [ "obj-49", 1 ],
									"source" : [ "obj-50", 0 ]
								}

							}
, 							{
								"patchline" : 								{
									"destination" : [ "obj-43", 0 ],
									"source" : [ "obj-51", 0 ]
								}

							}
, 							{
								"patchline" : 								{
									"destination" : [ "obj-76", 0 ],
									"source" : [ "obj-53", 0 ]
								}

							}
, 							{
								"patchline" : 								{
									"destination" : [ "obj-10", 0 ],
									"source" : [ "obj-55", 0 ]
								}

							}
, 							{
								"patchline" : 								{
									"destination" : [ "obj-53", 0 ],
									"source" : [ "obj-56", 0 ]
								}

							}
, 							{
								"patchline" : 								{
									"color" : [ 0.501961, 0.501961, 0.501961, 0.901961 ],
									"destination" : [ "obj-12", 0 ],
									"source" : [ "obj-57", 0 ]
								}

							}
, 							{
								"patchline" : 								{
									"color" : [ 0.501961, 0.501961, 0.501961, 0.901961 ],
									"destination" : [ "obj-60", 0 ],
									"source" : [ "obj-58", 0 ]
								}

							}
, 							{
								"patchline" : 								{
									"destination" : [ "obj-43", 1 ],
									"source" : [ "obj-60", 0 ]
								}

							}
, 							{
								"patchline" : 								{
									"destination" : [ "obj-60", 1 ],
									"source" : [ "obj-64", 0 ]
								}

							}
, 							{
								"patchline" : 								{
									"destination" : [ "obj-91", 1 ],
									"source" : [ "obj-65", 0 ]
								}

							}
, 							{
								"patchline" : 								{
									"destination" : [ "obj-90", 1 ],
									"source" : [ "obj-66", 0 ]
								}

							}
, 							{
								"patchline" : 								{
									"destination" : [ "obj-83", 0 ],
									"source" : [ "obj-67", 0 ]
								}

							}
, 							{
								"patchline" : 								{
									"destination" : [ "obj-50", 0 ],
									"source" : [ "obj-68", 0 ]
								}

							}
, 							{
								"patchline" : 								{
									"destination" : [ "obj-5", 0 ],
									"source" : [ "obj-7", 0 ]
								}

							}
, 							{
								"patchline" : 								{
									"destination" : [ "obj-78", 0 ],
									"source" : [ "obj-76", 0 ]
								}

							}
, 							{
								"patchline" : 								{
									"destination" : [ "obj-66", 0 ],
									"source" : [ "obj-78", 0 ]
								}

							}
, 							{
								"patchline" : 								{
									"destination" : [ "obj-3", 0 ],
									"source" : [ "obj-80", 0 ]
								}

							}
, 							{
								"patchline" : 								{
									"destination" : [ "obj-65", 0 ],
									"source" : [ "obj-81", 0 ]
								}

							}
, 							{
								"patchline" : 								{
									"destination" : [ "obj-81", 0 ],
									"source" : [ "obj-82", 0 ]
								}

							}
, 							{
								"patchline" : 								{
									"destination" : [ "obj-84", 0 ],
									"source" : [ "obj-83", 0 ]
								}

							}
, 							{
								"patchline" : 								{
									"destination" : [ "obj-49", 0 ],
									"source" : [ "obj-84", 0 ]
								}

							}
, 							{
								"patchline" : 								{
									"destination" : [ "obj-6", 0 ],
									"source" : [ "obj-9", 0 ]
								}

							}
, 							{
								"patchline" : 								{
									"destination" : [ "obj-91", 0 ],
									"source" : [ "obj-90", 0 ]
								}

							}
, 							{
								"patchline" : 								{
									"destination" : [ "obj-92", 0 ],
									"source" : [ "obj-91", 0 ]
								}

							}
, 							{
								"patchline" : 								{
									"destination" : [ "obj-106", 0 ],
									"source" : [ "obj-92", 0 ]
								}

							}
 ],
						"bgcolor" : [ 1.0, 1.0, 1.0, 0.0 ]
					}
,
					"patching_rect" : [ 0.0, 0.0, 253.0, 116.0 ],
					"varname" : "HPF",
					"viewvisibility" : 1
				}

			}
 ],
		"lines" : [  ],
		"parameters" : 		{
			"obj-38::obj-68" : [ "CV3", "CV3", 0 ],
			"obj-38::obj-102" : [ "CV1", "CV1", 0 ],
			"obj-38::obj-2" : [ "Freq", "Freq", 0 ],
			"obj-38::obj-7" : [ "Offset", "Offset", 0 ],
			"obj-38::obj-55" : [ "power", "power", 0 ],
			"obj-38::obj-103" : [ "CV2", "CV2", 0 ],
			"obj-38::obj-11" : [ "Res", "Res", 0 ],
			"obj-38::obj-80" : [ "FreqMode", "FreqMode", 0 ],
			"parameterbanks" : 			{

			}

		}
,
		"dependency_cache" : [  ],
		"autosave" : 0,
		"styles" : [ 			{
				"name" : "AudioStatus_Menu",
				"default" : 				{
					"bgfillcolor" : 					{
						"type" : "color",
						"color" : [ 0.294118, 0.313726, 0.337255, 1 ],
						"color1" : [ 0.454902, 0.462745, 0.482353, 0.0 ],
						"color2" : [ 0.290196, 0.309804, 0.301961, 1.0 ],
						"angle" : 270.0,
						"proportion" : 0.39,
						"autogradient" : 0
					}

				}
,
				"parentstyle" : "",
				"multi" : 0
			}
 ]
	}

}
