{
	"patcher" : 	{
		"fileversion" : 1,
		"appversion" : 		{
			"major" : 8,
			"minor" : 0,
			"revision" : 0,
			"architecture" : "x64",
			"modernui" : 1
		}
,
		"classnamespace" : "box",
		"rect" : [ 98.0, 297.0, 886.0, 699.0 ],
		"bglocked" : 0,
		"openinpresentation" : 1,
		"default_fontsize" : 12.0,
		"default_fontface" : 0,
		"default_fontname" : "Arial",
		"gridonopen" : 1,
		"gridsize" : [ 15.0, 15.0 ],
		"gridsnaponopen" : 1,
		"objectsnaponopen" : 1,
		"statusbarvisible" : 1,
		"toolbarvisible" : 1,
		"lefttoolbarpinned" : 0,
		"toptoolbarpinned" : 0,
		"righttoolbarpinned" : 0,
		"bottomtoolbarpinned" : 0,
		"toolbars_unpinned_last_save" : 0,
		"tallnewobj" : 0,
		"boxanimatetime" : 200,
		"enablehscroll" : 1,
		"enablevscroll" : 1,
		"devicewidth" : 0.0,
		"description" : "",
		"digest" : "",
		"tags" : "",
		"style" : "",
		"subpatcher_template" : "",
		"boxes" : [ 			{
				"box" : 				{
					"id" : "obj-3",
					"maxclass" : "comment",
					"numinlets" : 1,
					"numoutlets" : 0,
					"patching_rect" : [ 48.0, 89.0, 295.0, 18.0 ],
					"text" : "## Two pole multi-mode filter with graphic display ## "
				}

			}
, 			{
				"box" : 				{
					"fontname" : "Ableton Sans Bold Regular",
					"fontsize" : 9.0,
					"id" : "obj-102",
					"maxclass" : "comment",
					"numinlets" : 1,
					"numoutlets" : 0,
					"patching_rect" : [ 1699.43994100000009, 588.822571000000039, 55.0, 17.0 ],
					"presentation" : 1,
					"presentation_rect" : [ 371.67645263671875, 0.0, 55.0, 17.0 ],
					"text" : "Res (0-5v)",
					"textcolor" : [ 1.0, 1.0, 1.0, 1.0 ],
					"textjustification" : 2
				}

			}
, 			{
				"box" : 				{
					"id" : "obj-101",
					"linecolor" : [ 1.0, 1.0, 1.0, 0.32 ],
					"maxclass" : "live.line",
					"numinlets" : 1,
					"numoutlets" : 0,
					"patching_rect" : [ 23.725829999999998, 42.529998999999997, 5.0, 100.0 ],
					"presentation" : 1,
					"presentation_rect" : [ 238.002090454101562, 65.716514587402344, 12.437604904174805, 7.793193817138672 ]
				}

			}
, 			{
				"box" : 				{
					"fontname" : "Arial",
					"fontsize" : 12.0,
					"id" : "obj-100",
					"maxclass" : "newobj",
					"numinlets" : 2,
					"numoutlets" : 1,
					"outlettype" : [ "float" ],
					"patching_rect" : [ 878.439940999999976, 1221.076904000000013, 83.0, 20.0 ],
					"text" : "snapshot~ 10"
				}

			}
, 			{
				"box" : 				{
					"fontname" : "Arial",
					"fontsize" : 12.0,
					"id" : "obj-99",
					"maxclass" : "newobj",
					"numinlets" : 3,
					"numoutlets" : 1,
					"outlettype" : [ "multichannelsignal" ],
					"patching_rect" : [ 627.03369140625, 1022.23760986328125, 73.0, 20.0 ],
					"text" : "mc.clip~ 0 1"
				}

			}
, 			{
				"box" : 				{
					"fontname" : "Arial",
					"fontsize" : 12.0,
					"id" : "obj-98",
					"maxclass" : "newobj",
					"numinlets" : 2,
					"numoutlets" : 1,
					"outlettype" : [ "multichannelsignal" ],
					"patching_rect" : [ 627.03369140625, 968.23760986328125, 42.0, 20.0 ],
					"text" : "mc.+~"
				}

			}
, 			{
				"box" : 				{
					"fontname" : "Arial",
					"fontsize" : 12.0,
					"id" : "obj-97",
					"maxclass" : "newobj",
					"numinlets" : 3,
					"numoutlets" : 1,
					"outlettype" : [ "multichannelsignal" ],
					"patching_rect" : [ 1699.43994140625, 726.31451416015625, 73.0, 20.0 ],
					"text" : "mc.clip~ 0 5"
				}

			}
, 			{
				"box" : 				{
					"fontname" : "Arial",
					"fontsize" : 12.0,
					"id" : "obj-96",
					"maxclass" : "newobj",
					"numinlets" : 2,
					"numoutlets" : 1,
					"outlettype" : [ "multichannelsignal" ],
					"patching_rect" : [ 1699.43994140625, 819.344482421875, 60.0, 20.0 ],
					"text" : "mc.*~ 0.2"
				}

			}
, 			{
				"box" : 				{
					"fontname" : "Ableton Sans Bold Regular",
					"fontsize" : 10.0,
					"id" : "obj-79",
					"maxclass" : "newobj",
					"numinlets" : 2,
					"numoutlets" : 1,
					"outlettype" : [ "multichannelsignal" ],
					"patching_rect" : [ 1699.43994140625, 778.476806640625, 36.0, 20.0 ],
					"text" : "mc.*~"
				}

			}
, 			{
				"box" : 				{
					"comment" : "",
					"id" : "obj-80",
					"index" : 5,
					"maxclass" : "inlet",
					"numinlets" : 0,
					"numoutlets" : 1,
					"outlettype" : [ "" ],
					"patching_rect" : [ 1699.43994100000009, 629.053833000000054, 25.0, 25.0 ]
				}

			}
, 			{
				"box" : 				{
					"fontname" : "Arial",
					"fontsize" : 13.0,
					"id" : "obj-85",
					"maxclass" : "newobj",
					"numinlets" : 1,
					"numoutlets" : 1,
					"outlettype" : [ "signal" ],
					"patching_rect" : [ 1820.845947000000024, 695.879149999999981, 45.0, 21.0 ],
					"text" : "sig~ 2"
				}

			}
, 			{
				"box" : 				{
					"fontname" : "Arial",
					"fontsize" : 13.0,
					"id" : "obj-93",
					"maxclass" : "newobj",
					"numinlets" : 2,
					"numoutlets" : 1,
					"outlettype" : [ "multichannelsignal" ],
					"patching_rect" : [ 1820.845947265625, 738.8204345703125, 61.0, 21.0 ],
					"text" : "mc.pow~"
				}

			}
, 			{
				"box" : 				{
					"fontname" : "Ableton Sans Bold Regular",
					"fontsize" : 10.0,
					"id" : "obj-94",
					"maxclass" : "newobj",
					"numinlets" : 2,
					"numoutlets" : 1,
					"outlettype" : [ "float" ],
					"patching_rect" : [ 1882.845947000000024, 704.637572999999975, 37.0, 20.0 ],
					"text" : "* 0.01"
				}

			}
, 			{
				"box" : 				{
					"activedialcolor" : [ 0.278431, 0.839216, 1.0, 1.0 ],
					"activefgdialcolor" : [ 0.65098, 0.666667, 0.662745, 1.0 ],
					"activeneedlecolor" : [ 1.0, 1.0, 1.0, 0.6 ],
					"appearance" : 1,
					"id" : "obj-95",
					"maxclass" : "live.dial",
					"numinlets" : 1,
					"numoutlets" : 2,
					"outlettype" : [ "", "float" ],
					"parameter_enable" : 1,
					"patching_rect" : [ 1882.845947000000024, 638.053833000000054, 47.0, 36.0 ],
					"presentation" : 1,
					"presentation_rect" : [ 247.640533447265625, 41.838638305664062, 47.0, 36.0 ],
					"saved_attribute_attributes" : 					{
						"valueof" : 						{
							"parameter_shortname" : "CV",
							"parameter_type" : 0,
							"parameter_unitstyle" : 5,
							"parameter_longname" : "ResCV",
							"parameter_mmax" : 100.0
						}

					}
,
					"textcolor" : [ 1.0, 1.0, 1.0, 0.6 ],
					"varname" : "ResCV"
				}

			}
, 			{
				"box" : 				{
					"fontname" : "Arial",
					"fontsize" : 12.0,
					"id" : "obj-1",
					"maxclass" : "newobj",
					"numinlets" : 1,
					"numoutlets" : 1,
					"outlettype" : [ "" ],
					"patching_rect" : [ 490.981200999999999, 231.822600999999992, 47.0, 20.0 ],
					"text" : "ftom 0."
				}

			}
, 			{
				"box" : 				{
					"fontname" : "Arial",
					"fontsize" : 12.0,
					"id" : "obj-5",
					"maxclass" : "newobj",
					"numinlets" : 2,
					"numoutlets" : 1,
					"outlettype" : [ "int" ],
					"patching_rect" : [ 433.439940999999976, 231.822600999999992, 34.0, 20.0 ],
					"text" : "+ 60"
				}

			}
, 			{
				"box" : 				{
					"activedialcolor" : [ 0.278431, 0.839216, 1.0, 1.0 ],
					"activefgdialcolor" : [ 0.65098, 0.666667, 0.662745, 1.0 ],
					"activeneedlecolor" : [ 1.0, 1.0, 1.0, 0.4 ],
					"annotation" : "",
					"bordercolor" : [ 1.0, 1.0, 1.0, 0.2 ],
					"focusbordercolor" : [ 1.0, 1.0, 1.0, 0.2 ],
					"hidden" : 1,
					"id" : "obj-20",
					"maxclass" : "live.dial",
					"needlecolor" : [ 0.752941, 0.784314, 0.839216, 1.0 ],
					"numinlets" : 1,
					"numoutlets" : 2,
					"outlettype" : [ "", "float" ],
					"parameter_enable" : 1,
					"patching_rect" : [ 490.981200999999999, 165.822600999999992, 44.0, 48.0 ],
					"presentation" : 1,
					"presentation_rect" : [ 2.0, 41.838638305664062, 44.0, 48.0 ],
					"prototypename" : "freq",
					"saved_attribute_attributes" : 					{
						"valueof" : 						{
							"parameter_speedlim" : 0.0,
							"parameter_shortname" : "Freq",
							"parameter_type" : 0,
							"parameter_unitstyle" : 3,
							"parameter_exponent" : 4.0,
							"parameter_longname" : "Freq[1]",
							"parameter_initial_enable" : 1,
							"parameter_mmax" : 20000.0,
							"parameter_initial" : [ 262 ]
						}

					}
,
					"textcolor" : [ 1.0, 1.0, 1.0, 0.6 ],
					"varname" : "Freq"
				}

			}
, 			{
				"box" : 				{
					"fontname" : "Ableton Sans Bold Regular",
					"fontsize" : 10.0,
					"id" : "obj-86",
					"maxclass" : "newobj",
					"numinlets" : 1,
					"numoutlets" : 2,
					"outlettype" : [ "", "" ],
					"patcher" : 					{
						"fileversion" : 1,
						"appversion" : 						{
							"major" : 8,
							"minor" : 0,
							"revision" : 0,
							"architecture" : "x64",
							"modernui" : 1
						}
,
						"classnamespace" : "box",
						"rect" : [ 1560.0, 203.0, 440.0, 307.0 ],
						"bglocked" : 0,
						"openinpresentation" : 0,
						"default_fontsize" : 10.0,
						"default_fontface" : 0,
						"default_fontname" : "Ableton Sans Bold Regular",
						"gridonopen" : 2,
						"gridsize" : [ 8.0, 8.0 ],
						"gridsnaponopen" : 1,
						"objectsnaponopen" : 1,
						"statusbarvisible" : 1,
						"toolbarvisible" : 1,
						"lefttoolbarpinned" : 0,
						"toptoolbarpinned" : 0,
						"righttoolbarpinned" : 0,
						"bottomtoolbarpinned" : 0,
						"toolbars_unpinned_last_save" : 0,
						"tallnewobj" : 0,
						"boxanimatetime" : 200,
						"enablehscroll" : 1,
						"enablevscroll" : 1,
						"devicewidth" : 0.0,
						"description" : "",
						"digest" : "",
						"tags" : "",
						"style" : "",
						"subpatcher_template" : "",
						"boxes" : [ 							{
								"box" : 								{
									"id" : "obj-5",
									"maxclass" : "toggle",
									"numinlets" : 1,
									"numoutlets" : 1,
									"outlettype" : [ "int" ],
									"parameter_enable" : 0,
									"patching_rect" : [ 256.0, 128.0, 18.0, 18.0 ]
								}

							}
, 							{
								"box" : 								{
									"fontname" : "Ableton Sans Bold Regular",
									"fontsize" : 10.0,
									"id" : "obj-6",
									"maxclass" : "message",
									"numinlets" : 2,
									"numoutlets" : 1,
									"outlettype" : [ "" ],
									"patching_rect" : [ 256.0, 160.0, 57.0, 16.0 ],
									"text" : "hidden $1"
								}

							}
, 							{
								"box" : 								{
									"fontname" : "Ableton Sans Bold Regular",
									"fontsize" : 10.0,
									"id" : "obj-4",
									"maxclass" : "newobj",
									"numinlets" : 2,
									"numoutlets" : 1,
									"outlettype" : [ "int" ],
									"patching_rect" : [ 96.0, 88.0, 32.5, 18.0 ],
									"text" : "== 0"
								}

							}
, 							{
								"box" : 								{
									"id" : "obj-9",
									"maxclass" : "toggle",
									"numinlets" : 1,
									"numoutlets" : 1,
									"outlettype" : [ "int" ],
									"parameter_enable" : 0,
									"patching_rect" : [ 96.0, 112.0, 18.0, 18.0 ]
								}

							}
, 							{
								"box" : 								{
									"fontname" : "Ableton Sans Bold Regular",
									"fontsize" : 10.0,
									"id" : "obj-3",
									"maxclass" : "message",
									"numinlets" : 2,
									"numoutlets" : 1,
									"outlettype" : [ "" ],
									"patching_rect" : [ 96.0, 160.0, 57.0, 16.0 ],
									"text" : "hidden $1"
								}

							}
, 							{
								"box" : 								{
									"fontname" : "Ableton Sans Bold Regular",
									"fontsize" : 10.0,
									"id" : "obj-2",
									"maxclass" : "comment",
									"numinlets" : 1,
									"numoutlets" : 0,
									"patching_rect" : [ 40.0, 15.0, 63.0, 18.0 ],
									"text" : "Time mode"
								}

							}
, 							{
								"box" : 								{
									"fontname" : "Arial",
									"fontsize" : 10.0,
									"id" : "obj-7",
									"maxclass" : "comment",
									"numinlets" : 1,
									"numoutlets" : 0,
									"patching_rect" : [ 56.0, 40.0, 24.0, 18.0 ],
									"text" : "1/0"
								}

							}
, 							{
								"box" : 								{
									"fontname" : "Ableton Sans Bold Regular",
									"fontsize" : 10.0,
									"id" : "obj-14",
									"maxclass" : "newobj",
									"numinlets" : 2,
									"numoutlets" : 1,
									"outlettype" : [ "int" ],
									"patching_rect" : [ 176.0, 64.0, 32.5, 18.0 ],
									"text" : "== 0"
								}

							}
, 							{
								"box" : 								{
									"comment" : "",
									"id" : "obj-26",
									"index" : 2,
									"maxclass" : "outlet",
									"numinlets" : 1,
									"numoutlets" : 0,
									"patching_rect" : [ 176.0, 232.0, 18.0, 18.0 ]
								}

							}
, 							{
								"box" : 								{
									"fontname" : "Ableton Sans Bold Regular",
									"fontsize" : 10.0,
									"id" : "obj-29",
									"maxclass" : "message",
									"numinlets" : 2,
									"numoutlets" : 1,
									"outlettype" : [ "" ],
									"patching_rect" : [ 200.0, 160.0, 53.0, 16.0 ],
									"text" : "active $1"
								}

							}
, 							{
								"box" : 								{
									"id" : "obj-30",
									"maxclass" : "button",
									"numinlets" : 1,
									"numoutlets" : 1,
									"outlettype" : [ "bang" ],
									"parameter_enable" : 0,
									"patching_rect" : [ 176.0, 160.0, 18.0, 18.0 ]
								}

							}
, 							{
								"box" : 								{
									"fontname" : "Ableton Sans Bold Regular",
									"fontsize" : 10.0,
									"id" : "obj-33",
									"maxclass" : "newobj",
									"numinlets" : 2,
									"numoutlets" : 2,
									"outlettype" : [ "bang", "" ],
									"patching_rect" : [ 176.0, 120.0, 47.0, 18.0 ],
									"text" : "select 1"
								}

							}
, 							{
								"box" : 								{
									"id" : "obj-36",
									"maxclass" : "toggle",
									"numinlets" : 1,
									"numoutlets" : 1,
									"outlettype" : [ "int" ],
									"parameter_enable" : 0,
									"patching_rect" : [ 176.0, 88.0, 18.0, 18.0 ]
								}

							}
, 							{
								"box" : 								{
									"comment" : "",
									"id" : "obj-25",
									"index" : 1,
									"maxclass" : "outlet",
									"numinlets" : 1,
									"numoutlets" : 0,
									"patching_rect" : [ 16.0, 232.0, 18.0, 18.0 ]
								}

							}
, 							{
								"box" : 								{
									"fontname" : "Ableton Sans Bold Regular",
									"fontsize" : 10.0,
									"id" : "obj-24",
									"maxclass" : "message",
									"numinlets" : 2,
									"numoutlets" : 1,
									"outlettype" : [ "" ],
									"patching_rect" : [ 40.0, 160.0, 53.0, 16.0 ],
									"text" : "active $1"
								}

							}
, 							{
								"box" : 								{
									"id" : "obj-21",
									"maxclass" : "button",
									"numinlets" : 1,
									"numoutlets" : 1,
									"outlettype" : [ "bang" ],
									"parameter_enable" : 0,
									"patching_rect" : [ 16.0, 160.0, 18.0, 18.0 ]
								}

							}
, 							{
								"box" : 								{
									"fontname" : "Ableton Sans Bold Regular",
									"fontsize" : 10.0,
									"id" : "obj-19",
									"maxclass" : "newobj",
									"numinlets" : 2,
									"numoutlets" : 2,
									"outlettype" : [ "bang", "" ],
									"patching_rect" : [ 16.0, 120.0, 47.0, 18.0 ],
									"text" : "select 1"
								}

							}
, 							{
								"box" : 								{
									"id" : "obj-18",
									"maxclass" : "toggle",
									"numinlets" : 1,
									"numoutlets" : 1,
									"outlettype" : [ "int" ],
									"parameter_enable" : 0,
									"patching_rect" : [ 16.0, 80.0, 18.0, 18.0 ]
								}

							}
, 							{
								"box" : 								{
									"fontname" : "Ableton Sans Bold Regular",
									"fontsize" : 10.0,
									"id" : "obj-15",
									"maxclass" : "number",
									"maximum" : 1,
									"minimum" : 0,
									"numinlets" : 1,
									"numoutlets" : 2,
									"outlettype" : [ "", "bang" ],
									"parameter_enable" : 0,
									"patching_rect" : [ 16.0, 39.0, 40.0, 18.0 ],
									"prototypename" : "Live",
									"triscale" : 0.75
								}

							}
, 							{
								"box" : 								{
									"comment" : "",
									"id" : "obj-17",
									"index" : 1,
									"maxclass" : "inlet",
									"numinlets" : 0,
									"numoutlets" : 1,
									"outlettype" : [ "" ],
									"patching_rect" : [ 16.0, 8.0, 18.0, 18.0 ]
								}

							}
 ],
						"lines" : [ 							{
								"patchline" : 								{
									"destination" : [ "obj-36", 0 ],
									"source" : [ "obj-14", 0 ]
								}

							}
, 							{
								"patchline" : 								{
									"destination" : [ "obj-14", 0 ],
									"order" : 1,
									"source" : [ "obj-15", 0 ]
								}

							}
, 							{
								"patchline" : 								{
									"destination" : [ "obj-18", 0 ],
									"order" : 3,
									"source" : [ "obj-15", 0 ]
								}

							}
, 							{
								"patchline" : 								{
									"destination" : [ "obj-4", 0 ],
									"order" : 2,
									"source" : [ "obj-15", 0 ]
								}

							}
, 							{
								"patchline" : 								{
									"destination" : [ "obj-5", 0 ],
									"midpoints" : [ 25.5, 58.0, 265.5, 58.0 ],
									"order" : 0,
									"source" : [ "obj-15", 0 ]
								}

							}
, 							{
								"patchline" : 								{
									"destination" : [ "obj-15", 0 ],
									"source" : [ "obj-17", 0 ]
								}

							}
, 							{
								"patchline" : 								{
									"destination" : [ "obj-19", 0 ],
									"order" : 1,
									"source" : [ "obj-18", 0 ]
								}

							}
, 							{
								"patchline" : 								{
									"destination" : [ "obj-24", 0 ],
									"order" : 0,
									"source" : [ "obj-18", 0 ]
								}

							}
, 							{
								"patchline" : 								{
									"destination" : [ "obj-21", 0 ],
									"source" : [ "obj-19", 0 ]
								}

							}
, 							{
								"patchline" : 								{
									"destination" : [ "obj-25", 0 ],
									"source" : [ "obj-21", 0 ]
								}

							}
, 							{
								"patchline" : 								{
									"destination" : [ "obj-25", 0 ],
									"source" : [ "obj-24", 0 ]
								}

							}
, 							{
								"patchline" : 								{
									"destination" : [ "obj-26", 0 ],
									"source" : [ "obj-29", 0 ]
								}

							}
, 							{
								"patchline" : 								{
									"destination" : [ "obj-25", 0 ],
									"source" : [ "obj-3", 0 ]
								}

							}
, 							{
								"patchline" : 								{
									"destination" : [ "obj-26", 0 ],
									"source" : [ "obj-30", 0 ]
								}

							}
, 							{
								"patchline" : 								{
									"destination" : [ "obj-30", 0 ],
									"source" : [ "obj-33", 0 ]
								}

							}
, 							{
								"patchline" : 								{
									"destination" : [ "obj-29", 0 ],
									"order" : 0,
									"source" : [ "obj-36", 0 ]
								}

							}
, 							{
								"patchline" : 								{
									"destination" : [ "obj-33", 0 ],
									"order" : 1,
									"source" : [ "obj-36", 0 ]
								}

							}
, 							{
								"patchline" : 								{
									"destination" : [ "obj-9", 0 ],
									"source" : [ "obj-4", 0 ]
								}

							}
, 							{
								"patchline" : 								{
									"destination" : [ "obj-6", 0 ],
									"source" : [ "obj-5", 0 ]
								}

							}
, 							{
								"patchline" : 								{
									"destination" : [ "obj-26", 0 ],
									"source" : [ "obj-6", 0 ]
								}

							}
, 							{
								"patchline" : 								{
									"destination" : [ "obj-3", 0 ],
									"source" : [ "obj-9", 0 ]
								}

							}
 ],
						"bgfillcolor_type" : "gradient",
						"bgfillcolor_color1" : [ 0.435294, 0.462745, 0.498039, 1.0 ],
						"bgfillcolor_color2" : [ 0.290196, 0.309804, 0.301961, 1.0 ],
						"bgfillcolor_color" : [ 0.290196, 0.309804, 0.301961, 1.0 ]
					}
,
					"patching_rect" : [ 433.439940999999976, 122.822601000000006, 76.541274999999999, 20.0 ],
					"saved_object_attributes" : 					{
						"description" : "",
						"digest" : "",
						"fontname" : "Ableton Sans Bold Regular",
						"fontsize" : 10.0,
						"globalpatchername" : "",
						"tags" : ""
					}
,
					"text" : "p TimeMode"
				}

			}
, 			{
				"box" : 				{
					"activebgcolor" : [ 0.917647, 0.94902, 0.054902, 0.0 ],
					"activebgoncolor" : [ 0.278431, 0.839216, 1.0, 1.0 ],
					"activetextcolor" : [ 0.278431, 0.839216, 1.0, 1.0 ],
					"activetextoncolor" : [ 0.137255, 0.145098, 0.160784, 1.0 ],
					"annotation" : "Time mode: when Sync is selected, the LFO runs in sync with Live's transport. When in Freq mode, the LFO runs using its own internal clock. Synced rates are expressed in note values, and Frequency rates are expressed in Herz.",
					"automation" : "Freq",
					"automationon" : "Semitone",
					"bgcolor" : [ 0.6, 0.6, 0.6, 0.0 ],
					"bordercolor" : [ 0.278431, 0.839216, 1.0, 1.0 ],
					"focusbordercolor" : [ 0.278431, 0.839216, 1.0, 1.0 ],
					"hint" : "",
					"id" : "obj-22",
					"maxclass" : "live.text",
					"numinlets" : 1,
					"numoutlets" : 2,
					"outlettype" : [ "", "" ],
					"parameter_enable" : 1,
					"patching_rect" : [ 433.439940999999976, 76.822601000000006, 35.0, 19.0 ],
					"presentation" : 1,
					"presentation_rect" : [ 43.0, 41.838638305664062, 33.0, 15.0 ],
					"saved_attribute_attributes" : 					{
						"valueof" : 						{
							"parameter_speedlim" : 0.0,
							"parameter_shortname" : "TimeMode",
							"parameter_enum" : [ "Freq", "Semitone" ],
							"parameter_type" : 2,
							"parameter_longname" : "TimeMode",
							"parameter_initial_enable" : 1,
							"parameter_mmax" : 1.0,
							"parameter_initial" : [ 1 ],
							"parameter_order" : 1
						}

					}
,
					"text" : "Freq",
					"textcolor" : [ 0.556863, 0.556863, 0.556863, 1.0 ],
					"texton" : "Semi",
					"varname" : "FreqMode"
				}

			}
, 			{
				"box" : 				{
					"activedialcolor" : [ 0.278431, 0.839216, 1.0, 1.0 ],
					"activefgdialcolor" : [ 0.65098, 0.666667, 0.662745, 1.0 ],
					"activeneedlecolor" : [ 1.0, 1.0, 1.0, 0.4 ],
					"annotation" : "",
					"bordercolor" : [ 1.0, 1.0, 1.0, 0.2 ],
					"focusbordercolor" : [ 1.0, 1.0, 1.0, 0.2 ],
					"id" : "obj-23",
					"maxclass" : "live.dial",
					"needlecolor" : [ 0.752941, 0.784314, 0.839216, 1.0 ],
					"numinlets" : 1,
					"numoutlets" : 2,
					"outlettype" : [ "", "float" ],
					"parameter_enable" : 1,
					"patching_rect" : [ 433.439940999999976, 165.822600999999992, 44.0, 48.0 ],
					"presentation" : 1,
					"presentation_rect" : [ 2.0, 41.838638305664062, 44.0, 48.0 ],
					"prototypename" : "freq",
					"saved_attribute_attributes" : 					{
						"valueof" : 						{
							"parameter_speedlim" : 0.0,
							"parameter_shortname" : "Offset",
							"parameter_type" : 0,
							"parameter_unitstyle" : 1,
							"parameter_mmin" : -64.0,
							"parameter_longname" : "Offset[1]",
							"parameter_initial_enable" : 1,
							"parameter_mmax" : 64.0,
							"parameter_initial" : [ 0 ]
						}

					}
,
					"textcolor" : [ 1.0, 1.0, 1.0, 0.6 ],
					"varname" : "Offset[2]"
				}

			}
, 			{
				"box" : 				{
					"bubble" : 1,
					"fontname" : "Arial",
					"fontsize" : 12.0,
					"id" : "obj-62",
					"maxclass" : "comment",
					"numinlets" : 1,
					"numoutlets" : 0,
					"patching_rect" : [ 704.439940999999976, 398.961334000000022, 69.0, 22.0 ],
					"text" : "0v = C3"
				}

			}
, 			{
				"box" : 				{
					"fontname" : "Ableton Sans Bold Regular",
					"fontsize" : 10.0,
					"id" : "obj-53",
					"maxclass" : "newobj",
					"numinlets" : 2,
					"numoutlets" : 1,
					"outlettype" : [ "multichannelsignal" ],
					"patching_rect" : [ 654.03369140625, 253.039947509765625, 36.0, 20.0 ],
					"text" : "mc.*~"
				}

			}
, 			{
				"box" : 				{
					"comment" : "",
					"id" : "obj-56",
					"index" : 2,
					"maxclass" : "inlet",
					"numinlets" : 0,
					"numoutlets" : 1,
					"outlettype" : [ "" ],
					"patching_rect" : [ 654.033690999999976, 204.038299999999992, 25.0, 25.0 ]
				}

			}
, 			{
				"box" : 				{
					"fontname" : "Arial",
					"fontsize" : 13.0,
					"id" : "obj-57",
					"maxclass" : "newobj",
					"numinlets" : 1,
					"numoutlets" : 1,
					"outlettype" : [ "multichannelsignal" ],
					"patching_rect" : [ 775.43975830078125, 170.442230224609375, 64.0, 21.0 ],
					"text" : "mc.sig~ 2"
				}

			}
, 			{
				"box" : 				{
					"fontname" : "Arial",
					"fontsize" : 13.0,
					"id" : "obj-59",
					"maxclass" : "newobj",
					"numinlets" : 2,
					"numoutlets" : 1,
					"outlettype" : [ "multichannelsignal" ],
					"patching_rect" : [ 775.43975830078125, 213.383514404296875, 61.0, 21.0 ],
					"text" : "mc.pow~"
				}

			}
, 			{
				"box" : 				{
					"fontname" : "Ableton Sans Bold Regular",
					"fontsize" : 10.0,
					"id" : "obj-61",
					"maxclass" : "newobj",
					"numinlets" : 2,
					"numoutlets" : 1,
					"outlettype" : [ "float" ],
					"patching_rect" : [ 837.439757999999983, 179.200652999999988, 37.0, 20.0 ],
					"text" : "* 0.01"
				}

			}
, 			{
				"box" : 				{
					"fontname" : "Ableton Sans Bold Regular",
					"fontsize" : 10.0,
					"id" : "obj-52",
					"maxclass" : "newobj",
					"numinlets" : 2,
					"numoutlets" : 1,
					"outlettype" : [ "multichannelsignal" ],
					"patching_rect" : [ 866.43994140625, 333.461334228515625, 36.0, 20.0 ],
					"text" : "mc.*~"
				}

			}
, 			{
				"box" : 				{
					"fontname" : "Arial",
					"fontsize" : 12.0,
					"id" : "obj-27",
					"maxclass" : "newobj",
					"numinlets" : 2,
					"numoutlets" : 1,
					"outlettype" : [ "multichannelsignal" ],
					"patching_rect" : [ 1251.43994140625, 446.970123291015625, 60.0, 20.0 ],
					"text" : "mc.*~ 0.2"
				}

			}
, 			{
				"box" : 				{
					"fontname" : "Arial",
					"fontsize" : 13.0,
					"id" : "obj-33",
					"maxclass" : "newobj",
					"numinlets" : 1,
					"numoutlets" : 1,
					"outlettype" : [ "multichannelsignal" ],
					"patching_rect" : [ 1189.43994140625, 457.112579345703125, 64.0, 21.0 ],
					"text" : "mc.sig~ 2"
				}

			}
, 			{
				"box" : 				{
					"fontname" : "Arial",
					"fontsize" : 13.0,
					"id" : "obj-47",
					"maxclass" : "newobj",
					"numinlets" : 2,
					"numoutlets" : 1,
					"outlettype" : [ "multichannelsignal" ],
					"patching_rect" : [ 1189.43994140625, 500.053863525390625, 61.0, 21.0 ],
					"text" : "mc.pow~"
				}

			}
, 			{
				"box" : 				{
					"fontname" : "Ableton Sans Bold Regular",
					"fontsize" : 10.0,
					"id" : "obj-48",
					"maxclass" : "newobj",
					"numinlets" : 2,
					"numoutlets" : 1,
					"outlettype" : [ "multichannelsignal" ],
					"patching_rect" : [ 1251.43994140625, 415.970123291015625, 36.0, 20.0 ],
					"text" : "mc.*~"
				}

			}
, 			{
				"box" : 				{
					"fontname" : "Ableton Sans Bold Regular",
					"fontsize" : 10.0,
					"id" : "obj-50",
					"maxclass" : "newobj",
					"numinlets" : 2,
					"numoutlets" : 1,
					"outlettype" : [ "float" ],
					"patching_rect" : [ 1372.845947000000024, 374.845947000000024, 37.0, 20.0 ],
					"text" : "* 0.01"
				}

			}
, 			{
				"box" : 				{
					"comment" : "",
					"id" : "obj-4",
					"index" : 3,
					"maxclass" : "inlet",
					"numinlets" : 0,
					"numoutlets" : 1,
					"outlettype" : [ "" ],
					"patching_rect" : [ 866.439940999999976, 284.459685999999977, 25.0, 25.0 ]
				}

			}
, 			{
				"box" : 				{
					"fontname" : "Arial",
					"fontsize" : 13.0,
					"id" : "obj-7",
					"maxclass" : "newobj",
					"numinlets" : 1,
					"numoutlets" : 1,
					"outlettype" : [ "multichannelsignal" ],
					"patching_rect" : [ 987.84600830078125, 250.863616943359375, 64.0, 21.0 ],
					"text" : "mc.sig~ 2"
				}

			}
, 			{
				"box" : 				{
					"fontname" : "Arial",
					"fontsize" : 13.0,
					"id" : "obj-16",
					"maxclass" : "newobj",
					"numinlets" : 2,
					"numoutlets" : 1,
					"outlettype" : [ "multichannelsignal" ],
					"patching_rect" : [ 987.84600830078125, 293.804901123046875, 61.0, 21.0 ],
					"text" : "mc.pow~"
				}

			}
, 			{
				"box" : 				{
					"fontname" : "Ableton Sans Bold Regular",
					"fontsize" : 10.0,
					"id" : "obj-24",
					"maxclass" : "newobj",
					"numinlets" : 2,
					"numoutlets" : 1,
					"outlettype" : [ "float" ],
					"patching_rect" : [ 1049.845947000000024, 259.622040000000027, 37.0, 20.0 ],
					"text" : "* 0.01"
				}

			}
, 			{
				"box" : 				{
					"fontname" : "Arial",
					"fontsize" : 12.0,
					"id" : "obj-49",
					"maxclass" : "newobj",
					"numinlets" : 2,
					"numoutlets" : 1,
					"outlettype" : [ "float" ],
					"patching_rect" : [ 878.439940999999976, 1258.0, 35.0, 20.0 ],
					"text" : "* 25."
				}

			}
, 			{
				"box" : 				{
					"fontname" : "Arial",
					"fontsize" : 12.0,
					"id" : "obj-45",
					"maxclass" : "newobj",
					"numinlets" : 2,
					"numoutlets" : 1,
					"outlettype" : [ "float" ],
					"patching_rect" : [ 781.011352999999986, 1258.0, 83.0, 20.0 ],
					"text" : "snapshot~ 10"
				}

			}
, 			{
				"box" : 				{
					"fontname" : "Arial",
					"fontsize" : 12.0,
					"id" : "obj-44",
					"maxclass" : "message",
					"numinlets" : 2,
					"numoutlets" : 1,
					"outlettype" : [ "" ],
					"patching_rect" : [ 618.533690999999976, 1251.076904000000013, 60.0, 20.0 ],
					"text" : "bandstop"
				}

			}
, 			{
				"box" : 				{
					"fontname" : "Arial",
					"fontsize" : 12.0,
					"id" : "obj-31",
					"maxclass" : "message",
					"numinlets" : 2,
					"numoutlets" : 1,
					"outlettype" : [ "" ],
					"patching_rect" : [ 574.008422999999993, 1223.076904000000013, 63.0, 20.0 ],
					"text" : "bandpass"
				}

			}
, 			{
				"box" : 				{
					"fontname" : "Arial",
					"fontsize" : 12.0,
					"id" : "obj-30",
					"maxclass" : "message",
					"numinlets" : 2,
					"numoutlets" : 1,
					"outlettype" : [ "" ],
					"patching_rect" : [ 531.008422999999993, 1243.076904000000013, 59.0, 20.0 ],
					"text" : "highpass"
				}

			}
, 			{
				"box" : 				{
					"fontname" : "Arial",
					"fontsize" : 12.0,
					"id" : "obj-29",
					"maxclass" : "message",
					"numinlets" : 2,
					"numoutlets" : 1,
					"outlettype" : [ "" ],
					"patching_rect" : [ 488.0, 1223.076904000000013, 54.0, 20.0 ],
					"text" : "lowpass"
				}

			}
, 			{
				"box" : 				{
					"fontname" : "Arial",
					"fontsize" : 12.0,
					"id" : "obj-26",
					"maxclass" : "newobj",
					"numinlets" : 5,
					"numoutlets" : 5,
					"outlettype" : [ "bang", "bang", "bang", "bang", "" ],
					"patching_rect" : [ 488.0, 1188.0, 191.033691000000005, 20.0 ],
					"text" : "sel 1 2 3 4"
				}

			}
, 			{
				"box" : 				{
					"autoout" : 1,
					"bgcolor" : [ 0.0, 0.0, 0.0, 1.0 ],
					"curvecolor" : [ 0.278431, 0.839216, 1.0, 1.0 ],
					"domain" : [ 0.0, 22050.0 ],
					"fontface" : 1,
					"fontname" : "Arial",
					"hcurvecolor" : [ 0.278431, 0.839216, 1.0, 1.0 ],
					"id" : "obj-36",
					"ignoreclick" : 1,
					"linmarkers" : [ 0.0, 11025.0, 16537.5 ],
					"logmarkers" : [ 0.0, 100.0, 1000.0, 10000.0 ],
					"markercolor" : [ 0.509804, 0.509804, 0.509804, 0.0 ],
					"maxclass" : "filtergraph~",
					"nfilters" : 1,
					"numinlets" : 8,
					"numoutlets" : 7,
					"outlettype" : [ "list", "float", "float", "float", "float", "list", "int" ],
					"parameter_enable" : 0,
					"patching_rect" : [ 537.439940999999976, 1307.237548999999944, 360.0, 155.0 ],
					"presentation" : 1,
					"presentation_rect" : [ 348.9093017578125, 41.838638305664062, 73.767120361328125, 51.161361694335938 ],
					"setfilter" : [ 0, 1, 0, 0, 0, 261.625579833984375, 1.0, 0.5, 0.000099999997474, 22050.0, 0.000099999997474, 16.0, 0.5, 25.0 ],
					"textcolor" : [ 1.0, 1.0, 1.0, 0.0 ]
				}

			}
, 			{
				"box" : 				{
					"fontname" : "Ableton Sans Bold Regular",
					"fontsize" : 9.0,
					"id" : "obj-74",
					"maxclass" : "comment",
					"numinlets" : 1,
					"numoutlets" : 0,
					"patching_rect" : [ 866.439940999999976, 259.622040000000027, 63.0, 17.0 ],
					"presentation" : 1,
					"presentation_rect" : [ 184.450942993164062, 0.0, 63.0, 17.0 ],
					"text" : "CV2 (1v/oct)",
					"textcolor" : [ 1.0, 1.0, 1.0, 1.0 ],
					"textjustification" : 1
				}

			}
, 			{
				"box" : 				{
					"fontname" : "Arial",
					"fontsize" : 12.0,
					"id" : "obj-2",
					"maxclass" : "newobj",
					"numinlets" : 2,
					"numoutlets" : 1,
					"outlettype" : [ "multichannelsignal" ],
					"patching_rect" : [ 866.43994140625, 451.461334228515625, 56.0, 20.0 ],
					"text" : "mc.-~ 60"
				}

			}
, 			{
				"box" : 				{
					"fontname" : "Arial",
					"fontsize" : 12.0,
					"id" : "obj-46",
					"maxclass" : "newobj",
					"numinlets" : 2,
					"numoutlets" : 1,
					"outlettype" : [ "multichannelsignal" ],
					"patching_rect" : [ 654.03369140625, 398.961334228515625, 56.0, 20.0 ],
					"text" : "mc.-~ 60"
				}

			}
, 			{
				"box" : 				{
					"fontname" : "Arial",
					"fontsize" : 12.0,
					"id" : "obj-92",
					"maxclass" : "newobj",
					"numinlets" : 2,
					"numoutlets" : 1,
					"outlettype" : [ "multichannelsignal" ],
					"patching_rect" : [ 433.43994140625, 551.89312744140625, 42.0, 20.0 ],
					"text" : "mc.+~"
				}

			}
, 			{
				"box" : 				{
					"fontname" : "Arial",
					"fontsize" : 12.0,
					"id" : "obj-91",
					"maxclass" : "newobj",
					"numinlets" : 2,
					"numoutlets" : 1,
					"outlettype" : [ "multichannelsignal" ],
					"patching_rect" : [ 433.43994140625, 500.053863525390625, 42.0, 20.0 ],
					"text" : "mc.+~"
				}

			}
, 			{
				"box" : 				{
					"fontname" : "Arial",
					"fontsize" : 12.0,
					"id" : "obj-90",
					"maxclass" : "newobj",
					"numinlets" : 2,
					"numoutlets" : 1,
					"outlettype" : [ "multichannelsignal" ],
					"patching_rect" : [ 433.43994140625, 449.0538330078125, 42.0, 20.0 ],
					"text" : "mc.+~"
				}

			}
, 			{
				"box" : 				{
					"bubble" : 1,
					"fontname" : "Arial",
					"fontsize" : 12.0,
					"id" : "obj-89",
					"linecount" : 2,
					"maxclass" : "comment",
					"numinlets" : 1,
					"numoutlets" : 0,
					"patching_rect" : [ 704.439940999999976, 360.461334000000022, 109.0, 34.0 ],
					"text" : "12 semitones in an oct"
				}

			}
, 			{
				"box" : 				{
					"bubble" : 1,
					"fontname" : "Arial",
					"fontsize" : 12.0,
					"id" : "obj-88",
					"linecount" : 2,
					"maxclass" : "comment",
					"numinlets" : 1,
					"numoutlets" : 0,
					"patching_rect" : [ 704.439940999999976, 314.461334000000022, 109.0, 34.0 ],
					"text" : "add 5v to bring to 0-10v range"
				}

			}
, 			{
				"box" : 				{
					"bubble" : 1,
					"bubbleside" : 3,
					"fontname" : "Arial",
					"fontsize" : 12.0,
					"id" : "obj-87",
					"linecount" : 4,
					"maxclass" : "comment",
					"numinlets" : 1,
					"numoutlets" : 0,
					"patching_rect" : [ 1132.43994100000009, 320.768981999999994, 102.0, 58.0 ],
					"text" : "convert 0-5v to 0-120 range of semitones"
				}

			}
, 			{
				"box" : 				{
					"fontname" : "Arial",
					"fontsize" : 12.0,
					"id" : "obj-84",
					"maxclass" : "newobj",
					"numinlets" : 2,
					"numoutlets" : 1,
					"outlettype" : [ "multichannelsignal" ],
					"patching_rect" : [ 1251.43994140625, 342.76898193359375, 56.0, 20.0 ],
					"text" : "mc.*~ 24"
				}

			}
, 			{
				"box" : 				{
					"fontname" : "Arial",
					"fontsize" : 12.0,
					"id" : "obj-83",
					"maxclass" : "newobj",
					"numinlets" : 3,
					"numoutlets" : 1,
					"outlettype" : [ "multichannelsignal" ],
					"patching_rect" : [ 1251.43994140625, 284.459686279296875, 73.0, 20.0 ],
					"text" : "mc.clip~ 0 5"
				}

			}
, 			{
				"box" : 				{
					"fontname" : "Arial",
					"fontsize" : 12.0,
					"id" : "obj-81",
					"maxclass" : "newobj",
					"numinlets" : 2,
					"numoutlets" : 1,
					"outlettype" : [ "multichannelsignal" ],
					"patching_rect" : [ 866.43994140625, 422.122039794921875, 56.0, 20.0 ],
					"text" : "mc.*~ 12"
				}

			}
, 			{
				"box" : 				{
					"fontname" : "Arial",
					"fontsize" : 12.0,
					"id" : "obj-82",
					"maxclass" : "newobj",
					"numinlets" : 2,
					"numoutlets" : 1,
					"outlettype" : [ "multichannelsignal" ],
					"patching_rect" : [ 866.43994140625, 384.122039794921875, 52.0, 20.0 ],
					"text" : "mc.+~ 5"
				}

			}
, 			{
				"box" : 				{
					"fontname" : "Arial",
					"fontsize" : 12.0,
					"id" : "obj-78",
					"maxclass" : "newobj",
					"numinlets" : 2,
					"numoutlets" : 1,
					"outlettype" : [ "multichannelsignal" ],
					"patching_rect" : [ 654.03369140625, 360.961334228515625, 56.0, 20.0 ],
					"text" : "mc.*~ 12"
				}

			}
, 			{
				"box" : 				{
					"fontname" : "Arial",
					"fontsize" : 12.0,
					"id" : "obj-76",
					"maxclass" : "newobj",
					"numinlets" : 2,
					"numoutlets" : 1,
					"outlettype" : [ "multichannelsignal" ],
					"patching_rect" : [ 654.03369140625, 322.961334228515625, 52.0, 20.0 ],
					"text" : "mc.+~ 5"
				}

			}
, 			{
				"box" : 				{
					"annotation" : "1v/oct",
					"comment" : "",
					"id" : "obj-60",
					"index" : 4,
					"maxclass" : "inlet",
					"numinlets" : 0,
					"numoutlets" : 1,
					"outlettype" : [ "" ],
					"patching_rect" : [ 1251.43994100000009, 240.959686000000005, 25.0, 25.0 ]
				}

			}
, 			{
				"box" : 				{
					"activedialcolor" : [ 0.278431, 0.839216, 1.0, 1.0 ],
					"activefgdialcolor" : [ 0.65098, 0.666667, 0.662745, 1.0 ],
					"activeneedlecolor" : [ 1.0, 1.0, 1.0, 0.6 ],
					"id" : "obj-63",
					"maxclass" : "live.dial",
					"numinlets" : 1,
					"numoutlets" : 2,
					"outlettype" : [ "", "float" ],
					"parameter_enable" : 1,
					"patching_rect" : [ 1372.845947000000024, 293.804900999999973, 44.0, 48.0 ],
					"presentation" : 1,
					"presentation_rect" : [ 159.640533447265625, 41.838638305664062, 44.0, 48.0 ],
					"saved_attribute_attributes" : 					{
						"valueof" : 						{
							"parameter_shortname" : "CV3",
							"parameter_type" : 0,
							"parameter_unitstyle" : 5,
							"parameter_longname" : "CV3[1]",
							"parameter_mmax" : 100.0
						}

					}
,
					"textcolor" : [ 1.0, 1.0, 1.0, 0.6 ],
					"varname" : "CV3"
				}

			}
, 			{
				"box" : 				{
					"fontname" : "Arial",
					"fontsize" : 12.0,
					"id" : "obj-58",
					"maxclass" : "newobj",
					"numinlets" : 3,
					"numoutlets" : 1,
					"outlettype" : [ "multichannelsignal" ],
					"patching_rect" : [ 433.43994140625, 661.0538330078125, 100.0, 20.0 ],
					"text" : "mc.clip~ 0 22000"
				}

			}
, 			{
				"box" : 				{
					"activedialcolor" : [ 0.278431, 0.839216, 1.0, 1.0 ],
					"activefgdialcolor" : [ 0.65098, 0.666667, 0.662745, 1.0 ],
					"activeneedlecolor" : [ 1.0, 1.0, 1.0, 0.6 ],
					"id" : "obj-54",
					"maxclass" : "live.dial",
					"numinlets" : 1,
					"numoutlets" : 2,
					"outlettype" : [ "", "float" ],
					"parameter_enable" : 1,
					"patching_rect" : [ 837.439757999999983, 106.018127000000007, 44.0, 48.0 ],
					"presentation" : 1,
					"presentation_rect" : [ 71.640533447265625, 41.838638305664062, 44.0, 48.0 ],
					"saved_attribute_attributes" : 					{
						"valueof" : 						{
							"parameter_shortname" : "CV1",
							"parameter_type" : 0,
							"parameter_unitstyle" : 5,
							"parameter_longname" : "CV1",
							"parameter_mmax" : 100.0
						}

					}
,
					"textcolor" : [ 1.0, 1.0, 1.0, 0.6 ],
					"varname" : "CV1"
				}

			}
, 			{
				"box" : 				{
					"activedialcolor" : [ 0.278431, 0.839216, 1.0, 1.0 ],
					"activefgdialcolor" : [ 0.65098, 0.666667, 0.662745, 1.0 ],
					"activeneedlecolor" : [ 1.0, 1.0, 1.0, 0.6 ],
					"id" : "obj-51",
					"maxclass" : "live.dial",
					"numinlets" : 1,
					"numoutlets" : 2,
					"outlettype" : [ "", "float" ],
					"parameter_enable" : 1,
					"patching_rect" : [ 1049.845947000000024, 193.038299999999992, 44.0, 48.0 ],
					"presentation" : 1,
					"presentation_rect" : [ 115.640533447265625, 41.838638305664062, 44.0, 48.0 ],
					"saved_attribute_attributes" : 					{
						"valueof" : 						{
							"parameter_shortname" : "CV2",
							"parameter_type" : 0,
							"parameter_unitstyle" : 5,
							"parameter_longname" : "CV2[1]",
							"parameter_mmax" : 100.0
						}

					}
,
					"textcolor" : [ 1.0, 1.0, 1.0, 0.6 ],
					"varname" : "CV2"
				}

			}
, 			{
				"box" : 				{
					"fontname" : "Arial",
					"fontsize" : 13.0,
					"id" : "obj-69",
					"maxclass" : "message",
					"numinlets" : 2,
					"numoutlets" : 1,
					"outlettype" : [ "" ],
					"patching_rect" : [ 433.439940999999976, 354.961334000000022, 43.0, 21.0 ],
					"text" : "$1 20"
				}

			}
, 			{
				"box" : 				{
					"fontname" : "Arial",
					"fontsize" : 13.0,
					"id" : "obj-70",
					"maxclass" : "newobj",
					"numinlets" : 2,
					"numoutlets" : 2,
					"outlettype" : [ "signal", "bang" ],
					"patching_rect" : [ 433.439940999999976, 390.961334000000022, 53.0, 21.0 ],
					"text" : "line~ 0."
				}

			}
, 			{
				"box" : 				{
					"fontname" : "Arial",
					"fontsize" : 12.0,
					"id" : "obj-71",
					"maxclass" : "newobj",
					"numinlets" : 1,
					"numoutlets" : 1,
					"outlettype" : [ "multichannelsignal" ],
					"patching_rect" : [ 433.43994140625, 614.89312744140625, 58.0, 20.0 ],
					"text" : "mc.mtof~"
				}

			}
, 			{
				"box" : 				{
					"fontname" : "Arial",
					"fontsize" : 12.0,
					"id" : "obj-43",
					"maxclass" : "newobj",
					"numinlets" : 2,
					"numoutlets" : 1,
					"outlettype" : [ "int" ],
					"patching_rect" : [ 109.875977000000006, 1072.076904000000013, 32.5, 20.0 ],
					"text" : "+ 1"
				}

			}
, 			{
				"box" : 				{
					"activebgoncolor" : [ 0.278431, 0.839216, 1.0, 1.0 ],
					"id" : "obj-38",
					"maxclass" : "live.tab",
					"num_lines_patching" : 4,
					"num_lines_presentation" : 4,
					"numinlets" : 1,
					"numoutlets" : 3,
					"outlettype" : [ "", "", "float" ],
					"parameter_enable" : 1,
					"patching_rect" : [ 109.875977000000006, 941.237610000000018, 55.25, 101.0 ],
					"presentation" : 1,
					"presentation_rect" : [ 297.640533447265625, 37.838638305664062, 49.084159851074219, 55.161361694335938 ],
					"saved_attribute_attributes" : 					{
						"valueof" : 						{
							"parameter_shortname" : "FilterType",
							"parameter_enum" : [ "LPF", "HPF", "BPF", "Notch" ],
							"parameter_type" : 2,
							"parameter_unitstyle" : 0,
							"parameter_longname" : "FilterType",
							"parameter_initial_enable" : 1,
							"parameter_initial" : [ 0.0 ]
						}

					}
,
					"varname" : "FilterType"
				}

			}
, 			{
				"box" : 				{
					"fontname" : "Arial",
					"fontsize" : 12.0,
					"id" : "obj-28",
					"maxclass" : "newobj",
					"numinlets" : 5,
					"numoutlets" : 1,
					"outlettype" : [ "multichannelsignal" ],
					"patching_rect" : [ 109.8759765625, 1118.076904296875, 536.8385009765625, 20.0 ],
					"text" : "mc.selector~ 4 1"
				}

			}
, 			{
				"box" : 				{
					"fontname" : "Arial",
					"fontsize" : 12.0,
					"id" : "obj-12",
					"maxclass" : "newobj",
					"numinlets" : 3,
					"numoutlets" : 4,
					"outlettype" : [ "multichannelsignal", "multichannelsignal", "multichannelsignal", "multichannelsignal" ],
					"patching_rect" : [ 239.84619140625, 1079.076904296875, 405.84710693359375, 20.0 ],
					"text" : "mc.svf~"
				}

			}
, 			{
				"box" : 				{
					"fontname" : "Ableton Sans Bold Regular",
					"fontsize" : 9.0,
					"id" : "obj-42",
					"maxclass" : "comment",
					"numinlets" : 1,
					"numoutlets" : 0,
					"patching_rect" : [ 1251.43994100000009, 213.383513999999991, 55.0, 17.0 ],
					"presentation" : 1,
					"presentation_rect" : [ 287.676422119140625, 0.0, 55.0, 17.0 ],
					"text" : "CV3 (0-5v)",
					"textcolor" : [ 1.0, 1.0, 1.0, 1.0 ],
					"textjustification" : 1
				}

			}
, 			{
				"box" : 				{
					"fontname" : "Ableton Sans Bold Regular",
					"fontsize" : 9.0,
					"id" : "obj-41",
					"maxclass" : "comment",
					"numinlets" : 1,
					"numoutlets" : 0,
					"patching_rect" : [ 654.033690999999976, 179.200652999999988, 63.0, 17.0 ],
					"presentation" : 1,
					"presentation_rect" : [ 81.225471496582031, 0.0, 63.0, 17.0 ],
					"text" : "CV1 (1v/oct)",
					"textcolor" : [ 1.0, 1.0, 1.0, 1.0 ],
					"textjustification" : 1
				}

			}
, 			{
				"box" : 				{
					"fontname" : "Arial",
					"fontsize" : 12.0,
					"id" : "obj-10",
					"maxclass" : "newobj",
					"numinlets" : 2,
					"numoutlets" : 1,
					"outlettype" : [ "int" ],
					"patching_rect" : [ 54.875976999999999, 1196.076904000000013, 32.5, 20.0 ],
					"text" : "+ 1"
				}

			}
, 			{
				"box" : 				{
					"fontname" : "Arial",
					"fontsize" : 12.0,
					"id" : "obj-9",
					"maxclass" : "newobj",
					"numinlets" : 3,
					"numoutlets" : 1,
					"outlettype" : [ "multichannelsignal" ],
					"patching_rect" : [ 54.8759765625, 1241.076904296875, 129.0, 20.0 ],
					"text" : "mc.selector~ 2 1"
				}

			}
, 			{
				"box" : 				{
					"comment" : "",
					"id" : "obj-6",
					"index" : 1,
					"maxclass" : "outlet",
					"numinlets" : 1,
					"numoutlets" : 0,
					"patching_rect" : [ 54.875976999999999, 1289.076904000000013, 25.0, 25.0 ]
				}

			}
, 			{
				"box" : 				{
					"fontname" : "Arial",
					"fontsize" : 12.0,
					"id" : "obj-37",
					"maxclass" : "newobj",
					"numinlets" : 2,
					"numoutlets" : 1,
					"outlettype" : [ "float" ],
					"patching_rect" : [ 627.033690999999976, 850.005187999999976, 42.0, 20.0 ],
					"text" : "* 0.01"
				}

			}
, 			{
				"box" : 				{
					"fontname" : "Arial",
					"fontsize" : 13.0,
					"id" : "obj-34",
					"maxclass" : "message",
					"numinlets" : 2,
					"numoutlets" : 1,
					"outlettype" : [ "" ],
					"patching_rect" : [ 627.033690999999976, 888.505187999999976, 43.0, 21.0 ],
					"text" : "$1 20"
				}

			}
, 			{
				"box" : 				{
					"fontname" : "Arial",
					"fontsize" : 13.0,
					"id" : "obj-35",
					"maxclass" : "newobj",
					"numinlets" : 3,
					"numoutlets" : 2,
					"outlettype" : [ "", "bang" ],
					"patching_rect" : [ 627.033690999999976, 923.344481999999971, 46.0, 21.0 ],
					"text" : "line 0."
				}

			}
, 			{
				"box" : 				{
					"activedialcolor" : [ 0.278431, 0.839216, 1.0, 1.0 ],
					"activefgdialcolor" : [ 0.65098, 0.666667, 0.662745, 1.0 ],
					"activeneedlecolor" : [ 1.0, 1.0, 1.0, 0.6 ],
					"id" : "obj-11",
					"maxclass" : "live.dial",
					"numinlets" : 1,
					"numoutlets" : 2,
					"outlettype" : [ "", "float" ],
					"parameter_enable" : 1,
					"patching_rect" : [ 627.033690999999976, 785.005187999999976, 44.0, 48.0 ],
					"presentation" : 1,
					"presentation_rect" : [ 203.640533447265625, 41.838638305664062, 44.0, 48.0 ],
					"saved_attribute_attributes" : 					{
						"valueof" : 						{
							"parameter_shortname" : "Res",
							"parameter_type" : 0,
							"parameter_unitstyle" : 5,
							"parameter_exponent" : 2.0,
							"parameter_longname" : "Res",
							"parameter_initial_enable" : 1,
							"parameter_mmax" : 100.0,
							"parameter_initial" : [ 0.0 ]
						}

					}
,
					"textcolor" : [ 1.0, 1.0, 1.0, 0.6 ],
					"varname" : "Res"
				}

			}
, 			{
				"box" : 				{
					"fontname" : "Arial",
					"fontsize" : 12.0,
					"id" : "obj-17",
					"maxclass" : "newobj",
					"numinlets" : 2,
					"numoutlets" : 1,
					"outlettype" : [ "multichannelsignal" ],
					"patching_rect" : [ 109.8759765625, 1196.076904296875, 53.0, 20.0 ],
					"text" : "mc.*~ 5."
				}

			}
, 			{
				"box" : 				{
					"fontname" : "Arial",
					"fontsize" : 12.0,
					"id" : "obj-32",
					"maxclass" : "newobj",
					"numinlets" : 2,
					"numoutlets" : 1,
					"outlettype" : [ "multichannelsignal" ],
					"patching_rect" : [ 239.84619140625, 1022.23760986328125, 60.0, 20.0 ],
					"text" : "mc.*~ 0.2"
				}

			}
, 			{
				"box" : 				{
					"activebgcolor" : [ 0.572549, 0.615686, 0.658824, 0.0 ],
					"activebgoncolor" : [ 0.278431, 0.839216, 1.0, 1.0 ],
					"activetextcolor" : [ 1.0, 1.0, 1.0, 0.57 ],
					"activetextoncolor" : [ 0.0, 0.019608, 0.078431, 1.0 ],
					"bgcolor" : [ 0.101961, 0.101961, 0.101961, 0.78 ],
					"bordercolor" : [ 0.0, 0.019608, 0.078431, 0.37 ],
					"id" : "obj-55",
					"maxclass" : "live.text",
					"numinlets" : 1,
					"numoutlets" : 2,
					"outlettype" : [ "", "" ],
					"parameter_enable" : 1,
					"patching_rect" : [ 54.875976999999999, 1154.576904000000013, 43.0, 19.0 ],
					"presentation" : 1,
					"presentation_rect" : [ 347.9093017578125, 19.0, 73.767135620117188, 17.0 ],
					"saved_attribute_attributes" : 					{
						"valueof" : 						{
							"parameter_shortname" : "power",
							"parameter_enum" : [ "val1", "val2" ],
							"parameter_defer" : 1,
							"parameter_type" : 2,
							"parameter_longname" : "power",
							"parameter_mmax" : 1.0,
							"parameter_initial" : [ 0.0 ]
						}

					}
,
					"text" : "bypass",
					"textcolor" : [ 1.0, 1.0, 1.0, 1.0 ],
					"texton" : "bypass",
					"varname" : "power[1]"
				}

			}
, 			{
				"box" : 				{
					"comment" : "",
					"id" : "obj-39",
					"index" : 1,
					"maxclass" : "inlet",
					"numinlets" : 0,
					"numoutlets" : 1,
					"outlettype" : [ "" ],
					"patching_rect" : [ 164.875977000000006, 863.737610000000018, 25.0, 25.0 ]
				}

			}
, 			{
				"box" : 				{
					"fontname" : "Arial",
					"fontsize" : 12.0,
					"id" : "obj-40",
					"maxclass" : "newobj",
					"numinlets" : 1,
					"numoutlets" : 4,
					"outlettype" : [ "", "", "", "" ],
					"patching_rect" : [ 48.0, 122.822601000000006, 59.5, 20.0 ],
					"restore" : 					{
						"CV1" : [ 0.0 ],
						"CV2" : [ 0.0 ],
						"CV3" : [ 0.0 ],
						"FilterType" : [ 0.0 ],
						"Freq" : [ 261.999999999999943 ],
						"FreqMode" : [ 1.0 ],
						"Offset[2]" : [ 0.0 ],
						"Res" : [ 0.0 ],
						"ResCV" : [ 0.0 ],
						"power[1]" : [ 0.0 ]
					}
,
					"text" : "autopattr",
					"varname" : "u180006075"
				}

			}
, 			{
				"box" : 				{
					"fontname" : "Ableton Sans Bold Regular",
					"fontsize" : 9.0,
					"id" : "obj-8",
					"maxclass" : "comment",
					"numinlets" : 1,
					"numoutlets" : 0,
					"patching_rect" : [ 94.205505000000002, 1293.076904000000013, 40.0, 17.0 ],
					"presentation" : 1,
					"presentation_rect" : [ 2.0, 97.0, 40.0, 17.0 ],
					"text" : "Output",
					"textcolor" : [ 1.0, 1.0, 1.0, 1.0 ]
				}

			}
, 			{
				"box" : 				{
					"fontname" : "Ableton Sans Bold Regular",
					"fontsize" : 9.0,
					"id" : "obj-19",
					"maxclass" : "comment",
					"numinlets" : 1,
					"numoutlets" : 0,
					"patching_rect" : [ 118.500977000000006, 867.737610000000018, 38.0, 17.0 ],
					"presentation" : 1,
					"presentation_rect" : [ 2.0, 0.0, 38.0, 17.0 ],
					"text" : "Signal",
					"textcolor" : [ 1.0, 1.0, 1.0, 1.0 ]
				}

			}
, 			{
				"box" : 				{
					"fontname" : "Ableton Sans Bold Regular",
					"fontsize" : 9.0,
					"id" : "obj-13",
					"maxclass" : "comment",
					"numinlets" : 1,
					"numoutlets" : 0,
					"patching_rect" : [ 48.0, 65.0, 77.0, 17.0 ],
					"presentation" : 1,
					"presentation_rect" : [ 2.0, 19.0, 77.0, 17.0 ],
					"text" : "MMF (12dB/oct)",
					"textcolor" : [ 1.0, 1.0, 1.0, 1.0 ]
				}

			}
, 			{
				"box" : 				{
					"angle" : 0.0,
					"background" : 1,
					"bgcolor" : [ 0.137255, 0.145098, 0.160784, 0.65 ],
					"id" : "obj-130",
					"maxclass" : "panel",
					"mode" : 0,
					"numinlets" : 1,
					"numoutlets" : 0,
					"patching_rect" : [ 48.0, 42.529998999999997, 37.0, 5.0 ],
					"presentation" : 1,
					"presentation_rect" : [ 0.0, 37.0, 472.0, 60.338157653808594 ],
					"proportion" : 0.39,
					"rounded" : 0
				}

			}
, 			{
				"box" : 				{
					"angle" : 0.0,
					"background" : 1,
					"bgcolor" : [ 0.367404, 0.389405, 0.430238, 1.0 ],
					"id" : "obj-131",
					"maxclass" : "panel",
					"mode" : 0,
					"numinlets" : 1,
					"numoutlets" : 0,
					"patching_rect" : [ 96.983886999999996, 42.529998999999997, 37.0, 5.0 ],
					"presentation" : 1,
					"presentation_rect" : [ 0.0, 17.0, 472.0, 80.338157653808594 ],
					"proportion" : 0.39,
					"rounded" : 0
				}

			}
, 			{
				"box" : 				{
					"angle" : 0.0,
					"background" : 1,
					"bgcolor" : [ 0.0, 0.0, 0.0, 1.0 ],
					"id" : "obj-135",
					"maxclass" : "panel",
					"mode" : 0,
					"numinlets" : 1,
					"numoutlets" : 0,
					"patching_rect" : [ 144.205504999999988, 42.529998999999997, 37.0, 5.0 ],
					"presentation" : 1,
					"presentation_rect" : [ 0.0, 0.0, 472.0, 133.0 ],
					"proportion" : 0.39,
					"rounded" : 0
				}

			}
 ],
		"lines" : [ 			{
				"patchline" : 				{
					"destination" : [ "obj-69", 0 ],
					"source" : [ "obj-1", 0 ]
				}

			}
, 			{
				"patchline" : 				{
					"destination" : [ "obj-9", 0 ],
					"source" : [ "obj-10", 0 ]
				}

			}
, 			{
				"patchline" : 				{
					"destination" : [ "obj-49", 0 ],
					"source" : [ "obj-100", 0 ]
				}

			}
, 			{
				"patchline" : 				{
					"destination" : [ "obj-37", 0 ],
					"source" : [ "obj-11", 0 ]
				}

			}
, 			{
				"patchline" : 				{
					"destination" : [ "obj-28", 4 ],
					"source" : [ "obj-12", 3 ]
				}

			}
, 			{
				"patchline" : 				{
					"destination" : [ "obj-28", 3 ],
					"source" : [ "obj-12", 2 ]
				}

			}
, 			{
				"patchline" : 				{
					"destination" : [ "obj-28", 2 ],
					"source" : [ "obj-12", 1 ]
				}

			}
, 			{
				"patchline" : 				{
					"destination" : [ "obj-28", 1 ],
					"source" : [ "obj-12", 0 ]
				}

			}
, 			{
				"patchline" : 				{
					"destination" : [ "obj-52", 1 ],
					"source" : [ "obj-16", 0 ]
				}

			}
, 			{
				"patchline" : 				{
					"destination" : [ "obj-9", 1 ],
					"source" : [ "obj-17", 0 ]
				}

			}
, 			{
				"patchline" : 				{
					"destination" : [ "obj-91", 1 ],
					"source" : [ "obj-2", 0 ]
				}

			}
, 			{
				"patchline" : 				{
					"destination" : [ "obj-1", 0 ],
					"source" : [ "obj-20", 0 ]
				}

			}
, 			{
				"patchline" : 				{
					"destination" : [ "obj-86", 0 ],
					"source" : [ "obj-22", 0 ]
				}

			}
, 			{
				"patchline" : 				{
					"destination" : [ "obj-5", 0 ],
					"source" : [ "obj-23", 0 ]
				}

			}
, 			{
				"patchline" : 				{
					"destination" : [ "obj-16", 1 ],
					"source" : [ "obj-24", 0 ]
				}

			}
, 			{
				"patchline" : 				{
					"destination" : [ "obj-29", 0 ],
					"source" : [ "obj-26", 0 ]
				}

			}
, 			{
				"patchline" : 				{
					"destination" : [ "obj-30", 0 ],
					"source" : [ "obj-26", 1 ]
				}

			}
, 			{
				"patchline" : 				{
					"destination" : [ "obj-31", 0 ],
					"source" : [ "obj-26", 2 ]
				}

			}
, 			{
				"patchline" : 				{
					"destination" : [ "obj-44", 0 ],
					"source" : [ "obj-26", 3 ]
				}

			}
, 			{
				"patchline" : 				{
					"destination" : [ "obj-47", 1 ],
					"source" : [ "obj-27", 0 ]
				}

			}
, 			{
				"patchline" : 				{
					"destination" : [ "obj-17", 0 ],
					"source" : [ "obj-28", 0 ]
				}

			}
, 			{
				"patchline" : 				{
					"destination" : [ "obj-36", 0 ],
					"source" : [ "obj-29", 0 ]
				}

			}
, 			{
				"patchline" : 				{
					"destination" : [ "obj-36", 0 ],
					"source" : [ "obj-30", 0 ]
				}

			}
, 			{
				"patchline" : 				{
					"destination" : [ "obj-36", 0 ],
					"source" : [ "obj-31", 0 ]
				}

			}
, 			{
				"patchline" : 				{
					"destination" : [ "obj-12", 0 ],
					"source" : [ "obj-32", 0 ]
				}

			}
, 			{
				"patchline" : 				{
					"color" : [ 0.501961, 0.501961, 0.501961, 0.901961 ],
					"destination" : [ "obj-47", 0 ],
					"source" : [ "obj-33", 0 ]
				}

			}
, 			{
				"patchline" : 				{
					"destination" : [ "obj-35", 0 ],
					"source" : [ "obj-34", 0 ]
				}

			}
, 			{
				"patchline" : 				{
					"destination" : [ "obj-98", 0 ],
					"source" : [ "obj-35", 0 ]
				}

			}
, 			{
				"patchline" : 				{
					"destination" : [ "obj-34", 0 ],
					"source" : [ "obj-37", 0 ]
				}

			}
, 			{
				"patchline" : 				{
					"destination" : [ "obj-43", 0 ],
					"source" : [ "obj-38", 0 ]
				}

			}
, 			{
				"patchline" : 				{
					"destination" : [ "obj-32", 0 ],
					"order" : 0,
					"source" : [ "obj-39", 0 ]
				}

			}
, 			{
				"patchline" : 				{
					"destination" : [ "obj-9", 2 ],
					"order" : 1,
					"source" : [ "obj-39", 0 ]
				}

			}
, 			{
				"patchline" : 				{
					"destination" : [ "obj-52", 0 ],
					"source" : [ "obj-4", 0 ]
				}

			}
, 			{
				"patchline" : 				{
					"destination" : [ "obj-26", 0 ],
					"order" : 0,
					"source" : [ "obj-43", 0 ]
				}

			}
, 			{
				"patchline" : 				{
					"destination" : [ "obj-28", 0 ],
					"order" : 1,
					"source" : [ "obj-43", 0 ]
				}

			}
, 			{
				"patchline" : 				{
					"destination" : [ "obj-36", 1 ],
					"source" : [ "obj-44", 0 ]
				}

			}
, 			{
				"patchline" : 				{
					"destination" : [ "obj-36", 5 ],
					"source" : [ "obj-45", 0 ]
				}

			}
, 			{
				"patchline" : 				{
					"destination" : [ "obj-90", 1 ],
					"source" : [ "obj-46", 0 ]
				}

			}
, 			{
				"patchline" : 				{
					"destination" : [ "obj-92", 1 ],
					"source" : [ "obj-47", 0 ]
				}

			}
, 			{
				"patchline" : 				{
					"destination" : [ "obj-27", 0 ],
					"source" : [ "obj-48", 0 ]
				}

			}
, 			{
				"patchline" : 				{
					"destination" : [ "obj-36", 7 ],
					"source" : [ "obj-49", 0 ]
				}

			}
, 			{
				"patchline" : 				{
					"destination" : [ "obj-69", 0 ],
					"source" : [ "obj-5", 0 ]
				}

			}
, 			{
				"patchline" : 				{
					"destination" : [ "obj-48", 1 ],
					"source" : [ "obj-50", 0 ]
				}

			}
, 			{
				"patchline" : 				{
					"destination" : [ "obj-24", 0 ],
					"source" : [ "obj-51", 0 ]
				}

			}
, 			{
				"patchline" : 				{
					"destination" : [ "obj-82", 0 ],
					"source" : [ "obj-52", 0 ]
				}

			}
, 			{
				"patchline" : 				{
					"destination" : [ "obj-76", 0 ],
					"source" : [ "obj-53", 0 ]
				}

			}
, 			{
				"patchline" : 				{
					"destination" : [ "obj-61", 0 ],
					"source" : [ "obj-54", 0 ]
				}

			}
, 			{
				"patchline" : 				{
					"destination" : [ "obj-10", 0 ],
					"source" : [ "obj-55", 0 ]
				}

			}
, 			{
				"patchline" : 				{
					"destination" : [ "obj-53", 0 ],
					"source" : [ "obj-56", 0 ]
				}

			}
, 			{
				"patchline" : 				{
					"color" : [ 0.501961, 0.501961, 0.501961, 0.901961 ],
					"destination" : [ "obj-59", 0 ],
					"source" : [ "obj-57", 0 ]
				}

			}
, 			{
				"patchline" : 				{
					"destination" : [ "obj-12", 1 ],
					"order" : 1,
					"source" : [ "obj-58", 0 ]
				}

			}
, 			{
				"patchline" : 				{
					"destination" : [ "obj-45", 0 ],
					"order" : 0,
					"source" : [ "obj-58", 0 ]
				}

			}
, 			{
				"patchline" : 				{
					"destination" : [ "obj-53", 1 ],
					"source" : [ "obj-59", 0 ]
				}

			}
, 			{
				"patchline" : 				{
					"destination" : [ "obj-83", 0 ],
					"source" : [ "obj-60", 0 ]
				}

			}
, 			{
				"patchline" : 				{
					"destination" : [ "obj-59", 1 ],
					"source" : [ "obj-61", 0 ]
				}

			}
, 			{
				"patchline" : 				{
					"destination" : [ "obj-50", 0 ],
					"source" : [ "obj-63", 0 ]
				}

			}
, 			{
				"patchline" : 				{
					"destination" : [ "obj-70", 0 ],
					"source" : [ "obj-69", 0 ]
				}

			}
, 			{
				"patchline" : 				{
					"color" : [ 0.501961, 0.501961, 0.501961, 0.901961 ],
					"destination" : [ "obj-16", 0 ],
					"source" : [ "obj-7", 0 ]
				}

			}
, 			{
				"patchline" : 				{
					"destination" : [ "obj-90", 0 ],
					"source" : [ "obj-70", 0 ]
				}

			}
, 			{
				"patchline" : 				{
					"destination" : [ "obj-58", 0 ],
					"source" : [ "obj-71", 0 ]
				}

			}
, 			{
				"patchline" : 				{
					"destination" : [ "obj-78", 0 ],
					"source" : [ "obj-76", 0 ]
				}

			}
, 			{
				"patchline" : 				{
					"destination" : [ "obj-46", 0 ],
					"source" : [ "obj-78", 0 ]
				}

			}
, 			{
				"patchline" : 				{
					"destination" : [ "obj-96", 0 ],
					"source" : [ "obj-79", 0 ]
				}

			}
, 			{
				"patchline" : 				{
					"destination" : [ "obj-97", 0 ],
					"source" : [ "obj-80", 0 ]
				}

			}
, 			{
				"patchline" : 				{
					"destination" : [ "obj-2", 0 ],
					"source" : [ "obj-81", 0 ]
				}

			}
, 			{
				"patchline" : 				{
					"destination" : [ "obj-81", 0 ],
					"source" : [ "obj-82", 0 ]
				}

			}
, 			{
				"patchline" : 				{
					"destination" : [ "obj-84", 0 ],
					"source" : [ "obj-83", 0 ]
				}

			}
, 			{
				"patchline" : 				{
					"destination" : [ "obj-48", 0 ],
					"source" : [ "obj-84", 0 ]
				}

			}
, 			{
				"patchline" : 				{
					"color" : [ 0.501961, 0.501961, 0.501961, 0.901961 ],
					"destination" : [ "obj-93", 0 ],
					"source" : [ "obj-85", 0 ]
				}

			}
, 			{
				"patchline" : 				{
					"destination" : [ "obj-20", 0 ],
					"source" : [ "obj-86", 1 ]
				}

			}
, 			{
				"patchline" : 				{
					"destination" : [ "obj-23", 0 ],
					"source" : [ "obj-86", 0 ]
				}

			}
, 			{
				"patchline" : 				{
					"destination" : [ "obj-6", 0 ],
					"source" : [ "obj-9", 0 ]
				}

			}
, 			{
				"patchline" : 				{
					"destination" : [ "obj-91", 0 ],
					"source" : [ "obj-90", 0 ]
				}

			}
, 			{
				"patchline" : 				{
					"destination" : [ "obj-92", 0 ],
					"source" : [ "obj-91", 0 ]
				}

			}
, 			{
				"patchline" : 				{
					"destination" : [ "obj-71", 0 ],
					"source" : [ "obj-92", 0 ]
				}

			}
, 			{
				"patchline" : 				{
					"destination" : [ "obj-79", 1 ],
					"source" : [ "obj-93", 0 ]
				}

			}
, 			{
				"patchline" : 				{
					"destination" : [ "obj-93", 1 ],
					"source" : [ "obj-94", 0 ]
				}

			}
, 			{
				"patchline" : 				{
					"destination" : [ "obj-94", 0 ],
					"source" : [ "obj-95", 0 ]
				}

			}
, 			{
				"patchline" : 				{
					"destination" : [ "obj-98", 1 ],
					"midpoints" : [ 1708.93994140625, 903.291016000000013, 659.53369140625, 903.291016000000013 ],
					"source" : [ "obj-96", 0 ]
				}

			}
, 			{
				"patchline" : 				{
					"destination" : [ "obj-79", 0 ],
					"source" : [ "obj-97", 0 ]
				}

			}
, 			{
				"patchline" : 				{
					"destination" : [ "obj-99", 0 ],
					"source" : [ "obj-98", 0 ]
				}

			}
, 			{
				"patchline" : 				{
					"destination" : [ "obj-100", 0 ],
					"order" : 0,
					"source" : [ "obj-99", 0 ]
				}

			}
, 			{
				"patchline" : 				{
					"destination" : [ "obj-12", 2 ],
					"order" : 1,
					"source" : [ "obj-99", 0 ]
				}

			}
 ],
		"bgcolor" : [ 1.0, 1.0, 1.0, 0.0 ]
	}

}
