{
	"patcher" : 	{
		"fileversion" : 1,
		"appversion" : 		{
			"major" : 8,
			"minor" : 0,
			"revision" : 0,
			"architecture" : "x64",
			"modernui" : 1
		}
,
		"classnamespace" : "box",
		"rect" : [ 34.0, 79.0, 862.0, 641.0 ],
		"bglocked" : 0,
		"openinpresentation" : 0,
		"default_fontsize" : 10.0,
		"default_fontface" : 0,
		"default_fontname" : "Ableton Sans Bold Regular",
		"gridonopen" : 1,
		"gridsize" : [ 15.0, 15.0 ],
		"gridsnaponopen" : 1,
		"objectsnaponopen" : 1,
		"statusbarvisible" : 2,
		"toolbarvisible" : 1,
		"lefttoolbarpinned" : 0,
		"toptoolbarpinned" : 0,
		"righttoolbarpinned" : 0,
		"bottomtoolbarpinned" : 0,
		"toolbars_unpinned_last_save" : 0,
		"tallnewobj" : 0,
		"boxanimatetime" : 200,
		"enablehscroll" : 1,
		"enablevscroll" : 1,
		"devicewidth" : 0.0,
		"description" : "",
		"digest" : "",
		"tags" : "",
		"style" : "",
		"subpatcher_template" : "",
		"boxes" : [ 			{
				"box" : 				{
					"bgmode" : 0,
					"border" : 0,
					"clickthrough" : 0,
					"embed" : 1,
					"enablehscroll" : 0,
					"enablevscroll" : 0,
					"hint" : "RC-curve AHD envelope",
					"id" : "obj-19",
					"lockeddragscroll" : 0,
					"maxclass" : "bpatcher",
					"numinlets" : 2,
					"numoutlets" : 2,
					"offset" : [ 0.0, 0.0 ],
					"outlettype" : [ "signal", "signal" ],
					"patcher" : 					{
						"fileversion" : 1,
						"appversion" : 						{
							"major" : 8,
							"minor" : 0,
							"revision" : 0,
							"architecture" : "x64",
							"modernui" : 1
						}
,
						"classnamespace" : "box",
						"rect" : [ 372.0, 268.0, 668.0, 637.0 ],
						"bglocked" : 0,
						"openinpresentation" : 1,
						"default_fontsize" : 12.0,
						"default_fontface" : 0,
						"default_fontname" : "Arial",
						"gridonopen" : 1,
						"gridsize" : [ 15.0, 15.0 ],
						"gridsnaponopen" : 1,
						"objectsnaponopen" : 1,
						"statusbarvisible" : 1,
						"toolbarvisible" : 1,
						"lefttoolbarpinned" : 0,
						"toptoolbarpinned" : 0,
						"righttoolbarpinned" : 0,
						"bottomtoolbarpinned" : 0,
						"toolbars_unpinned_last_save" : 0,
						"tallnewobj" : 0,
						"boxanimatetime" : 200,
						"enablehscroll" : 1,
						"enablevscroll" : 1,
						"devicewidth" : 0.0,
						"description" : "",
						"digest" : "",
						"tags" : "",
						"style" : "",
						"subpatcher_template" : "",
						"boxes" : [ 							{
								"box" : 								{
									"id" : "obj-7",
									"maxclass" : "comment",
									"numinlets" : 1,
									"numoutlets" : 0,
									"patching_rect" : [ 41.173828, 61.996155000000002, 233.0, 18.0 ],
									"text" : "## Probability-based trigger processor ## "
								}

							}
, 							{
								"box" : 								{
									"fontname" : "Arial",
									"fontsize" : 12.0,
									"id" : "obj-6",
									"maxclass" : "newobj",
									"numinlets" : 2,
									"numoutlets" : 1,
									"outlettype" : [ "float" ],
									"patching_rect" : [ 675.0, 127.619324000000006, 42.0, 20.0 ],
									"text" : "* 0.01"
								}

							}
, 							{
								"box" : 								{
									"fontname" : "Arial",
									"fontsize" : 12.0,
									"id" : "obj-5",
									"maxclass" : "newobj",
									"numinlets" : 2,
									"numoutlets" : 1,
									"outlettype" : [ "float" ],
									"patching_rect" : [ 675.0, 154.742492999999996, 35.0, 20.0 ],
									"text" : "* 0.2"
								}

							}
, 							{
								"box" : 								{
									"fontname" : "Arial",
									"fontsize" : 12.0,
									"id" : "obj-4",
									"maxclass" : "newobj",
									"numinlets" : 2,
									"numoutlets" : 1,
									"outlettype" : [ "signal" ],
									"patching_rect" : [ 622.578613000000018, 215.295074, 36.0, 20.0 ],
									"text" : "*~ 0."
								}

							}
, 							{
								"box" : 								{
									"fontname" : "Arial",
									"fontsize" : 12.0,
									"id" : "obj-2",
									"maxclass" : "newobj",
									"numinlets" : 1,
									"numoutlets" : 1,
									"outlettype" : [ "signal" ],
									"patching_rect" : [ 736.745361000000003, 198.557648, 46.0, 20.0 ],
									"text" : "sig~ 1."
								}

							}
, 							{
								"box" : 								{
									"border" : 2.0,
									"id" : "obj-92",
									"linecolor" : [ 1.0, 1.0, 1.0, 0.56 ],
									"maxclass" : "live.line",
									"numinlets" : 1,
									"numoutlets" : 0,
									"patching_rect" : [ 22.685943999999999, 21.996155000000002, 5.0, 100.0 ],
									"presentation" : 1,
									"presentation_rect" : [ 44.760330200195312, 68.148643493652344, 20.702480316162109, 9.504137992858887 ]
								}

							}
, 							{
								"box" : 								{
									"activedialcolor" : [ 0.278431, 0.839216, 1.0, 1.0 ],
									"activefgdialcolor" : [ 0.65098, 0.666667, 0.662745, 1.0 ],
									"activeneedlecolor" : [ 1.0, 1.0, 1.0, 0.6 ],
									"appearance" : 1,
									"id" : "obj-86",
									"maxclass" : "live.dial",
									"numinlets" : 1,
									"numoutlets" : 2,
									"outlettype" : [ "", "float" ],
									"parameter_enable" : 1,
									"patching_rect" : [ 675.0, 86.526154000000005, 47.0, 36.0 ],
									"presentation" : 1,
									"presentation_rect" : [ 61.979324340820312, 43.607322692871094, 47.0, 36.0 ],
									"saved_attribute_attributes" : 									{
										"valueof" : 										{
											"parameter_shortname" : "Amt",
											"parameter_type" : 0,
											"parameter_unitstyle" : 5,
											"parameter_linknames" : 1,
											"parameter_longname" : "CV Amt",
											"parameter_mmax" : 100.0
										}

									}
,
									"textcolor" : [ 1.0, 1.0, 1.0, 0.6 ],
									"varname" : "CV Amt"
								}

							}
, 							{
								"box" : 								{
									"fontname" : "Arial",
									"fontsize" : 12.0,
									"id" : "obj-60",
									"linecount" : 2,
									"maxclass" : "comment",
									"numinlets" : 1,
									"numoutlets" : 0,
									"patching_rect" : [ 623.0, 575.996155000000044, 161.0, 30.0 ],
									"text" : "Peter McCulloch, 2013\npeter.mcculloch@gmail.com"
								}

							}
, 							{
								"box" : 								{
									"fontname" : "Arial",
									"fontsize" : 12.0,
									"id" : "obj-58",
									"maxclass" : "comment",
									"numinlets" : 1,
									"numoutlets" : 0,
									"patching_rect" : [ 624.0, 381.996154999999987, 98.0, 18.0 ],
									"text" : "Scale to range..."
								}

							}
, 							{
								"box" : 								{
									"fontname" : "Arial",
									"fontsize" : 12.0,
									"id" : "obj-56",
									"maxclass" : "newobj",
									"numinlets" : 2,
									"numoutlets" : 1,
									"outlettype" : [ "signal" ],
									"patching_rect" : [ 582.078613000000018, 382.466124999999977, 32.5, 20.0 ],
									"text" : "*~ 5"
								}

							}
, 							{
								"box" : 								{
									"fontname" : "Arial",
									"fontsize" : 12.0,
									"id" : "obj-55",
									"maxclass" : "newobj",
									"numinlets" : 2,
									"numoutlets" : 2,
									"outlettype" : [ "signal", "signal" ],
									"patcher" : 									{
										"fileversion" : 1,
										"appversion" : 										{
											"major" : 8,
											"minor" : 0,
											"revision" : 0,
											"architecture" : "x64",
											"modernui" : 1
										}
,
										"classnamespace" : "box",
										"rect" : [ 34.0, 34.0, 640.0, 480.0 ],
										"bglocked" : 0,
										"openinpresentation" : 0,
										"default_fontsize" : 10.0,
										"default_fontface" : 0,
										"default_fontname" : "Ableton Sans Bold Regular",
										"gridonopen" : 1,
										"gridsize" : [ 15.0, 15.0 ],
										"gridsnaponopen" : 1,
										"objectsnaponopen" : 1,
										"statusbarvisible" : 2,
										"toolbarvisible" : 1,
										"lefttoolbarpinned" : 0,
										"toptoolbarpinned" : 0,
										"righttoolbarpinned" : 0,
										"bottomtoolbarpinned" : 0,
										"toolbars_unpinned_last_save" : 0,
										"tallnewobj" : 0,
										"boxanimatetime" : 200,
										"enablehscroll" : 1,
										"enablevscroll" : 1,
										"devicewidth" : 0.0,
										"description" : "",
										"digest" : "",
										"tags" : "",
										"style" : "",
										"subpatcher_template" : "",
										"boxes" : [ 											{
												"box" : 												{
													"fontname" : "Ableton Sans Bold Regular",
													"fontsize" : 10.0,
													"id" : "obj-8",
													"maxclass" : "comment",
													"numinlets" : 1,
													"numoutlets" : 0,
													"patching_rect" : [ 210.0, 346.20107999999999, 98.0, 18.0 ],
													"text" : "Gated output for A"
												}

											}
, 											{
												"box" : 												{
													"fontname" : "Arial",
													"fontsize" : 12.0,
													"id" : "obj-34",
													"maxclass" : "newobj",
													"numinlets" : 2,
													"numoutlets" : 1,
													"outlettype" : [ "signal" ],
													"patching_rect" : [ 320.0, 267.0, 43.0, 22.0 ],
													"text" : "==~ 0"
												}

											}
, 											{
												"box" : 												{
													"fontname" : "Ableton Sans Bold Regular",
													"fontsize" : 10.0,
													"id" : "obj-7",
													"maxclass" : "comment",
													"numinlets" : 1,
													"numoutlets" : 0,
													"patching_rect" : [ 354.0, 305.0, 64.0, 18.0 ],
													"text" : "Invert for B"
												}

											}
, 											{
												"box" : 												{
													"fontname" : "Arial",
													"fontsize" : 12.0,
													"id" : "obj-5",
													"maxclass" : "newobj",
													"numinlets" : 2,
													"numoutlets" : 1,
													"outlettype" : [ "signal" ],
													"patching_rect" : [ 276.0, 153.464661000000007, 57.0, 22.0 ],
													"text" : "sah~ 0.5"
												}

											}
, 											{
												"box" : 												{
													"fontname" : "Ableton Sans Bold Regular",
													"fontsize" : 10.0,
													"id" : "obj-4",
													"maxclass" : "comment",
													"numinlets" : 1,
													"numoutlets" : 0,
													"patching_rect" : [ 53.0, 207.171082000000013, 125.0, 18.0 ],
													"text" : "Test only on rising edge"
												}

											}
, 											{
												"box" : 												{
													"fontname" : "Ableton Sans Bold Regular",
													"fontsize" : 10.0,
													"id" : "obj-3",
													"linecount" : 2,
													"maxclass" : "comment",
													"numinlets" : 1,
													"numoutlets" : 0,
													"patching_rect" : [ 84.0, 153.464661000000007, 101.0, 29.0 ],
													"text" : "Grab values on rising edge"
												}

											}
, 											{
												"box" : 												{
													"fontname" : "Ableton Sans Bold Regular",
													"fontsize" : 10.0,
													"id" : "obj-2",
													"maxclass" : "comment",
													"numinlets" : 1,
													"numoutlets" : 0,
													"patching_rect" : [ 161.0, 81.0, 73.0, 18.0 ],
													"text" : "Randomness"
												}

											}
, 											{
												"box" : 												{
													"fontname" : "Arial",
													"fontsize" : 12.0,
													"id" : "obj-38",
													"maxclass" : "newobj",
													"numinlets" : 2,
													"numoutlets" : 1,
													"outlettype" : [ "signal" ],
													"patching_rect" : [ 185.0, 301.70107999999999, 74.0, 22.0 ],
													"text" : "gate~"
												}

											}
, 											{
												"box" : 												{
													"fontname" : "Arial",
													"fontsize" : 12.0,
													"id" : "obj-22",
													"maxclass" : "newobj",
													"numinlets" : 2,
													"numoutlets" : 1,
													"outlettype" : [ "signal" ],
													"patching_rect" : [ 240.0, 267.0, 32.5, 22.0 ],
													"text" : "*~ 5"
												}

											}
, 											{
												"box" : 												{
													"fontname" : "Arial",
													"fontsize" : 12.0,
													"id" : "obj-21",
													"maxclass" : "newobj",
													"numinlets" : 2,
													"numoutlets" : 1,
													"outlettype" : [ "signal" ],
													"patching_rect" : [ 185.0, 207.171082000000013, 32.5, 22.0 ],
													"text" : ">=~"
												}

											}
, 											{
												"box" : 												{
													"fontname" : "Arial",
													"fontsize" : 12.0,
													"id" : "obj-18",
													"maxclass" : "newobj",
													"numinlets" : 1,
													"numoutlets" : 1,
													"outlettype" : [ "signal" ],
													"patching_rect" : [ 185.0, 105.0, 46.0, 22.0 ],
													"text" : "noise~"
												}

											}
, 											{
												"box" : 												{
													"fontname" : "Arial",
													"fontsize" : 12.0,
													"id" : "obj-17",
													"maxclass" : "newobj",
													"numinlets" : 2,
													"numoutlets" : 1,
													"outlettype" : [ "signal" ],
													"patching_rect" : [ 185.0, 153.464661000000007, 57.0, 22.0 ],
													"text" : "sah~ 0.5"
												}

											}
, 											{
												"box" : 												{
													"comment" : "",
													"id" : "obj-51",
													"index" : 2,
													"maxclass" : "inlet",
													"numinlets" : 0,
													"numoutlets" : 1,
													"outlettype" : [ "signal" ],
													"patching_rect" : [ 276.0, 122.0, 25.0, 25.0 ]
												}

											}
, 											{
												"box" : 												{
													"comment" : "",
													"id" : "obj-52",
													"index" : 1,
													"maxclass" : "inlet",
													"numinlets" : 0,
													"numoutlets" : 1,
													"outlettype" : [ "signal" ],
													"patching_rect" : [ 240.0, 48.0, 25.0, 25.0 ]
												}

											}
, 											{
												"box" : 												{
													"comment" : "",
													"id" : "obj-53",
													"index" : 2,
													"maxclass" : "outlet",
													"numinlets" : 1,
													"numoutlets" : 0,
													"patching_rect" : [ 320.0, 301.70107999999999, 25.0, 25.0 ]
												}

											}
, 											{
												"box" : 												{
													"comment" : "",
													"id" : "obj-54",
													"index" : 1,
													"maxclass" : "outlet",
													"numinlets" : 1,
													"numoutlets" : 0,
													"patching_rect" : [ 185.0, 342.70107999999999, 25.0, 25.0 ]
												}

											}
 ],
										"lines" : [ 											{
												"patchline" : 												{
													"destination" : [ "obj-21", 0 ],
													"source" : [ "obj-17", 0 ]
												}

											}
, 											{
												"patchline" : 												{
													"destination" : [ "obj-17", 0 ],
													"source" : [ "obj-18", 0 ]
												}

											}
, 											{
												"patchline" : 												{
													"destination" : [ "obj-34", 0 ],
													"order" : 0,
													"source" : [ "obj-21", 0 ]
												}

											}
, 											{
												"patchline" : 												{
													"destination" : [ "obj-38", 0 ],
													"order" : 1,
													"source" : [ "obj-21", 0 ]
												}

											}
, 											{
												"patchline" : 												{
													"destination" : [ "obj-38", 1 ],
													"source" : [ "obj-22", 0 ]
												}

											}
, 											{
												"patchline" : 												{
													"destination" : [ "obj-53", 0 ],
													"source" : [ "obj-34", 0 ]
												}

											}
, 											{
												"patchline" : 												{
													"destination" : [ "obj-54", 0 ],
													"source" : [ "obj-38", 0 ]
												}

											}
, 											{
												"patchline" : 												{
													"destination" : [ "obj-21", 1 ],
													"source" : [ "obj-5", 0 ]
												}

											}
, 											{
												"patchline" : 												{
													"destination" : [ "obj-5", 0 ],
													"source" : [ "obj-51", 0 ]
												}

											}
, 											{
												"patchline" : 												{
													"color" : [ 0.371916, 0.993344, 0.680093, 0.9 ],
													"destination" : [ "obj-17", 1 ],
													"order" : 2,
													"source" : [ "obj-52", 0 ]
												}

											}
, 											{
												"patchline" : 												{
													"color" : [ 0.371916, 0.993344, 0.680093, 0.9 ],
													"destination" : [ "obj-22", 0 ],
													"order" : 1,
													"source" : [ "obj-52", 0 ]
												}

											}
, 											{
												"patchline" : 												{
													"color" : [ 0.371916, 0.993344, 0.680093, 0.9 ],
													"destination" : [ "obj-5", 1 ],
													"order" : 0,
													"source" : [ "obj-52", 0 ]
												}

											}
 ],
										"bgfillcolor_type" : "gradient",
										"bgfillcolor_color1" : [ 0.435294, 0.462745, 0.498039, 1.0 ],
										"bgfillcolor_color2" : [ 0.290196, 0.309804, 0.301961, 1.0 ],
										"bgfillcolor_color" : [ 0.290196, 0.309804, 0.301961, 1.0 ]
									}
,
									"patching_rect" : [ 363.245299999999986, 333.295074, 62.0, 20.0 ],
									"saved_object_attributes" : 									{
										"description" : "",
										"digest" : "",
										"fontname" : "Ableton Sans Bold Regular",
										"fontsize" : 10.0,
										"globalpatchername" : "",
										"tags" : ""
									}
,
									"text" : "p Percent"
								}

							}
, 							{
								"box" : 								{
									"fontname" : "Arial",
									"fontsize" : 12.0,
									"id" : "obj-49",
									"maxclass" : "comment",
									"numinlets" : 1,
									"numoutlets" : 0,
									"patching_rect" : [ 256.0, 562.996155000000044, 57.0, 18.0 ],
									"text" : "Output A"
								}

							}
, 							{
								"box" : 								{
									"fontname" : "Arial",
									"fontsize" : 12.0,
									"id" : "obj-47",
									"linecount" : 3,
									"maxclass" : "comment",
									"numinlets" : 1,
									"numoutlets" : 0,
									"patching_rect" : [ 246.0, 215.295074, 60.0, 42.0 ],
									"text" : "Display incoming triggers"
								}

							}
, 							{
								"box" : 								{
									"fontname" : "Arial",
									"fontsize" : 12.0,
									"id" : "obj-44",
									"maxclass" : "newobj",
									"numinlets" : 1,
									"numoutlets" : 1,
									"outlettype" : [ "signal" ],
									"patcher" : 									{
										"fileversion" : 1,
										"appversion" : 										{
											"major" : 8,
											"minor" : 0,
											"revision" : 0,
											"architecture" : "x64",
											"modernui" : 1
										}
,
										"classnamespace" : "box",
										"rect" : [ 0.0, 0.0, 640.0, 480.0 ],
										"bglocked" : 0,
										"openinpresentation" : 0,
										"default_fontsize" : 10.0,
										"default_fontface" : 0,
										"default_fontname" : "Ableton Sans Bold Regular",
										"gridonopen" : 1,
										"gridsize" : [ 15.0, 15.0 ],
										"gridsnaponopen" : 1,
										"objectsnaponopen" : 1,
										"statusbarvisible" : 2,
										"toolbarvisible" : 1,
										"lefttoolbarpinned" : 0,
										"toptoolbarpinned" : 0,
										"righttoolbarpinned" : 0,
										"bottomtoolbarpinned" : 0,
										"toolbars_unpinned_last_save" : 0,
										"tallnewobj" : 0,
										"boxanimatetime" : 200,
										"enablehscroll" : 1,
										"enablevscroll" : 1,
										"devicewidth" : 0.0,
										"description" : "",
										"digest" : "",
										"tags" : "",
										"style" : "",
										"subpatcher_template" : "",
										"boxes" : [ 											{
												"box" : 												{
													"fontname" : "Arial",
													"fontsize" : 12.0,
													"id" : "obj-2",
													"maxclass" : "newobj",
													"numinlets" : 1,
													"numoutlets" : 1,
													"outlettype" : [ "signal" ],
													"patching_rect" : [ 50.0, 128.0, 61.0, 20.0 ],
													"text" : "tapout~ 0"
												}

											}
, 											{
												"box" : 												{
													"fontname" : "Arial",
													"fontsize" : 12.0,
													"id" : "obj-40",
													"maxclass" : "newobj",
													"numinlets" : 1,
													"numoutlets" : 1,
													"outlettype" : [ "tapconnect" ],
													"patching_rect" : [ 50.0, 100.0, 54.0, 20.0 ],
													"text" : "tapin~ 0"
												}

											}
, 											{
												"box" : 												{
													"comment" : "",
													"id" : "obj-41",
													"index" : 1,
													"maxclass" : "inlet",
													"numinlets" : 0,
													"numoutlets" : 1,
													"outlettype" : [ "" ],
													"patching_rect" : [ 50.0, 40.0, 25.0, 25.0 ],
													"presentation" : 1,
													"presentation_rect" : [ 883.57861328125, 185.0, 25.0, 25.0 ]
												}

											}
, 											{
												"box" : 												{
													"comment" : "",
													"id" : "obj-42",
													"index" : 1,
													"maxclass" : "outlet",
													"numinlets" : 1,
													"numoutlets" : 0,
													"patching_rect" : [ 50.0, 208.0, 25.0, 25.0 ],
													"presentation" : 1,
													"presentation_rect" : [ 883.57861328125, 353.0, 25.0, 25.0 ]
												}

											}
 ],
										"lines" : [ 											{
												"patchline" : 												{
													"destination" : [ "obj-42", 0 ],
													"source" : [ "obj-2", 0 ]
												}

											}
, 											{
												"patchline" : 												{
													"destination" : [ "obj-2", 0 ],
													"source" : [ "obj-40", 0 ]
												}

											}
, 											{
												"patchline" : 												{
													"destination" : [ "obj-40", 0 ],
													"source" : [ "obj-41", 0 ]
												}

											}
 ],
										"bgfillcolor_type" : "gradient",
										"bgfillcolor_color1" : [ 0.435294, 0.462745, 0.498039, 1.0 ],
										"bgfillcolor_color2" : [ 0.290196, 0.309804, 0.301961, 1.0 ],
										"bgfillcolor_color" : [ 0.290196, 0.309804, 0.301961, 1.0 ]
									}
,
									"patching_rect" : [ 432.745299999999986, 61.996155000000002, 92.0, 20.0 ],
									"saved_object_attributes" : 									{
										"description" : "",
										"digest" : "",
										"fontname" : "Ableton Sans Bold Regular",
										"fontsize" : 10.0,
										"globalpatchername" : "",
										"tags" : ""
									}
,
									"text" : "p BufferedInput"
								}

							}
, 							{
								"box" : 								{
									"fontname" : "Arial",
									"fontsize" : 12.0,
									"id" : "obj-43",
									"maxclass" : "newobj",
									"numinlets" : 1,
									"numoutlets" : 1,
									"outlettype" : [ "signal" ],
									"patcher" : 									{
										"fileversion" : 1,
										"appversion" : 										{
											"major" : 8,
											"minor" : 0,
											"revision" : 0,
											"architecture" : "x64",
											"modernui" : 1
										}
,
										"classnamespace" : "box",
										"rect" : [ 34.0, 34.0, 640.0, 480.0 ],
										"bglocked" : 0,
										"openinpresentation" : 0,
										"default_fontsize" : 10.0,
										"default_fontface" : 0,
										"default_fontname" : "Ableton Sans Bold Regular",
										"gridonopen" : 1,
										"gridsize" : [ 15.0, 15.0 ],
										"gridsnaponopen" : 1,
										"objectsnaponopen" : 1,
										"statusbarvisible" : 2,
										"toolbarvisible" : 1,
										"lefttoolbarpinned" : 0,
										"toptoolbarpinned" : 0,
										"righttoolbarpinned" : 0,
										"bottomtoolbarpinned" : 0,
										"toolbars_unpinned_last_save" : 0,
										"tallnewobj" : 0,
										"boxanimatetime" : 200,
										"enablehscroll" : 1,
										"enablevscroll" : 1,
										"devicewidth" : 0.0,
										"description" : "",
										"digest" : "",
										"tags" : "",
										"style" : "",
										"subpatcher_template" : "",
										"boxes" : [ 											{
												"box" : 												{
													"fontname" : "Arial",
													"fontsize" : 12.0,
													"id" : "obj-2",
													"maxclass" : "newobj",
													"numinlets" : 1,
													"numoutlets" : 1,
													"outlettype" : [ "signal" ],
													"patching_rect" : [ 50.0, 128.0, 61.0, 22.0 ],
													"text" : "tapout~ 0"
												}

											}
, 											{
												"box" : 												{
													"fontname" : "Arial",
													"fontsize" : 12.0,
													"id" : "obj-40",
													"maxclass" : "newobj",
													"numinlets" : 1,
													"numoutlets" : 1,
													"outlettype" : [ "tapconnect" ],
													"patching_rect" : [ 50.0, 100.0, 54.0, 22.0 ],
													"text" : "tapin~ 0"
												}

											}
, 											{
												"box" : 												{
													"comment" : "",
													"id" : "obj-41",
													"index" : 1,
													"maxclass" : "inlet",
													"numinlets" : 0,
													"numoutlets" : 1,
													"outlettype" : [ "signal" ],
													"patching_rect" : [ 50.0, 40.0, 25.0, 25.0 ],
													"presentation" : 1,
													"presentation_rect" : [ 883.57861328125, 185.0, 25.0, 25.0 ]
												}

											}
, 											{
												"box" : 												{
													"comment" : "",
													"id" : "obj-42",
													"index" : 1,
													"maxclass" : "outlet",
													"numinlets" : 1,
													"numoutlets" : 0,
													"patching_rect" : [ 50.0, 208.0, 25.0, 25.0 ],
													"presentation" : 1,
													"presentation_rect" : [ 883.57861328125, 353.0, 25.0, 25.0 ]
												}

											}
 ],
										"lines" : [ 											{
												"patchline" : 												{
													"destination" : [ "obj-42", 0 ],
													"source" : [ "obj-2", 0 ]
												}

											}
, 											{
												"patchline" : 												{
													"destination" : [ "obj-2", 0 ],
													"source" : [ "obj-40", 0 ]
												}

											}
, 											{
												"patchline" : 												{
													"destination" : [ "obj-40", 0 ],
													"source" : [ "obj-41", 0 ]
												}

											}
 ],
										"bgfillcolor_type" : "gradient",
										"bgfillcolor_color1" : [ 0.435294, 0.462745, 0.498039, 1.0 ],
										"bgfillcolor_color2" : [ 0.290196, 0.309804, 0.301961, 1.0 ],
										"bgfillcolor_color" : [ 0.290196, 0.309804, 0.301961, 1.0 ]
									}
,
									"patching_rect" : [ 622.578613000000018, 286.702576000000022, 92.0, 20.0 ],
									"saved_object_attributes" : 									{
										"description" : "",
										"digest" : "",
										"fontname" : "Ableton Sans Bold Regular",
										"fontsize" : 10.0,
										"globalpatchername" : "",
										"tags" : ""
									}
,
									"text" : "p BufferedInput"
								}

							}
, 							{
								"box" : 								{
									"fontname" : "Arial",
									"fontsize" : 12.0,
									"id" : "obj-37",
									"maxclass" : "newobj",
									"numinlets" : 2,
									"numoutlets" : 1,
									"outlettype" : [ "signal" ],
									"patching_rect" : [ 534.078613000000018, 409.996154999999987, 67.0, 20.0 ],
									"text" : "gate~"
								}

							}
, 							{
								"box" : 								{
									"fontname" : "Arial",
									"fontsize" : 12.0,
									"id" : "obj-36",
									"maxclass" : "newobj",
									"numinlets" : 6,
									"numoutlets" : 1,
									"outlettype" : [ "" ],
									"patching_rect" : [ 736.745361000000003, 172.76357999999999, 109.0, 20.0 ],
									"text" : "scale 0. 100. -1. 1."
								}

							}
, 							{
								"box" : 								{
									"fontname" : "Arial",
									"fontsize" : 12.0,
									"id" : "obj-35",
									"maxclass" : "newobj",
									"numinlets" : 2,
									"numoutlets" : 1,
									"outlettype" : [ "int" ],
									"patching_rect" : [ 492.078613000000018, 447.996154999999987, 32.5, 20.0 ],
									"text" : "!- 1"
								}

							}
, 							{
								"box" : 								{
									"fontname" : "Arial",
									"fontsize" : 12.0,
									"id" : "obj-33",
									"maxclass" : "newobj",
									"numinlets" : 2,
									"numoutlets" : 1,
									"outlettype" : [ "signal" ],
									"patching_rect" : [ 492.078613000000018, 477.880065999999999, 61.0, 20.0 ],
									"text" : "gate~ 1 1"
								}

							}
, 							{
								"box" : 								{
									"fontname" : "Ableton Sans Bold Regular",
									"fontsize" : 9.0,
									"id" : "obj-31",
									"maxclass" : "comment",
									"numinlets" : 1,
									"numoutlets" : 0,
									"patching_rect" : [ 432.745299999999986, 527.880066000000056, 56.0, 17.0 ],
									"presentation" : 1,
									"presentation_rect" : [ 98.0, 97.0, 56.0, 17.0 ],
									"text" : "Trigger (B)",
									"textcolor" : [ 1.0, 1.0, 1.0, 1.0 ],
									"textjustification" : 2
								}

							}
, 							{
								"box" : 								{
									"activebgcolor" : [ 0.6, 0.6, 0.6, 0.06 ],
									"activebgoncolor" : [ 0.278431, 0.839216, 1.0, 1.0 ],
									"annotation" : "Sync",
									"bgcolor" : [ 0.0, 146.0, 255.0, 0.0 ],
									"bordercolor" : [ 1.0, 1.0, 1.0, 0.2 ],
									"focusbordercolor" : [ 1.0, 1.0, 1.0, 0.2 ],
									"id" : "obj-29",
									"ignoreclick" : 1,
									"maxclass" : "live.button",
									"numinlets" : 1,
									"numoutlets" : 1,
									"outlettype" : [ "" ],
									"parameter_enable" : 1,
									"patching_rect" : [ 530.907104000000004, 560.612610000000018, 23.345901000000001, 25.0 ],
									"presentation" : 1,
									"presentation_rect" : [ 138.9071044921875, 99.616455078125, 10.0, 10.0 ],
									"saved_attribute_attributes" : 									{
										"valueof" : 										{
											"parameter_initial" : [ 0 ],
											"parameter_speedlim" : 10.0,
											"parameter_shortname" : "trigboutled",
											"parameter_enum" : [ "off", "on" ],
											"parameter_type" : 0,
											"parameter_unitstyle" : 0,
											"parameter_linknames" : 1,
											"parameter_exponent" : 2.0,
											"parameter_longname" : "trigboutled",
											"parameter_initial_enable" : 1,
											"parameter_invisible" : 2,
											"parameter_mmax" : 1.0
										}

									}
,
									"varname" : "trigboutled"
								}

							}
, 							{
								"box" : 								{
									"fontname" : "Arial",
									"fontsize" : 12.0,
									"id" : "obj-30",
									"maxclass" : "newobj",
									"numinlets" : 1,
									"numoutlets" : 2,
									"outlettype" : [ "bang", "bang" ],
									"patching_rect" : [ 530.907104000000004, 525.380066000000056, 44.0, 20.0 ],
									"text" : "edge~"
								}

							}
, 							{
								"box" : 								{
									"comment" : "Trigger (B)",
									"id" : "obj-26",
									"index" : 2,
									"maxclass" : "outlet",
									"numinlets" : 1,
									"numoutlets" : 0,
									"patching_rect" : [ 492.078613000000018, 525.380066000000056, 25.0, 25.0 ]
								}

							}
, 							{
								"box" : 								{
									"activebgcolor" : [ 0.6, 0.6, 0.6, 0.06 ],
									"activebgoncolor" : [ 0.278431, 0.839216, 1.0, 1.0 ],
									"annotation" : "Sync",
									"bgcolor" : [ 0.0, 146.0, 255.0, 0.0 ],
									"bordercolor" : [ 1.0, 1.0, 1.0, 0.2 ],
									"focusbordercolor" : [ 1.0, 1.0, 1.0, 0.2 ],
									"id" : "obj-189",
									"ignoreclick" : 1,
									"maxclass" : "live.button",
									"numinlets" : 1,
									"numoutlets" : 1,
									"outlettype" : [ "" ],
									"parameter_enable" : 1,
									"patching_rect" : [ 317.318909000000019, 246.057648, 23.345901000000001, 25.0 ],
									"presentation" : 1,
									"presentation_rect" : [ 39.5, 3.0, 10.0, 10.0 ],
									"saved_attribute_attributes" : 									{
										"valueof" : 										{
											"parameter_initial" : [ 0 ],
											"parameter_speedlim" : 10.0,
											"parameter_shortname" : "triginled",
											"parameter_enum" : [ "off", "on" ],
											"parameter_type" : 0,
											"parameter_unitstyle" : 0,
											"parameter_linknames" : 1,
											"parameter_exponent" : 2.0,
											"parameter_longname" : "triginled",
											"parameter_initial_enable" : 1,
											"parameter_invisible" : 2,
											"parameter_mmax" : 1.0
										}

									}
,
									"varname" : "triginled"
								}

							}
, 							{
								"box" : 								{
									"activebgcolor" : [ 0.6, 0.6, 0.6, 0.06 ],
									"activebgoncolor" : [ 0.278431, 0.839216, 1.0, 1.0 ],
									"annotation" : "Sync",
									"bgcolor" : [ 0.0, 146.0, 255.0, 0.0 ],
									"bordercolor" : [ 1.0, 1.0, 1.0, 0.2 ],
									"focusbordercolor" : [ 1.0, 1.0, 1.0, 0.2 ],
									"id" : "obj-23",
									"ignoreclick" : 1,
									"maxclass" : "live.button",
									"numinlets" : 1,
									"numoutlets" : 1,
									"outlettype" : [ "" ],
									"parameter_enable" : 1,
									"patching_rect" : [ 337.907104000000004, 563.112610000000018, 23.345901000000001, 25.0 ],
									"presentation" : 1,
									"presentation_rect" : [ 52.9071044921875, 100.0, 10.0, 10.0 ],
									"saved_attribute_attributes" : 									{
										"valueof" : 										{
											"parameter_initial" : [ 0 ],
											"parameter_speedlim" : 10.0,
											"parameter_shortname" : "trigaoutled",
											"parameter_enum" : [ "off", "on" ],
											"parameter_type" : 0,
											"parameter_unitstyle" : 0,
											"parameter_linknames" : 1,
											"parameter_exponent" : 2.0,
											"parameter_longname" : "trigaoutled",
											"parameter_initial_enable" : 1,
											"parameter_invisible" : 2,
											"parameter_mmax" : 1.0
										}

									}
,
									"varname" : "trigaoutled"
								}

							}
, 							{
								"box" : 								{
									"fontname" : "Arial",
									"fontsize" : 12.0,
									"id" : "obj-25",
									"maxclass" : "newobj",
									"numinlets" : 1,
									"numoutlets" : 2,
									"outlettype" : [ "bang", "bang" ],
									"patching_rect" : [ 337.907104000000004, 527.880066000000056, 44.0, 20.0 ],
									"text" : "edge~"
								}

							}
, 							{
								"box" : 								{
									"fontname" : "Ableton Sans Bold Regular",
									"fontsize" : 9.0,
									"id" : "obj-10",
									"maxclass" : "comment",
									"numinlets" : 1,
									"numoutlets" : 0,
									"patching_rect" : [ 576.578613000000018, 138.619324000000006, 76.0, 17.0 ],
									"presentation" : 1,
									"presentation_rect" : [ 78.0, -1.376850008964539, 76.0, 17.0 ],
									"text" : "Percent (+/-5V)",
									"textcolor" : [ 1.0, 1.0, 1.0, 1.0 ],
									"textjustification" : 2
								}

							}
, 							{
								"box" : 								{
									"comment" : "Attack: 0-5V = 0.1,1,10,100,1000, 10000 ms",
									"id" : "obj-27",
									"index" : 2,
									"maxclass" : "inlet",
									"numinlets" : 0,
									"numoutlets" : 1,
									"outlettype" : [ "" ],
									"patching_rect" : [ 622.578613000000018, 172.76357999999999, 25.0, 25.0 ]
								}

							}
, 							{
								"box" : 								{
									"fontname" : "Arial",
									"fontsize" : 12.0,
									"id" : "obj-11",
									"maxclass" : "newobj",
									"numinlets" : 2,
									"numoutlets" : 1,
									"outlettype" : [ "int" ],
									"patching_rect" : [ 293.745299999999986, 345.466156000000012, 32.5, 20.0 ],
									"text" : "+ 1"
								}

							}
, 							{
								"box" : 								{
									"fontname" : "Arial",
									"fontsize" : 12.0,
									"id" : "obj-12",
									"maxclass" : "newobj",
									"numinlets" : 3,
									"numoutlets" : 1,
									"outlettype" : [ "signal" ],
									"patching_rect" : [ 293.745299999999986, 477.880065999999999, 158.0, 20.0 ],
									"text" : "selector~ 2 1"
								}

							}
, 							{
								"box" : 								{
									"activebgcolor" : [ 0.572549, 0.615686, 0.658824, 0.0 ],
									"activebgoncolor" : [ 0.278431, 0.839216, 1.0, 1.0 ],
									"activetextcolor" : [ 1.0, 1.0, 1.0, 0.57 ],
									"activetextoncolor" : [ 0.0, 0.019608, 0.078431, 1.0 ],
									"automation" : "off",
									"automationon" : "on",
									"bgcolor" : [ 0.101961, 0.101961, 0.101961, 0.78 ],
									"bordercolor" : [ 0.0, 0.019608, 0.078431, 0.37 ],
									"id" : "obj-20",
									"maxclass" : "live.text",
									"numinlets" : 1,
									"numoutlets" : 2,
									"outlettype" : [ "", "" ],
									"parameter_enable" : 1,
									"patching_rect" : [ 293.745299999999986, 286.702576000000022, 40.0, 20.0 ],
									"presentation" : 1,
									"presentation_rect" : [ 97.0, 19.0, 52.0, 14.764644622802734 ],
									"saved_attribute_attributes" : 									{
										"valueof" : 										{
											"parameter_initial" : [ 0.0 ],
											"parameter_shortname" : "bypass",
											"parameter_enum" : [ "off", "on" ],
											"parameter_defer" : 1,
											"parameter_type" : 2,
											"parameter_longname" : "bypass",
											"parameter_initial_enable" : 1,
											"parameter_mmax" : 1.0
										}

									}
,
									"text" : "bypass",
									"textcolor" : [ 1.0, 1.0, 1.0, 1.0 ],
									"texton" : "bypass",
									"varname" : "mute"
								}

							}
, 							{
								"box" : 								{
									"comment" : "Trigger (A)",
									"id" : "obj-16",
									"index" : 1,
									"maxclass" : "outlet",
									"numinlets" : 1,
									"numoutlets" : 0,
									"patching_rect" : [ 293.745299999999986, 525.380066000000056, 25.0, 25.0 ]
								}

							}
, 							{
								"box" : 								{
									"comment" : "Trigger input",
									"id" : "obj-3",
									"index" : 1,
									"maxclass" : "inlet",
									"numinlets" : 0,
									"numoutlets" : 1,
									"outlettype" : [ "" ],
									"patching_rect" : [ 432.745299999999986, 22.99231, 25.0, 25.0 ]
								}

							}
, 							{
								"box" : 								{
									"fontname" : "Arial",
									"fontsize" : 12.0,
									"id" : "obj-1",
									"maxclass" : "newobj",
									"numinlets" : 1,
									"numoutlets" : 2,
									"outlettype" : [ "bang", "bang" ],
									"patching_rect" : [ 317.318909000000019, 215.295074, 44.0, 20.0 ],
									"text" : "edge~"
								}

							}
, 							{
								"box" : 								{
									"fontname" : "Arial",
									"fontsize" : 13.0,
									"id" : "obj-24",
									"maxclass" : "newobj",
									"numinlets" : 2,
									"numoutlets" : 1,
									"outlettype" : [ "signal" ],
									"patching_rect" : [ 363.245299999999986, 187.76357999999999, 47.0, 21.0 ],
									"text" : ">~ 2.5"
								}

							}
, 							{
								"box" : 								{
									"activedialcolor" : [ 0.278431, 0.839216, 1.0, 1.0 ],
									"activefgdialcolor" : [ 0.65098, 0.666667, 0.662745, 1.0 ],
									"activeneedlecolor" : [ 1.0, 1.0, 1.0, 0.7 ],
									"focusbordercolor" : [ 1.0, 1.0, 1.0, 1.0 ],
									"id" : "obj-45",
									"maxclass" : "live.dial",
									"numinlets" : 1,
									"numoutlets" : 2,
									"outlettype" : [ "", "float" ],
									"parameter_enable" : 1,
									"patching_rect" : [ 736.745361000000003, 112.763580000000005, 44.0, 48.0 ],
									"presentation" : 1,
									"presentation_rect" : [ 4.0, 42.292228698730469, 56.0, 48.0 ],
									"saved_attribute_attributes" : 									{
										"valueof" : 										{
											"parameter_initial" : [ 1.0 ],
											"parameter_shortname" : "Percent B",
											"parameter_type" : 0,
											"parameter_unitstyle" : 5,
											"parameter_linknames" : 1,
											"parameter_longname" : "PercentB",
											"parameter_initial_enable" : 1,
											"parameter_mmax" : 100.0
										}

									}
,
									"textcolor" : [ 1.0, 1.0, 1.0, 0.7 ],
									"varname" : "PercentB"
								}

							}
, 							{
								"box" : 								{
									"fontname" : "Arial",
									"fontsize" : 12.0,
									"id" : "obj-9",
									"maxclass" : "newobj",
									"numinlets" : 1,
									"numoutlets" : 4,
									"outlettype" : [ "", "", "", "" ],
									"patching_rect" : [ 41.173828, 99.996155000000002, 59.5, 20.0 ],
									"restore" : 									{
										"CV Amt" : [ 0.0 ],
										"PercentB" : [ 1.0 ],
										"mute" : [ 0.0 ],
										"trigaoutled" : [ 0.0 ],
										"trigboutled" : [ 0.0 ],
										"triginled" : [ 0.0 ]
									}
,
									"text" : "autopattr",
									"varname" : "u605003864"
								}

							}
, 							{
								"box" : 								{
									"fontname" : "Ableton Sans Bold Regular",
									"fontsize" : 9.0,
									"id" : "obj-8",
									"maxclass" : "comment",
									"numinlets" : 1,
									"numoutlets" : 0,
									"patching_rect" : [ 232.673827999999986, 527.880066000000056, 56.0, 17.0 ],
									"presentation" : 1,
									"presentation_rect" : [ 2.0, 97.0, 56.0, 17.0 ],
									"text" : "Trigger (A)",
									"textcolor" : [ 1.0, 1.0, 1.0, 1.0 ]
								}

							}
, 							{
								"box" : 								{
									"fontname" : "Ableton Sans Bold Regular",
									"fontsize" : 9.0,
									"id" : "obj-19",
									"maxclass" : "comment",
									"numinlets" : 1,
									"numoutlets" : 0,
									"patching_rect" : [ 464.745299999999986, 26.99231, 41.0, 17.0 ],
									"presentation" : 1,
									"presentation_rect" : [ 2.0, -0.376850008964539, 41.0, 17.0 ],
									"text" : "Trigger",
									"textcolor" : [ 1.0, 1.0, 1.0, 1.0 ]
								}

							}
, 							{
								"box" : 								{
									"fontname" : "Ableton Sans Bold Regular",
									"fontsize" : 9.0,
									"id" : "obj-13",
									"maxclass" : "comment",
									"numinlets" : 1,
									"numoutlets" : 0,
									"patching_rect" : [ 41.173828, 35.767426, 91.0, 17.0 ],
									"presentation" : 1,
									"presentation_rect" : [ 2.0, 19.0, 91.0, 17.0 ],
									"text" : "PERCENT SWITCH",
									"textcolor" : [ 1.0, 1.0, 1.0, 1.0 ]
								}

							}
, 							{
								"box" : 								{
									"angle" : 0.0,
									"background" : 1,
									"bgcolor" : [ 0.137255, 0.145098, 0.160784, 0.65 ],
									"id" : "obj-130",
									"maxclass" : "panel",
									"mode" : 0,
									"numinlets" : 1,
									"numoutlets" : 0,
									"patching_rect" : [ 41.173828, 21.996155000000002, 37.0, 5.0 ],
									"presentation" : 1,
									"presentation_rect" : [ 0.0, 35.623149871826172, 283.0, 60.338157653808594 ],
									"proportion" : 0.39,
									"rounded" : 0
								}

							}
, 							{
								"box" : 								{
									"angle" : 0.0,
									"background" : 1,
									"bgcolor" : [ 0.367404, 0.389405, 0.430238, 1.0 ],
									"id" : "obj-131",
									"maxclass" : "panel",
									"mode" : 0,
									"numinlets" : 1,
									"numoutlets" : 0,
									"patching_rect" : [ 88.516068000000004, 21.996155000000002, 37.0, 5.0 ],
									"presentation" : 1,
									"presentation_rect" : [ 0.0, 15.623149871826172, 283.0, 80.338157653808594 ],
									"proportion" : 0.39,
									"rounded" : 0
								}

							}
, 							{
								"box" : 								{
									"angle" : 0.0,
									"background" : 1,
									"bgcolor" : [ 0.0, 0.0, 0.0, 1.0 ],
									"id" : "obj-135",
									"maxclass" : "panel",
									"mode" : 0,
									"numinlets" : 1,
									"numoutlets" : 0,
									"patching_rect" : [ 135.858306999999996, 21.996155000000002, 37.0, 5.0 ],
									"presentation" : 1,
									"presentation_rect" : [ 0.0, -1.376850008964539, 283.0, 133.0 ],
									"proportion" : 0.39,
									"rounded" : 0
								}

							}
 ],
						"lines" : [ 							{
								"patchline" : 								{
									"destination" : [ "obj-189", 0 ],
									"source" : [ "obj-1", 0 ]
								}

							}
, 							{
								"patchline" : 								{
									"destination" : [ "obj-12", 0 ],
									"source" : [ "obj-11", 0 ]
								}

							}
, 							{
								"patchline" : 								{
									"destination" : [ "obj-16", 0 ],
									"order" : 1,
									"source" : [ "obj-12", 0 ]
								}

							}
, 							{
								"patchline" : 								{
									"destination" : [ "obj-25", 0 ],
									"order" : 0,
									"source" : [ "obj-12", 0 ]
								}

							}
, 							{
								"patchline" : 								{
									"destination" : [ "obj-43", 0 ],
									"source" : [ "obj-2", 0 ]
								}

							}
, 							{
								"patchline" : 								{
									"destination" : [ "obj-11", 0 ],
									"order" : 1,
									"source" : [ "obj-20", 0 ]
								}

							}
, 							{
								"patchline" : 								{
									"destination" : [ "obj-35", 0 ],
									"order" : 0,
									"source" : [ "obj-20", 0 ]
								}

							}
, 							{
								"patchline" : 								{
									"destination" : [ "obj-1", 0 ],
									"order" : 2,
									"source" : [ "obj-24", 0 ]
								}

							}
, 							{
								"patchline" : 								{
									"destination" : [ "obj-55", 0 ],
									"order" : 1,
									"source" : [ "obj-24", 0 ]
								}

							}
, 							{
								"patchline" : 								{
									"destination" : [ "obj-56", 0 ],
									"midpoints" : [ 372.745299999999986, 225.879883000000007, 591.578613000000018, 225.879883000000007 ],
									"order" : 0,
									"source" : [ "obj-24", 0 ]
								}

							}
, 							{
								"patchline" : 								{
									"destination" : [ "obj-23", 0 ],
									"source" : [ "obj-25", 0 ]
								}

							}
, 							{
								"patchline" : 								{
									"destination" : [ "obj-4", 0 ],
									"source" : [ "obj-27", 0 ]
								}

							}
, 							{
								"patchline" : 								{
									"destination" : [ "obj-44", 0 ],
									"source" : [ "obj-3", 0 ]
								}

							}
, 							{
								"patchline" : 								{
									"destination" : [ "obj-29", 0 ],
									"source" : [ "obj-30", 0 ]
								}

							}
, 							{
								"patchline" : 								{
									"destination" : [ "obj-26", 0 ],
									"order" : 1,
									"source" : [ "obj-33", 0 ]
								}

							}
, 							{
								"patchline" : 								{
									"destination" : [ "obj-30", 0 ],
									"order" : 0,
									"source" : [ "obj-33", 0 ]
								}

							}
, 							{
								"patchline" : 								{
									"destination" : [ "obj-33", 0 ],
									"source" : [ "obj-35", 0 ]
								}

							}
, 							{
								"patchline" : 								{
									"destination" : [ "obj-2", 0 ],
									"source" : [ "obj-36", 0 ]
								}

							}
, 							{
								"patchline" : 								{
									"destination" : [ "obj-33", 1 ],
									"source" : [ "obj-37", 0 ]
								}

							}
, 							{
								"patchline" : 								{
									"destination" : [ "obj-43", 0 ],
									"source" : [ "obj-4", 0 ]
								}

							}
, 							{
								"patchline" : 								{
									"color" : [ 0.331189, 0.768395, 0.550592, 0.9 ],
									"destination" : [ "obj-55", 1 ],
									"source" : [ "obj-43", 0 ]
								}

							}
, 							{
								"patchline" : 								{
									"destination" : [ "obj-12", 2 ],
									"order" : 0,
									"source" : [ "obj-44", 0 ]
								}

							}
, 							{
								"patchline" : 								{
									"destination" : [ "obj-24", 0 ],
									"order" : 1,
									"source" : [ "obj-44", 0 ]
								}

							}
, 							{
								"patchline" : 								{
									"destination" : [ "obj-36", 0 ],
									"source" : [ "obj-45", 0 ]
								}

							}
, 							{
								"patchline" : 								{
									"destination" : [ "obj-4", 1 ],
									"source" : [ "obj-5", 0 ]
								}

							}
, 							{
								"patchline" : 								{
									"destination" : [ "obj-12", 1 ],
									"source" : [ "obj-55", 0 ]
								}

							}
, 							{
								"patchline" : 								{
									"color" : [ 0.331189, 0.768395, 0.550592, 0.9 ],
									"destination" : [ "obj-37", 0 ],
									"source" : [ "obj-55", 1 ]
								}

							}
, 							{
								"patchline" : 								{
									"destination" : [ "obj-37", 1 ],
									"source" : [ "obj-56", 0 ]
								}

							}
, 							{
								"patchline" : 								{
									"destination" : [ "obj-5", 0 ],
									"source" : [ "obj-6", 0 ]
								}

							}
, 							{
								"patchline" : 								{
									"destination" : [ "obj-6", 0 ],
									"source" : [ "obj-86", 0 ]
								}

							}
 ],
						"bgcolor" : [ 1.0, 1.0, 1.0, 0.0 ]
					}
,
					"patching_rect" : [ 0.0, 0.0, 153.0, 116.0 ],
					"varname" : "PercentSwitch",
					"viewvisibility" : 1
				}

			}
 ],
		"lines" : [  ],
		"parameters" : 		{
			"obj-19::obj-23" : [ "trigaoutled", "trigaoutled", 0 ],
			"obj-19::obj-86" : [ "CV Amt", "Amt", 0 ],
			"obj-19::obj-29" : [ "trigboutled", "trigboutled", 0 ],
			"obj-19::obj-45" : [ "PercentB", "Percent B", 0 ],
			"obj-19::obj-20" : [ "bypass", "bypass", 0 ],
			"obj-19::obj-189" : [ "triginled", "triginled", 0 ],
			"parameterbanks" : 			{

			}

		}
,
		"dependency_cache" : [  ],
		"autosave" : 0
	}

}
